<?xml version="1.0" encoding="UTF-8"?>
<svg width="128" height="128" version="1.1" viewBox="0 0 33.867 33.867" xmlns="http://www.w3.org/2000/svg"><g transform="matrix(.1143 0 0 .1143 -.30943 -.21173)"><path transform="translate(151.69 3.875)" d="m0 0c1.1795 0.018047 2.359 0.036094 3.5742 0.054688 1.3554 0.034805 1.3554 0.034805 2.7383 0.070312v2h2v2h2c1.625 1.375 1.625 1.375 3 3v2h2v2h2v2c0.99 0.33 1.98 0.66 3 1v2h2v2h2v2l3 1v2h2v2h2v2l1.9375 0.8125c2.0625 1.1875 2.0625 1.1875 3.0625 4.1875h2v2c0.59812 0.26812 1.1962 0.53625 1.8125 0.8125 2.186 1.1867 3.6008 2.2835 5.1875 4.1875v2h2v2l4 1 1 4h2v2l4 1v4h2v8h-2v4h-2v2h-2v2c-1.375 1.625-1.375 1.625-3 3h-2v2h-2v2c-2.375 2.625-2.375 2.625-5 5h-2v2l-4 1-1 4h-2v2l-4 1v2h-2c-0.26812 0.63938-0.53625 1.2788-0.8125 1.9375-1.1875 2.0625-1.1875 2.0625-4.1875 3.0625v2h-2c-0.26812 0.63938-0.53625 1.2788-0.8125 1.9375-1.1875 2.0625-1.1875 2.0625-4.1875 3.0625v2h-2v2h-2l-1 3h-2v2h-2v2h-2v2c-1.375 1.625-1.375 1.625-3 3h-2v2h-2v2c-1.375 1.625-1.375 1.625-3 3h-2v2h-2v2l-4 1-1 4h-2v2l-4 1v2h-2l-1 4-4 1v2h-2c-0.26812 0.59812-0.53625 1.1962-0.8125 1.8125-1.1867 2.186-2.2835 3.6008-4.1875 5.1875h-2v2h-2c-0.26812 0.63937-0.53625 1.2788-0.8125 1.9375-1.1875 2.0625-1.1875 2.0625-4.1875 3.0625v2h-2v2h-2l-1 3h-7v-3h-2v-118h2l1-5h2v-2c0.61875-0.0825 1.2375-0.165 1.875-0.25 2.2785-0.54278 2.2785-0.54278 3.1875-2.625 0.30938-0.70125 0.61875-1.4025 0.9375-2.125 1.5-1.75 1.5-1.75 3-3h2v-2h2c0.40219-0.89719 0.40219-0.89719 0.8125-1.8125 1.1867-2.186 2.2835-3.6008 4.1875-5.1875h2v-2h2c0.26812-0.63938 0.53625-1.2788 0.8125-1.9375 1.1875-2.0625 1.1875-2.0625 4.1875-3.0625v-2h2c0.26812-0.63938 0.53625-1.2788 0.8125-1.9375 1.1875-2.0625 1.1875-2.0625 4.1875-3.0625v-2h2v-2h2l1-3h2v-2h2v-2c3.632-2.4213 5.3835-2.2102 9.6875-2.125z" fill="#13b1e6"/><path transform="translate(247,92)" d="m0 0v2h2v2l4 1 1 4h2v2l4 1v2h2l1 4 4 1v2h2v2h2c1.625 1.375 1.625 1.375 3 3v2h2v2h2c1.625 1.375 1.625 1.375 3 3v2h2v2h2v2l3 1v2h2v2h2v2l1.9375 0.8125c2.0625 1.1875 2.0625 1.1875 3.0625 4.1875h2v14h-2l-2 5h-2c-0.26812 0.63938-0.53625 1.2788-0.8125 1.9375-1.1875 2.0625-1.1875 2.0625-4.1875 3.0625v2h-2c-0.26812 0.63938-0.53625 1.2788-0.8125 1.9375-1.1875 2.0625-1.1875 2.0625-4.1875 3.0625v2h-2v2h-2l-1 3h-2v2h-2v2h-2l-1 3h-2v2h-2v2h-2v2c-1.375 1.625-1.375 1.625-3 3h-2v2h-2v2c-1.375 1.625-1.375 1.625-3 3h-2v2c-3 2-3 2-6 2v2h-10v-2h-4c-2.75-2.375-2.75-2.375-5-5v-2h-2v-2h-2c-1.625-1.375-1.625-1.375-3-3v-2h-2v-2h-2v-2c-0.99-0.33-1.98-0.66-3-1v-2h-2v-2h-2v-2l-3-1v-2h-2v-2h-2v-2l-1.9375-0.8125c-2.0625-1.1875-2.0625-1.1875-3.0625-4.1875h-2v-2h-2v-2c-0.95906-0.40219-0.95906-0.40219-1.9375-0.8125-2.0625-1.1875-2.0625-1.1875-3.0625-4.1875h-2v-2l-1.875-0.6875c-2.8184-1.7408-3.2444-3.1572-4.125-6.3125-0.38592-3.8592 0.39629-6.4919 2-10h2v-2h2v-2c1.375-1.625 1.375-1.625 3-3h2v-2h2v-2l4-1 1-4h2v-2c0.61875-0.0825 1.2375-0.165 1.875-0.25 2.2785-0.54278 2.2785-0.54278 3.1875-2.625 0.30938-0.70125 0.61875-1.4025 0.9375-2.125 1.5-1.75 1.5-1.75 3-3h2v-2h2c0.26812-0.63938 0.53625-1.2788 0.8125-1.9375 1.1875-2.0625 1.1875-2.0625 4.1875-3.0625v-2h2v-2h2l1-3h2v-2h2c0.26812-0.59812 0.53625-1.1962 0.8125-1.8125 1.1867-2.186 2.2835-3.6008 4.1875-5.1875h2v-2c5.4681-2.4606 8.4873-1.7108 14 0z" fill="#13b1e5"/><path transform="translate(146,178)" d="m0 0h12v2h2v2c0.95906 0.40219 0.95906 0.40219 1.9375 0.8125 2.0625 1.1875 2.0625 1.1875 3.0625 4.1875h2v2l1.9375 0.8125c2.0625 1.1875 2.0625 1.1875 3.0625 4.1875h2v2l4 1 1 4h2v2l4 1v2h2l1 4 4 1v2h2v2h2c1.625 1.375 1.625 1.375 3 3v2h2v2h2c1.625 1.375 1.625 1.375 3 3v2h2v2h2c2.2806 3.4209 2.2192 4.6819 2.125 8.6875-0.01805 0.99387-0.03609 1.9877-0.05469 3.0117-0.023201 0.75926-0.046404 1.5185-0.07031 2.3008h-2v3h-2v2h-2v2h-2l-1 3h-2v2h-2v2h-2v2c-1.375 1.625-1.375 1.625-3 3h-2v2h-2v2c-1.375 1.625-1.375 1.625-3 3h-2v2h-2v2c-2.375 2.625-2.375 2.625-5 5h-2v2c-1.4288 1.2294-2.8639 2.4526-4.3398 3.625-1.9139 1.5363-1.9139 1.5363-4.4102 4.1875-2.25 2.1875-2.25 2.1875-4.25 2.1875-0.26812 0.61875-0.53625 1.2375-0.8125 1.875-1.1875 2.125-1.1875 2.125-4.1875 4.125-2.918 0.19531-2.918 0.19531-6.1875 0.125-1.0867-0.0181-2.1734-0.0361-3.293-0.0547-0.83145-0.02319-1.6629-0.04639-2.5195-0.0703v-2c-0.58266-0.10441-1.1653-0.20883-1.7656-0.31641-2.5708-0.78653-3.9684-1.8592-5.9844-3.6211-0.61359-0.52465-1.2272-1.0493-1.8594-1.5898-1.3906-1.4727-1.3906-1.4727-1.3906-3.4727h-2v-2h-2c-1.625-1.375-1.625-1.375-3-3v-2h-2v-2h-2c-1.625-1.375-1.625-1.375-3-3v-2h-2v-2h-2v-2l-3-1v-2h-2v-2h-2v-2l-1.9375-0.8125c-2.0625-1.1875-2.0625-1.1875-3.0625-4.1875h-2v-2h-2c-1.625-1.375-1.625-1.375-3-3v-2h-2v-3h-2v-2h-2v-11h2v-3h2c0.40219-0.95906 0.40219-0.95906 0.8125-1.9375 1.1875-2.0625 1.1875-2.0625 4.1875-3.0625v-2h2c0.26812-0.63938 0.53625-1.2788 0.8125-1.9375 1.1875-2.0625 1.1875-2.0625 4.1875-3.0625v-2h2v-2h2l1-3h2v-2h2v-2h2v-2c1.375-1.625 1.375-1.625 3-3h2v-2h2v-2c1.375-1.625 1.375-1.625 3-3h2v-2h2v-2l4-1 1-4h2v-2l4-1v-2h2v-2z" fill="#12b1e5"/><path transform="translate(51,96)" d="m0 0h9v108h-2v2h-5v-2l-4-1v-2h-2l-1-4-4-1v-2h-2v-2h-2c-1.625-1.375-1.625-1.375-3-3v-2h-2v-2h-2v-2l-3-1v-2h-2v-2h-2v-2l-3-1v-2h-2v-2h-2v-2c-0.95906-0.40219-0.95906-0.40219-1.9375-0.8125-2.0625-1.1875-2.0625-1.1875-3.0625-4.1875h-2v-2c-0.59812-0.26812-1.1962-0.53625-1.8125-0.8125-2.3094-1.2537-3.5932-2.1009-5.1875-4.1875-0.32812-2.8477-0.32812-2.8477-0.25-6.0625 0.01547-1.0635 0.03094-2.127 0.04687-3.2227 0.20313-2.7148 0.20313-2.7148 1.2031-4.7148h2v-2h2v-2c2.375-2.625 2.375-2.625 5-5h2v-2c1.6205-1.7116 3.2978-3.3697 5-5 1.3919-1.4081 2.7838-2.8162 4.1744-4.2257 2.1119-2.1388 4.2293-4.2722 6.3469-6.4054 1.118-1.1281 2.2342-2.258 3.3486-3.3896 1.6156-1.6397 3.2374-3.2729 4.8606-4.905 0.49896-0.50929 0.99792-1.0186 1.512-1.5433 1.2151-1.2155 2.4822-2.3788 3.7575-3.5309h2c0.26812-0.59812 0.53625-1.1962 0.8125-1.8125 1.1875-2.1875 1.1875-2.1875 4.1875-5.1875z" fill="#13b1e5"/><path transform="translate(51,96)" d="m0 0h9v108h-2v2h-5v-2l-2-1 7-2 1-104h-8v-1z" fill="#2fa7ce"/><path transform="translate(11,137)" d="m0 0 1 3-2.5 1.8125c-2.0071 1.9731-2.4735 2.9969-2.8672 5.8281-0.075512 6.2945-0.075512 6.2945 1.3672 12.359 0.99 0.33 1.98 0.66 3 1l1 3h-2v-2c-0.59812-0.26812-1.1962-0.53625-1.8125-0.8125-2.3094-1.2537-3.5932-2.1009-5.1875-4.1875-0.32812-2.8477-0.32812-2.8477-0.25-6.0625 0.015469-1.0635 0.030938-2.127 0.046875-3.2227 0.20312-2.7148 0.20312-2.7148 1.2031-4.7148h2v-2h2v-2l3-2z" fill="#29a9d6"/><path transform="translate(116,159)" d="m0 0c0.99 0.33 1.98 0.66 3 1l-4 2v2h-2c-0.26812 0.63938-0.53625 1.2788-0.8125 1.9375-1.1875 2.0625-1.1875 2.0625-4.1875 3.0625v2h-2v2h-2l-1 3h-7v-3c3.465-0.495 3.465-0.495 7-1l1-3c1.7788-1.6043 3.6215-3.1387 5.5-4.625 1.0003-0.79664 2.0006-1.5933 3.0312-2.4141 0.81469-0.64711 1.6294-1.2942 2.4688-1.9609l1-1z" fill="#29a9d3"/><path transform="translate(203,50)" d="m0 0 1 2h2v2l4 1v4h2v8h-2v4h-2v2h-2v2c-1.375 1.625-1.375 1.625-3 3h-2v2h-2c2.0636-5.2279 3.0616-7.1604 8-10 1.8782-1.8782 1.391-5.0394 1.5625-7.5625 0.083789-1.1975 0.16758-2.3951 0.25391-3.6289 0.060586-0.92684 0.12117-1.8537 0.18359-2.8086l-5-1-1-5z" fill="#2da8d0"/><path transform="translate(150,127)" d="m0 0 1 2h-2v2c-1.375 1.625-1.375 1.625-3 3h-2v2h-2v2l-4 1-1 4h-2v2l-4 1v2h-2l-0.3125 1.9375-0.6875 2.0625c-0.99 0.33-1.98 0.66-3 1v-2h2c0.09668-0.58781 0.19336-1.1756 0.29297-1.7812 0.85285-2.6764 1.9861-3.8029 4.0195-5.7188 0.63164-0.6007 1.2633-1.2014 1.9141-1.8203 0.87785-0.83145 0.87785-0.83145 1.7734-1.6797 0.72188-0.78375 1.4438-1.5675 2.1875-2.375 1.9549-1.7526 3.2395-2.2574 5.8125-2.625v-2h2l0.25-1.875c0.75-2.125 0.75-2.125 2.8125-3.375 0.63938-0.2475 1.2788-0.495 1.9375-0.75z" fill="#29a9d4"/><path transform="translate(139,289)" d="m0 0c1.9375 0.375 1.9375 0.375 4 1l1 2h15l1-2h3c-1.3698 3.1612-1.9891 3.9927-5 6-2.918 0.19531-2.918 0.19531-6.1875 0.125-1.0867-0.018047-2.1734-0.036094-3.293-0.054688-1.2472-0.034805-1.2472-0.034805-2.5195-0.070312v-2l-1.8125-0.3125c-2.4828-0.78031-3.5381-1.7082-5.1875-3.6875v-1z" fill="#2ca8cf"/><path transform="translate(146,178)" d="m0 0h12v2h2v2l2 1h-4v-2l-1.9375 0.5c-4.0384 0.65933-7.9806 0.58004-12.062 0.5v-2h2v-2z" fill="#2fa7cf"/><path transform="translate(209,229)" d="m0 0c3 3 3 3 3.293 5.6992-0.034805 0.98613-0.069609 1.9723-0.10547 2.9883-0.02707 0.99387-0.054141 1.9877-0.082031 3.0117-0.034805 0.75926-0.069609 1.5185-0.10547 2.3008h-2v3h-2v2l-2-1 1-2h2v-16z" fill="#2fa7cf"/><path transform="translate(145,4)" d="m0 0h13v2h2v2h2c1.625 1.375 1.625 1.375 3 3v2h2v2h2l-1 2-4-1v-4h-4c-3-4.0714-3-4.0714-3-7h-12v-1z" fill="#38a4ca"/><path transform="translate(192,84)" d="m0 0c0.99 0.33 1.98 0.66 3 1l-1 2h-2v2l-4 1-1 4h-2v2l-2-1c0.1875-2.3125 0.1875-2.3125 1-5 2.375-1.625 2.375-1.625 5-3 1.7515-1.5825 1.7515-1.5825 3-3z" fill="#27aad6"/><path transform="translate(36,186)" d="m0 0 1 2h4l1 5 4 1v3l-4-1v-2h-2v-2h-2c-1.625-1.5-1.625-1.5-3-3l1-3z" fill="#2aa9d3"/><path transform="translate(94,229)" d="m0 0c1.0672 3.4622 1.1017 6.6404 1.0625 10.25-0.00902 1.0777-0.018047 2.1553-0.027344 3.2656-0.011601 0.81984-0.023203 1.6397-0.035156 2.4844l-1-2h-2v-11h2v-3z" fill="#32a6cd"/><path transform="translate(187,34)" d="m0 0 1 2h2v2c0.59812 0.26812 1.1962 0.53625 1.8125 0.8125 2.1597 1.1724 3.5454 2.3812 5.1875 4.1875l-1 3-2-1v-2h-2c-5-5.3571-5-5.3571-5-9z" fill="#29a9d4"/><path transform="translate(165,113)" d="m0 0v2h-2l-1 3h-2v2h-2v2h-2v2h-2v-3h2v-2h3v-3c3.3333-3 3.3333-3 6-3z" fill="#2ca8d4"/><path transform="translate(257,103)" d="m0 0c0.99 0.33 1.98 0.66 3 1v2h2l0.375 1.9375 0.625 2.0625 2 1c-2.97-0.495-2.97-0.495-6-1l-2-7z" fill="#2fa7cf"/><path transform="translate(175,276)" d="m0 0h3v2h-2v2c-1.5312 1.2891-1.5312 1.2891-3.5 2.625-0.64969 0.44602-1.2994 0.89203-1.9688 1.3516-0.50531 0.33773-1.0106 0.67547-1.5312 1.0234l1-5 5-1v-3z" fill="#2ca8d2"/><path transform="translate(184,142)" d="m0 0c0.3125 2.25 0.3125 2.25 0 5-2.5 2.3125-2.5 2.3125-5 4 0.33333-1.3333 0.66667-2.6667 1-4l0.4375-2.1875 0.5625-1.8125c2-1 2-1 3-1z" fill="#21acda"/><path transform="translate(271,117)" d="m0 0c0.99 0.33 1.98 0.66 3 1v2h2v2h2l1 3c-3.8886-1.2612-5.8938-2.4526-8-6v-2z" fill="#32a6ce"/><path transform="translate(160,9)" d="m0 0 5 2v2h2v2h2l-1 2-4-1v-4h-4v-3z" fill="#27aad5"/><path transform="translate(243.12 90.938)" d="m0 0c1.0867 0.29197 1.0867 0.29197 2.1953 0.58984 0.5543 0.15598 1.1086 0.31195 1.6797 0.47266v1h-14c6.25-3.125 6.25-3.125 10.125-2.0625z" fill="#2fa6d0"/><path transform="translate(12,164)" d="m0 0h3l1 3c0.99 0.33 1.98 0.66 3 1v3h-2v-2l-1.9375-0.8125c-2.0625-1.1875-2.0625-1.1875-3.0625-4.1875z" fill="#25abd7"/><path transform="translate(171,104)" d="m0 0h3v2h-2c-0.28875 0.63938-0.5775 1.2788-0.875 1.9375-1.125 2.0625-1.125 2.0625-3.125 3.0625 0.61278-2.9618 1.2537-4.3806 3-7z" fill="#2ba9d2"/></g></svg>
