<?xml version="1.0" encoding="UTF-8"?>
<svg version="1.1" xmlns="http://www.w3.org/2000/svg" width="300" height="300">
<path d="M0 0 C1.17949219 0.01804688 2.35898438 0.03609375 3.57421875 0.0546875 C4.92966797 0.08949219 4.92966797 0.08949219 6.3125 0.125 C6.3125 0.785 6.3125 1.445 6.3125 2.125 C6.9725 2.125 7.6325 2.125 8.3125 2.125 C8.3125 2.785 8.3125 3.445 8.3125 4.125 C8.9725 4.125 9.6325 4.125 10.3125 4.125 C11.9375 5.5 11.9375 5.5 13.3125 7.125 C13.3125 7.785 13.3125 8.445 13.3125 9.125 C13.9725 9.125 14.6325 9.125 15.3125 9.125 C15.3125 9.785 15.3125 10.445 15.3125 11.125 C15.9725 11.125 16.6325 11.125 17.3125 11.125 C17.3125 11.785 17.3125 12.445 17.3125 13.125 C18.3025 13.455 19.2925 13.785 20.3125 14.125 C20.3125 14.785 20.3125 15.445 20.3125 16.125 C20.9725 16.125 21.6325 16.125 22.3125 16.125 C22.3125 16.785 22.3125 17.445 22.3125 18.125 C22.9725 18.125 23.6325 18.125 24.3125 18.125 C24.3125 18.785 24.3125 19.445 24.3125 20.125 C25.7975 20.62 25.7975 20.62 27.3125 21.125 C27.3125 21.785 27.3125 22.445 27.3125 23.125 C27.9725 23.125 28.6325 23.125 29.3125 23.125 C29.3125 23.785 29.3125 24.445 29.3125 25.125 C29.9725 25.125 30.6325 25.125 31.3125 25.125 C31.3125 25.785 31.3125 26.445 31.3125 27.125 C31.951875 27.393125 32.59125 27.66125 33.25 27.9375 C35.3125 29.125 35.3125 29.125 36.3125 32.125 C36.9725 32.125 37.6325 32.125 38.3125 32.125 C38.3125 32.785 38.3125 33.445 38.3125 34.125 C38.910625 34.393125 39.50875 34.66125 40.125 34.9375 C42.31097854 36.12417406 43.72582594 37.22099113 45.3125 39.125 C45.3125 39.785 45.3125 40.445 45.3125 41.125 C45.9725 41.125 46.6325 41.125 47.3125 41.125 C47.3125 41.785 47.3125 42.445 47.3125 43.125 C49.2925 43.62 49.2925 43.62 51.3125 44.125 C51.8075 46.105 51.8075 46.105 52.3125 48.125 C52.9725 48.125 53.6325 48.125 54.3125 48.125 C54.3125 48.785 54.3125 49.445 54.3125 50.125 C56.2925 50.62 56.2925 50.62 58.3125 51.125 C58.3125 52.445 58.3125 53.765 58.3125 55.125 C58.9725 55.125 59.6325 55.125 60.3125 55.125 C60.3125 57.765 60.3125 60.405 60.3125 63.125 C59.6525 63.125 58.9925 63.125 58.3125 63.125 C58.3125 64.445 58.3125 65.765 58.3125 67.125 C57.6525 67.125 56.9925 67.125 56.3125 67.125 C56.3125 67.785 56.3125 68.445 56.3125 69.125 C55.6525 69.125 54.9925 69.125 54.3125 69.125 C54.3125 69.785 54.3125 70.445 54.3125 71.125 C52.9375 72.75 52.9375 72.75 51.3125 74.125 C50.6525 74.125 49.9925 74.125 49.3125 74.125 C49.3125 74.785 49.3125 75.445 49.3125 76.125 C48.6525 76.125 47.9925 76.125 47.3125 76.125 C47.3125 76.785 47.3125 77.445 47.3125 78.125 C44.9375 80.75 44.9375 80.75 42.3125 83.125 C41.6525 83.125 40.9925 83.125 40.3125 83.125 C40.3125 83.785 40.3125 84.445 40.3125 85.125 C38.9925 85.455 37.6725 85.785 36.3125 86.125 C35.8175 88.105 35.8175 88.105 35.3125 90.125 C34.6525 90.125 33.9925 90.125 33.3125 90.125 C33.3125 90.785 33.3125 91.445 33.3125 92.125 C31.9925 92.455 30.6725 92.785 29.3125 93.125 C29.3125 93.785 29.3125 94.445 29.3125 95.125 C28.6525 95.125 27.9925 95.125 27.3125 95.125 C27.044375 95.764375 26.77625 96.40375 26.5 97.0625 C25.3125 99.125 25.3125 99.125 22.3125 100.125 C22.3125 100.785 22.3125 101.445 22.3125 102.125 C21.6525 102.125 20.9925 102.125 20.3125 102.125 C20.044375 102.764375 19.77625 103.40375 19.5 104.0625 C18.3125 106.125 18.3125 106.125 15.3125 107.125 C15.3125 107.785 15.3125 108.445 15.3125 109.125 C14.6525 109.125 13.9925 109.125 13.3125 109.125 C13.3125 109.785 13.3125 110.445 13.3125 111.125 C12.6525 111.125 11.9925 111.125 11.3125 111.125 C10.8175 112.61 10.8175 112.61 10.3125 114.125 C9.6525 114.125 8.9925 114.125 8.3125 114.125 C8.3125 114.785 8.3125 115.445 8.3125 116.125 C7.6525 116.125 6.9925 116.125 6.3125 116.125 C6.3125 116.785 6.3125 117.445 6.3125 118.125 C5.6525 118.125 4.9925 118.125 4.3125 118.125 C4.3125 118.785 4.3125 119.445 4.3125 120.125 C2.9375 121.75 2.9375 121.75 1.3125 123.125 C0.6525 123.125 -0.0075 123.125 -0.6875 123.125 C-0.6875 123.785 -0.6875 124.445 -0.6875 125.125 C-1.3475 125.125 -2.0075 125.125 -2.6875 125.125 C-2.6875 125.785 -2.6875 126.445 -2.6875 127.125 C-4.0625 128.75 -4.0625 128.75 -5.6875 130.125 C-6.3475 130.125 -7.0075 130.125 -7.6875 130.125 C-7.6875 130.785 -7.6875 131.445 -7.6875 132.125 C-8.3475 132.125 -9.0075 132.125 -9.6875 132.125 C-9.6875 132.785 -9.6875 133.445 -9.6875 134.125 C-11.0075 134.455 -12.3275 134.785 -13.6875 135.125 C-14.0175 136.445 -14.3475 137.765 -14.6875 139.125 C-15.3475 139.125 -16.0075 139.125 -16.6875 139.125 C-16.6875 139.785 -16.6875 140.445 -16.6875 141.125 C-18.0075 141.455 -19.3275 141.785 -20.6875 142.125 C-20.6875 142.785 -20.6875 143.445 -20.6875 144.125 C-21.3475 144.125 -22.0075 144.125 -22.6875 144.125 C-23.0175 145.445 -23.3475 146.765 -23.6875 148.125 C-25.0075 148.455 -26.3275 148.785 -27.6875 149.125 C-27.6875 149.785 -27.6875 150.445 -27.6875 151.125 C-28.3475 151.125 -29.0075 151.125 -29.6875 151.125 C-29.955625 151.723125 -30.22375 152.32125 -30.5 152.9375 C-31.68667406 155.12347854 -32.78349113 156.53832594 -34.6875 158.125 C-35.3475 158.125 -36.0075 158.125 -36.6875 158.125 C-36.6875 158.785 -36.6875 159.445 -36.6875 160.125 C-37.3475 160.125 -38.0075 160.125 -38.6875 160.125 C-38.955625 160.764375 -39.22375 161.40375 -39.5 162.0625 C-40.6875 164.125 -40.6875 164.125 -43.6875 165.125 C-43.6875 165.785 -43.6875 166.445 -43.6875 167.125 C-44.3475 167.125 -45.0075 167.125 -45.6875 167.125 C-45.6875 167.785 -45.6875 168.445 -45.6875 169.125 C-46.3475 169.125 -47.0075 169.125 -47.6875 169.125 C-48.0175 170.115 -48.3475 171.105 -48.6875 172.125 C-50.9975 172.125 -53.3075 172.125 -55.6875 172.125 C-55.6875 171.135 -55.6875 170.145 -55.6875 169.125 C-56.3475 169.125 -57.0075 169.125 -57.6875 169.125 C-57.6875 130.185 -57.6875 91.245 -57.6875 51.125 C-57.0275 51.125 -56.3675 51.125 -55.6875 51.125 C-55.3575 49.475 -55.0275 47.825 -54.6875 46.125 C-54.0275 46.125 -53.3675 46.125 -52.6875 46.125 C-52.6875 45.465 -52.6875 44.805 -52.6875 44.125 C-52.06875 44.0425 -51.45 43.96 -50.8125 43.875 C-48.53395565 43.33221701 -48.53395565 43.33221701 -47.625 41.25 C-47.315625 40.54875 -47.00625 39.8475 -46.6875 39.125 C-45.1875 37.375 -45.1875 37.375 -43.6875 36.125 C-43.0275 36.125 -42.3675 36.125 -41.6875 36.125 C-41.6875 35.465 -41.6875 34.805 -41.6875 34.125 C-41.0275 34.125 -40.3675 34.125 -39.6875 34.125 C-39.2853125 33.2278125 -39.2853125 33.2278125 -38.875 32.3125 C-37.68832594 30.12652146 -36.59150887 28.71167406 -34.6875 27.125 C-34.0275 27.125 -33.3675 27.125 -32.6875 27.125 C-32.6875 26.465 -32.6875 25.805 -32.6875 25.125 C-32.0275 25.125 -31.3675 25.125 -30.6875 25.125 C-30.419375 24.485625 -30.15125 23.84625 -29.875 23.1875 C-28.6875 21.125 -28.6875 21.125 -25.6875 20.125 C-25.6875 19.465 -25.6875 18.805 -25.6875 18.125 C-25.0275 18.125 -24.3675 18.125 -23.6875 18.125 C-23.419375 17.485625 -23.15125 16.84625 -22.875 16.1875 C-21.6875 14.125 -21.6875 14.125 -18.6875 13.125 C-18.6875 12.465 -18.6875 11.805 -18.6875 11.125 C-18.0275 11.125 -17.3675 11.125 -16.6875 11.125 C-16.6875 10.465 -16.6875 9.805 -16.6875 9.125 C-16.0275 9.125 -15.3675 9.125 -14.6875 9.125 C-14.3575 8.135 -14.0275 7.145 -13.6875 6.125 C-13.0275 6.125 -12.3675 6.125 -11.6875 6.125 C-11.6875 5.465 -11.6875 4.805 -11.6875 4.125 C-11.0275 4.125 -10.3675 4.125 -9.6875 4.125 C-9.6875 3.465 -9.6875 2.805 -9.6875 2.125 C-6.05554504 -0.29630331 -4.30400652 -0.08522785 0 0 Z " fill="#13B1E6" transform="translate(151.6875,3.875)"/>
<path d="M0 0 C0 0.66 0 1.32 0 2 C0.66 2 1.32 2 2 2 C2 2.66 2 3.32 2 4 C3.32 4.33 4.64 4.66 6 5 C6.495 6.98 6.495 6.98 7 9 C7.66 9 8.32 9 9 9 C9 9.66 9 10.32 9 11 C10.32 11.33 11.64 11.66 13 12 C13 12.66 13 13.32 13 14 C13.66 14 14.32 14 15 14 C15.495 15.98 15.495 15.98 16 18 C17.98 18.495 17.98 18.495 20 19 C20 19.66 20 20.32 20 21 C20.66 21 21.32 21 22 21 C22 21.66 22 22.32 22 23 C22.66 23 23.32 23 24 23 C25.625 24.375 25.625 24.375 27 26 C27 26.66 27 27.32 27 28 C27.66 28 28.32 28 29 28 C29 28.66 29 29.32 29 30 C29.66 30 30.32 30 31 30 C32.625 31.375 32.625 31.375 34 33 C34 33.66 34 34.32 34 35 C34.66 35 35.32 35 36 35 C36 35.66 36 36.32 36 37 C36.66 37 37.32 37 38 37 C38 37.66 38 38.32 38 39 C39.485 39.495 39.485 39.495 41 40 C41 40.66 41 41.32 41 42 C41.66 42 42.32 42 43 42 C43 42.66 43 43.32 43 44 C43.66 44 44.32 44 45 44 C45 44.66 45 45.32 45 46 C45.639375 46.268125 46.27875 46.53625 46.9375 46.8125 C49 48 49 48 50 51 C50.66 51 51.32 51 52 51 C52 55.62 52 60.24 52 65 C51.34 65 50.68 65 50 65 C49.34 66.65 48.68 68.3 48 70 C47.34 70 46.68 70 46 70 C45.731875 70.639375 45.46375 71.27875 45.1875 71.9375 C44 74 44 74 41 75 C41 75.66 41 76.32 41 77 C40.34 77 39.68 77 39 77 C38.731875 77.639375 38.46375 78.27875 38.1875 78.9375 C37 81 37 81 34 82 C34 82.66 34 83.32 34 84 C33.34 84 32.68 84 32 84 C32 84.66 32 85.32 32 86 C31.34 86 30.68 86 30 86 C29.505 87.485 29.505 87.485 29 89 C28.34 89 27.68 89 27 89 C27 89.66 27 90.32 27 91 C26.34 91 25.68 91 25 91 C25 91.66 25 92.32 25 93 C24.34 93 23.68 93 23 93 C22.505 94.485 22.505 94.485 22 96 C21.34 96 20.68 96 20 96 C20 96.66 20 97.32 20 98 C19.34 98 18.68 98 18 98 C18 98.66 18 99.32 18 100 C17.34 100 16.68 100 16 100 C16 100.66 16 101.32 16 102 C14.625 103.625 14.625 103.625 13 105 C12.34 105 11.68 105 11 105 C11 105.66 11 106.32 11 107 C10.34 107 9.68 107 9 107 C9 107.66 9 108.32 9 109 C7.625 110.625 7.625 110.625 6 112 C5.34 112 4.68 112 4 112 C4 112.66 4 113.32 4 114 C1 116 1 116 -2 116 C-2 116.66 -2 117.32 -2 118 C-5.3 118 -8.6 118 -12 118 C-12 117.34 -12 116.68 -12 116 C-13.32 116 -14.64 116 -16 116 C-18.75 113.625 -18.75 113.625 -21 111 C-21 110.34 -21 109.68 -21 109 C-21.66 109 -22.32 109 -23 109 C-23 108.34 -23 107.68 -23 107 C-23.66 107 -24.32 107 -25 107 C-26.625 105.625 -26.625 105.625 -28 104 C-28 103.34 -28 102.68 -28 102 C-28.66 102 -29.32 102 -30 102 C-30 101.34 -30 100.68 -30 100 C-30.66 100 -31.32 100 -32 100 C-32 99.34 -32 98.68 -32 98 C-32.99 97.67 -33.98 97.34 -35 97 C-35 96.34 -35 95.68 -35 95 C-35.66 95 -36.32 95 -37 95 C-37 94.34 -37 93.68 -37 93 C-37.66 93 -38.32 93 -39 93 C-39 92.34 -39 91.68 -39 91 C-40.485 90.505 -40.485 90.505 -42 90 C-42 89.34 -42 88.68 -42 88 C-42.66 88 -43.32 88 -44 88 C-44 87.34 -44 86.68 -44 86 C-44.66 86 -45.32 86 -46 86 C-46 85.34 -46 84.68 -46 84 C-46.639375 83.731875 -47.27875 83.46375 -47.9375 83.1875 C-50 82 -50 82 -51 79 C-51.66 79 -52.32 79 -53 79 C-53 78.34 -53 77.68 -53 77 C-53.66 77 -54.32 77 -55 77 C-55 76.34 -55 75.68 -55 75 C-55.9590625 74.5978125 -55.9590625 74.5978125 -56.9375 74.1875 C-59 73 -59 73 -60 70 C-60.66 70 -61.32 70 -62 70 C-62 69.34 -62 68.68 -62 68 C-62.61875 67.773125 -63.2375 67.54625 -63.875 67.3125 C-66.69339387 65.57172731 -67.11944786 64.15531182 -68 61 C-68.38592327 57.14076731 -67.60371394 54.50812425 -66 51 C-65.34 51 -64.68 51 -64 51 C-64 50.34 -64 49.68 -64 49 C-63.34 49 -62.68 49 -62 49 C-62 48.34 -62 47.68 -62 47 C-60.625 45.375 -60.625 45.375 -59 44 C-58.34 44 -57.68 44 -57 44 C-57 43.34 -57 42.68 -57 42 C-56.34 42 -55.68 42 -55 42 C-55 41.34 -55 40.68 -55 40 C-53.02 39.505 -53.02 39.505 -51 39 C-50.67 37.68 -50.34 36.36 -50 35 C-49.34 35 -48.68 35 -48 35 C-48 34.34 -48 33.68 -48 33 C-47.38125 32.9175 -46.7625 32.835 -46.125 32.75 C-43.84645565 32.20721701 -43.84645565 32.20721701 -42.9375 30.125 C-42.628125 29.42375 -42.31875 28.7225 -42 28 C-40.5 26.25 -40.5 26.25 -39 25 C-38.34 25 -37.68 25 -37 25 C-37 24.34 -37 23.68 -37 23 C-36.34 23 -35.68 23 -35 23 C-34.731875 22.360625 -34.46375 21.72125 -34.1875 21.0625 C-33 19 -33 19 -30 18 C-30 17.34 -30 16.68 -30 16 C-29.34 16 -28.68 16 -28 16 C-28 15.34 -28 14.68 -28 14 C-27.34 14 -26.68 14 -26 14 C-25.67 13.01 -25.34 12.02 -25 11 C-24.34 11 -23.68 11 -23 11 C-23 10.34 -23 9.68 -23 9 C-22.34 9 -21.68 9 -21 9 C-20.731875 8.401875 -20.46375 7.80375 -20.1875 7.1875 C-19.00082594 5.00152146 -17.90400887 3.58667406 -16 2 C-15.34 2 -14.68 2 -14 2 C-14 1.34 -14 0.68 -14 0 C-8.53190155 -2.4606443 -5.51272919 -1.71084699 0 0 Z " fill="#13B1E5" transform="translate(247,92)"/>
<path d="M0 0 C3.96 0 7.92 0 12 0 C12 0.66 12 1.32 12 2 C12.66 2 13.32 2 14 2 C14 2.66 14 3.32 14 4 C14.9590625 4.4021875 14.9590625 4.4021875 15.9375 4.8125 C18 6 18 6 19 9 C19.66 9 20.32 9 21 9 C21 9.66 21 10.32 21 11 C21.639375 11.268125 22.27875 11.53625 22.9375 11.8125 C25 13 25 13 26 16 C26.66 16 27.32 16 28 16 C28 16.66 28 17.32 28 18 C29.98 18.495 29.98 18.495 32 19 C32.495 20.98 32.495 20.98 33 23 C33.66 23 34.32 23 35 23 C35 23.66 35 24.32 35 25 C36.98 25.495 36.98 25.495 39 26 C39 26.66 39 27.32 39 28 C39.66 28 40.32 28 41 28 C41.495 29.98 41.495 29.98 42 32 C43.98 32.495 43.98 32.495 46 33 C46 33.66 46 34.32 46 35 C46.66 35 47.32 35 48 35 C48 35.66 48 36.32 48 37 C48.66 37 49.32 37 50 37 C51.625 38.375 51.625 38.375 53 40 C53 40.66 53 41.32 53 42 C53.66 42 54.32 42 55 42 C55 42.66 55 43.32 55 44 C55.66 44 56.32 44 57 44 C58.625 45.375 58.625 45.375 60 47 C60 47.66 60 48.32 60 49 C60.66 49 61.32 49 62 49 C62 49.66 62 50.32 62 51 C62.66 51 63.32 51 64 51 C66.28062828 54.42094242 66.21925007 55.68187222 66.125 59.6875 C66.10695313 60.68136719 66.08890625 61.67523438 66.0703125 62.69921875 C66.04710937 63.45847656 66.02390625 64.21773438 66 65 C65.34 65 64.68 65 64 65 C64 65.99 64 66.98 64 68 C63.34 68 62.68 68 62 68 C62 68.66 62 69.32 62 70 C61.34 70 60.68 70 60 70 C60 70.66 60 71.32 60 72 C59.34 72 58.68 72 58 72 C57.505 73.485 57.505 73.485 57 75 C56.34 75 55.68 75 55 75 C55 75.66 55 76.32 55 77 C54.34 77 53.68 77 53 77 C53 77.66 53 78.32 53 79 C52.34 79 51.68 79 51 79 C51 79.66 51 80.32 51 81 C49.625 82.625 49.625 82.625 48 84 C47.34 84 46.68 84 46 84 C46 84.66 46 85.32 46 86 C45.34 86 44.68 86 44 86 C44 86.66 44 87.32 44 88 C42.625 89.625 42.625 89.625 41 91 C40.34 91 39.68 91 39 91 C39 91.66 39 92.32 39 93 C38.34 93 37.68 93 37 93 C37 93.66 37 94.32 37 95 C34.625 97.625 34.625 97.625 32 100 C31.34 100 30.68 100 30 100 C30 100.66 30 101.32 30 102 C28.57124236 103.22939611 27.13607432 104.45263954 25.66015625 105.625 C23.74627275 107.16129468 23.74627275 107.16129468 21.25 109.8125 C19 112 19 112 17 112 C16.731875 112.61875 16.46375 113.2375 16.1875 113.875 C15 116 15 116 12 118 C9.08203125 118.1953125 9.08203125 118.1953125 5.8125 118.125 C4.72582031 118.10695313 3.63914063 118.08890625 2.51953125 118.0703125 C1.68808594 118.04710937 0.85664063 118.02390625 0 118 C0 117.34 0 116.68 0 116 C-0.58265625 115.89558594 -1.1653125 115.79117188 -1.765625 115.68359375 C-4.33645423 114.89706383 -5.7340058 113.82434109 -7.75 112.0625 C-8.36359375 111.53785156 -8.9771875 111.01320313 -9.609375 110.47265625 C-11 109 -11 109 -11 107 C-11.66 107 -12.32 107 -13 107 C-13 106.34 -13 105.68 -13 105 C-13.66 105 -14.32 105 -15 105 C-16.625 103.625 -16.625 103.625 -18 102 C-18 101.34 -18 100.68 -18 100 C-18.66 100 -19.32 100 -20 100 C-20 99.34 -20 98.68 -20 98 C-20.66 98 -21.32 98 -22 98 C-23.625 96.625 -23.625 96.625 -25 95 C-25 94.34 -25 93.68 -25 93 C-25.66 93 -26.32 93 -27 93 C-27 92.34 -27 91.68 -27 91 C-27.66 91 -28.32 91 -29 91 C-29 90.34 -29 89.68 -29 89 C-30.485 88.505 -30.485 88.505 -32 88 C-32 87.34 -32 86.68 -32 86 C-32.66 86 -33.32 86 -34 86 C-34 85.34 -34 84.68 -34 84 C-34.66 84 -35.32 84 -36 84 C-36 83.34 -36 82.68 -36 82 C-36.639375 81.731875 -37.27875 81.46375 -37.9375 81.1875 C-40 80 -40 80 -41 77 C-41.66 77 -42.32 77 -43 77 C-43 76.34 -43 75.68 -43 75 C-43.66 75 -44.32 75 -45 75 C-46.625 73.625 -46.625 73.625 -48 72 C-48 71.34 -48 70.68 -48 70 C-48.66 70 -49.32 70 -50 70 C-50 69.01 -50 68.02 -50 67 C-50.66 67 -51.32 67 -52 67 C-52 66.34 -52 65.68 -52 65 C-52.66 65 -53.32 65 -54 65 C-54 61.37 -54 57.74 -54 54 C-53.34 54 -52.68 54 -52 54 C-52 53.01 -52 52.02 -52 51 C-51.34 51 -50.68 51 -50 51 C-49.5978125 50.0409375 -49.5978125 50.0409375 -49.1875 49.0625 C-48 47 -48 47 -45 46 C-45 45.34 -45 44.68 -45 44 C-44.34 44 -43.68 44 -43 44 C-42.731875 43.360625 -42.46375 42.72125 -42.1875 42.0625 C-41 40 -41 40 -38 39 C-38 38.34 -38 37.68 -38 37 C-37.34 37 -36.68 37 -36 37 C-36 36.34 -36 35.68 -36 35 C-35.34 35 -34.68 35 -34 35 C-33.67 34.01 -33.34 33.02 -33 32 C-32.34 32 -31.68 32 -31 32 C-31 31.34 -31 30.68 -31 30 C-30.34 30 -29.68 30 -29 30 C-29 29.34 -29 28.68 -29 28 C-28.34 28 -27.68 28 -27 28 C-27 27.34 -27 26.68 -27 26 C-25.625 24.375 -25.625 24.375 -24 23 C-23.34 23 -22.68 23 -22 23 C-22 22.34 -22 21.68 -22 21 C-21.34 21 -20.68 21 -20 21 C-20 20.34 -20 19.68 -20 19 C-18.625 17.375 -18.625 17.375 -17 16 C-16.34 16 -15.68 16 -15 16 C-15 15.34 -15 14.68 -15 14 C-14.34 14 -13.68 14 -13 14 C-13 13.34 -13 12.68 -13 12 C-11.68 11.67 -10.36 11.34 -9 11 C-8.67 9.68 -8.34 8.36 -8 7 C-7.34 7 -6.68 7 -6 7 C-6 6.34 -6 5.68 -6 5 C-4.68 4.67 -3.36 4.34 -2 4 C-2 3.34 -2 2.68 -2 2 C-1.34 2 -0.68 2 0 2 C0 1.34 0 0.68 0 0 Z " fill="#12B1E5" transform="translate(146,178)"/>
<path d="M0 0 C2.97 0 5.94 0 9 0 C9 35.64 9 71.28 9 108 C8.34 108 7.68 108 7 108 C7 108.66 7 109.32 7 110 C5.35 110 3.7 110 2 110 C2 109.34 2 108.68 2 108 C0.68 107.67 -0.64 107.34 -2 107 C-2 106.34 -2 105.68 -2 105 C-2.66 105 -3.32 105 -4 105 C-4.33 103.68 -4.66 102.36 -5 101 C-6.32 100.67 -7.64 100.34 -9 100 C-9 99.34 -9 98.68 -9 98 C-9.66 98 -10.32 98 -11 98 C-11 97.34 -11 96.68 -11 96 C-11.66 96 -12.32 96 -13 96 C-14.625 94.625 -14.625 94.625 -16 93 C-16 92.34 -16 91.68 -16 91 C-16.66 91 -17.32 91 -18 91 C-18 90.34 -18 89.68 -18 89 C-18.66 89 -19.32 89 -20 89 C-20 88.34 -20 87.68 -20 87 C-21.485 86.505 -21.485 86.505 -23 86 C-23 85.34 -23 84.68 -23 84 C-23.66 84 -24.32 84 -25 84 C-25 83.34 -25 82.68 -25 82 C-25.66 82 -26.32 82 -27 82 C-27 81.34 -27 80.68 -27 80 C-28.485 79.505 -28.485 79.505 -30 79 C-30 78.34 -30 77.68 -30 77 C-30.66 77 -31.32 77 -32 77 C-32 76.34 -32 75.68 -32 75 C-32.66 75 -33.32 75 -34 75 C-34 74.34 -34 73.68 -34 73 C-34.9590625 72.5978125 -34.9590625 72.5978125 -35.9375 72.1875 C-38 71 -38 71 -39 68 C-39.66 68 -40.32 68 -41 68 C-41 67.34 -41 66.68 -41 66 C-41.598125 65.731875 -42.19625 65.46375 -42.8125 65.1875 C-45.12186401 63.93384525 -46.40572462 63.08655871 -48 61 C-48.328125 58.15234375 -48.328125 58.15234375 -48.25 54.9375 C-48.23453125 53.87402344 -48.2190625 52.81054688 -48.203125 51.71484375 C-48 49 -48 49 -47 47 C-46.34 47 -45.68 47 -45 47 C-45 46.34 -45 45.68 -45 45 C-44.34 45 -43.68 45 -43 45 C-43 44.34 -43 43.68 -43 43 C-40.625 40.375 -40.625 40.375 -38 38 C-37.34 38 -36.68 38 -36 38 C-36 37.34 -36 36.68 -36 36 C-34.37949715 34.28841416 -32.7022425 32.63031471 -31 31 C-29.60805761 29.59192849 -28.2161605 28.18381131 -26.82563782 26.77433777 C-24.71370562 24.63552231 -22.5963191 22.50213912 -20.47875977 20.36889648 C-19.36078156 19.24076229 -18.24459037 18.11085457 -17.13012695 16.97924805 C-15.51457175 15.33956243 -13.89275424 13.70630931 -12.26953125 12.07421875 C-11.77056839 11.56493332 -11.27160553 11.05564789 -10.75752258 10.53092957 C-9.54239138 9.31540293 -8.27535639 8.15217834 -7 7 C-6.34 7 -5.68 7 -5 7 C-4.731875 6.401875 -4.46375 5.80375 -4.1875 5.1875 C-3 3 -3 3 0 0 Z " fill="#13B1E5" transform="translate(51,96)"/>
<path d="M0 0 C2.97 0 5.94 0 9 0 C9 35.64 9 71.28 9 108 C8.34 108 7.68 108 7 108 C7 108.66 7 109.32 7 110 C5.35 110 3.7 110 2 110 C2 109.34 2 108.68 2 108 C1.34 107.67 0.68 107.34 0 107 C3.465 106.01 3.465 106.01 7 105 C7.33 70.68 7.66 36.36 8 1 C5.36 1 2.72 1 0 1 C0 0.67 0 0.34 0 0 Z " fill="#2FA7CE" transform="translate(51,96)"/>
<path d="M0 0 C0.33 0.99 0.66 1.98 1 3 C0.175 3.598125 -0.65 4.19625 -1.5 4.8125 C-3.50712688 6.78560778 -3.97349352 7.80937895 -4.3671875 10.640625 C-4.44269975 16.93512292 -4.44269975 16.93512292 -3 23 C-2.01 23.33 -1.02 23.66 0 24 C0.33 24.99 0.66 25.98 1 27 C0.34 27 -0.32 27 -1 27 C-1 26.34 -1 25.68 -1 25 C-1.598125 24.731875 -2.19625 24.46375 -2.8125 24.1875 C-5.12186401 22.93384525 -6.40572462 22.08655871 -8 20 C-8.328125 17.15234375 -8.328125 17.15234375 -8.25 13.9375 C-8.23453125 12.87402344 -8.2190625 11.81054688 -8.203125 10.71484375 C-8 8 -8 8 -7 6 C-6.34 6 -5.68 6 -5 6 C-5 5.34 -5 4.68 -5 4 C-4.34 4 -3.68 4 -3 4 C-3 3.34 -3 2.68 -3 2 C-2.01 1.34 -1.02 0.68 0 0 Z " fill="#29A9D6" transform="translate(11,137)"/>
<path d="M0 0 C0.99 0.33 1.98 0.66 3 1 C1.02 1.99 1.02 1.99 -1 3 C-1 3.66 -1 4.32 -1 5 C-1.66 5 -2.32 5 -3 5 C-3.268125 5.639375 -3.53625 6.27875 -3.8125 6.9375 C-5 9 -5 9 -8 10 C-8 10.66 -8 11.32 -8 12 C-8.66 12 -9.32 12 -10 12 C-10 12.66 -10 13.32 -10 14 C-10.66 14 -11.32 14 -12 14 C-12.33 14.99 -12.66 15.98 -13 17 C-15.31 17 -17.62 17 -20 17 C-20 16.01 -20 15.02 -20 14 C-16.535 13.505 -16.535 13.505 -13 13 C-12.67 12.01 -12.34 11.02 -12 10 C-10.22120815 8.39570988 -8.37848062 6.86132358 -6.5 5.375 C-5.4996875 4.57835937 -4.499375 3.78171875 -3.46875 2.9609375 C-2.6540625 2.31382812 -1.839375 1.66671875 -1 1 C-0.67 0.67 -0.34 0.34 0 0 Z " fill="#29A9D3" transform="translate(116,159)"/>
<path d="M0 0 C0.33 0.66 0.66 1.32 1 2 C1.66 2 2.32 2 3 2 C3 2.66 3 3.32 3 4 C4.32 4.33 5.64 4.66 7 5 C7 6.32 7 7.64 7 9 C7.66 9 8.32 9 9 9 C9 11.64 9 14.28 9 17 C8.34 17 7.68 17 7 17 C7 18.32 7 19.64 7 21 C6.34 21 5.68 21 5 21 C5 21.66 5 22.32 5 23 C4.34 23 3.68 23 3 23 C3 23.66 3 24.32 3 25 C1.625 26.625 1.625 26.625 0 28 C-0.66 28 -1.32 28 -2 28 C-2 28.66 -2 29.32 -2 30 C-2.66 30 -3.32 30 -4 30 C-1.93636863 24.77213387 -0.93840712 22.83958409 4 20 C5.87824891 18.12175109 5.39102397 14.96064724 5.5625 12.4375 C5.64628906 11.23996094 5.73007813 10.04242188 5.81640625 8.80859375 C5.87699219 7.88175781 5.93757812 6.95492187 6 6 C4.35 5.67 2.7 5.34 1 5 C0.67 3.35 0.34 1.7 0 0 Z " fill="#2DA8D0" transform="translate(203,50)"/>
<path d="M0 0 C0.33 0.66 0.66 1.32 1 2 C0.34 2 -0.32 2 -1 2 C-1 2.66 -1 3.32 -1 4 C-2.375 5.625 -2.375 5.625 -4 7 C-4.66 7 -5.32 7 -6 7 C-6 7.66 -6 8.32 -6 9 C-6.66 9 -7.32 9 -8 9 C-8 9.66 -8 10.32 -8 11 C-9.32 11.33 -10.64 11.66 -12 12 C-12.33 13.32 -12.66 14.64 -13 16 C-13.66 16 -14.32 16 -15 16 C-15 16.66 -15 17.32 -15 18 C-16.32 18.33 -17.64 18.66 -19 19 C-19 19.66 -19 20.32 -19 21 C-19.66 21 -20.32 21 -21 21 C-21.103125 21.639375 -21.20625 22.27875 -21.3125 22.9375 C-21.539375 23.618125 -21.76625 24.29875 -22 25 C-22.99 25.33 -23.98 25.66 -25 26 C-25 25.34 -25 24.68 -25 24 C-24.34 24 -23.68 24 -23 24 C-22.90332031 23.4121875 -22.80664062 22.824375 -22.70703125 22.21875 C-21.85417667 19.54238867 -20.72089174 18.41582947 -18.6875 16.5 C-18.05585938 15.89929688 -17.42421875 15.29859375 -16.7734375 14.6796875 C-15.89558594 13.84824219 -15.89558594 13.84824219 -15 13 C-14.278125 12.21625 -13.55625 11.4325 -12.8125 10.625 C-10.85763119 8.872359 -9.57301223 8.36757318 -7 8 C-7 7.34 -7 6.68 -7 6 C-6.34 6 -5.68 6 -5 6 C-4.9175 5.38125 -4.835 4.7625 -4.75 4.125 C-4 2 -4 2 -1.9375 0.75 C-1.298125 0.5025 -0.65875 0.255 0 0 Z " fill="#29A9D4" transform="translate(150,127)"/>
<path d="M0 0 C1.9375 0.375 1.9375 0.375 4 1 C4.33 1.66 4.66 2.32 5 3 C9.95 3 14.9 3 20 3 C20.33 2.34 20.66 1.68 21 1 C21.99 1 22.98 1 24 1 C22.63016497 4.16115776 22.0109362 4.9927092 19 7 C16.08203125 7.1953125 16.08203125 7.1953125 12.8125 7.125 C11.72582031 7.10695313 10.63914063 7.08890625 9.51953125 7.0703125 C8.27236328 7.03550781 8.27236328 7.03550781 7 7 C7 6.34 7 5.68 7 5 C6.401875 4.896875 5.80375 4.79375 5.1875 4.6875 C2.70470535 3.90719311 1.64939723 2.97927667 0 1 C0 0.67 0 0.34 0 0 Z " fill="#2CA8CF" transform="translate(139,289)"/>
<path d="M0 0 C3.96 0 7.92 0 12 0 C12 0.66 12 1.32 12 2 C12.66 2 13.32 2 14 2 C14 2.66 14 3.32 14 4 C14.66 4.33 15.32 4.66 16 5 C14.68 5 13.36 5 12 5 C12 4.34 12 3.68 12 3 C11.360625 3.165 10.72125 3.33 10.0625 3.5 C6.02413348 4.15932515 2.08192742 4.08003779 -2 4 C-2 3.34 -2 2.68 -2 2 C-1.34 2 -0.68 2 0 2 C0 1.34 0 0.68 0 0 Z " fill="#2FA7CF" transform="translate(146,178)"/>
<path d="M0 0 C3 3 3 3 3.29296875 5.69921875 C3.25816406 6.68535156 3.22335938 7.67148438 3.1875 8.6875 C3.16042969 9.68136719 3.13335937 10.67523438 3.10546875 11.69921875 C3.07066406 12.45847656 3.03585938 13.21773437 3 14 C2.34 14 1.68 14 1 14 C1 14.99 1 15.98 1 17 C0.34 17 -0.32 17 -1 17 C-1 17.66 -1 18.32 -1 19 C-1.66 18.67 -2.32 18.34 -3 18 C-2.67 17.34 -2.34 16.68 -2 16 C-1.34 16 -0.68 16 0 16 C0 10.72 0 5.44 0 0 Z " fill="#2FA7CF" transform="translate(209,229)"/>
<path d="M0 0 C4.29 0 8.58 0 13 0 C13 0.66 13 1.32 13 2 C13.66 2 14.32 2 15 2 C15 2.66 15 3.32 15 4 C15.66 4 16.32 4 17 4 C18.625 5.375 18.625 5.375 20 7 C20 7.66 20 8.32 20 9 C20.66 9 21.32 9 22 9 C22 9.66 22 10.32 22 11 C22.66 11 23.32 11 24 11 C23.67 11.66 23.34 12.32 23 13 C21.68 12.67 20.36 12.34 19 12 C19 10.68 19 9.36 19 8 C17.68 8 16.36 8 15 8 C12 3.92857143 12 3.92857143 12 1 C8.04 1 4.08 1 0 1 C0 0.67 0 0.34 0 0 Z " fill="#38A4CA" transform="translate(145,4)"/>
<path d="M0 0 C0.99 0.33 1.98 0.66 3 1 C2.67 1.66 2.34 2.32 2 3 C1.34 3 0.68 3 0 3 C0 3.66 0 4.32 0 5 C-1.32 5.33 -2.64 5.66 -4 6 C-4.33 7.32 -4.66 8.64 -5 10 C-5.66 10 -6.32 10 -7 10 C-7 10.66 -7 11.32 -7 12 C-7.66 11.67 -8.32 11.34 -9 11 C-8.8125 8.6875 -8.8125 8.6875 -8 6 C-5.625 4.375 -5.625 4.375 -3 3 C-1.24850835 1.41754725 -1.24850835 1.41754725 0 0 Z " fill="#27AAD6" transform="translate(192,84)"/>
<path d="M0 0 C0.33 0.66 0.66 1.32 1 2 C2.32 2 3.64 2 5 2 C5.33 3.65 5.66 5.3 6 7 C7.32 7.33 8.64 7.66 10 8 C10 8.99 10 9.98 10 11 C8.68 10.67 7.36 10.34 6 10 C6 9.34 6 8.68 6 8 C5.34 8 4.68 8 4 8 C4 7.34 4 6.68 4 6 C3.34 6 2.68 6 2 6 C0.375 4.5 0.375 4.5 -1 3 C-0.67 2.01 -0.34 1.02 0 0 Z " fill="#2AA9D3" transform="translate(36,186)"/>
<path d="M0 0 C1.06723961 3.46222615 1.10173486 6.64039266 1.0625 10.25 C1.05347656 11.32765625 1.04445313 12.4053125 1.03515625 13.515625 C1.02355469 14.33546875 1.01195313 15.1553125 1 16 C0.67 15.34 0.34 14.68 0 14 C-0.66 14 -1.32 14 -2 14 C-2 10.37 -2 6.74 -2 3 C-1.34 3 -0.68 3 0 3 C0 2.01 0 1.02 0 0 Z " fill="#32A6CD" transform="translate(94,229)"/>
<path d="M0 0 C0.33 0.66 0.66 1.32 1 2 C1.66 2 2.32 2 3 2 C3 2.66 3 3.32 3 4 C3.598125 4.268125 4.19625 4.53625 4.8125 4.8125 C6.97224808 5.98493467 8.35790256 7.19369282 10 9 C9.67 9.99 9.34 10.98 9 12 C8.34 11.67 7.68 11.34 7 11 C7 10.34 7 9.68 7 9 C6.34 9 5.68 9 5 9 C0 3.64285714 0 3.64285714 0 0 Z " fill="#29A9D4" transform="translate(187,34)"/>
<path d="M0 0 C0 0.66 0 1.32 0 2 C-0.66 2 -1.32 2 -2 2 C-2.33 2.99 -2.66 3.98 -3 5 C-3.66 5 -4.32 5 -5 5 C-5 5.66 -5 6.32 -5 7 C-5.66 7 -6.32 7 -7 7 C-7 7.66 -7 8.32 -7 9 C-7.66 9 -8.32 9 -9 9 C-9 9.66 -9 10.32 -9 11 C-9.66 11 -10.32 11 -11 11 C-11 10.01 -11 9.02 -11 8 C-10.34 8 -9.68 8 -9 8 C-9 7.34 -9 6.68 -9 6 C-8.01 6 -7.02 6 -6 6 C-6 5.01 -6 4.02 -6 3 C-2.66666667 0 -2.66666667 0 0 0 Z " fill="#2CA8D4" transform="translate(165,113)"/>
<path d="M0 0 C0.99 0.33 1.98 0.66 3 1 C3 1.66 3 2.32 3 3 C3.66 3 4.32 3 5 3 C5.12375 3.639375 5.2475 4.27875 5.375 4.9375 C5.684375 5.9584375 5.684375 5.9584375 6 7 C6.66 7.33 7.32 7.66 8 8 C5.03 7.505 5.03 7.505 2 7 C1.34 4.69 0.68 2.38 0 0 Z " fill="#2FA7CF" transform="translate(257,103)"/>
<path d="M0 0 C0.99 0 1.98 0 3 0 C3 0.66 3 1.32 3 2 C2.34 2 1.68 2 1 2 C1 2.66 1 3.32 1 4 C-0.53125 5.2890625 -0.53125 5.2890625 -2.5 6.625 C-3.1496875 7.07101562 -3.799375 7.51703125 -4.46875 7.9765625 C-4.9740625 8.31429688 -5.479375 8.65203125 -6 9 C-5.67 7.35 -5.34 5.7 -5 4 C-3.35 3.67 -1.7 3.34 0 3 C0 2.01 0 1.02 0 0 Z " fill="#2CA8D2" transform="translate(175,276)"/>
<path d="M0 0 C0.3125 2.25 0.3125 2.25 0 5 C-2.5 7.3125 -2.5 7.3125 -5 9 C-4.66666667 7.66666667 -4.33333333 6.33333333 -4 5 C-3.855625 4.278125 -3.71125 3.55625 -3.5625 2.8125 C-3.376875 2.214375 -3.19125 1.61625 -3 1 C-1 0 -1 0 0 0 Z " fill="#21ACDA" transform="translate(184,142)"/>
<path d="M0 0 C0.99 0.33 1.98 0.66 3 1 C3 1.66 3 2.32 3 3 C3.66 3 4.32 3 5 3 C5 3.66 5 4.32 5 5 C5.66 5 6.32 5 7 5 C7.33 5.99 7.66 6.98 8 8 C4.11137013 6.73882275 2.10624401 5.54735833 0 2 C0 1.34 0 0.68 0 0 Z " fill="#32A6CE" transform="translate(271,117)"/>
<path d="M0 0 C2.475 0.99 2.475 0.99 5 2 C5 2.66 5 3.32 5 4 C5.66 4 6.32 4 7 4 C7 4.66 7 5.32 7 6 C7.66 6 8.32 6 9 6 C8.67 6.66 8.34 7.32 8 8 C6.68 7.67 5.36 7.34 4 7 C4 5.68 4 4.36 4 3 C2.68 3 1.36 3 0 3 C0 2.01 0 1.02 0 0 Z " fill="#27AAD5" transform="translate(160,9)"/>
<path d="M0 0 C1.08667969 0.29197266 1.08667969 0.29197266 2.1953125 0.58984375 C2.74960938 0.74582031 3.30390625 0.90179688 3.875 1.0625 C3.875 1.3925 3.875 1.7225 3.875 2.0625 C-0.745 2.0625 -5.365 2.0625 -10.125 2.0625 C-3.875 -1.0625 -3.875 -1.0625 0 0 Z " fill="#2FA6D0" transform="translate(243.125,90.9375)"/>
<path d="M0 0 C0.99 0 1.98 0 3 0 C3.33 0.99 3.66 1.98 4 3 C4.99 3.33 5.98 3.66 7 4 C7 4.99 7 5.98 7 7 C6.34 7 5.68 7 5 7 C5 6.34 5 5.68 5 5 C4.360625 4.731875 3.72125 4.46375 3.0625 4.1875 C1 3 1 3 0 0 Z " fill="#25ABD7" transform="translate(12,164)"/>
<path d="M0 0 C0.99 0 1.98 0 3 0 C3 0.66 3 1.32 3 2 C2.34 2 1.68 2 1 2 C0.71125 2.639375 0.4225 3.27875 0.125 3.9375 C-1 6 -1 6 -3 7 C-2.38722388 4.03824877 -1.74627478 2.61941217 0 0 Z " fill="#2BA9D2" transform="translate(171,104)"/>
</svg>
