<svg width="128" height="128" version="1.1" viewBox="0 0 33.867 33.867" xmlns="http://www.w3.org/2000/svg"><g transform="matrix(.29195 0 0 .29195 -2.6507e-5 -2.6507e-5)" clip-rule="evenodd" fill-rule="evenodd" stroke-linejoin="round" stroke-miterlimit="2"><path d="m2 58c0 30.929 25.072 56 56 56s56-25.071 56-56c0-30.928-25.072-56-56-56s-56 25.072-56 56z" fill="#fff"/><path d="m58 14c24.3 0 44 19.7 44 44 0 24.301-19.7 44-44 44s-44-19.699-44-44c0-24.3 19.7-44 44-44" fill="#1a8cff"/><path d="m0 58c0 32.034 25.967 58 58 58s58-25.966 58-58c0-32.033-25.967-58-58-58s-58 25.967-58 58zm2 0c0-30.925 25.069-56 56-56s56 25.075 56 56-25.068 56-56 56-56-25.075-56-56z" fill-opacity=".5" fill-rule="nonzero"/><path d="m113.92 55c0.052 0.993 0.079 1.994 0.079 3 0 30.928-25.072 56-56 56s-56-25.072-56-56c0-1.006 0.027-2.007 0.079-3 1.559 29.533 26 53 55.921 53 29.69 0 53.985-23.106 55.88-52.318zm-55.921-47c27.062 0 49 21.938 49 49 0 15.13-6.857 28.657-17.632 37.646 9.002-8.397 14.632-20.364 14.632-33.646 0-25.405-20.595-46-46-46s-46 20.595-46 46c0 13.282 5.629 25.249 14.631 33.646-10.774-8.989-17.631-22.517-17.631-37.646 0-27.062 21.938-49 49-49z" fill-opacity=".05"/><path d="m58 14c24.304 0 44 19.703 44 44 0 24.298-19.696 44-44 44-24.06 0-43.606-19.31-43.994-43.272l-6e-3 -0.728c0-24.297 19.696-44 44-44zm0 2c-23.196 0-42 18.804-42 42 0 23.197 18.804 42 42 42s42-18.803 42-42c0-23.196-18.804-42-42-42z" fill-opacity=".26" fill-rule="nonzero"/><path d="m58.223 23h-0.127c-19.253 0-35.096 15.843-35.096 35.096v0.127c0 19.18 15.743 34.777 35.223 34.777 19.107 0 34.777-15.67 34.777-34.777 0-19.48-15.598-35.223-34.777-35.223zm-2e-3 2c18.004 0 32.779 14.775 32.779 33.221 0 18.005-14.775 32.779-32.779 32.779-18.446 0-33.221-14.774-33.221-32.779v-0.125c0-18.156 14.94-33.096 33.096-33.096h0.125z" fill-opacity=".25" fill-rule="nonzero"/><path d="m58.221 25c18.004 0 32.779 14.775 32.779 33.221 0 18.005-14.775 32.779-32.779 32.779-18.446 0-33.221-14.774-33.221-32.779v-0.125c0-18.156 14.94-33.096 33.096-33.096h0.125z" fill="#f7f7f7"/><path d="m73 58c0 8.284-6.716 15-15 15s-15-6.716-15-15 6.716-15 15-15 15 6.716 15 15z" fill-opacity=".05"/><path d="m58 41c-9.389 0-17 7.611-17 17s7.611 17 17 17 17-7.611 17-17-7.611-17-17-17zm0 2c8.284 0 15 6.716 15 15s-6.716 15-15 15-15-6.716-15-15 6.716-15 15-15z" fill="#fff" fill-rule="nonzero"/><path d="m58 43c8.284 0 15 6.716 15 15s-6.716 15-15 15-15-6.716-15-15 6.716-15 15-15zm0 2c-7.18 0-13 5.82-13 13s5.82 13 13 13 13-5.82 13-13-5.82-13-13-13z" fill-opacity=".15" fill-rule="nonzero"/><path d="m63.577 32h-11.154c-2.472 0-4.423 2.165-4.423 4.772v10.792c0 0.982 0.354 1.93 0.996 2.642l1.64 1.819c0.037 0.042 0.037 0.161 0 0.204l-1.64 1.818c-0.646 0.728-1.001 1.67-0.996 2.643v22.539c0 2.606 1.951 4.771 4.423 4.771h11.154c2.472 0 4.423-2.165 4.423-4.772v-10.792c5e-3 -0.973-0.35-1.914-0.996-2.642l-1.64-1.819c-0.037-0.042-0.037-0.161 0-0.204l1.64-1.818c0.646-0.728 1.001-1.67 0.996-2.643v-22.538c0-2.607-1.951-4.772-4.423-4.772zm-0.127 2.038c1.408 0 2.55 1.294 2.55 2.89v22.374c0 0.51-0.18 1-0.498 1.362l-1.594 1.806c-0.664 0.752-0.664 1.972 0 2.725l1.594 1.805c0.319 0.361 0.498 0.851 0.498 1.362v10.71c0 1.595-1.142 2.89-2.55 2.89h-10.9c-1.408 0-2.55-1.295-2.55-2.89v-22.375c0-0.51 0.18-1 0.498-1.362l1.594-1.806c0.664-0.752 0.664-1.972 0-2.725l-1.594-1.804c-0.325-0.379-0.502-0.863-0.498-1.363v-10.71c0-1.595 1.142-2.89 2.55-2.89h10.9z" fill="#fff" fill-rule="nonzero"/><path d="m50 47.621v-10.726c0-1.599 1.142-2.895 2.55-2.895h10.9c1.408 0 2.55 1.296 2.55 2.894v22.41c4e-3 0.5-0.173 0.984-0.498 1.364l-1.594 1.81c-0.664 0.753-0.664 1.974 0 2.728l1.594 1.809c0.319 0.362 0.498 0.853 0.498 1.364v10.727c0 1.598-1.142 2.894-2.55 2.894h-10.9c-1.408 0-2.55-1.296-2.55-2.894v-22.41c0-0.511 0.18-1.002 0.498-1.364l1.594-1.81c0.664-0.753 0.664-1.974 0-2.728l-1.594-1.809c-0.325-0.38-0.502-0.864-0.498-1.364z" fill="#0a2d4d"/><path d="m63.45 34c1.408 0 2.55 1.296 2.55 2.894v22.41c4e-3 0.5-0.173 0.984-0.498 1.364l-1.594 1.81c-0.664 0.753-0.664 1.974 0 2.728l1.594 1.809c0.319 0.362 0.498 0.853 0.498 1.364v10.727c0 1.598-1.142 2.894-2.55 2.894h-10.9c-1.408 0-2.55-1.296-2.55-2.894v-22.41c0-0.511 0.18-1.002 0.498-1.364l1.594-1.81c0.664-0.753 0.664-1.974 0-2.728l-1.594-1.809c-0.325-0.38-0.502-0.864-0.498-1.364v-10.727c0-1.598 1.142-2.894 2.55-2.894zm-0.288 2.054-10.324-0.013c-0.404 0-0.784 0.38-0.833 0.916l-5e-3 0.118v10.63c0 0.032 7e-3 0.059 0.015 0.078l0.014 0.023 1.671 1.794c1.306 1.403 1.35 3.601 0.135 5.059l-0.135 0.153-1.67 1.794c-0.01 0.01-0.02 0.031-0.025 0.058l-4e-3 0.043v22.218c0 0.559 0.353 0.975 0.752 1.028l0.086 6e-3 10.324 0.013c0.404 0 0.784-0.379 0.833-0.916l5e-3 -0.117v-10.631c0-0.027-5e-3 -0.053-0.015-0.078l-0.014-0.023-1.67-1.794c-1.306-1.403-1.35-3.6-0.135-5.058l0.135-0.154 1.67-1.794c0.01-0.01 0.02-0.03 0.025-0.057l4e-3 -0.044v-22.218c0-0.558-0.353-0.975-0.752-1.028l-0.086-6e-3z" fill-opacity=".4" fill-rule="nonzero"/></g></svg>
