<?xml version="1.0" encoding="UTF-8" standalone="no"?>
<!DOCTYPE svg PUBLIC "-//W3C//DTD SVG 1.1//EN" "http://www.w3.org/Graphics/SVG/1.1/DTD/svg11.dtd">
<svg width="100%" height="100%" viewBox="0 0 500 501" version="1.1" xmlns="http://www.w3.org/2000/svg" xmlns:xlink="http://www.w3.org/1999/xlink" xml:space="preserve" xmlns:serif="http://www.serif.com/" style="fill-rule:evenodd;clip-rule:evenodd;stroke-linejoin:round;stroke-miterlimit:2;">
    <g id="Background" transform="matrix(0.957857,0,0,0.968993,-1477.01,-272.758)">
        <path d="M2064,411C2064,339.803 2005.53,282 1933.5,282L1672.5,282C1600.48,282 1542,339.803 1542,411L1542,669C1542,740.197 1600.48,798 1672.5,798L1933.5,798C2005.53,798 2064,740.197 2064,669L2064,411Z" style="fill:rgb(10,163,234);"/>
    </g>
    <g id="Logomark" transform="matrix(1,0,0,1,-350,-87)">
        <path d="M611.673,314.374C609.476,318.522 607.035,327.799 605.57,342.444C618.507,332.926 626.317,324.868 628.516,321.207C631.445,316.083 634.129,314.129 638.279,314.129C644.138,314.129 648.531,318.767 648.531,324.382C648.531,330.728 644.381,334.145 637.059,334.634C629.491,335.121 619.729,337.806 606.546,343.665C619.24,349.524 629.003,352.209 636.57,352.696C644.138,352.942 648.531,356.357 648.531,362.948C648.531,368.563 644.138,373.201 638.279,373.201C634.129,373.201 631.2,371.003 628.516,366.61C625.829,362.217 618.995,354.894 605.57,345.128C607.523,360.264 609.719,369.54 611.917,373.688C613.869,377.349 615.09,380.279 615.09,382.477C615.09,388.092 610.697,392.484 604.838,392.484C599.223,392.484 594.83,388.092 594.83,382.477C594.83,380.279 596.295,377.107 598.003,373.445C599.711,369.781 602.396,361.486 604.106,345.128C592.145,353.918 585.311,360.509 581.892,365.633C578.72,370.272 576.279,373.201 571.397,373.201C565.783,373.201 561.145,368.563 561.145,362.948C561.145,356.357 565.051,353.185 572.618,352.696C581.892,351.965 590.681,349.28 603.373,343.665C590.681,337.806 581.65,335.366 572.618,334.634C564.318,333.902 561.145,329.507 561.145,324.382C561.145,318.767 565.783,314.129 571.397,314.129C575.546,314.129 578.72,316.569 581.404,321.207C583.846,325.358 591.413,332.926 604.106,342.444C602.153,327.066 599.957,317.546 597.759,313.642C595.806,309.737 594.83,306.806 594.83,304.854C594.83,299.239 599.223,294.846 604.838,294.846C610.697,294.846 615.09,299.239 615.09,304.854C615.09,307.052 613.869,310.224 611.673,314.374ZM515.335,380.29C504.931,371.418 495.158,363.622 486.003,355.158C469.854,340.227 454.705,324.244 444.388,304.626C439.778,295.858 436.189,286.214 434.086,276.542C430.123,258.323 438.603,243.031 455.696,235.379C467.4,230.141 479.947,228.369 492.569,229.332C505.064,230.284 517.489,232.392 529.879,234.394C538.235,235.743 537.724,235.863 541.129,227.669C547.036,213.454 552.971,199.183 560.109,185.573C563.685,178.752 569.303,172.632 575.097,167.416C591.448,152.698 611.076,152.797 627.542,167.495C632.336,171.774 636.475,174.072 643.439,173.397C654.772,172.3 664.702,180.563 668.338,191.847C671.838,202.706 667.65,214.837 658.174,221.283C648.571,227.817 636.127,227.346 627.01,220.103C618.066,212.996 614.789,200.77 618.801,189.957C620.099,186.462 623.027,181.705 621.762,179.542C619.616,175.876 614.998,173.306 610.945,171.177C601.955,166.454 592.76,168.078 585.981,174.725C578.407,182.151 571.198,190.561 566.109,199.798C550.432,228.252 544.105,259.65 540.424,291.553C535.328,335.718 536.089,379.787 544.115,423.629C544.639,426.492 546.46,429.833 541.874,431.812C535.786,434.44 533.214,433.663 532.243,426.944C529.881,410.597 527.112,394.239 526.063,377.787C523.517,337.848 524.873,298.04 533.229,258.705C535.518,247.936 535.491,247.956 524.305,245.723C506.61,242.188 488.89,239.631 470.867,243.396C449.378,247.884 441.253,261.218 447.604,282.135C451.635,295.411 458.729,307.254 467.846,317.417C480.292,331.292 493.287,344.813 507.223,357.158C514.186,363.326 518.244,368.966 515.335,380.29ZM711.482,360.466C700.276,369.217 689.295,378.417 677.686,386.739C640.96,413.069 601.26,433.746 558.421,448.306C550.556,450.979 550.522,451.131 552.807,458.668C557.629,474.567 563.842,489.879 573.762,503.338C591.804,527.815 611.16,527.642 629.07,502.907C644.164,482.061 650.853,457.814 656.641,433.254C657.629,429.062 658.409,424.81 659.064,420.551C661.14,407.043 661.076,408.337 674.453,401.819C672.795,412.052 671.621,421.384 669.732,430.57C664.429,456.357 657.436,481.651 643.068,504.08C638.473,511.253 632.832,518.102 626.454,523.718C611.059,537.272 592.334,537.137 576.396,524.174C564.971,514.881 557.426,502.629 551.479,489.436C547.501,480.612 544.269,471.44 540.966,462.326C538.054,454.293 538.256,454.469 529.585,456.015C519.34,457.842 509.047,459.494 498.716,460.707C486.078,462.191 473.529,460.979 461.406,457.144C439.703,450.278 429.867,433.652 434.472,411.297C435.772,404.991 435.486,400.15 431.532,394.446C425.115,385.191 427.381,371.494 435.001,363.506C442.935,355.191 456.556,353.062 466.834,358.532C476.829,363.851 481.984,375.059 479.877,386.89C477.918,397.896 468.349,406.535 456.745,407.777C446.934,408.827 445.718,410.14 445.506,419.916C445.257,431.392 450.403,439.496 461.737,444.108C475.813,449.837 490.557,449.572 505.31,447.728C545.118,442.756 581.661,428.064 616.919,409.747C645.403,394.95 671.985,377.241 696.597,356.61C704.176,350.257 704.159,350.235 711.482,360.466ZM718.329,336.27C733.045,321.21 745.823,305.454 753.68,286.163C754.356,284.503 754.883,282.774 755.368,281.045C760.855,261.476 753.521,248.741 733.793,243.813C717.353,239.708 700.785,241.063 684.598,244.546C668.855,247.933 653.229,252.31 638.034,257.63C629.42,260.648 622.373,261.411 614.847,253.899C616.689,252.861 618.223,251.755 619.925,251.073C646.7,240.343 674.106,232.111 703.034,229.618C716.089,228.493 728.929,229.226 741.394,233.229C763.645,240.375 773.405,258.381 767.94,281.372C764.546,295.649 757.35,308.041 748.725,319.622C743.37,326.812 737.592,333.74 731.469,340.285C727.974,344.02 728.204,346.165 731.436,350.048C740.149,360.515 749.009,371.021 756.254,382.496C761.53,390.848 765.507,400.459 767.996,410.046C773.645,431.796 763.533,449.603 742.382,456.711C736.444,458.706 731.985,460.745 728.998,467.269C724.132,477.899 711.719,482.598 700.818,479.872C688.571,476.811 680.74,467.418 680.388,455.371C680.039,443.369 686.957,433.068 697.728,429.551C709.506,425.705 721.133,429.516 728.169,439.53C733.794,447.534 733.811,447.54 742.232,443.57C752.998,438.496 757.595,430.65 756.882,418.494C756.182,406.593 750.842,396.392 744.693,386.628C730.732,364.463 712.167,346.429 692.065,330.011C653.622,298.615 610.926,274.508 564.444,257.121C554.198,253.289 554.165,253.376 559.542,242.556C618.699,262.764 671.31,294.16 718.329,336.27Z" style="fill:white;"/>
    </g>
</svg>