<?xml version="1.0" encoding="UTF-8"?>
<svg xmlns="http://www.w3.org/2000/svg" xmlns:xlink="http://www.w3.org/1999/xlink" width="128px" height="128px" viewBox="0 0 128 128" version="1.1">
<defs>
<radialGradient id="radial0" gradientUnits="userSpaceOnUse" cx="0" cy="0" fx="0" fy="0" r="1" gradientTransform="matrix(56.396445,-90.752896,141.918875,88.192448,38.6304,130.494578)">
<stop offset="0" style="stop-color:rgb(100%,83.529412%,50.196078%);stop-opacity:1;"/>
<stop offset="0.09375" style="stop-color:rgb(96.470588%,77.254902%,57.254902%);stop-opacity:1;"/>
<stop offset="0.205" style="stop-color:rgb(92.156863%,71.372549%,63.529412%);stop-opacity:1;"/>
<stop offset="0.324466" style="stop-color:rgb(87.45098%,64.705882%,68.627451%);stop-opacity:1;"/>
<stop offset="0.42875" style="stop-color:rgb(82.745098%,59.215686%,74.509804%);stop-opacity:1;"/>
<stop offset="0.53375" style="stop-color:rgb(76.862745%,52.54902%,79.607843%);stop-opacity:1;"/>
<stop offset="0.64875" style="stop-color:rgb(70.980392%,47.058824%,85.098039%);stop-opacity:1;"/>
<stop offset="0.77125" style="stop-color:rgb(63.137255%,40%,89.803922%);stop-opacity:1;"/>
<stop offset="0.89125" style="stop-color:rgb(54.509804%,34.117647%,94.901961%);stop-opacity:1;"/>
<stop offset="1" style="stop-color:rgb(43.921569%,29.803922%,100%);stop-opacity:1;"/>
</radialGradient>
<linearGradient id="linear0" gradientUnits="userSpaceOnUse" x1="9.62492" y1="-7.14818" x2="16.6259" y2="35.5867" gradientTransform="matrix(3.555556,0,0,3.555556,0,0)">
<stop offset="0" style="stop-color:rgb(42.745098%,29.019608%,100%);stop-opacity:1;"/>
<stop offset="0.392009" style="stop-color:rgb(70.196078%,62.352941%,98.431373%);stop-opacity:0.976471;"/>
<stop offset="1" style="stop-color:rgb(100%,90.980392%,85.882353%);stop-opacity:0.8;"/>
</linearGradient>
<radialGradient id="radial1" gradientUnits="userSpaceOnUse" cx="0" cy="0" fx="0" fy="0" r="1" gradientTransform="matrix(45.362325,-72.996842,114.152316,70.937514,29.244693,117.483378)">
<stop offset="0" style="stop-color:rgb(100%,83.529412%,50.196078%);stop-opacity:1;"/>
<stop offset="0.09375" style="stop-color:rgb(96.470588%,77.254902%,57.254902%);stop-opacity:1;"/>
<stop offset="0.205" style="stop-color:rgb(92.156863%,71.372549%,63.529412%);stop-opacity:1;"/>
<stop offset="0.324466" style="stop-color:rgb(87.45098%,64.705882%,68.627451%);stop-opacity:1;"/>
<stop offset="0.42875" style="stop-color:rgb(82.745098%,59.215686%,74.509804%);stop-opacity:1;"/>
<stop offset="0.53375" style="stop-color:rgb(76.862745%,52.54902%,79.607843%);stop-opacity:1;"/>
<stop offset="0.64875" style="stop-color:rgb(70.980392%,47.058824%,85.098039%);stop-opacity:1;"/>
<stop offset="0.77125" style="stop-color:rgb(63.137255%,40%,89.803922%);stop-opacity:1;"/>
<stop offset="0.89125" style="stop-color:rgb(54.509804%,34.117647%,94.901961%);stop-opacity:1;"/>
<stop offset="1" style="stop-color:rgb(43.921569%,29.803922%,100%);stop-opacity:1;"/>
</radialGradient>
</defs>
<g id="surface1">
<path style=" stroke:none;fill-rule:nonzero;fill:url(#radial0);" d="M 38.492188 16.171875 C 47.417969 7.242188 51.882812 2.777344 57.03125 1.105469 C 61.5625 -0.367188 66.4375 -0.367188 70.96875 1.105469 C 76.117188 2.777344 80.582031 7.242188 89.507812 16.171875 L 111.828125 38.492188 C 120.757812 47.417969 125.222656 51.882812 126.894531 57.03125 C 128.367188 61.5625 128.367188 66.4375 126.894531 70.96875 C 125.222656 76.117188 120.757812 80.582031 111.828125 89.507812 L 89.507812 111.828125 C 80.582031 120.757812 76.117188 125.222656 70.96875 126.894531 C 66.4375 128.367188 61.5625 128.367188 57.03125 126.894531 C 51.882812 125.222656 47.417969 120.757812 38.492188 111.828125 L 34.292969 107.125 C 31.753906 104.277344 30.484375 102.855469 29.578125 101.234375 C 28.777344 99.800781 28.1875 98.253906 27.832031 96.648438 C 27.429688 94.835938 27.429688 92.929688 27.429688 89.113281 L 27.429688 38.886719 C 27.429688 35.070312 27.429688 33.164062 27.832031 31.351562 C 28.1875 29.746094 28.777344 28.199219 29.578125 26.765625 C 30.484375 25.144531 31.753906 23.722656 34.292969 20.875 Z M 38.492188 16.171875 "/>
<path style=" stroke:none;fill-rule:nonzero;fill:url(#linear0);" d="M 38.492188 16.171875 C 47.417969 7.242188 51.882812 2.777344 57.03125 1.105469 C 61.5625 -0.367188 66.4375 -0.367188 70.96875 1.105469 C 76.117188 2.777344 80.582031 7.242188 89.507812 16.171875 L 111.828125 38.492188 C 120.757812 47.417969 125.222656 51.882812 126.894531 57.03125 C 128.367188 61.5625 128.367188 66.4375 126.894531 70.96875 C 125.222656 76.117188 120.757812 80.582031 111.828125 89.507812 L 89.507812 111.828125 C 80.582031 120.757812 76.117188 125.222656 70.96875 126.894531 C 66.4375 128.367188 61.5625 128.367188 57.03125 126.894531 C 51.882812 125.222656 47.417969 120.757812 38.492188 111.828125 L 34.292969 107.125 C 31.753906 104.277344 30.484375 102.855469 29.578125 101.234375 C 28.777344 99.800781 28.1875 98.253906 27.832031 96.648438 C 27.429688 94.835938 27.429688 92.929688 27.429688 89.113281 L 27.429688 38.886719 C 27.429688 35.070312 27.429688 33.164062 27.832031 31.351562 C 28.1875 29.746094 28.777344 28.199219 29.578125 26.765625 C 30.484375 25.144531 31.753906 23.722656 34.292969 20.875 Z M 38.492188 16.171875 "/>
<path style=" stroke:none;fill-rule:nonzero;fill:url(#radial1);" d="M 36.894531 17.761719 C 41.359375 13.296875 43.59375 11.066406 46.167969 10.230469 C 48.433594 9.492188 50.871094 9.492188 53.132812 10.230469 C 55.707031 11.066406 57.941406 13.296875 62.40625 17.761719 L 95.886719 51.242188 C 100.351562 55.707031 102.582031 57.941406 103.421875 60.515625 C 104.15625 62.777344 104.15625 65.21875 103.421875 67.480469 C 102.582031 70.054688 100.351562 72.289062 95.886719 76.753906 L 62.40625 110.234375 C 57.941406 114.699219 55.707031 116.929688 53.132812 117.765625 C 50.871094 118.503906 48.433594 118.503906 46.167969 117.765625 C 43.59375 116.929688 41.359375 114.699219 36.894531 110.234375 L 16.171875 89.507812 C 7.242188 80.578125 2.777344 76.113281 1.105469 70.964844 C -0.367188 66.4375 -0.367188 61.558594 1.105469 57.03125 C 2.777344 51.882812 7.242188 47.417969 16.171875 38.488281 Z M 36.894531 17.761719 "/>
</g>
</svg>
