<svg xmlns="http://www.w3.org/2000/svg" viewBox="0 0 109 122"><g fill="none" fill-rule="nonzero"><path fill="#6573FF" d="M19.61 43.202c.468-12.964 10.896-23.35 23.862-23.767 12.966-.417 24.04 9.28 25.338 22.187 6.56.067 13.113.247 19.66.54C87.332 18.182 67.285-.518 43.284.011 19.284.54.08 20.106 0 44.112v.89a577.397 577.397 0 0 1 19.61-1.8Z"/><path fill="#212649" d="m78.68 71.932.2-.25a43.63 43.63 0 0 0 9.27-21.83c-6.667-.04-13.333.037-20 .23a24.68 24.68 0 0 1-46.8 3.29c-6.6.74-13.193 1.594-19.78 2.56 5.337 19.169 22.792 32.433 42.69 32.44A43.8 43.8 0 0 0 63 84.202l.28-.13.2.24 27.52 33.3a9.76 9.76 0 0 0 7.55 3.55 9.88 9.88 0 0 0 6.24-2.24c4.159-3.453 4.74-9.62 1.3-13.79l-27.41-33.2Z"/></g></svg>