<?xml version="1.0" encoding="UTF-8"?>
<svg width="128" height="128" version="1.1" viewBox="0 0 33.867 33.867" xmlns="http://www.w3.org/2000/svg"><defs><linearGradient id="g" x1="69.009" x2="180.21" y1="487.9" y2="487.9" gradientTransform="translate(-60,-206)" gradientUnits="userSpaceOnUse"><stop stop-color="#c0bfbc" offset="0"/><stop stop-color="#dcdbd8" offset=".065"/><stop stop-color="#c0bfbc" offset=".11"/><stop stop-color="#c0bfbc" offset=".846"/><stop stop-color="#deddda" offset=".923"/><stop stop-color="#c0bfbc" offset="1"/></linearGradient><linearGradient id="h" x1="144" x2="144" y1="-84" y2="366.07" gradientTransform="matrix(.25 0 0 .25 4 43)" gradientUnits="userSpaceOnUse"><stop stop-color="#edece9" offset="0"/><stop stop-color="#fff" offset="1"/></linearGradient><linearGradient id="a" x1="344" x2="340" y1="76" y2="72" gradientTransform="matrix(.25 0 0 .25 180 83)" gradientUnits="userSpaceOnUse"><stop stop-color="#d5d3cf" offset="0"/><stop stop-color="#fff" offset="1"/></linearGradient><clipPath id="b"><path d="m252 116 28-28v-8h-36v36z" fill="#e74747"/></clipPath></defs><g transform="matrix(.30174 0 0 .30174 -2.4139 -3.8864)"><path d="m16 40c-4.432 0-8 3.568-8 8v60c0 4.432 3.568 8 8 8h96c4.432 0 8-3.568 8-8v-60c0-4.432-3.568-8-8-8z" fill="#ffa348"/><path transform="translate(0,-172)" d="m16 210c-4.432 0-8 3.568-8 8v60c0 4.432 3.568 8 8 8h96c4.432 0 8-3.568 8-8v-60c0-4.432-3.568-8-8-8z" fill="url(#g)" style="fill:url(#g)"/><path d="m16 22c-4.432 0-8 3.568-8 8v70c0 4.432 3.568 8 8 8h96c4.432 0 8-3.568 8-8v-70c0-4.432-3.568-8-8-8h-48z" fill="url(#h)" style="fill:url(#h)"/><g transform="matrix(.59642 0 0 .59642 -7.5708 -502)"><g transform="matrix(4.9684,0,0,4.9684,126.94,884.48)" fill="#ffa348"><path d="m6 12a2 2 0 0 1-2 2 2 2 0 0 1-2-2 2 2 0 0 1 2-2 2 2 0 0 1 2 2z" overflow="visible"/><path d="m2 6h1.014v1.014h-1.014zm7.014 7.014h0.986v0.986h-0.986zm4 0h0.986v0.986h-0.986zm-11.014-11.014h1.014v1.014h-1.014z"/><path d="m3.014 8.014c2.774 0 5 2.227 5 5h2c0-3.854-3.145-7-7-7z" font-family="sans-serif" font-weight="400" overflow="visible" style="font-feature-settings:normal;font-variant-alternates:normal;font-variant-caps:normal;font-variant-ligatures:normal;font-variant-numeric:normal;font-variant-position:normal;isolation:auto;mix-blend-mode:normal;shape-padding:0;text-decoration-color:#000000;text-decoration-line:none;text-decoration-style:solid;text-indent:0;text-orientation:mixed;text-transform:none" white-space="normal"/><path d="m 3.014,4.028 a 8.972,8.972 0 0 1 8.987,8.986 h 2 C 14,6.96 9.07,2.028 3.014,2.028 Z" font-family="sans-serif" font-weight="400" overflow="visible" style="font-feature-settings:normal;font-variant-alternates:normal;font-variant-caps:normal;font-variant-ligatures:normal;font-variant-numeric:normal;font-variant-position:normal;isolation:auto;mix-blend-mode:normal;shape-padding:0;text-decoration-color:#000000;text-decoration-line:none;text-decoration-style:solid;text-indent:0;text-orientation:mixed;text-transform:none" white-space="normal"/><path d="m4 7a1 1 0 0 1-1 1 1 1 0 0 1-1-1 1 1 0 0 1 1-1 1 1 0 0 1 1 1zm0-4a1 1 0 0 1-1 1 1 1 0 0 1-1-1 1 1 0 0 1 1-1 1 1 0 0 1 1 1zm6 10a1 1 0 0 1-1 1 1 1 0 0 1-1-1 1 1 0 0 1 1-1 1 1 0 0 1 1 1zm4 0a1 1 0 0 1-1 1 1 1 0 0 1-1-1 1 1 0 0 1 1-1 1 1 0 0 1 1 1z" overflow="visible"/></g><g transform="translate(9.375)" stroke-width="1.875"><rect x="33.75" y="894.42" width="53.75" height="7.5" ry="0" fill="#ffa348"/><g fill="#deddda"><rect x="33.75" y="909.42" width="60" height="7.5" ry="0"/><rect x="33.75" y="924.42" width="51.469" height="7.5" ry="0"/><rect x="33.75" y="939.42" width="60" height="7.5" ry="0"/><rect x="33.75" y="954.42" width="60" height="7.5" ry="0"/><rect x="33.75" y="969.42" width="60" height="7.5" ry="0"/><rect x="33.75" y="984.42" width="39.999" height="7.5" ry="0"/><rect x="33.75" y="999.42" width="60" height="7.5" ry="0"/></g></g><g fill="#deddda" stroke-width="1.875"><rect x="136.88" y="984.42" width="60" height="7.5" ry="0"/><rect x="136.88" y="999.42" width="60" height="7.5" ry="0"/><rect x="136.88" y="969.42" width="39.999" height="7.5" ry="0"/></g></g><rect transform="matrix(0 .63036 .63036 0 47.118 -68.269)" x="252" y="88" width="36" height="36" rx="11.2" ry="11.2" clip-path="url(#b)" enable-background="new" fill="url(#a)" style="fill:url(#a);paint-order:normal"/></g></svg>
