<svg xmlns="http://www.w3.org/2000/svg" width="128" height="128" version="1.1" viewBox="0 0 33.867 33.867"><g transform="matrix(.13775 0 0 .13775 2463.7 2085.6)"><ellipse cx="-17774" cy="-14915" rx="105.88" ry="16.91" style="fill:#ff7f2a;stroke-width:9;stroke:#520"/><path d="m-17684-14998c26.428-18.178 27.314 4.271 8.513 17.126-3.025 2.068-8.411 3.978-16.143 4.548 3.933-8.191 6.424-17.544 7.63-21.674zm-194.46-42.906c-1.618 39.594 20.247 98.94 56.063 115.94l1.249 4.869c1.175 4.581 84.229 4.581 85.374 0l1.249-4.998c13.142-6.189 24.401-18.1 33.324-32.652 0 0 17.46-1.18 26.696-5.893 43.106-21.997 41.744-72.26-5.15-54.802 1.144-7.873 1.617-15.474 1.361-22.46 0 8.029-44.808 14.537-100.08 14.537s-100.08-6.508-100.08-14.537z" style="fill:#a40;stroke-width:8;stroke:#520"/><ellipse cx="-17778" cy="-15041" rx="100.08" ry="14.537" style="fill:#ff7f2a;stroke-linecap:round;stroke-width:8;stroke:#520"/><path d="m-17770-15139c-85.817 69.153 52.514 48.776-20.043 99.484 100.3-52.453-46.32-33.437 20.043-99.484z" style="fill:#fff;stroke-linejoin:round;stroke-width:3.5;stroke:#520"/></g></svg>