<svg xmlns="http://www.w3.org/2000/svg" width="128" height="128" version="1.1" viewBox="0 0 33.867 33.867"><path fill="#a04d32" stroke="#000" stroke-width=".637" d="m31.486 12.62c-0.04351-0.66862-0.60324-0.92673-1.2721-0.45105-1.5325-0.2753-3.0364-0.14582-3.7782-0.20823-1.6263-0.22776-2.9803-1.0885-2.9803-1.0885 0.19783-0.26299 0.10316-0.83142-1.167-0.87048-0.34938-0.11504-0.7081-0.28167-1.0471-0.42006 0.11547-0.24304-0.02823-0.60197-0.02823-0.60197 0.51685-0.14264 0.59603-0.8155 0.39226-1.2118 0.65928 0.01783 0.55442-1.0014 0.46336-1.3544 0.51685-0.19592 0.58796-0.81317 0.37422-1.3009 0.62362-0.14243 0.64145-0.87324 0.58796-1.3899 0.64166-0.03566 0.55272-1.1583 0.55272-1.3901 0.55272-0.35638 0.42792-0.83758 0.51473-1.3952 0.34068-0.68984-0.12248-0.88576-0.44914-0.1507-0.35044 0.63699-0.80022 0.91505-0.79598 1.3856 0.16026 0.26724-1.194 0.65928-0.76626 1.4969-0.30311 0.37421-1.0157 0.85541-0.76244 1.4291-0.12863 0.28146-1.0375 0.94095-0.64548 1.5646-0.85541 0.57034-0.80446 0.70789-0.62362 1.2296-0.24346 0.15622-0.49202 0.39523-0.63572 0.65673-0.28018-0.33282-0.55251-0.9401-0.54848-1.7605 0-0.69515-1.2948 0.067499-1.2948 1.44 0 0.11802-0.01189 0.22521-0.02844 0.3273-0.44787 0.051579-1.0084 0.15007-1.7151 0.31712-0.0225 0.015495-0.03332 0.03948-0.03863 0.067074a1.8475 1.8475 0 0 1-0.0588-0.32964c-0.12354-0.80447-1.0473-2.0292-1.4979-0.51664-0.23264 0.55421-0.36933 0.93225-0.44893 1.2288 0 0-0.07132 0.047971-0.20313 0.12948-0.55612 0.34429-0.75607 1.4192-2.7753 2.0978-0.68157 0.22903-1.5707 0.41284-2.7509 0.50836-2.0313 0.16408-5.9193 3.6751-6.1797 7.0252-0.06007 0.8414 0.065801 2.9158 0.76329 4.7355l0.00106 0.0042c0.00318 0.0089 0.00679 0.01719 0.010188 0.0259 0.011038 0.02844 0.021863 0.05667 0.033112 0.08448 0.059433 0.1524 0.1229 0.29822 0.18997 0.43768 0.40011 0.85498 0.94668 1.6111 1.6841 2.0976a5.36 5.36 0 0 0 0.928 0.58626c1.2538 2.0693 3.9145 4.7232 8.9308 3.154 7.6955-2.1829 11.942 2.9311 12.432 3.29 0.72147 0.72869-1.8649-6.3328-7.3414-9.5067-3.2376-1.7664-1.2052-4.809-0.97321-5.8834 0 0 2.5953 1.8163 4.4759-0.95942 1.6989 0.43768 2.8373-0.31032 4.2983 0.21863 0.8881 0.38907 4.6209 0.1541 3.2338-1.9324 0.87239-0.56949 0.96451-0.38525 1.4009-1.2523 0.23434-1.0511-0.2978-1.2761-0.45997-1.5635zm-14.92-2.8228c-0.0087 0.00382-0.01825 0.00849-0.02653 0.011886 0.0083-0.00722 0.01592-0.01316 0.02441-0.02165zm-2.847 0.96005c-0.01549 0.09106-0.03035 0.17596-0.045 0.25811 0.0079-0.1766 0.01804-0.36381 0.03035-0.56164 0.0051 0.09233 0.01061 0.19188 0.01465 0.30353zm2.2697-1.3442c0.15835 0.23858 0.35278 0.46251 0.35278 0.46251s-0.18573-0.16769-0.35278-0.46251z"/><path fill="#7a9" stroke="#000" stroke-width=".106" d="m4.539 24.971s2.1268 7.6636 9.8805 5.2386c7.6955-2.1829 11.942 2.9311 12.432 3.29 0.72147 0.72869-1.8649-6.3328-7.3414-9.5067-3.2376-1.7664-1.2052-4.809-0.97321-5.8834 0 0 2.5953 1.8163 4.4759-0.95942 1.6989 0.43768 2.8373-0.31032 4.2983 0.21863 0.8881 0.38907 4.6209 0.1541 3.2338-1.9324 0.87239-0.56949 0.96451-0.38525 1.4009-1.2523 0.23455-1.0511-0.29759-1.2759-0.45976-1.5635-0.04351-0.66862-0.60324-0.92673-1.2721-0.45105-1.5325-0.2753-3.0364-0.14582-3.7782-0.20823-1.6263-0.22776-2.9803-1.0885-2.9803-1.0885 0.19783-0.26299 0.10316-0.83142-1.167-0.87048-0.6977-0.22966-1.4332-0.66565-1.9715-0.67117-0.54487 0-0.61853-0.5385-0.61853-0.5385-0.34089-0.18467-0.83291-0.90253-0.82781-2.0033 0-0.69515-1.2944 0.067499-1.2944 1.44 0 1.3725-1.2349 1.6467-1.2349 1.6467s-0.54126-0.48416-0.606-1.2646c-0.12354-0.80447-1.0473-2.0292-1.4979-0.51664-0.68475 1.6229-0.73973 2.0016-0.87345 2.7921-0.27806 1.6367-0.07323 1.7006-0.07323 1.7006l-6.9672 4.9733z"/><g fill="#314b49"><path stroke="#314b49" stroke-linecap="round" stroke-linejoin="round" stroke-width=".159" d="m21.024 11.934c0.32879-0.11929 0.1904-0.08809 0.24474-0.12332-0.62829 0.12205-2.0451 0.13033-3.0389-0.24049 0.08321 0.04882 0.54508 0.20419 0.60388 0.23943 0.04627 0.15177 0.02123 0.30523 0.62235 0.57501 0.54317 0.16832 1.2407 0.09785 1.4508-0.11229 0.02314-0.35745 0.02675-0.22606 0.11738-0.33834z"/><path stroke="#314b49" stroke-width=".106" d="m27.894 15.998c-0.6007-0.44256-1.036-0.05604-1.3733-0.08766 0.21014-0.13691 0.79873-0.43768 1.7503-0.43768 0.53744 0 0.82336 0.46612 1.1823 0.46846 0.24198 0.0015 0.94923-0.36296 1.091-0.50476-0.20589 0.17787 0.09637 0.37252-0.10401 0.63742-0.05964 0.0762-0.17745 0.32072-0.56504 0.43534-0.43513 0.2061-1.1485 0.374-1.9812-0.51112z"/><path d="m14.83 7.9432s-0.71213 1.6972 0.06622 3.2537c0.77836 1.5565 0.1108-1.4495 0.99508-0.88343 0.72105 0.08172-0.50666-0.68242-0.43152-1.6597-0.03736-0.61386-0.3757-1.1025-0.62978-0.71065zm13.67 5.6003c0 0.23794-0.28931 0.43089-0.64633 0.43089 0.7584-0.23794-0.04266-0.98765-0.64633-0.43089 0-0.23794 0.28931-0.43089 0.64633-0.43089 0.35702 0 0.64633 0.19294 0.64633 0.43089z" style="stroke-width:.21226"/><path d="m27.404 12.995c0.80064-0.04903 1.3449 0.06856 1.1751 0.66607 0.11632-0.239 0.27424-0.6007-0.22202-0.7444-0.37061-0.08236-0.70046-0.08024-0.95305 0.07832z" style="stroke-width:.21226"/></g><path fill="#a04d32" stroke="#000" stroke-width=".106" d="m15.891 17.538c0-0.74737-0.32051-1.5211-1.4943-3.0954-0.34705-0.46527-0.55612-0.92036-0.68157-1.3319-0.29738-0.6994-0.7272-1.7021-0.13012-3.6579 0 0 0.1316-0.081508 0 0-0.55612 0.34429-0.75607 1.4192-2.7753 2.0978-0.68157 0.22903-1.5707 0.41284-2.7509 0.50836-2.0309 0.16408-5.9191 3.6751-6.1795 7.0252-0.06007 0.8414 0.065801 2.9158 0.76329 4.7355l0.00106 0.0042c0.00318 0.0089 0.00679 0.01719 0.010188 0.0259 0.011038 0.02844 0.021863 0.05667 0.033112 0.08448 0.059433 0.1524 0.1229 0.29822 0.18997 0.43768 0.40011 0.85498 0.94668 1.6111 1.6841 2.0976 0.65461 0.51027 1.1899 0.70173 1.1899 0.70173-0.54933-0.75947-0.80022-1.6051-0.48034-2.615 0.13797 0.55973 0.40393 0.88343 0.7739 1.014-0.13054-0.3999-0.17554-0.75331 0-0.98722 0.54487 1.4294 1.1362 1.9169 1.7342 2.2682-0.55824-1.043-0.85562-2.1237-0.80022-3.2554 0.5453 1.2795 1.4001 2.1109 2.2415 2.9619-0.80234-1.2663-1.4669-2.5692-1.4809-4.0427 0.35936 0.58966 0.83524 1.0469 1.4009 1.4011-0.35723-0.57497-0.53171-1.1695-0.48034-1.7878 0.93904 1.0496 1.9868 1.4024 3.0421 1.7078-1.1031-0.76944-2.0893-1.5998-2.615-2.6685 0.63084 0.31075 1.2625 0.35936 1.8946 0.29356-0.78664-0.39735-1.0762-1.1148-1.2275-1.9214 1.0989 1.1205 2.2472 1.8736 3.4153 2.4817-1.1579-1.1165-2.0118-2.2606-2.4548-3.4424 0.44575 0.25047 0.88236 0.36848 1.3075 0.3203-0.58711-0.6631-0.73548-1.3122-0.89383-1.9615 0.55973 0.83121 1.0526 1.2782 1.5077 1.5077-0.46485-0.95135-0.43174-1.7898-0.10677-2.5616 0.53574 0.35554 1.0405 0.91166 1.4678 1.9747 0.15495-0.50645-0.09488-1.3508-0.40032-2.2415 0.46167 0.13202 1.0144 0.71128 1.7342 2.1082-0.07005-0.82038-0.45381-1.6503-0.88024-2.4817 0.64251 0.74503 1.604 2.6985 1.4408 2.2945z"/><path fill="#796958" stroke="#000" stroke-width=".106" d="m19.359 9.2471s-0.05349 1.586 1.4258 0.55251c0.76626 0.01783 0.4277-0.81975 0.4277-0.81975 0.51685-0.14264 0.59603-0.8155 0.39226-1.2118 0.65928 0.01783 0.55442-1.0014 0.46336-1.3544 0.51685-0.19592 0.58796-0.81317 0.37421-1.3009 0.62362-0.14243 0.64145-0.87324 0.58796-1.3899 0.64166-0.03566 0.55272-1.1583 0.55272-1.3901 0.55272-0.35638 0.42792-0.83758 0.51473-1.3952 0.34068-0.68984-0.12247-0.88576-0.44914-0.1507-0.35044 0.63699-0.80022 0.91505-0.79597 1.3856 0.16026 0.26724-1.194 0.65928-0.76626 1.4969-0.30311 0.37421-1.0157 0.85541-0.76244 1.4291-0.12863 0.28146-1.0375 0.94095-0.64548 1.5646-0.85541 0.57034-0.80446 0.70789-0.62362 1.2296-0.45742 0.29292-0.93607 0.87685-0.69579 1.3544z"/><path fill="#fff" d="m23.143 1.7622s-0.15601 0.28103-0.15601 0.45275 0.46379 0.12056 0.62128-0.048183c-0.34492 0.00509-0.62935 0.061343-0.46527-0.40457zm-0.90444 1.3309s-0.17236 0.22669-0.03884 0.49159c0.08321 0.20801 0.59581 0.20419 0.75331 0.035447-0.34492 0.00509-0.87876-0.060919-0.71447-0.52704zm-0.66544 1.3701s-0.21184 0.2857-0.10443 0.5523c0 0.17172 0.60239 0.20292 0.75989 0.034174-0.34492 0.00467-0.77369-0.1038-0.65546-0.58647zm-0.65334 1.5202s-0.29759 0.3273-0.03141 0.62511c0.30523 0.17172 0.7947 0.010401 0.9522-0.15835-0.34492 0.00467-1.0388 0.016132-0.92057-0.46676zm-0.63763 1.2143s-0.33431 0.30014-0.0042 0.703c0.30523 0.17172 0.97003 0.042028 1.1275-0.12672-0.34471 0.00509-1.2714-0.2857-1.1233-0.57629zm-0.66798 1.4308s-0.2978 0.3273-0.03184 0.62511c0.30544 0.17172 1.2814-0.03948 1.4389-0.20823-0.34492 0.00488-1.5251 0.066013-1.4073-0.41688z" style="stroke-width:.21226"/><path fill="#a04d32" stroke="#000" stroke-width=".106" d="m19.377 9.2713c-0.09552-0.095517-0.11335-0.19018-0.0779-0.36466 0 0 0.07832-0.87175-3.4668-0.033537-0.22754 0.15707 0.50858 1.0023 0.50858 1.0023s0.08872 0.045636 0.22224-0.088088c0.0537 0.23837 0.18084 0.86623 0.04946 0.97194 0.26426-0.16365 0.3965-0.41306 0.35575-0.87557 0.45042 0.097852 0.79428 0.34811 0.99592 0.80213 0.06453-0.29716 0.12799-0.59412-0.08151-0.87578 0.46315 0.060494 0.82357 0.31754 1.1381 0.6631 0.0467-0.19804 0.07514-0.39969 0-0.62213 0.29504 0.1004 0.54912 0.3411 0.78748 0.63423 0 0 0.04458-0.81975-0.43131-1.2139z"/><path d="m15.976 15.139s1.4349 2.8846 3.7347 2.9697c2.2996 0.08512 2.2996-0.57947 2.2996-0.57947s-3.2958 0.64697-6.0346-2.3903zm0.66968 1.6331c0.48374 0.65886 1.0307 1.1082 1.6391 1.3546 0 0-1.5633 2.3578-0.76647 4.2501 0.79682 1.8923 2.7859 2.3461 4.9499 4.5103 1.686 1.6858 3.6422 5.2982 3.6422 5.2982s-3.7854-3.009-6.2447-2.8611c0 0-0.57034-2.0521-2.2468-3.7286-2.3867-2.3869-3.4318-5.4922-0.97321-8.8236z" opacity=".26" style="stroke-width:.21226"/><path fill="#fff" d="m12.662 10.96c-0.8223 0.53086-1.7872 1.5062-5.1823 1.7157-3.619 1.44-5.8229 5.6642-5.0469 8.5889 0.28613 1.5531 0.82569 3.0098 0.82569 3.0098-0.18785-1.2564-0.29313-2.4191 0.21969-2.8865 0.30459 0.50603 0.6302 0.52386 0.95666 0.52619-0.33749-0.51027-0.37952-1.0205 0-1.5308 0.31606 0.3237 0.63508 0.39926 0.95666 0.28719-0.45169-0.51982-0.39629-1.029 0-1.5306 0.29462 1.066 0.9471 1.582 1.6263 2.0566-0.46867-0.91972-0.88428-1.8407-0.62192-2.7742 0.28082 0.15474 0.55081 0.1367 0.81296 0-0.2666-0.33452-0.19613-0.66926 0-1.0044 0.62574 0.64527 1.319 0.79046 2.0093 0.95666-0.56482-0.52089-1.1766-0.9609-1.4351-2.009 0.31839-0.3844 0.69388-0.56992 1.1479-0.47822-0.40351-0.24771-0.35023-0.53978 0-0.86114 0.44341 0.23434 0.89043 0.28698 1.3394 0.23922-0.59581-0.3566-1.7881-1.06 2.392-4.3053z" opacity=".18" style="stroke-width:.21226"/><path fill="#fff" d="m18.3 6.9574c0.21141-0.20441 0.24325-0.13797 0.18127 0.060494-0.20844 0.50093 0.07493 0.98637 0.16917 1.3173l-0.82166 0.024198c0.02292-0.48204 0.05243-1.0176 0.47122-1.402z" opacity=".27" style="stroke-width:.21226"/></svg>