<?xml version="1.0" encoding="UTF-8"?>
<svg width="128" height="128" version="1.1" viewBox="0 0 33.867 33.867" xmlns="http://www.w3.org/2000/svg"><g transform="matrix(9.188 0 0 9.188 -199.4 -1004)"><g transform="matrix(.0067972 0 0 .0067972 21.591 109.2)" fill="#725794"><circle cx="74.91" cy="180.35" r="55"/><circle cx="137.6" cy="317.44" r="42.5"/><circle cx="189.82" cy="434.27" r="31"/></g><g transform="matrix(.0067972 0 0 .0067972 21.591 109.2)" fill="#dd6418"><circle cx="515.92" cy="412.86" r="26"/><circle cx="499.71" cy="484.31" r="21"/></g><path d="m24.895 110.26c-0.03969 0.0132-0.16933-5e-3 -0.16933-5e-3 0.03704 0.0238 0.06086 0.0873 0.05821 0.1323-0.127-0.0159-0.17727-0.0582-0.29369-0.11907 0 0 0.07937 0.0953 0.15875 0.15082 0.14288 0.10847 0.27252 0.23812 0.3519 0.36247 0.03969 0.0609 0.05027 0.0688 0.05292 0.0423a0.87312 0.87312 0 0 0-0.13758-0.49477c-0.01588-0.0238-0.01852-0.0503-0.02117-0.0688z" fill="#dd6418" style="stroke-width:.26458"/><path d="m21.837 109.27c-0.03969 0-0.06085 0.0344-0.03175 0.0609 1.3097 0.62177 1.1165 1.2092 1.2859 1.8838 0.04498 0.18256 0.34925 1.6034 1.95 1.741 0.06085 5e-3 0.07937-0.0661 0.01588-0.082-1.307-0.34925-1.6219-2.6326-0.70908-2.7173 0.127-0.0106 0.16669 0.0423 0.26458 0.0741 0.09525 0.0318 0.24606 0.0423 0.29104 0.0344 0.08467-0.15875-0.06615-0.33866-0.19315-0.47096 0.13758-0.09 0.58208-0.18785 0.635-0.21166 0.0344-0.0132 0.01852-0.0661-0.01058-0.0714-0.20373 0.0132-0.68792 0.0529-0.90752 0.13758-0.38365-0.23283-0.88371-0.0529-1.1377 0.34396-0.25929-0.37835-0.62442-0.48948-1.4552-0.72231zm2.1484 0.35454c0.19579 0 0.1905 0.082-0.0635 0.16933a0.99483 0.99483 0 0 0-0.62971 0.58209c-0.0291-0.045 0.11377-0.67734 0.69321-0.75142z" style="stroke-width:.26458"/></g></svg>
