<?xml version="1.0" encoding="UTF-8"?>
<svg version="1.1" viewBox="0 0 140 140" xmlns="http://www.w3.org/2000/svg"><path d="m39.375 40.188h8.313a6.25 6.25 0 0 1 6.25 6.25v24.25h16.25v8.75h-18.75a6.25 6.25 0 0 1-6.25-6.25v-24.25h-5.813zm63.563 6.25v6.5h-8.75v-4h-6.876v30.5h-8.75v-30.5h-6.874v4h-8.75v-6.5a6.25 6.25 0 0 1 6.25-6.25h27.5a6.25 6.25 0 0 1 6.25 6.25z" clip-rule="evenodd" fill-rule="evenodd"/><path d="M35.319 102.906l-8.138-5.812c2.39-3.347 4.857-5.936 7.452-7.753 2.884-2.018 5.948-3.091 9.117-3.091 2.942 0 5.49.714 7.768 2.08a17.622 17.622 0 0 1 2.615 1.94c.588.518 1.009.926 1.902 1.82 1.355 1.354 1.918 1.851 2.592 2.255.731.439 1.503.655 2.623.655 1.121 0 1.896-.217 2.631-.657.677-.405 1.245-.905 2.6-2.257l.012-.012c.89-.888 1.313-1.298 1.902-1.817a17.637 17.637 0 0 1 2.61-1.933c2.273-1.362 4.814-2.074 7.745-2.074s5.472.712 7.744 2.074c.917.55 1.76 1.183 2.611 1.933.589.518 1.013.929 1.902 1.817l.013.012c1.354 1.352 1.922 1.852 2.599 2.257.735.44 1.51.657 2.631.657.998 0 2.1-.386 3.383-1.284 1.572-1.1 3.272-2.886 5.048-5.372l8.138 5.812c-2.391 3.347-4.857 5.936-7.452 7.753-2.884 2.018-5.948 3.091-9.117 3.091-2.941 0-5.49-.713-7.769-2.078a17.627 17.627 0 0 1-2.619-1.938c-.59-.519-1.015-.93-1.907-1.82l-.012-.013c-1.351-1.348-1.917-1.847-2.59-2.25-.728-.437-1.494-.651-2.603-.651s-1.875.214-2.603.651c-.673.403-1.239.902-2.59 2.25l-.012.013c-.892.89-1.317 1.301-1.907 1.82-.855.752-1.7 1.388-2.62 1.938C66.74 104.287 64.192 105 61.25 105c-2.942 0-5.49-.714-7.768-2.08a17.659 17.659 0 0 1-2.615-1.939c-.589-.519-1.009-.927-1.903-1.82-1.354-1.355-1.917-1.852-2.591-2.256-.731-.439-1.503-.655-2.623-.655-.998 0-2.1.386-3.383 1.284-1.572 1.1-3.272 2.886-5.048 5.372z" fill="#45a1fc"/></svg>
