<?xml version="1.0" encoding="UTF-8"?>
<svg width="128" height="128" version="1.1" viewBox="0 0 33.867 33.867" xmlns="http://www.w3.org/2000/svg"><defs><linearGradient id="paint2_linear" x1="35.974" x2="35.974" y1="43.955" y2="-.46086" gradientTransform="matrix(.47037 0 0 .47037 1.7083e-6 1.1367)" gradientUnits="userSpaceOnUse"><stop stop-color="#C2EBFA" offset="0"/><stop stop-color="#26A8DE" offset="1"/></linearGradient><linearGradient id="paint1_linear" x1="35.974" x2="35.974" y1="57.171" y2="24.532" gradientTransform="matrix(.47037 0 0 .47037 1.7083e-6 1.1367)" gradientUnits="userSpaceOnUse"><stop stop-color="#DEEDC9" offset="0"/><stop stop-color="#8BBA25" offset=".6606"/></linearGradient><linearGradient id="paint0_linear" x1="35.974" x2="35.974" y1="78.659" y2="29.03" gradientTransform="matrix(.47037 0 0 .47037 1.7083e-6 1.1367)" gradientUnits="userSpaceOnUse"><stop stop-color="#FCC2B1" offset="0"/><stop stop-color="#D9420B" offset=".8848"/></linearGradient></defs><g clip-rule="evenodd" fill-rule="evenodd"><path d="m14.818 32.075-13.928-6.3941c-1.1865-0.55824-1.1865-1.4209 0-1.9284l4.8491-2.2329 9.0277 4.1613c1.1865 0.55819 3.0952 0.55819 4.2302 0l9.0277-4.1613 4.8492 2.2329c1.1865 0.55819 1.1865 1.4209 0 1.9284l-13.928 6.3941c-1.0833 0.50743-2.992 0.50743-4.127 0z" fill="url(#paint0_linear)" style="fill:url(#paint0_linear);stroke-width:.47037"/><path d="m14.818 24.209-13.928-6.3942c-1.1865-0.55819-1.1865-1.4209 0-1.9284l4.746-2.1821 9.1824 4.212c1.1865 0.55819 3.0952 0.55819 4.2301 0l9.1825-4.212 4.746 2.1821c1.1865 0.55824 1.1865 1.421 0 1.9284l-13.928 6.3942c-1.1865 0.55819-3.0952 0.55819-4.2301 0z" fill="url(#paint1_linear)" style="fill:url(#paint1_linear);stroke-width:.47037"/><path d="m14.818 16.546-13.928-6.3941c-1.1865-0.55823-1.1865-1.4209 0-1.9284l13.928-6.3941c1.1865-0.55822 3.0952-0.55822 4.2301 0l13.928 6.3941c1.1865 0.55819 1.1865 1.4209 0 1.9284l-13.928 6.3941c-1.1865 0.50748-3.0952 0.50748-4.2301 0z" fill="url(#paint2_linear)" style="fill:url(#paint2_linear);stroke-width:.47037"/></g></svg>
