<svg width="384" height="128" version="1.1" viewBox="0 0 101.6 33.867" xmlns="http://www.w3.org/2000/svg"><g transform="matrix(1.1073 0 0 1.1073 14.838 -20.88)"><g id="Layer_2_1_"><path class="st1" d="m32.7 23.9c-0.2-1-1.3-1.7-2.3-1.4l-22.7 5.4c-1 0.2-1.7 1.3-1.4 2.3l3.1 12.9c0.2 1 1.3 1.7 2.3 1.4l22.7-5.4c1-0.2 1.7-1.3 1.4-2.3z" fill="#ef8022"/></g><g fill="#ffc214"><path class="st2" d="m9.7 47.4c0.6 0.9 1.8 1.1 2.7 0.5l6.7-4.6-7.4 1.8c-1.3 0.3-2.6-0.5-2.9-1.8l-2.8-11.8-3.3 2.3c-0.9 0.6-1.1 1.8-0.5 2.7z"/><path class="st2" d="m14.2 25.8 11.7-2.8-1.3-2c-0.6-0.9-1.8-1.1-2.7-0.5z"/></g><g fill="#f9f185"><path class="st3" d="m12.6 48.3c-0.2 0.2-0.5 0.3-0.7 0.3l0.8 0.5c0.9 0.6 2.1 0.4 2.7-0.5l3.1-4.4z"/><path class="st3" d="m2.3 37.5-1 1.4c-0.6 0.9-0.4 2.1 0.5 2.7l6.3 4.4z"/><path class="st3" d="m12.9 26.1 7.2-5-2.7-1.9c-0.9-0.6-2.1-0.4-2.7 0.5l-5 7.2z"/></g><path class="st2" d="m11.9 42.8c-0.7 0-1.4-0.5-1.7-1.1l-1.5-3.2 1.1 4.6c0.2 0.6 0.7 1.1 1.4 1.1h0.3l17-4.1-16.2 2.7h-0.4z" fill="#ffc214"/><path class="st0" d="m16 35.5s-1.1 1.2-2.5 1.2c-1.7 0-2.6-1.4-2.6-2.8 0-1.3 0.9-2.7 2.6-2.7 1.3 0 2.3 1 2.3 1l1.1-1.7s-0.6-0.7-1.9-1.1v-1.2h-1.1v1h-0.5-0.1v-1h-1.1v1.1c-2.2 0.5-3.7 2.4-3.7 4.7 0 2.4 1.5 4.2 3.7 4.7v1.2h1.1v-1h0.1 0.5v1.1h1.1v-1.3c1.4-0.4 2.1-1.3 2.1-1.3z" fill="#fff"/><g fill="#fff"><path class="st0" d="m21 31.7c2.1 0 3.8 1.4 3.8 3.6 0 2.1-1.7 3.5-3.8 3.5s-3.8-1.4-3.8-3.5 1.7-3.6 3.8-3.6zm0 5.2c0.8 0 1.5-0.6 1.5-1.6s-0.7-1.7-1.5-1.7-1.5 0.6-1.5 1.7c0 1 0.7 1.6 1.5 1.6z"/><rect class="st0" x="25.3" y="31.9" width="2.3" height="6.7"/><rect class="st0" x="25.3" y="29.3" width="2.2" height="1.8"/><path class="st0" d="m28.5 31.9h2.2v0.6 0.4c0.3-0.5 1-1.2 2.1-1.2 1.4 0 2.4 0.6 2.4 2.5v4.4h-2.3v-4c0-0.6-0.2-0.9-0.7-0.9-0.7 0-1.1 0.4-1.3 1-0.1 0.3-0.1 0.6-0.1 0.9v3h-2.3v-6.7z"/></g><g fill="#ef8022"><path class="st1" d="m39.3 31.9c1.7 0 2.5 1 2.5 1l-0.6 0.9s-0.7-0.8-1.8-0.8c-1.3 0-2.3 1-2.3 2.4 0 1.3 1 2.4 2.3 2.4 1.2 0 2-0.9 2-0.9l0.5 0.9s-0.9 1.1-2.6 1.1c-2.1 0-3.5-1.5-3.5-3.5-0.1-2 1.4-3.5 3.5-3.5z"/><path class="st1" d="m46.1 34.5h0.3v-0.1c0-1.1-0.6-1.5-1.5-1.5-1 0-1.8 0.6-1.8 0.6l-0.5-0.9s1-0.8 2.5-0.8c1.7 0 2.6 0.9 2.6 2.6v4.2h-1.2v-0.6-0.5s-0.5 1.3-2.1 1.3c-1.1 0-2.3-0.7-2.3-2 0-2.2 2.9-2.3 4-2.3zm-1.4 3.3c1.1 0 1.8-1.1 1.8-2.1v-0.2h-0.3c-1 0-2.7 0.1-2.7 1.3-0.1 0.5 0.3 1 1.2 1z"/><path class="st1" d="m48.5 32h1.2v1.2 0.5c0.3-1 1.1-1.7 2.1-1.7h0.3v1.3h-0.4c-0.8 0-1.6 0.6-1.9 1.6-0.1 0.4-0.2 0.8-0.2 1.2v2.7h-1.3v-6.8z"/><path class="st1" d="m55.3 31.9c1.5 0 2 1 2 1v-0.4-3.1h1.3v9.2h-1.2v-0.6-0.4s-0.5 1.2-2.2 1.2c-1.8 0-2.9-1.4-2.9-3.5s1.3-3.4 3-3.4zm0.2 5.8c1 0 1.9-0.7 1.9-2.4 0-1.2-0.6-2.4-1.9-2.4-1 0-1.9 0.9-1.9 2.4s0.8 2.4 1.9 2.4z"/><path class="st1" d="m59.7 36.9s0.7 0.8 1.9 0.8c0.5 0 1.1-0.3 1.1-0.8 0-1.2-3.4-1-3.4-3.1 0-1.2 1.1-1.9 2.4-1.9 1.5 0 2.1 0.7 2.1 0.7l-0.5 1s-0.6-0.6-1.6-0.6c-0.5 0-1.1 0.2-1.1 0.8 0 1.2 3.4 0.9 3.4 3.1 0 1.1-0.9 1.9-2.4 1.9-1.6 0-2.5-1-2.5-1z"/></g></g></svg>
