<?xml version="1.0" encoding="UTF-8"?>
<!DOCTYPE svg PUBLIC "-//W3C//DTD SVG 1.1//EN" "http://www.w3.org/Graphics/SVG/1.1/DTD/svg11.dtd">
<svg xmlns="http://www.w3.org/2000/svg" version="1.1" width="128px" height="128px" style="shape-rendering:geometricPrecision; text-rendering:geometricPrecision; image-rendering:optimizeQuality; fill-rule:evenodd; clip-rule:evenodd" xmlns:xlink="http://www.w3.org/1999/xlink">
<g><path style="opacity:0.365" fill="#f6ca1f" d="M 53.5,-0.5 C 60.1667,-0.5 66.8333,-0.5 73.5,-0.5C 102.358,6.02381 120.358,23.6905 127.5,52.5C 127.5,59.8333 127.5,67.1667 127.5,74.5C 119.975,103.358 101.642,121.024 72.5,127.5C 66.5,127.5 60.5,127.5 54.5,127.5C 24.0483,120.715 5.71496,102.048 -0.5,71.5C -0.5,66.1667 -0.5,60.8333 -0.5,55.5C 5.59626,25.403 23.5963,6.73632 53.5,-0.5 Z"/></g>
<g><path style="opacity:1" fill="#fdfcf8" d="M 53.5,2.5 C 89.5684,0.269337 113.068,16.2693 124,50.5C 128.008,82.3236 115.841,105.49 87.5,120C 54.765,130.869 28.9316,122.035 10,93.5C -4.85568,60.0927 2.31098,32.5927 31.5,11C 38.6253,7.24276 45.9586,4.40943 53.5,2.5 Z"/></g>
<g><path style="opacity:1" fill="#eac330" d="M 56.5,12.5 C 86.0307,11.8328 105.197,25.4995 114,53.5C 117.048,85.4242 103.215,105.591 72.5,114C 45.9629,117.151 27.1295,106.651 16,82.5C 7.62112,55.6333 15.1211,34.4667 38.5,19C 44.2986,15.9183 50.2986,13.7516 56.5,12.5 Z"/></g>
<g><path style="opacity:1" fill="#38414a" d="M 39.5,85.5 C 39.3354,88.5184 39.502,91.5184 40,94.5C 40.0929,97.0075 40.9262,99.1741 42.5,101C 46.7085,100.74 50.7085,99.5729 54.5,97.5C 51.8318,105.523 46.8318,107.357 39.5,103C 36.504,99.9225 35.504,96.4225 36.5,92.5C 35.8333,92.1667 35.1667,91.8333 34.5,91.5C 35.728,88.9875 37.3946,86.9875 39.5,85.5 Z"/></g>
<g><path style="opacity:1" fill="#353f49" d="M 75.5,111.5 C 69.8698,112.292 64.2031,112.625 58.5,112.5C 58.0805,110.906 57.4138,109.406 56.5,108C 56.9504,106.715 57.6171,105.548 58.5,104.5C 57.8333,103.833 57.1667,103.167 56.5,102.5C 57.9062,98.1119 60.9062,96.4452 65.5,97.5C 67.7588,97.5323 69.9255,97.8656 72,98.5C 73.0804,100.996 74.4138,103.33 76,105.5C 76.4901,107.545 76.3235,109.545 75.5,111.5 Z"/></g>
<g><path style="opacity:1" fill="#81878c" d="M 83.5,83.5 C 84.7095,83.9321 85.7095,84.5987 86.5,85.5C 82.2971,84.7021 79.6305,86.3688 78.5,90.5C 80.4745,91.7883 80.4745,93.4549 78.5,95.5C 79.6667,97.8333 80.8333,100.167 82,102.5C 83.7456,104.457 85.9122,105.457 88.5,105.5C 87.5637,106.974 86.2303,107.974 84.5,108.5C 83.1225,107.766 81.6225,107.099 80,106.5C 78.1485,102.797 76.3152,99.1304 74.5,95.5C 75.7576,92.4005 77.2576,89.4005 79,86.5C 79.9078,84.5614 81.4078,83.5614 83.5,83.5 Z"/></g>
<g><path style="opacity:1" fill="#777d82" d="M 39.5,83.5 C 39.5,84.1667 39.5,84.8333 39.5,85.5C 37.3946,86.9875 35.728,88.9875 34.5,91.5C 35.1667,91.8333 35.8333,92.1667 36.5,92.5C 35.504,96.4225 36.504,99.9225 39.5,103C 46.8318,107.357 51.8318,105.523 54.5,97.5C 55.8993,96.1103 57.5659,95.1103 59.5,94.5C 63.8333,94.5 68.1667,94.5 72.5,94.5C 73.7739,98.3811 75.6072,102.048 78,105.5C 78.6397,107.265 78.4731,108.932 77.5,110.5C 76.8333,110.833 76.1667,111.167 75.5,111.5C 76.3235,109.545 76.4901,107.545 76,105.5C 74.4138,103.33 73.0804,100.996 72,98.5C 69.9255,97.8656 67.7588,97.5323 65.5,97.5C 60.9062,96.4452 57.9062,98.1119 56.5,102.5C 57.1667,103.167 57.8333,103.833 58.5,104.5C 57.6171,105.548 56.9504,106.715 56.5,108C 57.4138,109.406 58.0805,110.906 58.5,112.5C 45.786,111.644 35.4526,106.31 27.5,96.5C 28.675,96.719 29.675,96.3857 30.5,95.5C 32.6667,91.8333 34.8333,88.1667 37,84.5C 37.6708,83.7476 38.5041,83.4142 39.5,83.5 Z"/></g>
<g><path style="opacity:1" fill="#4e575f" d="M 35.5,55.5 C 37.5475,57.0745 39.8808,58.0745 42.5,58.5C 36.9482,60.398 33.2816,64.398 31.5,70.5C 32.8035,74.4404 34.6369,78.107 37,81.5C 37.6708,82.2524 38.5041,82.5858 39.5,82.5C 39.5,82.8333 39.5,83.1667 39.5,83.5C 38.5041,83.4142 37.6708,83.7476 37,84.5C 34.8333,88.1667 32.6667,91.8333 30.5,95.5C 29.675,96.3857 28.675,96.719 27.5,96.5C 26.5,96.1667 25.8333,95.5 25.5,94.5C 27.1439,94.7135 28.6439,94.3802 30,93.5C 33.1113,89.6288 34.778,85.2955 35,80.5C 33.2912,77.5815 31.4579,74.7482 29.5,72C 24.8452,71.5008 20.1785,71.3342 15.5,71.5C 14.596,70.791 14.2627,69.791 14.5,68.5C 19.781,69.782 25.1143,69.782 30.5,68.5C 32.5,65.1667 34.5,61.8333 36.5,58.5C 35.8728,57.5832 35.5394,56.5832 35.5,55.5 Z"/></g>
<g><path style="opacity:1" fill="#7d8285" d="M 94.5,87.5 C 97.1667,87.5 99.8333,87.5 102.5,87.5C 102.932,88.7095 103.599,89.7095 104.5,90.5C 103.219,93.4474 101.219,95.7807 98.5,97.5C 98.2688,93.7073 96.9355,90.3739 94.5,87.5 Z"/></g>
<g><path style="opacity:1" fill="#93989d" d="M 72.5,94.5 C 68.1667,94.5 63.8333,94.5 59.5,94.5C 59.8333,93.5 60.5,92.8333 61.5,92.5C 64.6399,93.6408 67.9733,93.8075 71.5,93C 74.0605,89.3779 76.2272,85.5446 78,81.5C 78.5,82 79,82.5 79.5,83C 77.5177,87.1471 75.1844,90.9805 72.5,94.5 Z"/></g>
<g><path style="opacity:1" fill="#353f49" d="M 86.5,85.5 C 89.1123,86.3705 91.779,87.0372 94.5,87.5C 96.9355,90.3739 98.2688,93.7073 98.5,97.5C 96.0374,101.3 92.704,103.967 88.5,105.5C 85.9122,105.457 83.7456,104.457 82,102.5C 80.8333,100.167 79.6667,97.8333 78.5,95.5C 80.4745,93.4549 80.4745,91.7883 78.5,90.5C 79.6305,86.3688 82.2971,84.7021 86.5,85.5 Z"/></g>
<g><path style="opacity:1" fill="#3e4346" d="M 107.5,73.5 C 108.833,73.5 110.167,73.5 111.5,73.5C 110.513,79.7958 108.18,85.4624 104.5,90.5C 103.599,89.7095 102.932,88.7095 102.5,87.5C 106.887,83.9676 108.554,79.3009 107.5,73.5 Z"/></g>
<g><path style="opacity:1" fill="#404850" d="M 83.5,83.5 C 81.4078,83.5614 79.9078,84.5614 79,86.5C 77.2576,89.4005 75.7576,92.4005 74.5,95.5C 76.3152,99.1304 78.1485,102.797 80,106.5C 81.6225,107.099 83.1225,107.766 84.5,108.5C 81.8915,108.4 79.5582,109.067 77.5,110.5C 78.4731,108.932 78.6397,107.265 78,105.5C 75.6072,102.048 73.7739,98.3811 72.5,94.5C 75.1844,90.9805 77.5177,87.1471 79.5,83C 79,82.5 78.5,82 78,81.5C 76.2272,85.5446 74.0605,89.3779 71.5,93C 67.9733,93.8075 64.6399,93.6408 61.5,92.5C 68.2012,88.2926 72.3679,82.2926 74,74.5C 77.0623,77.7322 80.229,80.7322 83.5,83.5 Z"/></g>
<g><path style="opacity:1" fill="#94999e" d="M 15.5,71.5 C 20.1785,71.3342 24.8452,71.5008 29.5,72C 31.4579,74.7482 33.2912,77.5815 35,80.5C 34.778,85.2955 33.1113,89.6288 30,93.5C 28.6439,94.3802 27.1439,94.7135 25.5,94.5C 24.8333,94.5 24.5,94.1667 24.5,93.5C 26.1439,93.7135 27.6439,93.3802 29,92.5C 31.5636,88.7524 32.8969,84.7524 33,80.5C 31.3742,78.0829 29.8742,75.5829 28.5,73C 24.0804,72.2316 19.7471,72.3982 15.5,73.5C 15.5,72.8333 15.5,72.1667 15.5,71.5 Z"/></g>
<g><path style="opacity:1" fill="#868b90" d="M 42.5,58.5 C 44.3057,59.0241 45.9724,59.6908 47.5,60.5C 44.4816,60.3354 41.4816,60.502 38.5,61C 37.5,62.6667 36.5,64.3333 35.5,66C 36.3081,66.3076 36.9747,66.8076 37.5,67.5C 35.876,68.8689 35.376,70.5355 36,72.5C 37.2515,74.0009 38.2515,75.6675 39,77.5C 39.3826,76.944 39.8826,76.6107 40.5,76.5C 39.8505,78.4352 39.5172,80.4352 39.5,82.5C 38.5041,82.5858 37.6708,82.2524 37,81.5C 34.6369,78.107 32.8035,74.4404 31.5,70.5C 33.2816,64.398 36.9482,60.398 42.5,58.5 Z"/></g>
<g><path style="opacity:1" fill="#37404a" d="M 24.5,93.5 C 19.9654,87.5781 16.9654,80.9115 15.5,73.5C 19.7471,72.3982 24.0804,72.2316 28.5,73C 29.8742,75.5829 31.3742,78.0829 33,80.5C 32.8969,84.7524 31.5636,88.7524 29,92.5C 27.6439,93.3802 26.1439,93.7135 24.5,93.5 Z"/></g>
<g><path style="opacity:1" fill="#8a9095" d="M 32.5,53.5 C 33.5,54.1667 34.5,54.8333 35.5,55.5C 35.5394,56.5832 35.8728,57.5832 36.5,58.5C 34.5,61.8333 32.5,65.1667 30.5,68.5C 25.1143,69.782 19.781,69.782 14.5,68.5C 14.5,66.1667 14.5,63.8333 14.5,61.5C 22.8416,71.609 29.5082,70.609 34.5,58.5C 33.5435,56.9246 32.8769,55.258 32.5,53.5 Z"/></g>
<g><path style="opacity:1" fill="#eac32f" d="M 72.5,24.5 C 73.1667,24.5 73.8333,24.5 74.5,24.5C 74.8333,24.5 75.1667,24.5 75.5,24.5C 76.355,25.5307 77.0217,26.6974 77.5,28C 76.5411,30.1199 76.3744,32.2865 77,34.5C 79.1785,35.1161 81.0118,36.2828 82.5,38C 85.7504,36.9969 88.7504,35.4969 91.5,33.5C 91.5,34.1667 91.8333,34.5 92.5,34.5C 92.8333,35.1667 93.1667,35.8333 93.5,36.5C 93.4894,38.0174 92.8228,39.1841 91.5,40C 89.7818,40.346 88.1151,40.846 86.5,41.5C 86.074,45.5404 84.7406,49.2071 82.5,52.5C 85.7679,54.0329 89.1012,55.3662 92.5,56.5C 92.8333,57.5 93.5,58.1667 94.5,58.5C 94.8333,58.5 95.1667,58.5 95.5,58.5C 100.29,62.9475 104.29,67.9475 107.5,73.5C 108.554,79.3009 106.887,83.9676 102.5,87.5C 99.8333,87.5 97.1667,87.5 94.5,87.5C 91.779,87.0372 89.1123,86.3705 86.5,85.5C 85.7095,84.5987 84.7095,83.9321 83.5,83.5C 80.229,80.7322 77.0623,77.7322 74,74.5C 72.3679,82.2926 68.2012,88.2926 61.5,92.5C 60.5,92.8333 59.8333,93.5 59.5,94.5C 57.5659,95.1103 55.8993,96.1103 54.5,97.5C 50.7085,99.5729 46.7085,100.74 42.5,101C 40.9262,99.1741 40.0929,97.0075 40,94.5C 39.502,91.5184 39.3354,88.5184 39.5,85.5C 39.5,84.8333 39.5,84.1667 39.5,83.5C 39.5,83.1667 39.5,82.8333 39.5,82.5C 39.5172,80.4352 39.8505,78.4352 40.5,76.5C 41.446,70.4411 44.1127,65.2745 48.5,61C 48.2716,60.6012 47.9382,60.4346 47.5,60.5C 45.9724,59.6908 44.3057,59.0241 42.5,58.5C 39.8808,58.0745 37.5475,57.0745 35.5,55.5C 34.5,54.8333 33.5,54.1667 32.5,53.5C 30.5,51.8333 28.5,50.1667 26.5,48.5C 26.1075,46.7162 25.4408,45.0495 24.5,43.5C 23.6998,36.6352 26.6998,32.6352 33.5,31.5C 36.1667,31.5 38.8333,31.5 41.5,31.5C 42.5,31.5 43.5,31.5 44.5,31.5C 46.6568,32.4067 48.9902,33.0733 51.5,33.5C 52.209,34.404 53.209,34.7373 54.5,34.5C 54.5,35.1667 54.8333,35.5 55.5,35.5C 56.2905,36.4013 57.2905,37.0679 58.5,37.5C 60.1477,38.8098 61.8144,40.1431 63.5,41.5C 65.522,38.6443 68.022,36.311 71,34.5C 71.2485,31.0806 71.7485,27.7473 72.5,24.5 Z"/></g>
<g><path style="opacity:1" fill="#fffbed" d="M 50.5,62.5 C 51.1667,63.1667 51.8333,63.8333 52.5,64.5C 49.538,64.1167 48.538,65.1167 49.5,67.5C 55.952,71.3927 62.6187,74.726 69.5,77.5C 69.5674,76.0413 69.2341,74.7079 68.5,73.5C 70.0481,73.8212 70.7148,74.8212 70.5,76.5C 69.6937,80.9456 67.6937,84.7789 64.5,88C 58.3639,93.5054 51.3639,97.172 43.5,99C 42.8742,98.2496 42.3742,97.4162 42,96.5C 40.6125,86.8542 41.6125,77.5209 45,68.5C 46.331,66.0038 48.1644,64.0038 50.5,62.5 Z"/></g>
<g><path style="opacity:1" fill="#fbcd25" d="M 43.5,89.5 C 46.5162,90.3431 49.1829,91.8431 51.5,94C 49.2436,95.8674 46.9102,95.8674 44.5,94C 43.6198,92.6439 43.2865,91.1439 43.5,89.5 Z"/></g>
<g><path style="opacity:1" fill="#fbcf2c" d="M 43.5,79.5 C 49.4352,82.1355 55.1018,85.3022 60.5,89C 57.4067,90.8269 54.4067,90.4935 51.5,88C 49.0829,86.3742 46.5829,84.8742 44,83.5C 43.51,82.2068 43.3433,80.8734 43.5,79.5 Z"/></g>
<g><path style="opacity:1" fill="#fbcd25" d="M 45.5,71.5 C 52.8191,74.6294 59.8191,78.4628 66.5,83C 64.0492,85.8452 61.3825,85.8452 58.5,83C 54.1667,80.5 49.8333,78 45.5,75.5C 44.3744,74.1916 44.3744,72.8583 45.5,71.5 Z"/></g>
<g><path style="opacity:1" fill="#fbcd26" d="M 52.5,64.5 C 57.8333,67.5 63.1667,70.5 68.5,73.5C 69.2341,74.7079 69.5674,76.0413 69.5,77.5C 62.6187,74.726 55.952,71.3927 49.5,67.5C 48.538,65.1167 49.538,64.1167 52.5,64.5 Z"/></g>
<g><path style="opacity:1" fill="#818588" d="M 109.5,46.5 C 109.833,47.1667 110.167,47.8333 110.5,48.5C 107.753,48.1866 105.086,48.52 102.5,49.5C 101.167,51.8333 99.8333,54.1667 98.5,56.5C 98.6667,56.8333 98.8333,57.1667 99,57.5C 102.863,53.5215 103.363,54.0215 100.5,59C 102.106,65.2919 106.106,68.4585 112.5,68.5C 112.371,70.2161 112.038,71.8828 111.5,73.5C 110.167,73.5 108.833,73.5 107.5,73.5C 104.29,67.9475 100.29,62.9475 95.5,58.5C 97.6822,54.6471 100.016,50.8137 102.5,47C 104.81,46.5034 107.143,46.3367 109.5,46.5 Z"/></g>
<g><path style="opacity:1" fill="#384149" d="M 47.5,60.5 C 47.9382,60.4346 48.2716,60.6012 48.5,61C 44.1127,65.2745 41.446,70.4411 40.5,76.5C 39.8826,76.6107 39.3826,76.944 39,77.5C 38.2515,75.6675 37.2515,74.0009 36,72.5C 35.376,70.5355 35.876,68.8689 37.5,67.5C 36.9747,66.8076 36.3081,66.3076 35.5,66C 36.5,64.3333 37.5,62.6667 38.5,61C 41.4816,60.502 44.4816,60.3354 47.5,60.5 Z"/></g>
<g><path style="opacity:1" fill="#909599" d="M 92.5,34.5 C 96.6064,37.334 99.2731,41.334 100.5,46.5C 98.4916,50.5168 96.4916,54.5168 94.5,58.5C 93.5,58.1667 92.8333,57.5 92.5,56.5C 95.1314,53.4089 97.1314,49.9089 98.5,46C 97.4359,42.4573 95.7692,39.2906 93.5,36.5C 93.1667,35.8333 92.8333,35.1667 92.5,34.5 Z"/></g>
<g><path style="opacity:1" fill="#364049" d="M 110.5,48.5 C 112.206,55.0334 112.872,61.7 112.5,68.5C 106.106,68.4585 102.106,65.2919 100.5,59C 103.363,54.0215 102.863,53.5215 99,57.5C 98.8333,57.1667 98.6667,56.8333 98.5,56.5C 99.8333,54.1667 101.167,51.8333 102.5,49.5C 105.086,48.52 107.753,48.1866 110.5,48.5 Z"/></g>
<g><path style="opacity:1" fill="#363f49" d="M 26.5,48.5 C 28.5,50.1667 30.5,51.8333 32.5,53.5C 32.8769,55.258 33.5435,56.9246 34.5,58.5C 29.5082,70.609 22.8416,71.609 14.5,61.5C 14.3316,57.3425 14.9983,53.3425 16.5,49.5C 19.728,48.5863 23.0613,48.2529 26.5,48.5 Z"/></g>
<g><path style="opacity:1" fill="#797e81" d="M 20.5,40.5 C 20.5,41.5 20.5,42.5 20.5,43.5C 21.8333,43.5 23.1667,43.5 24.5,43.5C 25.4408,45.0495 26.1075,46.7162 26.5,48.5C 23.0613,48.2529 19.728,48.5863 16.5,49.5C 17.4629,46.2558 18.7962,43.2558 20.5,40.5 Z"/></g>
<g><path style="opacity:1" fill="#4b535b" d="M 101.5,32.5 C 104.686,36.8731 107.353,41.5398 109.5,46.5C 107.143,46.3367 104.81,46.5034 102.5,47C 100.016,50.8137 97.6822,54.6471 95.5,58.5C 95.1667,58.5 94.8333,58.5 94.5,58.5C 96.4916,54.5168 98.4916,50.5168 100.5,46.5C 99.2731,41.334 96.6064,37.334 92.5,34.5C 91.8333,34.5 91.5,34.1667 91.5,33.5C 93.3904,33.7035 94.8904,33.0368 96,31.5C 96.7736,35.0487 98.107,38.382 100,41.5C 100.654,42.6956 101.154,42.6956 101.5,41.5C 100.674,40.549 100.508,39.549 101,38.5C 102.041,40.5852 103.541,42.2519 105.5,43.5C 105.833,43.1667 106.167,42.8333 106.5,42.5C 104.196,40.5689 102.362,38.2356 101,35.5C 100.26,34.2506 100.427,33.2506 101.5,32.5 Z"/></g>
<g><path style="opacity:1" fill="#374048" d="M 93.5,36.5 C 95.7692,39.2906 97.4359,42.4573 98.5,46C 97.1314,49.9089 95.1314,53.4089 92.5,56.5C 89.1012,55.3662 85.7679,54.0329 82.5,52.5C 84.7406,49.2071 86.074,45.5404 86.5,41.5C 88.1151,40.846 89.7818,40.346 91.5,40C 92.8228,39.1841 93.4894,38.0174 93.5,36.5 Z"/></g>
<g><path style="opacity:1" fill="#8c8c83" d="M 58.5,37.5 C 57.2905,37.0679 56.2905,36.4013 55.5,35.5C 55.6032,33.9441 56.4365,32.2774 58,30.5C 57.1963,32.8275 57.3629,35.1609 58.5,37.5 Z"/></g>
<g><path style="opacity:1" fill="#3f4446" d="M 30.5,27.5 C 31.9744,28.4363 32.9744,29.7697 33.5,31.5C 26.6998,32.6352 23.6998,36.6352 24.5,43.5C 23.1667,43.5 21.8333,43.5 20.5,43.5C 20.5,42.5 20.5,41.5 20.5,40.5C 23.0986,35.5722 26.432,31.2389 30.5,27.5 Z"/></g>
<g><path style="opacity:1" fill="#fffefb" d="M 73.5,36.5 C 74.1667,36.5 74.8333,36.5 75.5,36.5C 78.7233,37.4449 81.7233,38.9449 84.5,41C 84.7785,46.7783 82.4452,51.1116 77.5,54C 88.1127,55.7217 96.6127,60.8883 103,69.5C 108.403,84.0879 103.569,88.9213 88.5,84C 81.7369,80.8693 76.5703,76.0359 73,69.5C 72.6097,72.1042 71.7763,74.4375 70.5,76.5C 70.7148,74.8212 70.0481,73.8212 68.5,73.5C 63.1667,70.5 57.8333,67.5 52.5,64.5C 51.8333,63.8333 51.1667,63.1667 50.5,62.5C 51.5736,61.1154 52.9069,59.9487 54.5,59C 43.7919,58.7285 34.9586,54.5618 28,46.5C 25.1439,41.0799 26.3106,36.9132 31.5,34C 44.9969,31.7741 55.9969,35.9408 64.5,46.5C 64.7722,40.5781 67.7722,37.2447 73.5,36.5 Z"/></g>
<g><path style="opacity:1" fill="#7a8085" d="M 76.5,16.5 C 78.403,16.7959 80.0697,17.4625 81.5,18.5C 79.6231,19.6591 79.1231,21.3258 80,23.5C 82.5653,30.5156 87.3986,32.8489 94.5,30.5C 95.2458,29.2638 95.5792,27.9305 95.5,26.5C 97.8333,28.1667 99.8333,30.1667 101.5,32.5C 100.427,33.2506 100.26,34.2506 101,35.5C 102.362,38.2356 104.196,40.5689 106.5,42.5C 106.167,42.8333 105.833,43.1667 105.5,43.5C 103.541,42.2519 102.041,40.5852 101,38.5C 100.508,39.549 100.674,40.549 101.5,41.5C 101.154,42.6956 100.654,42.6956 100,41.5C 98.107,38.382 96.7736,35.0487 96,31.5C 94.8904,33.0368 93.3904,33.7035 91.5,33.5C 88.7504,35.4969 85.7504,36.9969 82.5,38C 81.0118,36.2828 79.1785,35.1161 77,34.5C 76.3744,32.2865 76.5411,30.1199 77.5,28C 77.0217,26.6974 76.355,25.5307 75.5,24.5C 74.5094,21.7559 74.8427,19.0893 76.5,16.5 Z"/></g>
<g><path style="opacity:1" fill="#ffedaa" d="M 75.5,36.5 C 74.8333,36.5 74.1667,36.5 73.5,36.5C 73.1796,33.1016 73.513,29.7683 74.5,26.5C 74.3043,29.7544 74.6376,33.0878 75.5,36.5 Z"/></g>
<g><path style="opacity:1" fill="#919493" d="M 52.5,16.5 C 53.209,15.596 54.209,15.2627 55.5,15.5C 56.1557,17.484 56.8224,19.484 57.5,21.5C 55.5049,25.4903 53.5049,29.4903 51.5,33.5C 48.9902,33.0733 46.6568,32.4067 44.5,31.5C 46.5273,31.6621 48.5273,31.4955 50.5,31C 52.4579,28.2518 54.2912,25.4185 56,22.5C 56.1487,19.8043 54.982,17.8043 52.5,16.5 Z"/></g>
<g><path style="opacity:1" fill="#93989c" d="M 74.5,24.5 C 73.8333,24.5 73.1667,24.5 72.5,24.5C 68.6888,23.3547 64.6888,23.1881 60.5,24C 58.0969,27.3106 56.0969,30.8106 54.5,34.5C 53.209,34.7373 52.209,34.404 51.5,33.5C 54.4958,30.8039 56.8291,27.4705 58.5,23.5C 63.467,22.3377 68.467,22.1711 73.5,23C 74.056,23.3826 74.3893,23.8826 74.5,24.5 Z"/></g>
<g><path style="opacity:1" fill="#7c7f7f" d="M 37.5,22.5 C 38.0378,25.9045 39.3712,28.9045 41.5,31.5C 38.8333,31.5 36.1667,31.5 33.5,31.5C 32.9744,29.7697 31.9744,28.4363 30.5,27.5C 32.5313,25.4776 34.8646,23.8109 37.5,22.5 Z"/></g>
<g><path style="opacity:1" fill="#39424b" d="M 72.5,24.5 C 71.7485,27.7473 71.2485,31.0806 71,34.5C 68.022,36.311 65.522,38.6443 63.5,41.5C 61.8144,40.1431 60.1477,38.8098 58.5,37.5C 57.3629,35.1609 57.1963,32.8275 58,30.5C 56.4365,32.2774 55.6032,33.9441 55.5,35.5C 54.8333,35.5 54.5,35.1667 54.5,34.5C 56.0969,30.8106 58.0969,27.3106 60.5,24C 64.6888,23.1881 68.6888,23.3547 72.5,24.5 Z"/></g>
<g><path style="opacity:1" fill="#353f48" d="M 81.5,18.5 C 86.7909,20.1434 91.4576,22.81 95.5,26.5C 95.5792,27.9305 95.2458,29.2638 94.5,30.5C 87.3986,32.8489 82.5653,30.5156 80,23.5C 79.1231,21.3258 79.6231,19.6591 81.5,18.5 Z"/></g>
<g><path style="opacity:1" fill="#515a63" d="M 55.5,15.5 C 55.8333,15.5 56.1667,15.5 56.5,15.5C 58.2448,19.9593 61.5782,21.6259 66.5,20.5C 68.8333,20.3333 71.1667,20.1667 73.5,20C 74.305,18.8873 74.9717,17.7206 75.5,16.5C 75.8333,16.5 76.1667,16.5 76.5,16.5C 74.8427,19.0893 74.5094,21.7559 75.5,24.5C 75.1667,24.5 74.8333,24.5 74.5,24.5C 74.3893,23.8826 74.056,23.3826 73.5,23C 68.467,22.1711 63.467,22.3377 58.5,23.5C 56.8291,27.4705 54.4958,30.8039 51.5,33.5C 53.5049,29.4903 55.5049,25.4903 57.5,21.5C 56.8224,19.484 56.1557,17.484 55.5,15.5 Z"/></g>
<g><path style="opacity:1" fill="#8c9091" d="M 70.5,15.5 C 67.4281,15.1826 64.4281,15.5159 61.5,16.5C 64.0756,17.8834 63.7423,18.7167 60.5,19C 64.5411,19.8265 68.5411,19.6599 72.5,18.5C 73.1272,17.5832 73.4606,16.5832 73.5,15.5C 74.1667,15.8333 74.8333,16.1667 75.5,16.5C 74.9717,17.7206 74.305,18.8873 73.5,20C 71.1667,20.1667 68.8333,20.3333 66.5,20.5C 61.5782,21.6259 58.2448,19.9593 56.5,15.5C 61.2669,14.2027 65.9335,14.2027 70.5,15.5 Z"/></g>
<g><path style="opacity:1" fill="#364049" d="M 52.5,16.5 C 54.982,17.8043 56.1487,19.8043 56,22.5C 54.2912,25.4185 52.4579,28.2518 50.5,31C 48.5273,31.4955 46.5273,31.6621 44.5,31.5C 43.5,31.5 42.5,31.5 41.5,31.5C 39.3712,28.9045 38.0378,25.9045 37.5,22.5C 41.8943,19.1413 46.8943,17.1413 52.5,16.5 Z"/></g>
<g><path style="opacity:1" fill="#3b454f" d="M 70.5,15.5 C 71.5,15.5 72.5,15.5 73.5,15.5C 73.4606,16.5832 73.1272,17.5832 72.5,18.5C 68.5411,19.6599 64.5411,19.8265 60.5,19C 63.7423,18.7167 64.0756,17.8834 61.5,16.5C 64.4281,15.5159 67.4281,15.1826 70.5,15.5 Z"/></g>
</svg>
