<?xml version="1.0" encoding="UTF-8" standalone="no"?>
<!DOCTYPE svg PUBLIC "-//W3C//DTD SVG 1.1//EN" "http://www.w3.org/Graphics/SVG/1.1/DTD/svg11.dtd">
<svg width="100%" height="100%" viewBox="0 0 106 106" version="1.1" xmlns="http://www.w3.org/2000/svg" xmlns:xlink="http://www.w3.org/1999/xlink" xml:space="preserve" xmlns:serif="http://www.serif.com/" style="fill-rule:evenodd;clip-rule:evenodd;stroke-linejoin:round;stroke-miterlimit:2;">
    <g>
        <path d="M93.977,105.878L11.901,105.878C5.336,105.878 0,100.541 0,93.977L0,11.901C0,5.336 5.336,-0 11.901,-0L93.977,-0C100.541,-0 105.878,5.336 105.878,11.901L105.878,93.977C105.831,100.541 100.541,105.878 93.977,105.878Z" style="fill:url(#_Linear1);fill-rule:nonzero;"/>
        <path id="SVGID_00000000189638345710748290000006527516765547016108_" d="M74.993,52.656C74.946,49.303 77.496,46.516 80.66,46.469C83.824,46.422 86.516,49.161 86.516,52.514C86.563,55.867 83.966,58.606 80.802,58.653C77.685,58.7 75.04,56.009 74.993,52.656ZM71.734,52.703C71.829,57.992 75.89,62.148 80.896,62.053C85.949,62.006 89.916,57.709 89.821,52.419C89.727,47.13 85.666,42.927 80.613,42.975C75.607,43.116 71.687,47.414 71.734,52.703ZM55.914,58.936L55.772,46.847L58.653,46.8C61.912,46.752 64.367,49.303 64.415,52.75C64.462,56.197 62.101,58.842 58.842,58.889L55.914,58.936ZM52.703,61.723C52.703,62.006 52.892,62.242 53.175,62.242L59.125,62.148C63.99,62.101 67.909,57.898 67.862,52.75C67.815,47.65 63.753,43.588 58.889,43.636L52.939,43.73C52.703,43.73 52.467,43.966 52.514,44.25L52.703,61.723ZM32.443,55.489C32.491,59.503 35.607,62.714 39.527,62.667C43.494,62.62 46.516,59.314 46.469,55.3L46.327,44.297C46.327,44.013 46.091,43.777 45.855,43.777L43.447,43.825C43.163,43.825 42.975,44.061 42.975,44.344L43.116,55.206C43.163,57.425 41.699,59.22 39.48,59.267C37.308,59.314 35.796,57.567 35.749,55.3L35.607,44.486C35.607,44.202 35.419,43.966 35.135,43.966L32.727,44.013C32.491,44.013 32.254,44.25 32.254,44.533L32.443,55.489ZM16.387,60.92C16.906,61.392 18.795,62.951 21.96,62.903C25.501,62.856 27.721,60.306 27.674,57.567C27.626,54.167 24.793,52.656 22.337,51.664C20.307,50.814 19.362,49.964 19.315,48.736C19.315,47.886 20.071,46.894 21.487,46.847C22.857,46.847 24.793,48.122 25.029,48.264C25.312,48.453 25.69,48.264 25.926,47.933L26.871,46.422C27.06,46.139 26.965,45.714 26.729,45.572C26.21,45.194 24.226,43.825 21.676,43.872C17.662,43.919 16.056,46.658 16.056,49.019C16.104,52.136 18.512,53.695 20.873,54.686C22.998,55.536 24.085,56.481 24.132,57.803C24.132,58.936 23.187,59.834 21.865,59.881C20.212,59.881 18.182,58.37 18.04,58.275C17.804,58.086 17.379,58.086 17.19,58.464L16.293,60.117C16.009,60.542 16.151,60.684 16.387,60.92Z" style="fill:#fff;"/>
        <g>
            <clipPath id="_clip2">
                <path d="M74.993,52.656C74.946,49.303 77.496,46.516 80.66,46.469C83.824,46.422 86.516,49.161 86.516,52.514C86.563,55.867 83.966,58.606 80.802,58.653C77.685,58.7 75.04,56.009 74.993,52.656ZM71.734,52.703C71.829,57.992 75.89,62.148 80.896,62.053C85.949,62.006 89.916,57.709 89.821,52.419C89.727,47.13 85.666,42.927 80.613,42.975C75.607,43.116 71.687,47.414 71.734,52.703ZM55.914,58.936L55.772,46.847L58.653,46.8C61.912,46.752 64.367,49.303 64.415,52.75C64.462,56.197 62.101,58.842 58.842,58.889L55.914,58.936ZM52.703,61.723C52.703,62.006 52.892,62.242 53.175,62.242L59.125,62.148C63.99,62.101 67.909,57.898 67.862,52.75C67.815,47.65 63.753,43.588 58.889,43.636L52.939,43.73C52.703,43.73 52.467,43.966 52.514,44.25L52.703,61.723ZM32.443,55.489C32.491,59.503 35.607,62.714 39.527,62.667C43.494,62.62 46.516,59.314 46.469,55.3L46.327,44.297C46.327,44.013 46.091,43.777 45.855,43.777L43.447,43.825C43.163,43.825 42.975,44.061 42.975,44.344L43.116,55.206C43.163,57.425 41.699,59.22 39.48,59.267C37.308,59.314 35.796,57.567 35.749,55.3L35.607,44.486C35.607,44.202 35.419,43.966 35.135,43.966L32.727,44.013C32.491,44.013 32.254,44.25 32.254,44.533L32.443,55.489ZM16.387,60.92C16.906,61.392 18.795,62.951 21.96,62.903C25.501,62.856 27.721,60.306 27.674,57.567C27.626,54.167 24.793,52.656 22.337,51.664C20.307,50.814 19.362,49.964 19.315,48.736C19.315,47.886 20.071,46.894 21.487,46.847C22.857,46.847 24.793,48.122 25.029,48.264C25.312,48.453 25.69,48.264 25.926,47.933L26.871,46.422C27.06,46.139 26.965,45.714 26.729,45.572C26.21,45.194 24.226,43.825 21.676,43.872C17.662,43.919 16.056,46.658 16.056,49.019C16.104,52.136 18.512,53.695 20.873,54.686C22.998,55.536 24.085,56.481 24.132,57.803C24.132,58.936 23.187,59.834 21.865,59.881C20.212,59.881 18.182,58.37 18.04,58.275C17.804,58.086 17.379,58.086 17.19,58.464L16.293,60.117C16.009,60.542 16.151,60.684 16.387,60.92Z"/>
            </clipPath>
            <g clip-path="url(#_clip2)">
                <path d="M92.203,40.36L13.298,41.435L13.627,65.565L92.532,64.49L92.203,40.36Z" style="fill:#fff;"/>
            </g>
        </g>
        <path id="SVGID_00000151503631089680849560000015413622321429831852_" d="M80.093,68.854C78.393,71.687 76.221,74.237 73.718,76.457C60.353,88.027 40.235,86.563 28.713,73.151C28.193,72.537 27.674,71.876 27.201,71.215C26.54,70.365 26.729,69.09 27.626,68.476C28.477,67.815 29.704,68.004 30.366,68.901C30.791,69.468 31.263,70.034 31.735,70.601C41.841,82.407 59.503,83.682 71.215,73.529C73.434,71.593 75.323,69.373 76.835,66.87C77.401,65.926 78.582,65.642 79.526,66.209C80.376,66.681 80.66,67.909 80.093,68.854ZM79.668,36.316C77.874,33.53 75.654,31.027 73.057,28.902C59.409,17.662 39.291,19.693 28.146,33.435C27.626,34.096 27.154,34.757 26.682,35.419C26.068,36.316 26.304,37.544 27.154,38.158C28.051,38.772 29.279,38.583 29.893,37.685C30.318,37.071 30.743,36.505 31.216,35.938C40.991,23.896 58.606,22.101 70.601,31.924C72.868,33.813 74.804,35.985 76.41,38.441C76.976,39.338 78.204,39.622 79.101,39.008C79.999,38.441 80.235,37.213 79.668,36.316Z" style="fill:#fff;fill-rule:nonzero;"/>
        <g>
            <clipPath id="_clip3">
                <path d="M80.093,68.854C78.393,71.687 76.221,74.237 73.718,76.457C60.353,88.027 40.235,86.563 28.713,73.151C28.193,72.537 27.674,71.876 27.201,71.215C26.54,70.365 26.729,69.09 27.626,68.476C28.477,67.815 29.704,68.004 30.366,68.901C30.791,69.468 31.263,70.034 31.735,70.601C41.841,82.407 59.503,83.682 71.215,73.529C73.434,71.593 75.323,69.373 76.835,66.87C77.401,65.926 78.582,65.642 79.526,66.209C80.376,66.681 80.66,67.909 80.093,68.854ZM79.668,36.316C77.874,33.53 75.654,31.027 73.057,28.902C59.409,17.662 39.291,19.693 28.146,33.435C27.626,34.096 27.154,34.757 26.682,35.419C26.068,36.316 26.304,37.544 27.154,38.158C28.051,38.772 29.279,38.583 29.893,37.685C30.318,37.071 30.743,36.505 31.216,35.938C40.991,23.896 58.606,22.101 70.601,31.924C72.868,33.813 74.804,35.985 76.41,38.441C76.976,39.338 78.204,39.622 79.101,39.008C79.999,38.441 80.235,37.213 79.668,36.316Z"/>
            </clipPath>
            <g clip-path="url(#_clip3)">
                <path d="M82.274,18.729L23.579,19.529L24.501,87.148L83.195,86.348L82.274,18.729Z" style="fill:#fff;"/>
            </g>
        </g>
    </g>
    <defs>
        <linearGradient id="_Linear1" x1="0" y1="0" x2="1" y2="0" gradientUnits="userSpaceOnUse" gradientTransform="matrix(106.044,91.0705,-91.0705,106.044,0.0132229,7.49693)"><stop offset="0" style="stop-color:#4875f5;stop-opacity:1"/><stop offset="0.05" style="stop-color:#4875f5;stop-opacity:1"/><stop offset="0.18" style="stop-color:#4b71f4;stop-opacity:1"/><stop offset="0.32" style="stop-color:#6250ec;stop-opacity:1"/><stop offset="0.46" style="stop-color:#7238e7;stop-opacity:1"/><stop offset="0.54" style="stop-color:#782fe5;stop-opacity:1"/><stop offset="0.67" style="stop-color:#7b2be4;stop-opacity:1"/><stop offset="1" style="stop-color:#7b2be4;stop-opacity:1"/></linearGradient>
    </defs>
</svg>
