<svg width="384" height="128" version="1.1" viewBox="0 0 101.6 33.867" xmlns="http://www.w3.org/2000/svg" xmlns:xlink="http://www.w3.org/1999/xlink"><defs><linearGradient id="SVGID_1_" x1="15.528" x2="240.08" y1="27.875" y2="220.72" gradientUnits="userSpaceOnUse"><stop stop-color="#4875F5" offset=".04971"/><stop stop-color="#4B71F4" offset=".1762"/><stop stop-color="#6250EC" offset=".3227"/><stop stop-color="#7238E7" offset=".4579"/><stop stop-color="#782FE5" offset=".5413"/><stop stop-color="#7B2BE4" offset=".6671"/></linearGradient><clipPath id="SVGID_00000008148322744188545190000011776514215319350975_"><use xlink:href="#SVGID_00000000189638345710748290000006527516765547016108_"/></clipPath><clipPath id="SVGID_00000008107224416624678500000006806855999860403361_"><use xlink:href="#SVGID_00000151503631089680849560000015413622321429831852_"/></clipPath><path id="SVGID_00000000189638345710748290000006527516765547016108_" d="m174.3 123.5c-0.1-7.1 5.3-13 12-13.1s12.4 5.7 12.4 12.8c0.1 7.1-5.4 12.9-12.1 13-6.6 0.1-12.2-5.6-12.3-12.7zm-6.9 0.1c0.2 11.2 8.8 20 19.4 19.8 10.7-0.1 19.1-9.2 18.9-20.4s-8.8-20.1-19.5-20c-10.6 0.3-18.9 9.4-18.8 20.6zm-33.5 13.2-0.3-25.6 6.1-0.1c6.9-0.1 12.1 5.3 12.2 12.6s-4.9 12.9-11.8 13zm-6.8 5.9c0 0.6 0.4 1.1 1 1.1l12.6-0.2c10.3-0.1 18.6-9 18.5-19.9-0.1-10.8-8.7-19.4-19-19.3l-12.6 0.2c-0.5 0-1 0.5-0.9 1.1zm-42.9-13.2c0.1 8.5 6.7 15.3 15 15.2 8.4-0.1 14.8-7.1 14.7-15.6l-0.3-23.3c0-0.6-0.5-1.1-1-1.1l-5.1 0.1c-0.6 0-1 0.5-1 1.1l0.3 23c0.1 4.7-3 8.5-7.7 8.6-4.6 0.1-7.8-3.6-7.9-8.4l-0.3-22.9c0-0.6-0.4-1.1-1-1.1l-5.1 0.1c-0.5 0-1 0.5-1 1.1zm-34 11.5c1.1 1 5.1 4.3 11.8 4.2 7.5-0.1 12.2-5.5 12.1-11.3-0.1-7.2-6.1-10.4-11.3-12.5-4.3-1.8-6.3-3.6-6.4-6.2 0-1.8 1.6-3.9 4.6-4 2.9 0 7 2.7 7.5 3 0.6 0.4 1.4 0 1.9-0.7l2-3.2c0.4-0.6 0.2-1.5-0.3-1.8-1.1-0.8-5.3-3.7-10.7-3.6-8.5 0.1-11.9 5.9-11.9 10.9 0.1 6.6 5.2 9.9 10.2 12 4.5 1.8 6.8 3.8 6.9 6.6 0 2.4-2 4.3-4.8 4.4-3.5 0-7.8-3.2-8.1-3.4-0.5-0.4-1.4-0.4-1.8 0.4l-1.9 3.5c-0.6 0.9-0.3 1.2 0.2 1.7z"/><path id="SVGID_00000151503631089680849560000015413622321429831852_" d="m185.1 157.8c-3.6 6-8.2 11.4-13.5 16.1-28.3 24.5-70.9 21.4-95.3-7-1.1-1.3-2.2-2.7-3.2-4.1-1.4-1.8-1-4.5 0.9-5.8 1.8-1.4 4.4-1 5.8 0.9 0.9 1.2 1.9 2.4 2.9 3.6 21.4 25 58.8 27.7 83.6 6.2 4.7-4.1 8.7-8.8 11.9-14.1 1.2-2 3.7-2.6 5.7-1.4 1.8 1 2.4 3.6 1.2 5.6zm-0.9-68.9c-3.8-5.9-8.5-11.2-14-15.7-28.9-23.8-71.5-19.5-95.1 9.6-1.1 1.4-2.1 2.8-3.1 4.2-1.3 1.9-0.8 4.5 1 5.8 1.9 1.3 4.5 0.9 5.8-1 0.9-1.3 1.8-2.5 2.8-3.7 20.7-25.5 58-29.3 83.4-8.5 4.8 4 8.9 8.6 12.3 13.8 1.2 1.9 3.8 2.5 5.7 1.2 1.9-1.2 2.4-3.8 1.2-5.7z"/></defs><g transform="matrix(.12495 0 0 .12495 -1.9367 1.4266)"><path class="st0" d="m214.5 236.2h-173.8c-13.9 0-25.2-11.3-25.2-25.2v-173.8c0-13.9 11.3-25.2 25.2-25.2h173.8c13.9 0 25.2 11.3 25.2 25.2v173.8c-0.1 13.9-11.3 25.2-25.2 25.2z" fill="url(#SVGID_1_)"/><use clip-rule="evenodd" fill="#ffffff" fill-rule="evenodd" xlink:href="#SVGID_00000000189638345710748290000006527516765547016108_"/><clipPath><use xlink:href="#SVGID_00000000189638345710748290000006527516765547016108_"/></clipPath><g clip-path="url(#SVGID_00000008148322744188545190000011776514215319350975_)"><rect class="st2" transform="matrix(.9999 -.013626 .013626 .9999 -1.6792 1.7502)" x="44" y="98.6" width="167.1" height="51.1" fill="#fff"/></g><use fill="#ffffff" xlink:href="#SVGID_00000151503631089680849560000015413622321429831852_"/><clipPath><use xlink:href="#SVGID_00000151503631089680849560000015413622321429831852_"/></clipPath><g clip-path="url(#SVGID_00000008107224416624678500000006806855999860403361_)"><rect class="st2" transform="matrix(.9999 -.013626 .013626 .9999 -1.679 1.7628)" x="66.4" y="52.5" width="124.3" height="143.2" fill="#fff"/></g></g><g transform="matrix(.12495 0 0 .12495 -1.9367 1.4266)" fill="#fff"><path d="m356.8 166.6c-5.4-15.3-17.9-52.5-23.2-69.8h-0.4v69.8h-19.2v-97.2h29.2s21 62.8 23.9 72.3c2.8-9.6 23-72.3 23-72.3h29v97.2h-19.1v-69.8h-0.4c-5.6 17.4-19.2 58-23.3 69.8z"/><path d="m446 194.4 10-27.2-25.7-66.7h20.1s12.4 35.8 15.1 44.6h0.3c2.8-8.7 15-44.6 15-44.6h18.9l-35 93.9z"/><path d="m552.3 108.6c23 3.9 33.6 11.9 33.6 29.4 0 18.7-16.5 30.5-39.2 30.5-24.6 0-39.4-13.9-40.3-29.6l20.8-3.3c1 9.3 7.2 16.1 19.4 16.1 9.9 0 17.9-3.7 17.9-12.6 0-7.2-5.3-10.7-20.4-13.1-20.3-3.2-35.7-9.9-35.7-29.4 0-19.4 15.7-29.2 37.2-29.2 20.1 0 35.3 9.6 38.6 26.7l-21.1 4.6c-1.5-8.9-7.8-14.4-18.1-14.4-10.4 0-15.6 4.2-15.6 10.7 0.3 8.3 7.1 10.9 22.9 13.6z"/><path d="m662.4 166.6h-19.3v-9.7c-3.3 6.2-9.7 11.7-20.3 11.7-12.6 0-22.9-7.5-22.9-22.5v-45.5h20v39.6c0 9 4.6 12.1 10 12.1 6.2 0 12.5-5.4 12.5-17.6v-34h20z"/><path d="m726 108.8v-39.4h20v97.2h-19.3v-9.6c-3.5 6-10.3 11.5-21.7 11.5-16.2 0-29-13.3-29-35 0-21.5 13.2-35 30-35 9.3 0.1 16.4 4.4 20 10.3zm0.2 22.8c0-12.1-7.5-17.6-14.9-17.6-9.2 0-14.9 8.5-14.9 19.6 0 11.2 5.4 19.6 14.2 19.6 7.6 0 15.6-5.4 15.6-17.5z"/><path d="m828.6 133.6c0 21.7-13.9 35-34.6 35-20.6 0-34.4-13.3-34.4-35s13.9-35 34.4-35c20.8 0 34.6 13.3 34.6 35zm-20.2 0c0-11.2-4.3-20-14.3-20-9.9 0-14.2 8.7-14.2 20s4.3 20 14.2 20c10 0 14.3-8.8 14.3-20z"/></g></svg>
