<?xml version="1.0" encoding="UTF-8" standalone="no"?><!DOCTYPE svg PUBLIC "-//W3C//DTD SVG 1.1//EN" "http://www.w3.org/Graphics/SVG/1.1/DTD/svg11.dtd"><svg width="100%" height="100%" viewBox="0 0 192 192" version="1.1" xmlns="http://www.w3.org/2000/svg" xmlns:xlink="http://www.w3.org/1999/xlink" xml:space="preserve" xmlns:serif="http://www.serif.com/" style="fill-rule:evenodd;clip-rule:evenodd;stroke-linejoin:round;stroke-miterlimit:2;"><g><clipPath id="_clip1"><rect x="-7.49" y="0" width="767.968" height="191.992"/></clipPath><g clip-path="url(#_clip1)"><rect x="0" y="0" width="192" height="191.992" style="fill:#fff;"/><path d="M760.478,0l0,191.992l-767.968,0l0,-191.992l767.968,0Zm-193.936,46.078c-6.598,0 -12.92,1.031 -18.969,3.093c-6.047,2.062 -11.522,5.109 -16.425,9.14c-4.902,4.032 -8.843,9.416 -11.821,16.151c-2.978,6.735 -4.467,14.318 -4.467,22.748c-0,8.064 1.489,15.303 4.467,21.718c2.978,6.414 6.964,11.546 11.958,15.395c4.995,3.848 10.516,6.781 16.564,8.797c6.047,2.016 12.37,3.024 18.968,3.024c10.08,-0 19.381,-2.062 27.903,-6.186l0,-20.205c-5.864,5.315 -14.112,7.972 -24.741,7.972c-4.307,0 -8.454,-0.619 -12.44,-1.856c-3.986,-1.236 -7.606,-3.047 -10.859,-5.429c-3.253,-2.382 -5.841,-5.567 -7.766,-9.553c-1.924,-3.987 -2.886,-8.546 -2.886,-13.677c-0,-10.813 3.321,-18.992 9.965,-24.535c6.643,-5.544 14.639,-8.316 23.986,-8.316c9.53,0 17.548,2.52 24.054,7.56l0,-19.656c-8.247,-4.124 -17.41,-6.185 -27.491,-6.185l0,0Zm-470.548,1.924l-36.288,0l-0,96.22l20.618,0l0,-31.613l15.67,-0c27.674,-0 41.51,-10.768 41.51,-32.302c0,-21.535 -13.836,-32.301 -41.51,-32.301l-0,-0.004Zm237.184,0l-22.268,0l37.388,96.22l21.168,0l37.525,-96.22l-22.268,0l-25.841,72.026l-25.704,-72.026Zm133.827,0l-22.267,0l-39.312,96.22l21.305,0l7.148,-18.006l43.985,-0l7.01,18.006l21.305,0l-39.174,-96.22Zm165.609,0l-23.229,0l37.662,62.129l-0,34.088l20.48,0l-0,-34.088l37.526,-62.129l-23.231,0l-24.603,43.16l-24.605,-43.16Zm-176.737,19.107c0.459,2.474 1.146,4.994 2.063,7.56l13.47,34.501l-31.065,-0l13.333,-34.501c0.917,-2.2 1.65,-4.719 2.199,-7.56Zm-358.913,-0.962c13.012,-0 19.519,4.719 19.519,14.157c-0,9.439 -6.507,14.158 -19.519,14.158l-16.631,0l-0,-28.315l16.631,-0Z"/></g></g></svg>