<svg width="384" height="128" version="1.1" viewBox="0 0 101.6 33.867" xmlns="http://www.w3.org/2000/svg"><path d="m101.6 4.28v25.308h-101.6v-25.31h101.6zm-25.657 6.0733c-0.87347 0-1.7102 0.13667-2.5103 0.40898a6.9003 6.9003 0 0 0-2.1731 1.2037c-0.64913 0.53232-1.1698 1.242-1.5635 2.1296-0.39517 0.88902-0.59126 1.8867-0.59126 2.9985 0 1.0622 0.19748 2.0179 0.59266 2.8632 0.39254 0.84528 0.92001 1.5214 1.5804 2.0292 0.66181 0.50772 1.3914 0.89346 2.1915 1.16 0.80008 0.26308 1.6368 0.39804 2.5103 0.39804 1.3335 0 2.564-0.26992 3.6915-0.81556v-2.663c-0.77613 0.70008-1.8669 1.0499-3.2738 1.0499-0.57011 0-1.1191-0.082-1.6454-0.24258a4.8458 4.8458 0 0 1-1.4365-0.71579 3.3105 3.3105 0 0 1-1.0274-1.2601 4.0838 4.0838 0 0 1-0.38239-1.802c0-1.4254 0.43894-2.5034 1.3179-3.2342 0.87914-0.73083 1.9375-1.0964 3.1736-1.0964 1.2601 0 2.3213 0.33142 3.182 0.9963v-2.5909c-1.0907-0.54325-2.3029-0.81556-3.6364-0.81556zm-62.253 0.25283h-4.8006v12.683h2.7277v-4.1661h2.0743c3.6604 0 5.4892-1.4196 5.4892-4.2573 0-2.8389-1.8288-4.2587-5.4892-4.2587zm13.823 0h-5.2367v12.683h2.7277v-4.4394h2.001l3.436 4.4394h3.1468l-3.8015-4.7827c1.8556-0.59143 2.7827-1.8484 2.7827-3.7677 0-0.77319-0.14251-1.4381-0.42771-1.9936a3.1228 3.1228 0 0 0-1.1826-1.2857 5.5809 5.5809 0 0 0-1.6002-0.65327 8.0462 8.0462 0 0 0-1.8457-0.19475zm11.605 0h-2.7263v12.683h2.7277v-12.683zm5.9506 0h-2.9464l4.9474 12.683h2.7997l4.9643-12.683h-2.945l-3.4191 9.494zm17.705 0h-2.9464l-5.1999 12.683h2.8179l0.94546-2.3736h5.8194l0.92711 2.3736h2.8194zm21.909 0h-3.0734l4.9826 8.1901v4.493h2.7094v-4.4904l4.9643-8.1901h-3.072l-3.2554 5.6896-3.2554-5.6896zm-23.382 2.5191c0.06082 0.32458 0.15102 0.65771 0.27231 0.9963l1.7823 4.548h-4.1091l1.7639-4.548c0.12163-0.287 0.21867-0.62081 0.29042-0.9963zm-47.484-0.12642c1.7216 0 2.5823 0.62081 2.5823 1.8669 0 1.2433-0.86074 1.8655-2.5823 1.8655h-2.1999v-3.734h2.2013zm13.825 0c0.62934 0 1.1444 0.14692 1.5452 0.4346 0.40053 0.29042 0.59974 0.74381 0.59974 1.3588 0 0.60373-0.20309 1.0544-0.60823 1.3506-0.40638 0.29725-0.91858 0.44314-1.5381 0.44314h-2.636v-3.5871z" clip-rule="evenodd" fill-rule="evenodd" stroke-width="1.4111"/></svg>
