<svg width="384" height="128" version="1.1" viewBox="0 0 101.6 33.867" xmlns="http://www.w3.org/2000/svg"><defs><clipPath id="clip0_281_2112"><rect width="96" height="24" fill="#fff"/></clipPath></defs><g transform="matrix(1.0583 0 0 1.0583 1.6e-6 4.2333)" clip-path="url(#clip0_281_2112)"><rect width="96" height="24"/><path d="m96 0v24h-96v-24zm-24.243 5.76c-0.8248 0-1.6151 0.12887-2.3712 0.38661-0.756 0.25773-1.4404 0.63861-2.0533 1.1426-0.6128 0.50402-1.1054 1.177-1.4777 2.0189-0.3722 0.84193-0.5584 1.7898-0.5584 2.8437 0 1.008 0.1862 1.9129 0.5584 2.7148 0.3723 0.8018 0.8706 1.4433 1.4949 1.9244s1.3145 0.8477 2.0705 1.0997 1.5464 0.378 2.3712 0.378c1.26 0 2.4227-0.2577 3.488-0.7732v-2.5258c-0.7331 0.6644-1.7641 0.9966-3.0928 0.9966-0.5384 0-1.0568-0.0774-1.555-0.232-0.4983-0.1546-0.9508-0.3809-1.3575-0.6787-0.4066-0.2978-0.7302-0.6959-0.9708-1.1942-0.2405-0.4983-0.3608-1.0682-0.3608-1.7096 0-1.3517 0.4152-2.3741 1.2457-3.0671s1.83-1.0395 2.9984-1.0395c1.1913 0 2.1936 0.31501 3.0069 0.94503v-2.4571c-1.031-0.51548-2.1764-0.77321-3.4365-0.77321zm-58.821 0.24055h-4.5362v12.028h2.5774v-3.9519h1.9588c3.4594 0 5.189-1.346 5.189-4.0379s-1.7296-4.0378-5.189-4.0378zm13.062 0h-4.9485v12.028h2.5773v-4.2096h1.8901l3.2475 4.2096h2.9725l-3.5911-4.5361c1.7526-0.5613 2.6289-1.7526 2.6289-3.574 0-0.73312-0.1346-1.3631-0.4038-1.8901s-0.6414-0.93358-1.1168-1.22c-0.4754-0.28638-0.9794-0.49256-1.5121-0.61857-0.5326-0.126-1.114-0.18901-1.744-0.18901zm10.965 0h-2.5774v12.028h2.5774zm5.6223 0h-2.7836l4.6736 12.028h2.6461l4.6908-12.028h-2.7835l-3.2303 9.0036zm16.729 0h-2.7835l-4.9142 12.028h2.6633l0.8935-2.2509h5.4983l0.8763 2.2509h2.6633zm20.702 0h-2.9038l4.708 7.7664v4.2612h2.5601v-4.2612l4.6909-7.7664h-2.9039l-3.0756 5.3952zm-22.093 2.3884c0.0573 0.30929 0.1432 0.62429 0.2578 0.94503l1.6839 4.3128h-3.8833l1.6667-4.3128c0.1146-0.27492 0.2062-0.58992 0.2749-0.94503zm-44.866-0.12028c1.6266 0 2.4399 0.58993 2.4399 1.7698 0 1.1799-0.8133 1.7698-2.4399 1.7698h-2.079v-3.5396zm13.062 0c0.5956 0 1.0825 0.13746 1.4605 0.41238s0.567 0.70448 0.567 1.2887c0 0.57271-0.1919 0.99941-0.5756 1.2801-0.3837 0.2806-0.8677 0.421-1.4519 0.421h-2.4915v-3.4022z" clip-rule="evenodd" fill="#fff" fill-rule="evenodd"/></g></svg>
