<?xml version="1.0" encoding="utf-8"?>
<!-- Generator: Adobe Illustrator 27.9.0, SVG Export Plug-In . SVG Version: 6.00 Build 0)  -->
<svg version="1.1" id="Layer_1" xmlns="http://www.w3.org/2000/svg" xmlns:xlink="http://www.w3.org/1999/xlink" x="0px" y="0px"
	 width="800px" height="800px" viewBox="0 0 800 800" style="enable-background:new 0 0 800 800;" xml:space="preserve">
<style type="text/css">
	.st0{fill:#FFFFFF;}
</style>
<rect class="st0" width="800" height="800"/>
<g>
	<rect x="209.051" y="262.097" width="101.445" height="410.21"/>
	<path d="M628.623,285.554c0-87.043-70.882-157.86-158.011-157.86H209.051v87.603h249.125c39.43,0,72.093,30.978,72.814,69.051
		c0.361,19.064-6.794,37.056-20.146,50.66c-13.357,13.61-31.204,21.109-50.251,21.109h-97.046c-3.446,0-6.25,2.8-6.25,6.245v77.859
		c0,1.324,0.409,2.59,1.179,3.656l164.655,228.43h120.53L478.623,443.253C561.736,439.08,628.623,369.248,628.623,285.554z"/>
</g>
</svg>
