<?xml version="1.0" encoding="UTF-8"?>
<svg width="384" height="128" version="1.1" viewBox="0 0 101.6 33.867" xmlns="http://www.w3.org/2000/svg"><path d="m65.931 13.74c-1.713-1.5478-3.7813-2.3045-6.1722-2.3045-2.3583 0-4.4265 0.7576-6.1405 2.3045-1.713 1.5142-2.5839 3.6219-2.5839 6.322s0.8709 4.8058 2.5839 6.3537c1.713 1.5142 3.7822 2.2718 6.1405 2.2718 2.3909 0 4.4592-0.7576 6.1722-2.2718 1.7456-1.5478 2.6166-3.6545 2.6166-6.3537s-0.87186-4.8077-2.6166-6.322zm-9.4023 9.7777c-0.90355-0.88819-1.3587-2.0414-1.3587-3.4567s0.4513-2.5676 1.3587-3.4241a4.4169 4.4169 0 0 1 3.2292-1.3164 4.4937 4.4937 0 0 1 3.2628 1.3164c0.93524 0.8565 1.3904 2.0078 1.3904 3.4241s-0.4513 2.5676-1.3904 3.4567c-0.90355 0.85554-2.003 1.2838-3.2628 1.2838a4.5226 4.5226 0 0 1-3.2292-1.2838zm18.13 4.7079v-22.592h-4.0713v22.592zm13.14-16.329v9.0144c0 2.172-1.1522 3.6123-3.3453 3.6123-2.2306 0-3.3521-1.4384-3.3521-3.6123v-9.0144h-4.0789v9.7057c0 3.7602 2.3266 7.0844 7.431 7.0844h0.03169c5.0728 0 7.3955-3.3982 7.3955-7.0844v-9.7057zm-41.097 0-4.0713 11.062-4.0713-11.062h-4.3296l6.4967 16.33h3.8139l6.4958-16.33zm-12.453 7.7037c0-2.3698-0.74224-4.3123-2.1969-5.8601-1.4547-1.5478-3.3261-2.3045-5.621-2.3045-2.3583 0-4.3632 0.82385-6.0109 2.436-1.617 1.6141-2.4226 3.6545-2.4226 6.1895 0 2.5349 0.80753 4.6099 2.3909 6.2221 1.617 1.6141 3.5556 2.4034 5.8496 2.4034 3.5239 0 6.0109-1.5805 7.527-4.7741l-3.0362-1.7783c-0.99957 2.0078-2.4562 2.9958-4.4265 2.9958-2.4226 0-4.1356-1.5805-4.3948-4.0818h12.341v-1.449zm-7.9495-5.0046c2.2939 0 3.8139 1.3164 4.2009 3.4241h-8.5948c0.61549-1.9425 2.2939-3.4241 4.3948-3.4241zm-8.3029 13.63-5.4626-9.7441c3.4558-1.2838 5.1688-3.522 5.1688-6.7819 0.0038-3.9839-3.1005-6.5198-8.0436-6.5198h-9.6596v23.046h4.2652v-9.3495h3.62l5.2331 9.3504zm-8.3374-19.227c2.5205 0 3.7813 1.0207 3.7813 3.0285 0 2.0078-1.2617 3.0285-3.7813 3.0285h-5.3944v-6.0569zm89.123 19.688c-2.6204 0-4.7453-2.1662-4.7453-4.8394v-16.363h4.0713v4.4179h3.4913v3.3578h-3.4913v8.3202c0 0.78353 0.62318 1.4182 1.3933 1.4182h2.098v3.6881z" stroke-width=".9602"/></svg>
