<?xml version="1.0" encoding="UTF-8"?>
<svg fill="none" version="1.1" viewBox="0 0 44 44" xmlns="http://www.w3.org/2000/svg"><g clip-path="url(#clip0_287_2206)"><path d="M22.0557 38.25L43.1117 6H1L22.0557 38.25Z" fill="url(#paint0_linear_287_2206)"/><path d="m6 28.244c0.85811-0.9153 2.9862-3.0091 4.6338-4.0617 1.6476-1.0527 3.6232-4.0618 4.405-5.4348 2.3836-3.5087 7.723-10.835 10.011-12.071 0.4119-0.32038 1.0107-0.81998 1.2586-1.0297 0.8581-1.907 3.7757-5.1487 8.5811-2.8604 0.4119-0.13732 1.4302-0.17164 1.8879-0.17164-0.3624 0.24792-1.1213 0.97253-1.2586 1.8879-0.3661 2.5171-1.7544 3.9855-2.4027 4.405-0.4577 2.9176-1.087 5.492-2.46 6.4072l1.2586 2.2311c1.8879 2.0023 5.8009 6.3271 6.3499 7.6086-1.8305-0.5949-3.0128-1.1632-3.3751-1.373l3.3751 4.6338c-1.9831-0.1525-6.4414-1.4416-8.4093-5.3775 0.778 2.1053 1.5445 4.7292 1.8306 5.778-1.0679-0.8772-3.3638-3.421-4.0046-6.5789 0.1831 3.0664 0.1526 5.244 0.1145 5.9496-0.5149-0.4767-1.7048-1.9565-2.3456-4.0617v3.5468c-0.7684-1.0683-2.3142-3.6619-2.4538-5.619 0.1288 2.2183 0.0503 3.2582-0.0061 3.5023l-2.9175-2.7459c-0.7819 0.4195-2.8833 1.373-5.0343 1.8306-1.4645 1.2357-3.2418 4.3287-3.9473 5.7208v-1.7734l-1.9451 1.945 0.68648-2.0594-1.2586 1.0869c-0.28605 0.1716-0.94965 0.5149-1.3158 0.5149 0.13728-0.3204 0.40047-0.6675 0.51488-0.801l-1.659 0.6293c0.19069-0.553 0.78947-1.7734 1.659-2.2311-1.1899 0.4577-1.6781 0.5721-1.7734 0.5721z" fill="#fff"/></g><defs><linearGradient id="paint0_linear_287_2206" x1="22.056" x2="22.056" y1="38.25" y2="-4.75" gradientUnits="userSpaceOnUse"><stop stop-color="#01D6E6" offset="0"/><stop stop-color="#0182E7" offset="1"/></linearGradient><clipPath id="clip0_287_2206"><rect width="44" height="44" fill="#fff"/></clipPath></defs></svg>
