<svg width="44" height="44" viewBox="0 0 44 44" fill="none" xmlns="http://www.w3.org/2000/svg">
<g clip-path="url(#clip0_287_2206)">
<path d="M22.0557 38.25L43.1117 6H1L22.0557 38.25Z" fill="url(#paint0_linear_287_2206)"/>
<path d="M6 28.2444C6.85811 27.3291 8.98625 25.2353 10.6338 24.1827C12.2814 23.13 14.257 20.1209 15.0388 18.7479C17.4224 15.2392 22.7618 7.91286 25.0501 6.67716C25.462 6.35678 26.0608 5.85718 26.3087 5.64745C27.1668 3.7405 30.0844 0.498738 34.8898 2.78706C35.3017 2.64974 36.32 2.61542 36.7777 2.61542C36.4153 2.86334 35.6564 3.58795 35.5191 4.50328C35.153 7.02039 33.7647 8.48874 33.1164 8.90825C32.6587 11.8259 32.0294 14.4002 30.6564 15.3155L31.915 17.5466C33.8029 19.5489 37.7159 23.8737 38.2649 25.1552C36.4344 24.5603 35.2521 23.992 34.8898 23.7822L38.2649 28.416C36.2818 28.2635 31.8235 26.9744 29.8556 23.0385C30.6336 25.1438 31.4001 27.7677 31.6862 28.8165C30.6183 27.9393 28.3224 25.3955 27.6816 22.2376C27.8647 25.304 27.8342 27.4816 27.7961 28.1872C27.2812 27.7105 26.0913 26.2307 25.4505 24.1255V27.6723C24.6821 26.604 23.1363 24.0104 22.9967 22.0533C23.1255 24.2716 23.047 25.3115 22.9906 25.5556L20.0731 22.8097C19.2912 23.2292 17.1898 24.1827 15.0388 24.6403C13.5743 25.876 11.797 28.969 11.0915 30.3611V28.5877L9.14643 30.5327L9.83291 28.4733L8.57433 29.5602C8.28828 29.7318 7.62468 30.0751 7.25857 30.0751C7.39585 29.7547 7.65904 29.4076 7.77345 29.2741L6.11441 29.9034C6.3051 29.3504 6.90388 28.13 7.77345 27.6723C6.58351 28.13 6.09536 28.2444 6 28.2444Z" fill="white"/>
</g>
<defs>
<linearGradient id="paint0_linear_287_2206" x1="22.0557" y1="38.25" x2="22.0557" y2="-4.75" gradientUnits="userSpaceOnUse">
<stop stop-color="#01D6E6"/>
<stop offset="1" stop-color="#0182E7"/>
</linearGradient>
<clipPath id="clip0_287_2206">
<rect width="44" height="44" fill="white"/>
</clipPath>
</defs>
</svg>