<?xml version="1.0" encoding="UTF-8"?>
<svg xmlns="http://www.w3.org/2000/svg" xmlns:xlink="http://www.w3.org/1999/xlink" width="128px" height="128px" viewBox="0 0 128 128" version="1.1">
<defs>
<linearGradient id="linear0" gradientUnits="userSpaceOnUse" x1="22.0557" y1="38.25" x2="22.0557" y2="-4.75" gradientTransform="matrix(2.909091,0,0,2.909091,0,0)">
<stop offset="0" style="stop-color:rgb(0.392157%,83.921569%,90.196078%);stop-opacity:1;"/>
<stop offset="1" style="stop-color:rgb(0.392157%,50.980392%,90.588235%);stop-opacity:1;"/>
</linearGradient>
</defs>
<g id="surface1">
<path style=" stroke:none;fill-rule:nonzero;fill:url(#linear0);" d="M 64.160156 111.273438 L 125.414062 17.453125 L 2.910156 17.453125 Z M 64.160156 111.273438 "/>
<path style=" stroke:none;fill-rule:nonzero;fill:rgb(100%,100%,100%);fill-opacity:1;" d="M 17.453125 82.164062 C 19.949219 79.503906 26.140625 73.410156 30.933594 70.351562 C 35.726562 67.289062 41.476562 58.535156 43.75 54.539062 C 50.683594 44.332031 66.214844 23.019531 72.871094 19.425781 C 74.070312 18.492188 75.8125 17.039062 76.535156 16.429688 C 79.03125 10.882812 87.519531 1.449219 101.496094 8.109375 C 102.695312 7.707031 105.65625 7.609375 106.988281 7.609375 C 105.933594 8.328125 103.726562 10.4375 103.328125 13.101562 C 102.261719 20.421875 98.222656 24.695312 96.339844 25.914062 C 95.007812 34.402344 93.175781 41.890625 89.183594 44.554688 L 92.84375 51.042969 C 98.335938 56.871094 109.71875 69.449219 111.316406 73.179688 C 105.992188 71.449219 102.550781 69.792969 101.496094 69.183594 L 111.316406 82.664062 C 105.546875 82.222656 92.578125 78.472656 86.851562 67.019531 C 89.117188 73.144531 91.347656 80.777344 92.179688 83.828125 C 89.070312 81.277344 82.390625 73.878906 80.527344 64.691406 C 81.0625 73.613281 80.972656 79.945312 80.863281 82 C 79.363281 80.613281 75.902344 76.308594 74.039062 70.183594 L 74.039062 80.5 C 71.800781 77.394531 67.304688 69.847656 66.898438 64.15625 C 67.273438 70.609375 67.046875 73.632812 66.882812 74.34375 L 58.394531 66.355469 C 56.121094 67.574219 50.007812 70.351562 43.75 71.679688 C 39.488281 75.277344 34.320312 84.273438 32.265625 88.324219 L 32.265625 83.164062 L 26.609375 88.824219 L 28.605469 82.832031 L 24.945312 85.992188 C 24.113281 86.492188 22.179688 87.492188 21.117188 87.492188 C 21.515625 86.558594 22.28125 85.550781 22.613281 85.160156 L 17.789062 86.992188 C 18.34375 85.382812 20.085938 81.832031 22.613281 80.5 C 19.152344 81.832031 17.730469 82.164062 17.453125 82.164062 Z M 17.453125 82.164062 "/>
</g>
</svg>
