<svg xmlns="http://www.w3.org/2000/svg" width="128" height="128" version="1.1" viewBox="0 0 33.867 33.867"><g transform="matrix(.28222 0 0 .28222 -18.909 -5.3622)"><circle cx="127" cy="79" r="60" fill="#de5833"/><path fill="#fff" d="m177.8 57.5c-2.8-6.6-6.8-12.5-11.8-17.5-5.1-5.1-11-9-17.5-11.8-6.8-2.9-14-4.3-21.5-4.3-7.4 0-14.7 1.5-21.5 4.3-6.6 2.7-12.5 6.7-17.5 11.8-5.1 5.1-9 11-11.8 17.5-2.9 6.8-4.3 14-4.3 21.5s1.5 14.7 4.3 21.5c2.8 6.6 6.8 12.5 11.8 17.5 5.1 5.1 11 9 17.5 11.8 6.8 2.9 14 4.3 21.5 4.3 7.4 0 14.7-1.5 21.5-4.3 6.5-2.8 12.4-6.8 17.5-11.8 5.1-5.1 9-11 11.8-17.5 2.9-6.8 4.3-14 4.3-21.5s-1.4-14.7-4.3-21.5zm-38.8 71c-3.2-5.4-11.6-20.5-11.6-31.7 0-25.8 17.3-3.7 17.3-24.3 0-4.9-2.4-22.1-17.4-25.7-3.7-4.9-12.4-9.6-26.2-7.7 0 0 2.3 0.7 4.9 2 0 0-5 0.7-5.2 4.1 0 0 9.9-0.5 15.5 1.3-12.9 1.7-19.5 8.5-18.3 20.8 1.7 17.5 9.1 48.7 11.7 59.6-19.6-7-33.7-25.8-33.7-47.9 0-28.1 22.8-51 51-51s51 22.8 51 51c-0.1 24-16.7 44.1-39 49.5z"/><path fill="#fed30a" fill-rule="evenodd" d="m124.2 87.3c0-6.6 9-8.7 12.4-8.7 9.2 0 22.2-5.9 25.4-5.8 3.3 0.1 5.4 1.4 5.4 2.9 0 2.2-18.4 10.5-25.5 9.8-6.8-0.6-8.4 0.1-8.4 2.9 0 2.4 4.9 4.6 10.3 4.6 8.1 0 16-3.6 18.4-1.9 2.1 1.5-5.5 6.9-14.2 6.9s-23.8-4.1-23.8-10.7z" clip-rule="evenodd"/><g fill="#2d4f8d"><path d="m140.2 59.3c-2.4-3.1-6.7-3.2-8.2 0.4 2.3-1.8 5.1-2.2 8.2-0.4zm-26.7 0.1c-3.3-2-8.8-2.2-8.5 4.1 1.6-3.9 3.8-4.6 8.5-4.1zm24.7 5.8c-1.8 0-3.3 1.5-3.3 3.3s1.5 3.3 3.3 3.3 3.3-1.5 3.3-3.3-1.5-3.3-3.3-3.3zm1.2 3.1c-0.5 0-1-0.4-1-1 0-0.5 0.4-1 1-1s1 0.4 1 1c-0.1 0.5-0.5 1-1 1zm-26.8-1.3c-2.1 0-3.8 1.7-3.8 3.8s1.7 3.8 3.8 3.8 3.8-1.7 3.8-3.8-1.7-3.8-3.8-3.8zm1.4 3.5c-0.6 0-1.1-0.5-1.1-1.1s0.5-1.1 1.1-1.1 1.1 0.5 1.1 1.1-0.5 1.1-1.1 1.1z"/></g><g fill="#d5d7d8"><path d="m104.3 50.8c-4.8 3.5-7 8.9-6.3 16.5 1.7 17.5 9.1 48.8 11.7 59.7l2.7 0.9c-1.6-6.6-9.3-38.8-12.7-63.5-0.9-6.6 1.7-10.5 4.6-13.6zm11.9-4.3c0.4 0 0.7-0.1 0.7-0.1-5.2-2.5-13.4-2.6-15.6-2.6-0.2 0.4-0.4 0.9-0.4 1.4-0.1 0.1 9.6-0.5 15.3 1.3zm-9.4-5.4c-1.6-1.1-2.9-1.8-3.7-2.2-0.7 0.1-1.3 0.1-2 0.2 0 0 2.3 0.7 4.9 2h-0.2z"/></g><path fill="#67bd47" d="m147.1 107.6c-1.7-0.4-8.3 4.3-10.8 6.1-0.1-0.5-0.2-0.9-0.3-1.1-0.3-1-6.7-0.4-8.2 1.2-4-1.9-12-5.6-12.1-3.3-0.3 3 0 15.5 1.6 16.4 1.2 0.7 8-3 11.4-4.9h0.1c2.1 0.5 6 0 7.4-0.9 0.2-0.1 0.3-0.3 0.4-0.5 3.1 1.2 9.8 3.6 11.2 3.1 1.8-0.5 1.4-15.6-0.7-16.1z"/><path fill="#43a347" d="m128.8 122c-2.1-0.4-1.4-2.5-1.4-7.4-0.5 0.3-0.9 0.7-0.9 1.1 0 4.9-0.8 7.1 1.4 7.4 2.1 0.5 6 0 7.6-0.9 0.3-0.2 0.4-0.5 0.5-1-1.5 0.9-5.2 1.3-7.2 0.8z"/></g></svg>