<?xml version="1.0" encoding="UTF-8"?>
<svg width="128" height="128" version="1.1" viewBox="0 0 33.867 33.867" xmlns="http://www.w3.org/2000/svg"><g transform="matrix(.19188 0 0 .19188 1.8154 -.041429)"><path d="m0 66c9.1-1.689 18.762-2.603 28-3 1.3-6.296 2.83-12.681 6.637-18 12.41-17.336 35.46-21.755 52.348-8.18 4.758 3.824 8.195 8.636 10.702 14.18 1.25 2.766 1.778 7.917 4.743 9.397 2.391 1.193 5.985 0.603 8.57 0.603h18c-0.765-9.68-3.251-18.41-7.746-27-3.625-6.928-8.506-12.621-14.254-17.907-27.108-24.928-71.206-19.409-93.482 8.907-9.2 11.694-13.516 26.28-13.518 41z" fill="#6573ff"/><path d="m31 78-28 4c4.827 28.032 34.279 46.374 61 46.985 6.392 0.147 12.879-0.875 19-2.706 3.615-1.082 7.401-3.328 10.91-0.857 4.873 3.431 8.736 9.974 12.479 14.578 8.384 10.313 16.507 21.03 25.415 30.895 5.86 6.49 16.56 8.54 22.624 0.997 6.851-8.522 1.213-16.864-4.429-23.892-7.829-9.752-15.941-19.274-23.802-29-2.905-3.594-8.756-8.367-9.754-13-0.773-3.585 3.251-7.965 4.8-11 3.582-7.016 6.129-14.106 6.757-22h-18c-2.679 0-6.219-0.551-8.722 0.603-2.735 1.262-3.591 4.968-4.958 7.397-2.422 4.304-5.475 8.37-9.335 11.482-19.184 15.47-45.75 7.058-55.985-14.482z" fill="#202945"/></g></svg>
