<svg xmlns="http://www.w3.org/2000/svg" width="128" height="128" version="1.1" viewBox="0 0 33.866 33.866"><defs><linearGradient id="SVGID_1_" x1="98.86" x2="94.271" y1="455.86" y2="450.51" gradientTransform="translate(-8.0854 -395.13)" gradientUnits="userSpaceOnUse"><stop offset="0" stop-color="#2B3B6A"/><stop offset="1" stop-color="#2B3B6A"/></linearGradient><linearGradient id="SVGID_2_" x1="138.36" x2="138.36" y1="458.17" y2="494.97" gradientTransform="translate(-8.0854 -395.13)" gradientUnits="userSpaceOnUse"><stop offset="0" stop-color="#2B3B6A"/><stop offset=".07" stop-color="#2D4576"/><stop offset=".216" stop-color="#2E5589"/><stop offset=".361" stop-color="#2B5E97"/><stop offset=".5" stop-color="#29629C"/><stop offset=".639" stop-color="#2B5E97"/><stop offset=".783" stop-color="#2E5589"/><stop offset=".93" stop-color="#2D4576"/><stop offset="1" stop-color="#2B3B6A"/></linearGradient><linearGradient id="SVGID_3_" x1="56.596" x2="68.537" y1="497.77" y2="476.51" gradientTransform="translate(-8.0854 -395.13)" gradientUnits="userSpaceOnUse"><stop offset="0" stop-color="#252B59"/><stop offset=".086" stop-color="#2B3A69"/><stop offset=".227" stop-color="#2E4A7C"/><stop offset=".366" stop-color="#2E5487"/><stop offset=".5" stop-color="#2D578C"/><stop offset=".634" stop-color="#2E5487"/><stop offset=".773" stop-color="#2E4A7C"/><stop offset=".914" stop-color="#2B3A69"/><stop offset="1" stop-color="#252B59"/></linearGradient><linearGradient id="SVGID_4_" x1="90.679" x2="70.915" y1="425.59" y2="402.53" gradientTransform="translate(-8.0854 -395.13)" gradientUnits="userSpaceOnUse"><stop offset="0" stop-color="#181844"/><stop offset=".028" stop-color="#1E1E4C"/><stop offset=".135" stop-color="#283261"/><stop offset=".247" stop-color="#2D4172"/><stop offset=".365" stop-color="#2E4A7C"/><stop offset=".5" stop-color="#2E4D7F"/><stop offset=".618" stop-color="#2D4576"/><stop offset=".813" stop-color="#273160"/><stop offset="1" stop-color="#181844"/></linearGradient><linearGradient id="SVGID_5_" x1="129.8" x2="114.53" y1="500.29" y2="451.11" gradientTransform="translate(-8.0854 -395.13)" gradientUnits="userSpaceOnUse"><stop offset="0" stop-color="#181844"/><stop offset=".028" stop-color="#1E1E4C"/><stop offset=".135" stop-color="#283261"/><stop offset=".247" stop-color="#2D4172"/><stop offset=".365" stop-color="#2E4A7C"/><stop offset=".5" stop-color="#2E4D7F"/><stop offset=".618" stop-color="#2D4576"/><stop offset=".813" stop-color="#273160"/><stop offset="1" stop-color="#181844"/></linearGradient><linearGradient id="SVGID_6_" x1="61.472" x2="61.472" y1="458.17" y2="494.97" gradientTransform="translate(-8.0854 -395.13)" gradientUnits="userSpaceOnUse"><stop offset="0" stop-color="#2B3B6A"/><stop offset=".07" stop-color="#2D4576"/><stop offset=".216" stop-color="#2E5589"/><stop offset=".361" stop-color="#2B5E97"/><stop offset=".5" stop-color="#29629C"/><stop offset=".639" stop-color="#2B5E97"/><stop offset=".783" stop-color="#2E5589"/><stop offset=".93" stop-color="#2D4576"/><stop offset="1" stop-color="#2B3B6A"/></linearGradient><linearGradient id="SVGID_7_" x1="81.718" x2="96.165" y1="422.06" y2="422.06" gradientTransform="translate(-8.0854 -395.13)" gradientUnits="userSpaceOnUse"><stop offset="0" stop-color="#2B3B6A"/><stop offset="1" stop-color="#2B3B6A"/></linearGradient><linearGradient id="SVGID_8_" x1="100.8" x2="100.8" y1="437.34" y2="402.63" gradientTransform="translate(-8.0854 -395.13)" gradientUnits="userSpaceOnUse"><stop offset="0" stop-color="#252B59"/><stop offset=".5" stop-color="#2D578C"/><stop offset=".693" stop-color="#2D5588"/><stop offset=".804" stop-color="#2E4F80"/><stop offset=".893" stop-color="#2D4474"/><stop offset=".971" stop-color="#283463"/><stop offset="1" stop-color="#252B59"/></linearGradient><linearGradient id="SVGID_9_" x1="69.095" x2="132.5" y1="504.7" y2="408.86" gradientTransform="translate(-8.0854 -395.13)" gradientUnits="userSpaceOnUse"><stop offset="0" stop-color="#2867A2"/><stop offset=".082" stop-color="#177EBC"/><stop offset=".168" stop-color="#0E91D1"/><stop offset=".253" stop-color="#10A2E1"/><stop offset=".337" stop-color="#18ACEA"/><stop offset=".42" stop-color="#24B1ED"/><stop offset=".5" stop-color="#28B1ED"/><stop offset=".58" stop-color="#24B1ED"/><stop offset=".663" stop-color="#18ACEA"/><stop offset=".747" stop-color="#10A2E1"/><stop offset=".833" stop-color="#0E91D1"/><stop offset=".918" stop-color="#177EBC"/><stop offset="1" stop-color="#2867A2"/></linearGradient><linearGradient id="SVGID_10_" x1="63.396" x2="88.511" y1="506.63" y2="484.14" gradientTransform="translate(-8.0854 -395.13)" gradientUnits="userSpaceOnUse"><stop offset="0" stop-color="#2C5D95"/><stop offset=".082" stop-color="#246EAB"/><stop offset=".181" stop-color="#1B79B9"/><stop offset=".301" stop-color="#1080C2"/><stop offset=".5" stop-color="#0E81C5"/><stop offset=".699" stop-color="#1080C2"/><stop offset=".819" stop-color="#1B79B9"/><stop offset=".918" stop-color="#246EAB"/><stop offset="1" stop-color="#2C5D95"/></linearGradient><linearGradient id="SVGID_11_" x1="61.149" x2="119.47" y1="408.2" y2="505.4" gradientTransform="translate(-8.0854 -395.13)" gradientUnits="userSpaceOnUse"><stop offset="0" stop-color="#2C5D95"/><stop offset=".018" stop-color="#2A6199"/><stop offset=".141" stop-color="#1C79B7"/><stop offset=".263" stop-color="#0A8CCA"/><stop offset=".384" stop-color="#0B97D4"/><stop offset=".5" stop-color="#0E9AD8"/><stop offset=".616" stop-color="#0B97D4"/><stop offset=".737" stop-color="#0A8CCA"/><stop offset=".859" stop-color="#1C79B7"/><stop offset=".982" stop-color="#2A6199"/><stop offset="1" stop-color="#2C5D95"/></linearGradient><linearGradient id="SVGID_12_" x1="124.23" x2="86.731" y1="504.8" y2="457.57" gradientTransform="translate(-8.0854 -395.13)" gradientUnits="userSpaceOnUse"><stop offset="0" stop-color="#2C5D95"/><stop offset=".026" stop-color="#2A6199"/><stop offset=".205" stop-color="#1C79B7"/><stop offset=".384" stop-color="#0A8CCA"/><stop offset=".56" stop-color="#0B97D4"/><stop offset=".73" stop-color="#0E9AD8"/><stop offset=".792" stop-color="#0B97D4"/><stop offset=".858" stop-color="#0A8CCA"/><stop offset=".924" stop-color="#1C79B7"/><stop offset=".991" stop-color="#2A6199"/><stop offset="1" stop-color="#2C5D95"/></linearGradient><linearGradient id="SVGID_13_" x1="70.045" x2="62.744" y1="432.01" y2="405.73" gradientTransform="translate(-8.0854 -395.13)" gradientUnits="userSpaceOnUse"><stop offset="0" stop-color="#2C5D95"/><stop offset=".082" stop-color="#246EAB"/><stop offset=".181" stop-color="#1B79B9"/><stop offset=".301" stop-color="#1080C2"/><stop offset=".5" stop-color="#0E81C5"/><stop offset=".699" stop-color="#1080C2"/><stop offset=".819" stop-color="#1B79B9"/><stop offset=".918" stop-color="#246EAB"/><stop offset="1" stop-color="#2C5D95"/></linearGradient><linearGradient id="SVGID_14_" x1="152.73" x2="38.976" y1="449.74" y2="449.74" gradientTransform="translate(-8.0854 -395.13)" gradientUnits="userSpaceOnUse"><stop offset="0" stop-color="#2867A2"/><stop offset=".013" stop-color="#256BA7"/><stop offset=".112" stop-color="#0B83C3"/><stop offset=".211" stop-color="#1797D8"/><stop offset=".31" stop-color="#25A3E2"/><stop offset=".407" stop-color="#27ABE7"/><stop offset=".5" stop-color="#2AAEEA"/><stop offset=".593" stop-color="#27ABE7"/><stop offset=".69" stop-color="#25A3E2"/><stop offset=".788" stop-color="#1797D8"/><stop offset=".888" stop-color="#0B83C3"/><stop offset=".987" stop-color="#256BA7"/><stop offset="1" stop-color="#2867A2"/></linearGradient><linearGradient id="SVGID_15_" x1="120.12" x2="152.64" y1="448.08" y2="449.83" gradientTransform="translate(-8.0854 -395.13)" gradientUnits="userSpaceOnUse"><stop offset="0" stop-color="#2E5284"/><stop offset=".006" stop-color="#2E5486"/><stop offset=".091" stop-color="#29649D"/><stop offset=".188" stop-color="#236FAD"/><stop offset=".305" stop-color="#1D77B6"/><stop offset=".5" stop-color="#1C78B9"/><stop offset=".695" stop-color="#1D77B6"/><stop offset=".812" stop-color="#236FAD"/><stop offset=".909" stop-color="#29649D"/><stop offset=".994" stop-color="#2E5486"/><stop offset="1" stop-color="#2E5284"/></linearGradient><linearGradient id="SVGID_16_" x1="38.885" x2="97.546" y1="448.13" y2="448.13" gradientTransform="translate(-8.0854 -395.13)" gradientUnits="userSpaceOnUse"><stop offset="0" stop-color="#2867A2"/><stop offset=".022" stop-color="#256BA7"/><stop offset=".197" stop-color="#0B83C3"/><stop offset=".372" stop-color="#1797D8"/><stop offset=".545" stop-color="#25A3E2"/><stop offset=".715" stop-color="#27ABE7"/><stop offset=".879" stop-color="#2AAEEA"/><stop offset=".901" stop-color="#27ABE7"/><stop offset=".925" stop-color="#25A3E2"/><stop offset=".949" stop-color="#1797D8"/><stop offset=".973" stop-color="#0B83C3"/><stop offset=".997" stop-color="#256BA7"/><stop offset="1" stop-color="#2867A2"/></linearGradient><linearGradient id="SVGID_17_" x1="80.14" x2="58.094" y1="432.95" y2="429.85" gradientTransform="translate(-8.0854 -395.13)" gradientUnits="userSpaceOnUse"><stop offset="0" stop-color="#2B3B6A"/><stop offset="1" stop-color="#2B3B6A"/></linearGradient><linearGradient id="SVGID_18_" x1="102.57" x2="40.271" y1="451.81" y2="443.04" gradientTransform="translate(-8.0854 -395.13)" gradientUnits="userSpaceOnUse"><stop offset="0" stop-color="#2867A2"/><stop offset=".038" stop-color="#2174B1"/><stop offset=".118" stop-color="#0B86C4"/><stop offset=".208" stop-color="#0A94D2"/><stop offset=".318" stop-color="#0C9BDB"/><stop offset=".5" stop-color="#109EDE"/><stop offset=".682" stop-color="#0C9BDB"/><stop offset=".792" stop-color="#0A94D2"/><stop offset=".882" stop-color="#0B86C4"/><stop offset=".962" stop-color="#2174B1"/><stop offset="1" stop-color="#2867A2"/></linearGradient><linearGradient id="SVGID_19_" x1="131.45" x2="101.82" y1="408.67" y2="459.7" gradientTransform="translate(-8.0854 -395.13)" gradientUnits="userSpaceOnUse"><stop offset="0" stop-color="#2867A2"/><stop offset=".124" stop-color="#177EBC"/><stop offset=".252" stop-color="#0E91D1"/><stop offset=".38" stop-color="#10A2E1"/><stop offset=".506" stop-color="#18ACEA"/><stop offset=".631" stop-color="#24B1ED"/><stop offset=".751" stop-color="#28B1ED"/><stop offset=".791" stop-color="#24B1ED"/><stop offset=".832" stop-color="#18ACEA"/><stop offset=".874" stop-color="#10A2E1"/><stop offset=".917" stop-color="#0E91D1"/><stop offset=".959" stop-color="#177EBC"/><stop offset="1" stop-color="#2867A2"/></linearGradient><linearGradient id="SVGID_20_" x1="135.17" x2="124.39" y1="434.34" y2="454.58" gradientTransform="translate(-8.0854 -395.13)" gradientUnits="userSpaceOnUse"><stop offset="0" stop-color="#2B3B6A"/><stop offset="1" stop-color="#2B3B6A"/></linearGradient><linearGradient id="SVGID_21_" x1="130.48" x2="100.75" y1="409.79" y2="465.57" gradientTransform="translate(-8.0854 -395.13)" gradientUnits="userSpaceOnUse"><stop offset="0" stop-color="#2867A2"/><stop offset=".038" stop-color="#2174B1"/><stop offset=".118" stop-color="#0B86C4"/><stop offset=".208" stop-color="#0A94D2"/><stop offset=".318" stop-color="#0C9BDB"/><stop offset=".5" stop-color="#109EDE"/><stop offset=".682" stop-color="#0C9BDB"/><stop offset=".792" stop-color="#0A94D2"/><stop offset=".882" stop-color="#0B86C4"/><stop offset=".962" stop-color="#2174B1"/><stop offset="1" stop-color="#2867A2"/></linearGradient><linearGradient id="SVGID_22_" x1="132.78" x2="102.8" y1="411.05" y2="467.31" gradientTransform="translate(-8.0854 -395.13)" gradientUnits="userSpaceOnUse"><stop offset="0" stop-color="#2867A2"/><stop offset=".038" stop-color="#2174B1"/><stop offset=".118" stop-color="#0B86C4"/><stop offset=".208" stop-color="#0A94D2"/><stop offset=".318" stop-color="#0C9BDB"/><stop offset=".5" stop-color="#109EDE"/><stop offset=".682" stop-color="#0C9BDB"/><stop offset=".792" stop-color="#0A94D2"/><stop offset=".882" stop-color="#0B86C4"/><stop offset=".962" stop-color="#2174B1"/><stop offset="1" stop-color="#2867A2"/></linearGradient><linearGradient id="SVGID_23_" x1="84.391" x2="92.082" y1="475.02" y2="495.86" gradientTransform="translate(-8.0854 -395.13)" gradientUnits="userSpaceOnUse"><stop offset="0" stop-color="#2B3B6A"/><stop offset="1" stop-color="#2B3B6A"/></linearGradient><linearGradient id="SVGID_24_" x1="98.995" x2="108.05" y1="453.6" y2="509.96" gradientTransform="translate(-8.0854 -395.13)" gradientUnits="userSpaceOnUse"><stop offset="0" stop-color="#2E5284"/><stop offset=".024" stop-color="#2C5C92"/><stop offset=".089" stop-color="#2075B1"/><stop offset=".16" stop-color="#0B86C4"/><stop offset=".24" stop-color="#0A94D2"/><stop offset=".338" stop-color="#0E9CDA"/><stop offset=".5" stop-color="#109EDE"/><stop offset=".672" stop-color="#0C9BDB"/><stop offset=".775" stop-color="#0A94D2"/><stop offset=".86" stop-color="#0B86C4"/><stop offset=".935" stop-color="#2174B1"/><stop offset="1" stop-color="#2C5D95"/></linearGradient></defs><g transform="matrix(.29603 0 0 .29603 -9.1178 -.56219)"><polygon fill="url(#SVGID_1_)" points="91.8 56.5 88.3 63.2 84.7 56.8" class="st1"/><path fill="url(#SVGID_2_)" d="m115.4 58.4c26.1 4.2 29.8 10.7 29.8 10.7v1.2c0 0.2-0.1 0.4-0.2 0.7s-2.7 5.7-19.6 9.3z" class="st2"/><path fill="url(#SVGID_3_)" d="m49.6 79.4c-5.9 15.7-2.9 20.6-2.7 21 0.1 0.2 0.2 0.4 0.4 0.5 0.4 0 0.8-0.1 1.2-0.2 0 0 10.7-0.5 23.2-18.3z" class="st3"/><path fill="url(#SVGID_4_)" d="m88.6 19.5c-14.3-15.6-21.2-14.7-21.6-14.7-0.2 0-0.5 0.1-0.7 0.2-0.5 0.2-1 1.8-1 1.8s-3 8.7 9.1 31.9z" class="st4"/><path fill="url(#SVGID_5_)" d="m101.1 79.8c19.4 22.2 26.2 20.9 26.2 20.9 0.4 0.1 0.9 0.2 1.3 0.2 0.2-0.1 0.3-0.3 0.4-0.5 0.3-0.4 5.8-9.4-12.8-41.8z" class="st5"/><path fill="url(#SVGID_6_)" d="m76 83.2c-40-1.7-44.8-11.7-45-12.2-0.1-0.2-0.2-0.4-0.2-0.7 0.1-0.7 1.5-2 1.5-2s10.6-6.5 28.3-10z" class="st6"/><path fill="url(#SVGID_7_)" d="m87.5 18.3c-5 5.4-9.6 11.2-13.8 17.2h1c3.1-3.9 10.8-13.7 13.4-16.5z" class="st7" enable-background="new" opacity=".4"/><path fill="url(#SVGID_8_)" d="m103.6 36.3c10.5-24.7 6.4-30.3 6.4-30.3-0.1-0.3-0.2-0.7-0.3-1-0.2-0.1-0.4-0.1-0.7-0.2-0.5-0.1-11.4-1.5-34.4 30.7z" class="st8"/><path fill="url(#SVGID_9_)" d="m87.8 98.3c-14.2 15.4-21 14.5-21.4 14.5-0.6-0.2-1.2-0.5-1.7-0.8l-17.3-11c7.3-1.6 16.3-10.2 25.7-21.3z" class="st9"/><path fill="url(#SVGID_10_)" d="m88.4 98.9c-14.2 15.4-21 14.5-21.4 14.5-0.6-0.2-1.2-0.5-1.7-0.8l-17.9-11.6c7.3-1.6 16.9-9.6 26.3-20.7z" class="st10"/><path fill="url(#SVGID_11_)" d="m50.5 38.9c-6.3-16.2-3.2-21.3-3-21.6 0.4-0.5 0.9-0.9 1.4-1.2l17.4-11.1c-1.5 7.1 2.3 18 8.2 30.7z" class="st11"/><path fill="url(#SVGID_12_)" d="m87 58.2c-8.7 0-17.4 0.7-26 1.9 0.3 0.5 4.3 7.2 7.2 11.7 27.8 42.8 40.8 41.1 41.4 41 0.6-0.2 1.2-0.5 1.7-0.8l17.3-11c-11.8-2.6-28.2-21.8-41.6-42.8z" class="st12"/><path fill="url(#SVGID_13_)" d="m49.9 39.5c-6.3-16.2-3.2-21.3-3-21.6 0.4-0.5 0.9-0.9 1.4-1.2l18-11.7c-1.5 7.1 1.7 18.6 7.6 31.2z" class="st13"/><path fill="url(#SVGID_14_)" d="m115.3 60.6c13.5 1.9 24.7 4.7 29.8 9.8v-20.6c0-0.6-0.1-1.3-0.2-1.9-0.1-0.3-2.7-5.6-19-9.1z" class="st14"/><path fill="url(#SVGID_15_)" d="m115.3 59.8c13.5 1.9 24.7 5.5 29.8 10.6v-21.4c0-0.6-0.1-1.3-0.2-1.9-0.1-0.3-2.7-5.6-19-9.1z" class="st15"/><path fill="url(#SVGID_16_)" d="m103.1 36c-3-0.1-9.5-0.4-15.1-0.4-51.1 0-56.7 11.8-57 12.4-0.2 0.6-0.2 1.2-0.2 1.9v20.6c5-5 15.9-7.7 29.2-9.7 8.6-1.2 17.2-1.9 25.9-2h4.8s15.4-22.7 12.4-22.8z" class="st16"/><path fill="url(#SVGID_17_)" d="m73.9 34.4c-10.7 0.5-18.4 1.3-24.8 3.1l0.3 0.8c0.6-0.1 1.3-0.3 1.9-0.4 7.7-1.2 15.4-2 23.1-2.3z" class="st17" enable-background="new" opacity=".2"/><path fill="url(#SVGID_18_)" d="m103.1 35.2c-3-0.1-9.5-0.4-15.1-0.4-51.1 0-56.7 11.8-57 12.4-0.2 0.6-0.2 1.2-0.2 1.9v21.4c5-5 15.9-8.5 29.2-10.5 8.6-1.2 17.2-1.9 25.9-2h4.8c2.3 0 15.4-22.6 12.4-22.8z" class="st18"/><path fill="url(#SVGID_19_)" d="m88 59.7c13.9-20.9 24.2-42.8 21.7-54.7l17.3 11c0.5 0.3 1 0.7 1.4 1.2 0.3 0.5 7.1 11.7-20.7 54.5-2 3.2-3.9 6.9-4.6 7.2-4.1-4-12.6-15.6-14.7-18.5-0.3-0.4-0.4-0.7-0.4-0.7z" class="st19"/><path fill="url(#SVGID_20_)" d="m126.5 38.1c-3.1 7.8-6.8 15.3-11.1 22.4l1.3 0.2c5.5-9.5 8.7-16.5 10.9-22.4z" class="st20" enable-background="new" opacity=".25"/><path fill="url(#SVGID_21_)" d="m108.4 72.3c27.8-42.8 21-54 20.7-54.5-0.4-0.5-0.9-0.9-1.4-1.2l-18-11.6c2.5 11.8-7.4 34.6-21.2 55.5 4.6 7.1 9.4 14 14.5 19.9 1-1.1 3.5-5.2 5.4-8.1z" class="st21"/><path fill="url(#SVGID_22_)" d="m102.5 81.1c0.1-0.1 0.2-0.1 0.2-0.2-5.3-6.3-10.2-12.8-14.7-19.7-0.1 0.1-0.2 0.2-0.2 0.4-0.1 0 9.6 15.3 14.7 19.5z" class="st22"/><path fill="url(#SVGID_23_)" d="m88 99.3c-0.2-0.2-10.5-12.3-15.1-19.4l-0.8 0.9c4.6 6.7 9.7 13.1 15.3 19.2z" class="st23" enable-background="new" opacity=".2"/><path fill="url(#SVGID_24_)" d="m102.7 80.9c-5.3-6.3-10.2-12.8-14.7-19.7-0.5-0.8-1.1-1.6-1.6-2.4-8.7 0-17.4 0.7-26 1.9 0.3 0.5 4.3 7.2 7.2 11.7 27.8 42.8 40.8 41.1 41.4 41 0.6-0.2 1.2-0.5 1.7-0.8l17.9-11.6c-7.3-1.6-16.7-9.4-25.9-20.1z" class="st24"/></g></svg>