<?xml version="1.0" encoding="UTF-8"?>
<svg width="128" height="128" version="1.1" viewBox="0 0 33.865 33.867" xmlns="http://www.w3.org/2000/svg"><g transform="translate(-144.99 -100.38)"><path class="st0" d="m172.42 117.59-6.3946-3.5448h4.3302c3.7663 0 6.8277-3.0614 6.8277-6.8277s-3.0614-6.8378-6.8277-6.8378h-15.126c-4.7231 0-8.5598 3.8367-8.5598 8.5598 0 3.3636 1.8328 6.4652 4.7734 8.0965l6.3946 3.5448h-4.3302c-3.7764 0-6.8378 3.0715-6.8378 6.8378s3.0614 6.8277 6.8277 6.8277h15.126c4.7231 0 8.5598-3.8367 8.5598-8.5598 0.01-3.3636-1.8227-6.4652-4.7633-8.0965zm-19.949-2.3967c-2.2256-1.2386-3.6253-3.5549-3.6856-6.0824-0.0805-3.6353 2.9707-6.6163 6.606-6.6163h14.833c2.5377 0 4.7231 1.9436 4.8438 4.4813 0.13092 2.709-2.0342 4.9546-4.7128 4.9546h-8.5397c-0.52368 0-0.94661 0.42297-0.94661 0.94661v6.9688zm16.002 16.938h-14.833c-2.5377 0-4.7231-1.9436-4.8438-4.4813-0.13092-2.709 2.0342-4.9546 4.7128-4.9546h8.5397c0.52364 0 0.94661-0.42295 0.94661-0.9466v-6.9688l8.3987 4.6525c2.2255 1.2286 3.6152 3.5549 3.6755 6.0824 0.0906 3.6353-2.9606 6.6163-6.5959 6.6163z" fill="#00f782" stroke-width=".1007"/></g></svg>
