<!-- Generated by IcoMoon.io -->
<svg version="1.1" xmlns="http://www.w3.org/2000/svg" width="32" height="32" viewBox="0 0 32 32">
<title>f-droid</title>
<path d="M0.906 0.202v-0c0.235 0.006 0.541 0.164 0.682 0.353l2.417 3.128c0.22-0.077 0.456-0.119 0.703-0.119h22.582c0.247 0 0.483 0.042 0.703 0.119l2.417-3.128c0.141-0.188 0.447-0.346 0.682-0.353 0.007-0 0.018-0 0.024-0 0.487 0 0.882 0.395 0.882 0.882 0 0.17-0.086 0.417-0.192 0.55l-2.54 3.286c0.090 0.236 0.14 0.492 0.14 0.761v4.94c0 1.173-0.944 2.117-2.117 2.117h-22.582c-1.173 0-2.117-0.944-2.117-2.117v-4.94c0-0.268 0.050-0.525 0.14-0.761l-2.539-3.286c-0.106-0.133-0.193-0.38-0.193-0.55 0-0.487 0.395-0.882 0.882-0.882 0.007 0 0.018 0 0.024 0zM9.208 6.211v0c-1.315 0-2.382 1.067-2.382 2.382v0c0 1.315 1.067 2.382 2.382 2.382v0c1.315 0 2.382-1.067 2.382-2.382v0c0-1.315-1.067-2.382-2.382-2.382zM22.969 6.211c-1.315 0-2.382 1.067-2.382 2.382v0c0 1.315 1.067 2.382 2.382 2.382h0c1.315 0 2.382-1.067 2.382-2.382v0c0-1.315-1.067-2.382-2.382-2.382h-0zM4.709 13.441h22.581c1.173 0 2.117 0.944 2.117 2.117v14.113c0 1.173-0.944 2.117-2.117 2.117h-22.581c-1.173 0-2.117-0.944-2.117-2.117v-14.114c0-1.173 0.944-2.117 2.117-2.117zM16 15.206c-4.084 0-7.41 3.325-7.41 7.41s3.325 7.41 7.41 7.41c4.084 0 7.41-3.325 7.41-7.41s-3.325-7.41-7.41-7.41zM16 16.547c3.36 0 6.069 2.709 6.069 6.069s-2.709 6.069-6.069 6.069c-3.36 0-6.069-2.709-6.069-6.069s2.709-6.069 6.069-6.069zM16 18.205l-0 0c-2.033 0-3.754 1.401-4.257 3.282h2.267c0.391-0.695 1.126-1.165 1.99-1.165 1.279 0 2.293 1.014 2.293 2.293s-1.014 2.293-2.293 2.293c-0.923 0-1.702-0.531-2.067-1.305h-2.226c0.453 1.952 2.21 3.422 4.293 3.422 2.423 0 4.411-1.987 4.411-4.411s-1.987-4.411-4.411-4.411z"></path>
</svg>
