<svg version="1.1" xmlns="http://www.w3.org/2000/svg" width="32" height="32" viewBox="0 0 8.4667 8.4667">
<title>Flathub</title>
<g transform="matrix(.064356 0 0 .064728 -137.29 59.508)" style="stroke-width:.77711"><g transform="matrix(.92096 0 0 .92096 1410.7 -1664.7)"><path d="m856.01 830.23-66.764 43.449v34.94l33.382 21.723 33.379-21.723v-5e-3l3e-3 3e-3 33.382 21.726 33.379-21.723v-34.94z" style="color-rendering:auto;color:#000000;image-rendering:auto;isolation:auto;mix-blend-mode:normal;paint-order:normal;shape-rendering:auto;solid-color:#000000;stroke-linecap:square;stroke-width:9.3253;stroke:#000"/><g transform="matrix(.50222 0 0 .50637 429.63 432.9)" style="stroke-width:.58729"><rect transform="matrix(.84019 .54229 -.84019 .54229 0 0)" x="1289.9" y="279.43" width="79.11" height="79.11" rx="0" ry="0" style="color-rendering:auto;color:#000000;image-rendering:auto;isolation:auto;mix-blend-mode:normal;paint-order:normal;shape-rendering:auto;solid-color:#000000;stroke-linecap:square;stroke-linejoin:round;stroke-width:2.4609;stroke:#000"/><path d="m915.47 824.93-5e-5 69-66.468 42.901 5e-5 -69z" style="color-rendering:auto;color:#000000;image-rendering:auto;isolation:auto;mix-blend-mode:normal;paint-order:normal;shape-rendering:auto;solid-color:#000000;stroke-linecap:square;stroke-linejoin:round;stroke-width:2.3492;stroke:#000"/><path d="m783 824.93 5e-5 69 66.468 42.901-5e-5 -69z" style="color-rendering:auto;color:#000000;fill:#fff;image-rendering:auto;isolation:auto;mix-blend-mode:normal;paint-order:normal;shape-rendering:auto;solid-color:#000000;stroke-linecap:square;stroke-linejoin:round;stroke-width:2.3492;stroke:#000"/><rect transform="matrix(.84019 .54229 -.84019 .54229 0 0)" x="1226.3" y="215.81" width="79.11" height="79.11" rx="0" ry="0" style="color-rendering:auto;color:#000000;fill:#fff;image-rendering:auto;isolation:auto;mix-blend-mode:normal;paint-order:normal;shape-rendering:auto;solid-color:#000000;stroke-linecap:square;stroke-linejoin:round;stroke-width:2.4609;stroke:#000"/></g><g transform="matrix(.50222 0 0 .50637 463.01 454.63)" style="stroke-width:.58729"><rect transform="matrix(.84019 .54229 -.84019 .54229 0 0)" x="1289.9" y="279.43" width="79.11" height="79.11" rx="0" ry="0" style="color-rendering:auto;color:#000000;image-rendering:auto;isolation:auto;mix-blend-mode:normal;paint-order:normal;shape-rendering:auto;solid-color:#000000;stroke-linecap:square;stroke-linejoin:round;stroke-width:2.4609;stroke:#000"/><rect transform="matrix(.84019 .54229 -.84019 .54229 0 0)" x="1226.3" y="215.81" width="79.11" height="79.11" rx="0" ry="0" style="color-rendering:auto;color:#000000;fill:#fff;image-rendering:auto;isolation:auto;mix-blend-mode:normal;paint-order:normal;shape-rendering:auto;solid-color:#000000;stroke-linecap:square;stroke-linejoin:round;stroke-width:2.4609;stroke:#000"/><path d="m915.47 824.93-5e-5 69-66.468 42.901 5e-5 -69z" style="color-rendering:auto;color:#000000;image-rendering:auto;isolation:auto;mix-blend-mode:normal;paint-order:normal;shape-rendering:auto;solid-color:#000000;stroke-linecap:square;stroke-linejoin:round;stroke-width:2.3492;stroke:#000"/><path d="m783 826.54 5e-5 69 66.468 42.901-5e-5 -69z" style="color-rendering:auto;color:#000000;fill:#fff;image-rendering:auto;isolation:auto;mix-blend-mode:normal;paint-order:normal;shape-rendering:auto;solid-color:#000000;stroke-linecap:square;stroke-linejoin:round;stroke-width:2.3492;stroke:#000"/></g><g transform="matrix(.50222 0 0 .50637 396.25 454.63)" style="stroke-width:.58729"><rect transform="matrix(.84019 .54229 -.84019 .54229 0 0)" x="1289.9" y="279.43" width="79.11" height="79.11" rx="0" ry="0" style="color-rendering:auto;color:#000000;image-rendering:auto;isolation:auto;mix-blend-mode:normal;paint-order:normal;shape-rendering:auto;solid-color:#000000;stroke-linecap:square;stroke-linejoin:round;stroke-width:2.4609;stroke:#000"/><rect transform="matrix(.84019 .54229 -.84019 .54229 0 0)" x="1226.3" y="215.81" width="79.11" height="79.11" rx="0" ry="0" style="color-rendering:auto;color:#000000;fill:#fff;image-rendering:auto;isolation:auto;mix-blend-mode:normal;paint-order:normal;shape-rendering:auto;solid-color:#000000;stroke-linecap:square;stroke-linejoin:round;stroke-width:2.4609;stroke:#000"/><path d="m915.47 824.93-5e-5 69-66.468 42.901 5e-5 -69z" style="color-rendering:auto;color:#000000;image-rendering:auto;isolation:auto;mix-blend-mode:normal;paint-order:normal;shape-rendering:auto;solid-color:#000000;stroke-linecap:square;stroke-linejoin:round;stroke-width:2.3492;stroke:#000"/><path d="m783 824.93 5e-5 69 66.468 42.901-5e-5 -69z" style="color-rendering:auto;color:#000000;fill:#fff;image-rendering:auto;isolation:auto;mix-blend-mode:normal;paint-order:normal;shape-rendering:auto;solid-color:#000000;stroke-linecap:square;stroke-linejoin:round;stroke-width:2.3492;stroke:#000"/></g></g></g></svg>
