<svg xmlns="http://www.w3.org/2000/svg" width="32" height="32" version="1.1" viewBox="0 0 32 32"><title>flathub</title><path d="M4.233 22.284l-4.233-2.771v-9.036l15.974-10.456 0.703 0.48 15.282 10.019-0.044 8.998-8.466 5.54-0.169-0.102-7.319-4.784-7.495 4.883zM23.387 19.64l-0.022-3.742-6.942-4.545-0.296-0.166 0.010 7.583 7.058 4.607 0.213 0.007-0.022-3.742zM8.423 19.509l-0.001-3.788-7.119-4.656-0.16-0.056v7.529l7.238 4.75 0.042 0.011-0.001-3.788zM28.257 12.337l2.437-1.592-1.233-0.795-5.992-3.929-0.129 0.049-7.126 4.656 0.004 0.042 0.004 0.042 7.199 4.688 4.836-3.161zM12.036 13.17l3.456-2.255 0.206-0.189-7.191-4.707-0.21 0.118-6.994 4.572 0.171 0.171 6.908 4.534 0.199 0.012zM19.591 8.229l3.561-2.328 0-0.042 0-0.042-7.188-4.705-7.2 4.705 0.001 0.042 0.001 0.042 7.15 4.685 0.114-0.029z"/></svg>