<svg version="1.1" xmlns="http://www.w3.org/2000/svg" width="32" height="32" viewBox="0 0 32 32">
<title>i2p</title>
<path d="M16.844 28.96c-0.956 0.459-1.047 0.602-2.218 0.612-1.127-0.030-2.781-0.107-3.261-0.678-0.928-1.147-1.082-0.499-1.108-0.239-0.070 0.7-1.696 1.486-0.707 2.209 0.289 0.212 0.659 0.166 0.998 0.166h2.125c1.094 0 2.221 0.079 3.313-0.004 0.255-0.019 0.385-0.242 0.625-0.249 0.024-0.578 0.049-0.544 0.234-1.817zM16.694 0.937c-0.483-0-0.972 0.051-1.459 0.156-2.746 0.594-4.785 2.715-5.535 5.373-0.658 2.333 0.118 4.906 1.711 6.678 0.419 0.466 0.929 0.881 1.455 1.223 0.233 0.151 0.612 0.302 0.686 0.602 0.082 0.339-0.272 0.859-0.367 1.186-0.364 1.247-1.024 2.424-1.324 3.688l1.125 0.5c0.578-1.096 0.924-2.397 1.348-3.563 0.144-0.397 0.223-1.072 0.598-1.328 0.296-0.201 0.907-0.026 1.242 0.006 0.677 0.064 1.461 0.043 2.125-0.107 3.264-0.736 5.607-3.615 5.748-6.945 0.173-4.106-3.416-7.463-7.352-7.467v0zM19.884 3.933c2.795-0.009 3.5 4.514 0.414 5.17-3.262 0.694-4.276-4.409-1-5.104 0.204-0.043 0.4-0.066 0.586-0.066v0zM13.577 4.16c2.82-0.070 3.541 4.651 0.596 5.105-0.493 0.076-1.159 0.108-1.625-0.092-2.516-1.078-1.871-4.647 0.75-4.992 0.095-0.013 0.188-0.019 0.279-0.021zM18.298 7.654c0.188-0.247 0.339-0.595 0.636-0.729 0.984-0.442 1.531 0.522 1.426 1.354 2.425-0.7 0.882-4.494-1.375-3.366-0.271 0.136-0.511 0.371-0.685 0.616-0.199 0.28-0.328 0.593-0.357 0.938-0.037 0.429 0.162 0.821 0.354 1.188zM12.86 8.466c-0.116-0.508-0.184-0.942 0.211-1.362 0.656-0.697 1.796-0.224 1.914 0.674 0.595-0.589 0.372-1.827-0.198-2.359-0.786-0.733-1.999-0.649-2.681 0.173-0.235 0.282-0.336 0.576-0.386 0.936-0.048 0.348 0.016 0.742 0.161 1.063 0.195 0.427 0.556 0.698 0.978 0.875zM15.423 16.154c-0.53 0.995-0.963 2.286-1.255 3.375-0.085 0.316-0.389 0.729-0.306 1.063 0.2 0.797 1.071 1.409 1.811 1.601 1.396 0.364 3.009 0.471 4.375-0.067 0.242-0.096 0.609-0.181 0.748-0.421 0.129-0.223 0.051-0.554 0.075-0.801 0.062-0.637 0.408-1.157 1.052-1.313 0.001-0.569 0.104-1.17 0.529-1.592 0.244-0.243 0.637-0.384 0.884-0.074 0.609 0.769-0.231 1.73 0.775 2.291 0.86-1.839 1.646-4.695-0.938-5.546-0.327-0.108-0.71-0.289-1.063-0.255-0.641 0.063-1.418 0.892-2.026 1.171-1.389 0.636-3.159 0.93-4.661 0.568zM9.173 20.404c0.199-0.261 0.411-0.449 0.688-0.625-0.123-0.245-0.418-0.406-0.466-0.688-0.103-0.588 0.762-1.308 1.279-1.364 0.274-0.030 0.769 0.317 0.968 0.187 0.157-0.102 0.214-0.409 0.282-0.573 0.194-0.469 0.804-1.623 0.498-2.107-0.363-0.575-1.675 0.233-2.061 0.451-0.853 0.483-1.655 1.076-2.438 1.664-0.241 0.181-0.771 0.501-0.843 0.813-0.077 0.339 0.181 0.636 0.388 0.864 0.479 0.531 1.073 1.040 1.705 1.378zM22.048 20.404l0.063 0.063zM22.113 20.45c-0.532 0.215-0.532 1.699-0.093 2.014 0.242 0.174 1.081-0.041 1.34-0.145 1.468-0.591-0.289-2.256-1.247-1.869zM13.173 22.091c-0.422-0.564-1.371-1.090-2.063-1.221-0.283-0.053-0.761-0.107-0.89 0.224-0.16 0.411 0.246 0.816 0.578 0.976 0.738 0.356 1.619 0.261 2.375 0.021zM22.923 23.341c-1.063 0.2-1.692 0.186-1.938-1-0.744 0.098-1.476 0.488-2.25 0.598-0.256 0.037-0.692-0.061-0.894 0.127-0.319 0.298-0.34 0.876-0.359 1.275-0.014 0.291-0.149 0.583-0.1 0.875 0.108 0.641 0.836 1.324 1.234 1.813 0.287 0.354 0.662 0.894 1.119 1.031 0.515 0.154 1.034-0.291 1.438-0.552 0.576-0.374 1.249-0.839 1.561-1.479 0.146-0.299 0.057-0.739 0.065-1.063 0.013-0.544 0.124-1.079 0.124-1.625zM10.423 23.279c0 0.871-0.032 1.622 0.326 2.438 0.298 0.679 0.685 1.319 1.184 1.875 0.432 0.481 0.927 0.56 1.552 0.563 1.076 0.005 2.108-0.388 2.655-1.375 0.692-1.248 0.224-3.439-1.345-3.832-0.488-0.122-1.48 0.397-1.998 0.506-0.853 0.181-1.549-0.034-2.375-0.174zM23.423 24.654c-0.054 0.424 0.084 1.139-0.093 1.512-0.453 0.953-1.528 1.59-2.407 2.104-0.411 0.24-0.824 0.483-1.313 0.314-1.048-0.363-1.309-1.61-2.188-2.118 0 0.554 0.019 1.043 0.234 1.563 1.099 2.652 4.469 0.74 5.591-0.875 0.464-0.668 0.834-1.842 0.175-2.5v0zM10.423 24.841l0.063 0.063zM10.298 26.279c0.164 0.685 0.694 1.3 1.080 1.878 0.136 0.202 0.282 0.535 0.506 0.65 0.286 0.147 0.724 0.132 1.039 0.17 0.957 0.114 2.079 0.162 3-0.156 0.352-0.122 0.734-0.251 0.917-0.604 0.186-0.359-0.035-0.877-0.105-1.25-0.348 0.37-0.587 0.777-1 1.096-0.889 0.686-2.696 1.11-3.688 0.377-0.777-0.574-1.089-1.519-1.75-2.161zM10.985 26.279l0.063 0.063zM18.048 26.279l0.063 0.063zM17.397 28.982c-0.201 0.852-0.177 0.665-0.335 1.787 0.231 0.070 0.137 0.194 0.423 0.197 1.144 0.014 2.292-0.125 3.438-0.125l2.5-0.063c0.291-0.001 0.783 0.031 1.008-0.189 0.504-0.496-0.079-1.129-0.445-1.453-0.125-0.111-0.418-0.313-0.389-0.508 0.069-0.565-0.101-0.988-0.815-0.056-0.55 0.412-0.713 0.5-1.645 0.836-0.595 0.174-1.562 0.353-2.227 0.238-1.127-0.155-1.128-0.477-1.512-0.665z" />
</svg>
