<svg version="1.1" xmlns="http://www.w3.org/2000/svg" width="32" height="32" viewBox="0 0 32 32">
<title>ios</title>
<path d="M7.864 0h16.271c4.357 0 7.864 3.507 7.864 7.864v16.271c0 4.357-3.508 7.864-7.864 7.864h-16.271c-4.357 0-7.864-3.508-7.864-7.864v-16.271c0-4.357 3.507-7.864 7.864-7.864zM3.704 21.961h2.053v-8.738h-2.053zM4.726 12.076c0.643 0 1.146-0.495 1.146-1.113 0-0.627-0.503-1.121-1.146-1.121-0.635 0-1.138 0.495-1.138 1.121 0 0.618 0.503 1.113 1.138 1.113zM12.591 9.867c-3.471 0-5.647 2.366-5.647 6.15s2.176 6.142 5.647 6.142c3.462 0 5.639-2.358 5.639-6.142s-2.176-6.15-5.639-6.15zM12.591 11.681c2.119 0 3.471 1.682 3.471 4.336 0 2.646-1.352 4.328-3.471 4.328-2.127 0-3.471-1.682-3.471-4.328 0-2.655 1.344-4.336 3.471-4.336zM19.096 18.614c0.091 2.193 1.888 3.545 4.625 3.545 2.877 0 4.691-1.418 4.691-3.677 0-1.772-1.022-2.77-3.438-3.322l-1.368-0.313c-1.459-0.346-2.061-0.808-2.061-1.599 0-0.989 0.907-1.649 2.251-1.649 1.36 0 2.292 0.668 2.391 1.781h2.028c-0.049-2.094-1.781-3.512-4.402-3.512-2.589 0-4.427 1.426-4.427 3.537 0 1.698 1.039 2.754 3.232 3.256l1.542 0.363c1.5 0.355 2.111 0.849 2.111 1.706 0 0.989-0.997 1.698-2.432 1.698-1.451 0-2.547-0.717-2.679-1.814h-2.061z" />
</svg>
