<svg xmlns="http://www.w3.org/2000/svg" width="32" height="32" version="1.1" viewBox="0 0 32 32"><title>linux</title><path d="M28.243 25.236l-0-0c0.694 0.775 0.994 1.344 0.969 1.856-0.031 0.512-0.406 0.863-0.869 1.144-0.931 0.562-2.331 0.987-3.181 2.012-0.887 1.056-1.981 1.662-3.019 1.744-1.031 0.081-2-0.394-2.519-1.437v-0.006c-0.069-0.131-0.119-0.275-0.156-0.419-1.344 0.075-2.512-0.331-3.443-0.256-1.375 0.075-2.237 0.406-3.019 0.412-0.3 0.662-0.894 1.1-1.619 1.262-1 0.231-2.256 0-3.493-0.65-1.156-0.612-2.625-0.556-3.706-0.781-0.544-0.113-1.019-0.312-1.256-0.769-0.231-0.456-0.188-1.081 0.137-1.981 0.106-0.319 0.025-0.794-0.050-1.3-0.037-0.244-0.075-0.494-0.075-0.738 0-0.269 0.044-0.531 0.175-0.775 0.281-0.531 0.737-0.756 1.156-0.906s0.8-0.25 1.062-0.519c0.325-0.344 0.631-0.9 1.037-1.262-0.162-1.075 0.013-2.212 0.388-3.331 0.787-2.369 2.45-4.637 3.631-6.043 1.006-1.431 1.3-2.581 1.406-4.043 0.069-1.987-1.531-8.462 4.868-8.449 5.056 0.006 4.768 5.337 4.737 8.206-0.019 1.881 1.019 3.156 2.087 4.5 0.95 1.125 2.194 2.769 2.906 4.65 0.581 1.538 0.806 3.237 0.231 4.943 0.087 0.031 0.175 0.075 0.256 0.125 0.087 0.050 0.169 0.113 0.25 0.181 0.412 0.35 0.544 0.894 0.656 1.4 0.119 0.506 0.225 0.981 0.45 1.231zM15.975 5.455h0c-0.2 0.45-0.244 0.931-0.181 1.362 0.225 0.056 0.556 0.15 0.812 0.275-0.131-0.762 0.281-1.469 0.737-1.437 0.556 0.019 0.869 0.969 0.569 1.706-0.050 0.119-0.175 0.213-0.244 0.287 0.419 0.144 0.687 0.256 0.787 0.306 0.494-0.594 0.675-1.637 0.269-2.525-0.613-1.337-2.137-1.362-2.75 0.025zM13.432 4.737l0 0c-1.181 0-1.5 2.343-0.525 3.256 0.487-0.356 0.431-0.294 0.369-0.344-0.5-0.431-0.412-1.712 0.113-1.756 0.394-0.031 0.675 0.669 0.6 1.225 0.194-0.131 0.419-0.225 0.637-0.287 0.106-1.206-0.562-2.094-1.194-2.094zM12.661 8.977v-0c-0.292 0.26 0.177 0.674 0.577 0.94 0.488 0.287 0.75 0.719 1.25 0.937 0.162 0.069 0.356 0.119 0.6 0.131 1.15 0.069 1.694-0.706 2.387-0.931 0.571-0.183 1.738-1.066 0.762-1.382-0.706-0.306-1.019-0.325-1.412-0.581-0.644-0.412-1.175-0.556-1.619-0.556-0.9 0-1.451 0.611-1.744 0.887-0.032 0.030-0.415 0.267-0.802 0.555zM12.382 29.064l-0 0c0.131-1.281-1.562-2.182-2.156-3.425l-1.225-2.225c-0.425-0.575-0.862-0.925-1.369-1-0.481-0.075-0.762 0.088-1.081 0.431-0.3 0.319-0.55 0.769-0.894 1.125-0.487 0.406-0.217 0.207-0.86 0.438-0.394 0.137-0.605-0.074-0.823 0.345-0.169 0.312-0.131 0.762-0.056 1.25 0.075 0.494 0.188 1.019 0.038 1.494v0.012c-0.313 0.856-0.313 1.175-0.163 1.469 0.494 0.962 2.421 0.065 4.29 1.053 1.962 1.025 4.131 1.227 4.299-0.967zM12.7 27.31h-0c2.35 1.606 5.137 0.981 7.143-0.45 0.2-0.688 0.394-0.857 0.425-1.338 0.050-0.95 0.1-1.794 0.275-2.494 0.194-0.787 0.581-1.444 1.337-1.706 0.144-1.319 1.169-1.319 2.394-0.781 0.484 0.055 1.15 0.868-1.519-0.231-0.331-1.819-1.094-3.932-1.475-4.644-0.719-1.337-1.844-3.857-2.325-5.757-0.281 0.4-0.775 0.744-1.394 0.937-0.294 0.094-0.606 0.344-0.994 0.563-0.869 0.5-1.875 0.55-2.65-0.075-0.281-0.225-0.5-0.475-0.787-0.644-0.1-0.056-0.319-0.206-0.387-0.256-0.125 2.362-1.706 5.107-2.456 6.82-0.519 1.231-0.825 3.747-0.862 5.040-3.128-2.811 0.7-8.977-0.975-1.747 0.219 0.7 0.694 1.344 1.537 1.869 0 0 1.55 0.894 2.394 2.031 0.462 0.625 0.606 1.169 0.462 1.556-0.156 0.419-0.6 0.556-1.044 0.556 0.3 0.375 0.35 0.4 0.9 0.751zM28.168 27.099h0c0.101-0.591-0.424-1.084-0.751-1.523-0.625-0.706-0.444-1.889-1.061-2.422-0.433-0.373-0.394-0.519-0.907-0.544-0.481 0.55-1.612 1.225-2.4 1.019-0.719-0.181-1.125-0.643-1.175-1.468-0.019 0.012-0.044 0.019-0.063 0.031-0.444 0.244-0.311 0.299-0.473 0.943-0.156 0.637-0.213 1.469-0.262 2.419-0.044 0.738-0.387 1.65-0.619 2.537-0.219 0.825-0.407 1.105-0.113 1.799 0.45 0.906 0.864 1.271 1.751 1.202s1.791-0.682 2.616-1.663c1.375-1.662 3.4-1.279 3.456-2.329z"/></svg>