<svg xmlns="http://www.w3.org/2000/svg" width="32" height="32" version="1.1" viewBox="0 0 32 32"><title>macos</title><path d="M1.395 3.395h29.209c0.773 0 1.395 0.622 1.395 1.395v22.419c0 0.773-0.622 1.395-1.395 1.395h-29.209c-0.773 0-1.395-0.622-1.395-1.395v-22.419c0-0.773 0.622-1.395 1.395-1.395zM18.791 4.93l-0 0.001c-2.282 1.377-3.375 5.024-4.791 12.838h4.791v2.399h0.001v2.506c1.405-0.35 3.070-1.034 4.641-2.352 0.124-0.101 0.273-0.15 0.422-0.151 0.19-0 0.379 0.080 0.509 0.236 0.238 0.277 0.198 0.693-0.079 0.93-1.873 1.566-3.868 2.327-5.492 2.692v2.443c0.018 0.334 0.293 0.598 0.632 0.598h10.642c0.351 0 0.633-0.282 0.633-0.633v-20.876c0-0.351-0.282-0.633-0.633-0.633h-11.274zM7.889 8.511c-0.412 0-0.744 0.332-0.744 0.744v2.977c0 0.412 0.332 0.744 0.744 0.744s0.744-0.332 0.744-0.744v-2.977c0-0.412-0.332-0.744-0.744-0.744zM8.148 20.17h0c-0.19-0-0.38 0.080-0.514 0.236-0.231 0.277-0.198 0.693 0.086 0.93 1.082 0.904 4.052 3.009 8.282 3.009 0.231 0 0.528-0.006 0.873-0.035v-1.32c-0.039 0.003-0.077 0.006-0.114 0.009-0.297 0.020-0.554 0.026-0.759 0.026-3.801 0-6.467-1.887-7.437-2.706-0.121-0.101-0.269-0.15-0.417-0.151zM24.113 8.511c0.412 0 0.744 0.332 0.744 0.744v2.977c0 0.412-0.332 0.744-0.744 0.744s-0.744-0.332-0.744-0.744v-2.977c0-0.412 0.332-0.744 0.744-0.744z"/></svg>