<svg xmlns="http://www.w3.org/2000/svg" width="32" height="32" version="1.1" viewBox="0 0 32 32"><title>mix</title><path d="M-0 0.251l32 0.003v17.788c0 1.732-1.438 3.135-3.21 3.135s-3.211-1.404-3.211-3.135v-1.596c0-1.732-1.438-3.135-3.21-3.135-1.627 0-2.972 1.182-3.182 2.716v4.857c-0.001 1.733-1.432 3.138-3.198 3.138s-3.198-1.405-3.198-3.139v-12.283c0-1.734-1.432-3.139-3.198-3.139-1.684 0-3.063 1.278-3.187 2.899l-0.002 20.253c0 1.732-1.434 3.135-3.202 3.135s-3.202-1.404-3.202-3.135v-28.363z"/></svg>