<svg xmlns="http://www.w3.org/2000/svg" width="32" height="32" version="1.1" viewBox="0 0 32 32"><title>netbsd</title><path d="M6.179 5.366c0 0-0.091-0.211-0.347-0.070-0.213 0.118-0.102 0.337-0.102 0.337l4.005 8.469h0.972l-4.527-8.735zM17.547 27.305l-3.030-5.847h-1.305l3.044 6.435s0.307 0.606 0.965 0.271c0.658-0.335 0.326-0.859 0.326-0.859zM28.715 4.786c-3.797-1.822-7.233-0.952-11.075 0.198-3.868 1.157-7.309 1.783-11.174 0.206 0.421 0.752 0.632 1.129 1.053 1.88 0.387 0.692 0.774 1.383 1.161 2.074 0.421 0.752 0.632 1.128 1.053 1.88 3.078 0.87 5.626-0.258 8.361-1.625 3.284-1.641 6.25-3.117 10.003-2.262-3.171-1.588-6.045-1.194-9.361-0.295 3.246-1.653 6.302-2.938 9.98-2.057zM6.229 18.304c0 0.634 0 1.249 0.019 1.571-0.068 0.117-0.341 0.224-0.575 0.224-0.010 0-0.332-0.498-0.79-1.064l-2.254-2.791c-0.556-0.703-0.888-1.102-1.063-1.249-0.049 0.097-0.049 0.263-0.049 0.624v1.893c0 0.79 0.039 1.522 0.146 1.786 0.088 0.205 0.312 0.263 0.566 0.312l0.273 0.039c0.078 0.078 0.059 0.283 0 0.341-0.527-0.019-0.917-0.029-1.307-0.029-0.361 0-0.722 0.010-1.092 0.029-0.059-0.058-0.078-0.263 0-0.341l0.166-0.029c0.263-0.059 0.449-0.117 0.536-0.322 0.098-0.264 0.137-0.995 0.137-1.786v-2.479c0-0.536 0-0.692-0.068-0.829-0.068-0.166-0.215-0.264-0.556-0.332l-0.273-0.039c-0.068-0.078-0.059-0.312 0.039-0.341 0.459 0.019 0.946 0.029 1.346 0.029 0.332 0 0.615-0.010 0.819-0.029 0.098 0.439 0.732 1.18 1.61 2.225l0.819 0.966c0.439 0.507 0.712 0.849 0.937 1.073 0.039-0.098 0.039-0.264 0.039-0.439v-1.347c0-0.79-0.039-1.522-0.146-1.786-0.088-0.205-0.302-0.263-0.566-0.312l-0.263-0.039c-0.078-0.078-0.058-0.283 0-0.341 0.527 0.019 0.907 0.029 1.307 0.029 0.361 0 0.712-0.010 1.093-0.029 0.059 0.058 0.078 0.263 0 0.341l-0.176 0.029c-0.254 0.059-0.439 0.117-0.527 0.322-0.107 0.263-0.146 0.995-0.146 1.786v2.332zM8.566 15.923l0 0c1.014 0 1.561 0.654 1.561 1.405 0 0.185-0.049 0.322-0.351 0.322h-1.873c-0.224 0-0.244 0.019-0.244 0.175 0 0.732 0.468 1.444 1.376 1.444 0.273 0 0.644-0.058 0.907-0.507 0.107-0.019 0.254 0.059 0.254 0.224-0.4 0.83-1.122 1.113-1.707 1.113-1.317 0-2.029-0.927-2.029-1.991 0-1.23 0.888-2.186 2.107-2.186zM8.467 16.363c-0.342-0.004-0.766 0.432-0.728 0.723 0.026 0.198 0.338 0.137 0.714 0.137 0.349 0 0.608 0.001 0.568-0.371-0.021-0.199-0.099-0.445-0.521-0.487-0.011-0.001-0.022-0.002-0.033-0.002zM12.050 16.587c-0.127 0-0.137 0.010-0.137 0.224v1.463c0 0.547 0 1.152 0.683 1.152 0.137 0 0.293-0.068 0.41-0.146 0.097 0.029 0.156 0.136 0.136 0.253-0.273 0.293-0.8 0.566-1.405 0.566-0.81 0-1.093-0.468-1.093-1.113v-2.175c0-0.205-0.010-0.224-0.185-0.224h-0.302c-0.107-0.040-0.137-0.234-0.059-0.303 0.302-0.107 0.576-0.283 0.81-0.439 0.176-0.127 0.42-0.331 0.722-0.761 0.068-0.039 0.244-0.029 0.293 0.049v0.732c0 0.185 0.010 0.195 0.185 0.195h0.868c0.049 0.039 0.078 0.098 0.078 0.186 0 0.107-0.029 0.283-0.127 0.342h-0.878zM16.003 13.493l-0-0c0.936 0 1.561 0.108 1.99 0.361 0.42 0.254 0.673 0.664 0.673 1.239 0 0.82-0.692 1.142-0.995 1.22-0.098 0.019-0.195 0.058-0.195 0.107 0 0.029 0.049 0.058 0.137 0.078 0.771 0.166 1.424 0.673 1.434 1.619 0.010 0.898-0.527 1.425-1.141 1.64s-1.346 0.244-1.941 0.244c-0.351 0-0.722-0.039-1.005-0.039-0.478 0-0.956 0.010-1.512 0.029-0.078-0.058-0.078-0.312 0-0.341l0.283-0.059c0.439-0.088 0.498-0.156 0.498-1.034v-3.444h-0c0-0.985-0.020-1.092-0.429-1.141l-0.263-0.039c-0.088-0.049-0.107-0.341 0.039-0.351 0.742-0.049 1.454-0.088 2.429-0.088zM15.903 13.908v0c-0.111 0-0.227 0.010-0.351 0.030-0.081 0.888-0.069 1.706 0.042 2.396 2.265 0.384 2.221-2.43 0.309-2.426zM16.082 16.741c-0.153 0.001-0.317 0.020-0.493 0.062-0.056 0.961-0.165 2.251 0.189 2.652 2.27 0.468 2.326-2.725 0.304-2.714v0zM21.175 20.118c-0.897 0-1.453-0.254-1.658-0.371-0.185-0.215-0.312-0.917-0.312-1.581 0.068-0.127 0.293-0.137 0.371-0.029 0.195 0.634 0.849 1.532 1.678 1.532 0.722 0 1.054-0.498 1.054-0.985 0-0.79-0.741-1.259-1.327-1.551-0.702-0.352-1.463-0.937-1.473-1.903 0-1.102 0.849-1.864 2.263-1.864 0.322 0 0.722 0.039 1.112 0.156 0.127 0.039 0.214 0.058 0.332 0.078 0.078 0.215 0.176 0.742 0.176 1.395-0.049 0.117-0.293 0.127-0.381 0.030-0.166-0.498-0.586-1.21-1.288-1.21-0.644 0-0.995 0.42-0.995 0.907 0 0.449 0.4 0.859 0.887 1.112l0.644 0.342c0.605 0.322 1.376 0.888 1.376 1.961 0 1.2-0.986 1.981-2.459 1.981zM26.36 13.493h0c0.8 0 1.6 0.079 2.273 0.322 1.278 0.459 1.98 1.61 1.98 2.829 0 1.308-0.624 2.362-1.746 2.918-0.663 0.332-1.464 0.458-2.468 0.458-0.458 0-0.947-0.059-1.297-0.059-0.468 0-0.966 0.010-1.522 0.030-0.078-0.058-0.078-0.293 0-0.341l0.302-0.049c0.439-0.078 0.498-0.146 0.498-1.044v-3.454c0-0.927-0.020-1.112-0.468-1.161l-0.185-0.019c-0.097-0.049-0.097-0.332 0.020-0.342 0.819-0.049 1.58-0.088 2.614-0.088zM26.41 13.935v-0c-0.317-0.002-0.541 0.056-0.583 0.143-0.167 0.349-0.077 1.628-0.077 2.706 0 0.609-0.049 1.765 0.123 2.232 0.148 0.401 1.010 0.523 1.519 0.317 0.908-0.243 1.672-1.068 1.672-2.549s-0.706-2.379-1.657-2.681c-0.365-0.117-0.717-0.166-0.997-0.168zM30.248 14.242c0-0.242 0.086-0.448 0.257-0.619s0.378-0.257 0.62-0.257 0.448 0.086 0.619 0.257c0.171 0.171 0.256 0.377 0.256 0.619s-0.086 0.448-0.256 0.62c-0.171 0.171-0.377 0.257-0.619 0.257s-0.448-0.086-0.62-0.257c-0.172-0.171-0.257-0.378-0.257-0.62zM31.856 14.242c0-0.202-0.071-0.375-0.214-0.518s-0.315-0.214-0.518-0.214c-0.202 0-0.375 0.071-0.518 0.214s-0.215 0.316-0.215 0.518c0 0.202 0.072 0.375 0.215 0.518s0.316 0.215 0.518 0.215c0.203 0 0.375-0.072 0.518-0.215s0.214-0.316 0.214-0.518zM31.396 14.77l-0.275-0.464h-0.156v0.464h-0.153v-1.077h0.276c0.259 0 0.389 0.099 0.389 0.298 0 0.138-0.070 0.236-0.209 0.293l0.295 0.486h-0.168zM30.966 13.823v0.36c0.013 0.002 0.047 0.002 0.101 0.002 0.1 0 0.167-0.013 0.202-0.038s0.052-0.075 0.052-0.147c0-0.119-0.078-0.179-0.233-0.179h-0.061l-0.061 0.001z"/></svg>