<svg xmlns="http://www.w3.org/2000/svg" width="32" height="32" version="1.1" viewBox="0 0 32 32"><title>openbsd</title><path d="M14.802 1.101l-0 0c0.406 0 0.949 1.916 1.135 2.619 0.747 0.066 1.485 0.2 2.208 0.401 0.407-0.701 1.337-2.218 1.707-2.119 0.416 0.111 0.423 2.343 0.418 2.94 0.555 0.283 1.048 0.583 1.595 0.954 0.599-0.592 1.822-1.737 2.144-1.552 0.409 0.236-0.31 2.786-0.384 3.042 0.38 0.394 0.718 0.795 1.080 1.272 0.755-0.426 2.136-1.15 2.389-0.897 0.351 0.351-1.132 2.883-1.132 2.883 0.467 0.884 0.895 2.306 1.071 3.846h0.69c0.304-1.445 0.336-3.98 2.265-3.993 1.262 0.010 2.234 2.543 1.968 4.175-1.745-3.7-2.628-0.96-2.619 1.33-0.009 2.29 0.879 5.021 2.619 1.33 0.27 1.658-0.695 4.11-1.968 4.174-1.635 0-1.643-1.472-2.167-3.555h-0.841c-0.174 1.041-0.605 2.306-1.070 3.407 0 0 1.535 2.532 1.184 2.883-0.253 0.253-1.634-0.471-2.389-0.897-0.331 0.448-0.692 0.873-1.081 1.272 0.073 0.256 0.792 2.806 0.384 3.042-0.321 0.186-1.545-0.96-2.144-1.552-0.507 0.358-1.040 0.677-1.595 0.954 0.005 0.597-0.002 2.829-0.418 2.94-0.37 0.099-1.3-1.418-1.707-2.119-0.722 0.2-1.461 0.334-2.208 0.401-0.186 0.703-0.73 2.619-1.135 2.619-0.404 0-0.946-1.904-1.134-2.613-0.668-0.064-1.449-0.221-2.209-0.407-0.407 0.701-1.337 2.218-1.707 2.119-0.416-0.111-0.423-2.343-0.418-2.94-0.544-0.288-1.057-0.589-1.595-0.954-0.599 0.592-1.822 1.738-2.144 1.552-0.409-0.236 0.31-2.786 0.384-3.042-0.376-0.392-0.721-0.807-1.080-1.272-0.754 0.426-2.136 1.15-2.389 0.897-0.351-0.351 1.184-2.883 1.184-2.883-0.36-0.804-0.704-1.88-0.978-2.892l-0.9 0.519c-0.573 0.331-1.301 0.136-1.632-0.437s-0.136-1.301 0.437-1.632l1.705-0.985-1.729-0.998c-0.573-0.331-0.768-1.059-0.437-1.632 0.217-0.376 0.605-0.589 1.008-0.598 0.545-0.006 1.081 0.456 1.575 0.71 0.202-0.883 0.567-1.846 0.949-2.771 0 0-1.535-2.531-1.184-2.883 0.253-0.253 1.634 0.471 2.389 0.897 0.323-0.396 0.672-0.854 1.080-1.272-0.073-0.256-0.792-2.806-0.384-3.042 0.321-0.186 1.545 0.96 2.144 1.552 0.477-0.304 1.017-0.654 1.595-0.954-0.005-0.597 0.002-2.829 0.418-2.94 0.37-0.099 1.3 1.418 1.707 2.119 0.609-0.159 1.451-0.303 2.209-0.407 0.188-0.709 0.729-2.613 1.134-2.613zM20.707 9.971h-0c-0.593 0.016-2.325 1.066-2.325 1.066l1.465 1.466s1.324-2.184 1.021-2.487c-0.033-0.033-0.089-0.047-0.162-0.045zM7.21 11.739h-0c-0.253 0.388-0.389 0.841-0.39 1.304 0 1.32 1.070 2.389 2.389 2.389s2.389-1.070 2.389-2.389c-0-0.463-0.135-0.916-0.388-1.304h-4.001zM20.491 15.12v2.073s2.481-0.608 2.481-1.036c0-0.429-2.481-1.036-2.481-1.036v0zM19.097 19.499l-1.466 1.465s2.184 1.324 2.487 1.021c0.303-0.303-1.021-2.487-1.021-2.487zM8.5 12.475c0.399 0 0.723 0.324 0.723 0.723s-0.324 0.723-0.723 0.723c-0.399 0-0.723-0.324-0.723-0.723s0.324-0.723 0.723-0.723v0z"/></svg>