<svg clip-rule="evenodd" fill-rule="evenodd" stroke-linejoin="round" stroke-miterlimit="2" version="1.1" viewBox="0 0 9600 9600" xml:space="preserve" xmlns="http://www.w3.org/2000/svg">
<title>privacyguides</title>
<g transform="matrix(173.35 0 0 173.35 -1732.7 -1580.4)">
<path d="m18.466 16.31c-0.187 0.628-0.082 1.363 0.128 2.831l2.659 18.614c0.46 3.216 0.689 4.823 1.298 6.26 0.539 1.274 1.294 2.445 2.232 3.461 1.059 1.147 2.429 2.018 5.169 3.762l3.896 2.479c1.868 1.189 2.802 1.783 3.806 2.015 0.772 0.178 1.57 0.201 2.349 0.069-0.644-1.471-1.001-3.095-1.001-4.804 0-6.627 5.373-12 12-12 1.934 0 3.761 0.458 5.379 1.27 0.113-0.717 0.231-1.541 0.37-2.512l2.659-18.614c0.21-1.468 0.315-2.203 0.128-2.831-0.164-0.554-0.485-1.049-0.923-1.425-0.498-0.427-1.212-0.63-2.638-1.038l-15.656-4.473c-0.491-0.14-0.736-0.21-0.986-0.238-0.221-0.025-0.444-0.025-0.666 0-0.249 0.028-0.495 0.098-0.985 0.238l-15.657 4.473c-1.426 0.408-2.14 0.611-2.637 1.038-0.439 0.376-0.76 0.871-0.924 1.425z" fill-opacity=".31"/>
<path d="m32.836 13.626c0.11-0.012 0.222-0.012 0.333 0 0.096 0.011 0.202 0.037 0.74 0.19l15.656 4.473c0.735 0.211 1.206 0.346 1.558 0.476 0.335 0.125 0.455 0.207 0.515 0.259 0.22 0.188 0.38 0.435 0.462 0.712 0.023 0.077 0.049 0.22 0.026 0.577-0.024 0.375-0.092 0.859-0.201 1.616l-2.233 15.631c-6.841 0.659-12.19 6.423-12.19 13.437 0 1.385 0.209 2.721 0.596 3.979l-0.747 0.476c-1.963 1.249-2.645 1.658-3.337 1.818-0.666 0.154-1.357 0.154-2.023 0-0.693-0.16-1.375-0.569-3.337-1.818l-3.896-2.479c-2.808-1.787-3.977-2.545-4.872-3.515-0.821-0.889-1.482-1.913-1.954-3.028-0.514-1.215-0.723-2.593-1.194-5.887l-2.659-18.614c-0.108-0.757-0.176-1.241-0.201-1.616-0.023-0.357 3e-3 -0.5 0.026-0.577 0.082-0.277 0.243-0.524 0.462-0.712 0.061-0.052 0.181-0.134 0.515-0.259 0.353-0.13 0.823-0.265 1.558-0.476l15.657-4.473c0.537-0.153 0.644-0.179 0.74-0.19zm22.067 8.675-2.187 15.304c6.647 0.842 11.786 6.517 11.786 13.392 0 7.456-6.044 13.5-13.5 13.5-4.992 0-9.351-2.71-11.687-6.739l-0.353 0.225-0.223 0.141c-1.651 1.053-2.792 1.779-4.051 2.07-1.109 0.255-2.262 0.255-3.371 0-1.259-0.291-2.4-1.017-4.052-2.07l-0.222-0.141-4.089-2.602c-2.556-1.627-4.081-2.597-5.273-3.888-1.055-1.143-1.905-2.46-2.511-3.893-0.686-1.618-0.941-3.407-1.369-6.406l-2.699-18.893c-0.099-0.69-0.184-1.289-0.217-1.793-0.035-0.535-0.021-1.073 0.143-1.625 0.246-0.831 0.728-1.573 1.386-2.137 0.437-0.374 0.922-0.607 1.425-0.794 0.473-0.175 1.056-0.341 1.725-0.533l0.051-0.014 15.656-4.473 0.083-0.024c0.41-0.117 0.771-0.221 1.148-0.263 0.333-0.037 0.668-0.037 1 0 0.378 0.042 0.739 0.146 1.148 0.263l0.083 0.024 15.707 4.487c0.67 0.192 1.252 0.358 1.726 0.533 0.502 0.187 0.988 0.42 1.425 0.794 0.658 0.564 1.139 1.306 1.386 2.137 0.163 0.552 0.178 1.09 0.143 1.625-0.033 0.504-0.119 1.103-0.217 1.792v1e-3zm-3.901 18.196c-5.799 0-10.5 4.701-10.5 10.5s4.701 10.5 10.5 10.5 10.5-4.701 10.5-10.5-4.701-10.5-10.5-10.5zm7.152 6.961c0.531-0.637 0.445-1.583-0.192-2.113-0.636-0.53-1.582-0.445-2.112 0.192l-6.449 7.738-3.338-3.339c-0.586-0.585-1.536-0.585-2.121 0-0.586 0.586-0.586 1.536 0 2.122l4.5 4.5c0.298 0.298 0.707 0.457 1.128 0.438s0.815-0.215 1.084-0.538l7.5-9zm-32.652-17.461c0-4.142 3.358-7.5 7.5-7.5s7.5 3.358 7.5 7.5c0 2.454-1.178 4.632-3 6.001v5.999c0 2.486-2.014 4.5-4.5 4.5-2.485 0-4.5-2.014-4.5-4.5v-5.999c-1.821-1.369-3-3.547-3-6.001zm9 7.5h-3v4.5c0 0.829 0.672 1.5 1.5 1.5 0.829 0 1.5-0.671 1.5-1.5v-4.5zm-1.5-3c2.486 0 4.5-2.014 4.5-4.5 0-2.485-2.014-4.5-4.5-4.5-2.485 0-4.5 2.015-4.5 4.5 0 2.486 2.015 4.5 4.5 4.5z"/>
</g>
</svg>
