<svg version="1.1" xmlns="http://www.w3.org/2000/svg" width="32" height="32" viewBox="0 0 32 32">
<title>privacyguides</title>
<path d="M13.198 2.605c-0.055 0.006-0.117 0.021-0.428 0.11l-9.047 2.585c-0.425 0.122-0.696 0.2-0.9 0.275-0.193 0.072-0.262 0.12-0.298 0.15-0.127 0.109-0.22 0.251-0.267 0.411-0.013 0.045-0.028 0.127-0.015 0.333 0.014 0.217 0.054 0.496 0.116 0.934l1.536 10.756c0.272 1.903 0.393 2.7 0.69 3.402 0.273 0.644 0.655 1.236 1.129 1.75 0.517 0.561 1.193 0.998 2.815 2.031l2.251 1.432c1.134 0.722 1.528 0.958 1.928 1.050 0.385 0.089 0.784 0.089 1.169 0 0.4-0.092 0.794-0.329 1.928-1.050l0.432-0.275c-0.224-0.727-0.344-1.499-0.344-2.299 0-4.053 3.091-7.383 7.044-7.764l1.29-9.032c0.063-0.437 0.102-0.717 0.116-0.934 0.013-0.206-0.002-0.289-0.015-0.333-0.047-0.16-0.14-0.303-0.267-0.411-0.035-0.030-0.104-0.077-0.298-0.15-0.203-0.075-0.476-0.153-0.9-0.275l-9.046-2.585c-0.311-0.088-0.372-0.103-0.428-0.11-0.064-0.007-0.129-0.007-0.192 0zM25.949 7.618v-0.001c0.057-0.398 0.106-0.744 0.125-1.035 0.020-0.309 0.012-0.62-0.083-0.939-0.143-0.48-0.421-0.909-0.801-1.235-0.253-0.216-0.533-0.351-0.823-0.459-0.274-0.101-0.61-0.197-0.997-0.308l-9.124-2.607c-0.236-0.068-0.445-0.128-0.663-0.152-0.192-0.021-0.385-0.021-0.578 0-0.218 0.024-0.426 0.084-0.663 0.152l-9.124 2.607c-0.387 0.111-0.723 0.207-0.997 0.308-0.291 0.108-0.571 0.243-0.823 0.459-0.38 0.326-0.659 0.755-0.801 1.235-0.095 0.319-0.103 0.63-0.083 0.939 0.019 0.291 0.068 0.637 0.125 1.036l1.56 10.917c0.247 1.733 0.395 2.767 0.791 3.702 0.35 0.828 0.841 1.589 1.451 2.249 0.689 0.746 1.57 1.306 3.047 2.247l2.491 1.585c0.955 0.608 1.614 1.028 2.341 1.196 0.641 0.147 1.307 0.147 1.948 0 0.727-0.168 1.387-0.588 2.341-1.196l0.129-0.081 0.204-0.13c1.35 2.328 3.869 3.894 6.753 3.894 4.308 0 7.801-3.492 7.801-7.801 0-3.973-2.969-7.252-6.81-7.738l1.264-8.843zM23.695 18.132c3.351 0 6.067 2.716 6.067 6.067s-2.716 6.067-6.067 6.067c-3.351 0-6.067-2.716-6.067-6.067s2.716-6.067 6.067-6.067zM27.827 22.154l-4.334 5.2c-0.155 0.187-0.383 0.3-0.626 0.311s-0.48-0.081-0.652-0.253l-2.6-2.6c-0.339-0.339-0.339-0.888 0-1.226s0.887-0.338 1.226 0l1.929 1.929 3.726-4.471c0.306-0.368 0.853-0.417 1.22-0.111s0.418 0.853 0.111 1.221zM8.96 12.065c0 1.418 0.681 2.676 1.733 3.468v3.466c0 1.436 1.164 2.6 2.6 2.6s2.6-1.164 2.6-2.6v-3.466c1.053-0.791 1.733-2.050 1.733-3.468 0-2.393-1.94-4.334-4.334-4.334s-4.334 1.94-4.334 4.334zM14.16 16.399v2.6c0 0.479-0.388 0.867-0.867 0.867s-0.867-0.388-0.867-0.867v-2.6h1.733zM13.294 14.665c-1.436 0-2.6-1.164-2.6-2.6s1.164-2.6 2.6-2.6c1.436 0 2.6 1.164 2.6 2.6s-1.164 2.6-2.6 2.6z" />
</svg>
