<svg xmlns="http://www.w3.org/2000/svg" width="32" height="32" version="1.1" viewBox="0 0 32 32"><title>qubes-os</title><path d="M23.213 12.32v6.738c-0.001 0.491-0.266 0.917-0.661 1.146l-5.822 3.371c-0.396 0.229-0.927 0.229-1.322 0l-5.822-3.371c-0.395-0.229-0.66-0.655-0.661-1.147v-6.738c0-0.492 0.266-0.92 0.661-1.149l5.822-3.367c0.397-0.23 0.936-0.223 1.323 0l5.821 3.367c0.396 0.229 0.661 0.657 0.661 1.149zM15.008 24.268c0.638 0.369 1.486 0.368 2.122 0l5.821-3.371c0.635-0.367 1.060-1.054 1.062-1.839v-6.738c0-0.786-0.426-1.474-1.062-1.842l-5.822-3.368c-0.633-0.366-1.485-0.368-2.122 0l-5.822 3.368c-0.636 0.368-1.061 1.056-1.061 1.842v6.739c0.001 0.785 0.426 1.471 1.061 1.838zM29.384 9.565v12.25c-0.001 1.014-0.549 1.897-1.366 2.37l-10.584 6.126c-0.82 0.474-1.914 0.474-2.733-0l-10.582-6.126c-0.817-0.473-1.366-1.356-1.367-2.37v-12.249c0-1.015 0.549-1.9 1.367-2.373l10.583-6.122c0.824-0.478 1.92-0.471 2.733-0l10.584 6.122c0.817 0.473 1.366 1.357 1.366 2.373zM16.152-0.097c-0.7 0-1.3 0.155-1.85 0.475l-10.582 6.122c-1.059 0.612-1.767 1.756-1.768 3.066v12.25c0.002 1.308 0.71 2.451 1.767 3.062l10.583 6.127c1.059 0.613 2.471 0.614 3.533-0l10.584-6.126c1.057-0.612 1.764-1.754 1.766-3.062v-12.25c0-1.309-0.708-2.453-1.766-3.066l-10.584-6.122c-0.496-0.287-1.072-0.46-1.683-0.475zM29.796 28.852c0 0.321-0.211 0.718-0.809 1.066l-1.343 0.782c-1.205 0.701-3.245 0.701-4.45 0-1.068-0.622-2.136-1.243-3.204-1.865l-2.555 1.479c-0.291 0.168-0.617 0.284-0.963 0.335v-6.133c0.235-0.045 0.456-0.128 0.657-0.244l5.821-3.37c0.635-0.368 1.060-1.055 1.061-1.84v-6.737c0-0.244-0.042-0.479-0.118-0.698l5.299-3.066c0.123 0.313 0.192 0.654 0.192 1.008v12.248c-0.001 1.014-0.549 1.897-1.366 2.369-0.872 0.505-1.744 1.009-2.616 1.514 1.195 0.695 2.389 1.391 3.584 2.086 0.597 0.348 0.809 0.744 0.809 1.066zM16.732 23.577c-0.306 0.176-0.612 0.176-1.059 0.176v7.724c0.893 0 1.509-0.095 2.163-0.472l2.154-1.247 2.804 1.632c1.483 0.863 3.77 0.863 5.253 0l1.343-0.782c0.746-0.434 1.207-1.058 1.207-1.758s-0.461-1.323-1.207-1.757l-2.392-1.392 1.422-0.823c1.057-0.612 1.765-1.754 1.766-3.062v-12.249c-0-0.643-0.174-1.249-0.474-1.768l-0.2-0.348-6.678 3.863c0.164 0.283 0.378 0.595 0.378 1.009v6.736c-0 0.492-0.266 0.919-0.661 1.148zM14.703 1.068c0.818-0.473 1.912-0.472 2.729 0.001l10.586 6.124c0.3 0.174 0.56 0.4 0.772 0.669l-5.298 3.066c-0.153-0.178-0.335-0.329-0.54-0.448l-5.822-3.368c-0.637-0.369-1.484-0.368-2.121-0.001l-5.821 3.369c-0.206 0.12-0.389 0.272-0.544 0.451l-5.299-3.067c0.213-0.27 0.474-0.496 0.775-0.671zM15.408 7.804c0.397-0.229 0.926-0.229 1.322 0l5.82 3.367c0.33 0.192 0.49 0.5 0.681 0.831l6.675-3.863-0.199-0.345c-0.31-0.538-0.753-0.983-1.289-1.295l-10.586-6.124c-1.058-0.612-2.468-0.614-3.529-0.001l-10.583 6.124c-0.538 0.312-0.982 0.758-1.293 1.296l0.726 0.326-0.579 0.219 6.33 3.665c0.191-0.332 0.352-0.641 0.683-0.833z"/></svg>