<!-- Generated by IcoMoon.io -->
<svg version="1.1" xmlns="http://www.w3.org/2000/svg" width="32" height="32" viewBox="0 0 32 32">
<title>sailfish-os</title>
<path d="M14.986 14.087c-0.713-0.681-1.398-1.351-1.893-2.115 1.42-2.343 4.672-3.87 5.612-4.274 0.499 0.505 1.836 1.678 3.707 1.908-0.776 0.271-5.628 2.042-7.427 4.481zM17.115 19.424c-0.199 2.297-1.634 4.244-3.578 5.853 0.466-0.74 0.816-1.589 0.897-2.526 0.19-2.196-1.3-3.702-2.742-5.159-1.466-1.482-2.851-2.882-2.67-4.977 0.211-2.438 1.685-4.642 3.493-6.468-0.501 0.895-0.91 1.893-0.994 2.859-0.235 2.711 1.492 4.357 3.015 5.809 1.415 1.349 2.751 2.623 2.579 4.609v-0zM7.222 28.963c2.045-1.5 3.649-3.394 4.551-5.453 0.584-1.332 0.824-2.629 0.718-3.828 0.722 0.894 1.21 1.843 1.11 2.997-0.253 2.923-3.74 5.009-3.79 5.038l0.002 0.003c-0.864 0.461-1.741 0.875-2.591 1.243zM17.209 7.478c-1.358 0.7-3.347 1.935-4.561 3.646-0.242-0.602-0.36-1.271-0.293-2.045 0.197-2.271 2.577-4.924 2.952-5.329 1.395-1.037 2.726-1.835 3.63-2.338-0.654 1.365-1.596 3.704-1.729 6.067v0zM31.558 6.782c-0.080-0.214-0.317-0.324-0.532-0.247l-3.052 1.089c-1.281 0.42-2.772 0.858-4.059 1.104-2.774 0.53-4.76-1.773-4.779-1.796-0.115-0.137-0.303-0.186-0.47-0.122-0.038 0.015-0.253 0.098-0.582 0.246 0.338-3.228 2.187-6.391 2.208-6.425 0.093-0.158 0.073-0.359-0.051-0.495s-0.321-0.175-0.488-0.097c-0.111 0.052-2.751 1.305-5.51 3.459-3.75 2.928-5.786 5.97-6.052 9.043-0.215 2.48 1.373 4.085 2.909 5.637 0.088 0.089 0.176 0.178 0.263 0.266 0.52 1.378 0.399 3.011-0.354 4.728-1.348 3.075-4.385 5.769-8.123 7.207-1.184 0.455-2.177 0.803-2.187 0.806-0.208 0.072-0.324 0.293-0.266 0.506 0.051 0.185 0.218 0.308 0.403 0.308 0.028 0 0.055-0.003 0.083-0.008 0.628-0.126 4.638-1.183 8.538-3.147 0.266-0.134 0.525-0.27 0.779-0.406l0 0c0.001-0.001 0.004-0.002 0.005-0.003 4.827-2.594 7.421-5.598 7.71-8.939 0.185-2.131-1.028-3.534-2.355-4.825 1.674-2.421 7.127-4.287 7.189-4.308l5.382-1.92c1.709-0.557 3.057-1.087 3.153-1.125 0.212-0.084 0.318-0.322 0.238-0.536z"></path>
</svg>
