<svg xmlns="http://www.w3.org/2000/svg" xml:space="preserve" style="fill-rule:evenodd;clip-rule:evenodd;stroke-linejoin:round;stroke-miterlimit:2" viewBox="0 0 24 24"><path d="m2.138 6.103 3.948 3.923 3.976-3.951 1.974 1.963-3.976 3.949 3.95 3.926-2.028 2.015-3.951-3.925-4.057 4.032L0 16.074l4.057-4.032L.11 8.119l2.028-2.016Zm3.784 15.86 10.064-10.001-3.95-3.924h.001l-1.975-1.963-3.949-3.924 2.012-2 3.95 3.924 4.026-4 1.975 1.962-4.027 4 3.95 3.925 4.026-4.001L24 7.924l-4.027 4 3.951 3.924-2.013 2.001-3.951-3.925-4.025 4 3.95 3.925-2.013 2-3.95-3.924-4.026 4-1.974-1.962Z" /></svg>
