<svg xmlns="http://www.w3.org/2000/svg" viewBox="0 0 89 57"><path d="M45.767 57.018c1.14 0 2.035-.253 2.686-.757.651-.505 1.188-1.36 1.611-2.564l4.444-12.402h21.777l4.443 12.402c.424 1.205.96 2.06 1.612 2.564.65.504 1.546.757 2.685.757 1.14 0 2.06-.326 2.76-.977.699-.651 1.049-1.53 1.049-2.637 0-.683-.163-1.465-.488-2.344L71.06 4.527C70.05 1.825 68.163.475 65.395.475c-2.734 0-4.59 1.35-5.566 4.052L42.545 51.11c-.326.88-.488 1.66-.488 2.344 0 1.107.333 1.978 1 2.612.668.635 1.571.953 2.71.953Zm10.84-22.315 8.643-24.512h.244l8.643 24.512h-17.53ZM4.46 57.018c.911 0 1.668-.245 2.27-.733.603-.488 1.066-1.27 1.392-2.344l2.734-8.447h14.453l2.735 8.447c.358 1.107.846 1.897 1.465 2.369.618.472 1.367.708 2.246.708 1.107 0 1.994-.31 2.661-.928.667-.619 1-1.432 1-2.442 0-.423-.048-.846-.145-1.27a11.847 11.847 0 0 0-.391-1.318l-11.28-30.322c-.52-1.367-1.245-2.392-2.172-3.076-.928-.683-2.043-1.025-3.345-1.025-1.27 0-2.368.333-3.296 1-.928.668-1.636 1.702-2.124 3.101L1.334 51.06a7.306 7.306 0 0 0-.488 2.588c0 1.01.325 1.823.976 2.442.651.618 1.53.928 2.637.928Zm8.3-17.14 4.786-15.038h1.074l4.834 15.039H12.76Z"/></svg>