<!-- Generated by IcoMoon.io -->
<svg version="1.1" xmlns="http://www.w3.org/2000/svg" width="32" height="32" viewBox="0 0 32 32">
<title>tor</title>
<path d="M17.514 2.391l-0.844 3.376c1.196-2.391 3.13-4.185 5.345-5.767-1.618 1.864-3.094 3.727-3.974 5.626 1.512-2.145 3.552-3.305 5.837-4.114-3.059 2.708-5.486 5.662-7.314 8.58l-1.477-0.633c0.246-2.356 1.125-4.747 2.426-7.068zM16.388 9.952l1.020 0.527c-0.105 0.668 0.035 2.145 0.703 2.497 2.954 1.829 5.697 3.798 6.787 5.802 3.868 6.998-2.708 13.503-8.439 12.87 3.094-2.286 4.009-6.998 2.848-12.167-0.457-2.004-1.196-3.833-2.497-5.908-0.563-0.949-0.352-2.215-0.422-3.622zM15.263 13.292c-0.211 1.090-0.457 3.059-1.407 3.798-0.387 0.281-0.809 0.563-1.231 0.844-1.723 1.16-3.411 2.25-4.185 5.029-0.176 0.598-0.035 1.231 0.105 1.829 0.422 1.723 1.618 3.552 2.567 4.642 0 0.035 0.176 0.176 0.176 0.211 0.774 0.914 1.020 1.196 3.974 1.864l-0.070 0.317c-1.793-0.457-3.235-0.914-4.185-1.969 0-0.035-0.176-0.176-0.176-0.176-0.985-1.125-2.215-3.024-2.637-4.817-0.176-0.703-0.317-1.266-0.106-2.004 0.809-2.883 2.567-4.044 4.325-5.24 0.387-0.246 0.879-0.492 1.266-0.809 0.809-0.527 1.196-2.18 1.582-3.516zM16.037 17.864c0.141 1.125 0.141 2.11 0.457 2.637 0.246 0.457 0.668 1.090 0.914 1.723 0.492 1.16 0.738 2.426 0.774 3.024 0.035 1.020-0.105 2.602-0.457 3.868-0.422 1.371-1.231 2.426-1.864 2.532v0.105c-0.844-0.141-2.18-0.668-2.883-1.16-1.688-1.16-2.532-2.602-2.672-4.747-0.106-1.688 0.914-3.411 2.919-4.466 1.371-0.738 1.793-1.829 2.215-3.165-0.316 1.547-0.668 2.462-2.075 3.305-1.688 0.949-2.883 2.883-2.778 4.185 0.141 1.582 1.231 3.411 2.497 4.501 0.633 0.563 1.723 0.914 2.672 1.090 0.914-0.563 1.442-1.582 1.688-2.743 0.316-1.407 0.352-2.743 0.352-3.446 0-0.633-0.281-1.653-0.527-2.567-0.176-0.703-0.844-1.407-1.020-1.934-0.316-0.879-0.176-1.512-0.211-2.743v0zM15.826 22.681c0.176 0.774 0.563 1.864 0.774 2.919 0.176 0.844 0.211 1.653 0.141 2.286-0.070 0.738-0.106 1.336-0.211 1.969-0.105 0.527-0.387 1.020-0.844 1.547v0.035c-0.246-0.035-0.738-0.387-1.125-0.949-0.246-0.352-0.422-0.844-0.598-1.301-0.176-0.422-0.352-0.914-0.352-1.336 0-1.020 0.105-2.286 0.844-3.13 0.668-0.774 0.879-0.879 1.16-1.793-0.211 1.020-0.352 1.090-0.985 2.004-0.809 1.125-0.844 2.251-0.738 2.954 0.070 0.457 0.246 0.879 0.387 1.231 0.176 0.457 0.387 0.879 0.668 1.266 0.246 0.281 0.387 0.457 0.738 0.633 0.387-0.738 0.633-2.215 0.668-3.024 0.035-0.703 0.070-1.512-0.035-2.321-0.141-1.090-0.457-2.145-0.492-2.989zM15.966 12.308c0.035 1.442 0.316 3.622 0.563 4.114 0.105 0.316 1.055 1.829 1.723 3.411 0.457 1.020 0.598 2.004 0.633 2.286 0.352 2.954 0.070 4.185-0.703 6.822-0.457 1.582-1.723 2.813-2.251 2.848l0.176-0.316c0.914-0.563 1.723-2.004 1.969-3.165 0.457-2.145 0.809-4.431 0.527-5.767-0.070-0.317-0.176-1.371-0.598-2.497-0.598-1.653-1.477-2.989-1.582-3.305-0.352-0.914-0.422-3.2-0.457-4.431v0zM16.388 10.057l0.352 0.176c-0.176 0.387-0.070 2.356 0.211 3.094 0.352 0.985 1.371 2.11 2.004 3.692 0.457 1.055 0.914 3.587 0.949 3.868 0.352 2.954 0.176 5.732-0.703 8.088-0.563 1.477-1.969 2.778-2.497 2.813l-0.985-0.246c1.371-0.527 2.708-2.215 2.989-3.376 0.738-3.27 1.020-7.49-0.035-10.725-0.563-1.688-1.899-3.165-2.145-4.185-0.211-0.949-0.211-1.934-0.141-3.2zM23.421 16.281c1.934 1.758 3.024 4.22 3.024 6.787s-1.16 5.064-3.165 6.716c-1.864 1.547-4.466 2.215-6.963 2.215-1.547 0-2.954-0.070-4.466-0.563-3.481-1.16-6.048-4.114-6.259-7.666-0.211-2.743 0.422-4.853 2.567-7.068 1.090-1.16 3.341-2.497 4.888-3.552 0.774-0.492 1.582-1.969 0.035-4.747l0.316-0.246 4.607 1.899c-0.633 2.040 1.196 3.481 1.793 3.798 1.336 0.738 2.602 1.512 3.622 2.426zM22.753 29.257c1.829-1.512 2.813-3.833 2.813-6.189s-0.914-4.607-2.708-6.189c-1.020-0.914-2.673-2.040-3.727-2.637s-2.356-2.251-1.934-3.833l-3.446-1.512c0.176 0.246 0.598 1.301 0.703 1.618 0.211 0.879 0.105 1.723-0.070 2.11-0.949 1.758-2.637 2.251-3.833 3.235-2.145 1.758-4.466 3.13-4.22 7.947 0.141 2.356 1.969 5.275 4.747 6.611 1.582 0.774 3.376 1.055 5.204 1.16 1.653 0.070 4.747-0.914 6.47-2.321z"></path>
</svg>
