<?xml version="1.0" encoding="UTF-8" standalone="no"?>
<!DOCTYPE svg PUBLIC "-//W3C//DTD SVG 1.1//EN" "http://www.w3.org/Graphics/SVG/1.1/DTD/svg11.dtd">
<svg width="100%" height="100%" viewBox="0 0 128 128" version="1.1" xmlns="http://www.w3.org/2000/svg" xmlns:xlink="http://www.w3.org/1999/xlink" xml:space="preserve" xmlns:serif="http://www.serif.com/" style="fill-rule:evenodd;clip-rule:evenodd;stroke-linejoin:round;stroke-miterlimit:2;">
    <g transform="matrix(5.81818,0,0,5.81818,-5.81818,-5.81818)">
        <path d="M22.56,12.25C22.56,11.47 22.49,10.72 22.36,10L12,10L12,14.26L17.92,14.26C17.66,15.63 16.88,16.79 15.71,17.57L15.71,20.34L19.28,20.34C21.36,18.42 22.56,15.6 22.56,12.25Z" style="fill:rgb(66,133,244);fill-rule:nonzero;"/>
    </g>
    <g transform="matrix(5.81818,0,0,5.81818,-5.81818,-5.81818)">
        <path d="M12,23C14.97,23 17.46,22.02 19.28,20.34L15.71,17.57C14.73,18.23 13.48,18.63 12,18.63C9.14,18.63 6.71,16.7 5.84,14.1L2.18,14.1L2.18,16.94C3.99,20.53 7.7,23 12,23Z" style="fill:rgb(52,168,83);fill-rule:nonzero;"/>
    </g>
    <g transform="matrix(5.81818,0,0,5.81818,-5.81818,-5.81818)">
        <path d="M5.84,14.09C5.62,13.43 5.49,12.73 5.49,12C5.49,11.27 5.62,10.57 5.84,9.91L5.84,7.07L2.18,7.07C1.43,8.55 1,10.22 1,12C1,13.78 1.43,15.45 2.18,16.93L5.03,14.71L5.84,14.09Z" style="fill:rgb(251,188,5);fill-rule:nonzero;"/>
    </g>
    <g transform="matrix(5.81818,0,0,5.81818,-5.81818,-5.81818)">
        <path d="M12,5.38C13.62,5.38 15.06,5.94 16.21,7.02L19.36,3.87C17.45,2.09 14.97,1 12,1C7.7,1 3.99,3.47 2.18,7.07L5.84,9.91C6.71,7.31 9.14,5.38 12,5.38Z" style="fill:rgb(234,67,53);fill-rule:nonzero;"/>
    </g>
    <g transform="matrix(5.81818,0,0,5.81818,-5.81818,-5.81818)">
        <rect x="1" y="1" width="22" height="22" style="fill:none;fill-rule:nonzero;"/>
    </g>
</svg>
