<?xml version="1.0" encoding="UTF-8" standalone="no"?>
<!DOCTYPE svg PUBLIC "-//W3C//DTD SVG 1.1//EN" "http://www.w3.org/Graphics/SVG/1.1/DTD/svg11.dtd">
<svg width="100%" height="100%" viewBox="0 0 128 128" version="1.1" xmlns="http://www.w3.org/2000/svg" xmlns:xlink="http://www.w3.org/1999/xlink" xml:space="preserve" xmlns:serif="http://www.serif.com/" style="fill-rule:evenodd;clip-rule:evenodd;stroke-linejoin:round;stroke-miterlimit:2;">
    <g transform="matrix(1,0,0,1,1.36646,1.25941)">
        <ellipse cx="62.634" cy="60.515" rx="37.625" ry="37.779" style="fill:white;"/>
    </g>
    <g transform="matrix(3.85247,0,0,3.85247,6.8707,0)">
        <path d="M0,16.543L0,4.494L14.829,0L29.659,4.494L29.659,16.543C29.659,28.591 14.829,33.225 14.829,33.225C14.829,33.225 0,28.591 0,16.543ZM24.098,15.756C24.098,20.875 19.948,25.024 14.829,25.024C9.711,25.024 5.561,20.875 5.561,15.756C5.561,10.637 9.711,6.488 14.829,6.488C19.948,6.488 24.098,10.637 24.098,15.756Z" style="fill:rgb(77,129,241);"/>
    </g>
    <g transform="matrix(3.85247,0,0,3.85247,6.8707,0)">
        <path d="M20.083,13.665L13.285,19.784L9.575,16.445L10.815,15.067L13.285,17.29L18.843,12.287L20.083,13.665Z" style="fill:rgb(77,129,241);"/>
    </g>
</svg>
