<svg width="128" height="128" version="1.1" viewBox="0 0 33.867 33.867" xmlns="http://www.w3.org/2000/svg"><defs><linearGradient id="SVGID_1_" x1="166.22" x2="166.22" y1="758.59" y2="757.09" gradientTransform="matrix(28 0 0 -24.5 -4594.5 18606)" gradientUnits="userSpaceOnUse"><stop stop-color="#FF61AD" offset="0"/><stop stop-color="#FF2719" offset="1"/></linearGradient></defs><g id="Symbols_1_" transform="matrix(.3763 0 0 .3763 -1.8815 -1.8815)"><path id="Background" class="st3" d="m63.6 5c9 0 13.5 0 18.4 1.5 5.3 1.9 9.5 6.1 11.4 11.4 1.6 4.9 1.6 9.5 1.6 18.5v27.2c0 9 0 13.5-1.5 18.4-1.9 5.3-6.1 9.5-11.4 11.4-5 1.6-9.5 1.6-18.5 1.6h-27.2c-9 0-13.5 0-18.4-1.5-5.4-2-9.5-6.1-11.5-11.5-1.5-4.8-1.5-9.3-1.5-18.4v-27.2c0-9 0-13.5 1.5-18.4 2-5.3 6.1-9.5 11.5-11.4 4.8-1.6 9.3-1.6 18.4-1.6z" fill="#fff"/><path class="st5" d="m80.7 32c0-6.8-5.2-12-11.2-12-4.2 0-7.6 1.4-9.7 4.5-2.1-3.1-5.5-4.5-9-4.5-6.8 0-12 5.2-12 12v0 0c0 10.1 9.7 20.3 21 24.7 8.8-2.9 20.9-14.6 20.9-24.7v0 0z" fill="url(#SVGID_1_)"/></g></svg>
