<svg width="128" height="128" version="1.1" viewBox="0 0 33.867 33.867" xmlns="http://www.w3.org/2000/svg" xmlns:xlink="http://www.w3.org/1999/xlink"><defs><linearGradient id="c-5" x1="512" x2="512" y2="1024" gradientUnits="userSpaceOnUse"><stop stop-color="#313131" offset="0"/><stop stop-color="#141414" offset="1"/></linearGradient><linearGradient id="d-9" x1="674.52" x2="674.52" y1="160.14" y2="596.75" gradientTransform="matrix(.98167 0 0 .98167 -32.187 2.9351)" gradientUnits="userSpaceOnUse"><stop stop-color="#ff5fa9" offset="0"/><stop stop-color="#ff281d" offset="1"/></linearGradient></defs><g transform="matrix(.033073 0 0 .033073 2.25e-6 3.75e-7)"><path d="m1024 703.67c0 12.244 0 24.466-0.092 36.687-0.061 10.307-0.1779 20.614-0.4453 30.9-0.2837 22.534-2.2629 45.016-5.9213 67.253-3.8067 22.262-10.908 43.811-21.081 63.958-20.619 40.481-53.528 73.391-94.007 94.012-20.138 10.16-41.678 17.258-63.911 21.06-22.261 3.6732-44.744 5.6545-67.272 5.9217-10.297 0.2661-20.597 0.4218-30.898 0.4669-12.244 0.0714-24.465 0.0714-36.686 0.0714h-383.37c-12.221 0-24.442 0-36.686-0.061-10.301-0.04-20.6-0.1866-30.898-0.4453-22.541-0.2877-45.029-2.2745-67.272-5.944-22.238-3.7846-43.787-10.908-63.911-21.06-40.474-20.616-73.383-53.518-94.007-93.99-10.17-20.159-17.275-41.724-21.081-63.981-3.6583-22.23-5.6377-44.704-5.9213-67.231-0.26726-10.307-0.40038-20.614-0.44544-30.922-0.092159-12.244-0.092159-24.444-0.092159-36.688v-383.35c0-12.244 0-24.488 0.092159-36.732 0.04096-10.285 0.17817-20.592 0.44544-30.877 0.28365-22.527 2.2633-45.001 5.9213-67.231 3.8066-22.262 10.908-43.811 21.081-63.98 20.619-40.481 53.528-73.391 94.007-94.012 20.132-10.154 41.664-17.252 63.888-21.06 22.261-3.651 44.744-5.6322 67.272-5.9216 10.307-0.26726 20.614-0.40038 30.898-0.44544 12.243-0.07168 24.487-0.07168 36.686-0.07168h383.37c12.243 0 24.487 0 36.708 0.07168 10.301 0.04096 20.6 0.18637 30.898 0.44544 22.528 0.28979 45.011 2.2706 67.25 5.9216 22.261 3.8068 43.787 10.908 63.933 21.06 40.489 20.614 73.407 53.526 94.029 94.012 10.161 20.153 17.259 41.71 21.059 63.958 3.6587 22.237 5.638 44.718 5.9214 67.253 0.2674 10.307 0.4002 20.614 0.4453 30.899 0.092 12.244 0.092 24.466 0.092 36.687z" fill="url(#c-5)"/><path d="m532.07 160.24c-20.075 0-37.294 3.9892-53.083 11.074-15.904 7.1368-29.621 17.248-40.67 28.916-12.332 12.867-21.89 28.307-28.873 46.203-13.486 34.728-13.972 77.488-0.79062 117.4 3.9359 11.918 9.1299 24.125 15.652 36.362 16.713 31.207 40.352 61.701 70.671 91.281 15.16 14.716 31.48 29.03 49.227 43.093 17.748 14.063 36.975 27.775 57.311 41.086 5.0286 3.4017 10.179 6.4335 15.355 9.0957s9.079 3.9922 13.212 3.9922c3.6975 0 7.9349-1.33 13.111-3.9922s10.329-5.694 15.357-9.0957c20.336-13.311 39.528-27.023 57.275-41.086 17.748-14.063 34.202-28.477 49.361-43.193 30.319-29.58 53.934-60.174 70.646-91.381 6.5225-12.237 11.718-24.244 15.654-36.162 6.4458-19.517 9.5156-39.73 9.5156-58.445 0-20.898-3.1513-40.59-10.283-58.955-6.9834-17.896-16.541-33.336-28.873-46.203-11.048-11.668-24.764-21.779-40.668-28.916-15.789-7.0852-33.21-11.129-53.285-11.129-23.268 0-42.45 6.0435-58.867 17.432-6.8489 4.732-14.992 11.847-21.328 19.045-7.5867 8.6189-12.591 16.046-17.617 25.338-5.0266-9.2916-10.029-16.719-17.615-25.338-6.336-7.198-14.681-14.313-21.53-19.045-16.417-11.388-35.599-17.377-58.867-17.377z" fill="url(#d-9)"/></g></svg>
