<svg width="128" height="128" version="1.1" viewBox="0 0 33.867 33.867" xmlns="http://www.w3.org/2000/svg"><defs><linearGradient id="paint0_linear_9963_56592" x1="1180" x2="1180" y1="1355" y2="2034" gradientTransform="matrix(.014344 0 0 .014344 -1.4598e-6 -6.59e-7)" gradientUnits="userSpaceOnUse"><stop stop-color="#018464" offset="0"/><stop stop-color="#FA8675" offset="1"/></linearGradient><filter id="filter0_f_9963_56592" x="0" y="0" width="2361" height="2361" color-interpolation-filters="sRGB" filterUnits="userSpaceOnUse"><feFlood flood-opacity="0" result="BackgroundImageFix"/><feBlend in="SourceGraphic" in2="BackgroundImageFix" result="shape"/><feGaussianBlur result="effect1_foregroundBlur_9963_56592" stdDeviation="200"/></filter></defs><g transform="matrix(.014344 0 0 .014344 -1.4598e-6 -6.59e-7)" filter="url(#filter0_f_9963_56592)"><circle cx="1180.5" cy="1180.5" r="780.5" fill="#c7b9ff"/></g><path d="m16.926 29.176c-0.30395 0-0.6508-0.21774-0.6508-0.5217 0-0.3041 0.05738-0.33824 0.05738-1.2154 0-0.87715-0.60891-1.6176-1.4789-1.7288-1.5457-0.19752-3.0232-0.61293-4.4007-1.2145-2.7754-1.1401-4.7298-3.8699-4.7298-7.0562 0-1.7412 0.58362-3.3461 1.5659-4.6297 1.5288-2.0239 4.6914-4.0272 9.4879-6.0099 0.09539-0.039418 0.20254-0.039275 0.29778 3.849e-4 4.8582 2.023 8.0583 4.0682 9.5999 6.1355 0.90784 1.2619 1.4542 2.819 1.4542 4.5037 0 3.1874-1.9558 5.9181-4.7329 7.0573-1.3778 0.60145-2.8519 1.0161-4.3978 1.2134-0.86998 0.11088-1.4787 0.85104-1.4787 1.728 0 0.87686 0.05738 0.912 0.05738 1.2161 0 0.30395-0.34684 0.5217-0.6508 0.5217z" clip-rule="evenodd" fill="url(#paint0_linear_9963_56592)" fill-rule="evenodd" stroke-width=".014344"/><g fill="#fff" stroke-width=".014344"><path d="m23.459 16.518c0.41813 0 0.63114 0.19723 0.63114 0.60748 0 0.11834-0.02367 0.59959-0.02367 0.68637 0 0.48914 0.09467 0.90727 0.09467 1.3333 0 0.52858-0.10256 0.83627-0.67848 0.83627-0.50492 0-0.61537-0.25246-0.61537-0.72582 0-0.26824 0.071-0.52858 0.071-0.78893 0-0.37869-0.071-0.74948-0.071-1.1282 0-0.41024 0.11045-0.82049 0.5917-0.82049zm0.05523-1.9171c0.43391 0 0.71793 0.29979 0.71793 0.70215 0 0.41813-0.29061 0.78391-0.71793 0.78391-0.45758 0-0.71793-0.32633-0.71793-0.77602 0-0.49703 0.24457-0.71004 0.71793-0.71004z"/><path d="m18.603 16.913c0-0.69426-0.08678-1.2228-0.08678-1.6883 0-0.47336 0.19723-0.76526 0.67848-0.76526 0.38658 0 0.61537 0.25246 0.61537 0.62326 0 0.30768-0.05523 0.61537-0.06312 0.92305-0.01578 0.4418-0.0079 0.8836-0.01578 1.3175 0.45758-0.3708 0.8126-0.95461 1.3017-1.2702 0.11834-0.071 0.26035-0.12623 0.39447-0.12623 0.29979 0 0.56014 0.27613 0.56014 0.56014 0 0.55225-1.4359 1.2465-1.4359 1.357 0 0.09467 0.67848 0.63904 0.78104 0.72582 0.30768 0.2209 0.82049 0.3708 0.82049 0.80471 0 0.38658-0.2919 0.5917-0.65481 0.5917-0.41813 0-0.71004-0.38658-0.9625-0.6627-0.29979-0.33135-0.56014-0.69426-0.84416-1.0256 0.01578 0.36291 0.06312 0.72582 0.06312 1.0887 0 0.43391-0.18146 0.63114-0.62326 0.63114-0.3708 0-0.60748-0.26035-0.60748-0.63114 0-0.41024 0.0079-0.78893 0.03156-1.2071 0.03156-0.41813 0.04734-0.82838 0.04734-1.2465z"/><path d="m15.283 16.534c0 0.52069-0.11045 0.73371-0.11045 1.428 0 0.51281 0.16568 0.92305 0.65481 0.92305 0.62326 0 0.71004-0.76526 0.71004-1.1992 0-0.34713-0.06311-0.67059-0.06311-1.0177 0-0.43391 0.12623-0.71793 0.60748-0.71793s0.62326 0.32346 0.62326 0.74948c0 0.4418-0.10256 0.86782-0.10256 1.3175 0 0.69426 0.15779 1.1518 0.15779 1.4674 0 0.36291-0.30768 0.53647-0.64692 0.53647-0.50492 0-0.58381-0.47336-0.67059-0.47336-0.1499 0-0.29979 0.46547-1.0572 0.46547-1.0493 0-1.3175-0.84416-1.3175-1.7041 0-0.19723 0.02368-0.49703 0.02368-0.68637 0-0.30768-0.06313-0.64692-0.06313-0.95461 0-0.45758 0.18145-0.69426 0.62324-0.69426 0.27613 0 0.63114 0.11834 0.63114 0.56014z"/><path d="m12.426 14.68c0.38658 0 0.85205 0.09467 0.85205 0.57592 0 0.31557-0.17356 0.5917-0.52069 0.5917-0.41813 0-0.89149-0.08678-1.3175-0.08678-0.40236 0-0.63903 0.05523-0.63903 0.5207 0 0.36291 0.13412 0.46547 0.49703 0.46547 0.30768 0 0.6627-0.08678 0.97827-0.08678 0.35502 0 0.64692 0.12623 0.64692 0.52858 0 0.56014-0.29979 0.64692-0.78893 0.64692-0.26824 0-0.59959-0.03945-0.85994-0.03945-0.32346 0-0.46547 0.1499-0.46547 0.47336 0 0.4418 0.18934 0.60748 0.62326 0.60748 0.46547 0 1.0256-0.15778 1.4911-0.15778 0.34713 0 0.45758 0.24457 0.45758 0.56803 0 0.62326-0.50492 0.68637-1.0098 0.69426-0.22879 0-0.6627-0.03945-0.78893-0.03945-0.35502 0-0.56803 0.03156-0.92305 0.03156-0.78893 0-1.0019-0.53647-1.0019-1.3096 0-0.40236 0.063114-0.82049 0.063114-1.2307 0-0.48914-0.094672-0.94672-0.094672-1.4359 0-0.43391 0.078893-1.0493 0.57592-1.2071 0.23668-0.071 0.69426-0.07889 1.0729-0.07889 0.61537 0 0.8836-0.03156 1.1518-0.03156z"/></g></svg>
