<svg width="128" height="128" version="1.1" viewBox="0 0 33.867 33.867" xmlns="http://www.w3.org/2000/svg"><g transform="matrix(.21651 0 0 .21651 5.1234 .00096615)"><path d="m84.356 149.9 0.272 6.517h-59.316l0.6575-6.927c0.9371 0.327 1.9458 0.505 2.9967 0.505h54.069c0.4489 0 0.8901-0.032 1.3213-0.095zm-0.7769-31.889c1.4753-12.043 7.8724-23.1 13.804-33.351 4.0523-7.0033 7.8863-13.631 9.7863-19.941-1.525 1.4561-3.508 4.4294-5.83 7.9112-5.974 8.9575-14.193 21.281-22.635 19.796-6.5388-2.1963-8.6025-5.274-11.253-10.858-8.7844 1.7113-15.766-3.479-18.301-9.7439l0.5045 25.308-11.448-32.834c-8.9473-2.8953-17.154-16.632-8.9312-15.059l14.764 2.8251c10.108 2.1275 15.8-11.543 6.7529-18.638-1.9246-1.3642-21.227-10.373-24.859-11.397-3.2588-0.9191-7.1371 0.373-9.6249 3.2065l-15.037 27.926c-1.5616 2.1541-1.5698 4.4081-0.64812 6.3917l27.517 55.218c0.4017 0.758 0.531 1.985 0.5532 3.228 0.0904-3e-3 0.1812-4e-3 0.2722-4e-3h54.069c0.1828 0 0.3643 5e-3 0.5444 0.016zm16.008-76.442c3.8132-4.5627 13.052 11.175 8.0642 16.832l-19.763 26.183c-0.4562 0.5989-0.8139 0.9323-1.4085 1.4865-0.0457 0.0426-0.0929 0.0866-0.1415 0.132-7.7411 5.5399-18.638-3.3444-11.416-12.333zm-16.14-16.588c0.9927-0.3809 8.487 5.1386 12.155 8.9417 1.0624 1.3104 1.4896 3.323 0.2287 4.9524l-28.656 37.032c-0.6941 0.6458-1.0892 0.8609-2.2031 1.1885-8.0897 0.8494-16.427-7.7713-9.0137-15.002zm-17.49-13.456c0.9401-1.2144 13.043 8.5418 13.316 10.444l-28.922 38.044c-2.8419 3.7382-12-1.3584-13.532-6.274 12.226 6.9846 32.822-4.9606 15.176-24.175zm-21.504-11.107c4.7603-1.814 15.311 2.4618 17.969 8.0878l-14.103 18.363-18.966-7.8415z"/><path d="m31.845 122h47.31c4.3326 0 7.8448 2.964 7.8448 6.621v10.758c0 3.657-3.5122 6.621-7.8448 6.621h-47.31c-4.3326 0-7.8448-2.964-7.8448-6.621v-10.758c0-3.657 3.5122-6.621 7.8448-6.621zm11.593 3.064h24.325c2.8165 0 5.0997 2.284 5.0997 5.1v8.287c0 2.816-2.2832 5.1-5.0997 5.1h-24.325c-2.8165 0-5.0997-2.284-5.0997-5.1v-8.287c0-2.816 2.2832-5.1 5.0997-5.1z" clip-rule="evenodd" fill="#ff5000" fill-rule="evenodd"/></g></svg>
