<svg version="1.1" id="Layer_1" xmlns="http://www.w3.org/2000/svg" xmlns:xlink="http://www.w3.org/1999/xlink" x="0px" y="0px"
	 width="100%" viewBox="0 0 1024 1024" enable-background="new 0 0 1024 1024" xml:space="preserve">
<path fill="#2A79B9" opacity="1.000000" stroke="none" 
	d="
M573.000000,1025.000000 
	C382.000000,1025.000000 191.500000,1025.000000 1.000000,1025.000000 
	C1.000000,683.666687 1.000000,342.333344 1.000000,1.000000 
	C342.333344,1.000000 683.666687,1.000000 1025.000000,1.000000 
	C1025.000000,342.333344 1025.000000,683.666687 1025.000000,1025.000000 
	C874.500000,1025.000000 724.000000,1025.000000 573.000000,1025.000000 
M364.334503,480.926819 
	C374.763184,453.600555 385.191864,426.274292 396.042114,397.843353 
	C396.761932,399.660278 397.052094,400.326874 397.293060,401.010742 
	C401.257812,412.262817 405.260681,423.501678 409.169067,434.773315 
	C432.462311,501.950012 455.687103,569.150574 479.032959,636.308960 
	C489.529633,666.504517 500.266876,696.616272 510.867706,726.775696 
	C515.272522,739.307495 523.328491,747.279480 537.137329,748.494568 
	C548.267700,749.473999 558.209290,747.135925 564.846436,737.539551 
	C568.970703,731.576416 572.278503,724.993835 575.487000,718.460632 
	C602.054932,664.361389 628.530457,610.216736 654.947876,556.043884 
	C656.042236,553.799744 657.189209,552.953979 659.735046,552.924927 
	C680.393555,552.689148 701.049500,552.241760 721.707397,551.939453 
	C730.032227,551.817627 731.032043,552.931946 731.035950,561.466614 
	C731.046997,585.630981 730.981567,609.795715 731.101685,633.959534 
	C731.164856,646.657104 739.220154,654.736694 751.591003,654.821411 
	C762.256287,654.894470 772.922424,654.912720 783.587646,654.854370 
	C785.374268,654.844543 787.245728,654.574890 788.928467,653.992920 
	C797.132324,651.155579 801.749451,644.300476 801.792908,634.632629 
	C801.899292,610.968811 801.887695,587.304382 801.913452,563.640198 
	C801.923035,554.862366 803.676025,553.038879 812.270813,553.020752 
	C824.769592,552.994385 837.269836,553.103027 849.766663,552.939636 
	C862.243469,552.776550 874.759216,552.873169 887.177795,551.867126 
	C896.610107,551.103088 904.773499,542.096497 904.925537,533.680359 
	C905.096985,524.184937 905.151550,514.677185 904.868835,505.186279 
	C904.504456,492.951294 895.123535,484.077850 882.955933,484.002441 
	C859.792969,483.858856 836.629761,483.731171 813.467102,483.545380 
	C804.281860,483.471710 801.735107,481.279572 801.620605,472.151825 
	C801.324036,448.501404 801.181091,424.846436 801.284363,401.194580 
	C801.344177,387.489594 793.731262,379.197876 780.094971,379.073792 
	C771.263123,378.993408 762.430115,379.044647 753.597595,379.032898 
	C738.856079,379.013336 731.105713,386.647339 731.078857,401.378845 
	C731.032166,427.042999 731.056396,452.707275 731.050903,478.371521 
	C731.050537,480.136871 731.050842,481.902222 731.050842,484.049957 
	C728.782715,484.049957 727.142029,484.047272 725.501343,484.050385 
	C696.337585,484.105743 667.173828,484.169647 638.010071,484.214325 
	C624.309265,484.235291 614.027649,489.731232 608.023376,502.476990 
	C592.464539,535.505493 576.801636,568.484863 561.230469,601.507629 
	C556.314880,611.932373 551.558350,622.432068 546.299988,633.827148 
	C545.214172,631.035645 544.447388,629.246277 543.814331,627.410767 
	C521.169373,561.749390 498.547729,496.079895 475.898895,430.419739 
	C459.146606,381.854034 442.448975,333.269135 425.540833,284.757629 
	C419.958923,268.742401 405.625824,261.110413 389.089111,264.697266 
	C376.176788,267.497986 369.271149,276.367920 365.001831,288.144653 
	C353.592407,319.616943 342.093170,351.056885 330.551758,382.481079 
	C318.092194,416.405182 305.485168,450.275299 293.118805,484.233185 
	C291.750885,487.989563 289.916504,489.106201 285.949310,489.103790 
	C240.791092,489.076477 195.632187,489.190918 150.475250,489.515839 
	C145.785660,489.549622 140.619064,490.201569 136.513794,492.250031 
	C123.106216,498.940308 117.237022,513.889099 121.518211,528.349609 
	C126.068642,543.719543 137.819427,552.832581 154.012024,552.874268 
	C207.659714,553.012451 261.307892,552.972900 314.955872,552.996460 
	C329.216553,553.002686 339.172424,545.880127 344.457031,533.198059 
	C351.523346,516.240234 357.554932,498.851349 364.334503,480.926819 
z"/>
<path fill="#FEFEFE" opacity="1.000000" stroke="none" 
	d="
M364.182678,481.287170 
	C357.554932,498.851349 351.523346,516.240234 344.457031,533.198059 
	C339.172424,545.880127 329.216553,553.002686 314.955872,552.996460 
	C261.307892,552.972900 207.659714,553.012451 154.012024,552.874268 
	C137.819427,552.832581 126.068642,543.719543 121.518211,528.349609 
	C117.237022,513.889099 123.106216,498.940308 136.513794,492.250031 
	C140.619064,490.201569 145.785660,489.549622 150.475250,489.515839 
	C195.632187,489.190918 240.791092,489.076477 285.949310,489.103790 
	C289.916504,489.106201 291.750885,487.989563 293.118805,484.233185 
	C305.485168,450.275299 318.092194,416.405182 330.551758,382.481079 
	C342.093170,351.056885 353.592407,319.616943 365.001831,288.144653 
	C369.271149,276.367920 376.176788,267.497986 389.089111,264.697266 
	C405.625824,261.110413 419.958923,268.742401 425.540833,284.757629 
	C442.448975,333.269135 459.146606,381.854034 475.898895,430.419739 
	C498.547729,496.079895 521.169373,561.749390 543.814331,627.410767 
	C544.447388,629.246277 545.214172,631.035645 546.299988,633.827148 
	C551.558350,622.432068 556.314880,611.932373 561.230469,601.507629 
	C576.801636,568.484863 592.464539,535.505493 608.023376,502.476990 
	C614.027649,489.731232 624.309265,484.235291 638.010071,484.214325 
	C667.173828,484.169647 696.337585,484.105743 725.501343,484.050385 
	C727.142029,484.047272 728.782715,484.049957 731.050842,484.049957 
	C731.050842,481.902222 731.050537,480.136871 731.050903,478.371521 
	C731.056396,452.707275 731.032166,427.042999 731.078857,401.378845 
	C731.105713,386.647339 738.856079,379.013336 753.597595,379.032898 
	C762.430115,379.044647 771.263123,378.993408 780.094971,379.073792 
	C793.731262,379.197876 801.344177,387.489594 801.284363,401.194580 
	C801.181091,424.846436 801.324036,448.501404 801.620605,472.151825 
	C801.735107,481.279572 804.281860,483.471710 813.467102,483.545380 
	C836.629761,483.731171 859.792969,483.858856 882.955933,484.002441 
	C895.123535,484.077850 904.504456,492.951294 904.868835,505.186279 
	C905.151550,514.677185 905.096985,524.184937 904.925537,533.680359 
	C904.773499,542.096497 896.610107,551.103088 887.177795,551.867126 
	C874.759216,552.873169 862.243469,552.776550 849.766663,552.939636 
	C837.269836,553.103027 824.769592,552.994385 812.270813,553.020752 
	C803.676025,553.038879 801.923035,554.862366 801.913452,563.640198 
	C801.887695,587.304382 801.899292,610.968811 801.792908,634.632629 
	C801.749451,644.300476 797.132324,651.155579 788.928467,653.992920 
	C787.245728,654.574890 785.374268,654.844543 783.587646,654.854370 
	C772.922424,654.912720 762.256287,654.894470 751.591003,654.821411 
	C739.220154,654.736694 731.164856,646.657104 731.101685,633.959534 
	C730.981567,609.795715 731.046997,585.630981 731.035950,561.466614 
	C731.032043,552.931946 730.032227,551.817627 721.707397,551.939453 
	C701.049500,552.241760 680.393555,552.689148 659.735046,552.924927 
	C657.189209,552.953979 656.042236,553.799744 654.947876,556.043884 
	C628.530457,610.216736 602.054932,664.361389 575.487000,718.460632 
	C572.278503,724.993835 568.970703,731.576416 564.846436,737.539551 
	C558.209290,747.135925 548.267700,749.473999 537.137329,748.494568 
	C523.328491,747.279480 515.272522,739.307495 510.867706,726.775696 
	C500.266876,696.616272 489.529633,666.504517 479.032959,636.308960 
	C455.687103,569.150574 432.462311,501.950012 409.169067,434.773315 
	C405.260681,423.501678 401.257812,412.262817 397.293060,401.010742 
	C397.052094,400.326874 396.761932,399.660278 396.042114,397.843353 
	C385.191864,426.274292 374.763184,453.600555 364.182678,481.287170 
z"/>
</svg>