<?xml version="1.0" encoding="UTF-8" standalone="no"?>
<!DOCTYPE svg PUBLIC "-//W3C//DTD SVG 1.1//EN" "http://www.w3.org/Graphics/SVG/1.1/DTD/svg11.dtd">
<svg width="100%" height="100%" viewBox="0 0 1920 1080" version="1.1" xmlns="http://www.w3.org/2000/svg" xmlns:xlink="http://www.w3.org/1999/xlink" xml:space="preserve" xmlns:serif="http://www.serif.com/" style="fill-rule:evenodd;clip-rule:evenodd;stroke-linejoin:round;stroke-miterlimit:2;">
    <rect x="0" y="0" width="1920" height="1080" style="fill:rgb(0,51,153);"/>
    <g transform="matrix(2.55845,0,0,2.55845,597.249,537.627)">
        <g transform="matrix(1,0,0,1,-24,-24)">
            <g transform="matrix(2,0,0,2,0,0)">
                <rect x="0" y="0" width="24" height="24" style="fill:none;fill-rule:nonzero;"/>
            </g>
            <g transform="matrix(2,0,0,2,0,0)">
                <path d="M12.65,10C11.83,7.67 9.61,6 7,6C3.69,6 1,8.69 1,12C1,15.31 3.69,18 7,18C9.61,18 11.83,16.33 12.65,14L17,14L17,18L21,18L21,14L23,14L23,10L12.65,10ZM7,14C5.9,14 5,13.1 5,12C5,10.9 5.9,10 7,10C8.1,10 9,10.9 9,12C9,13.1 8.1,14 7,14Z" style="fill:rgb(255,204,0);fill-rule:nonzero;"/>
            </g>
        </g>
    </g>
    <g transform="matrix(2.55845,0,0,2.55845,1322.75,537.627)">
        <g transform="matrix(1,0,0,1,-24,-24)">
            <g transform="matrix(2,0,0,2,0,0)">
                <rect x="0" y="0" width="24" height="24" style="fill:none;fill-rule:nonzero;"/>
            </g>
            <g transform="matrix(2,0,0,2,0,0)">
                <g>
                    <path d="M2,17L22,17L22,19L2,19L2,17ZM3.15,12.95L4,11.47L4.85,12.95L6.15,12.2L5.3,10.72L7,10.72L7,9.22L5.3,9.22L6.15,7.75L4.85,7L4,8.47L3.15,7L1.85,7.75L2.7,9.22L1,9.22L1,10.72L2.7,10.72L1.85,12.2L3.15,12.95ZM9.85,12.2L11.15,12.95L12,11.47L12.85,12.95L14.15,12.2L13.3,10.72L15,10.72L15,9.22L13.3,9.22L14.15,7.75L12.85,7L12,8.47L11.15,7L9.85,7.75L10.7,9.22L9,9.22L9,10.72L10.7,10.72L9.85,12.2ZM23,9.22L21.3,9.22L22.15,7.75L20.85,7L20,8.47L19.15,7L17.85,7.75L18.7,9.22L17,9.22L17,10.72L18.7,10.72L17.85,12.2L19.15,12.95L20,11.47L20.85,12.95L22.15,12.2L21.3,10.72L23,10.72L23,9.22Z" style="fill:rgb(255,204,0);fill-rule:nonzero;"/>
                </g>
            </g>
        </g>
    </g>
    <g transform="matrix(2.55845,0,0,2.55845,642.604,709.746)">
        <g transform="matrix(1,0,0,1,-24,-24)">
            <g transform="matrix(2,0,0,2,0,0)">
                <rect x="0" y="0" width="24" height="24" style="fill:none;"/>
            </g>
            <g transform="matrix(2,0,0,2,0,0)">
                <g>
                    <g>
                        <path d="M20,18C21.1,18 22,17.1 22,16L22,6C22,4.9 21.1,4 20,4L4,4C2.9,4 2,4.9 2,6L2,16C2,17.1 2.9,18 4,18L0,18L0,20L24,20L24,18L20,18ZM4,6L20,6L20,16L4,16L4,6Z" style="fill:rgb(255,204,0);fill-rule:nonzero;"/>
                    </g>
                </g>
            </g>
        </g>
    </g>
    <g transform="matrix(2.55845,0,0,2.55845,1279.34,709.746)">
        <g transform="matrix(1,0,0,1,-24,-24)">
            <g transform="matrix(2,0,0,2,0,0)">
                <rect x="0" y="0" width="24" height="24" style="fill:none;fill-rule:nonzero;"/>
            </g>
            <g transform="matrix(2,0,0,2,0,0)">
                <path d="M20,13L4,13C3.45,13 3,13.45 3,14L3,20C3,20.55 3.45,21 4,21L20,21C20.55,21 21,20.55 21,20L21,14C21,13.45 20.55,13 20,13ZM7,19C5.9,19 5,18.1 5,17C5,15.9 5.9,15 7,15C8.1,15 9,15.9 9,17C9,18.1 8.1,19 7,19ZM20,3L4,3C3.45,3 3,3.45 3,4L3,10C3,10.55 3.45,11 4,11L20,11C20.55,11 21,10.55 21,10L21,4C21,3.45 20.55,3 20,3ZM7,9C5.9,9 5,8.1 5,7C5,5.9 5.9,5 7,5C8.1,5 9,5.9 9,7C9,8.1 8.1,9 7,9Z" style="fill:rgb(255,204,0);fill-rule:nonzero;"/>
            </g>
        </g>
    </g>
    <g transform="matrix(2.55845,0,0,2.55845,1144.75,858.679)">
        <g transform="matrix(1,0,0,1,-24,-24)">
            <g transform="matrix(2,0,0,2,0,0)">
                <rect x="0" y="0" width="24" height="24" style="fill:none;fill-rule:nonzero;"/>
            </g>
            <g transform="matrix(2,0,0,2,0,0)">
                <path d="M9,17L7,17L7,10L9,10L9,17ZM13,17L11,17L11,7L13,7L13,17ZM17,17L15,17L15,13L17,13L17,17ZM19.5,19.1L4.5,19.1L4.5,5L19.5,5L19.5,19.1ZM19.5,3L4.5,3C3.4,3 2.5,3.9 2.5,5L2.5,19C2.5,20.1 3.4,21 4.5,21L19.5,21C20.6,21 21.5,20.1 21.5,19L21.5,5C21.5,3.9 20.6,3 19.5,3Z" style="fill:rgb(255,204,0);fill-rule:nonzero;"/>
            </g>
        </g>
    </g>
    <g transform="matrix(2.55845,0,0,2.55845,776.985,858.679)">
        <g transform="matrix(1,0,0,1,-24,-24)">
            <g transform="matrix(2,0,0,2,0,0)">
                <rect x="0" y="0" width="24" height="24" style="fill:none;fill-rule:nonzero;"/>
            </g>
            <g transform="matrix(2,0,0,2,0,0)">
                <path d="M17,12L12,12L12,17L17,17L17,12ZM16,1L16,3L8,3L8,1L6,1L6,3L5,3C3.89,3 3.01,3.9 3.01,5L3,19C3,20.1 3.89,21 5,21L19,21C20.1,21 21,20.1 21,19L21,5C21,3.9 20.1,3 19,3L18,3L18,1L16,1ZM19,19L5,19L5,8L19,8L19,19Z" style="fill:rgb(255,204,0);fill-rule:nonzero;"/>
            </g>
        </g>
    </g>
    <g transform="matrix(2.55845,0,0,2.55845,960.869,904.116)">
        <g transform="matrix(1,0,0,1,-24,-24)">
            <g transform="matrix(2,0,0,2,0,0)">
                <rect x="0" y="0" width="24" height="24" style="fill:none;fill-rule:nonzero;"/>
            </g>
            <g transform="matrix(2,0,0,2,0,0)">
                <path d="M19,2L14.82,2C14.4,0.84 13.3,0 12,0C10.7,0 9.6,0.84 9.18,2L5,2C3.9,2 3,2.9 3,4L3,20C3,21.1 3.9,22 5,22L19,22C20.1,22 21,21.1 21,20L21,4C21,2.9 20.1,2 19,2ZM12,2C12.55,2 13,2.45 13,3C13,3.55 12.55,4 12,4C11.45,4 11,3.55 11,3C11,2.45 11.45,2 12,2ZM19,20L5,20L5,4L7,4L7,7L17,7L17,4L19,4L19,20Z" style="fill:rgb(255,204,0);fill-rule:nonzero;"/>
            </g>
        </g>
    </g>
    <g transform="matrix(2.55845,0,0,2.55845,960.869,175.884)">
        <g transform="matrix(1,0,0,1,-24,-24)">
            <g transform="matrix(2,0,0,2,0,0)">
                <rect x="0" y="0" width="24" height="24" style="fill:none;fill-rule:nonzero;"/>
            </g>
            <g transform="matrix(2,0,0,2,0,0)">
                <path d="M20,4L4,4C2.9,4 2.01,4.9 2.01,6L2,18C2,19.1 2.9,20 4,20L20,20C21.1,20 22,19.1 22,18L22,6C22,4.9 21.1,4 20,4ZM20,8L12,13L4,8L4,6L12,11L20,6L20,8Z" style="fill:rgb(255,204,0);fill-rule:nonzero;"/>
            </g>
        </g>
    </g>
    <g transform="matrix(2.55845,0,0,2.55845,1144.75,223.173)">
        <g transform="matrix(1,0,0,1,-24,-24)">
            <g transform="matrix(2,0,0,2,0,0)">
                <rect x="0" y="0" width="24" height="24" style="fill:none;"/>
            </g>
            <g transform="matrix(2,0,0,2,0,0)">
                <g>
                    <g>
                        <path d="M14,19.88L14,22L16.12,22L21.29,16.83L19.17,14.71L14,19.88Z" style="fill:rgb(255,204,0);fill-rule:nonzero;"/>
                    </g>
                    <g>
                        <path d="M20,8L14,2L6,2C4.9,2 4.01,2.9 4.01,4L4,20C4,21.1 4.89,22 5.99,22L12,22L12,19.05L20,11.05L20,8ZM13,9L13,3.5L18.5,9L13,9Z" style="fill:rgb(255,204,0);fill-rule:nonzero;"/>
                    </g>
                    <g>
                        <path d="M22.71,14L22,13.29C21.61,12.9 20.98,12.9 20.59,13.29L19.88,14L22,16.12L22.71,15.41C23.1,15.02 23.1,14.39 22.71,14Z" style="fill:rgb(255,204,0);fill-rule:nonzero;"/>
                    </g>
                </g>
            </g>
        </g>
    </g>
    <g transform="matrix(2.55845,0,0,2.55845,776.985,223.173)">
        <g transform="matrix(1,0,0,1,-24,-24)">
            <g transform="matrix(2,0,0,2,0,0)">
                <rect x="0" y="0" width="24" height="24" style="fill:none;"/>
            </g>
            <g transform="matrix(2,0,0,2,0,0)">
                <path d="M19.3,16.9C19.7,16.2 20,15.4 20,14.5C20,12 18,10 15.5,10C13,10 11,12 11,14.5C11,17 13,19 15.5,19C16.4,19 17.2,18.7 17.9,18.3L21.1,21.5L22.5,20.1L19.3,16.9ZM15.5,17C14.1,17 13,15.9 13,14.5C13,13.1 14.1,12 15.5,12C16.9,12 18,13.1 18,14.5C18,15.9 16.9,17 15.5,17ZM12,20L12,22C6.48,22 2,17.52 2,12C2,6.48 6.48,2 12,2C16.84,2 20.87,5.44 21.8,10L19.73,10C19.09,7.54 17.33,5.53 15,4.59L15,5C15,6.1 14.1,7 13,7L11,7L11,9C11,9.55 10.55,10 10,10L8,10L8,12L10,12L10,15L9,15L4.21,10.21C4.08,10.79 4,11.38 4,12C4,16.41 7.59,20 12,20Z" style="fill:rgb(255,204,0);fill-rule:nonzero;"/>
            </g>
        </g>
    </g>
    <g transform="matrix(2.55845,0,0,2.55845,1279.34,365.507)">
        <g transform="matrix(1,0,0,1,-24,-24)">
            <g transform="matrix(2,0,0,2,0,0)">
                <rect x="0" y="0" width="24" height="24" style="fill:none;fill-rule:nonzero;"/>
            </g>
            <g transform="matrix(2,0,0,2,0,0)">
                <path d="M20,2L4,2C2.9,2 2.01,2.9 2.01,4L2,22L6,18L20,18C21.1,18 22,17.1 22,16L22,4C22,2.9 21.1,2 20,2ZM6,9L18,9L18,11L6,11L6,9ZM14,14L6,14L6,12L14,12L14,14ZM18,8L6,8L6,6L18,6L18,8Z" style="fill:rgb(255,204,0);fill-rule:nonzero;"/>
            </g>
        </g>
    </g>
    <g transform="matrix(2.55845,0,0,2.55845,642.604,365.507)">
        <g transform="matrix(1,0,0,1,-24,-24)">
            <g transform="matrix(2,0,0,2,0,0)">
                <rect x="0" y="0" width="24" height="24" style="fill:none;fill-rule:nonzero;"/>
            </g>
            <g transform="matrix(2,0,0,2,0,0)">
                <path d="M20.5,3L20.34,3.03L15,5.1L9,3L3.36,4.9C3.15,4.97 3,5.15 3,5.38L3,20.5C3,20.78 3.22,21 3.5,21L3.66,20.97L9,18.9L15,21L20.64,19.1C20.85,19.03 21,18.85 21,18.62L21,3.5C21,3.22 20.78,3 20.5,3ZM15,19L9,16.89L9,5L15,7.11L15,19Z" style="fill:rgb(255,204,0);fill-rule:nonzero;"/>
            </g>
        </g>
    </g>
</svg>
