<svg xmlns="http://www.w3.org/2000/svg" width="128" height="128" version="1.1" viewBox="0 0 33.867 33.867"><g><rect width="33.79" height="33.56" x=".038" y=".153" fill="#fff" rx="7.884" ry="7.884" style="paint-order:normal"/><path fill="#8d9fb4" d="m7.9686 0.15319c-4.4146 0-7.9686 3.5539-7.9686 7.9686 0 9.1039 0.07644 25.592 0.07644 25.592h25.822c4.4146 0 7.9686-3.5539 7.9686-7.9686v-25.592zm-0.25096 5.176c1.2539 0 2.2868 1.0326 2.2868 2.2865 0 0.97544-0.62626 1.8145-1.4942 2.1402v14.471l7.76-7.7342v-6.7055c-0.9126-0.30083-1.5799-1.1643-1.5799-2.1719 3e-6 -1.2539 1.0326-2.2865 2.2865-2.2865 1.2539 0 2.2868 1.0326 2.2868 2.2865 0 0.9688-0.6177 1.8032-1.4764 2.1336v5.2317l6.4098-6.3884c-0.14254-0.29726-0.22489-0.62784-0.22489-0.97689 0-1.2539 1.0326-2.2865 2.2865-2.2865 1.2539 0 2.2868 1.0326 2.2868 2.2865 0 1.2539-1.0329 2.2865-2.2868 2.2865-0.35546 0-0.69177-0.0854-0.99318-0.23289l-6.3707 6.3496h5.2981c0.33047-0.85866 1.1651-1.4761 2.1339-1.4761 1.2539 0 2.2865 1.0327 2.2865 2.2865s-1.0326 2.2865-2.2865 2.2865c-1.0076 0-1.8712-0.66726-2.1721-1.5798h-6.7819l-7.7855 7.7597h14.574c0.30629-0.90334 1.1647-1.5621 2.1656-1.5621 1.2539 0 2.2865 1.0326 2.2865 2.2865 0 1.2539-1.0326 2.2868-2.2865 2.2868-0.97544 0-1.8147-0.62626-2.1404-1.4942h-17.193v-17.032c-0.90333-0.30621-1.5621-1.1644-1.5621-2.1653 0-1.2539 1.0326-2.2865 2.2865-2.2865zm0 1.517c-0.43403 0-0.76948 0.33551-0.76948 0.76948 0 0.43398 0.33545 0.76948 0.76948 0.76948s0.76978-0.3355 0.76978-0.76948c0-0.43398-0.33574-0.76948-0.76978-0.76948zm9.2593 0c-0.43404 0-0.76948 0.33551-0.76948 0.76948 2e-6 0.43398 0.33545 0.76948 0.76948 0.76948 0.43404 0 0.76978-0.3355 0.76978-0.76948 0-0.43398-0.33574-0.76948-0.76978-0.76948zm9.2818 0c-0.43403 0-0.76948 0.33551-0.76948 0.76948 0 0.43398 0.33545 0.76948 0.76948 0.76948 0.43404 0 0.76978-0.3355 0.76978-0.76948 0-0.43398-0.33574-0.76948-0.76978-0.76948zm0.06815 9.2136c-0.43404 0-0.76978 0.33551-0.76978 0.76949 0 0.43397 0.33574 0.76948 0.76978 0.76948s0.76948-0.33551 0.76948-0.76948c0-0.43398-0.33545-0.76949-0.76948-0.76949zm0 9.1908c-0.43404 0-0.76978 0.3355-0.76978 0.76947 0 0.43398 0.33574 0.76979 0.76978 0.76979s0.76948-0.33581 0.76948-0.76979c0-0.43397-0.33545-0.76947-0.76948-0.76947z" style="paint-order:normal"/><path fill="#436795" d="m33.828 0.15319-5.9443 5.904c0.38457 0.40988 0.62311 0.95808 0.62311 1.5585 0 1.2539-1.0329 2.2865-2.2868 2.2865-0.35546 0-0.69177-0.0854-0.99318-0.23289l-6.3707 6.3496h5.2981c0.33047-0.85866 1.1651-1.4761 2.1339-1.4761 1.2539 0 2.2865 1.0327 2.2865 2.2865s-1.0326 2.2865-2.2865 2.2865c-1.0076 0-1.8712-0.66726-2.1721-1.5798h-6.7819l-7.7855 7.7597h14.574c0.30629-0.90334 1.1647-1.5621 2.1656-1.5621 1.2539 0 2.2865 1.0326 2.2865 2.2865 0 1.2539-1.0326 2.2868-2.2865 2.2868-0.97544 0-1.8147-0.62626-2.1404-1.4942h-17.162l-6.9481 6.9007h25.822c4.4146 0 7.9686-3.5539 7.9686-7.9686zm-7.0163 6.9686-1.0895 1.0821c0.13324 0.11205 0.30458 0.18133 0.49778 0.18133 0.43404 0 0.76978-0.3355 0.76978-0.76948 0-0.19127-0.06797-0.36121-0.17807-0.49392zm-0.52356 8.9381c-0.43404 0-0.76978 0.33551-0.76978 0.76949 0 0.43397 0.33574 0.76948 0.76978 0.76948s0.76948-0.33551 0.76948-0.76948c0-0.43398-0.33545-0.76949-0.76948-0.76949zm0 9.1908c-0.43404 0-0.76978 0.3355-0.76978 0.76947 0 0.43398 0.33574 0.76979 0.76978 0.76979s0.76948-0.33581 0.76948-0.76979c0-0.43397-0.33545-0.76947-0.76948-0.76947z"/></g></svg>