<svg xmlns="http://www.w3.org/2000/svg" width="128" height="128" version="1.1" viewBox="0 0 33.867 33.867"><g><path fill="#51a2da" d="m16.934 5.2318e-4c-9.3485 0-16.927 7.5743-16.933 16.921h-0.0010517v13.104h0.0010517c0.0042067 2.1219 1.7257 3.8404 3.8486 3.8404h0.018817 13.071c9.3496-0.0053 16.927-7.5836 16.927-16.932 0-9.3528-7.5807-16.933-16.933-16.933z"/><path fill="#fafafa" d="m20.366 6.9672c-2.6408 0-4.9731 1.9886-5.2961 4.5973-0.02173 0.21836-0.03207 0.37657-0.03313 0.57453-0.0114 3.5235 0.02279 7.2698 0.0011 10.662 0 2.0456-1.5277 3.4379-3.4408 3.4379-1.9162 0-3.4607-1.5301-3.4607-3.4411 0.032068-2.0972 1.7061-3.4254 3.6645-3.4832h0.01776l1.9822-0.01668v-2.8188l-1.9833 0.01352c-3.5632-0.03313-6.3975 2.7568-6.5008 6.3052 0 3.4493 2.8385 6.2639 6.2793 6.2639 3.2463 0 5.948-2.5393 6.243-5.7132 0.04267-1.0807 0.02279-2.503 0.02279-2.503 0.0053-0.58698-0.0114-0.37472-5e-3 -1.5402l2.4637-0.01668c1.9078 0.01457 1.8892-2.8612-0.01882-2.8218l-2.4449 0.01645c0-1.4461 0.02279-2.8862 0-4.3352 0.0032-1.2527 1.1925-2.3583 2.5093-2.3583 1.3176 0 2.7099 0.65854 2.7099 2.3612 0 0.24327-0.0061 0.38426-0.01961 0.47436-0.14708 0.78971 0.39327 1.5423 1.1883 1.6563 0.79501 0.11263 1.5238-0.45978 1.6025-1.2588 0.04558-0.31588 0.0477-0.59334 0.0477-0.87186 0-3.003-2.6853-5.184-5.5288-5.184z"/></g></svg>