<svg width="128" height="128" version="1.1" viewBox="0 0 33.867 33.867" xmlns="http://www.w3.org/2000/svg"><defs><filter id="c-5" x="-.43468" y="-.42718" width="2.034" height="2.0162" color-interpolation-filters="sRGB"><feFlood flood-opacity=".251" result="flood"/><feComposite in="flood" in2="SourceGraphic" operator="in" result="composite1"/><feGaussianBlur in="composite1" result="blur" stdDeviation="1.1"/><feOffset dx="1" dy="1" result="offset"/><feComposite in="SourceGraphic" in2="offset" result="composite2"/></filter><filter id="d-7" x="-.42121" y="-.19662" width="2.002" height="1.4677" color-interpolation-filters="sRGB"><feFlood flood-opacity=".251" result="flood"/><feComposite in="flood" in2="SourceGraphic" operator="in" result="composite1"/><feGaussianBlur in="composite1" result="blur" stdDeviation="1.1"/><feOffset dx="1" dy="1" result="offset"/><feComposite in="SourceGraphic" in2="offset" result="composite2"/></filter><filter id="e-6" x="-.17333" y="-.16696" width="1.4123" height="1.3972" color-interpolation-filters="sRGB"><feFlood flood-opacity=".251" result="flood"/><feComposite in="flood" in2="SourceGraphic" operator="in" result="composite1"/><feGaussianBlur in="composite1" result="blur" stdDeviation="1.1"/><feOffset dx="1" dy="1" result="offset"/><feComposite in="SourceGraphic" in2="offset" result="composite2"/></filter><linearGradient id="a-9" x1="-10.232" x2="-7.618" y1="1398.7" y2="1416.3" gradientTransform="matrix(.94654 0 0 .94654 17.465 -1318.8)" gradientUnits="userSpaceOnUse"><stop stop-color="#a3cfff" offset="0"/><stop stop-color="#54a2f9" offset="1"/></linearGradient><linearGradient id="b-2" x1="36.553" x2="60.53" y1="845.73" y2="845.73" gradientTransform="matrix(0 -.94654 .94654 0 -771.68 59.737)" gradientUnits="userSpaceOnUse"><stop stop-color="#2e57a7" offset="0"/><stop stop-color="#4268be" offset=".132"/><stop stop-color="#366cca" offset=".898"/><stop stop-color="#2e57a7" offset="1"/></linearGradient></defs><path d="m1.8641 31.859h0.94489l0.25993-1.3081 0.67819-0.73238 0.71206 2.0405h0.97876l-0.99908-2.6289 1.6222-1.8356h-1.027l-1.6764 1.8356h-0.022014l0.36238-1.8356h-0.93643zm4.0395 0h0.93812l0.67735-3.396h-0.92966zm1.3293-3.9032c0.32766 0 0.58082-0.23199 0.58082-0.55373 0-0.29464-0.24554-0.45213-0.50631-0.45213-0.32174 0-0.58167 0.254-0.58167 0.55457 0 0.30057 0.25316 0.45213 0.50632 0.45213zm0.58844 2.5891c0 0.88309 0.57489 1.397 1.3276 1.397 0.53425 0 0.88393-0.20574 1.1371-0.39794l-0.39032-0.5749c-0.14394 0.11007-0.30819 0.22014-0.54103 0.22014-0.38355 0-0.57574-0.254-0.57574-0.66464 0-0.76032 0.43858-1.3902 0.97961-1.3902 0.1922 0 0.31496 0.0762 0.45213 0.21929l0.51986-0.55458a1.165 1.165 0 0 0-0.91018-0.41741c-1.1159 0-1.999 0.98553-1.999 2.1633zm2.9304 1.314h0.93812l0.16426-0.8145 0.55457-0.55458 0.51393 1.3691h0.93727l-0.80773-1.9101 1.3902-1.4859h-1.0414l-1.2802 1.3759h-0.02709l0.56135-2.7796h-0.93727zm3.4434-0.5749c0.2811 0.42419 0.80096 0.65702 1.2192 0.65702 0.82128 0 1.4097-0.45128 1.4097-1.1159 0-0.46567-0.30819-0.73238-0.71121-0.95167-0.27432-0.15748-0.56219-0.25993-0.56219-0.47245 0-0.1778 0.1778-0.32174 0.43858-0.32174 0.23961 0 0.43773 0.13716 0.60199 0.30819l0.51393-0.48599c-0.2811-0.29464-0.65025-0.52071-1.1159-0.52071-0.7256 0-1.3149 0.46567-1.3149 1.1091 0 0.42503 0.30142 0.7256 0.68496 0.93812 0.38355 0.21929 0.58844 0.30819 0.58844 0.50716 0 0.18458-0.21844 0.32174-0.47922 0.32174-0.24554 0-0.49277-0.13716-0.73238-0.42503zm3.1564-0.79418c0 0.90341 0.56812 1.4512 1.3902 1.4512 0.52663 0 0.94489-0.16426 1.2184-0.3556l-0.32851-0.58929c-0.17103 0.11684-0.41741 0.23961-0.62993 0.23961-0.44535 0-0.78741-0.23961-0.76032-0.80773h1.9304c0.05504-0.10245 0.17865-0.45128 0.17865-0.77386 0-0.70444-0.30142-1.2734-1.1091-1.2734-0.90341 0-1.8898 0.84922-1.8898 2.1091zm0.96521-0.6367c0.15071-0.49954 0.48599-0.75354 0.80773-0.75354 0.3429 0 0.4589 0.22606 0.4589 0.49954 0 0.09652-0.01355 0.18627-0.03387 0.254zm2.4308 0.69174c0 0.88309 0.57574 1.397 1.3284 1.397 0.53341 0 0.88308-0.20574 1.1362-0.39794l-0.38947-0.5749c-0.14394 0.11007-0.30904 0.22014-0.54187 0.22014-0.3827 0-0.5749-0.254-0.5749-0.66464 0-0.76032 0.43858-1.3902 0.97961-1.3902 0.19135 0 0.31496 0.0762 0.45128 0.21929l0.52071-0.55458a1.165 1.165 0 0 0-0.91103-0.41741c-1.1159 0-1.999 0.98553-1.999 2.1633zm6.4568-2.082h-0.93812l-0.43773 2.2386c-0.26755 0.30142-0.48007 0.43858-0.67819 0.43858-0.21929 0-0.34206-0.11684-0.34206-0.34883 0-0.08975 0.02032-0.18542 0.05419-0.32174l0.39794-2.0066h-0.93135l-0.42503 2.1226c-0.03387 0.17103-0.05503 0.32851-0.05503 0.47922 0 0.56812 0.24046 0.87631 0.8018 0.87631 0.41064 0 0.80096-0.254 1.1091-0.54103h0.02709l-0.01355 0.4589h0.75947zm0.20574 3.396h0.93812l0.38354-1.9643c0.2667-0.48007 0.5478-0.69258 0.84922-0.69258 0.10922 0 0.24554 0.0068 0.33528 0.05503l0.30819-0.80773c-0.0762-0.04149-0.18542-0.06858-0.3556-0.06858-0.39117 0-0.77471 0.31496-1.0414 0.73915h-0.02709l0.04064-0.65702h-0.75947zm2.6628-1.3691c0 0.90341 0.56812 1.4512 1.3902 1.4512 0.52664 0 0.94489-0.16426 1.2184-0.3556l-0.32851-0.58929c-0.17103 0.11684-0.41741 0.23961-0.62993 0.23961-0.44535 0-0.78741-0.23961-0.76032-0.80773h1.9304c0.05503-0.10245 0.17865-0.45128 0.17865-0.77386 0-0.70444-0.30142-1.2734-1.1091-1.2734-0.90341 0-1.8898 0.84922-1.8898 2.1091zm0.96521-0.6367c0.15071-0.49954 0.48599-0.75354 0.80773-0.75354 0.3429 0 0.4589 0.22606 0.4589 0.49954 0 0.09652-0.01355 0.18627-0.03387 0.254z" fill="#2e57a7" stroke-width=".84668" aria-label="Kicksecure"/><g transform="matrix(.84668 0 0 .84668 -.0003308 1.9252)" stroke-linecap="round" stroke-linejoin="round"><path d="m19.599 2.294c-0.613 0.79 0.026 2.371 0 3.817l-6.638 0.026a6.988 6.988 0 0 0 0 13.975h6.639c0.081 1.546-0.491 2.67 0 3.844l-6.638 0.457c-6.893 0-9.353-2.599-11.058-5.468-1.935-3.35-1.88-7.885 0.054-11.236 1.935-3.351 5.158-5.845 11.004-5.845z" fill="url(#a-9)" stroke="#2e57a7" stroke-width=".947" style="paint-order:fill markers stroke"/><path d="m3.132 10.668c-0.336-2.645 1.408-5.497 4.648-5.524-2 0.398-4.303 3.553-4.648 5.524z" fill="#fff" fill-rule="evenodd" stroke="#fff" stroke-width=".472"/><path d="m39.716 4.624v17.25c0 2.175-1.677 3.887-3.76 3.925l-16.892 0.315c-7.023-1.489-6.314-25.631 0-25.83l16.893 0.415c2.082 0.051 3.759 1.75 3.759 3.925z" fill="url(#b-2)" stroke="#2e57a6" stroke-width=".568" style="paint-order:fill markers stroke"/></g><g transform="matrix(.84668 0 0 .84668 -.0003308 1.9252)" fill-rule="evenodd"><path transform="matrix(.94654 0 0 .94654 17.633 -1318.8)" d="m14.312 1409-1.742 3.649 1.444 1.706c0.305 0.383 0.932 0.825 1.972 0.825h2.008c0.7 0 0.812-0.583 0.442-1z" fill="#a3cfff" filter="url(#c-5)"/><path transform="matrix(.94654 0 0 .94654 17.633 -1318.8)" d="m8.283 1398.9-3.21 2.087c-0.449 0.322-0.654 0.458-0.85 1.231l-1.165 9.957 6.205-12.647c0.311-0.723-0.618-0.97-0.98-0.628z" fill="#a3cfff" filter="url(#d-7)"/><path transform="matrix(.94654 0 0 .94654 17.633 -1318.8)" d="m16.844 1399.5-5.202 6.418-3.031-3.511-5.812 11.796c-0.214 0.766 0.82 1.023 1.098 0.642l5.113-6.112 2.967 3.598 5.949-12.158c0.338-0.693-0.55-1.37-1.082-0.673z" fill="#fff215" filter="url(#e-6)"/></g></svg>
