<svg width="40mm" height="133.988" viewBox="0 0 40 35.451" xmlns="http://www.w3.org/2000/svg"><defs><filter id="c" x="-.435" y="-.427" width="2.034" height="2.016" color-interpolation-filters="sRGB"><feFlood flood-color="#000" flood-opacity=".251" result="flood"/><feComposite in="flood" in2="SourceGraphic" operator="in" result="composite1"/><feGaussianBlur in="composite1" result="blur" stdDeviation="1.1"/><feOffset dx="1" dy="1" result="offset"/><feComposite in="SourceGraphic" in2="offset" result="composite2"/></filter><filter id="d" x="-.421" y="-.197" width="2.002" height="1.468" color-interpolation-filters="sRGB"><feFlood flood-color="#000" flood-opacity=".251" result="flood"/><feComposite in="flood" in2="SourceGraphic" operator="in" result="composite1"/><feGaussianBlur in="composite1" result="blur" stdDeviation="1.1"/><feOffset dx="1" dy="1" result="offset"/><feComposite in="SourceGraphic" in2="offset" result="composite2"/></filter><filter id="e" x="-.173" y="-.167" width="1.412" height="1.397" color-interpolation-filters="sRGB"><feFlood flood-color="#000" flood-opacity=".251" result="flood"/><feComposite in="flood" in2="SourceGraphic" operator="in" result="composite1"/><feGaussianBlur in="composite1" result="blur" stdDeviation="1.1"/><feOffset dx="1" dy="1" result="offset"/><feComposite in="SourceGraphic" in2="offset" result="composite2"/></filter><linearGradient id="a" x1="-10.232" x2="-7.618" y1="1398.7" y2="1416.3" gradientTransform="translate(17.465 -1318.8) scale(.94654)" gradientUnits="userSpaceOnUse"><stop stop-color="#a3cfff" offset="0"/><stop stop-color="#54a2f9" offset="1"/></linearGradient><linearGradient id="b" x1="36.553" x2="60.53" y1="845.73" y2="845.73" gradientTransform="matrix(0 -.94654 .94654 0 -771.68 59.737)" gradientUnits="userSpaceOnUse"><stop stop-color="#2e57a7" offset="0"/><stop stop-color="#4268be" offset=".132"/><stop stop-color="#366cca" offset=".898"/><stop stop-color="#2e57a7" offset="1"/></linearGradient></defs><path d="M2.202 35.354h1.116l.307-1.545.801-.865.841 2.41h1.156l-1.18-3.105 1.916-2.168H5.946l-1.98 2.168H3.94l.428-2.168H3.262zm4.771 0h1.108l.8-4.011H7.783zm1.57-4.61c.387 0 .686-.274.686-.654 0-.348-.29-.534-.598-.534-.38 0-.687.3-.687.655s.299.534.598.534zm.695 3.058c0 1.043.679 1.65 1.568 1.65.631 0 1.044-.243 1.343-.47l-.461-.679c-.17.13-.364.26-.639.26-.453 0-.68-.3-.68-.785 0-.898.518-1.642 1.157-1.642.227 0 .372.09.534.259l.614-.655a1.376 1.376 0 0 0-1.075-.493c-1.318 0-2.361 1.164-2.361 2.555zm3.461 1.552h1.108l.194-.962.655-.655.607 1.617h1.107l-.954-2.256 1.642-1.755h-1.23l-1.512 1.625h-.032l.663-3.283H13.84zm4.067-.679c.332.501.946.776 1.44.776.97 0 1.665-.533 1.665-1.318 0-.55-.364-.865-.84-1.124-.324-.186-.664-.307-.664-.558 0-.21.21-.38.518-.38.283 0 .517.162.711.364l.607-.574c-.332-.348-.768-.615-1.318-.615-.857 0-1.553.55-1.553 1.31 0 .502.356.857.809 1.108.453.259.695.364.695.599 0 .218-.258.38-.566.38-.29 0-.582-.162-.865-.502zm3.728-.938c0 1.067.671 1.714 1.642 1.714.622 0 1.116-.194 1.439-.42l-.388-.696c-.202.138-.493.283-.744.283-.526 0-.93-.283-.898-.954h2.28c.065-.121.211-.533.211-.914 0-.832-.356-1.504-1.31-1.504-1.067 0-2.232 1.003-2.232 2.491zm1.14-.752c.178-.59.574-.89.954-.89.405 0 .542.267.542.59 0 .114-.016.22-.04.3zm2.871.817c0 1.043.68 1.65 1.569 1.65.63 0 1.043-.243 1.342-.47l-.46-.679c-.17.13-.365.26-.64.26-.452 0-.679-.3-.679-.785 0-.898.518-1.642 1.157-1.642.226 0 .372.09.533.259l.615-.655a1.376 1.376 0 0 0-1.076-.493c-1.318 0-2.361 1.164-2.361 2.555zm7.626-2.459h-1.108l-.517 2.644c-.316.356-.567.518-.801.518-.259 0-.404-.138-.404-.412 0-.106.024-.219.064-.38l.47-2.37h-1.1l-.502 2.507c-.04.202-.065.388-.065.566 0 .671.284 1.035.947 1.035.485 0 .946-.3 1.31-.639h.032l-.016.542h.897zm.243 4.011h1.108l.453-2.32c.315-.567.647-.818 1.003-.818.129 0 .29.008.396.065l.364-.954c-.09-.049-.219-.081-.42-.081-.462 0-.915.372-1.23.873h-.032l.048-.776h-.897zm3.145-1.617c0 1.067.671 1.714 1.642 1.714.622 0 1.116-.194 1.439-.42l-.388-.696c-.202.138-.493.283-.744.283-.526 0-.93-.283-.898-.954h2.28c.065-.121.211-.533.211-.914 0-.832-.356-1.504-1.31-1.504-1.067 0-2.232 1.003-2.232 2.491zm1.14-.752c.178-.59.574-.89.954-.89.405 0 .542.267.542.59 0 .114-.016.22-.04.3z" fill="#2e57a7" aria-label="Kicksecure"/><g stroke-linecap="round" stroke-linejoin="round"><path d="M19.599 2.294c-.613.79.026 2.371 0 3.817l-6.638.026a6.988 6.988 0 0 0 0 13.975v0H19.6c.081 1.546-.491 2.67 0 3.844l-6.638.457c-6.893 0-9.353-2.599-11.058-5.468-1.935-3.35-1.88-7.885.054-11.236 1.935-3.351 5.158-5.845 11.004-5.845z" fill="url(#a)" stroke="#2e57a7" stroke-width=".947" style="paint-order:fill markers stroke"/><path d="M3.132 10.668C2.796 8.023 4.54 5.171 7.78 5.144c-2 .398-4.303 3.553-4.648 5.524z" fill="#fff" fill-rule="evenodd" stroke="#fff" stroke-width=".472"/><path d="M39.716 4.624v17.25c0 2.175-1.677 3.887-3.76 3.925l-16.892.315c-7.023-1.489-6.314-25.631 0-25.83l16.893.415c2.082.051 3.759 1.75 3.759 3.925z" fill="url(#b)" stroke="#2e57a6" stroke-width=".568" style="paint-order:fill markers stroke"/></g><g fill-rule="evenodd"><path d="m14.312 1409-1.742 3.649 1.444 1.706c.305.383.932.825 1.972.825h2.008c.7 0 .812-.583.442-1z" fill="#a3cfff" filter="url(#c)" transform="translate(17.633 -1318.8) scale(.94654)"/><path d="m8.283 1398.9-3.21 2.087c-.449.322-.654.458-.85 1.231l-1.165 9.957 6.205-12.647c.311-.723-.618-.97-.98-.628z" fill="#a3cfff" filter="url(#d)" transform="translate(17.633 -1318.8) scale(.94654)"/><path d="m16.844 1399.5-5.202 6.418-3.031-3.511-5.812 11.796c-.214.766.82 1.023 1.098.642l5.113-6.112 2.967 3.598 5.949-12.158c.338-.693-.55-1.37-1.082-.673z" fill="#fff215" filter="url(#e)" transform="translate(17.633 -1318.8) scale(.94654)"/></g></svg>