<?xml version="1.0" encoding="UTF-8"?>
<!-- Created with Inkscape (http://www.inkscape.org/) -->
<svg width="128" height="128" version="1.1" viewBox="0 0 128 128" xmlns="http://www.w3.org/2000/svg">
 <path transform="matrix(-.87465 0 0 .87465 120.75 8.0741)" d="m94.992-0.066849c18.715-0.044873 33.956 15.196 33.911 33.911-0.04486 18.715-15.321 33.989-34.036 34.034l-8.4141 0.020097 0.017864-0.002233c-6e-3 1.4e-5 -0.007498-1.3e-5 -0.013398 0h-0.002233c-7.6468 0.017388-14.32 0.032773-17.572 0.040195-0.009725 4.4623-0.040839 18.807-0.058059 25.984-0.044878 18.715-15.319 33.991-34.034 34.036-18.715 0.04487-33.956-15.196-33.911-33.911 0.044867-18.715 15.321-33.989 34.036-34.034 2.1936-0.00527 4.5166-0.010064 7.9407-0.017864 7.7782-0.017708 14.744-0.032937 18.041-0.040195 0.009726-4.4623 0.040848-18.807 0.058059-25.984 0.04487-18.715 15.321-33.991 34.036-34.036zm0.020097 8.0055c-1.103 0.0026456-2.187 0.081744-3.2535 0.2166v28.826h28.936c0.12707-1.0356 0.20064-2.0878 0.20321-3.1575 0.0345-14.39-11.496-25.92-25.885-25.885zm-11.259 2.5702c-8.739 4.2031-14.767 13.124-14.792 23.478-0.01718 7.1648-0.048059 21.454-0.058059 25.946 4.4917-0.0099 18.779-0.040849 25.943-0.058059 10.391-0.024925 19.338-6.0976 23.523-14.888h-34.617v-34.478zm-22.873 57.447c-4.4931 0.00995-18.781 0.040851-25.946 0.058059-10.529 0.025256-19.571 6.2614-23.681 15.241h34.474v34.264c8.9016-4.1421 15.07-13.146 15.095-23.619 0.01719-7.1648 0.048059-21.452 0.058059-25.943zm-23.157 23.3h-28.679c-0.10066 0.92285-0.15627 1.8597-0.15855 2.8092-0.034516 14.39 11.496 25.92 25.885 25.885 0.99889-0.00239 1.9828-0.06749 2.9521-0.17864v-28.516z" color="#000000" fill="#35b9ab" fill-rule="evenodd" stroke-linecap="square" style="-inkscape-stroke:none"/>
</svg>
