<?xml version="1.0" encoding="UTF-8" standalone="no"?>
<!-- Created with Inkscape (http://www.inkscape.org/) -->

<svg
   width="448"
   height="448"
   viewBox="0 0 448 448"
   version="1.1"
   id="svg1"
   xml:space="preserve"
   xmlns:xlink="http://www.w3.org/1999/xlink"
   xmlns="http://www.w3.org/2000/svg"
   xmlns:svg="http://www.w3.org/2000/svg"><defs
     id="defs1"><linearGradient
       id="linearGradient10"
       x1="119.00664"
       y1="9.9706745"
       x2="9.8707094"
       y2="118.384"
       gradientUnits="userSpaceOnUse"
       gradientTransform="matrix(1.1666666,0,0,1.1666666,-10.666666,-10.666666)"
       spreadMethod="pad"><stop
         stop-color="#76C9F6"
         id="stop6"
         offset="0"
         style="stop-color:#3dc7f5;stop-opacity:1;" /><stop
         stop-color="#76C9F6"
         id="stop7"
         offset="0.25"
         style="stop-color:#0da6f2;stop-opacity:1;" /><stop
         stop-color="#76C9F6"
         id="stop8"
         offset="0.5"
         style="stop-color:#5f82c9;stop-opacity:1;" /><stop
         stop-color="#76C9F6"
         id="stop9"
         offset="0.75"
         style="stop-color:#7259a6;stop-opacity:1;" /><stop
         offset="1"
         stop-color="#715680"
         id="stop10"
         style="stop-color:#744e74;stop-opacity:1;" /></linearGradient><linearGradient
       xlink:href="#linearGradient10"
       id="linearGradient6"
       x1="367.99997"
       y1="62.010296"
       x2="143.99998"
       y2="449.98965"
       gradientUnits="userSpaceOnUse"
       gradientTransform="matrix(1,0,0,0.97816594,-32,-31.30131)" /><filter
       style="color-interpolation-filters:sRGB"
       id="filter40"
       x="-0.024489796"
       y="-0.01875"
       width="1.0693878"
       height="1.0609375"><feFlood
         result="flood"
         in="SourceGraphic"
         flood-opacity="0.75"
         flood-color="rgb(64,0,128)"
         id="feFlood39" /><feGaussianBlur
         result="blur"
         in="SourceGraphic"
         stdDeviation="2.000000"
         id="feGaussianBlur39" /><feOffset
         result="offset"
         in="blur"
         dx="4.000000"
         dy="6.000000"
         id="feOffset39" /><feComposite
         result="comp1"
         operator="in"
         in="flood"
         in2="offset"
         id="feComposite39" /><feComposite
         result="comp2"
         operator="over"
         in="SourceGraphic"
         in2="comp1"
         id="feComposite40" /></filter></defs><path
     id="rect32-2"
     style="display:inline;fill:#7a4f7b;fill-opacity:1;stroke-width:1.33345"
     d="M 10.226928,212.286 C 10.164833,214.49216 0,220.55304 0,222.77506 0,347.54967 98.566,448 221,448 h 6 c 122.434,0 221,-100.45033 221,-225.22494 0,-2.22202 -16.24004,-3.47394 -16.30213,-5.6801 C 428.27178,340.46667 345.91556,421.48738 224,421.48738 102.08444,421.48738 13.653019,335.65771 10.226928,212.286 Z" /><rect
     style="opacity:1;fill:url(#linearGradient6);fill-opacity:1;stroke-width:1.1203;stroke-linecap:round;stroke-linejoin:round"
     id="rect4"
     width="448"
     height="438.21835"
     x="0"
     y="0"
     ry="219.10918" /><g
     id="g10"
     style="filter:url(#filter40)"
     transform="matrix(1,0,0,0.97816594,-32,-31.30131)"><path
       d="m 184.50002,383.99994 c -6.73728,0 -12.50712,-2.38932 -17.30912,-7.168 -4.802,-4.77864 -7.19881,-10.51631 -7.19088,-17.21292 V 237.71429 c 0,-6.70501 2.40101,-12.44637 7.203,-17.22505 4.802,-4.77865 10.56768,-7.16426 17.297,-7.15592 h 12.25001 V 188.9524 c 0,-16.86372 5.97379,-31.24014 17.92183,-43.1297 11.9476,-11.89 26.39048,-17.83059 43.32816,-17.82269 16.94556,0 31.39264,5.94478 43.34023,17.83478 11.94808,11.88954 17.9177,26.26222 17.90972,43.11761 v 24.38092 h 12.25001 c 6.73727,0 12.50712,2.38935 17.30912,7.16798 4.802,4.77869 7.19881,10.51635 7.19088,17.21299 v 121.90473 c 0,6.70451 -2.40101,12.44636 -7.20301,17.22503 -4.802,4.77864 -10.56768,7.16378 -17.29699,7.15593 z m 73.5,-60.95235 c 6.73724,0 12.50711,-2.38932 17.30911,-7.168 4.80201,-4.77869 7.19881,-10.51631 7.19086,-17.21297 0,-6.70498 -2.40101,-12.44632 -7.20301,-17.22499 -4.802,-4.77869 -10.56765,-7.1643 -17.29696,-7.15593 -6.73777,0 -12.50715,2.38933 -17.30916,7.16801 -4.802,4.77867 -7.1988,10.5163 -7.19085,17.21291 0,6.70454 2.40101,12.44636 7.20301,17.22505 4.802,4.77867 10.56763,7.1638 17.297,7.15592 z m -36.75,-109.71427 h 73.49995 V 188.9524 c 0,-10.15874 -3.57279,-18.79377 -10.71883,-25.90466 -7.1456,-7.11136 -15.8228,-10.66679 -26.03112,-10.66679 -10.20836,0 -18.88556,3.55543 -26.03117,10.66679 -7.14603,7.11089 -10.71883,15.74592 -10.71883,25.90466 z"
       fill="#f4f5ff"
       id="path2"
       style="display:inline;fill:#e5e5ff;fill-opacity:1;stroke-width:4.65526" /></g></svg>
