<svg xmlns="http://www.w3.org/2000/svg" viewBox="0 0 128 128"><path fill="#ffc019" d="M23.04 2.56c-11.508.055-20.48 9.027-20.48 20.48v81.92c0 11.673 8.972 20.48 20.48 20.48h20.48V92.16h40.96l-.108-30.633-40.853.215V35.839h40.96V2.56H23.036Z"/><path fill="#1872a2" d="M104.96 125.441c11.508 0 20.59-8.916 20.48-20.48V23.042c.1-11.541-9.046-20.48-20.48-20.48H84.48v33.28H43.52v28.16h40.96v28.16H43.52v33.28h61.441Z"/><path fill="none" stroke="#000" stroke-linecap="round" stroke-linejoin="round" stroke-width="5.12" d="M84.482 2.56v33.28h-40.96V64m40.96 0v28.16h-40.96v33.28"/><path fill="none" stroke="#000" stroke-linecap="round" stroke-linejoin="round" stroke-width="5.12" d="M23.04 2.56h81.918c11.311 0 20.48 9.17 20.48 20.48v81.918c0 11.311-9.169 20.48-20.48 20.48H23.04c-11.31 0-20.48-9.169-20.48-20.48V23.04c0-11.31 9.17-20.48 20.48-20.48Z"/><path fill="none" d="M22.035 2.56h83.929c10.755 0 19.475 8.72 19.475 19.476v22.542c0 10.756-8.72 19.476-19.475 19.476h-83.93c-10.755 0-19.474-8.72-19.474-19.476V22.036C2.56 11.28 11.28 2.56 22.035 2.56ZM22.035 125.441h83.929c10.755 0 19.475-8.687 19.475-19.404V83.575c0-10.717-8.72-19.405-19.475-19.405h-83.93C11.28 64.17 2.56 72.858 2.56 83.575v22.462c0 10.717 8.72 19.404 19.475 19.404Z"/><linearGradient id="a" x1="58.714" x2="70.659" y1="-1.227" y2="37.471" gradientUnits="userSpaceOnUse"><stop offset="0" stop-color="#fff" stop-opacity=".744"/><stop offset="1" stop-color="#fff" stop-opacity="0"/></linearGradient><filter id="b" width="128" height="128" x="0" y="0" color-interpolation-filters="sRGB" filterUnits="userSpaceOnUse" primitiveUnits="userSpaceOnUse"><feGaussianBlur stdDeviation="1.22"/></filter><path fill="url(#a)" d="M19.92-1.227c-3.062 0-5.946.448-8.531 1.227h11.654C10.885 0 .926 9.43.07 21.371v1.205c0 6.97 8.852 12.582 19.85 12.582h88.16c10.998 0 19.85-5.611 19.85-12.582V21.32C127.05 9.403 117.104 0 104.963 0h11.65c-2.585-.778-5.47-1.226-8.532-1.226H19.92Z" filter="url(#b)"/><linearGradient id="c" x1="69.089" x2="57.65" y1="125.276" y2="93.395" gradientUnits="userSpaceOnUse"><stop offset="0" stop-opacity=".5"/><stop offset="1" stop-color="#818080" stop-opacity="0"/></linearGradient><filter id="d" width="128" height="128" x="0" y="0" color-interpolation-filters="sRGB" filterUnits="userSpaceOnUse" primitiveUnits="userSpaceOnUse"><feGaussianBlur stdDeviation="1.457"/></filter><path fill="url(#c)" d="M21.566 97.022h85.002c9.673 0 17.515 6.325 17.515 14.127 0 7.802-7.842 14.127-17.515 14.127H21.566c-9.673 0-17.515-6.325-17.515-14.127 0-7.802 7.842-14.127 17.515-14.127Z" filter="url(#d)" opacity=".567"/></svg>