<?xml version="1.0" encoding="utf-8"?>
<svg viewBox="250 250 128 128" fill="none" xmlns="http://www.w3.org/2000/svg">
  <path fill="#876ECB" d="M 331.827 309.434 C 320.781 309.434 311.827 318.388 311.827 329.434 C 311.831 330.805 310.921 332.012 309.602 332.387 C 302.385 334.415 294.36 336.292 288.461 337.597 C 288.155 337.666 287.841 337.689 287.529 337.664 L 282.827 337.664 L 282.827 333.434 L 285.203 333.434 C 285.317 333.21 285.464 332.992 285.646 332.784 L 292.926 324.464 C 286.167 319.338 281.827 311.375 281.827 302.434 C 281.827 288.956 291.69 277.702 304.827 275.034 L 304.827 274.434 L 311.827 274.434 L 311.827 274.45 C 327.38 274.96 339.827 287.294 339.827 302.434 C 339.827 303.527 339.762 304.604 339.637 305.664 C 339.368 307.914 337.337 309.434 335.072 309.434 L 331.827 309.434 Z" transform="matrix(1, 0, 0, 1, -5.684341886080802e-14, 0)"/>
  <path fill="#C7B9EE" d="M 331.827 309.434 C 320.579 309.434 312.197 318.614 311.839 329.474 C 311.825 329.904 311.552 330.288 311.142 330.421 C 302.699 333.165 291.234 335.877 283.462 337.598 C 280.663 338.218 278.758 334.941 280.646 332.784 L 285.807 326.886 C 286.952 325.576 286.736 323.58 285.476 322.381 C 280.136 317.304 276.827 310.241 276.827 302.434 C 276.827 286.97 289.811 274.434 305.827 274.434 C 321.843 274.434 334.827 286.97 334.827 302.434 C 334.827 304.851 334.51 307.197 333.913 309.434 L 331.827 309.434 Z" transform="matrix(1, 0, 0, 1, -5.684341886080802e-14, 0)"/>
  <path fill="#fff" fill-rule="evenodd" d="M 296.827 302.434 C 296.827 306.283 292.66 308.688 289.327 306.764 C 287.78 305.871 286.827 304.22 286.827 302.434 C 286.827 298.585 290.993 296.179 294.327 298.104 C 295.874 298.997 296.827 300.647 296.827 302.434 Z M 310.827 302.434 C 310.827 306.283 306.66 308.688 303.327 306.764 C 301.78 305.871 300.827 304.22 300.827 302.434 C 300.827 298.585 304.993 296.179 308.327 298.104 C 309.874 298.997 310.827 300.647 310.827 302.434 Z M 319.827 307.434 C 323.676 307.434 326.081 303.267 324.157 299.934 C 323.264 298.387 321.613 297.434 319.827 297.434 C 315.978 297.434 313.572 301.6 315.496 304.934 C 316.39 306.481 318.04 307.434 319.827 307.434 Z" clip-rule="evenodd" transform="matrix(1, 0, 0, 1, -5.684341886080802e-14, 0)"/>
  <path fill="#CCC" d="M 353.328 317.434 C 353.626 317.434 353.923 317.554 354.151 317.788 C 354.605 318.256 354.605 319.018 354.151 319.486 L 351.818 321.886 C 351.367 322.354 350.618 322.354 350.168 321.886 C 349.713 321.411 349.713 320.662 350.168 320.188 L 352.501 317.788 C 352.728 317.554 353.025 317.434 353.323 317.434 L 353.328 317.434 L 353.328 317.434 Z M 352.162 328.232 L 355.661 328.232 C 356.302 328.232 356.827 328.772 356.827 329.432 C 356.827 330.092 356.302 330.632 355.661 330.632 L 352.162 330.632 C 351.521 330.632 350.996 330.092 350.996 329.432 C 350.996 328.772 351.521 328.232 352.162 328.232 Z M 350.18 336.986 C 350.407 336.752 350.705 336.632 351.002 336.632 L 351.008 336.632 C 351.305 336.632 351.603 336.752 351.83 336.986 L 354.162 339.386 C 354.617 339.853 354.617 340.616 354.162 341.083 C 353.711 341.551 352.962 341.551 352.512 341.083 L 350.18 338.683 C 349.725 338.208 349.725 337.46 350.18 336.986 Z" transform="matrix(1, 0, 0, 1, -5.684341886080802e-14, 0)"/>
  <rect width="32" height="32" x="315.827" y="313.434" fill="#DE5833" rx="16" transform="matrix(1, 0, 0, 1, -5.684341886080802e-14, 0)"/>
  <path fill="#fff" fill-rule="evenodd" d="M 331.827 315.478 C 324.119 315.478 317.871 321.726 317.871 329.434 C 317.871 337.141 324.119 343.39 331.827 343.39 C 339.534 343.39 345.783 337.141 345.783 329.434 C 345.783 321.726 339.534 315.478 331.827 315.478 Z M 319.783 329.434 C 319.783 322.782 325.175 317.39 331.827 317.39 C 338.478 317.39 343.871 322.782 343.871 329.434 C 343.871 335.326 339.639 340.23 334.049 341.274 C 332.597 337.938 331.083 333.944 332.564 333.502 C 330.801 330.322 331.158 328.234 334.818 328.878 L 334.823 328.878 C 335.233 328.925 335.544 328.96 335.641 328.898 C 336.137 328.583 335.83 321.656 331.527 320.716 C 327.567 315.816 323.797 321.404 325.71 321.022 C 327.239 320.64 328.375 320.992 328.322 321.008 C 321.567 321.86 324.708 332.503 326.442 338.377 C 326.653 339.079 326.855 339.785 327.048 340.493 C 322.773 338.643 319.783 334.388 319.783 329.434 L 319.783 329.434 Z" clip-rule="evenodd" transform="matrix(1, 0, 0, 1, -5.684341886080802e-14, 0)"/>
  <path fill="#4CBA3C" d="M 337.117 339.524 C 337.074 339.798 336.98 339.981 336.811 340.006 C 336.492 340.056 335.064 339.728 334.251 339.419 C 334.159 339.844 331.983 340.246 331.638 339.676 C 330.848 340.358 329.336 341.349 329.019 341.141 C 328.414 340.745 327.844 337.691 328.299 337.045 C 328.992 336.415 330.449 337.1 331.47 337.462 C 331.817 336.876 333.494 336.654 333.842 337.135 C 334.759 336.438 336.29 335.455 336.439 335.634 C 337.184 336.531 337.278 338.664 337.117 339.524 Z" transform="matrix(1, 0, 0, 1, -5.684341886080802e-14, 0)"/>
  <path fill="#FC3" fill-rule="evenodd" d="M 329.357 330.304 C 329.668 328.088 333.853 328.781 335.725 328.532 C 336.77 328.414 337.795 328.16 338.775 327.777 C 340.322 327.141 340.586 327.772 339.829 328.762 C 337.693 331.295 332.94 329.452 332.089 330.762 C 331.841 331.15 332.033 332.063 333.988 332.351 C 336.628 332.739 338.798 331.883 339.067 332.401 C 338.464 335.165 328.437 334.224 329.355 330.304 L 329.356 330.304 L 329.357 330.304 Z" clip-rule="evenodd" transform="matrix(1, 0, 0, 1, -5.684341886080802e-14, 0)"/>
  <path fill="#14307E" d="M 334.698 323.914 C 334.421 323.314 332.998 323.318 332.726 323.89 C 332.701 324.008 332.801 323.977 332.989 323.918 C 333.32 323.814 333.927 323.623 334.625 323.996 C 334.68 324.02 334.734 323.963 334.698 323.913 L 334.698 323.914 Z M 327.744 324.057 C 327.48 324.038 327.051 324.007 326.696 324.204 C 326.176 324.426 326.008 324.664 325.908 324.828 C 325.871 324.888 325.727 324.882 325.727 324.811 C 325.762 323.857 327.38 323.397 327.968 323.99 C 328.04 324.079 327.935 324.071 327.744 324.057 Z M 334.191 327.256 C 333.103 327.251 333.103 325.572 334.191 325.566 C 335.281 325.572 335.281 327.251 334.191 327.256 Z M 328.674 326.996 C 328.653 328.29 326.754 328.29 326.734 326.996 C 326.739 325.707 328.668 325.708 328.674 326.996 Z" transform="matrix(1, 0, 0, 1, -5.684341886080802e-14, 0)"/>
</svg>