<svg fill="none" viewBox="0 0 96 96" xmlns="http://www.w3.org/2000/svg"><path fill="#876ECB" d="M71 51c-11.046 0-20 8.954-20 20a3.06 3.06 0 0 1-2.225 2.953c-7.217 2.028-15.242 3.905-21.141 5.21a3.095 3.095 0 0 1-.932.067H22V75h2.376c.114-.224.261-.442.443-.65l7.28-8.32C25.34 60.904 21 52.941 21 44c0-13.478 9.863-24.732 23-27.4V16h7v.016C66.553 16.526 79 28.86 79 44c0 1.093-.065 2.17-.19 3.23-.269 2.25-2.3 3.77-4.565 3.77H71Z"></path><path fill="#C7B9EE" d="M71 51c-11.248 0-19.63 9.18-19.988 20.04-.014.43-.287.814-.697.947-8.443 2.744-19.908 5.456-27.68 7.177-2.799.62-4.704-2.657-2.816-4.814l5.161-5.898c1.145-1.31.929-3.306-.331-4.505C19.309 58.87 16 51.807 16 44c0-15.464 12.984-28 29-28s29 12.536 29 28c0 2.417-.317 4.763-.914 7H71Z"></path><path fill="#fff" fill-rule="evenodd" d="M36 44a5 5 0 1 1-10 0 5 5 0 0 1 10 0Zm14 0a5 5 0 1 1-10 0 5 5 0 0 1 10 0Zm9 5a5 5 0 1 0 0-10 5 5 0 0 0 0 10Z" clip-rule="evenodd"></path><path fill="#CCC" d="M92.501 59c.298 0 .595.12.823.354.454.468.454 1.23 0 1.698l-2.333 2.4a1.145 1.145 0 0 1-1.65 0 1.227 1.227 0 0 1 0-1.698l2.333-2.4c.227-.234.524-.354.822-.354h.005Zm-1.166 10.798h3.499c.641 0 1.166.54 1.166 1.2 0 .66-.525 1.2-1.166 1.2h-3.499c-.641 0-1.166-.54-1.166-1.2 0-.66.525-1.2 1.166-1.2Zm-1.982 8.754c.227-.234.525-.354.822-.354h.006c.297 0 .595.12.822.354l2.332 2.4c.455.467.455 1.23 0 1.697a1.145 1.145 0 0 1-1.65 0l-2.332-2.4a1.227 1.227 0 0 1 0-1.697Z"></path><rect width="32" height="32" x="55" y="55" fill="#DE5833" rx="16"></rect><path fill="#fff" fill-rule="evenodd" d="M71 57.044c-7.708 0-13.956 6.248-13.956 13.956 0 7.707 6.248 13.956 13.956 13.956 7.707 0 13.956-6.249 13.956-13.956 0-7.708-6.249-13.956-13.956-13.956ZM58.956 71c0-6.652 5.392-12.044 12.044-12.044 6.651 0 12.044 5.392 12.044 12.044 0 5.892-4.232 10.796-9.822 11.84-1.452-3.336-2.966-7.33-1.485-7.772-1.763-3.18-1.406-5.268 2.254-4.624h.005c.41.047.721.082.818.02.496-.315.189-7.242-4.114-8.182-3.96-4.9-7.73.688-5.817.306 1.529-.382 2.665-.03 2.612-.014-6.755.852-3.614 11.495-1.88 17.369a82.9 82.9 0 0 1 .606 2.116c-4.275-1.85-7.265-6.105-7.265-11.059Z" clip-rule="evenodd"></path><path fill="#4CBA3C" d="M76.29 81.09c-.043.274-.137.457-.306.482-.319.05-1.747-.278-2.56-.587-.092.425-2.268.827-2.613.257-.79.682-2.302 1.673-2.619 1.465-.605-.396-1.175-3.45-.72-4.096.693-.63 2.15.055 3.171.417.347-.586 2.024-.808 2.372-.327.917-.697 2.448-1.68 2.597-1.501.745.897.839 3.03.678 3.89Z"></path><path fill="#FC3" fill-rule="evenodd" d="M68.53 71.87c.311-2.216 4.496-1.523 6.368-1.772a12.11 12.11 0 0 0 3.05-.755c1.547-.636 1.811-.005 1.054.985-2.136 2.533-6.889.69-7.74 2-.248.388-.056 1.301 1.899 1.589 2.64.388 4.81-.468 5.079.05-.603 2.764-10.63 1.823-9.712-2.097h.001Z" clip-rule="evenodd"></path><path fill="#14307E" d="M73.871 65.48c-.277-.6-1.7-.596-1.972-.024-.025.118.075.087.263.028.331-.104.938-.295 1.636.078.055.024.109-.033.073-.083Zm-6.954.143c-.264-.019-.693-.05-1.048.147-.52.222-.688.46-.788.624-.037.06-.181.054-.181-.017.035-.954 1.653-1.414 2.241-.821.072.089-.033.081-.224.067Zm6.447 3.199c-1.088-.005-1.088-1.684 0-1.69 1.09.006 1.09 1.685 0 1.69Zm-5.517-.26c-.021 1.294-1.92 1.294-1.94 0 .005-1.289 1.934-1.288 1.94 0Z"></path></svg>