<?xml version="1.0" encoding="UTF-8"?>
<svg width="128" height="128" version="1.1" viewBox="0 0 33.867 33.867" xmlns="http://www.w3.org/2000/svg"><g transform="matrix(.82602 0 0 .82602 -9.9122 -9.9122)"><path d="m14.75 13c-1.5235 0-2.75 1.2746-2.75 2.8574v30c0 4.2857 5.5 7.1426 8.25 7.1426h2.75v-37.143c0-1.5829-1.2265-2.8574-2.75-2.8574zm14.092 0c-1.5745 0-2.8418 1.2265-2.8418 2.75v5.5c0 1.5235 1.2673 2.75 2.8418 2.75h17.053c4.2632 0 7.1055-5.5 7.1055-8.25v-2.75h-7.1055zm-1.5215 14a1.2913 1.1415 0 0 0-1.3203 1.1426v14.719a1.2913 1.1415 0 0 0 1.9355 0.98633l7.2109-3.6797 7.209-3.6797a1.2913 1.1415 0 0 0 0-1.9766l-7.209-3.6777-7.2109-3.6797a1.2913 1.1415 0 0 0-0.61524-0.1543z" opacity=".1"/><path d="m14.75 12c-1.5235 0-2.75 1.2743-2.75 2.8571v30c0 4.2857 5.5 7.1429 8.25 7.1429h2.75v-37.143c0-1.5829-1.2265-2.8571-2.75-2.8571z" fill="#f04242"/><path d="m26 20.25c0 1.5235 1.2676 2.75 2.8421 2.75h17.053c4.2632 0 7.1053-5.5 7.1053-8.25v-2.75h-24.158c-1.5745 0-2.8421 1.2265-2.8421 2.75z" fill="#f04242"/><path d="m27.321 26a1.2913 1.1415 0 0 0-1.3213 1.1426v14.718a1.2913 1.1415 0 0 0 1.9361 0.98692l14.419-7.3588a1.2913 1.1415 0 0 0 0-1.9762l-14.419-7.3588a1.2913 1.1415 0 0 0-0.61487-0.15331z" fill="#14a4df"/></g></svg>
