<svg xmlns="http://www.w3.org/2000/svg" width="128" height="128" version="1.1" viewBox="0 0 33.867 33.867"><defs><filter id="filter4433" width="1.192" height="1.264" x="-.096" y="-.109" color-interpolation-filters="sRGB"><feFlood flood-color="#000" flood-opacity=".2" result="flood"/><feComposite in="flood" in2="SourceGraphic" operator="in" result="composite1"/><feGaussianBlur in="composite1" result="blur" stdDeviation="4"/><feOffset dx="0" dy="4" result="offset"/><feComposite in="SourceGraphic" in2="offset" result="composite2"/></filter><radialGradient id="radialGradient4453" cx=".56" cy=".357" r="88" gradientTransform="matrix(.0002015 .32873 -.3322 .00020362 2.4877 1.6458)" gradientUnits="userSpaceOnUse"><stop offset="0" stop-color="#fff" stop-opacity=".1"/><stop offset="1" stop-color="#fff" stop-opacity="0"/></radialGradient></defs><circle cx="15.715" cy="17.542" r="0" fill="#ff5252" stroke-width=".282"/><circle cx="96" cy="96" r="88" fill="#ff7575" filter="url(#filter4433)" transform="matrix(.15228 0 0 .15228 2.3146 1.7055)"/><path fill="#cc4242" d="M 184,96 A 88,88 0 0 1 96.123,184 88,88 0 0 1 8,96.246" filter="url(#filter4433)" transform="matrix(.15228 0 0 .15228 2.3146 1.7055)"/><ellipse cx="96" cy="96" fill="#cd201f" filter="url(#filter4433)" rx="88" ry="87" transform="matrix(.15228 0 0 .15228 2.3146 1.7055)"/><circle cx="16.934" cy="16.328" r="13.4" fill="url(#radialGradient4453)" fill-rule="evenodd" stroke-width=".282"/><path fill="#fff" fill-rule="evenodd" d="m62.038 154.85 17.847-11.376 0.3733-75.406 45.925 27.267-33.233 19.163v21.928l69.034-41.091-100.04-58.795z" filter="url(#filter4433)" transform="matrix(.15228 0 0 .15228 2.3146 1.7055)"/></svg>