<?xml version="1.0" encoding="UTF-8"?>
<svg width="128" height="128" version="1.1" viewBox="0 0 33.867 33.867" xmlns="http://www.w3.org/2000/svg"><path d="m16.955 3.3333e-7c7.3719 0 13.643 4.712 15.968 11.289l-9.6579-7e-5c-1.5501-1.732-3.8027-2.822-6.3098-2.822-4.6754 0-8.4656 3.7906-8.4656 8.4667 0 4.676 3.7902 8.4667 8.4656 8.4667 2.5071 0 4.7597-1.09 6.3098-2.822h9.6579c-2.3243 6.5768-8.5958 11.289-15.968 11.289-9.3509 0-16.931-7.5813-16.931-16.933 0-9.352 7.5804-16.933 16.931-16.933zm8.3962 18.07 8.4908-5e-5a16.843 16.843 0 0 1-0.30125 2.2497h-8.8186a8.3638 8.3638 0 0 0 0.62898-2.2497zm8.1896-4.5237a16.844 16.844 0 0 1 0.30125 2.2497l-8.4908-5e-5a8.3641 8.3641 0 0 0-0.62895-2.2497z" fill-rule="evenodd" style="fill:#fff;stroke-width:.02419"/></svg>
