<?xml version="1.0" encoding="UTF-8"?>
<svg width="384" height="128" version="1.1" viewBox="0 0 101.6 33.867" xmlns="http://www.w3.org/2000/svg" xmlns:xlink="http://www.w3.org/1999/xlink"><defs><clipPath id="SVGID_00000140003451983195915110000008846600704509140387_"><use xlink:href="#SVGID_1_"/></clipPath><radialGradient id="SVGID_00000183963541918971408870000002293601226789278115_" cx="2092.7" cy="788.12" r="1" gradientTransform="matrix(-601.25 1228.6 1911.4 935.41 -247446 -3308620)" gradientUnits="userSpaceOnUse"><stop stop-color="#FF62C0" stop-opacity="0" offset=".5561"/><stop stop-color="#FF62C0" offset=".9944"/></radialGradient><linearGradient id="SVGID_00000115499004346489928520000013844947264405007011_" x1="-12.632" x2="1173" y1="1195.6" y2="-107.33" gradientTransform="matrix(1,0,0,-1,0,786)" gradientUnits="userSpaceOnUse"><stop stop-color="#6D4AFF" offset="0"/><stop stop-color="#AE8CFF" offset=".3593"/><stop stop-color="#F8CCFF" offset="1"/></linearGradient><rect id="SVGID_1_" width="4796" height="785"/></defs><g transform="matrix(.021185 0 0 .021185 9.5959e-5 8.6195)"><clipPath><use xlink:href="#SVGID_1_"/></clipPath><g clip-path="url(#SVGID_00000140003451983195915110000008846600704509140387_)"><g fill="#6d4aff"><path class="st1" d="m3651.8 181.4c36.7 20.3 67.1 50.2 88 86.6 20.7 37.2 31.6 79.1 31.6 121.7s-10.9 84.5-31.6 121.7c-20.8 36.6-51.3 66.7-88 87.1-39.3 21.6-83.6 32.5-128.4 31.6h-158.1v-480.4h158.1c44.8-0.9 89.1 10.1 128.4 31.7zm-123.1 363.1c26.8 0.5 53.2-6.4 76.4-19.9 23.1-13.5 42.1-33.2 54.8-56.7 12.7-24.1 19.4-50.9 19.4-78.1s-6.6-54-19.4-78.1c-12.5-23-30.9-42.2-53.5-55.6-23.5-13.9-50.4-20.9-77.8-20.5h-73.2v308.3z"/><path class="st1" d="m3810.8 434.7c-1.6-37.7 11.4-74.5 36.3-103 24.4-26.3 58.7-39.5 103.1-39.5 14.9-0.1 29.8 1.6 44.4 4.9v80.2c-7 0-15-0.7-23.9-0.7-24.4 0-42.3 5.6-53.6 16.9-6.1 7-10.7 15.2-13.6 24s-4 18.1-3.3 27.4v185.1h-88.9z"/><path class="st1" d="m4030.8 230.3c-5.3-4.9-9.5-10.8-12.4-17.4s-4.3-13.7-4.2-20.9c-0.1-7.3 1.4-14.4 4.2-21.1 2.9-6.7 7.1-12.7 12.4-17.6 5.2-5.2 11.3-9.3 18.1-12.1s14.1-4.2 21.4-4.1c7.3-0.1 14.5 1.3 21.2 4.1s12.8 6.9 17.9 12.1c5.3 4.9 9.5 10.9 12.4 17.6s4.3 13.9 4.2 21.1c0.1 7.2-1.3 14.3-4.2 20.9s-7.1 12.5-12.4 17.4c-5.1 5.1-11.2 9.1-17.9 11.8s-13.9 4.1-21.1 4c-7.3 0.1-14.6-1.2-21.4-3.9-6.8-2.8-13-6.8-18.2-11.9zm84.1 399.3h-88.9v-330.8h88.9z"/><path class="st1" d="m4257.7 629.6-126-330.8h93.6l57.7 169c8.9 29.6 14.1 47.3 15.5 53.5h1.4c4.2-15.9 9.9-33.8 16.2-53.5l57.7-169h94.3l-126 330.8z"/><path class="st1" d="m4794.6 494.5h-249.8c3.9 20 14.7 38.1 30.4 51.1 15.7 12.2 35.1 18.6 54.9 18 15.9 0.6 31.7-2.2 46.4-8.1 11.6-5.6 21.1-14.7 27.1-26.1h82.3c-8.6 32.9-29.2 61.4-57.7 79.8-28.7 18.6-62.3 28.2-96.4 27.8-31.3 0.7-62.3-7-89.7-22.1-25.6-14.3-46.6-35.7-60.6-61.6-14.5-27.4-21.9-57.9-21.4-88.9-0.5-31 7-61.7 21.8-88.9 14-25.8 35-47.1 60.5-61.6 26.7-14.9 57-22.3 87.5-21.6 29.9-0.4 59.4 7.4 85.2 22.5 25.1 14.8 45.6 36.2 59.3 61.9 14.5 27 21.9 57.3 21.5 87.9 0.2 10-0.3 20-1.3 29.9zm-220.2-110.5c-15.2 12.4-25.8 29.5-30.2 48.6h168c-2.6-18.8-12.3-36-27.1-47.9-15.5-12.7-35.1-19.5-55.2-19-20.1-0.6-39.8 5.9-55.5 18.3z"/></g><g fill="#1b1340"><path class="st2" d="m1519.7 148.5h-221.7v480.3h87.7v-119.2c0-5.8 1.1-11.5 3.3-16.8s5.5-10.2 9.5-14.2 8.9-7.3 14.3-9.5c5.3-2.2 11-3.3 16.8-3.3h90c41.9 0 82.1-16.7 111.8-46.3 29.6-29.6 46.3-69.9 46.3-111.8 0.1-20.9-3.8-41.5-11.7-60.8s-19.5-36.9-34.2-51.7-32.2-26.5-51.4-34.5c-19.2-8.1-39.8-12.2-60.7-12.2zm69.2 158c-0.1 19.8-8 38.8-22.1 52.8s-33.1 21.8-53 21.8h-127.9v-150h127.9c9.8 0 19.6 1.9 28.7 5.7s17.3 9.3 24.3 16.3c6.9 7 12.5 15.2 16.2 24.3 3.8 9.1 5.7 18.8 5.7 28.7z"/><path class="st2" d="m1691.6 628.8v-190.5c0-77.8 45.4-139.7 136.2-139.7 14.6-0.2 29.1 1.4 43.3 4.8v78.4c-9.9-0.7-19.2-0.7-23.3-0.7-48.2 0-69.2 21.9-69.2 66.7v180.9h-87z"/><path class="st2" d="m1897.7 467.1c0-95.6 72.2-168.6 172.7-168.6s172.2 72.7 172.2 168.6c0 95.8-72.2 169.2-172.6 169.2-100.3 0.1-172.3-73.5-172.3-169.2zm259.4 0c0-54.3-36.5-92.9-86.7-92.9s-86.8 38.5-86.8 92.9c0 54.3 36.5 92.9 86.8 92.9s86.3-37.8 86.3-92.9z"/><path class="st2" d="m2495.8 374.9h-94.2v120.3c0 42 15.2 61.3 58.5 61.3 4.1 0 14.4 0 27.6-0.7v70.8c-16.6 4.8-33.7 7.4-51 7.6-72.9 0-122.4-44.1-122.4-127.3v-132h-58.5v-69.2h14.6c11.6 0 22.8-4.6 31-12.8s12.9-19.4 12.9-31v-65.8h87.3v109.4h94.3z"/><path class="st2" d="m2522 467.1c0-95.6 72.2-168.6 172.6-168.6s172.7 72.7 172.7 168.6c0 95.8-72.2 169.2-172.7 169.2s-172.6-73.5-172.6-169.2zm259.3 0c0-54.3-36.6-92.9-86.8-92.9s-86.7 38.5-86.7 92.9c0 54.3 36.5 92.9 86.7 92.9 50.3 0 86.8-37.9 86.8-92.9z"/><path class="st2" d="m2912.6 628.8v-183.7c0-85.3 54.3-146.5 151.4-146.5 97 0 150.7 61.3 150.7 146.5v183.7h-86.7v-176.8c0-47.5-21.4-77.1-64-77.1s-63.9 29.6-63.9 77.1v176.8z"/></g><path class="st3" d="m0 686.9v-588.8c0-54.2 43.9-98.1 98.1-98.1h184c18.6 0 36.7 5.9 51.6 16.9l61.6 45.2c15 11 33.1 16.9 51.6 16.9h403.4c54.2 0 98.1 43.9 98.1 98.1v509.7c0 54.2-43.9 98.1-98.1 98.1h-752.2c-54.2 0.1-98.1-43.8-98.1-98z" fill="#6851f6"/><path d="m0 686.9v-588.8c0-54.2 43.9-98.1 98.1-98.1h184c18.6 0 36.7 5.9 51.6 16.9l61.6 45.2c15 11 33.1 16.9 51.6 16.9h403.4c54.2 0 98.1 43.9 98.1 98.1v509.7c0 54.2-43.9 98.1-98.1 98.1h-752.2c-54.2 0.1-98.1-43.8-98.1-98z" fill="url(#SVGID_00000183963541918971408870000002293601226789278115_)"/><path d="m447 79h403.4c54.2 0 98.1 43.9 98.1 98.1v509.7c0 54.2-43.9 98.1-98.1 98.1h-103.6v-511.9c0-42.3-34.4-76.6-76.8-76.3l-371.5 2.1c-16 0.1-31.6-4.8-44.7-14.1l-82.7-58.8c-12.9-9.2-28.4-14.1-44.2-14.1h-126.9v-13.7c0-54.2 43.9-98.1 98.1-98.1h184c18.6 0 36.7 5.9 51.6 16.9l61.6 45.2c15 11 33.1 16.9 51.7 16.9z" clip-rule="evenodd" fill="url(#SVGID_00000115499004346489928520000013844947264405007011_)" fill-rule="evenodd"/></g></g></svg>
