<svg xmlns="http://www.w3.org/2000/svg" width="128" height="128" version="1.1" viewBox="0 0 33.867 33.867"><defs><linearGradient id="SVGID_00000019652434788841659490000008021016220503567533_" x1="-12.632" x2="1173" y1="1195.6" y2="-107.33" gradientTransform="matrix(.035706 0 0 -.035706 -1.6667e-6 30.985)" gradientUnits="userSpaceOnUse"><stop offset="0" stop-color="#6D4AFF"/><stop offset=".359" stop-color="#AE8CFF"/><stop offset="1" stop-color="#F8CCFF"/></linearGradient><radialGradient id="SVGID_1_" cx="169.06" cy="788.93" r="1" gradientTransform="matrix(-21.468 43.868 68.249 33.399 -50186 -33775)" gradientUnits="userSpaceOnUse"><stop offset=".556" stop-color="#FF62C0" stop-opacity="0"/><stop offset=".994" stop-color="#FF62C0"/></radialGradient></defs><g stroke-width=".036"><path fill="#6851f6" d="m-1.6667e-6 27.447v-21.023c0-1.9352 1.5675-3.5027 3.5027-3.5027h6.5698c0.66412 0 1.3104 0.21066 1.8424 0.60342l2.1994 1.6139c0.53559 0.39276 1.1819 0.60343 1.8424 0.60343h14.404c1.9352 0 3.5027 1.5675 3.5027 3.5027v18.199c0 1.9352-1.5675 3.5027-3.5027 3.5027h-26.858c-1.9352 4e-3 -3.5027-1.5639-3.5027-3.4991z" class="st0"/><path fill="url(#SVGID_1_)" d="m-1.6667e-6 27.447v-21.023c0-1.9352 1.5675-3.5027 3.5027-3.5027h6.5698c0.66412 0 1.3104 0.21066 1.8424 0.60342l2.1994 1.6139c0.53559 0.39276 1.1819 0.60343 1.8424 0.60343h14.404c1.9352 0 3.5027 1.5675 3.5027 3.5027v18.199c0 1.9352-1.5675 3.5027-3.5027 3.5027h-26.858c-1.9352 4e-3 -3.5027-1.5639-3.5027-3.4991z" class="st1"/><path fill="url(#SVGID_00000019652434788841659490000008021016220503567533_)" fill-rule="evenodd" d="m15.96 5.7414h14.404c1.9352 0 3.5027 1.5675 3.5027 3.5027v18.199c0 1.9352-1.5675 3.5027-3.5027 3.5027h-3.6991v-18.278c0-1.5103-1.2283-2.735-2.7422-2.7243l-13.265 0.075c-0.57129 4e-3 -1.1283-0.17138-1.596-0.50344l-2.9528-2.0995c-0.4606-0.32849-1.014-0.50345-1.5782-0.50345h-4.531v-0.48916c0-1.9352 1.5675-3.5027 3.5027-3.5027h6.5698c0.66412 0 1.3104 0.21066 1.8424 0.60342l2.1994 1.6139c0.53559 0.39276 1.1819 0.60343 1.846 0.60343z" clip-rule="evenodd"/></g></svg>