<svg xmlns="http://www.w3.org/2000/svg" width="128" height="128" version="1.1" viewBox="0 0 33.867 33.867"><g transform="matrix(.99999 0 0 .99999 -10.524 -177.41)"><rect width="33.867" height="33.867" x="10.524" y="177.41" fill="#7393f3" stroke-width=".724"/><g fill="#fff" transform="matrix(.67733 0 0 .67733 10.524 177.41)"><path width="26.489" height="12.085" x="11.756" y="-31.042" stroke-width=".293" d="m17.756-31.042h14.489a6 6 45 0 1 6 6v0.08451a6 6 135 0 1-6 6h-14.489a6 6 45 0 1-6-6v-0.08451a6 6 135 0 1 6-6z" transform="scale(1,-1)"/><ellipse cx="25" cy="19.481" stroke-width=".2" rx="7.343" ry="5.129"/></g><g transform="matrix(.67733 0 0 .67733 10.524 177.41)"><rect width="2.017" height="3.671" x="25.268" y="26.26" fill="#fff" stroke-width=".265"/><rect width="7" height="3.867" x="21.5" y="27.245" fill="#7393f3" stroke-width=".263"/><path fill="#7393f3" d="m92.055 93.076h-27.11l13.555-23.479 6.7777 11.739z" transform="matrix(.36886 0 0 .21296 -3.9552 7.8648)"/></g><g><g fill="#fff" transform="matrix(.67733 0 0 .68255 6.7598 173.7) matrix(1,0,0,-1,6.3485,69.902)"><rect width="7" height="4.568" x="20.709" y="29.099" stroke-width=".286"/><path d="m92.055 93.076h-27.11l13.555-23.479 6.7777 11.739z" transform="matrix(.36886 0 0 .21296 -4.7458 9.7194)"/></g></g></g></svg>