<?xml version="1.0" encoding="UTF-8"?>
<svg width="128" height="128" version="1.1" viewBox="0 0 33.867 33.867" xmlns="http://www.w3.org/2000/svg"><g transform="matrix(.99999 0 0 .99999 -10.524 -177.41)"><rect x="10.524" y="177.41" width="33.867" height="33.867" fill="#7393f3" stroke-width=".72366"/><g transform="matrix(.67733 0 0 .67733 10.524 177.41)" fill="#fff"><path transform="scale(1,-1)" x="11.755644" y="-31.042255" width="26.488712" height="12.08451" d="m17.756-31.042h14.489a6 6 45 0 1 6 6v0.08451a6 6 135 0 1-6 6h-14.489a6 6 45 0 1-6-6v-0.08451a6 6 135 0 1 6-6z" stroke-width=".29286"/><ellipse cx="25" cy="19.481" rx="7.3432" ry="5.1293" stroke-width=".20012"/></g><g transform="matrix(.67733 0 0 .67733 10.524 177.41)"><rect x="25.268" y="26.26" width="2.0174" height="3.6711" fill="#fff" stroke-width=".26458"/><rect x="21.5" y="27.245" width="7" height="3.8666" fill="#7393f3" stroke-width=".26344"/><path transform="matrix(.36886 0 0 .21296 -3.9552 7.8648)" d="m92.055 93.076h-27.11l13.555-23.479 6.7777 11.739z" fill="#7393f3"/></g><g transform="matrix(.67733 0 0 .68255 6.7598 173.7)"><g transform="matrix(1,0,0,-1,6.3485,69.902)" fill="#fff"><rect x="20.709" y="29.099" width="7" height="4.5682" stroke-width=".28635"/><path transform="matrix(.36886 0 0 .21296 -4.7458 9.7194)" d="m92.055 93.076h-27.11l13.555-23.479 6.7777 11.739z"/></g></g></g></svg>
