<svg xmlns="http://www.w3.org/2000/svg" width="128" height="128" version="1.1" viewBox="0 0 33.867 33.867"><path fill="#1e8ece" stroke-width=".109" d="m7.0131 29.343v-4.5241h9.4842v9.0482h-9.4842zm10.356 0v-4.5241h9.4842v9.0482h-9.4842zm-10.356-10.465v-4.9601h9.4842v9.9203h-9.4842zm10.356 0v-4.9601h9.4842v9.9203h-9.4842zm-8.6121-8.6167c0-2.015 0.04263-2.8829 0.17269-3.5157 0.73474-3.575 3.5974-6.217 7.2428-6.6845 3.005-0.38538 6.173 1.1032 7.8895 3.7073 1.1721 1.7781 1.3724 2.706 1.3734 6.3613l7.94e-4 2.8071h-2.3983v-2.757c0-2.9905-0.06421-3.467-0.62497-4.6374-0.18482-0.38574-0.60469-0.92894-1.1165-1.4445-1.2461-1.2551-2.4026-1.7319-4.2072-1.7342-1.6833-0.0022-3.0172 0.54749-4.1988 1.7303-0.79004 0.79088-1.4018 1.902-1.6154 2.9341-0.06776 0.32733-0.11958 1.7328-0.11958 3.2432v2.6655h-2.3983z"/></svg>