<svg xmlns="http://www.w3.org/2000/svg" width="128" height="128" version="1.1" viewBox="0 0 33.867 33.867"><defs><clipPath id="B"><path d="m143 118h140v140h-140z"/></clipPath><clipPath id="C"><path d="m143 118h140v140h-140z"/></clipPath><clipPath id="D"><path d="m143 118h140v140h-140z"/></clipPath><linearGradient id="E" x1="143" x2="283" y1="188" y2="188" gradientUnits="userSpaceOnUse"><stop offset="0" stop-color="#00f2fe"/><stop offset=".021" stop-color="#03effe"/><stop offset=".293" stop-color="#24d2fe"/><stop offset=".554" stop-color="#3cbdfe"/><stop offset=".796" stop-color="#4ab0fe"/><stop offset="1" stop-color="#4facfe"/></linearGradient></defs><g clip-path="url(#B)" transform="matrix(.2419 0 0 .2419 -34.592 -28.545)"><g clip-path="url(#C)"><g clip-path="url(#D)"><path fill="url(#E)" d="m233.78 156.3c0-4.832 3.918-8.75 8.75-8.75a8.75 8.75 0 1 1 0 17.5 8.75 8.75 0 0 1-8.75-8.75zm-55.781 96.217v-9.844h9.844a5.47 5.47 0 0 0 5.468-5.469v-9.843h9.844a5.47 5.47 0 0 0 5.469-5.469 5.47 5.47 0 0 0-5.469-5.469h-15.312a5.47 5.47 0 0 0-5.469 5.469v9.844h-9.844a5.47 5.47 0 0 0-5.469 5.469v9.843h-13.124v-16.328l48.494-48.495a5.47 5.47 0 0 0 0.809-6.704 88.53 88.53 0 0 1-5.174-9.922c-1.804-4.058-0.885-8.906 2.288-12.063l21.475-21.375c3.065-3.051 7.659-4.024 11.702-2.479 6.35 2.427 15.501 6.894 23.039 14.397 7.584 7.548 12.201 16.834 14.738 23.296a10.86 10.86 0 0 1-2.451 11.672l-21.735 21.633c-3.164 3.15-7.889 4.07-12.035 2.346-3.42-1.423-6.732-3.112-9.844-5.022a5.47 5.47 0 0 0-7.521 1.8 5.47 5.47 0 0 0 1.8 7.522c3.596 2.207 7.42 4.158 11.364 5.798 8.242 3.429 17.643 1.586 23.952-4.692l21.734-21.632c6.165-6.136 8.095-15.33 4.917-23.423-2.921-7.435-8.276-18.165-17.204-27.05-8.896-8.855-19.511-14.057-26.85-16.862a21.99 21.99 0 0 0-23.323 4.944l-21.475 21.375c-6.366 6.336-8.2 16.085-4.566 24.259 1.127 2.535 2.353 5.015 3.663 7.411l-47.133 47.133a5.47 5.47 0 0 0-1.602 3.868v24.062a5.47 5.47 0 0 0 5.469 5.469h24.062a5.47 5.47 0 0 0 5.469-5.469z" style="fill:url(#E)"/></g></g></g></svg>