<?xml version="1.0" encoding="UTF-8"?>
<svg width="128" height="128" version="1.1" viewBox="0 0 33.867 33.867" xmlns="http://www.w3.org/2000/svg"><defs><linearGradient id="paint0_linear_40_164" x1="135.95" x2="132.1" y1="-.81633" y2="36.986" gradientTransform="matrix(.26458 0 0 .26458 5.515 28.687)" gradientUnits="userSpaceOnUse"><stop stop-color="#01F1FF" offset="0"/><stop stop-color="#0197FF" offset="1"/></linearGradient></defs><g transform="matrix(3.1801 0 0 3.1801 -119.14 -91.124)" clip-rule="evenodd" fill-rule="evenodd" stroke-width=".26458"><path d="m38.412 31.362 1.7518 1.7407 1.8005-1.7891 0.87577 0.87034-1.8005 1.789 1.7518 1.7407-0.90011 0.89453-1.7518-1.7407-1.8005 1.7891-0.87577-0.87035 1.8002-1.7891-1.7515-1.7407z" fill="#030749"/><path d="m41.877 36.625 0.89323-0.88757-5.29e-4 -2.38e-4 1.7867-1.775-1.7526-1.7412 2.65e-4 -1.58e-4 -0.8763-0.87072-1.7523-1.7414 0.89297-0.88756 1.7526 1.7414 1.7865-1.7752 0.8763 0.8707-1.7867 1.7751 1.7526 1.7414 1.7865-1.7751 0.8763 0.87071-1.7867 1.775 1.7529 1.7415-0.89323 0.88757-1.7529-1.7415-1.7862 1.7751 1.7526 1.7415-0.89323 0.88754-1.7526-1.7415-1.7862 1.7752-0.8763-0.87069z" fill="url(#paint0_linear_40_164)"/></g></svg>
