<?xml version="1.0" encoding="UTF-8"?>
<svg width="128" height="128" version="1.1" viewBox="0 0 33.867 33.867" xmlns="http://www.w3.org/2000/svg"><defs><linearGradient id="SVGID_00000094620430057427565900000015311327790582914980_" x1="796.82" x2="203.77" y1="249.42" y2="1067.3" gradientTransform="matrix(.035694 0 0 -.035694 5.0337e-7 30.979)" gradientUnits="userSpaceOnUse"><stop stop-color="#C8E8FF" offset="0"/><stop stop-color="#BDAEFF" offset=".3075"/><stop stop-color="#6D4AFF" offset="1"/></linearGradient><radialGradient id="SVGID_1_" cx="169.05" cy="788.91" r="1" gradientTransform="matrix(-16.88 45.338 60.416 22.494 -44786 -25421)" gradientUnits="userSpaceOnUse"><stop stop-color="#54B7FF" stop-opacity="0" offset=".5561"/><stop stop-color="#54B7FF" offset=".9944"/></radialGradient></defs><g stroke-width=".035694"><path class="st0" d="m5.0337e-7 6.425c0-1.9346 1.567-3.5016 3.5016-3.5016h26.853c1.9346 0 3.5016 1.567 3.5016 3.5016v21.017c0 1.9346-1.567 3.5016-3.5016 3.5016h-26.853c-1.9346 0-3.5016-1.567-3.5016-3.5016z" fill="#6851f6"/><path class="st1" d="m0.0071394 6.425c0-1.9346 1.5705-3.5016 3.5052-3.5016h26.853c1.9346 0 3.5016 1.567 3.5016 3.5016v21.017c0 1.9346-1.567 3.5016-3.5016 3.5016h-26.853c-1.9346 0-3.5016-1.567-3.5016-3.5016v-21.017z" fill="url(#SVGID_1_)"/><path class="st2" d="m15.373 29.312c0-0.83168 0.29626-1.6384 0.83524-2.2702l6.168-7.2388 0.19632 11.14h-7.1995z" fill="#bfd8ff"/><path d="m3.5016 2.9234c-1.9346 0-3.5016 1.567-3.5016 3.5016v0.68176h23.933c1.5063 0 2.7235 1.2207 2.7235 2.7235v13.914h7.1995v-17.319c0-1.9346-1.567-3.5016-3.5016-3.5016z" clip-rule="evenodd" fill="url(#SVGID_00000094620430057427565900000015311327790582914980_)" fill-rule="evenodd"/><path class="st4" d="m21.406 22.38c0-2.1488 1.7419-3.8907 3.8907-3.8907h8.563v12.454h-12.454z" fill="#fff"/><path class="st5" d="m24.811 26.496h1.2315c0.04997 0.21416 0.1749 0.40334 0.35337 0.53541 0.1749 0.13207 0.39264 0.19989 0.61394 0.18918 0.55683 0 0.92448-0.30697 0.92448-0.75672s-0.38193-0.69961-1.1386-0.69961h-0.48901v-1.0137h0.42476c0.73173 0 1.0316-0.26771 1.0316-0.67462 0-0.40334-0.32482-0.68176-0.77456-0.68176-0.19989-0.01071-0.39978 0.05354-0.54969 0.18561-0.15348 0.13207-0.24629 0.31768-0.26414 0.51757h-1.1886c0.04283-0.70674 0.59966-1.7205 1.9953-1.7205 1.1208 0 1.8954 0.63893 1.8954 1.5384 0 0.28912-0.08924 0.57111-0.26057 0.80312-0.17133 0.23201-0.41048 0.40691-0.68533 0.49258v0.01785c0.32125 0.05711 0.61037 0.22844 0.81383 0.48187 0.20346 0.25343 0.31054 0.57111 0.29983 0.89949 0 0.97445-0.89236 1.6169-2.0453 1.6169-1.2243 0.0071-2.0988-0.6889-2.1881-1.7312z" fill="#6d4aff"/><path class="st5" d="m31.197 22.473h0.89592v5.6718h-1.1565v-4.3511l-1.1137 0.75672v-1.1458z" fill="#6d4aff"/></g></svg>
