<?xml version="1.0" encoding="UTF-8"?>
<svg width="128" height="128" version="1.1" viewBox="0 0 33.867 33.867" xmlns="http://www.w3.org/2000/svg"><g transform="matrix(.33952 0 0 .33952 .19935 -2.3417e-7)" fill="none"><path d="m49.287 0c-15.406 0-33.988 3.5766-49.287 11.449 0 17.002-0.21115 59.36 49.287 88.301 49.499-28.941 49.289-71.299 49.289-88.301-15.299-7.8723-33.882-11.449-49.289-11.449z" fill="#68bc71"/><path d="m49.236 99.721c-49.447-28.941-49.236-71.275-49.236-88.272 15.282-7.8638 33.841-11.441 49.236-11.449z" fill="#67b279"/><path d="m47.489 66.556 29.805-39.658c-2.184-1.7283-4.0997-0.50849-5.1543 0.43585l-0.03848 3e-3 -24.851 25.522-9.3632-11.124c-4.4668-5.095-10.539-1.2087-11.958-0.1816l21.56 25.003" fill="#fff"/></g></svg>
