<?xml version="1.0" encoding="UTF-8"?>
<svg width="128" height="128" version="1.1" viewBox="0 0 33.867 33.867" xmlns="http://www.w3.org/2000/svg" xmlns:xlink="http://www.w3.org/1999/xlink"><defs><linearGradient id="linearGradient5472"><stop stop-color="#fff" offset="0"/></linearGradient><linearGradient id="linearGradient5474" x1="60.097" x2="71.645" y1="201.62" y2="201.62" gradientUnits="userSpaceOnUse" xlink:href="#linearGradient5472"/><linearGradient id="linearGradient5480" x1="49.996" x2="81.746" y1="205.62" y2="205.62" gradientUnits="userSpaceOnUse" xlink:href="#linearGradient5472"/><linearGradient id="linearGradient5486" x1="53.418" x2="78.324" y1="218.03" y2="218.03" gradientUnits="userSpaceOnUse" xlink:href="#linearGradient5472"/><linearGradient id="linearGradient5492" x1="69.192" x2="70.78" y1="217.16" y2="217.16" gradientUnits="userSpaceOnUse" xlink:href="#linearGradient5472"/><linearGradient id="linearGradient7461" x1="60.962" x2="62.549" y1="217.16" y2="217.16" gradientUnits="userSpaceOnUse" xlink:href="#linearGradient5472"/></defs><g transform="translate(-48.938 -197.1)" stroke-linecap="round" stroke-linejoin="round" stroke-miterlimit="2" stroke-width="1.5875"><path d="m77.53 205.88v22.187a2.1167 2.1167 135 0 1-2.1167 2.1167h-19.086a2.1167 2.1167 45 0 1-2.1167-2.1167v-22.187" fill="none" stroke="url(#linearGradient5486)" style="paint-order:fill markers stroke"/><g fill="#fff" fill-rule="evenodd"><path d="m61.756 210.99v12.346" stroke="url(#linearGradient7461)" style="paint-order:fill markers stroke"/><path d="m69.986 210.99v12.346" stroke="url(#linearGradient5492)" style="paint-order:fill markers stroke"/><path d="m50.79 205.62h30.162" stroke="url(#linearGradient5480)" style="paint-order:fill markers stroke"/></g><path d="m60.89 205.37v-5.4277a2.0677 2.0677 0 0 1 2.0677-2.0677h5.8255a2.0677 2.0677 0 0 1 2.0677 2.0677v5.4277" fill="none" stroke="url(#linearGradient5474)" style="paint-order:fill markers stroke"/></g></svg>
