<svg xmlns="http://www.w3.org/2000/svg" width="128" height="128" version="1.1" viewBox="0 0 33.866 33.866"><path fill="#46a546" stroke-width=".275" d="m3.2563 0.90164h27.353c1.804 0 3.2563 1.4523 3.2563 3.2563v1.001e-4c0 1.804-1.4523 3.2563-3.2563 3.2563h-27.353c-1.804 0-3.2563-1.4523-3.2563-3.2563v-1.001e-4c0-1.804 1.4523-3.2563 3.2563-3.2563z"/><path fill="#f89406" stroke-width=".259" d="m3.2563 9.4185h23.546c1.804 0 3.2563 1.4523 3.2563 3.2563v1e-4c0 1.804-1.4523 3.2563-3.2563 3.2563h-23.546c-1.804 0-3.2563-1.4523-3.2563-3.2563v-1e-4c0-1.804 1.4523-3.2563 3.2563-3.2563z"/><path fill="#c43c35" stroke-width=".269" d="m3.2563 17.935h25.95c1.804 0 3.2563 1.4523 3.2563 3.2563v1.01e-4c0 1.804-1.4523 3.2563-3.2563 3.2563h-25.95c-1.804 0-3.2563-1.4523-3.2563-3.2563v-1.01e-4c0-1.804 1.4523-3.2563 3.2563-3.2563z"/><path fill="#999" stroke-width=".212" d="m3.2563 26.452h13.726c1.804 0 3.2563 1.4523 3.2563 3.2563v1e-4c0 1.804-1.4523 3.2563-3.2563 3.2563h-13.726c-1.804 0-3.2563-1.4523-3.2563-3.2563v-1e-4c0-1.804 1.4523-3.2563 3.2563-3.2563z"/></svg>