<?xml version="1.0" encoding="UTF-8" standalone="no"?>
<svg
   viewBox="0 0 576 512"
   version="1.1"
   id="svg1"
   sodipodi:docname="heart-circle-check-solid copy.svg"
   inkscape:version="1.4 (e7c3feb1, 2024-10-09)"
   xmlns:inkscape="http://www.inkscape.org/namespaces/inkscape"
   xmlns:sodipodi="http://sodipodi.sourceforge.net/DTD/sodipodi-0.dtd"
   xmlns="http://www.w3.org/2000/svg"
   xmlns:svg="http://www.w3.org/2000/svg">
  <defs
     id="defs1" />
  <sodipodi:namedview
     id="namedview1"
     pagecolor="#ffffff"
     bordercolor="#000000"
     borderopacity="0.25"
     inkscape:showpageshadow="2"
     inkscape:pageopacity="0.0"
     inkscape:pagecheckerboard="0"
     inkscape:deskcolor="#d1d1d1"
     inkscape:zoom="1.8715278"
     inkscape:cx="288"
     inkscape:cy="255.94063"
     inkscape:window-width="2032"
     inkscape:window-height="1281"
     inkscape:window-x="0"
     inkscape:window-y="25"
     inkscape:window-maximized="0"
     inkscape:current-layer="svg1" />
  <!--!Font Awesome Free 7.1.0 by @fontawesome - https://fontawesome.com License - https://fontawesome.com/license/free Copyright 2025 Fonticons, Inc.-->
  <path
     d="m 247.20139,81.60764 13.02083,17.96875 13.02083,-17.96875 c 21.70139,-30.034722 56.59722,-47.82986 93.6632,-47.82986 63.80208,0 115.53819,51.73611 115.53819,115.53819 v 2.25695 c 0,15.27778 -2.95139,30.90278 -8.24653,46.61458 C 455.2743,190.72222 434.61458,186.55556 413,186.55556 c -92.01389,0 -166.66667,74.65277 -166.66667,166.66666 0,24.73959 5.38195,48.26389 15.10417,69.44445 -0.43403,0 -0.78125,0 -1.21528,0 -13.45486,0 -26.73611,-3.99306 -37.41319,-12.23959 C 159.44097,362.07639 37.999998,248.96875 37.999998,151.57292 v -2.25695 c 0,-63.80208 51.736111,-115.53819 115.538192,-115.53819 37.06597,0 71.96181,17.795138 93.6632,47.82986 z M 288,353.22222 a 125,125 0 1 1 250,0 125,125 0 1 1 -250,0 z m 174.82639,-52.86458 c -6.1632,-4.51389 -14.93056,-3.125 -19.44445,3.03819 L 397.375,366.67708 374.11111,343.41319 c -5.38195,-5.38194 -14.23611,-5.38194 -19.61806,0 -5.38194,5.38195 -5.38194,14.23612 0,19.61806 l 34.72222,34.72222 c 2.86459,2.86458 6.85764,4.34028 10.9375,3.99306 4.07987,-0.34723 7.7257,-2.43056 10.15625,-5.64236 l 55.55556,-76.38889 c 4.51389,-6.1632 3.125,-14.93056 -3.03819,-19.35764 z"
     id="path1"
     style="stroke-width:0.868056" />
</svg>
