<?xml version="1.0" encoding="UTF-8"?>
<svg version="1.1" viewBox="0 0 128 128" xmlns="http://www.w3.org/2000/svg"><g transform="matrix(.256 0 0 .256 -1.534 -1.5359)"><path d="m506 256a250 250 0 0 1-248.51 250 250 250 0 0 1-251.48-247.01 250 250 0 0 1 245.5-252.95 250 250 0 0 1 254.41 243.98" fill="#f3f3f3"/><path d="m430.55 116.36v-8.7273c0-24.087-19.549-43.636-43.636-43.636s-43.636 19.549-43.636 43.636v8.7273c-9.6 0-17.455 7.8545-17.455 17.455v69.818c0 9.6 7.8546 17.455 17.455 17.455h87.273c9.6 0 17.455-7.8546 17.455-17.455v-69.818c0-9.6-7.8546-17.455-17.455-17.455zm-13.964 0h-59.345v-8.7273c0-16.407 13.265-29.673 29.673-29.673s29.673 13.265 29.673 29.673zm-39.796 139.64c0.69819 5.76 1.3964 11.52 1.3964 17.455 0 36.305-13.964 69.295-36.655 94.08-4.5382-14.138-17.455-24.262-33.164-24.262h-17.455v-52.364c0-9.6-7.8545-17.455-17.455-17.455h-104.73v-34.909h34.909c9.6 0 17.455-7.8545 17.455-17.455v-34.909h34.909c19.2 0 34.909-15.709 34.909-34.909v-44.335c-16.582-5.2364-34.036-8.0291-52.364-8.0291-96.349 0-174.55 78.196-174.55 174.55 0 96.349 78.196 174.55 174.55 174.55 96.349 0 174.55-78.196 174.55-174.55 0-5.9346-0.34909-11.695-0.87273-17.455zm-155.69 155.87c-68.945-8.5527-122.18-67.2-122.18-138.41 0-10.822 1.3964-21.12 3.6655-31.244l83.607 83.607v17.455c0 19.2 15.709 34.909 34.909 34.909z" fill="#e91e63" stroke-width="17.454"/></g></svg>
