<?xml version="1.0" encoding="UTF-8"?>
<svg width="128" height="128" version="1.1" viewBox="0 0 33.867 33.867" xmlns="http://www.w3.org/2000/svg"><defs><filter id="filter2248" x="-.048" y="-.048" width="1.096" height="1.096" color-interpolation-filters="sRGB"><feGaussianBlur stdDeviation="3.5643107"/></filter><linearGradient id="linearGradient2129" x1="412.98" x2="412.98" y1="237.61" y2="59.392" gradientTransform="matrix(.35154 0 0 .35154 206.79 159.77)" gradientUnits="userSpaceOnUse"><stop stop-color="#bdbdbd" offset="0"/><stop stop-color="#fff" offset="1"/></linearGradient><radialGradient id="radialGradient2137" cx="413.06" cy="136.82" r="82.125" gradientTransform="matrix(.38143 0 0 .38143 194.54 155.58)" gradientUnits="userSpaceOnUse"><stop stop-color="#06c2e7" offset="0"/><stop stop-color="#0db8ec" offset=".25"/><stop stop-color="#12aef1" offset=".5"/><stop stop-color="#1f86f9" offset=".75"/><stop stop-color="#107ddd" offset="1"/></radialGradient><filter id="filter2222" x="-.021495" y="-.022257" width="1.043" height="1.0445" color-interpolation-filters="sRGB"><feGaussianBlur stdDeviation="0.95767362"/></filter></defs><g transform="matrix(.51199 0 0 .51199 -163.27 -92.377)"><path transform="matrix(.33865 0 0 .32609 212.12 166.12)" d="m502.08 148.5a89.108 89.108 0 0 1-89.108 89.108 89.108 89.108 0 0 1-89.108-89.108 89.108 89.108 0 0 1 89.108-89.108 89.108 89.108 0 0 1 89.108 89.108z" filter="url(#filter2248)" opacity=".53" style="paint-order:markers stroke fill"/><path d="m383.29 211.98a31.325 31.325 0 0 1-31.325 31.325 31.325 31.325 0 0 1-31.325-31.325 31.325 31.325 0 0 1 31.325-31.325 31.325 31.325 0 0 1 31.325 31.325z" fill="url(#linearGradient2129)" stroke="#cdcdcd" stroke-linecap="round" stroke-linejoin="round" stroke-width=".093012" style="paint-order:markers stroke fill"/><path d="m380.84 211.98a28.871 28.871 0 0 1-28.871 28.871 28.871 28.871 0 0 1-28.871-28.871 28.871 28.871 0 0 1 28.871-28.871 28.871 28.871 0 0 1 28.871 28.871z" fill="url(#radialGradient2137)" style="paint-order:markers stroke fill"/><path d="m351.97 184.61c-0.23319 0-0.42092 0.18772-0.42092 0.42092v4.8552c0 0.2332 0.18773 0.42092 0.42092 0.42092 0.2332 0 0.42092-0.18772 0.42092-0.42092v-4.8552c0-0.2332-0.18772-0.42092-0.42092-0.42092zm-2.7537 0.17404c-0.0279-3e-3 -0.0566-3e-3 -0.0856 3.5e-4 -0.23194 0.0242-0.39917 0.2304-0.37495 0.46234l0.21218 2.0312c0.0242 0.23194 0.23041 0.39918 0.46233 0.37496 0.23195-0.0242 0.39919-0.2304 0.37496-0.46234l-0.212-2.0312c-0.0212-0.20295-0.18177-0.35637-0.37695-0.37532zm5.5266 2e-3c-0.19519 0.0188-0.35578 0.17221-0.37714 0.37513l-0.21363 2.031c-0.0244 0.23192 0.14285 0.43831 0.37478 0.4627 0.23191 0.0244 0.43811-0.14268 0.46251-0.3746l0.21364-2.0312c0.0244-0.23192-0.14286-0.43814-0.37478-0.46252-0.029-3e-3 -0.0575-3e-3 -0.0854-5.2e-4zm-8.3553 0.4082c-0.028 2.2e-4 -0.0565 3e-3 -0.085 9e-3 -0.22814 0.0483-0.37294 0.27089-0.32464 0.49903l1.0055 4.7498c0.0483 0.22814 0.27088 0.37293 0.49902 0.32464 0.22814-0.0483 0.37294-0.27072 0.32465-0.49886l-1.0055-4.75c-0.0423-0.19963-0.21792-0.33543-0.41401-0.3339zm11.184 4e-3c-0.19609-2e-3 -0.3718 0.13394-0.41419 0.33353l-1.009 4.7492c-0.0485 0.22811 0.0962 0.45076 0.32427 0.49922 0.22811 0.0485 0.45076-0.0962 0.49921-0.32428l1.009-4.7493c0.0485-0.2281-0.0962-0.45076-0.32427-0.49921-0.0285-6e-3 -0.057-9e-3 -0.085-9e-3zm-13.883 0.75717c-0.0545-5e-3 -0.11077 1e-3 -0.16622 0.0194-0.22178 0.0721-0.34238 0.3085-0.27031 0.53028l0.6311 1.9424c0.0721 0.22179 0.30868 0.34238 0.53046 0.27032 0.22179-0.0721 0.3422-0.30868 0.27013-0.53046l-0.63109-1.9424c-0.054-0.16634-0.20059-0.27568-0.36407-0.28958zm16.568 1e-3c-0.16348 0.0139-0.30999 0.12324-0.36406 0.28957l-0.63147 1.9422c-0.0721 0.22177 0.0484 0.45837 0.27014 0.53046 0.22178 0.0721 0.45837-0.0484 0.53047-0.27013l0.63146-1.9424c0.0721-0.22178-0.0484-0.45837-0.27014-0.53046-0.0554-0.018-0.11191-0.0239-0.1664-0.0193zm-19.237 0.9759c-0.0547 1e-3 -0.11004 0.013-0.16331 0.0367-0.21298 0.0947-0.30836 0.34244-0.21364 0.55553l1.972 4.4366c0.0947 0.21308 0.34244 0.30836 0.55553 0.21364 0.21298-0.0947 0.30854-0.34244 0.21382-0.55553l-1.9722-4.4366c-0.071-0.15983-0.22817-0.25351-0.39221-0.25033zm21.937 0.0149c-0.16403-3e-3 -0.32132 0.0901-0.39257 0.24979l-1.978 4.4339c-0.095 0.21296-4e-5 0.46088 0.21292 0.55589 0.21297 0.095 0.46088 5e-5 0.5559-0.21291l1.978-4.4339c0.095-0.21297 5e-5 -0.46089-0.21291-0.5559-0.0532-0.0237-0.10864-0.0357-0.16332-0.0369zm-24.415 1.2962c-0.0808-6e-3 -0.16406 0.012-0.23979 0.0558-0.20196 0.1166-0.27065 0.37302-0.15406 0.57497l1.0212 1.7687c0.1166 0.20196 0.373 0.27065 0.57496 0.15405 0.20195-0.1166 0.27065-0.37301 0.15406-0.57497l-1.0212-1.7687c-0.0729-0.12623-0.20047-0.20041-0.33517-0.20983zm26.859 0c-0.13468 9e-3 -0.26211 0.0836-0.33498 0.20983l-1.0213 1.7687c-0.1166 0.20196-0.0477 0.45837 0.15424 0.57497 0.20196 0.1166 0.45837 0.0479 0.57497-0.15405l1.0211-1.7687c0.1166-0.20195 0.0479-0.45837-0.15406-0.57497-0.0757-0.0437-0.15916-0.0614-0.23998-0.0558zm-29.265 1.5007c-0.081 3e-3 -0.16211 0.029-0.2329 0.0803-0.18875 0.13693-0.23048 0.39911-0.0935 0.58787l2.8509 3.93c0.13693 0.18876 0.39929 0.23049 0.58805 0.0936 0.18876-0.13693 0.23049-0.39911 0.0935-0.58787l-2.851-3.93c-0.0856-0.11798-0.22004-0.17847-0.35497-0.17386zm31.701 0.0214c-0.13493-5e-3 -0.26941 0.0555-0.35516 0.17331l-2.8563 3.9261c-0.1372 0.18857-0.0958 0.45086 0.0928 0.58805 0.18858 0.13718 0.45087 0.0959 0.58806-0.0926l2.8561-3.9261c0.13718-0.18858 0.0957-0.45086-0.0928-0.58805-0.0707-0.0514-0.15176-0.0778-0.23272-0.0807zm-33.852 1.7823c-0.10744-6e-3 -0.21708 0.0299-0.30374 0.10791-0.17332 0.15602-0.18725 0.42109-0.0312 0.59441l1.3665 1.518c0.15601 0.17332 0.42109 0.18726 0.59441 0.0312 0.17332-0.15602 0.18726-0.42127 0.0312-0.59459l-1.3663-1.5178c-0.078-0.0867-0.18339-0.13351-0.29085-0.13916zm35.976 3e-3c-0.10745 6e-3 -0.21282 0.0525-0.29084 0.13915l-1.3665 1.5176c-0.15606 0.1733-0.14224 0.43855 0.0311 0.59459 0.17329 0.15604 0.43837 0.14205 0.59441-0.0312l1.3667-1.5176c0.15605-0.17331 0.14205-0.43856-0.0312-0.59459-0.0867-0.078-0.19611-0.11354-0.30357-0.10791zm-38.037 1.977c-0.10745 6e-3 -0.21266 0.0525-0.29067 0.13916-0.15602 0.17332-0.14207 0.43839 0.0312 0.59441l3.6084 3.2483c0.17332 0.15603 0.43839 0.14207 0.5944-0.0312 0.15603-0.17331 0.14226-0.43839-0.0311-0.59441l-3.6086-3.2483c-0.0867-0.078-0.1963-0.11356-0.30376-0.10791zm40.108 0.0142c-0.10745-6e-3 -0.21722 0.0298-0.30393 0.10773l-3.6106 3.2458c-0.17342 0.15589-0.18768 0.42097-0.0318 0.5944 0.1559 0.17342 0.42117 0.18751 0.59459 0.0316l3.6108-3.2458c0.17342-0.1559 0.1875-0.42098 0.0316-0.59441-0.078-0.0867-0.18322-0.13361-0.29066-0.13933zm-41.822 2.19c-0.13494-5e-3 -0.26949 0.0558-0.35515 0.17367-0.13707 0.18866-0.0955 0.4508 0.0932 0.58787l1.6522 1.2004c0.18866 0.13708 0.45079 0.0957 0.58786-0.093 0.13708-0.18866 0.0956-0.45098-0.093-0.58805l-1.6522-1.2004c-0.0707-0.0514-0.15193-0.0776-0.23289-0.0805zm43.535 0.0153c-0.081 3e-3 -0.16211 0.0289-0.23289 0.0803l-1.653 1.1994c-0.18875 0.13694-0.2305 0.39929-0.0936 0.58805 0.13695 0.18875 0.39912 0.23031 0.58787 0.0934l1.6532-1.1994c0.18875-0.13694 0.23031-0.39912 0.0934-0.58787-0.0856-0.11797-0.22004-0.17847-0.35497-0.17385zm-45.137 2.3358c-0.13469 9e-3 -0.26211 0.0836-0.33499 0.20982-0.1166 0.20195-0.0479 0.45837 0.15405 0.57497l4.2046 2.4276c0.20195 0.1166 0.45837 0.0479 0.57497-0.15405s0.0479-0.45837-0.15405-0.57497l-4.2046-2.4276c-0.0757-0.0437-0.15917-0.0614-0.23998-0.0558zm46.727 0c-0.0808-6e-3 -0.16425 0.012-0.23998 0.0558l-4.2046 2.4276c-0.20195 0.1166-0.27065 0.37302-0.15405 0.57497s0.37302 0.27065 0.57497 0.15405l4.2048-2.4276c0.20195-0.1166 0.27064-0.37302 0.15404-0.57497-0.0729-0.12622-0.20048-0.20041-0.33517-0.20982zm-47.939 2.5061c-0.16403-4e-3 -0.32133 0.0899-0.39258 0.2496-0.095 0.21298-6e-5 0.46091 0.21292 0.5559l1.8653 0.83202c0.21298 0.095 0.46091 7e-5 0.5559-0.2129 0.095-0.21298-1.2e-4 -0.46091-0.21309-0.5559l-1.8652-0.83202c-0.0532-0.0238-0.10865-0.0356-0.16332-0.0367zm49.158 0.0173c-0.0547 1e-3 -0.11024 0.013-0.16351 0.0367l-1.8657 0.83057c-0.21304 0.0949-0.3083 0.34267-0.21346 0.55571 0.0949 0.21304 0.34286 0.3083 0.5559 0.21346l1.8657-0.83076c0.21303-0.0948 0.30811-0.34267 0.21327-0.55571-0.0711-0.15978-0.22818-0.25323-0.39221-0.24997zm-50.237 2.602c-0.16349 0.0137-0.31006 0.12291-0.36424 0.28921-0.0722 0.22172 0.048 0.45839 0.26977 0.53064l4.6163 1.5042c0.22171 0.0722 0.45839-0.0481 0.53064-0.26977 0.0722-0.22172-0.048-0.4584-0.26977-0.53064l-4.6163-1.5042c-0.0554-0.0181-0.11192-0.024-0.16641-0.0194zm51.315 0.018c-0.0545-5e-3 -0.11078 1e-3 -0.16623 0.0194l-4.6174 1.5009c-0.22178 0.0721-0.34223 0.30869-0.27014 0.53046 0.0721 0.22177 0.30868 0.34223 0.53046 0.27014l4.6172-1.5009c0.22178-0.0721 0.3424-0.30869 0.27032-0.53046-0.0541-0.16633-0.20077-0.2757-0.36424-0.28957zm-51.987 2.7315c-0.1961-2e-3 -0.37196 0.13412-0.41438 0.33371-0.0485 0.2281 0.0962 0.45073 0.32427 0.49922l1.9978 0.42455c0.2281 0.0485 0.45072-0.0962 0.49921-0.32427 0.0485-0.22811-0.0962-0.45074-0.32427-0.49922l-1.9976-0.42455c-0.0285-6e-3 -0.057-9e-3 -0.085-9e-3zm52.655 4e-3c-0.028 2.3e-4 -0.0563 4e-3 -0.0848 9e-3l-1.9978 0.42437c-0.2281 0.0485-0.37271 0.27093-0.32426 0.49904 0.0485 0.2281 0.2711 0.3729 0.49921 0.32445l1.9976-0.42437c0.2281-0.0485 0.3729-0.27111 0.32445-0.49922-0.0424-0.19959-0.21829-0.33537-0.41437-0.33371zm-53.164 2.7617c-0.1952 0.0187-0.35587 0.17185-0.37731 0.37477-0.0245 0.2319 0.14232 0.43838 0.37422 0.46288l4.8283 0.51048c0.2319 0.0245 0.43838-0.1425 0.46288-0.37441 0.0245-0.2319-0.1425-0.43838-0.37441-0.46288l-4.8283-0.51048c-0.029-3e-3 -0.0575-3e-3 -0.0854-3.5e-4zm53.676 0.0363c-0.0279-3e-3 -0.0566-3e-3 -0.0856 3.5e-4l-4.8288 0.50394c-0.23194 0.0242-0.39914 0.2304-0.37496 0.46233 0.0242 0.23194 0.2304 0.39918 0.46234 0.37496l4.8288-0.50394c0.23193-0.0242 0.39914-0.2304 0.37496-0.46234-0.0212-0.20294-0.1816-0.35634-0.37678-0.37532zm-53.758 2.7947c-0.2332 0-0.42091 0.18772-0.42091 0.42092 0 0.23319 0.18771 0.42091 0.42091 0.42091h2.0423c0.23319 0 0.4211-0.18772 0.4211-0.42091 0-0.2332-0.18791-0.42092-0.4211-0.42092zm51.793 0c-0.23319 0-0.42092 0.18772-0.42092 0.42092 1e-5 0.23319 0.18773 0.42091 0.42092 0.42091h2.0423c0.23319 0 0.42092-0.18772 0.42092-0.42091 0-0.2332-0.18773-0.42092-0.42092-0.42092zm-46.803 2.2946c-0.0279-3e-3 -0.0564-3e-3 -0.0854 3.5e-4l-4.829 0.50394c-0.23194 0.0242-0.39913 0.2304-0.37495 0.46233 0.0242 0.23194 0.2304 0.39918 0.46233 0.37496l4.829-0.50394c0.23194-0.0242 0.39913-0.2304 0.37495-0.46234-0.0212-0.20294-0.18177-0.35634-0.37695-0.37531zm43.853 0.0298c-0.19521 0.0187-0.35588 0.17186-0.37732 0.37478-0.0245 0.2319 0.14233 0.43838 0.37423 0.46288l4.8283 0.51048c0.23191 0.0245 0.43837-0.14251 0.46288-0.37441 0.0245-0.2319-0.14251-0.43838-0.37441-0.46288l-4.8281-0.51048c-0.029-3e-3 -0.0577-3e-3 -0.0856-3.5e-4zm-46.26 2.8436c-0.028 2.4e-4 -0.0565 3e-3 -0.085 9e-3l-1.9978 0.42436c-0.22811 0.0485-0.37271 0.27111-0.32427 0.49922 0.0485 0.22811 0.27111 0.37272 0.49922 0.32427l1.9978-0.42419c0.2281-0.0485 0.37271-0.27111 0.32426-0.49921-0.0424-0.1996-0.2181-0.33537-0.41419-0.33372zm48.669 4e-3c-0.19609-2e-3 -0.37177 0.13394-0.41419 0.33353-0.0485 0.2281 0.096 0.45074 0.32409 0.49922l1.9978 0.42455c0.22809 0.0485 0.45073-0.096 0.49921-0.32409 0.0485-0.2281-0.0962-0.45092-0.32426-0.4994l-1.9976-0.42455c-0.0285-6e-3 -0.057-9e-3 -0.085-9e-3zm-45.305 1.6579c-0.0545-5e-3 -0.11077 1e-3 -0.16622 0.0194l-4.6174 1.5009c-0.22178 0.0721-0.34223 0.30869-0.27014 0.53046 0.0721 0.22178 0.30868 0.34222 0.53046 0.27014l4.6172-1.5009c0.22178-0.0721 0.34241-0.30869 0.27032-0.53046-0.0541-0.16633-0.20077-0.2757-0.36425-0.28957zm41.937 0.0149c-0.16349 0.0137-0.31005 0.12292-0.36423 0.28921-0.0722 0.22173 0.048 0.4584 0.26977 0.53065l4.6163 1.5042c0.22172 0.0722 0.4584-0.0481 0.53064-0.26977 0.0723-0.22172-0.048-0.4584-0.26977-0.53065l-4.6163-1.5042c-0.0554-0.0181-0.11191-0.024-0.16641-0.0194zm-43.699 3.2725c-0.0547 1e-3 -0.11006 0.0128-0.16332 0.0365l-1.8659 0.83075c-0.21304 0.0948-0.30812 0.34267-0.21328 0.55571 0.0949 0.21304 0.34268 0.30812 0.55571 0.21328l1.8659-0.83058c0.21303-0.0948 0.30811-0.34267 0.21327-0.55571-0.0711-0.15978-0.22837-0.25323-0.3924-0.24997zm45.459 0.016c-0.16403-4e-3 -0.32133 0.0899-0.39258 0.24961-0.095 0.21297-6e-5 0.4609 0.21291 0.55589l1.8652 0.83202c0.21297 0.095 0.46091 6e-5 0.5559-0.21291 0.095-0.21297 6e-5 -0.4609-0.21291-0.55589l-1.8652-0.83203c-0.0532-0.0238-0.10864-0.0356-0.16332-0.0367zm-41.826 0.91214c-0.0808-6e-3 -0.16424 0.012-0.23998 0.0558l-4.2046 2.4276c-0.20195 0.1166-0.27065 0.37302-0.15405 0.57497s0.37302 0.27065 0.57497 0.15405l4.2046-2.4274c0.20195-0.1166 0.27064-0.3732 0.15405-0.57515-0.0729-0.12622-0.2003-0.20041-0.33499-0.20982zm38.2 0c-0.13469 9e-3 -0.26229 0.0836-0.33517 0.20982-0.1166 0.20195-0.0479 0.45855 0.15405 0.57515l4.2046 2.4274c0.20196 0.1166 0.45855 0.0479 0.57515-0.15405s0.0479-0.45837-0.15404-0.57497l-4.2048-2.4276c-0.0757-0.0437-0.15899-0.0614-0.2398-0.0558zm-39.249 3.5624c-0.081 3e-3 -0.16211 0.0291-0.2329 0.0805l-1.653 1.1994c-0.18875 0.13694-0.2305 0.39912-0.0936 0.58787 0.13695 0.18875 0.39912 0.2305 0.58787 0.0935l1.6531-1.1994c0.18877-0.13693 0.23051-0.39911 0.0936-0.58786-0.0856-0.11797-0.22022-0.17866-0.35516-0.17404zm40.288 0.0142c-0.13494-5e-3 -0.26948 0.0558-0.35515 0.17367-0.13708 0.18865-0.0955 0.45098 0.0932 0.58805l1.6522 1.2004c0.18866 0.13707 0.4508 0.0955 0.58787-0.0932 0.13707-0.18866 0.0956-0.4508-0.093-0.58787l-1.6522-1.2004c-0.0707-0.0514-0.15193-0.0778-0.23289-0.0807zm-36.544 0.14533c-0.10743-6e-3 -0.21702 0.0298-0.30374 0.10773l-3.6108 3.2458c-0.17342 0.15589-0.18751 0.42098-0.0316 0.59441 0.15589 0.17342 0.42097 0.1875 0.5944 0.0316l3.6108-3.2458c0.17342-0.15589 0.18751-0.42098 0.0316-0.59441-0.0779-0.0867-0.18322-0.13361-0.29067-0.13933zm32.8 0.0116c-0.10745 6e-3 -0.21283 0.0525-0.29084 0.13915-0.15603 0.17332-0.14207 0.43839 0.0312 0.59441l3.6084 3.2483c0.17332 0.15604 0.43857 0.14208 0.59459-0.0312 0.15603-0.17331 0.14207-0.43839-0.0312-0.5944l-3.6086-3.2484c-0.0867-0.078-0.19611-0.11355-0.30356-0.10791zm-29.375 3.0836c-0.13493-5e-3 -0.2696 0.0554-0.35534 0.1733l-2.8561 3.9261c-0.13719 0.18858-0.0959 0.45087 0.0926 0.58805 0.18857 0.13719 0.45087 0.0959 0.58805-0.0927l2.8561-3.9261c0.13718-0.18857 0.0959-0.45086-0.0926-0.58805-0.0707-0.0514-0.15175-0.0778-0.23271-0.0806zm25.936 0.0176c-0.081 3e-3 -0.16211 0.0289-0.2329 0.0803-0.18875 0.13694-0.23048 0.39911-0.0936 0.58787l2.8509 3.93c0.13693 0.18876 0.39911 0.2305 0.58787 0.0936 0.18876-0.13693 0.23049-0.3991 0.0936-0.58786l-2.8509-3.93c-0.0856-0.11797-0.22004-0.17846-0.35498-0.17385zm-29.623 0.6064c-0.10745 6e-3 -0.21282 0.0525-0.29084 0.13915l-1.3665 1.5176c-0.15605 0.1733-0.14223 0.43855 0.0311 0.59459 0.1733 0.15604 0.43837 0.14205 0.5944-0.0313l1.3667-1.5176c0.15606-0.1733 0.14206-0.43856-0.0312-0.59459-0.0867-0.078-0.19611-0.11354-0.30357-0.10791zm33.331 2e-3c-0.10745-6e-3 -0.21691 0.0299-0.30356 0.10791-0.17333 0.156-0.18726 0.42108-0.0313 0.5944l1.3663 1.518c0.15602 0.17333 0.42109 0.18726 0.59442 0.0312 0.17332-0.15601 0.18726-0.42126 0.0312-0.59459l-1.3663-1.5178c-0.078-0.0867-0.18339-0.13351-0.29084-0.13916zm-25.655 1.6837c-0.16403-4e-3 -0.32114 0.0899-0.39239 0.24961l-1.9782 4.4339c-0.095 0.21297-5e-5 0.46089 0.21292 0.5559 0.21296 0.095 0.46089 5e-5 0.55589-0.21291l1.9782-4.4339c0.095-0.21296 5e-5 -0.46089-0.21292-0.55589-0.0532-0.0238-0.10881-0.0356-0.16349-0.0367zm17.956 0.0122c-0.0547 1e-3 -0.11023 0.0128-0.1635 0.0365-0.21297 0.0947-0.30836 0.34244-0.21363 0.55553l1.972 4.4366c0.0947 0.21297 0.34262 0.30836 0.55571 0.21364 0.21298-0.0947 0.30836-0.34244 0.21364-0.55553l-1.972-4.4366c-0.071-0.15973-0.22818-0.25329-0.39221-0.25015zm-21.432 1.3587c-0.13468 9e-3 -0.26212 0.0836-0.33498 0.20982l-1.0212 1.7687c-0.11659 0.20195-0.0479 0.45837 0.15406 0.57497 0.20195 0.1166 0.45837 0.0479 0.57496-0.15405l1.0212-1.7687c0.11659-0.20195 0.0479-0.45837-0.15406-0.57497-0.0757-0.0437-0.15916-0.0614-0.23998-0.0558zm24.934 0c-0.0808-6e-3 -0.16406 0.0121-0.23979 0.0558-0.20195 0.1166-0.27065 0.37302-0.15405 0.57497l1.0211 1.7687c0.1166 0.20195 0.37302 0.27064 0.57496 0.15405 0.20196-0.1166 0.27066-0.37302 0.15406-0.57497l-1.0211-1.7687c-0.0729-0.12622-0.20049-0.20041-0.33518-0.20982zm-17.054 0.0634c-0.19609-2e-3 -0.3718 0.13394-0.41419 0.33354l-1.009 4.7493c-0.0485 0.2281 0.0962 0.45076 0.32427 0.49921 0.22811 0.0485 0.45076-0.0962 0.49922-0.32427l1.009-4.7493c0.0485-0.2281-0.0962-0.45076-0.32427-0.49921-0.0285-6e-3 -0.057-9e-3 -0.085-9e-3zm9.1599 3e-3c-0.028 2.2e-4 -0.0563 3e-3 -0.0848 9e-3 -0.22814 0.0483-0.37294 0.27071-0.32465 0.49885l1.0055 4.75c0.0483 0.22814 0.27088 0.37293 0.49903 0.32464 0.22814-0.0483 0.37293-0.27089 0.32464-0.49903l-1.0057-4.7496c-0.0423-0.19963-0.21793-0.33543-0.41402-0.33391zm-4.5725 0.47905c-0.23319 0-0.42092 0.18772-0.42092 0.42092v4.8552c0 0.2332 0.18773 0.42092 0.42092 0.42092 0.2332 0 0.42092-0.18772 0.42092-0.42092v-4.8552c0-0.2332-0.18772-0.42092-0.42092-0.42092zm-7.7266 1.5689c-0.16347 0.0139-0.31017 0.12324-0.36423 0.28957l-0.63129 1.9424c-0.0721 0.22178 0.0484 0.45837 0.27014 0.53047 0.22177 0.0721 0.45836-0.0486 0.53046-0.27032l0.63128-1.9422c0.0721-0.22177-0.0484-0.45836-0.27013-0.53046-0.0554-0.018-0.11173-0.024-0.16623-0.0194zm15.45 1e-3c-0.0545-5e-3 -0.11078 1e-3 -0.16622 0.0193-0.22178 0.0721-0.34238 0.30868-0.27033 0.53047l0.63111 1.9424c0.0721 0.22179 0.30868 0.3422 0.53046 0.27014 0.22178-0.0721 0.34238-0.3085 0.27032-0.53028l-0.63128-1.9424c-0.0541-0.16634-0.20058-0.27568-0.36406-0.28957zm-10.365 1.0818c-0.1952 0.0188-0.356 0.17203-0.37732 0.37496l-0.21346 2.0312c-0.0244 0.23192 0.14268 0.43812 0.3746 0.46252s0.4383-0.14268 0.4627-0.3746l0.21345-2.031c0.0244-0.23192-0.14268-0.4383-0.37458-0.4627-0.029-3e-3 -0.0575-3e-3 -0.0854-3.5e-4zm5.2674 2e-3c-0.0279-3e-3 -0.0566-3e-3 -0.0856 3.5e-4 -0.23193 0.0242-0.39917 0.2304-0.37495 0.46233l0.21218 2.0314c0.0242 0.23193 0.2304 0.399 0.46234 0.37478 0.23193-0.0242 0.39918-0.23041 0.37496-0.46234l-0.212-2.0312c-0.0212-0.20295-0.18178-0.35637-0.37697-0.37533z" fill="#f4f2f3" style="paint-order:markers stroke fill"/><path transform="matrix(.35154 0 0 .35154 206.79 159.77)" d="m469.1 100.61-65.51 38.061-41.42 65.207 60.594-44.881z" filter="url(#filter2222)" opacity=".409" style="paint-order:markers stroke fill"/></g><path d="m18.62 17.921-3.3796-3.5393 11.989-8.0649z" fill="#ff5150" stroke-width=".27562" style="paint-order:markers stroke fill"/><path d="m18.618 17.922-3.3796-3.5393-8.6092 11.604z" fill="#f1f1f1" stroke-width=".27562" style="paint-order:markers stroke fill"/><path d="m6.6305 25.991 11.989-8.0649 8.6092-11.604z" opacity=".243" stroke-width=".51199"/></svg>
