<?xml version="1.0" encoding="UTF-8"?>
<svg version="1.1" viewBox="0 0 128 128" xmlns="http://www.w3.org/2000/svg"><g transform="matrix(.256 0 0 .256 -1.534 -1.5359)"><path d="m506 256a250 250 0 0 1-248.51 250 250 250 0 0 1-251.48-247.01 250 250 0 0 1 245.5-252.95 250 250 0 0 1 254.41 243.98" fill="#fc5424"/><path d="m261.3 166.34c-48.1 0-76.959 33.794-76.959 89.541 0 56.98 28.859 89.787 76.959 89.787 48.347 0 77.207-33.794 77.207-89.787 0-56.98-28.86-89.541-77.207-89.541zm155.15 0c-35.52 0-61.668 19.241-61.668 49.334 0 25.407 14.062 41.193 52.295 53.033 24.913 7.6467 31.326 13.32 31.326 25.9 0 13.073-10.359 20.967-27.133 20.967-17.02 0-30.588-6.1668-43.168-16.773l-20.473 22.447c14.06 13.567 35.273 24.42 64.873 24.42 42.673 0 67.834-22.201 67.834-54.021 0-31.573-18.501-44.892-50.814-55.252-26.64-8.3867-33.053-12.828-33.053-23.682 0-10.853 8.8794-16.771 22.939-16.771 13.813 0 25.654 4.6866 37.494 14.307l18.746-21.955c-15.047-14.307-33.053-21.953-59.199-21.953zm-384.8 4.1934v170.94h51.307c43.66 0 85.1-17.514 85.1-86.334 0-70.547-43.165-84.607-88.799-84.607h-47.607zm229.65 25.408c22.94 0 34.781 16.773 34.781 59.939 0 43.413-11.595 60.186-34.781 60.186-22.2 0-34.533-16.772-34.533-60.186 0-43.167 11.84-59.939 34.533-59.939zm-189.19 3.9453h12.828c23.68 0 41.193 9.3738 41.193 55.254 0 45.387-16.281 56.98-40.701 56.98h-13.32v-112.23z"/></g></svg>
