<?xml version="1.0" encoding="UTF-8"?>
<svg width="128" height="128" version="1.1" viewBox="0 0 33.867 33.867" xmlns="http://www.w3.org/2000/svg"><defs><mask id="mask-2" fill="#ffffff"><circle cx="384" cy="384" r="384"/></mask></defs><g id="Group" transform="scale(.044097)" fill-rule="evenodd" mask="url(#mask-2)"><rect id="Rectangle" width="192" height="192" fill="#0d2e46"/><rect x="192" width="192" height="192" fill="#415a6e"/><rect x="384" width="192" height="192" fill="#597961"/><rect x="576" width="192" height="192" fill="#6d4048"/><rect x="576" y="192" width="192" height="192" fill="#e08f88"/><rect x="384" y="192" width="192" height="192" fill="#e3b59c"/><rect x="192" y="192" width="192" height="192" fill="#8ba281"/><rect y="192" width="192" height="192" fill="#6378ab"/><rect y="384" width="192" height="192" fill="#7d5a49"/><rect x="192" y="384" width="192" height="192" fill="#b48268"/><rect x="384" y="384" width="192" height="192" fill="#8f595b"/><rect x="576" y="384" width="192" height="192" fill="#ebe0d3"/><rect x="576" y="576" width="192" height="192" fill="#5f495d"/><rect x="384" y="576" width="192" height="192" fill="#b1a0b8"/><rect x="192" y="576" width="192" height="192" fill="#fbeee9"/><rect y="576" width="192" height="192" fill="#c08679"/></g></svg>
