<?xml version="1.0" standalone="no"?>
<!DOCTYPE svg PUBLIC "-//W3C//DTD SVG 20010904//EN"
 "http://www.w3.org/TR/2001/REC-SVG-20010904/DTD/svg10.dtd">
<svg version="1.0" xmlns="http://www.w3.org/2000/svg"
 width="1024.000000pt" height="1024.000000pt" viewBox="0 0 1024.000000 1024.000000"
 preserveAspectRatio="xMidYMid meet">
<metadata>
Created by potrace 1.16, written by Peter Selinger 2001-2019
</metadata>
<g transform="translate(0.000000,1024.000000) scale(0.100000,-0.100000)"
fill="#ffffff" stroke="none">
<path d="M4055 10121 c-77 -27 -205 -73 -285 -101 -80 -29 -188 -67 -240 -85
-52 -19 -140 -50 -195 -70 -55 -20 -181 -65 -280 -100 -201 -71 -427 -151
-615 -218 -69 -25 -210 -75 -315 -111 -104 -37 -226 -80 -270 -96 -44 -16
-138 -50 -210 -75 -169 -59 -383 -136 -415 -148 -14 -6 -29 -11 -35 -13 -5 -1
-80 -27 -165 -57 -415 -146 -540 -191 -595 -212 -33 -12 -112 -41 -176 -64
-132 -48 -185 -88 -222 -168 l-22 -48 0 -925 c0 -938 2 -992 41 -1380 49 -488
156 -1011 309 -1504 61 -197 184 -532 247 -676 40 -90 47 -106 78 -180 28 -65
215 -447 248 -505 164 -290 298 -511 397 -652 27 -40 73 -105 100 -145 28 -39
84 -116 125 -171 41 -55 84 -112 95 -127 31 -40 95 -120 135 -166 19 -22 44
-52 54 -65 115 -147 475 -524 706 -739 173 -161 542 -466 675 -557 22 -16 45
-33 50 -39 6 -5 28 -22 50 -37 22 -14 60 -41 85 -58 164 -118 524 -346 681
-433 72 -39 133 -52 202 -42 37 6 177 79 346 181 9 6 34 21 56 34 51 31 415
272 435 288 8 7 71 54 139 104 135 101 174 145 197 226 35 122 -34 257 -161
315 -67 30 -169 30 -240 -1 -27 -12 -52 -26 -55 -30 -20 -28 -395 -285 -626
-429 -145 -91 -135 -89 -224 -34 -235 147 -373 242 -610 416 -405 298 -905
768 -1246 1171 -180 213 -362 457 -536 720 -84 127 -238 380 -238 391 0 3 -8
18 -19 32 -71 101 -297 577 -415 875 -273 690 -422 1354 -487 2172 -12 157
-22 1694 -11 1710 4 6 23 16 42 22 19 6 98 34 175 61 217 79 590 211 695 247
52 19 140 50 195 70 55 20 150 54 210 75 61 21 162 57 225 80 63 23 165 59
225 80 61 21 232 82 380 135 149 53 295 105 325 115 30 10 138 48 240 85 102
37 228 82 280 100 52 18 217 76 365 130 207 74 278 96 305 92 19 -2 78 -20
130 -40 52 -19 178 -65 280 -101 102 -36 194 -70 205 -75 18 -8 269 -98 470
-168 39 -13 221 -78 405 -145 184 -66 389 -140 455 -164 66 -23 210 -75 320
-114 110 -40 256 -92 325 -117 69 -24 154 -55 190 -68 36 -13 148 -54 250 -90
102 -36 214 -76 250 -89 36 -14 128 -47 205 -74 l140 -50 3 -579 c7 -1319 -49
-1851 -278 -2653 -26 -91 -22 -157 13 -227 65 -126 206 -182 355 -138 58 17
137 83 164 137 18 36 75 234 83 288 0 3 3 10 6 15 4 6 14 46 24 90 10 44 28
125 41 180 45 194 113 598 134 805 42 399 42 420 47 1375 5 933 4 940 -16 995
-24 63 -88 135 -141 158 -37 16 -252 94 -545 197 -99 35 -232 82 -295 105 -63
23 -126 45 -140 50 -14 5 -81 29 -150 53 -69 25 -141 51 -160 57 -19 7 -82 29
-140 50 -58 22 -188 68 -290 104 -349 122 -415 146 -435 155 -11 5 -60 23
-110 40 -49 16 -142 49 -205 72 -63 22 -164 58 -225 79 -60 21 -162 57 -225
80 -63 23 -158 57 -210 75 -86 30 -275 97 -665 237 -273 98 -272 98 -470 29z"/>
<path d="M5923 5035 c-66 -20 -126 -59 -191 -125 -228 -228 -401 -724 -437
-1256 l-7 -102 -81 -16 c-222 -44 -429 -202 -556 -421 -154 -268 -146 -616 18
-788 154 -163 428 -122 685 103 31 27 60 50 64 50 4 0 20 -25 36 -56 37 -70
123 -148 193 -174 128 -48 256 -9 495 149 119 78 108 79 123 -9 8 -52 43 -116
72 -136 68 -44 163 -34 212 22 17 19 118 209 226 423 107 214 199 393 205 396
21 13 22 -4 6 -122 -49 -348 -21 -595 78 -698 42 -44 44 -45 108 -45 113 0
260 57 398 154 l65 45 14 -27 c51 -100 156 -164 300 -184 259 -36 689 83 998
275 l82 51 3 155 c2 86 2 159 0 163 -1 3 -26 -10 -55 -29 -60 -41 -448 -234
-457 -228 -4 2 -10 57 -13 122 -4 65 -15 152 -26 193 -79 303 -80 276 4 376
97 117 117 149 122 196 5 57 -13 88 -67 116 -61 30 -147 30 -215 -1 -63 -30
-115 -87 -286 -312 -204 -270 -257 -332 -370 -430 -169 -146 -225 -206 -233
-248 -12 -66 -109 -94 -152 -44 -64 75 -60 268 16 654 17 84 30 170 30 191 0
89 -48 180 -107 203 -73 28 -191 -8 -250 -76 -21 -24 -96 -152 -167 -284 -98
-185 -133 -241 -147 -241 -23 0 -24 -16 6 173 34 218 39 284 26 334 -17 62
-48 93 -98 100 -89 12 -161 -26 -198 -103 -22 -47 -69 -279 -95 -474 -27 -202
-30 -223 -37 -217 -3 3 -32 -16 -65 -44 -83 -69 -198 -145 -271 -180 -151 -71
-217 -15 -217 186 0 153 22 223 189 592 260 577 352 894 353 1223 0 69 -5 153
-12 185 -40 196 -163 289 -317 240z m46 -334 c68 -68 19 -447 -106 -821 -58
-175 -203 -540 -214 -540 -21 0 -2 357 32 630 55 444 136 701 233 740 30 13
34 12 55 -9z m-668 -1524 c0 -84 4 -195 8 -247 l8 -95 -38 -81 c-74 -156 -146
-224 -240 -224 -103 0 -153 56 -152 171 1 163 80 346 213 491 64 71 174 153
191 142 5 -3 9 -74 10 -157z m2870 -299 c39 -161 28 -307 -29 -372 -47 -52
-146 -70 -217 -37 -45 20 -155 116 -155 136 0 14 354 365 368 365 6 0 20 -42
33 -92z"/>
</g>
</svg>
