<?xml version="1.0" encoding="UTF-8"?>
<svg width="128" height="128" version="1.1" viewBox="0 0 33.867 33.867" xmlns="http://www.w3.org/2000/svg"><path d="m29.633 8.2833e-7h-25.4c-2.3283 0-4.2333 1.905-4.2333 4.2333v25.4c0 2.3283 1.905 4.2333 4.2333 4.2333h25.4c2.3283 0 4.2333-1.905 4.2333-4.2333v-25.4c0-2.3283-1.905-4.2333-4.2333-4.2333zm-17.992 15.875c0 1.7568-1.4182 3.175-3.175 3.175h-2.1167v2.6458c0 0.86783-0.71967 1.5875-1.5875 1.5875s-1.5875-0.71967-1.5875-1.5875v-8.9958c0-1.1642 0.9525-2.1167 2.1167-2.1167h3.175c1.7568 0 3.175 1.4182 3.175 3.175zm10.583 4.2333c0 1.7568-1.4182 3.175-3.175 3.175h-4.2333c-0.59267 0-1.0583-0.46567-1.0583-1.0583v-10.583c0-0.59267 0.46567-1.0583 1.0583-1.0583h4.2333c1.7568 0 3.175 1.4182 3.175 3.175zm8.4667-7.9375c0 0.86783-0.71967 1.5875-1.5875 1.5875h-1.5875v2.1167h1.5875c0.86784 0 1.5875 0.71967 1.5875 1.5875s-0.71967 1.5875-1.5875 1.5875h-1.5875v2.6458c0 0.86783-0.71967 1.5875-1.5875 1.5875-0.86783 0-1.5875-0.71967-1.5875-1.5875v-8.9958c0-1.1642 0.9525-2.1167 2.1167-2.1167h2.6458c0.86784 0 1.5875 0.71967 1.5875 1.5875zm-24.342 3.7042h2.1167v-2.1167h-2.1167zm10.583 4.2333h2.1167v-6.35h-2.1167z" stroke-width="2.1167"/></svg>
