<?xml version="1.0" encoding="UTF-8"?>
<svg version="1.1" viewBox="0 0 126.58 128" xmlns="http://www.w3.org/2000/svg"><defs><style>.ffca8004-faa4-460f-9db2-0ce456f4982b{opacity:0.2;}.\34 34927b1-b62e-41a1-85d4-12dc9e893b7e{fill:#efbc47;}.\30 aa0fe2b-2b82-41a2-a160-82ad7d75e0ca,.\32 36ecd15-c982-4eb5-93ac-b08221203b4e,.\34 34927b1-b62e-41a1-85d4-12dc9e893b7e,.\38 d0f6148-f92c-4962-83ab-fd87f0e1ea6b,.d1103f53-cdd8-4e15-b9ef-ecdc9c405dfb{fill-rule:evenodd;}.d1103f53-cdd8-4e15-b9ef-ecdc9c405dfb{fill:#e2cdb3;}.\32 36ecd15-c982-4eb5-93ac-b08221203b4e{fill:#fcf1e3;}.\37 958d8f3-6a5a-4841-ae4a-57eb7ddf450c{fill:#20190a;}.\38 d0f6148-f92c-4962-83ab-fd87f0e1ea6b{fill:#f9f8f4;}.\30 aa0fe2b-2b82-41a2-a160-82ad7d75e0ca{fill:#f9e4c4;}</style><linearGradient id="a" x1="40.673" x2="172.28" y1="106.55" y2="106.55" gradientTransform="matrix(.70575 0 0 .70575 14.838 21.6)" gradientUnits="userSpaceOnUse"><stop offset="0"/><stop stop-opacity="0" offset="1"/></linearGradient><filter id="c" x="-.018809" y="-.018809" width="1.0455" height="1.0572" color-interpolation-filters="sRGB"><feFlood flood-color="rgb(0,0,0)" flood-opacity=".50196" result="flood"/><feComposite in="flood" in2="SourceGraphic" operator="in" result="composite1"/><feGaussianBlur in="composite1" result="blur" stdDeviation="1"/><feOffset dx="1" dy="2.5" result="offset"/><feComposite in="SourceGraphic" in2="offset" result="composite2"/></filter><filter id="c-3" x="-.018809" y="-.018809" width="1.0455" height="1.0572" color-interpolation-filters="sRGB"><feFlood flood-color="rgb(0,0,0)" flood-opacity=".50196" result="flood"/><feComposite in="flood" in2="SourceGraphic" operator="in" result="composite1"/><feGaussianBlur in="composite1" result="blur" stdDeviation="1"/><feOffset dx="1" dy="2.5" result="offset"/><feComposite in="SourceGraphic" in2="offset" result="composite2"/></filter><clipPath id="clipPath1121"><circle transform="matrix(.94738 0 0 .94885 -.18948 -.18977)" cx="66.4" cy="66.4" r="63.8" fill="#1a1a1a" fill-rule="evenodd" filter="url(#c-3)" opacity=".5" stroke-miterlimit="2" stroke-opacity="0" style="paint-order:fill markers stroke"/></clipPath></defs><circle transform="matrix(.94738 0 0 .94885 -.089844 -.18977)" cx="66.4" cy="66.4" r="63.8" fill="#1a1a1a" fill-rule="evenodd" filter="url(#c)" opacity=".5" stroke-miterlimit="2" stroke-opacity="0" style="paint-order:fill markers stroke"/><g clip-path="url(#clipPath1121)"><rect class="c8ccf376-3646-46eb-b290-624f85d06652" x="-5.9" y="75.208" width="135.67" height="55.394" fill="#008079" stroke-width=".044365"/><rect class="bfb9031a-cf22-4c0e-a97b-1df27b9110f0" x="-5.9" y="-5.3677" width="135.67" height="80.575" fill="#1f2603" stroke-width=".044365"/><path d="m60.194 40.316c-0.26609 0-0.53384 0.01399-0.80236 0.03938-5.48e-4 5.2e-5 -0.0011-5.3e-5 -0.0017 0-0.53761 0.05093-1.0796 0.15261-1.6227 0.30026-5.2e-4 1.41e-4 -0.0011-1.41e-4 -0.0017 0-0.54318 0.14784-1.0878 0.34296-1.631 0.58085-0.27184 0.11905-0.54468 0.24852-0.81548 0.38887-0.81238 0.42103-1.6182 0.93653-2.4087 1.5342-0.527 0.3984-1.0468 0.83267-1.5571 1.3011-0.25546 0.2345-0.50782 0.47772-0.75805 0.72852-0.49964 0.50076-0.98896 1.0325-1.4636 1.5932-2.67e-4 3.16e-4 2.66e-4 0.0013 0 0.0017-0.47464 0.56074-0.93578 1.1498-1.3799 1.7639-1.5553 2.1502-2.9067 4.606-3.9347 7.2244-0.2937 0.74814-0.56091 1.5095-0.79907 2.2807-0.11908 0.38564-0.23057 0.77317-0.33473 1.1634-1.37e-4 5.08e-4 1.35e-4 0.0011 0 0.0017-0.31225 1.17-0.55643 2.3584-0.72196 3.554-0.11052 0.79794-0.18658 1.5979-0.22479 2.3989-0.01909 0.40021-0.02953 0.80136-0.02953 1.2011 1.6e-5 0.7766 0.03227 1.5323 0.09189 2.2693 0.0017 0.02162 0.0031 0.04404 5e-3 0.06563 0.0031 0.03609 0.0083 0.07066 0.01153 0.10665 0.12254 1.4011 0.35038 2.7279 0.67437 3.9789 0.01701 0.06565 0.0317 0.13331 0.04922 0.19854 0.0206 0.07668 0.04431 0.15034 0.06563 0.22643 0.16506 0.58892 0.34909 1.1629 0.55623 1.7163 0.11764 0.31429 0.24344 0.62278 0.3741 0.92544 0.1291 0.29903 0.26219 0.59193 0.40364 0.87949 0.28486 0.57924 0.59446 1.1336 0.92704 1.6654 9.76e-4 0.0017 0.0023 0.0033 0.0033 5e-3 0.16636 0.26583 0.33914 0.52561 0.51685 0.77938 0.17619 0.2516 0.35614 0.4971 0.5431 0.73672 4.67e-4 5.99e-4 0.0012 9.78e-4 0.0017 0.0017 8.87e-4 0.0012 0.0023 0.0021 0.0033 0.0033 0.28427 0.36403 0.58455 0.71086 0.8926 1.0468 0.09895 0.10793 0.19567 0.21823 0.29699 0.32323 0.0049 5e-3 0.0099 0.0097 0.01476 0.01477l0.0017 0.0017c0.0045 0.0047 0.0086 0.01006 0.01313 0.01476 0.01267 0.01313 0.02669 0.02465 0.03938 0.03773 0.0086 0.0088 0.01759 0.0174 0.02624 0.02624 0.0103 0.01055 0.02085 0.02065 0.03117 0.03117 0.0124 0.01284 0.0253 0.02494 0.03773 0.03773 0.03917 0.04076 0.08025 0.07945 0.11978 0.11978 0.03369 0.0349 0.06943 0.06715 0.10337 0.10172 0.04732 0.04919 0.09656 0.09585 0.1444 0.1444 0.0572 0.0595 0.11763 0.11537 0.17556 0.17392 0.07031 0.07324 0.14199 0.14467 0.21495 0.21494 23.074 22.97 47.172 46.859 70.891 70.409 3.916 3.8881 8.7445 7.4279 14.795 7.4279 10.21 0 18.487-7.4751 18.487-20.266 0-9.1452-5.0902-18.531-11.11-23.139-24.344-23.232-48.073-48.215-69.271-69.413-0.11932-0.122-0.23874-0.24264-0.35933-0.36098-0.10767-0.10995-0.21616-0.21789-0.32488-0.32488-0.09299-0.09473-0.1868-0.18805-0.28057-0.28057-0.08036-0.08167-0.16026-0.16281-0.2412-0.24284-0.07199-0.07298-0.14413-0.14492-0.21658-0.21658-0.04913-0.04962-0.09833-0.09866-0.14767-0.14767-0.04415-0.04462-0.08858-0.08879-0.1329-0.1329-0.03571-0.03603-0.07083-0.0726-0.10665-0.1083-0.02674-0.02693-0.0536-0.05364-0.0804-0.0804-0.02045-0.02058-0.04022-0.04189-0.06072-0.06236-0.01887-0.01896-0.03853-0.03691-0.05743-0.05579l-0.0017-0.0017c-0.0025-0.0025-4e-3 -0.0058-0.0066-0.0082-6e-3 -6e-3 -0.01214-0.01202-0.01804-0.01804l-5e-3 -5e-3c-0.0013-0.0015-0.0036-2e-3 -5e-3 -0.0033-0.12014-0.12041-0.24286-0.23277-0.36426-0.3495-0.11918-0.11452-0.23739-0.23208-0.3577-0.34292-0.01079-0.0099-0.02039-0.02129-0.03117-0.03117-0.0017-0.0016-0.0032-0.0034-5e-3 -5e-3 -0.25402-0.23318-0.50941-0.4565-0.76789-0.67273-0.0012-9.76e-4 -0.0021-0.0023-0.0033-0.0033-5.96e-4 -4.98e-4 -9.78e-4 -0.0012-0.0017-0.0017-0.25849-0.21614-0.51875-0.42186-0.78102-0.62022-0.0012-8.87e-4 -0.0021-0.0023-0.0033-0.0033-0.26191-0.19799-0.52587-0.38663-0.79087-0.56608-0.26784-0.18139-0.53698-0.35362-0.80728-0.51521-6.48e-4 -3.86e-4 -9.76e-4 -0.0012-0.0017-0.0017-0.80716-0.4824-1.6233-0.8742-2.4399-1.165-0.27217-0.09692-0.54365-0.18202-0.81548-0.25597-0.54366-0.14789-1.0863-0.2493-1.6244-0.30026-0.26905-0.02548-0.53738-0.03938-0.80399-0.03938z" fill="url(#a)" fill-rule="evenodd" opacity=".5" stroke="url(#a)" stroke-width=".054407px" style="mix-blend-mode:color"/><g transform="matrix(1.1618 0 0 1.1636 -11.166 -10.922)" stroke-width=".064763"><path class="434927b1-b62e-41a1-85d4-12dc9e893b7e" d="m62.711 35.284c-10.156 0-22.005 15.789-22.005 31.014s9.8523 24.122 22.005 24.122 22.005-8.8967 22.005-24.122-11.849-31.014-22.005-31.014z"/><path class="d1103f53-cdd8-4e15-b9ef-ecdc9c405dfb" d="m86.504 64.778-3.6188 3.5867-5.4986-7.3517-5.4986 7.3517-3.6673-3.6755-3.6673 3.6755-3.6679-5.511-3.6673 3.8596-3.6712-2.0242-1.834 1.8374-1.834-5.511-7.3346 5.511-3.611-1.8848s-0.05693 1.2572-0.05693 1.8848c0 16.241 10.674 25.73 23.839 25.73s23.838-9.4893 23.838-25.73q-0.0013-0.87333-0.04981-1.7486z"/><path class="236ecd15-c982-4eb5-93ac-b08221203b4e" d="m62.711 33.449c-7.1288 0-15.027 7.067-19.705 16.465l1.3675 1.9133 5.4986-5.511 1.834 5.511 1.834-1.8381 3.6673 1.8381 3.6673-3.6755 1.834 3.6755 3.6673-1.8381 3.6673 1.8381 3.6679-3.6755 5.4986 5.511 3.3639-3.4194c-4.6499-9.558-12.65-16.794-19.862-16.794z"/><ellipse class="7958d8f3-6a5a-4841-ae4a-57eb7ddf450c" cx="55.375" cy="58.255" rx="1.834" ry="2.7568"/><ellipse class="7958d8f3-6a5a-4841-ae4a-57eb7ddf450c" cx="70.047" cy="58.255" rx="1.834" ry="2.7568"/><path class="8d0f6148-f92c-4962-83ab-fd87f0e1ea6b" d="m69.497 55.688a0.98458 0.98679 0 0 0-0.1242 0.0091c-0.31698 0.18867-0.59062 0.50571-0.79245 0.90769a0.91666 0.91871 0 1 0 0.91666-0.91871z"/><path class="8d0f6148-f92c-4962-83ab-fd87f0e1ea6b" d="m54.825 55.688a0.98458 0.98679 0 0 0-0.1242 0.0091c-0.31698 0.18867-0.59127 0.50571-0.79245 0.90769a0.91666 0.91871 0 1 0 0.91666-0.91871z"/><path class="0aa0fe2b-2b82-41a2-a160-82ad7d75e0ca" d="m62.776 35.284c-7.1288 0-15.027 6.4498-19.705 15.022l1.3675 1.7454 5.4986-5.0306 1.834 5.0306 1.834-1.6766 3.6673 1.6766 3.6673-3.3533 1.834 3.3533 3.6673-1.6766 3.6673 1.6766 3.6679-3.3533 5.4986 5.0299 3.3639-3.1192c-4.6499-8.7223-12.65-15.324-19.862-15.324z"/><path class="0aa0fe2b-2b82-41a2-a160-82ad7d75e0ca" d="m86.504 64.557-3.6188 3.3753-5.4986-6.9192-5.4986 6.9192-3.6673-3.4596-3.6673 3.4596-3.6679-5.1868-3.6673 3.6308-3.6712-1.9023-1.834 1.7298-1.834-5.1868-7.3346 5.1868-3.6123-1.7765s-0.05693 1.1832-0.05693 1.7739c0 15.285 10.674 24.217 23.839 24.217s23.838-8.9317 23.838-24.217q0-0.81887-0.04852-1.6442z"/></g></g></svg>
