<svg width="128" height="128" version="1.1" viewBox="0 0 33.867 33.867" xmlns="http://www.w3.org/2000/svg"><defs><linearGradient id="linearGradient-1" x1="3.2519" x2="50.717" y1="38.779" y2="16.874" gradientUnits="userSpaceOnUse"><stop stop-color="#B631D9" offset="0"/><stop stop-color="#490161" offset="1"/></linearGradient><linearGradient id="linearGradient-2" x1="53.245" x2=".63" y1="29.738" y2="29.738" gradientUnits="userSpaceOnUse"><stop stop-color="#B631D9" offset="0"/><stop stop-color="#490161" offset="1"/></linearGradient></defs><g transform="matrix(.64533 0 0 .64533 8.5333e-8 -.31881)" fill="none" fill-rule="evenodd"><g transform="translate(-39,-31)"><g id="Group-4-Copy" transform="translate(39,31)"><path id="Combined-Shape" d="m26.24 0.49404c14.492 0 26.24 11.748 26.24 26.24s-11.748 26.24-26.24 26.24-26.24-11.748-26.24-26.24 11.748-26.24 26.24-26.24zm0 13.053c-7.2828 0-13.187 5.9038-13.187 13.187 0 7.2828 5.9038 13.187 13.187 13.187 7.2828 0 13.187-5.9038 13.187-13.187 0-7.2828-5.9038-13.187-13.187-13.187z" fill="url(#linearGradient-1)"/><path d="m26.88 8.174c10.604 0 19.2 8.5961 19.2 19.2s-8.5961 19.2-19.2 19.2-19.2-8.5961-19.2-19.2 8.5961-19.2 19.2-19.2zm0 6c-7.2902 0-13.2 5.9098-13.2 13.2s5.9098 13.2 13.2 13.2 13.2-5.9098 13.2-13.2-5.9098-13.2-13.2-13.2z" fill="url(#linearGradient-2)"/></g></g></g></svg>
