<svg width="1051" height="447" version="1.1" viewBox="0 0 278.08 118.27" xmlns="http://www.w3.org/2000/svg"><g transform="matrix(.11594 0 0 .11594 -9.9872 3.2974)"><rect x="87.098" y="355.92" width="154.36" height="165.5" fill="#729fcf"/><path d="m164.32 521.41h-77.221v-165.5h154.36v165.5h-77.139" fill="none" stroke="#3465a4" stroke-width=".08px"/><path d="m481.94 94.093c0 14.509-3.566 28.843-10.372 41.438-6.726 12.51-16.53 23.022-28.198 30.233-11.749 7.297-25.119 11.12-38.653 11.12-13.532 0-26.901-3.823-38.569-11.12-11.749-7.211-21.554-17.723-28.279-30.233-6.807-12.597-10.372-26.931-10.372-41.438 0-14.508 3.566-28.842 10.372-41.351 6.725-12.597 16.53-23.108 28.198-30.319 11.749-7.297 25.119-11.12 38.653-11.12 13.532 0 26.901 3.823 38.569 11.12 11.749 7.211 21.553 17.723 28.279 30.319 6.806 12.51 10.372 26.845 10.372 41.351z" fill="#81d41a"/><path d="m481.94 93.965c0 14.508-3.566 28.842-10.372 41.438-6.726 12.51-16.53 23.022-28.198 30.232-11.749 7.297-25.119 11.12-38.653 11.12-13.532 0-26.901-3.823-38.569-11.12-11.749-7.21-21.554-17.723-28.279-30.232-6.807-12.597-10.372-26.931-10.372-41.438 0-14.508 3.566-28.843 10.372-41.351 6.725-12.597 16.53-23.109 28.198-30.319 11.749-7.298 25.119-11.12 38.653-11.12 13.532 0 26.901 3.822 38.569 11.12 11.749 7.21 21.553 17.722 28.279 30.319 6.806 12.51 10.372 26.844 10.372 41.351" fill="none" stroke="#3465a4" stroke-width=".08px"/><path d="m790.68 94.18c0 14.509-3.565 28.756-10.371 41.351-6.726 12.597-16.53 23.022-28.198 30.233-11.75 7.297-25.119 11.12-38.653 11.12-13.532 0-26.901-3.823-38.569-11.12-11.749-7.211-21.554-17.636-28.279-30.233-6.807-12.597-10.372-26.844-10.372-41.351 0-14.595 3.565-28.842 10.372-41.438 6.725-12.597 16.53-23.021 28.279-30.232 11.668-7.297 25.038-11.12 38.569-11.12 13.532 0 26.902 3.823 38.653 11.12 11.668 7.211 21.472 17.636 28.198 30.232 6.806 12.597 10.371 26.845 10.371 41.438z" fill="#800080"/><path d="m790.68 94.052c0 14.508-3.565 28.755-10.371 41.351-6.726 12.597-16.53 23.022-28.198 30.232-11.75 7.297-25.119 11.12-38.653 11.12-13.532 0-26.901-3.823-38.569-11.12-11.749-7.21-21.554-17.636-28.279-30.232-6.807-12.597-10.372-26.845-10.372-41.351 0-14.595 3.565-28.843 10.372-41.438 6.725-12.597 16.53-23.022 28.279-30.232 11.668-7.298 25.038-11.12 38.569-11.12 13.532 0 26.902 3.822 38.653 11.12 11.668 7.21 21.472 17.635 28.198 30.232 6.806 12.597 10.371 26.844 10.371 41.438" fill="none" stroke="#3465a4" stroke-width=".08px"/><path d="m1099.4 94.139c0 14.508-3.57 28.755-10.37 41.351-6.73 12.597-16.53 23.022-28.2 30.232-11.75 7.297-25.12 11.12-38.65 11.12-13.54 0-26.906-3.823-38.574-11.12-11.749-7.21-21.554-17.636-28.279-30.232-6.807-12.597-10.372-26.845-10.372-41.351 0-14.595 3.566-28.843 10.372-41.438 6.725-12.597 16.53-23.022 28.279-30.233 11.668-7.297 25.034-11.12 38.574-11.12 13.53 0 26.9 3.823 38.65 11.12 11.67 7.211 21.47 17.636 28.2 30.233 6.8 12.597 10.37 26.844 10.37 41.438z" fill="#ff8000"/><path d="m1099.4 94.139c0 14.508-3.57 28.755-10.37 41.351-6.73 12.597-16.53 23.022-28.2 30.232-11.75 7.297-25.12 11.12-38.65 11.12-13.54 0-26.906-3.823-38.574-11.12-11.749-7.21-21.554-17.636-28.279-30.232-6.807-12.597-10.372-26.845-10.372-41.351 0-14.595 3.566-28.843 10.372-41.438 6.725-12.597 16.53-23.022 28.279-30.233 11.668-7.297 25.034-11.12 38.574-11.12 13.53 0 26.9 3.823 38.65 11.12 11.67 7.211 21.47 17.636 28.2 30.233 6.8 12.597 10.37 26.844 10.37 41.438" fill="none" stroke="#3465a4" stroke-width=".08px"/><path d="m481.94 432.9c0 14.508-3.566 28.756-10.372 41.351-6.726 12.597-16.53 23.022-28.198 30.232-11.749 7.298-25.119 11.12-38.653 11.12-13.532 0-26.901-3.822-38.569-11.12-11.749-7.21-21.554-17.635-28.279-30.232-6.807-12.597-10.372-26.844-10.372-41.351 0-14.595 3.566-28.842 10.372-41.438 6.725-12.597 16.53-23.022 28.198-30.232 11.749-7.298 25.119-11.12 38.653-11.12 13.532 0 26.901 3.822 38.569 11.12 11.749 7.21 21.553 17.636 28.279 30.232 6.806 12.597 10.372 26.844 10.372 41.438z" fill="#81d41a"/><path d="m481.94 438.8c0 14.508-3.566 28.756-10.372 41.351-6.726 12.597-16.53 23.022-28.198 30.232-11.749 7.298-25.119 11.12-38.653 11.12-13.532 0-26.901-3.822-38.569-11.12-11.749-7.21-21.554-17.635-28.279-30.232-6.807-12.597-10.372-26.844-10.372-41.351 0-14.595 3.566-28.843 10.372-41.438 6.725-12.597 16.53-23.022 28.198-30.232 11.749-7.298 25.119-11.12 38.653-11.12 13.532 0 26.901 3.822 38.569 11.12 11.749 7.21 21.553 17.635 28.279 30.232 6.806 12.597 10.372 26.844 10.372 41.438" fill="none" stroke="#3465a4" stroke-width=".08px"/><path d="m790.68 432.9c0 14.508-3.565 28.756-10.371 41.351-6.726 12.597-16.53 23.022-28.198 30.232-11.75 7.298-25.119 11.12-38.653 11.12-13.532 0-26.901-3.822-38.569-11.12-11.749-7.21-21.554-17.635-28.279-30.232-6.807-12.597-10.372-26.844-10.372-41.351 0-14.595 3.565-28.842 10.372-41.438 6.725-12.597 16.53-23.022 28.279-30.232 11.668-7.298 25.038-11.12 38.569-11.12 13.532 0 26.902 3.822 38.653 11.12 11.668 7.21 21.472 17.636 28.198 30.232 6.806 12.597 10.371 26.844 10.371 41.438z" fill="#800080"/><path d="m790.68 438.8c0 14.508-3.565 28.756-10.371 41.351-6.726 12.597-16.53 23.022-28.198 30.232-11.75 7.298-25.119 11.12-38.653 11.12-13.532 0-26.901-3.822-38.569-11.12-11.749-7.21-21.554-17.635-28.279-30.232-6.807-12.597-10.372-26.844-10.372-41.351 0-14.595 3.565-28.843 10.372-41.438 6.725-12.597 16.53-23.022 28.279-30.232 11.668-7.298 25.038-11.12 38.569-11.12 13.532 0 26.902 3.822 38.653 11.12 11.668 7.21 21.472 17.635 28.198 30.232 6.806 12.597 10.371 26.844 10.371 41.438" fill="none" stroke="#3465a4" stroke-width=".08px"/><path d="m1099.4 432.9c0 14.508-3.57 28.756-10.37 41.351-6.73 12.597-16.53 23.022-28.2 30.232-11.75 7.298-25.12 11.12-38.65 11.12-13.54 0-26.906-3.822-38.574-11.12-11.749-7.21-21.554-17.635-28.279-30.232-6.807-12.597-10.372-26.844-10.372-41.351 0-14.595 3.566-28.842 10.372-41.438 6.725-12.597 16.53-23.022 28.279-30.232 11.668-7.298 25.034-11.12 38.574-11.12 13.53 0 26.9 3.822 38.65 11.12 11.67 7.21 21.47 17.636 28.2 30.232 6.8 12.597 10.37 26.844 10.37 41.438z" fill="#ff8000"/><path d="m1099.4 432.9c0 14.508-3.57 28.756-10.37 41.351-6.73 12.597-16.53 23.022-28.2 30.232-11.75 7.298-25.12 11.12-38.65 11.12-13.54 0-26.906-3.822-38.574-11.12-11.749-7.21-21.554-17.635-28.279-30.232-6.807-12.597-10.372-26.844-10.372-41.351 0-14.595 3.566-28.842 10.372-41.438 6.725-12.597 16.53-23.022 28.279-30.232 11.668-7.298 25.034-11.12 38.574-11.12 13.53 0 26.9 3.822 38.65 11.12 11.67 7.21 21.47 17.636 28.2 30.232 6.8 12.597 10.37 26.844 10.37 41.438" fill="none" stroke="#3465a4" stroke-width=".08px"/><path d="m481.94 756.04c0 14.508-3.566 28.755-10.372 41.351-6.726 12.597-16.53 23.022-28.198 30.232-11.749 7.298-25.119 11.12-38.653 11.12-13.532 0-26.901-3.822-38.569-11.12-11.749-7.21-21.554-17.635-28.279-30.232-6.807-12.597-10.372-26.845-10.372-41.351 0-14.595 3.566-28.843 10.372-41.438 6.725-12.597 16.53-23.022 28.198-30.233 11.749-7.297 25.119-11.119 38.653-11.119 13.532 0 26.901 3.822 38.569 11.119 11.749 7.211 21.553 17.636 28.279 30.233 6.806 12.597 10.372 26.844 10.372 41.438z" fill="#81d41a"/><path d="m481.94 756.04c0 14.508-3.566 28.755-10.372 41.351-6.726 12.597-16.53 23.022-28.198 30.232-11.749 7.298-25.119 11.12-38.653 11.12-13.532 0-26.901-3.822-38.569-11.12-11.749-7.21-21.554-17.635-28.279-30.232-6.807-12.597-10.372-26.845-10.372-41.351 0-14.595 3.566-28.843 10.372-41.438 6.725-12.597 16.53-23.022 28.198-30.233 11.749-7.297 25.119-11.119 38.653-11.119 13.532 0 26.901 3.822 38.569 11.119 11.749 7.211 21.553 17.636 28.279 30.233 6.806 12.597 10.372 26.844 10.372 41.438" fill="none" stroke="#3465a4" stroke-width=".08px"/><path d="m790.68 756.12c0 14.508-3.565 28.756-10.371 41.351-6.726 12.597-16.53 23.022-28.198 30.233-11.75 7.297-25.119 11.12-38.653 11.12-13.532 0-26.901-3.823-38.569-11.12-11.749-7.21-21.554-17.636-28.279-30.233-6.807-12.597-10.372-26.844-10.372-41.351 0-14.595 3.565-28.842 10.372-41.438 6.725-12.597 16.53-23.022 28.279-30.232 11.668-7.298 25.038-11.12 38.569-11.12 13.532 0 26.902 3.822 38.653 11.12 11.668 7.21 21.472 17.635 28.198 30.232 6.806 12.597 10.371 26.845 10.371 41.438z" fill="#800080"/><path d="m790.68 756.12c0 14.508-3.565 28.756-10.371 41.351-6.726 12.597-16.53 23.022-28.198 30.233-11.75 7.297-25.119 11.12-38.653 11.12-13.532 0-26.901-3.823-38.569-11.12-11.749-7.21-21.554-17.636-28.279-30.233-6.807-12.597-10.372-26.844-10.372-41.351 0-14.595 3.565-28.842 10.372-41.438 6.725-12.597 16.53-23.022 28.279-30.232 11.668-7.298 25.038-11.12 38.569-11.12 13.532 0 26.902 3.822 38.653 11.12 11.668 7.21 21.472 17.635 28.198 30.232 6.806 12.597 10.371 26.845 10.371 41.438" fill="none" stroke="#3465a4" stroke-width=".08px"/><path d="m1099.4 756.12c0 14.508-3.57 28.756-10.37 41.351-6.73 12.597-16.53 23.022-28.2 30.233-11.75 7.297-25.12 11.12-38.65 11.12-13.54 0-26.906-3.823-38.574-11.12-11.749-7.21-21.554-17.636-28.279-30.233-6.807-12.597-10.372-26.844-10.372-41.351 0-14.595 3.566-28.842 10.372-41.438 6.725-12.597 16.53-23.022 28.279-30.232 11.668-7.298 25.034-11.12 38.574-11.12 13.53 0 26.9 3.822 38.65 11.12 11.67 7.21 21.47 17.635 28.2 30.232 6.8 12.597 10.37 26.845 10.37 41.438z" fill="#ff8000"/><path d="m1099.4 756.12c0 14.508-3.57 28.756-10.37 41.351-6.73 12.597-16.53 23.022-28.2 30.233-11.75 7.297-25.12 11.12-38.65 11.12-13.54 0-26.906-3.823-38.574-11.12-11.749-7.21-21.554-17.636-28.279-30.233-6.807-12.597-10.372-26.844-10.372-41.351 0-14.595 3.566-28.842 10.372-41.438 6.725-12.597 16.53-23.022 28.279-30.232 11.668-7.298 25.034-11.12 38.574-11.12 13.53 0 26.9 3.822 38.65 11.12 11.67 7.21 21.47 17.635 28.2 30.232 6.8 12.597 10.37 26.845 10.37 41.438" fill="none" stroke="#3465a4" stroke-width=".08px"/></g><g transform="matrix(.11594 0 0 .11594 104.23 27.82)"><path d="m1340.4 328.48 93.51 174.71h-186.93z" fill="#729fcf"/></g><g transform="matrix(.26458 0 0 .26458 -26.794 -25.953)"><g transform="matrix(.42318 0 0 .45369 63.518 110.55)"><g transform="translate(88.72,550.07)"><text font-family="Helvetica" font-size="53.309px">Your</text></g><g transform="translate(88.72,616.71)"><text font-family="Helvetica" font-size="53.309px">Device</text></g></g><g transform="matrix(.42318 0 0 .42318 215.19 217.54)"><text font-family="Helvetica" font-size="53.309px">Guard</text></g><g transform="matrix(.42318 0 0 .45369 342.48 365.1)"><text font-family="Helvetica" font-size="53.309px">Relay</text></g><g transform="matrix(.42318 0 0 .45369 486.48 214.68)"><text font-family="Helvetica" font-size="53.309px">Relay</text></g><g transform="matrix(.42318 0 0 .42318 1011.7 453.12)"><text font-family="Helvetica" font-size="53.309px">hidden...onion</text></g><g transform="matrix(1,0,0,1.1339,0,-13.598)"><rect x="192.38" y="101.58" width="397.82" height="388.05" fill="none" stroke="#3e2cb1" stroke-dasharray="6.08, 6.08" stroke-miterlimit="1.5" stroke-width="6.08px"/></g><g transform="matrix(1,0,0,1.1339,406.83,-13.598)"><rect x="192.38" y="101.58" width="397.82" height="388.05" fill="none" stroke="#d01a24" stroke-dasharray="6.08, 6.08" stroke-miterlimit="1.5" stroke-width="6.08px"/></g></g><g transform="matrix(.26458 0 0 -.26458 51.605 106.31)"><g transform="matrix(.43818 0 0 .43818 -102.96 170.29)"><path d="m330.23 166.03-137.18 182.29 3.883 2.924 137.18-182.29z"/><path d="m340.6 156.29-2.93 24.097-19.413-14.609z"/><path d="m342.55 153.7-2.576 1.092-24.928 10.586 23.902 17.989zm-3.89 5.167-2.251 18.528-14.926-11.227z"/></g></g><g transform="matrix(.26458 0 0 .26458 131.79 -24.605)"><g transform="matrix(.43818 0 0 .43818 -273.23 107.69)"><path d="m330.23 166.03-137.18 182.29 3.883 2.924 137.18-182.29z"/><path d="m340.6 156.29-2.93 24.097-19.413-14.609z"/><path d="m342.55 153.7-2.576 1.092-24.928 10.586 23.902 17.989zm-3.89 5.167-2.251 18.528-14.926-11.227z"/></g></g><g transform="matrix(.26458 0 0 -.26458 218.71 113.62)"><g transform="matrix(.43818 0 0 .43818 -37.094 67.045)"><path d="m330.23 166.03-137.18 182.29 3.883 2.924 137.18-182.29z"/></g><g transform="matrix(.43818 0 0 .43818 -34.762 65.947)"><path d="m340.6 156.29-2.93 24.097-19.413-14.609z"/><path d="m342.55 153.7-2.576 1.092-24.928 10.586 23.902 17.989zm-3.89 5.167-2.251 18.528-14.926-11.227z"/></g><g transform="matrix(.43818 0 0 .43818 -467.5 185.16)"><path d="m330.23 166.03-137.18 182.29 3.883 2.924 137.18-182.29z"/><path d="m340.6 156.29-2.93 24.097-19.413-14.609z"/><path d="m342.55 153.7-2.576 1.092-24.928 10.586 23.902 17.989zm-3.89 5.167-2.251 18.528-14.926-11.227z"/></g></g><g transform="matrix(.26458 0 0 .26458 -30.228 -27.295)"><g transform="matrix(.43818 0 0 .43818 70.812 113.4)"><path d="m330.23 166.03-137.18 182.29 3.883 2.924 137.18-182.29z"/><path d="m340.6 156.29-2.93 24.097-19.413-14.609z"/><path d="m342.55 153.7-2.576 1.092-24.928 10.586 23.902 17.989zm-3.89 5.167-2.251 18.528-14.926-11.227z"/></g><g transform="matrix(.43818 0 0 .43818 495.9 117.38)"><path d="m481.94 94.093c0 14.509-3.566 28.843-10.372 41.438-6.726 12.51-16.53 23.022-28.198 30.233-11.749 7.297-25.119 11.12-38.653 11.12-13.532 0-26.901-3.823-38.569-11.12-11.749-7.211-21.554-17.723-28.279-30.233-6.807-12.597-10.372-26.931-10.372-41.438 0-14.508 3.566-28.842 10.372-41.351 6.725-12.597 16.53-23.108 28.198-30.319 11.749-7.297 25.119-11.12 38.653-11.12 13.532 0 26.901 3.823 38.569 11.12 11.749 7.211 21.553 17.723 28.279 30.319 6.806 12.51 10.372 26.845 10.372 41.351z" fill="#81d41a"/><path d="m481.94 93.965c0 14.508-3.566 28.842-10.372 41.438-6.726 12.51-16.53 23.022-28.198 30.232-11.749 7.297-25.119 11.12-38.653 11.12-13.532 0-26.901-3.823-38.569-11.12-11.749-7.21-21.554-17.723-28.279-30.232-6.807-12.597-10.372-26.931-10.372-41.438 0-14.508 3.566-28.843 10.372-41.351 6.725-12.597 16.53-23.109 28.198-30.319 11.749-7.298 25.119-11.12 38.653-11.12 13.532 0 26.901 3.822 38.569 11.12 11.749 7.21 21.553 17.722 28.279 30.319 6.806 12.51 10.372 26.844 10.372 41.351" fill="none" stroke="#3465a4" stroke-width=".08px"/><path d="m790.68 94.18c0 14.509-3.565 28.756-10.371 41.351-6.726 12.597-16.53 23.022-28.198 30.233-11.75 7.297-25.119 11.12-38.653 11.12-13.532 0-26.901-3.823-38.569-11.12-11.749-7.211-21.554-17.636-28.279-30.233-6.807-12.597-10.372-26.844-10.372-41.351 0-14.595 3.565-28.842 10.372-41.438 6.725-12.597 16.53-23.021 28.279-30.232 11.668-7.297 25.038-11.12 38.569-11.12 13.532 0 26.902 3.823 38.653 11.12 11.668 7.211 21.472 17.636 28.198 30.232 6.806 12.597 10.371 26.845 10.371 41.438z" fill="#800080"/><path d="m790.68 94.052c0 14.508-3.565 28.755-10.371 41.351-6.726 12.597-16.53 23.022-28.198 30.232-11.75 7.297-25.119 11.12-38.653 11.12-13.532 0-26.901-3.823-38.569-11.12-11.749-7.21-21.554-17.636-28.279-30.232-6.807-12.597-10.372-26.845-10.372-41.351 0-14.595 3.565-28.843 10.372-41.438 6.725-12.597 16.53-23.022 28.279-30.232 11.668-7.298 25.038-11.12 38.569-11.12 13.532 0 26.902 3.822 38.653 11.12 11.668 7.21 21.472 17.635 28.198 30.232 6.806 12.597 10.371 26.844 10.371 41.438" fill="none" stroke="#3465a4" stroke-width=".08px"/><path d="m1099.4 94.139c0 14.508-3.57 28.755-10.37 41.351-6.73 12.597-16.53 23.022-28.2 30.232-11.75 7.297-25.12 11.12-38.65 11.12-13.54 0-26.906-3.823-38.574-11.12-11.749-7.21-21.554-17.636-28.279-30.232-6.807-12.597-10.372-26.845-10.372-41.351 0-14.595 3.566-28.843 10.372-41.438 6.725-12.597 16.53-23.022 28.279-30.233 11.668-7.297 25.034-11.12 38.574-11.12 13.53 0 26.9 3.823 38.65 11.12 11.67 7.211 21.47 17.636 28.2 30.233 6.8 12.597 10.37 26.844 10.37 41.438z" fill="#ff8000"/><path d="m1099.4 94.139c0 14.508-3.57 28.755-10.37 41.351-6.73 12.597-16.53 23.022-28.2 30.232-11.75 7.297-25.12 11.12-38.65 11.12-13.54 0-26.906-3.823-38.574-11.12-11.749-7.21-21.554-17.636-28.279-30.232-6.807-12.597-10.372-26.845-10.372-41.351 0-14.595 3.566-28.843 10.372-41.438 6.725-12.597 16.53-23.022 28.279-30.233 11.668-7.297 25.034-11.12 38.574-11.12 13.53 0 26.9 3.823 38.65 11.12 11.67 7.211 21.47 17.636 28.2 30.233 6.8 12.597 10.37 26.844 10.37 41.438" fill="none" stroke="#3465a4" stroke-width=".08px"/><path d="m481.94 432.9c0 14.508-3.566 28.756-10.372 41.351-6.726 12.597-16.53 23.022-28.198 30.232-11.749 7.298-25.119 11.12-38.653 11.12-13.532 0-26.901-3.822-38.569-11.12-11.749-7.21-21.554-17.635-28.279-30.232-6.807-12.597-10.372-26.844-10.372-41.351 0-14.595 3.566-28.842 10.372-41.438 6.725-12.597 16.53-23.022 28.198-30.232 11.749-7.298 25.119-11.12 38.653-11.12 13.532 0 26.901 3.822 38.569 11.12 11.749 7.21 21.553 17.636 28.279 30.232 6.806 12.597 10.372 26.844 10.372 41.438z" fill="#81d41a"/><path d="m481.94 438.8c0 14.508-3.566 28.756-10.372 41.351-6.726 12.597-16.53 23.022-28.198 30.232-11.749 7.298-25.119 11.12-38.653 11.12-13.532 0-26.901-3.822-38.569-11.12-11.749-7.21-21.554-17.635-28.279-30.232-6.807-12.597-10.372-26.844-10.372-41.351 0-14.595 3.566-28.843 10.372-41.438 6.725-12.597 16.53-23.022 28.198-30.232 11.749-7.298 25.119-11.12 38.653-11.12 13.532 0 26.901 3.822 38.569 11.12 11.749 7.21 21.553 17.635 28.279 30.232 6.806 12.597 10.372 26.844 10.372 41.438" fill="none" stroke="#3465a4" stroke-width=".08px"/><path d="m790.68 432.9c0 14.508-3.565 28.756-10.371 41.351-6.726 12.597-16.53 23.022-28.198 30.232-11.75 7.298-25.119 11.12-38.653 11.12-13.532 0-26.901-3.822-38.569-11.12-11.749-7.21-21.554-17.635-28.279-30.232-6.807-12.597-10.372-26.844-10.372-41.351 0-14.595 3.565-28.842 10.372-41.438 6.725-12.597 16.53-23.022 28.279-30.232 11.668-7.298 25.038-11.12 38.569-11.12 13.532 0 26.902 3.822 38.653 11.12 11.668 7.21 21.472 17.636 28.198 30.232 6.806 12.597 10.371 26.844 10.371 41.438z" fill="#800080"/><path d="m790.68 438.8c0 14.508-3.565 28.756-10.371 41.351-6.726 12.597-16.53 23.022-28.198 30.232-11.75 7.298-25.119 11.12-38.653 11.12-13.532 0-26.901-3.822-38.569-11.12-11.749-7.21-21.554-17.635-28.279-30.232-6.807-12.597-10.372-26.844-10.372-41.351 0-14.595 3.565-28.843 10.372-41.438 6.725-12.597 16.53-23.022 28.279-30.232 11.668-7.298 25.038-11.12 38.569-11.12 13.532 0 26.902 3.822 38.653 11.12 11.668 7.21 21.472 17.635 28.198 30.232 6.806 12.597 10.371 26.844 10.371 41.438" fill="none" stroke="#3465a4" stroke-width=".08px"/><path d="m1099.4 432.9c0 14.508-3.57 28.756-10.37 41.351-6.73 12.597-16.53 23.022-28.2 30.232-11.75 7.298-25.12 11.12-38.65 11.12-13.54 0-26.906-3.822-38.574-11.12-11.749-7.21-21.554-17.635-28.279-30.232-6.807-12.597-10.372-26.844-10.372-41.351 0-14.595 3.566-28.842 10.372-41.438 6.725-12.597 16.53-23.022 28.279-30.232 11.668-7.298 25.034-11.12 38.574-11.12 13.53 0 26.9 3.822 38.65 11.12 11.67 7.21 21.47 17.636 28.2 30.232 6.8 12.597 10.37 26.844 10.37 41.438z" fill="#ff8000"/><path d="m1099.4 432.9c0 14.508-3.57 28.756-10.37 41.351-6.73 12.597-16.53 23.022-28.2 30.232-11.75 7.298-25.12 11.12-38.65 11.12-13.54 0-26.906-3.822-38.574-11.12-11.749-7.21-21.554-17.635-28.279-30.232-6.807-12.597-10.372-26.844-10.372-41.351 0-14.595 3.566-28.842 10.372-41.438 6.725-12.597 16.53-23.022 28.279-30.232 11.668-7.298 25.034-11.12 38.574-11.12 13.53 0 26.9 3.822 38.65 11.12 11.67 7.21 21.47 17.636 28.2 30.232 6.8 12.597 10.37 26.844 10.37 41.438" fill="none" stroke="#3465a4" stroke-width=".08px"/><path d="m481.94 756.04c0 14.508-3.566 28.755-10.372 41.351-6.726 12.597-16.53 23.022-28.198 30.232-11.749 7.298-25.119 11.12-38.653 11.12-13.532 0-26.901-3.822-38.569-11.12-11.749-7.21-21.554-17.635-28.279-30.232-6.807-12.597-10.372-26.845-10.372-41.351 0-14.595 3.566-28.843 10.372-41.438 6.725-12.597 16.53-23.022 28.198-30.233 11.749-7.297 25.119-11.119 38.653-11.119 13.532 0 26.901 3.822 38.569 11.119 11.749 7.211 21.553 17.636 28.279 30.233 6.806 12.597 10.372 26.844 10.372 41.438z" fill="#81d41a"/><path d="m481.94 756.04c0 14.508-3.566 28.755-10.372 41.351-6.726 12.597-16.53 23.022-28.198 30.232-11.749 7.298-25.119 11.12-38.653 11.12-13.532 0-26.901-3.822-38.569-11.12-11.749-7.21-21.554-17.635-28.279-30.232-6.807-12.597-10.372-26.845-10.372-41.351 0-14.595 3.566-28.843 10.372-41.438 6.725-12.597 16.53-23.022 28.198-30.233 11.749-7.297 25.119-11.119 38.653-11.119 13.532 0 26.901 3.822 38.569 11.119 11.749 7.211 21.553 17.636 28.279 30.233 6.806 12.597 10.372 26.844 10.372 41.438" fill="none" stroke="#3465a4" stroke-width=".08px"/><path d="m790.68 756.12c0 14.508-3.565 28.756-10.371 41.351-6.726 12.597-16.53 23.022-28.198 30.233-11.75 7.297-25.119 11.12-38.653 11.12-13.532 0-26.901-3.823-38.569-11.12-11.749-7.21-21.554-17.636-28.279-30.233-6.807-12.597-10.372-26.844-10.372-41.351 0-14.595 3.565-28.842 10.372-41.438 6.725-12.597 16.53-23.022 28.279-30.232 11.668-7.298 25.038-11.12 38.569-11.12 13.532 0 26.902 3.822 38.653 11.12 11.668 7.21 21.472 17.635 28.198 30.232 6.806 12.597 10.371 26.845 10.371 41.438z" fill="#800080"/><path d="m790.68 756.12c0 14.508-3.565 28.756-10.371 41.351-6.726 12.597-16.53 23.022-28.198 30.233-11.75 7.297-25.119 11.12-38.653 11.12-13.532 0-26.901-3.823-38.569-11.12-11.749-7.21-21.554-17.636-28.279-30.233-6.807-12.597-10.372-26.844-10.372-41.351 0-14.595 3.565-28.842 10.372-41.438 6.725-12.597 16.53-23.022 28.279-30.232 11.668-7.298 25.038-11.12 38.569-11.12 13.532 0 26.902 3.822 38.653 11.12 11.668 7.21 21.472 17.635 28.198 30.232 6.806 12.597 10.371 26.845 10.371 41.438" fill="none" stroke="#3465a4" stroke-width=".08px"/><path d="m1099.4 756.12c0 14.508-3.57 28.756-10.37 41.351-6.73 12.597-16.53 23.022-28.2 30.233-11.75 7.297-25.12 11.12-38.65 11.12-13.54 0-26.906-3.823-38.574-11.12-11.749-7.21-21.554-17.636-28.279-30.233-6.807-12.597-10.372-26.844-10.372-41.351 0-14.595 3.566-28.842 10.372-41.438 6.725-12.597 16.53-23.022 28.279-30.232 11.668-7.298 25.034-11.12 38.574-11.12 13.53 0 26.9 3.822 38.65 11.12 11.67 7.21 21.47 17.635 28.2 30.232 6.8 12.597 10.37 26.845 10.37 41.438z" fill="#ff8000"/><path d="m1099.4 756.12c0 14.508-3.57 28.756-10.37 41.351-6.73 12.597-16.53 23.022-28.2 30.233-11.75 7.297-25.12 11.12-38.65 11.12-13.54 0-26.906-3.823-38.574-11.12-11.749-7.21-21.554-17.636-28.279-30.233-6.807-12.597-10.372-26.844-10.372-41.351 0-14.595 3.566-28.842 10.372-41.438 6.725-12.597 16.53-23.022 28.279-30.232 11.668-7.298 25.034-11.12 38.574-11.12 13.53 0 26.9 3.822 38.65 11.12 11.67 7.21 21.47 17.635 28.2 30.232 6.8 12.597 10.37 26.845 10.37 41.438" fill="none" stroke="#3465a4" stroke-width=".08px"/></g><g transform="matrix(.42318 0 0 .45369 613.99 258.96)"><text font-family="Helvetica" font-size="53.309px">Rendezvous</text></g><g transform="matrix(.42318 0 0 .45369 776.89 519.87)"><text font-family="Helvetica" font-size="53.309px">Relay</text></g><g transform="matrix(.42318 0 0 .45369 924.29 375.58)"><text font-family="Helvetica" font-size="53.309px">Entry</text></g><g transform="matrix(.43818 0 0 -.43818 616.24 496.06)"><path d="m330.23 166.03-137.18 182.29 3.883 2.924 137.18-182.29z"/></g><g transform="matrix(.43818 0 0 -.43818 618.57 497.15)"><path d="m340.6 156.29-2.93 24.097-19.413-14.609z"/><path d="m342.55 153.7-2.576 1.092-24.928 10.586 23.902 17.989zm-3.89 5.167-2.251 18.528-14.926-11.227z"/></g><g transform="matrix(.43818 0 0 .43818 757.77 262.9)"><path d="m330.23 166.03-137.18 182.29 3.883 2.924 137.18-182.29z"/></g><g transform="matrix(.43818 0 0 .43818 760.1 261.8)"><path d="m340.6 156.29-2.93 24.097-19.413-14.609z"/><path d="m342.55 153.7-2.576 1.092-24.928 10.586 23.902 17.989zm-3.89 5.167-2.251 18.528-14.926-11.227z"/></g></g></svg>
