<?xml version="1.0" encoding="UTF-8"?>
<svg width="128" height="128" version="1.1" viewBox="0 0 33.867 33.867" xmlns="http://www.w3.org/2000/svg"><g transform="matrix(.096114 0 0 .096114 1.3232 -.031191)"><path d="m100.25 68h-47.95c1.047-0.933 2.105-1.85 3.175-2.75h44.775zm0 61v18.75h-80.5v-39.45c1.324-2.403 2.724-4.778 4.2-7.125v27.825z" style="fill:#94c061"/><path d="m19.75 108.3v39.45h80.5v-18.75h3.7v-61h-3.7v-2.75h-44.775c1.307-1.109 2.632-2.192 3.975-3.25 2.202-1.742 4.435-3.408 6.7-5 4.153-2.919 8.412-5.585 12.775-8 9.974-5.517 20.499-9.717 31.575-12.6 12.134-3.167 24.934-4.75 38.4-4.75 9.199 0 18.083 0.75 26.649 2.25 3 0.5 6 1.117 9 1.85 24.967 6 47.217 18.583 66.75 37.75 0.334 0.333 0.667 0.667 1 1 21.334 21.367 34.717 45.983 40.15 73.85 0.2 1.167 0.416 2.351 0.649 3.551 1.4 8.3 2.101 16.85 2.101 25.649v0.45c0 22.934-4.601 43.967-13.8 63.1-4.601 9.434-10.284 18.417-17.051 26.95-2 2.4-4.033 4.783-6.1 7.15-1.934 2.133-3.917 4.217-5.95 6.25-3.5 3.5-7.066 6.8-10.7 9.899-4.833 4.034-9.833 7.717-15 11.051-5.333 3.399-10.833 6.416-16.5 9.05-0.533 0.2-1.033 0.416-1.5 0.649-17.466 7.867-36.483 11.967-57.05 12.301h-1.55-1.1c-40.434 0-74.934-14.317-103.5-42.95-0.467-0.467-0.917-0.917-1.35-1.351-27.7-28.3-41.55-62.333-41.55-102.1v-0.45c0.042-14.928 2.042-29.053 6-42.375 0.517-1.738 1.067-3.464 1.65-5.175 2.562-7.495 5.762-14.728 9.602-21.699z" style="fill:#658d38"/><path d="m91.3 117.2c-0.614-0.905-1.206-1.821-1.775-2.75 0.907-1.061 1.598-2.144 2.075-3.25 1.167-2.333 1.75-4.9 1.75-7.7 0-1.033-0.083-2.033-0.25-3-0.368-2.332-1.21-4.482-2.525-6.45 0.112 0.118 0.204 0.209 0.275 0.275l0.15 0.175c2.9 3.256 4.35 7.09 4.35 11.5 0 1.759-0.233 3.425-0.7 5-0.266 0.932-0.616 1.833-1.05 2.7-0.515 1.195-1.282 2.362-2.3 3.5zm-7.475 5.225c-1.841 0.65-3.816 0.975-5.925 0.975-2.68 0-5.146-0.533-7.4-1.6-1.783-0.85-3.433-2.033-4.95-3.55-0.894-0.895-1.669-1.836-2.325-2.825l0.325 0.325c3.434 3.433 7.55 5.15 12.35 5.15 2.171 0 4.205-0.35 6.1-1.05 0.588 0.867 1.197 1.725 1.825 2.575z" style="fill:#bbd89c"/><path d="m120.58 140.85c0.758-1.002 1.6-1.968 2.524-2.899 4.9-4.867 10.801-7.3 17.7-7.3 3.473 0 6.689 0.616 9.65 1.85-0.393-0.553-0.81-1.095-1.25-1.625 0.193 0.112 0.385 0.229 0.575 0.35 0.349 0.262 0.69 0.537 1.024 0.825 1.32 1.517 2.354 3.133 3.101 4.851 0.1 0.199 0.199 0.383 0.3 0.55 1.1 2.033 1.866 4.184 2.3 6.45 0.063 0.356 0.121 0.715 0.175 1.074-3.332 0.468-6.757 0.7-10.274 0.7-9.27 1e-3 -17.879-1.608-25.825-4.826zm102.55-21.8c-0.209-0.221-0.417-0.438-0.625-0.65-1.628-1.637-3.294-3.195-5-4.675 2.639-5.218 4.613-10.71 5.925-16.475l25.851-25.775c0.342 0.343 0.684 0.685 1.024 1.025 21.334 21.367 34.717 45.983 40.15 73.85 0.2 1.167 0.416 2.351 0.649 3.551 1.4 8.3 2.101 16.85 2.101 25.649v0.45c0 22.934-4.601 43.967-13.8 63.1-4.601 9.434-10.284 18.417-17.051 26.95-0.075 0.091-0.15 0.183-0.225 0.275l5.975-21.976c0.101-0.399 0.051-0.816-0.149-1.25-0.167-0.366-0.417-0.683-0.75-0.949-0.134-0.034-8.167-8.784-24.101-26.25 3.448-7.858 5.157-14.851 5.125-20.976-5e-3 -1.372-5e-3 -2.605 0-3.7 0.547-2.661 0.964-5.245 1.25-7.75 0.469-4.224 0.561-8.232 0.275-12.024 0.033-0.367 0.033-0.783 0-1.25-0.4-2.634-0.884-5.25-1.45-7.851-2.666-11.433-7.75-22.116-15.25-32.05-1.333-1.7-2.7-3.383-4.1-5.05-1.467-1.7-2.95-3.317-4.45-4.85-0.455-0.458-0.913-0.908-1.374-1.349zm-181.08 159.05 46.725-46.574c1.695 2.331 3.52 4.623 5.475 6.875 0.874 0.999 1.757 1.975 2.65 2.925l51.075 81.075h-1.074c-40.434 0-74.934-14.317-103.5-42.95-0.454-0.453-0.903-0.903-1.351-1.351zm113.55-122.05c-1.316 3.908-3.649 7.324-7 10.25-0.066 0.033-0.149 0.117-0.25 0.25-0.1 0.033-0.149 0.084-0.149 0.15-0.101 0.033-0.167 0.083-0.2 0.149-0.434 0.367-0.866 0.733-1.3 1.101-0.101 0.033-0.2 0.1-0.3 0.2-2.434 1.8-4.9 3.017-7.4 3.649l-2.85 0.601c-0.267 0-0.517 0.033-0.75 0.1-1 0.1-2.034 0.15-3.101 0.15h-0.3-0.3-0.3c-0.134-0.067-0.284-0.101-0.45-0.101h-0.25c-4.182-0.275-7.89-1.476-11.125-3.6-2.517-3.904-3.775-8.338-3.775-13.3 0-2.092 0.226-4.092 0.675-6 9.717 4.448 20.358 6.682 31.926 6.699 2.441-1e-3 4.841-0.102 7.199-0.298z" style="fill:#7bad45"/><path d="m88.775 231.52-46.725 46.575c-27.7-28.304-41.55-62.337-41.55-102.1v-0.45c0.089-36.006 11.589-67.339 34.5-94 1.905-2.214 3.888-4.397 5.95-6.55 0.805-0.837 1.622-1.671 2.45-2.5 4.5-4.5 9.184-8.667 14.05-12.5 0.165-0.13 0.332-0.264 0.5-0.4 0.336-0.264 0.669-0.522 1-0.775 0.154-0.119 0.304-0.235 0.45-0.35l13.15-8.95c0.752-0.458 1.511-0.908 2.275-1.35v0.025c0.41-0.238 0.818-0.479 1.225-0.725l1.225-0.675c0.469-0.25 0.935-0.5 1.4-0.75 4.524-2.416 9.158-4.565 13.9-6.45 4.045-1.601 8.171-3.009 12.375-4.225 1.177-0.34 2.36-0.665 3.55-0.975 12.141-3.167 24.94-4.75 38.4-4.75 9.199 0 18.083 0.75 26.649 2.25 3 0.5 6 1.117 9 1.85 7.557 1.815 14.865 4.231 21.925 7.25 6.836 10.689 10.252 22.79 10.25 36.3 2e-3 10.708-2.14 20.524-6.425 29.45-8.328-5.511-17.444-9.411-27.35-11.7-0.233-0.066-0.45-0.117-0.65-0.15-1.434-0.333-2.916-0.633-4.45-0.9-0.199-0.033-0.35-0.05-0.449-0.05-5.301-0.7-8.25-1.067-8.851-1.1h-0.05c-18.967-1.267-36.134 2.783-51.5 12.15-4.233 2.567-8.316 5.55-12.25 8.95-0.1 0.066-0.167 0.15-0.2 0.25-0.133 0.1-0.283 0.233-0.45 0.4-0.53 0.462-1.056 0.929-1.574 1.4-2.051 1.869-3.984 3.803-5.8 5.8-1.214-1.499-2.355-3.032-3.425-4.6 1.019-1.139 1.785-2.305 2.3-3.5 0.434-0.868 0.784-1.768 1.05-2.7 0.467-1.575 0.7-3.241 0.7-5 0-4.41-1.45-8.244-4.35-11.5l-0.15-0.175c-0.071-0.066-0.163-0.158-0.275-0.275-0.069-0.076-0.144-0.159-0.225-0.25-0.051-0.051-0.102-0.101-0.15-0.15-0.633-0.633-1.317-1.217-2.05-1.75-2.26-1.695-4.768-2.728-7.525-3.1h-0.025c-0.432-0.1-0.898-0.149-1.4-0.15-0.434-0.066-0.867-0.1-1.3-0.1-0.333 0-0.65 0.034-0.95 0.1-0.667 0-1.317 0.05-1.95 0.15h-0.05c-0.256 0.041-0.506 0.091-0.75 0.15l-2.2 0.6c-0.44 0.165-0.874 0.348-1.3 0.55-0.117 0.05-0.233 0.1-0.35 0.15-1.731 0.798-3.332 1.931-4.8 3.4-0.2 0.2-0.383 0.417-0.55 0.65-0.062 0.066-0.12 0.133-0.175 0.2-1.904 2.117-3.179 4.5-3.825 7.15-0.333 1.4-0.5 2.85-0.5 4.35 0 3.525 0.908 6.667 2.725 9.425 0.656 0.989 1.431 1.931 2.325 2.825 1.517 1.517 3.167 2.7 4.95 3.55 2.253 1.067 4.72 1.6 7.4 1.6 2.109 0 4.084-0.325 5.925-0.975 1.599 2.163 3.333 4.271 5.2 6.325 0.039-0.053 0.081-0.103 0.125-0.15-0.357 0.478-0.708 0.961-1.05 1.45-0.7 1-1.35 2-1.95 3-1.6 2.434-3.083 4.967-4.45 7.601-0.016 0.033-0.033 0.066-0.05 0.1-1.014 2.101-1.964 4.217-2.85 6.35-0.633 1.601-1.216 3.233-1.75 4.9-2.267 6.967-3.683 14.384-4.25 22.25-1.522 21.336 3.803 40.428 15.975 57.274zm160.5-160.05-25.851 25.775c1.307-5.716 1.966-11.699 1.976-17.95-0.018-11.181-2.109-21.498-6.275-30.95 10.682 6.175 20.731 13.884 30.15 23.125zm-100.08 59.4c-0.057-0.069-0.115-0.136-0.175-0.2 0.254 0.176 0.504 0.359 0.75 0.55-0.19-0.121-0.381-0.238-0.575-0.35z" style="fill:#94c061"/><path d="m220 303.2c-3.879 2.285-7.846 4.368-11.9 6.25-0.533 0.2-1.033 0.416-1.5 0.649-17.453 7.864-36.47 11.956-57.05 12.275-0.523 0.01-1.049 0.019-1.575 0.025l-51.075-81.074c0.931 0.984 1.873 1.943 2.825 2.875 2.176 2.226 4.417 4.309 6.725 6.25 2.767 2.366 5.684 4.533 8.75 6.5 10.033 6.566 21.25 10.816 33.649 12.75h0.4c5.441-0.049 10.25-0.207 14.425-0.476 1.525-0.091 2.968-0.199 4.325-0.324 5.1-0.467 10.3-1.184 15.6-2.15l1.4 1.4v0.699c0.2-0.03 0.399-0.063 0.6-0.1z" style="fill:#6c983d"/><path d="m201.8 23.875c-14.804-14.35-32.604-21.525-53.399-21.525-21.301 0-39.467 7.5-54.5 22.5-3.536 3.543-6.652 7.26-9.35 11.15-2.247 3.233-4.206 6.583-5.875 10.05-0.465 0.25-0.931 0.5-1.4 0.75l-1.225 0.675c-0.406 0.246-0.815 0.487-1.225 0.725v-0.025c3.759-9.244 9.451-17.686 17.075-25.325 15.042-15.012 33.208-22.521 54.5-22.525 21.259 3e-3 39.392 7.512 54.399 22.525 0.337 0.337 0.67 0.678 1 1.025zm-6.1 6.075c0.331 0.331 0.664 0.665 1 1 3.316 3.316 6.225 6.799 8.725 10.45 7.55 11.081 11.325 23.714 11.325 37.9 0 10.513-2.066 20.171-6.2 28.975-0.072 0.155-0.147 0.314-0.225 0.475-0.525 1.09-1.084 2.165-1.675 3.225-3.098 5.593-7.081 10.818-11.95 15.675-4.908 4.92-10.191 8.937-15.851 12.05-5.304 2.91-10.937 5.027-16.899 6.35-1.729 0.384-3.486 0.7-5.275 0.95-0.607 0.085-1.216 0.16-1.825 0.225-2.757 0.317-5.573 0.476-8.449 0.476-10.305 0-19.788-1.983-28.45-5.95-2.097-0.97-4.146-2.053-6.15-3.25l-0.325 0.55c-0.111 0.182-0.22 0.365-0.324 0.55 0.322-0.596 0.673-1.18 1.05-1.75 2.078 1.124 4.203 2.124 6.375 3 7.946 3.219 16.555 4.827 25.825 4.825 3.518 0 6.942-0.232 10.274-0.7 0.526-0.073 1.052-0.156 1.575-0.25 1.565-0.254 3.106-0.562 4.625-0.925 11.948-2.813 22.557-8.863 31.825-18.15 5.637-5.626 10.078-11.743 13.325-18.35 0.096-0.186 0.188-0.369 0.274-0.55 4.285-8.926 6.427-18.742 6.425-29.45 2e-3 -13.51-3.414-25.61-10.25-36.3-2.478-3.868-5.403-7.551-8.775-11.051zm-113.7 89.9c-6.065-8.954-9.948-18.82-11.65-29.6 0.117-0.05 0.233-0.1 0.35-0.15 0.426-0.203 0.859-0.386 1.3-0.55 1.337 10.945 4.862 20.97 10.575 30.075 0.549 0.882 1.115 1.757 1.7 2.625 0.852 1.233 1.744 2.45 2.675 3.65 0.707 0.909 1.44 1.809 2.2 2.7-0.044 0.047-0.086 0.097-0.125 0.15-1.867-2.054-3.601-4.163-5.2-6.325-0.628-0.85-1.237-1.708-1.825-2.575z" style="fill:#e2e2e2"/><path d="m92.575 39.6c-4.743 1.884-9.376 4.034-13.9 6.45 1.669-3.466 3.628-6.816 5.875-10.05 2.698-3.89 5.814-7.606 9.35-11.15 15.034-15 33.2-22.5 54.5-22.5 20.796 0 38.596 7.175 53.399 21.525 0.335 0.318 0.668 0.643 1 0.975 7.129 7.129 12.571 14.962 16.325 23.5 4.166 9.452 6.258 19.769 6.275 30.95-0.01 6.251-0.669 12.234-1.976 17.95-1.312 5.765-3.286 11.257-5.925 16.475-0.037 0.074-0.07 0.148-0.1 0.225-3.637 7.117-8.504 13.716-14.601 19.8-10.662 10.686-22.903 17.577-36.725 20.675-0.104 0.029-0.203 0.054-0.3 0.075-2.47 0.547-4.986 0.972-7.551 1.275-0.869 0.103-1.744 0.194-2.625 0.274-2.357 0.196-4.758 0.297-7.199 0.3-11.567-0.018-22.209-2.251-31.926-6.699-1.929-0.879-3.821-1.846-5.675-2.9 0.047-0.277 0.098-0.552 0.15-0.825 0.015-0.092 0.031-0.184 0.05-0.274 0.173-0.857 0.39-1.69 0.65-2.5 0.388-1.194 0.871-2.336 1.449-3.426l0.051-0.125c0.104-0.185 0.213-0.368 0.324-0.55l0.325-0.55c2.004 1.197 4.054 2.28 6.15 3.25 8.662 3.967 18.146 5.95 28.45 5.95 2.876 0 5.692-0.158 8.449-0.476 0.609-0.064 1.218-0.14 1.825-0.225 1.789-0.25 3.547-0.566 5.275-0.95 5.963-1.322 11.596-3.439 16.899-6.35 5.659-3.113 10.942-7.13 15.851-12.05 4.869-4.857 8.853-10.082 11.95-15.675 0.591-1.061 1.149-2.135 1.675-3.225 0.077-0.161 0.152-0.32 0.225-0.475 4.134-8.804 6.2-18.462 6.2-28.975 0-14.186-3.775-26.819-11.325-37.9-2.5-3.65-5.408-7.134-8.725-10.45-0.336-0.335-0.669-0.669-1-1-13.142-12.666-28.908-18.983-47.3-18.95-18.9-0.033-35.034 6.617-48.4 19.95-2.754 2.768-5.228 5.651-7.419 8.651zm115.78 211.8-3.1 2.449c-0.2 0.134-0.366 0.25-0.5 0.351-0.267 0.2-0.517 0.366-0.75 0.5-1.134 0.733-2.267 1.467-3.4 2.2-0.1 0.033-0.183 0.083-0.25 0.149l65.601 65.75c0.133 0.134 0.316 0.316 0.55 0.55l1.1 1.101c1.4 1.366 3.067 2.05 5 2.05 1.634-0.066 3.051-0.55 4.25-1.45 0.301-0.166 0.551-0.383 0.75-0.649 0.233-0.167 1.25 0.399 3.051 1.699 1.767 1.334 5.116 4.817 10.05 10.45 4.866 5.533 11.833 9.533 20.899 12-5.933 1-14.783 1.7-26.55 2.101-11.121 0.349-19.721-2.201-25.8-7.65-1.462-1.316-2.778-2.8-3.95-4.45l-20.1-20.1h0.05l-15.251-15.251-34.4-34.45-2-2c-5.3 0.967-10.5 1.684-15.6 2.15-1.357 0.125-2.8 0.233-4.325 0.324l33.95-33.925c0.542 0.528 1.075 1.045 1.6 1.55 4.902 4.798 8.96 8.848 12.176 12.15-0.167 0.066-0.284 0.167-0.351 0.3-0.899 0.733-1.767 1.45-2.6 2.15zm-119.2-122.8c-0.759-0.891-1.493-1.791-2.2-2.7-0.932-1.2-1.823-2.417-2.675-3.65-0.584-0.868-1.151-1.743-1.7-2.625-5.713-9.105-9.238-19.13-10.575-30.075l2.2-0.6c0.244-0.06 0.494-0.109 0.75-0.15h0.05c0.633-0.1 1.283-0.15 1.95-0.15 0.3-0.066 0.617-0.1 0.95-0.1 0.434 0 0.867 0.034 1.3 0.1 0.501 0 0.968 0.05 1.4 0.15h0.025c0.946 7.487 3.054 14.487 6.325 21 0.793 1.581 1.651 3.131 2.575 4.65 0.569 0.929 1.161 1.845 1.775 2.75 1.07 1.567 2.211 3.101 3.425 4.6-0.236 0.257-0.469 0.515-0.7 0.775z" style="fill:#d3d3d3"/><path d="m96.9 241.32c-0.893-0.95-1.776-1.926-2.65-2.925-1.955-2.252-3.78-4.544-5.475-6.875-12.172-16.847-17.497-35.938-15.975-57.275 0.567-7.866 1.983-15.283 4.25-22.25 0.534-1.667 1.117-3.3 1.75-4.9 0.886-2.133 1.836-4.249 2.85-6.35 0.017-0.033 0.034-0.066 0.05-0.1 1.367-2.634 2.85-5.167 4.45-7.601 0.6-1 1.25-2 1.95-3 0.342-0.488 0.692-0.972 1.05-1.45l4.875-6.025c0.231-0.26 0.464-0.519 0.7-0.775 1.816-1.997 3.75-3.931 5.8-5.8 0.519-0.471 1.044-0.938 1.574-1.4 0.167-0.167 0.317-0.3 0.45-0.4 0.033-0.1 0.101-0.184 0.2-0.25 3.934-3.4 8.017-6.383 12.25-8.95 15.366-9.367 32.533-13.417 51.5-12.15h0.05c0.601 0.033 3.55 0.4 8.851 1.1 0.1 0 0.25 0.017 0.449 0.05 1.534 0.267 3.017 0.567 4.45 0.9 0.2 0.033 0.417 0.083 0.65 0.15 9.905 2.289 19.021 6.189 27.35 11.7-0.087 0.181-0.179 0.364-0.274 0.55-7.707-4.751-16.065-8.167-25.075-10.25-0.233-0.066-0.45-0.117-0.65-0.15-1.434-0.333-2.916-0.633-4.45-0.9-0.199-0.033-0.35-0.05-0.449-0.05-5.301-0.7-8.25-1.067-8.851-1.1h-0.05c-18.98-1.281-36.146 2.769-51.5 12.15-4.22 2.58-8.303 5.563-12.25 8.95-0.1 0.066-0.167 0.15-0.2 0.25-0.133 0.1-0.283 0.233-0.45 0.4-5.433 4.733-10.1 9.883-14 15.45-0.7 1-1.35 2-1.95 3-1.6 2.434-3.083 4.967-4.45 7.601-1.034 2.133-2 4.283-2.9 6.449-0.634 1.608-1.217 3.242-1.75 4.9-2.268 6.971-3.685 14.388-4.25 22.25-1.451 20.351 3.324 38.659 14.325 54.925 2.144 3.148 4.519 6.224 7.125 9.226 0.08 0.091 0.163 0.183 0.25 0.274 1.057 1.209 2.132 2.384 3.225 3.525-0.952-0.93-1.894-1.889-2.825-2.874zm53.9-109.28c0.185 0.165 0.368 0.332 0.55 0.5 2.034 1.934 3.551 4.05 4.551 6.351 0.1 0.199 0.199 0.383 0.3 0.55 0.91 1.683 1.594 3.44 2.05 5.274-0.523 0.094-1.049 0.177-1.575 0.25-0.054-0.359-0.112-0.718-0.175-1.074-0.434-2.267-1.2-4.417-2.3-6.45-0.101-0.167-0.2-0.351-0.3-0.55-0.748-1.718-1.781-3.335-3.101-4.851zm-33.9 34.85c0.853 0.762 1.744 1.445 2.675 2.05 3.235 2.124 6.943 3.324 11.125 3.6h0.25c0.166 0 0.316 0.033 0.45 0.101h0.3 0.3 0.3c1.066 0 2.101-0.051 3.101-0.15 0.233-0.066 0.483-0.1 0.75-0.1l2.849-0.601c2.5-0.633 4.967-1.85 7.4-3.649 0.1-0.101 0.199-0.167 0.3-0.2 0.434-0.367 0.866-0.733 1.3-1.101 0.033-0.066 0.1-0.116 0.2-0.149 0-0.066 0.05-0.117 0.149-0.15 0.101-0.133 0.184-0.217 0.25-0.25 3.351-2.926 5.684-6.342 7-10.25 0.881-0.08 1.756-0.172 2.625-0.274-1.101 4.872-3.643 9.047-7.625 12.524-0.066 0.033-0.149 0.117-0.25 0.25-0.1 0.033-0.149 0.084-0.149 0.15-0.101 0.033-0.167 0.083-0.2 0.149-0.434 0.367-0.866 0.733-1.3 1.101-0.101 0.033-0.2 0.1-0.3 0.2-2.434 1.8-4.9 3.017-7.4 3.649l-2.85 0.601c-0.267 0-0.517 0.033-0.75 0.1-1 0.1-2.034 0.15-3.101 0.15h-0.3-0.3-0.3c-0.134-0.067-0.284-0.101-0.45-0.101h-0.25c-5.009-0.33-9.343-1.98-13-4.95-0.979-0.805-1.912-1.705-2.799-2.7zm100.6-53.175c1.706 1.48 3.372 3.038 5 4.675 0.208 0.212 0.416 0.429 0.625 0.65-1.864-1.801-3.772-3.501-5.725-5.1 0.03-0.076 0.063-0.151 0.1-0.225z" style="fill:#b6b6b6"/><path d="m249.48 183.47-51.85 51.825-33.95 33.925c-4.175 0.269-8.983 0.427-14.425 0.476h-0.4c-12.399-1.934-23.616-6.184-33.649-12.75-3.066-1.967-5.983-4.134-8.75-6.5-2.308-1.941-4.549-4.024-6.725-6.25-1.093-1.142-2.168-2.316-3.225-3.525-0.087-0.092-0.17-0.184-0.25-0.274-2.606-3.002-4.981-6.077-7.125-9.226-11.001-16.266-15.776-34.574-14.325-54.925 0.565-7.862 1.982-15.279 4.25-22.25 0.533-1.658 1.116-3.292 1.75-4.9 0.9-2.166 1.867-4.316 2.9-6.449 1.367-2.634 2.85-5.167 4.45-7.601 0.6-1 1.25-2 1.95-3 3.9-5.566 8.566-10.716 14-15.45 0.167-0.167 0.317-0.3 0.45-0.4 0.033-0.1 0.101-0.184 0.2-0.25 3.947-3.387 8.03-6.37 12.25-8.95 15.354-9.381 32.52-13.431 51.5-12.15h0.05c0.601 0.033 3.55 0.4 8.851 1.1 0.1 0 0.25 0.017 0.449 0.05 1.534 0.267 3.017 0.567 4.45 0.9 0.2 0.033 0.417 0.083 0.65 0.15 9.01 2.083 17.368 5.499 25.075 10.25-3.247 6.607-7.688 12.724-13.325 18.35-9.269 9.287-19.877 15.336-31.825 18.15-1.519 0.363-3.06 0.671-4.625 0.925-0.456-1.834-1.14-3.592-2.05-5.274-0.101-0.167-0.2-0.351-0.3-0.55-1-2.301-2.517-4.417-4.551-6.351-0.182-0.168-0.365-0.335-0.55-0.5-0.334-0.288-0.676-0.563-1.024-0.825-0.246-0.19-0.496-0.374-0.75-0.55-3.474-2.444-7.615-3.87-12.426-4.275-2.301-0.139-4.501 0.011-6.6 0.45-3.92 0.822-7.487 2.656-10.7 5.5-0.233 0.167-0.45 0.351-0.649 0.551-1.766 1.505-3.249 3.154-4.45 4.949-0.377 0.57-0.728 1.154-1.05 1.75l-0.051 0.125c-0.578 1.09-1.062 2.231-1.449 3.426-0.261 0.81-0.478 1.643-0.65 2.5-0.019 0.091-0.035 0.183-0.05 0.274-0.053 0.273-0.104 0.548-0.15 0.825-0.114 0.75-0.198 1.517-0.25 2.3v0.15c-0.09 1.646-0.04 3.246 0.15 4.8 0.082 0.744 0.199 1.478 0.35 2.2 0.834 3.666 2.601 7.066 5.3 10.2 0.018 0.016 0.034 0.032 0.051 0.05h0.1c0.133 0.155 0.266 0.306 0.4 0.45 0.887 0.994 1.819 1.895 2.8 2.699 3.657 2.97 7.991 4.62 13 4.95h0.25c0.166 0 0.316 0.033 0.45 0.101h0.3 0.3 0.3c1.066 0 2.101-0.051 3.101-0.15 0.233-0.066 0.483-0.1 0.75-0.1l2.847-0.601c2.5-0.633 4.967-1.85 7.4-3.649 0.1-0.101 0.199-0.167 0.3-0.2 0.434-0.367 0.866-0.733 1.3-1.101 0.033-0.066 0.1-0.116 0.2-0.149 0-0.066 0.05-0.117 0.149-0.15 0.101-0.133 0.184-0.217 0.25-0.25 3.982-3.478 6.524-7.652 7.625-12.524 2.564-0.304 5.081-0.729 7.551-1.275 0.097-0.021 0.196-0.046 0.3-0.075 13.821-3.098 26.063-9.989 36.725-20.675 6.097-6.083 10.964-12.683 14.601-19.8 1.952 1.598 3.86 3.298 5.725 5.1 0.461 0.441 0.919 0.892 1.375 1.35 1.5 1.533 2.983 3.15 4.45 4.85 1.399 1.667 2.767 3.35 4.1 5.05 7.5 9.934 12.584 20.617 15.25 32.05 0.566 2.601 1.05 5.217 1.45 7.851 0.033 0.467 0.033 0.883 0 1.25 0.284 3.789 0.192 7.798-0.276 12.022z" style="fill:#a3a3a3"/><path d="m261.18 269.9h-0.024v0.05c-0.367 0.066-0.75 0.033-1.15-0.101-0.192-0.096-0.359-0.229-0.5-0.399-0.115-0.131-0.216-0.281-0.3-0.45v-0.15c-0.134-0.333-0.134-0.683 0-1.05l-0.05 0.101 6.949-25.551c0.101-0.399 0.051-0.816-0.149-1.25-0.167-0.366-0.417-0.683-0.75-0.949-0.134-0.034-8.167-8.784-24.101-26.25 1.967-3.834 4.051-10.117 6.25-18.851 0.32-1.295 0.612-2.57 0.875-3.825-5e-3 1.095-5e-3 2.328 0 3.7 0.032 6.125-1.677 13.117-5.125 20.976 15.934 17.466 23.967 26.216 24.101 26.25 0.333 0.267 0.583 0.583 0.75 0.949 0.2 0.434 0.25 0.851 0.149 1.25l-5.975 21.976-0.975 3.575 0.05-0.101c-0.012 0.032-0.02 0.065-0.025 0.1zm53.775 19.45c6.564 5.904 9.681 14.588 9.35 26.051-0.467 13.733-1.383 23.517-2.75 29.35-0.233 1.167-0.767 2.25-1.6 3.25l-0.15 0.3c-0.333 0.233-0.649 0.45-0.95 0.65-0.8 0.533-1.666 0.866-2.6 1-0.8 0.2-1.684 0.399-2.65 0.6-5.933 1-14.783 1.7-26.55 2.101-12.402 0.389-21.669-2.827-27.8-9.65 6.079 5.449 14.679 7.999 25.8 7.65 11.767-0.4 20.617-1.101 26.55-2.101 0.967-0.2 1.851-0.399 2.65-0.6 0.934-0.134 1.8-0.467 2.6-1 0.301-0.2 0.617-0.417 0.95-0.65l0.15-0.3c0.833-1 1.366-2.083 1.6-3.25 1.367-5.833 2.283-15.616 2.75-29.35 0.296-10.23-2.154-18.247-7.35-24.051zm-31.125 3.225c-0.357 0.039-0.698 0.014-1.025-0.075-0.333-0.2-0.6-0.467-0.8-0.8-0.066-0.066-0.1-0.15-0.1-0.25-0.134-0.334-0.15-0.667-0.051-1l0.051-0.05 6.75-25.051c0.1-0.433 0.083-0.85-0.051-1.25 1.423 1.927 2.105 3.01 2.051 3.25l-6.75 25.051-0.051 0.05c-0.011 0.039-0.019 0.081-0.024 0.125zm-98.225-23.825c-0.2 0.036-0.399 0.069-0.6 0.1v-0.699z" style="fill:#8f8f8f"/><path d="m197.62 235.3 51.85-51.825c-0.286 2.505-0.703 5.089-1.25 7.75-0.263 1.255-0.555 2.53-0.875 3.825-2.199 8.733-4.283 15.017-6.25 18.851 15.934 17.466 23.967 26.216 24.101 26.25 0.333 0.267 0.583 0.583 0.75 0.949 0.2 0.434 0.25 0.851 0.149 1.25l-6.95 25.55 0.05-0.101c-0.134 0.367-0.134 0.717 0 1.05v0.151c0.084 0.169 0.185 0.319 0.3 0.45 0.141 0.17 0.308 0.304 0.5 0.399 0.4 0.134 0.783 0.167 1.15 0.101v-0.05h0.024l25.325-6.65c0.434-0.233 0.833-0.217 1.2 0.05 0.333 0.167 0.633 0.434 0.899 0.8 0.134 0.4 0.15 0.817 0.051 1.25l-6.749 25.05-0.051 0.05c-0.1 0.333-0.083 0.666 0.051 1 0 0.1 0.033 0.184 0.1 0.25 0.2 0.333 0.467 0.6 0.8 0.8 0.327 0.089 0.668 0.114 1.025 0.075 0.039-0.01 0.081-0.018 0.125-0.025v0.101l0.1-0.101 26.65-7c1.576 1.142 2.992 2.408 4.25 3.8 5.195 5.805 7.646 13.821 7.35 24.051-0.467 13.733-1.383 23.517-2.75 29.35-0.233 1.167-0.767 2.25-1.6 3.25l-0.15 0.3c-0.333 0.233-0.649 0.45-0.95 0.65-0.8 0.533-1.666 0.866-2.6 1-0.8 0.2-1.684 0.399-2.65 0.6-21.5-21.6-32.816-32.934-33.949-34l-60.101-60.351c-0.2-0.101-0.366-0.233-0.5-0.4l-5.2-5.25-0.149 0.15c-0.101 0.066-0.2 0.166-0.3 0.3-3.216-3.303-7.273-7.353-12.176-12.15-0.525-0.505-1.058-1.022-1.6-1.55zm10.725 16.1 0.101 0.05h-0.101z" style="fill:#dbdbdb"/><path d="m208.35 251.4v0.05h0.101c0.833-0.7 1.7-1.417 2.6-2.15 0.066-0.133 0.184-0.233 0.351-0.3 0.1-0.134 0.199-0.233 0.3-0.3l0.149-0.15 5.2 5.25c0.134 0.167 0.3 0.3 0.5 0.4l60.101 60.35c1.133 1.066 12.449 12.4 33.949 34-9.066-2.467-16.033-6.467-20.899-12-4.934-5.633-8.283-9.116-10.05-10.45-1.801-1.3-2.817-1.866-3.051-1.699-0.199 0.267-0.449 0.483-0.75 0.649-1.199 0.9-2.616 1.384-4.25 1.45-1.933 0-3.6-0.684-5-2.05l-1.1-1.101c-0.233-0.233-0.417-0.416-0.55-0.55l-65.601-65.75c0.067-0.066 0.15-0.116 0.25-0.149 1.134-0.733 2.267-1.467 3.4-2.2 0.233-0.134 0.483-0.3 0.75-0.5 0.134-0.101 0.3-0.217 0.5-0.351z" style="fill:#c8c8c8"/></g></svg>
