<svg width="128" height="128" version="1.1" viewBox="0 0 33.867 33.867" xmlns="http://www.w3.org/2000/svg"><defs><clipPath id="a"><rect width="1024" height="1024" rx="200" fill="#fff"/></clipPath></defs><rect x="7.0459e-7" y="6.4966e-7" width="33.867" height="33.867" rx="10.16" ry="10.16" stroke-width=".033867"/><g transform="matrix(.037398 0 0 .037398 -2.2146 -2.2164)"><g clip-path="url(#a)" fill="#fff"><path d="m724.98 682.92c-17.255 50.411-51.835 93.065-97.588 120.37-45.752 27.307-99.71 37.496-152.27 28.753-52.56-8.743-100.31-35.85-134.76-76.498s-53.359-92.199-53.365-145.48v-110.25l79.121 33.053v77.152c-7e-3 20.779 4.434 41.318 13.024 60.237 8.59 18.92 21.131 35.781 36.78 49.451 2.97 2.587 6.053 5.107 9.236 7.459 23.357 17.388 51.402 27.352 80.494 28.597 0.99 0 1.946 0.079 2.925 0.101 0.979 0.023 2.25 0 3.375 0h3.375c1.125 0 1.935 0 2.925-0.101 29.081-1.248 57.116-11.203 80.471-28.575 3.173-2.351 6.255-4.86 9.237-7.447 20.556-17.98 35.656-41.366 43.582-67.5zm12.015-268.92v196.06c0 2.531 0 5.074-0.158 7.605l-78.963-33.019v-170.65c-0.013-37.684-14.607-73.901-40.725-101.07-26.119-27.164-61.735-43.168-99.389-44.66-37.655-1.492-74.426 11.644-102.61 36.657-28.186 25.013-45.6 59.962-48.594 97.526-0.281 3.803-0.439 7.662-0.439 11.543v48.712l-79.121-33.075v-240.64h225c59.674 0 116.9 23.705 159.1 65.901s65.901 99.425 65.901 159.1z"/></g></g></svg>
