<svg width="128" height="128" version="1.1" viewBox="0 0 33.867 33.867" xmlns="http://www.w3.org/2000/svg" xmlns:xlink="http://www.w3.org/1999/xlink"><defs><linearGradient id="paint0_linear" x1="133.45" x2="142.33" y1="94.216" y2="170.75" gradientUnits="userSpaceOnUse"><stop stop-color="#2173E7" offset="0"/><stop stop-color="#0E5CC9" offset="1"/></linearGradient><linearGradient id="linearGradient1" x1="133.45" x2="142.33" y1="94.216" y2="170.75" gradientTransform="matrix(.43158 0 0 .43158 -40.662 -40.467)" gradientUnits="userSpaceOnUse" xlink:href="#paint0_linear"/></defs><g fill="url(#linearGradient1)" stroke-width=".43158"><path d="m20.511 23.932v-7.8388c0-1.968-1.6551-3.5631-3.6969-3.5631-2.0418 0-3.6969 1.5951-3.6969 3.5631v7.8388h-2.9576v-7.8388c0-3.542 2.9796-6.4133 6.6546-6.4133 3.6754 0 6.6546 2.8713 6.6546 6.4133v7.8388z"/><path d="m6.7732 0.19475c-3.7405 0-6.7732 2.9975-6.7732 6.6953v20.087c0 3.6978 3.0327 6.6951 6.7732 6.6951h20.32c3.7405 0 6.7733-2.9973 6.7733-6.6951v-20.087c0-3.6978-3.0327-6.6953-6.7733-6.6953zm20.32 2.9293h-20.32c-2.104 0-3.81 1.6862-3.81 3.766v20.087c0 2.0798 1.706 3.766 3.81 3.766h20.32c2.104 0 3.81-1.6862 3.81-3.766v-20.087c0-2.0798-1.706-3.766-3.81-3.766z" clip-rule="evenodd" fill-rule="evenodd"/></g></svg>
