<?xml version="1.0" encoding="UTF-8"?>
<svg width="128" height="128" version="1.1" viewBox="0 0 33.867 33.867" xmlns="http://www.w3.org/2000/svg" xmlns:xlink="http://www.w3.org/1999/xlink"><defs><radialGradient id="radialGradient14032" cx="6.7027" cy="73.616" r="7.2284" gradientTransform="scale(1.9022 .5257)" gradientUnits="userSpaceOnUse" xlink:href="#linearGradient10691"/><linearGradient id="linearGradient10691"><stop offset="0"/><stop style="stop-opacity:0" offset="1"/></linearGradient><filter id="filter11176" x="-.045684" y="-.1653" width="1.0914" height="1.3306"><feGaussianBlur stdDeviation="0.52346328"/></filter><linearGradient id="linearGradient14034" x1="8.9156" x2="9.8855" y1="37.197" y2="52.091" gradientTransform="matrix(1.5375 0 0 .47726 4.9958 7.0233)" gradientUnits="userSpaceOnUse"><stop style="stop-color:#9aa29a" offset="0"/><stop style="stop-color:#b5beb5" offset="1"/></linearGradient><filter id="filter11156" x="-.032631" y="-.11807" width="1.0653" height="1.2361"><feGaussianBlur stdDeviation="0.37390235"/></filter><radialGradient id="radialGradient14038" cx="8.7468" cy="6.8283" r="29.89" gradientUnits="userSpaceOnUse"><stop style="stop-color:#9497b3" offset="0"/><stop style="stop-color:#4c4059" offset="1"/></radialGradient><radialGradient id="radialGradient14040" cx="11.902" cy="10.045" r="29.293" gradientUnits="userSpaceOnUse"><stop style="stop-color:#fffffd" offset="0"/><stop style="stop-color:#cbcbc9" offset="1"/></radialGradient><linearGradient id="linearGradient14042" x1="13.037" x2="19.359" y1="8.3119" y2="17.323" gradientUnits="userSpaceOnUse" xlink:href="#linearGradient2111"/><linearGradient id="linearGradient2111"><stop style="stop-color:#838383" offset="0"/><stop offset="1"/></linearGradient><linearGradient id="linearGradient14044" x1="13.037" x2="19.359" y1="-1.5876" y2="7.4232" gradientUnits="userSpaceOnUse" xlink:href="#linearGradient2111"/><linearGradient id="linearGradient14046" x1="17.987" x2="24.309" y1="3.3622" y2="12.373" gradientUnits="userSpaceOnUse" xlink:href="#linearGradient2111"/><linearGradient id="linearGradient14048" x1="8.0877" x2="14.409" y1="3.3622" y2="12.373" gradientUnits="userSpaceOnUse" xlink:href="#linearGradient2111"/><clipPath id="clipPath11191"><path d="m273.22 117.09c-32.508 0-58.875 26.398-58.875 58.906s26.367 58.875 58.875 58.875 58.906-26.367 58.906-58.875-26.398-58.906-58.906-58.906zm-0.25 15.031c24.068 0 43.594 19.557 43.594 43.625s-19.525 43.594-43.594 43.594-43.594-19.525-43.594-43.594 19.525-43.625 43.594-43.625z" style="fill:none;stroke:#000"/></clipPath><filter id="filter11219" x="-.028245" y="-.028245" width="1.0565" height="1.0565"><feGaussianBlur stdDeviation="1.1778125"/></filter><radialGradient id="radialGradient14050" cx="177" cy="139.12" r="49" gradientTransform="matrix(1.2323 0 0 1.2323 -41.112 -32.315)" gradientUnits="userSpaceOnUse" xlink:href="#linearGradient11225"/><linearGradient id="linearGradient11225"><stop style="stop-color:#fff" offset="0"/><stop style="stop-color:#fff;stop-opacity:0" offset="1"/></linearGradient><filter id="filter11241" x="-.034417" y="-.034417" width="1.0688" height="1.0688"><feGaussianBlur stdDeviation="0.96"/></filter><radialGradient id="radialGradient14052" cx="177" cy="208" r="49" gradientTransform="matrix(1.2323 0 0 1.2323 -41.112 -32.315)" gradientUnits="userSpaceOnUse" xlink:href="#linearGradient11225"/><filter id="filter11237" x="-.034417" y="-.034417" width="1.0688" height="1.0688"><feGaussianBlur stdDeviation="0.96"/></filter><filter id="filter11332" x="-.24131" y="-.078738" width="1.4413" height="1.1737"><feGaussianBlur stdDeviation="0.18533703"/></filter><radialGradient id="radialGradient14056" cx="179.12" cy="207.61" r="49" gradientTransform="matrix(1.2323 0 0 1.2323 -41.112 -32.315)" gradientUnits="userSpaceOnUse" xlink:href="#linearGradient11225"/><radialGradient id="radialGradient14058" cx="177" cy="209.87" r="49" gradientTransform="matrix(1.2323 0 0 1.2323 -41.112 -32.315)" gradientUnits="userSpaceOnUse"><stop style="stop-color:#fff;stop-opacity:.27692" offset="0"/><stop style="stop-color:#fff;stop-opacity:0" offset="1"/></radialGradient><filter id="filter11265" x="-.058417" y="-.058417" width="1.1168" height="1.1168"><feGaussianBlur stdDeviation="1.92"/></filter><radialGradient id="radialGradient14062" cx="282.43" cy="169.77" r="12.836" gradientTransform="matrix(.0464 -.17225 .56978 .15349 -96.264 47.398)" gradientUnits="userSpaceOnUse"><stop style="stop-color:#a3a3a3" offset="0"/><stop offset="1"/></radialGradient><radialGradient id="radialGradient14064" cx="167.75" cy="190.62" r="6.125" gradientTransform="matrix(.76856 .40135 -.66725 1.2778 166.02 -120.27)" gradientUnits="userSpaceOnUse" xlink:href="#linearGradient11225"/><radialGradient id="radialGradient14066" cx="151.73" cy="169.73" r="6.125" gradientTransform="matrix(.80066 -.33274 .90418 2.1757 -105.58 -161.31)" gradientUnits="userSpaceOnUse" xlink:href="#linearGradient11225"/><clipPath id="clipPath11375"><path transform="translate(0 2.1357)" d="m223.5 176.38a46.875 46.875 0 1 1-93.75 0 46.875 46.875 0 1 1 93.75 0z" style="fill:none;opacity:.8;stroke-width:2.1357;stroke:#000"/></clipPath><filter id="filter11395" x="-.053602" y="-.053602" width="1.1072" height="1.1072"><feGaussianBlur stdDeviation="1.6488693"/></filter><clipPath id="clipPath15193"><path d="m94.752 81.345 44.56 54.46c5.1638-5.9116 8.7864-9.0738 15.984-10.56 10.749-2.2201 28.449-2.4518 38.907 1.0077 5.7518 1.9027 9.9148 6.3988 12.664 9.8134l44.155-55.428-38.184-52.326-77.782-3.5355z" style="fill:#e00000"/></clipPath><linearGradient id="linearGradient14000" x1="84" x2="-104.07" y1="200.5" y2="-127.99" gradientUnits="userSpaceOnUse" xlink:href="#linearGradient10691"/><filter id="filter9-paper-sheet-orig-1" x="-.031018" y="-.02663" width="1.062" height="1.0533"><feGaussianBlur stdDeviation="2.43"/></filter><radialGradient id="radialGradient14002" cx="-80.661" cy="88.983" r="18" gradientTransform="matrix(25.306 2.1794e-6 -1.0731e-6 12.46 2199.2 -911.49)" gradientUnits="userSpaceOnUse"><stop style="stop-color:#fff" offset="0"/><stop style="stop-color:#d3d7cf" offset="1"/></radialGradient><radialGradient id="radialGradient14004" cx="128.59" cy="116.47" r="92.902" gradientTransform="matrix(3.5967 -.28529 .17691 2.2303 -355.12 -121.58)" gradientUnits="userSpaceOnUse" xlink:href="#linearGradient11225"/><clipPath id="clipPath0-paper-sheet-orig-3"><path d="m36 19c-0.56266 0-1 0.43734-1 1v217c0 0.56266 0.43734 1 1 1h184c0.56266 0 1-0.43734 1-1v-171c0-13.558-10.858-25.296-16.281-30.719-5.4231-5.4231-17.161-16.281-30.719-16.281z" style="fill:url(#linearGradient6013) #000000"/></clipPath><filter id="filter3-paper-sheet-orig-9" x="-.028801" y="-.024461" width="1.0576" height="1.0489"><feGaussianBlur stdDeviation="2.025"/></filter><radialGradient id="radialGradient14006" cx="36" cy="45.297" r="84.203" gradientTransform="matrix(0 2.7411 -1.8799 0 120.78 -78.804)" gradientUnits="userSpaceOnUse" xlink:href="#linearGradient11225"/><radialGradient id="radialGradient14008" cx="127.75" cy="261.27" r="92.25" gradientTransform="matrix(1.663 0 0 .34037 -84.702 148.57)" gradientUnits="userSpaceOnUse" xlink:href="#linearGradient11225"/><radialGradient id="radialGradient14010" cx="20.48" cy="31.231" r="93" gradientTransform="matrix(0 1.0485 -3.8781 0 165.49 13.855)" gradientUnits="userSpaceOnUse" xlink:href="#linearGradient11225"/><radialGradient id="radialGradient14012" cx="127.75" cy="236.25" r="92.25" gradientTransform="matrix(1.5709 0 0 1.1159 -53.057 .95481)" gradientUnits="userSpaceOnUse" xlink:href="#linearGradient11225"/><radialGradient id="radialGradient14014" cx="210.96" cy="38.58" r="34.234" gradientTransform="matrix(1.0442 0 0 .96082 -12.745 6.3495)" gradientUnits="userSpaceOnUse" xlink:href="#linearGradient10691"/><filter id="filter2-paper-sheet-orig-2-4" x="-.10594" y="-.11513" width="1.2119" height="1.2303"><feGaussianBlur stdDeviation="3.0222701"/></filter><mask id="mask0-paper-sheet-orig-6-5" maskUnits="userSpaceOnUse"><path d="m36-31c-0.56266 0-1 0.43734-1 1v217c0 0.56266 0.43734 1 1 1h184c0.56266 0 1-0.43734 1-1v-171c0-13.558-12.858-23.296-18.281-28.719-5.4231-5.4231-15.161-18.281-28.719-18.281z" style="fill:#fff"/></mask><filter id="filter4-paper-sheet-orig-9-1" x="-.24138" y="-.24138" width="1.4828" height="1.4828"><feGaussianBlur stdDeviation="4.7270115"/></filter><radialGradient id="radialGradient14016" cx="196.36" cy="44.213" r="23.763" gradientTransform="matrix(1 0 0 .98931 0 .47264)" gradientUnits="userSpaceOnUse" xlink:href="#linearGradient10691"/><filter id="filter5-paper-sheet-orig-2-0" x="-.013718" y="-.013869" width="1.0274" height="1.0277"><feGaussianBlur stdDeviation="0.27169794"/></filter><linearGradient id="linearGradient14018" x1="190.98" x2="196.45" y1="52.973" y2="39.564" gradientTransform="translate(-1.5 2.5214)" gradientUnits="userSpaceOnUse" xlink:href="#linearGradient10691"/><filter id="filter6-paper-sheet-orig-2-6" x="-.13103" y="-.13103" width="1.2621" height="1.2621"><feGaussianBlur stdDeviation="2.566092"/></filter><radialGradient id="radialGradient14020" cx="190.88" cy="49.25" r="23.5" gradientTransform="matrix(1.4473 0 0 1.4473 -85.751 -21.529)" gradientUnits="userSpaceOnUse" xlink:href="#linearGradient11225"/><radialGradient id="radialGradient14022" cx="192.25" cy="45.75" r="23.5" gradientTransform="matrix(.5972 -.4509 1.7045 2.2575 -.54025 29.158)" gradientUnits="userSpaceOnUse"><stop style="stop-color:#fff" offset="0"/><stop style="stop-color:#e6e6e6" offset=".44761"/><stop style="stop-color:#cbcbcb" offset=".81268"/><stop style="stop-color:#dbdbdb" offset="1"/></radialGradient><radialGradient id="radialGradient14024" cx="186.77" cy="27.786" r="8.9714" gradientTransform="matrix(2.1152 0 0 2.9279 -207.44 -53.617)" gradientUnits="userSpaceOnUse" xlink:href="#linearGradient11225"/><filter id="filter7-paper-sheet-orig-3-4" x="-.02736" y="-.027816" width="1.0547" height="1.0556"><feGaussianBlur stdDeviation="0.30732727"/></filter><radialGradient id="radialGradient14026" cx="208.68" cy="39.762" r="13.625" gradientTransform="matrix(.99733 .072992 -.11677 1.5955 5.1997 -29.524)" gradientUnits="userSpaceOnUse" xlink:href="#linearGradient11225"/><filter id="filter8-paper-sheet-orig-5-7" x="-.031646" y="-.10174" width="1.0633" height="1.2035"><feGaussianBlur stdDeviation="0.35931052"/></filter><linearGradient id="linearGradient14028" x1="189.25" x2="189.25" y1="23.662" y2="43.888" gradientUnits="userSpaceOnUse" xlink:href="#linearGradient11225"/><linearGradient id="linearGradient14030" x1="-393.5" x2="-393.5" y1="53.755" y2="-74.509" gradientUnits="userSpaceOnUse" xlink:href="#linearGradient10691"/><clipPath id="clipPath3737-8"><path d="m-322-132c-30.111 0-36.134 7.4442-42.156 14.875l-57.844 77.125v133.84c0 2.2962 1.86 4.1562 4.1562 4.1562h191.69c2.2962 0 4.1562-1.86 4.1562-4.1562v-133.84l-57.844-77.125c-6.0222-7.4308-12.045-14.875-42.156-14.875z" style="enable-background:new"/></clipPath><filter id="filter3360-7" x="-.030812" y="-.044574" width="1.0616" height="1.0891"><feGaussianBlur stdDeviation="2.5676682"/></filter><clipPath id="clipPath3807-8"><path d="m-422 38c-30.111 0-36.134 7.4442-42.156 14.875l-57.844 77.125v133.84c0 2.2962 1.86 4.1562 4.1562 4.1562h191.69c2.2962 0 4.1562-1.86 4.1562-4.1562v-133.84l-57.844-77.125c-6.0222-7.4308-12.045-14.875-42.156-14.875z" style="enable-background:new"/></clipPath><filter id="filter3819-2" x="-.085772" y="-.19969" width="1.1715" height="1.3994"><feGaussianBlur stdDeviation="6.9890625"/></filter><filter id="filter3356-9" x="-.090295" y="-1.6382" width="1.1806" height="4.2764"><feGaussianBlur stdDeviation="7.4125232"/></filter><filter id="filter3352-4" x="-.037564" y="-.68152" width="1.0751" height="2.363"><feGaussianBlur stdDeviation="2.9464591"/></filter><linearGradient id="linearGradient13982" x1="-112" x2="-112" y1="53" y2="201" gradientTransform="translate(260)" gradientUnits="userSpaceOnUse"><stop style="stop-color:#dbded7" offset="0"/><stop style="stop-color:#eeeeec" offset=".31757"/><stop style="stop-color:#f3f3f2" offset=".49662"/><stop style="stop-color:#d3d7cf" offset=".76689"/><stop style="stop-color:#babdb6" offset="1"/></linearGradient><linearGradient id="linearGradient13984" x1="-182" x2="-169" y1="189" y2="321" gradientTransform="translate(260)" gradientUnits="userSpaceOnUse"><stop style="stop-color:#fff" offset="0"/><stop style="stop-color:#babdb6" offset="1"/></linearGradient><linearGradient id="linearGradient13986" x1="-212" x2="-12" y1="198.88" y2="198.88" gradientTransform="translate(260)" gradientUnits="userSpaceOnUse"><stop style="stop-color:#fff" offset="0"/><stop style="stop-color:#eeeeec;stop-opacity:0" offset=".0275"/><stop style="stop-color:#d3d7cf;stop-opacity:0" offset=".9775"/><stop style="stop-color:#d3d7cf" offset="1"/></linearGradient><linearGradient id="linearGradient13988" x1="-372.5" x2="-372.5" y1="164.82" y2="129.75" gradientUnits="userSpaceOnUse" xlink:href="#linearGradient11225"/><clipPath id="clipPath3843-6"><path d="m-442 129.75v134.09c0 2.2962 1.86 4.1562 4.1562 4.1562h191.69c2.2962 0 4.1562-1.86 4.1562-4.1562v-134.09l-57.844 71.375c-6.0222 7.4308-12.045 14.875-42.156 14.875-30.111 0-36.134-7.4442-42.156-14.875z" style="enable-background:new"/></clipPath><filter id="filter3847-0" x="-.027234" y="-.063154" width="1.0545" height="1.1263"><feGaussianBlur stdDeviation="1.43625"/></filter><linearGradient id="linearGradient13990" x1="-324" x2="-324" y1="-17.507" y2="49.516" gradientUnits="userSpaceOnUse" xlink:href="#linearGradient10691"/><clipPath id="clipPath3783-1"><path d="m-472-100.25v134.09c0 2.2962 1.86 4.1562 4.1562 4.1562h191.69c2.2962 0 4.1562-1.86 4.1562-4.1562v-134.09l-57.844 71.375c-6.0222 7.4308-12.045 14.875-42.156 14.875-30.111 0-36.134-7.4442-42.156-14.875z" style="enable-background:new"/></clipPath><filter id="filter3787-6" x="-.034309" y="-.079875" width="1.0686" height="1.1598"><feGaussianBlur stdDeviation="2.795625"/></filter><linearGradient id="linearGradient13992" x1="-111" x2="-111" y1="262" y2="183.99" gradientTransform="translate(260)" gradientUnits="userSpaceOnUse"><stop style="stop-color:#eeeeec" offset="0"/><stop style="stop-color:#f4f4f3" offset=".5"/><stop style="stop-color:#fbfbfa" offset="1"/></linearGradient><linearGradient id="linearGradient13994" x1="-111" x2="-111" y1="268.15" y2="195.99" gradientTransform="translate(260)" gradientUnits="userSpaceOnUse"><stop style="stop-color:#c8cdc3" offset="0"/><stop style="stop-color:#eeeeec" offset=".10637"/><stop style="stop-color:#fbfbfa" offset="1"/></linearGradient><linearGradient id="linearGradient13996" x1="-445.5" x2="-445.5" y1="237.43" y2="256.75" gradientUnits="userSpaceOnUse" xlink:href="#linearGradient11225"/><clipPath id="clipPath3865-5"><path d="m-422 184c-30.111 0-36.134 7.4442-42.156 14.875l-55.625 68.625c0.57753 0.30447 1.2368 0.5 1.9375 0.5h191.69c0.70071 0 1.36-0.19553 1.9375-0.5l-55.625-68.625c-6.0222-7.4308-12.045-14.875-42.156-14.875z" style="enable-background:new"/></clipPath><filter id="filter3869-2" x="-.027381" y="-.063747" width="1.0548" height="1.1275"><feGaussianBlur stdDeviation="1.3978125"/></filter><linearGradient id="linearGradient13998" x1="-393" x2="-336" y1="153" y2="242" gradientUnits="userSpaceOnUse" xlink:href="#linearGradient11225"/><clipPath id="clipPath3887-0"><path d="m-382 38c-30.111 0-36.134 7.4442-42.156 14.875l-57.844 77.125v133.84c0 2.2962 1.86 4.1562 4.1562 4.1562h191.69c2.2962 0 4.1562-1.86 4.1562-4.1562v-133.84l-57.844-77.125c-6.0222-7.4308-12.045-14.875-42.156-14.875z" style="enable-background:new"/></clipPath><filter id="filter3903-2" x="-.0179" y="-.015565" width="1.0358" height="1.0311"><feGaussianBlur stdDeviation="1.075"/></filter><clipPath id="clipPath3911-1"><path d="m-412 38c-30.111 0-36.134 7.4442-42.156 14.875l-57.844 77.125v133.84c0 2.2962 1.86 4.1562 4.1562 4.1562h191.69c2.2962 0 4.1562-1.86 4.1562-4.1562v-133.84l-57.844-77.125c-6.0222-7.4308-12.045-14.875-42.156-14.875z" style="enable-background:new"/></clipPath><filter id="filter3919-7" x="-.0096339" y="-.0083773" width="1.0193" height="1.0168"><feGaussianBlur stdDeviation="0.5375"/></filter></defs><g transform="matrix(.11454 0 0 .11454 -3.0694 -3.7315)" style="enable-background:new"><rect transform="matrix(1.0105 0 0 .50893 -3.5686 130.37)" x="48.4" y="260.4" width="203.2" height="11.2" rx="5.6" ry="5.6" style="enable-background:new;filter:url(#filter3356-9);opacity:.3;stroke-linecap:square;stroke-width:1.1156;stroke:#000"/><rect transform="matrix(.99692 0 0 .50893 -1.5386 130.37)" x="48.4" y="260.4" width="203.2" height="11.2" rx="5.6" ry="5.6" style="filter:url(#filter3352-4);opacity:.5;stroke-linecap:square;stroke-width:1.1231;stroke:#000"/><path d="m148 38c-30.111 0-36.134 7.4442-42.156 14.875l-57.844 77.125v133.84c0 2.2962 1.86 4.1562 4.1562 4.1562h191.69c2.2962 0 4.1562-1.86 4.1562-4.1562v-133.84l-57.844-77.125c-6.0222-7.4308-12.045-14.875-42.156-14.875z" style="fill:url(#linearGradient13982)"/><path d="m48 129.75v134.09c0 2.2962 1.86 4.1562 4.1562 4.1562h191.69c2.2962 0 4.1562-1.86 4.1562-4.1562v-134.09l-57.844 71.375c-6.0222 7.4308-12.045 14.875-42.156 14.875-30.111 0-36.134-7.4442-42.156-14.875z" style="enable-background:new;fill:url(#linearGradient13984)"/><path d="m48 129.75v134.09c0 2.2962 1.86 4.1562 4.1562 4.1562h191.69c2.2962 0 4.1562-1.86 4.1562-4.1562v-134.09l-57.844 71.375c-6.0222 7.4308-12.045 14.875-42.156 14.875-30.111 0-36.134-7.4442-42.156-14.875z" style="enable-background:new;fill:url(#linearGradient13986)"/><path transform="translate(490)" d="m-442 129.75h200l-57.844 71.375c-6.0222 7.4308-12.045 14.875-42.156 14.875-30.111 0-36.134-7.4442-42.156-14.875z" clip-path="url(#clipPath3843-6)" style="enable-background:new;fill:none;filter:url(#filter3847-0);stroke-linecap:round;stroke-linejoin:round;stroke-width:4;stroke:url(#linearGradient13988)"/><path transform="translate(520,230)" d="m-371-46c-30.111 0-36.134 7.4442-42.156 14.875l-56.625 68.625c0.57753 0.30447 1.2368 0.5 1.9375 0.5h191.69c0.70071 0 1.36-0.19553 1.9375-0.5l-54.625-68.625c-6.0222-7.4308-12.045-14.875-42.156-14.875z" clip-path="url(#clipPath3783-1)" style="enable-background:new;fill:url(#linearGradient13990);filter:url(#filter3787-6);opacity:.4"/><path d="m148 184c-30.111 0-36.134 7.4442-42.156 14.875l-55.625 68.625c0.57753 0.30447 1.2368 0.5 1.9375 0.5h191.69c0.70071 0 1.36-0.19553 1.9375-0.5l-55.625-68.625c-6.0222-7.4308-12.045-14.875-42.156-14.875z" style="enable-background:new;fill:url(#linearGradient13992)"/><path d="m148 184c-30.111 0-36.134 7.4442-42.156 14.875l-55.625 68.625c0.57753 0.30447 1.2368 0.5 1.9375 0.5h191.69c0.70071 0 1.36-0.19553 1.9375-0.5l-55.625-68.625c-6.0222-7.4308-12.045-14.875-42.156-14.875z" style="enable-background:new;fill:url(#linearGradient13994)"/><path transform="translate(570)" d="m-422 184c-30.111 0-36.134 7.4442-42.156 14.875l-55.625 68.625c0.57753 0.30447 1.2368 0.5 1.9375 0.5h191.69c0.70071 0 1.36-0.19553 1.9375-0.5l-55.625-68.625c-6.0222-7.4308-12.045-14.875-42.156-14.875z" clip-path="url(#clipPath3865-5)" style="enable-background:new;fill:none;filter:url(#filter3869-2);stroke-linecap:round;stroke-linejoin:round;stroke-width:4;stroke:url(#linearGradient13996)"/><path transform="matrix(1 0 0 .99781 530 .58553)" d="m-382 38c-30.111 0-36.134 7.4442-42.156 14.875l-57.844 77.125v133.84c0 2.2962 1.86 4.1562 4.1562 4.1562h191.69c2.2962 0 4.1562-1.86 4.1562-4.1562v-133.84l-57.844-77.125c-6.0222-7.4308-12.045-14.875-42.156-14.875z" clip-path="url(#clipPath3887-0)" style="enable-background:new;fill:none;filter:url(#filter3903-2);stroke-linecap:round;stroke-linejoin:round;stroke-width:2;stroke:url(#linearGradient13998)"/><path transform="translate(560)" d="m-412 38c-30.111 0-36.134 7.4442-42.156 14.875l-57.844 77.125v133.84c0 2.2962 1.86 4.1562 4.1562 4.1562h191.69c2.2962 0 4.1562-1.86 4.1562-4.1562v-133.84l-57.844-77.125c-6.0222-7.4308-12.045-14.875-42.156-14.875z" clip-path="url(#clipPath3911-1)" style="enable-background:new;fill:none;filter:url(#filter3919-7);stroke-linecap:round;stroke-linejoin:round;stroke-width:1.2736;stroke:#777a74"/></g><g transform="matrix(.14588 0 0 .14588 -11.354 -.68793)" clip-path="url(#clipPath15193)" style="enable-background:new"><g transform="matrix(.73718 -.1354 .1354 .73718 290.01 51.523)" clip-path="none"><g transform="translate(-705 -71.136)"><path transform="matrix(.98925 0 0 1.0129 401.72 .5305)" d="m55.872 47.328c-0.56266 0-1 0.43734-1 1l-1.0109 217c0 0.56266 0.43734 1 1 1h186.02c0.56266 0 1-0.43734 1-1l-1.0109-171c0-13.558-10.858-25.296-16.281-30.719-5.4231-5.4231-17.161-16.281-30.719-16.281z" style="fill:url(#linearGradient14000);filter:url(#filter9-paper-sheet-orig-1);opacity:.7"/><g transform="matrix(.98925 0 0 1.0232 401.72 .044255)"><g transform="translate(19.872 27.828)"><path d="m36 19c-0.56266 0-1 0.43734-1 1v217c0 0.56266 0.43734 1 1 1h184c0.56266 0 1-0.43734 1-1v-171c0-13.558-10.858-25.296-16.281-30.719-5.4231-5.4231-17.161-16.281-30.719-16.281z" style="fill:url(#radialGradient14002)"/><path d="m36.591 19.704c-0.55904 0-0.99357 0.43453-0.99357 0.99357v215.61c0 0.55904 0.43453 0.99357 0.99357 0.99357h182.82c0.55904 0 0.99357-0.43453 0.99357-0.99357v-169.9c0-13.471-10.788-25.133-16.177-30.521-5.3882-5.3882-17.051-16.177-30.521-16.177z" style="fill:none;stroke-linecap:round;stroke-width:.99397;stroke:url(#radialGradient14004)"/><path d="m36 19c-0.56266 0-1 0.43734-1 1v217c0 0.56266 0.43734 1 1 1h184c0.56266 0 1-0.43734 1-1v-171c0-13.558-10.858-25.296-16.281-30.719-5.4231-5.4231-17.161-16.281-30.719-16.281z" clip-path="url(#clipPath0-paper-sheet-orig-3)" style="fill:none;filter:url(#filter3-paper-sheet-orig-9);opacity:.072289;stroke-linecap:round;stroke-width:.99397;stroke:#000"/><path d="m36.625 19.875c-0.56266 0-1 0.43734-1 1v217c0 0.56266 0.43734 1 1 1v-217c0-0.56266 0.43734-1 1-1h138c11.863 0 22.341 8.3199 28.406 14.031-5.8462-5.6773-16.801-15.031-29.406-15.031z" style="fill:url(#radialGradient14006)"/><rect x="35.5" y="186.25" width="184.5" height="51.25" rx="1.0156" ry="1.0156" style="fill:url(#radialGradient14008);opacity:.56024"/></g><path d="m55.875 46.812c-0.56266-1e-6 -1 0.43734-1 1v88.188h186v-42.188c-1e-5 -13.558-10.858-25.296-16.281-30.719-5.4231-5.4231-17.161-16.281-30.719-16.281z" style="fill:url(#radialGradient14010)"/><rect x="55.372" y="263.83" width="184.5" height="1.5" rx="1.0156" ry="1.0156" style="fill:url(#radialGradient14012)"/></g></g><g transform="translate(-305 -67.21)"><g transform="matrix(.98925 0 0 1.0232 21.376 24.59)"><path transform="matrix(.76048 0 0 .87302 56.123 8.4826)" d="m162 24c-2.7302 0-5.4062 0.18108-8.0312 0.5625-3.1702 5.9491-4.9688 12.73-4.9688 19.938 0 23.46 19.04 42.5 42.5 42.5 9.7773 0 18.785-3.3191 25.969-8.875-0.73575-29.997-25.296-54.125-55.469-54.125z" style="fill:url(#radialGradient14014);filter:url(#filter2-paper-sheet-orig-2-4);opacity:.16868"/><path transform="translate(0,50)" d="m174-31c13.558 0 22.308 11.846 27.731 17.269s19.269 16.173 19.269 29.731c0-13.558-20.111-8.6028-26.192-8.6028-0.6357 0-1.2268-0.51769-1.1502-1.1502 2.5084-20.705-6.1006-37.247-19.658-37.247z" mask="url(#mask0-paper-sheet-orig-6-5)" style="filter:url(#filter4-paper-sheet-orig-9-1);opacity:.37952"/><path d="m172.59 20.722c24.827-0.87083 48.543 30.546 47.5 47 0-13.558-7.491-16.365-29.984-16.365-0.6357 0-1.1502-0.51307-1.1502-1.1502 0-22.493-2.8077-29.484-16.365-29.484z" style="fill:url(#radialGradient14016);filter:url(#filter5-paper-sheet-orig-2-0);opacity:.42771"/><path d="m171.45 22.448c13.558 0 25.308 10.846 30.731 16.269s16.269 17.173 16.269 30.731c0-13.558-6.991-16.365-29.484-16.365-0.6357 0-1.1502-0.51307-1.1502-1.1502 0-22.493-2.8077-29.484-16.365-29.484z" style="fill:url(#linearGradient14018);filter:url(#filter6-paper-sheet-orig-2-6);opacity:.27711"/><path d="m173.12 19.75c13.558 0 25.308 10.846 30.731 16.269s16.269 17.173 16.269 30.731c0-13.558-6.991-16.365-29.484-16.365-0.6357 0-1.1502-0.51307-1.1502-1.1502 0-22.493-2.8077-29.484-16.365-29.484z" style="fill:url(#radialGradient14020)"/><path d="m174 19c13.558 0 25.308 10.846 30.731 16.269s16.269 17.173 16.269 30.731c0-13.558-6.991-16.365-29.484-16.365-0.6357 0-1.1502-0.51307-1.1502-1.1502 0-22.493-2.8077-29.484-16.365-29.484z" style="fill:url(#radialGradient14022)"/><path d="m174.13 19.031c15.481 1.0337 16.019 13.643 16.263 26.517-0.74413-7.7303 1.374-15.978-4.2426-22.627 4.5078 1.5017 9.8111 5.7816 14.938 9.1924-5.4964-4.8666-14.015-13.001-26.958-13.081z" style="fill:url(#radialGradient14024);filter:url(#filter7-paper-sheet-orig-3-4)"/><path d="m219.38 57.625c-3.971-8.9-17.43-7.2964-27.25-8 9.9276-0.23867 24.598-2.9842 27.25 8z" style="fill:url(#radialGradient14026);filter:url(#filter8-paper-sheet-orig-5-7)"/></g><path transform="matrix(.98925 0 0 1.0232 21.376 24.59)" d="m174 19c13.558 0 25.308 10.846 30.731 16.269s16.269 17.173 16.269 30.731c0-13.558-6.991-16.365-29.484-16.365-0.6357 0-1.1502-0.51307-1.1502-1.1502 0-22.493-2.8077-29.484-16.365-29.484z" style="fill:url(#linearGradient14028)"/></g></g><rect transform="rotate(-10.557)" x="101.2" y="126.36" width="110.92" height="113" style="fill:#888a85;opacity:.13462"/><rect transform="rotate(-10.557)" x="101.85" y="101.05" width="45.147" height="18.347" style="fill:#888a85;opacity:.13462"/><path transform="matrix(.78519 0 0 .7 425.83 108.94)" d="m-422-40.25v134.09c0 2.2962 1.86 4.1562 4.1562 4.1562h191.69c2.2962 0 4.1562-1.86 4.1562-4.1562v-134.09l-55.344 71.375c-6.0222 7.4308-12.045 14.875-42.156 14.875-30.111 0-36.134-7.4442-42.156-14.875z" clip-path="url(#clipPath3737-8)" style="enable-background:new;fill:url(#linearGradient14030);filter:url(#filter3360-7);opacity:.5"/><path transform="matrix(.78519 0 0 .78519 504.35 -20.868)" d="m-422 184c-30.111 0-36.134 7.4442-42.156 14.875l-55.625 68.625c0.57753 0.30447 1.2368 0.5 1.9375 0.5h191.69c0.70071 0 1.36-0.19553 1.9375-0.5l-55.625-68.625c-6.0222-7.4308-12.045-14.875-42.156-14.875z" clip-path="url(#clipPath3807-8)" style="enable-background:new;filter:url(#filter3819-2);opacity:.4"/></g><g transform="matrix(.81775 0 0 .81775 -3.5517 -.6071)" style="enable-background:new"><path transform="matrix(.51404 0 0 .67258 25.709 10.783)" d="m26.5 38.7a13.75 3.8 0 0 1-13.75 3.8 13.75 3.8 0 0 1-13.75-3.8 13.75 3.8 0 0 1 13.75-3.8 13.75 3.8 0 0 1 13.75 3.8z" style="fill:url(#radialGradient14032);filter:url(#filter11176);opacity:.93304"/><path d="m29.838 17.358-7.068 8.2158 0.61951 0.61186z" style="fill:url(#linearGradient14034)"/><path d="m29.779 17.314-6.3031 8.7404 0.90045 0.79501z" style="fill:#fefefe"/><path transform="matrix(.9 0 0 1 21.1 -2)" d="m26.5 38.7a13.75 3.8 0 0 1-13.75 3.8 13.75 3.8 0 0 1-13.75-3.8 13.75 3.8 0 0 1 13.75-3.8 13.75 3.8 0 0 1 13.75 3.8z" style="fill:url(#radialGradient14032);filter:url(#filter11156);opacity:.3125"/><path transform="matrix(.70456 0 0 .70456 20.97 15.853)" d="m31.161 16.911a14.911 14.911 0 0 1-14.911 14.911 14.911 14.911 0 0 1-14.911-14.911 14.911 14.911 0 0 1 14.911-14.911 14.911 14.911 0 0 1 14.911 14.911z" style="fill:url(#radialGradient14038)"/><path transform="matrix(.52164 0 0 .52164 23.896 18.9)" d="m31.161 16.911a14.911 14.911 0 0 1-14.911 14.911 14.911 14.911 0 0 1-14.911-14.911 14.911 14.911 0 0 1 14.911-14.911 14.911 14.911 0 0 1 14.911 14.911z" style="fill:url(#radialGradient14040)"/><path transform="matrix(1.1892 0 0 1.1892 12.455 12.634)" d="m17.324 7.6932a0.61872 0.61872 0 0 1-0.61872 0.61872 0.61872 0.61872 0 0 1-0.61872-0.61872 0.61872 0.61872 0 0 1 0.61872-0.61872 0.61872 0.61872 0 0 1 0.61872 0.61872z" style="fill:url(#linearGradient14042)"/><path transform="matrix(1.1892 0 0 1.1892 12.455 24.406)" d="m17.324 7.6932a0.61872 0.61872 0 0 1-0.61872 0.61872 0.61872 0.61872 0 0 1-0.61872-0.61872 0.61872 0.61872 0 0 1 0.61872-0.61872 0.61872 0.61872 0 0 1 0.61872 0.61872z" style="fill:url(#linearGradient14044)"/><path transform="matrix(1.1892 0 0 1.1892 6.5687 18.52)" d="m17.324 7.6932a0.61872 0.61872 0 0 1-0.61872 0.61872 0.61872 0.61872 0 0 1-0.61872-0.61872 0.61872 0.61872 0 0 1 0.61872-0.61872 0.61872 0.61872 0 0 1 0.61872 0.61872z" style="fill:url(#linearGradient14046)"/><path transform="matrix(1.1892 0 0 1.1892 18.341 18.52)" d="m17.324 7.6932a0.61872 0.61872 0 0 1-0.61872 0.61872 0.61872 0.61872 0 0 1-0.61872-0.61872 0.61872 0.61872 0 0 1 0.61872-0.61872 0.61872 0.61872 0 0 1 0.61872 0.61872z" style="fill:url(#linearGradient14048)"/><path transform="matrix(.17839 0 0 .17839 -16.231 -3.6278)" d="m273.22 117.09c-32.508 0-58.875 26.398-58.875 58.906s26.367 58.875 58.875 58.875 58.906-26.367 58.906-58.875-26.398-58.906-58.906-58.906zm-0.25 15.031c24.068 0 43.594 19.557 43.594 43.625s-19.525 43.594-43.594 43.594-43.594-19.525-43.594-43.594 19.525-43.625 43.594-43.625z" clip-path="url(#clipPath11191)" style="fill:none;filter:url(#filter11219);stroke:#000"/><path transform="matrix(.20387 0 0 .20387 -3.7053 -7.9091)" d="m225 175a48 48 0 0 1-48 48 48 48 0 0 1-48-48 48 48 0 0 1 48-48 48 48 0 0 1 48 48z" style="fill:none;filter:url(#filter11241);stroke-width:2;stroke:url(#radialGradient14050)"/><path transform="matrix(.17475 0 0 .17475 1.4497 -2.8123)" d="m225 175a48 48 0 0 1-48 48 48 48 0 0 1-48-48 48 48 0 0 1 48-48 48 48 0 0 1 48 48z" style="fill:none;filter:url(#filter11237);opacity:.375;stroke-width:2;stroke:url(#radialGradient14052)"/><path transform="matrix(.17656 0 0 .17656 1.1283 -3.13)" d="m225 175a48 48 0 0 1-48 48 48 48 0 0 1-48-48 48 48 0 0 1 48-48 48 48 0 0 1 48 48z" style="fill:none;opacity:.54464;stroke-width:2.0851;stroke:url(#radialGradient14050)"/><g transform="translate(-8.1513e-8 .22298)" style="filter:url(#filter11332);opacity:.45641"><path transform="matrix(.89268 0 0 .89268 18.747 12.226)" d="m16.406 17.281a1.2188 1.2188 0 0 1-1.2188 1.2188 1.2188 1.2188 0 0 1-1.2188-1.2188 1.2188 1.2188 0 0 1 1.2188-1.2188 1.2188 1.2188 0 0 1 1.2188 1.2188z" style="fill:#f3f3f3;stroke-linecap:round;stroke-linejoin:round;stroke-width:.70106;stroke:#000"/><path d="m31.823 26.548-2.0712-4.6305" style="fill:none;stroke-linecap:round;stroke-width:.62582;stroke:#000"/><path d="m29.604 31.54 1.9214-2.7719" style="fill:none;stroke-linecap:round;stroke-width:.93873;stroke:#000"/></g><path transform="matrix(.17111 0 0 .17111 2.0941 -2.1752)" d="m225 175a48 48 0 0 1-48 48 48 48 0 0 1-48-48 48 48 0 0 1 48-48 48 48 0 0 1 48 48z" style="fill:none;opacity:.54464;stroke-width:2.0851;stroke:url(#radialGradient14056)"/><path transform="matrix(.20387 0 0 .20387 -3.7053 -7.9091)" d="m225 175a48 48 0 0 1-48 48 48 48 0 0 1-48-48 48 48 0 0 1 48-48 48 48 0 0 1 48 48z" style="fill:none;filter:url(#filter11241);opacity:.74554;stroke-width:2;stroke:url(#radialGradient14058)"/><path transform="matrix(.19389 0 0 .19389 -1.9383 -6.1621)" d="m225 175a48 48 0 0 1-48 48 48 48 0 0 1-48-48 48 48 0 0 1 48-48 48 48 0 0 1 48 48z" style="fill:none;filter:url(#filter11265);stroke-width:2;stroke:url(#radialGradient14050)"/><g transform="translate(17.839)"><path d="m11.849 21.592a0.31294 0.31294 0 0 0-0.21741 0.44039l1.9957 4.5098c-0.33668 0.25473-0.55746 0.65498-0.55746 1.1093 0 0.29863 0.09637 0.57573 0.25643 0.80274a0.46941 0.46941 0 0 0-0.03902 0.0446l-1.9065 2.7817a0.47238 0.47238 0 1 0 0.78044 0.52958l1.9065-2.7761a0.46941 0.46941 0 0 0 0.02787-0.03902c0.11804 0.0325 0.24519 0.05575 0.3735 0.05575 0.76985 0 1.3936-0.62936 1.3936-1.3992s-0.62379-1.3936-1.3936-1.3936c-0.0906 0-0.18177 0.01134-0.26758 0.02787l-2.0068-4.5043a0.31294 0.31294 0 0 0-0.15609-0.15609 0.31294 0.31294 0 0 0-0.18954-0.03345zm2.62 5.2791c0.43125 0 0.78044 0.34919 0.78044 0.78044s-0.34919 0.78044-0.78044 0.78044-0.78601-0.34919-0.78601-0.78044 0.35477-0.78044 0.78601-0.78044z" style="fill:url(#radialGradient14062)"/><path transform="matrix(.17839 0 0 .17839 -17.033 -3.6278)" d="m172.88 182.88-10.25 15.5" style="fill:none;opacity:.8;stroke:url(#radialGradient14064)"/><path transform="matrix(.17839 0 0 .17839 -17.033 -3.6278)" d="m174.12 167.88-10.875-24.75" style="fill:none;opacity:.8;stroke:url(#radialGradient14066)"/><path transform="matrix(.17086 0 0 -.17086 -15.562 58.156)" d="m223.5 176.38a46.875 46.875 0 0 1-46.875 46.875 46.875 46.875 0 0 1-46.875-46.875 46.875 46.875 0 0 1 46.875-46.875 46.875 46.875 0 0 1 46.875 46.875z" clip-path="url(#clipPath11375)" style="fill:none;filter:url(#filter11395);opacity:.45128;stroke-width:2.1357;stroke:#000"/></g></g></svg>
