<svg xmlns="http://www.w3.org/2000/svg" xmlns:xlink="http://www.w3.org/1999/xlink" width="128" height="128" version="1.1" viewBox="0 0 33.867 33.867"><defs><linearGradient id="linearGradient3351" x1="19.136" x2="31.472" y1="25.27" y2="25.27" gradientTransform="matrix(.71117 0 0 .71117 -67.298 91.118)" gradientUnits="userSpaceOnUse"><stop style="stop-color:red" offset="0"/><stop style="stop-color:#940000" offset="1"/></linearGradient><linearGradient id="linearGradient3241" x1="571.4" x2="539.43" y1="443.67" y2="394.39" gradientTransform="matrix(.058689 0 0 .058689 -71.776 80.276)" gradientUnits="userSpaceOnUse"><stop style="stop-color:#f0f" offset="0"/><stop style="stop-color:#fff" offset="1"/></linearGradient><radialGradient id="radialGradient3289" cx="290.8" cy="613.59" r="164.4" gradientTransform="matrix(-.035187 .081785 -.062691 -.026972 -6.6617 102.21)" gradientUnits="userSpaceOnUse" xlink:href="#linearGradient3257"/><linearGradient id="linearGradient3257"><stop style="stop-color:#cecece" offset="0"/><stop style="stop-color:#868686" offset="1"/></linearGradient><radialGradient id="radialGradient3281" cx="467.96" cy="366.79" r="131.9" gradientTransform="matrix(.058689 0 0 .079069 -72.48 72.186)" gradientUnits="userSpaceOnUse" xlink:href="#linearGradient3257"/></defs><g transform="matrix(1.0306 0 0 1.0306 69.297 -94.605)"><path d="m-52.679 105.09c-0.80831 3.0009 4.8889 6.4141 6.9956 7.2327 1.621-0.0377 4.6354 0.26365 5.9285-2.2528 1.4346-2.8586 1.2071-5.4798-1.7785-7.707-0.57748-2.8595 1.8728-3.9888 3.3199-5.6913-1.8181-1.0111-3.6361 0.11135-5.4542 2.2528-1.3051-1.6874-0.90773-3.8855 0.94856-6.5213-6.1777 0.8148-5.0283 3.7846-6.2842 6.047-1.2252 1.6026-2.4504 3.1874-3.6757 6.6399z" style="fill-rule:evenodd;fill:url(#radialGradient3281);stroke-width:.93902;stroke:#000"/><path d="m-59.895 115.64c-2.4729 2.5088-3.731 5.128-1.6416 8.0515h6.879c2.2243-4.733-1.02-5.0368-3.9867-3.7522 1.4074-1.2454 2.4469-2.6379 2.8141-4.2994" style="fill-rule:evenodd;fill:#4d4d4d;stroke-width:.88033;stroke:#000"/><path d="m-50.201 116.5c0.01743 2.3365-0.12443 4.5136 0.07817 7.0353l7.5043-0.0782c1.0315-4.8876-0.25266-6.119-4.2212-4.143l-1.0162-4.2212" style="fill-opacity:.75;fill-rule:evenodd;stroke-width:.88033;stroke:#000"/><path d="m-52.679 105.09c-1.863 2.357-3.868 3.2941-6.047 2.49-2.6002-3.5966-3.8557-7.1932-1.4228-10.79-3.1017 1.8395-5.1886 4.2759-2.9642 9.2484l0.71142 1.8971c-1.2853 2.9036-2.7771 5.8219 0.23714 8.4184 6.255 5.1008 16.182-1.3908 15.066-2.2528l1.4148-1.7786" style="fill-rule:evenodd;fill:url(#radialGradient3289);stroke-linejoin:round;stroke-width:.93874;stroke:#000"/><ellipse cx="-39.023" cy="105.06" rx="2.58" ry="2.501" style="fill:url(#linearGradient3241);stroke-linecap:round;stroke-width:.58316;stroke:#000"/><ellipse cx="-43.792" cy="102.21" rx=".235" ry=".743" style="fill:none;stroke-linecap:round;stroke-linejoin:round;stroke-width:.93902;stroke:#000"/><ellipse cx="-41.915" cy="102.13" rx=".235" ry=".743" style="fill:none;stroke-linecap:round;stroke-linejoin:round;stroke-width:.93902;stroke:#000"/><path d="m-44.886 94.355c-0.98391 0.92447-2.0139 1.7567-2.1888 4.2994 0.55261-0.47339 1.1474-0.77818 2.1106 0.39085-1.1049-1.4018-0.13822-3.0996 0.07817-4.6902z" style="fill-opacity:.75;fill-rule:evenodd;fill:#4d4d4d"/><path d="m-40.425 97.656c-0.91487 0.33668-1.8239 0.60877-2.842 2.0786 0.49735-0.16193 0.95899-0.21484 1.1085 0.68516-0.14966-1.0685 1.0332-1.8673 1.7335-2.7638z" style="fill-opacity:.75;fill-rule:evenodd;fill:#4d4d4d"/><path d="m-53.824 105.61c2.0213 2.5796 4.1878 5.5501 7.3747 8.1297l1.4071-1.3289c-3.3863-2.8572-5.5263-5.8165-7.7913-8.2999z" style="fill-rule:evenodd;fill:url(#linearGradient3351);stroke-width:.25236;stroke:#000"/><path d="m-62.161 115.85c-2.4729 2.5088-3.9655 5.4407-1.8761 8.3642h6.879c2.8498-5.567-0.61011-5.5833-3.9867-3.7522 1.1481-1.11 2.8092-1.9059 2.9863-4.0807" style="fill-rule:evenodd;fill:#a2a2a2;stroke-linecap:round;stroke-width:.88033;stroke:#000"/><path d="m-52.96 117.24c0.01743 2.3365-0.17971 4.2926 0.02289 6.8142l7.5043-0.0782c1.3168-4.5107 0.60268-6.8634-4.2212-4.143l-0.33558-3.7253" style="fill-rule:evenodd;fill:#a0a0a0;stroke-linecap:round;stroke-width:.88033;stroke:#000"/><ellipse cx="-43.967" cy="101.66" rx=".015" ry=".02" style="fill-rule:evenodd;fill:red;stroke-linecap:round;stroke-linejoin:round;stroke-width:.74034;stroke:#fff"/><ellipse cx="-42.161" cy="101.66" rx=".015" ry=".02" style="fill-rule:evenodd;fill:red;stroke-linecap:round;stroke-linejoin:round;stroke-width:.74034;stroke:#fff"/></g></svg>