<svg width="128" height="128" version="1.1" viewBox="0 0 33.867 33.867" xmlns="http://www.w3.org/2000/svg"><defs><mask id="mask0_4383_20931" x="303" y="432" width="418" height="334" maskUnits="userSpaceOnUse"><path d="m720.27 511.92c0 93.859-93.254 169.94-208.28 169.94-5.553 0-14.882-1.428-18.282 4.113-3.4 5.518 4.089 14.036 8.409 18.913 44.963 50.867 110.19 57.268 127.31 58.95l2.699 0.266c-151.1 14.617-328.37-81.916-328.41-249.7-0.158-27.937 7.617-55.344 22.421-79.037l162.24 147.35c11.543 10.479 30.987 10.479 42.53 0l165.31-150.15c15.367 23.692 24.055 50.699 24.055 79.351z" fill="#fff"/></mask><linearGradient id="paint8_linear_4383_20931" x1="518.7" x2="518.7" y1="606.88" y2="756.91" gradientUnits="userSpaceOnUse"><stop stop-color="#BCE0FD" offset="0"/><stop stop-color="#88CCFC" offset="1"/></linearGradient><filter id="filter0_f_4383_20931" x="302.39" y="406.88" width="413.67" height="240.08" color-interpolation-filters="sRGB" filterUnits="userSpaceOnUse"><feFlood flood-opacity="0" result="BackgroundImageFix"/><feBlend in="SourceGraphic" in2="BackgroundImageFix" result="shape"/><feGaussianBlur result="effect1_foregroundBlur_4383_20931" stdDeviation="19.3597"/></filter><linearGradient id="paint7_linear_4383_20931" x1="512" x2="512" y1="404.2" y2="762.36" gradientTransform="matrix(.039984 0 0 .039984 134.84 106.99)" gradientUnits="userSpaceOnUse"><stop stop-color="#fff" offset="0"/><stop stop-color="#BEE1FE" offset=".91"/><stop stop-color="#96CEFD" offset="1"/></linearGradient><linearGradient id="paint6_linear_4383_20931" x1="158.7" x2="246.7" y1="356.82" y2="711.01" gradientTransform="matrix(.039984 0 0 .039984 134.84 106.99)" gradientUnits="userSpaceOnUse"><stop stop-color="#EF3ACC" offset=".1"/><stop stop-color="#EF3ACC" stop-opacity="0" offset="1"/></linearGradient><linearGradient id="paint5_linear_4383_20931" x1="778.1" x2="678.21" y1="576.76" y2="822.01" gradientTransform="matrix(.039984 0 0 .039984 134.84 106.99)" gradientUnits="userSpaceOnUse"><stop stop-color="#E247C4" stop-opacity="0" offset="0"/><stop stop-color="#E247C4" stop-opacity=".64" offset="1"/></linearGradient><radialGradient id="paint4_radial_4383_20931" cx="0" cy="0" r="1" gradientTransform="matrix(9.7001 -20.122 24.856 11.982 148.92 136.56)" gradientUnits="userSpaceOnUse"><stop stop-color="#094188" offset=".02"/><stop stop-color="#0B4186" stop-opacity="0" offset=".97"/></radialGradient><linearGradient id="paint3_linear_4383_20931" x1="401.61" x2="616.43" y1="403.61" y2="164.47" gradientTransform="matrix(.039984 0 0 .039984 134.84 106.99)" gradientUnits="userSpaceOnUse"><stop stop-color="#0F5DB0" offset="0"/><stop stop-color="#0F5DB0" stop-opacity="0" offset="1"/></linearGradient><radialGradient id="paint2_radial_4383_20931" cx="0" cy="0" r="1" gradientTransform="matrix(-1.8844 -2.4122 3.9917 -3.1182 155.75 119.21)" gradientUnits="userSpaceOnUse"><stop stop-color="#EF3ACC" stop-opacity="0" offset="0"/><stop stop-color="#EF3ACC" stop-opacity=".64" offset="1"/></radialGradient><radialGradient id="paint1_radial_4383_20931" cx="0" cy="0" r="1" gradientTransform="matrix(5.7054 13.133 -12.581 5.4656 144.21 125.09)" gradientUnits="userSpaceOnUse"><stop stop-color="#0B4186" stop-opacity="0" offset=".53"/><stop stop-color="#0B4186" stop-opacity=".45" offset="1"/></radialGradient><linearGradient id="paint0_linear_4383_20931" x1="235.49" x2="832.5" y1="261.06" y2="817.92" gradientTransform="matrix(.039984 0 0 .039984 134.84 106.99)" gradientUnits="userSpaceOnUse"><stop stop-color="#1B91F3" offset="0"/><stop stop-color="#0B68CB" offset="1"/></linearGradient></defs><g transform="translate(-138.38 -111.13)"><g stroke-width=".039984"><path d="m152.41 117.39h2e-3c1.0663-3.7276 5.7126-5.5472 10.448-5.5472 3.2719 0 6.2091 1.0358 8.2226 2.6802-1.2016 0.0567-2.3881 0.29245-3.5201 0.69956 1.627 0.60475 3.0247 1.5351 4.0605 2.686-0.78148-0.1345-1.574-0.19443-2.3667-0.17901 1.9486 2.8226 2.9896 6.1726 2.9841 9.6024 0 9.3518-7.5811 16.933-16.933 16.933-9.2076 0-16.933-7.7093-16.933-16.933 0-1.4567 0.19352-2.9608 0.56941-4.3716 0.0988-0.29607 0.23611-0.58008 0.4185-0.68407 0.22835-0.13014 0.43639 0.25786 0.46978 0.38412 0.24758 0.92743 0.58072 1.8299 0.99515 2.6957-0.0363-1.9332 0.78956-3.6942 1.9255-5.2172 0.75765-1.0155 1.4601-1.9565 1.7843-4.672 0.0218-0.18236 0.19449-0.31347 0.36913-0.25637 2.4654 0.80695 3.7833 4.9124 3.5786 8.3455 1.3619 0.19497 1.3556-1.2278 1.3556-1.2278-0.43543-1.3382-0.14515-3.8254 2.5641-4.9382z" fill="url(#paint0_linear_4383_20931)"/><path d="m171.69 123.02c0.41171 9.3131-7.2443 17.343-16.58 17.343-8.7398 0-15.901-6.7553-16.549-15.329-0.11557 0.80287-0.17635 1.6127-0.18191 2.4238 0.0662 9.1738 7.7726 16.808 16.933 16.808 9.3517 0 16.933-7.5811 16.933-16.933 0-1.4901-0.19303-2.9352-0.55445-4.3121z" fill="url(#paint1_radial_4383_20931)" opacity=".9"/><path d="m154.9 118.63c-0.1824-0.32271-1.0247-0.8002-1.3928-0.8834 1.3933-4.463 8.4916-5.8331 12.836-5.0436 1.808 0.32899 4.0595 1.314 4.7446 1.8258-2.0135-1.6444-4.9511-2.6802-8.2226-2.6802-4.7349 0-9.3813 1.8195-10.448 5.5472h-7e-3c-2.7092 1.1128-2.9995 3.6009-2.5641 4.9386 0.41798-1.5961 2.4069-3.5574 5.0542-3.7044z" fill="url(#paint2_radial_4383_20931)" style="mix-blend-mode:screen"/><path d="m159.82 115.55c-3.8036 0.74842-5.0464 0.99325-6.3193 2.2032 1.4296-3.7847 5.0789-4.5521 9.4273-2.8268-1.0349 0.21331-2.0709 0.42134-3.1079 0.6241z" fill="url(#paint3_linear_4383_20931)"/><path d="m139.3 122.45c-1.0392 4.2545-0.23611 9.255 4.4848 13.451-1.4054-1.537-3.1214-7.212 0.66521-11.266 0.25498-0.27337 0.69379-0.0725 0.70779 0.30091 0.31207 8.4258 7.1109 13.572 14.949 12.61-2.4286-0.13642-10.461-2.9497-4.4857-4.0624 3.1229-0.58201 8.0194-1.494 8.0194-5.8878 0-7.1224-5.507-9.2047-8.8467-8.8951-2.2855 0.21187-4.3198 1.6623-4.9458 3.6348 0.24046 0.77744-0.71795 1.3218-1.357 1.2303 0.20516-3.4326-1.1127-7.5404-3.5786-8.3474-0.17416-0.0571-0.34738 0.074-0.36913 0.25642-0.32414 2.7155-1.0266 3.6566-1.7838 4.672-1.1365 1.5235-1.9623 3.284-1.926 5.2173-0.41439-0.86585-0.74757-1.7683-0.99515-2.6957-0.0276-0.10457-0.17901-0.39624-0.36189-0.40979-0.0991-7e-3 -0.15191 0.0895-0.17657 0.1916z" fill="url(#paint4_radial_4383_20931)"/><path d="m153.52 133.91c4.598 3.7335 13.845 0.93422 13.845-8.1432-3.733 5.6585-8.4877 9.5617-13.844 8.1432z" fill="url(#paint5_linear_4383_20931)" style="mix-blend-mode:screen"/><path d="m144.45 124.63c0.0418-0.0468 0.0944-0.0826 0.15336-0.10409 0.0589-0.0216 0.1222-0.0284 0.18433-0.0197-3.3895 4.1341-0.65553 11.394 1.2206 13.178 0.10494 0.29704-1.7799-1.2477-2.0397-1.6091-1.4272-1.211-3.4727-7.2115 0.48137-11.445z" fill="url(#paint6_linear_4383_20931)" style="mix-blend-mode:screen"/><path d="m155.31 134.25c4.599 0 8.3276-3.0421 8.3276-6.7949 0-3.7528-3.7286-6.7949-8.3276-6.7949-3.9236 0-8.3295 2.5525-8.3276 6.8941 2e-3 6.7088 7.0896 10.569 13.131 9.9841-0.45378-0.0527-3.285-0.20319-5.1984-2.3677-0.17272-0.19496-0.47221-0.53554-0.33626-0.75666 0.13546-0.2211 0.50895-0.16449 0.73055-0.16449z" fill="url(#paint7_linear_4383_20931)"/><path d="m162.73 124.37-6.5816 6.2981c-0.58396 0.41507-1.2056 0.44505-1.8191 0.0687l-6.4553-6.3436c0.18421-0.29596 0.39124-0.57713 0.61927-0.84081l0.67732 0.63378c1.6952 1.5888 3.0658 2.8723 4.9976 4.5211 0.8718 0.74405 1.1427 0.72954 1.9981 0 2.21-1.8868 3.8264-3.314 5.9275-5.1906 0.23419 0.26732 0.44678 0.55286 0.63574 0.85389z" fill="#fff" opacity=".6"/></g><g transform="matrix(.039984 0 0 .039984 134.84 106.99)" mask="url(#mask0_4383_20931)"><path d="m255.48 315.91h526.43v477.3h-526.43z" fill="url(#paint8_linear_4383_20931)" opacity=".7"/><g filter="url(#filter0_f_4383_20931)"><path d="m463.65 583.7c-30.673-31.919-122.54-137.97-122.54-137.97l7.103 0.314 143.82 107.41c10.768 7.828 26.135 7.744 36.807-0.182l141.02-107.08 7.477-0.593s-88.861 103.54-122.9 137.65c-34.036 34.11-60.124 32.38-90.797 0.46z" clip-rule="evenodd" fill="#458fcd" fill-rule="evenodd"/></g></g><path d="m156.48 117.26c0.89116-0.2806 0.81274-1.1626 0.81274-1.1626s-0.44558-0.52492-1.3285-0.23415c-0.82631 0.27236-0.95453 0.86117-0.95453 0.86117s0.45137 0.85629 1.4703 0.53553z" fill="#fff" stroke-width=".039984"/></g></svg>
