<?xml version="1.0" encoding="UTF-8"?>
<svg width="384" height="128" version="1.1" viewBox="0 0 101.6 33.867" xmlns="http://www.w3.org/2000/svg" xmlns:xlink="http://www.w3.org/1999/xlink"><defs><clipPath id="SVGID_00000124143326424118090040000000686822535870151078_"><use xlink:href="#SVGID_1_"/></clipPath><linearGradient id="SVGID_00000083796956185287615240000010885015769944861357_" x1="536.48" x2="292.82" y1="1113.2" y2="64.084" gradientTransform="matrix(1,0,0,-1,0,788)" gradientUnits="userSpaceOnUse"><stop stop-color="#24ECC6" stop-opacity="0" offset=".4799"/><stop stop-color="#24ECC6" offset=".9944"/></linearGradient><linearGradient id="SVGID_00000005978595599017039650000002259067875620926859_" x1="759.68" x2="219.42" y1="79.312" y2="1003.2" gradientTransform="matrix(1,0,0,-1,0,788)" gradientUnits="userSpaceOnUse"><stop stop-color="#ABFFEF" offset=".066012"/><stop stop-color="#CAC9FF" offset=".4499"/><stop stop-color="#6D4AFF" offset="1"/></linearGradient><rect id="SVGID_1_" width="4520" height="787"/></defs><g transform="matrix(.022482 0 0 .022482 -.00026509 8.0851)"><clipPath><use xlink:href="#SVGID_1_"/></clipPath><g clip-path="url(#SVGID_00000124143326424118090040000000686822535870151078_)"><g fill="#6d4aff"><path class="st1" d="m3909.1 150h-223.4v483.9h88.5v-120.5c0-11.7 4.7-23 13-31.3s19.5-12.9 31.2-12.9h90.7c42.2 0 82.7-16.8 112.6-46.6 29.9-29.9 46.7-70.4 46.7-112.6 0.1-21-4-41.8-11.9-61.2-8-19.4-19.7-37-34.5-51.9s-32.4-26.7-51.8-34.7c-19.4-8.1-40.2-12.2-61.1-12.2zm69.6 158.8c0 9.9-1.9 19.7-5.8 28.9-3.8 9.2-9.4 17.5-16.4 24.5s-15.4 12.6-24.5 16.3c-9.2 3.8-19 5.7-28.9 5.7h-129.4v-150.8h129.4c10 0 19.8 2 29 5.8s17.5 9.4 24.5 16.5c7 7 12.6 15.4 16.3 24.6 3.8 9.2 5.7 19.1 5.6 29z"/><path class="st1" d="m3374.9 632.1-178.3-483.5h100.7l117.3 346c4.6 12.4 7.9 25.2 9.9 38.2h1c1.4-13.2 4.8-26 9.9-38.2l117.6-346h101.3l-179.2 483.5z"/><path class="st1" d="m4101.3 632.1v-483.5h77.5l228.3 299.9c8.2 10.3 15.3 21.5 21.3 33.2h1.4c-1.5-14.6-2.3-29.2-2.2-43.9v-289.2h91.5v483.5h-77.5l-228.9-299.9c-8.1-10.4-15.2-21.5-21.2-33.2h-0.8c1.2 14.6 1.7 29.2 1.5 43.9v289.3h-90.9z"/></g><g fill="#1b1340"><path class="st2" d="m1434.2 147.2h-223.4v483.9h88.5v-120.5c0-11.7 4.7-23 12.9-31.3 8.3-8.3 19.5-12.9 31.2-12.9h90.7c42.2 0 82.7-16.8 112.6-46.6s46.6-70.4 46.6-112.6c0.1-21-4-41.8-11.9-61.2-8-19.4-19.7-37-34.5-51.9s-32.4-26.7-51.8-34.7c-19.2-8.1-39.9-12.2-60.9-12.2zm69.7 158.8c0 9.9-1.9 19.7-5.8 28.9-3.8 9.2-9.4 17.5-16.4 24.5s-15.3 12.6-24.5 16.3c-9.2 3.8-19 5.7-28.9 5.7h-129.4v-150.8h129.4c9.9 0 19.8 2 29 5.8s17.5 9.4 24.5 16.5c7 7 12.6 15.4 16.3 24.6 3.8 9.2 5.7 19.1 5.6 29z"/><path class="st2" d="m1607.4 631.3v-192c0-78.3 45.8-140.6 137.3-140.6 14.7-0.2 29.4 1.4 43.7 4.8v79c-10.4-0.7-19.9-0.7-23.6-0.7-48.5 0-69.7 22.2-69.7 67.2v182.4h-87.7z"/><path class="st2" d="m1814.6 468.3c0-96.3 72.8-169.7 174-169.7s173.9 73.5 173.9 169.7c0 96.3-72.8 170.5-173.9 170.5s-174-74.1-174-170.5zm261.3 0c0-54.7-36.7-93.6-87.3-93.6s-87.4 38.8-87.4 93.6c0 54.7 36.7 93.6 87.4 93.6s87.3-38.1 87.3-93.6z"/><path class="st2" d="m2417.5 375.4h-94.9v121.3c0 42.3 15.2 61.6 58.8 61.6 4.2 0 14.6 0 27.8-0.7v71.5c-16.7 4.8-33.9 7.3-51.3 7.6-73.5 0-123.4-44.3-123.4-128.2v-133.1h-58.8v-69.7h14.6c11.7 0 23-4.7 31.2-12.9 8.3-8.3 12.9-19.5 12.9-31.2v-66.3h88.1v110.2h94.9v69.9z"/><path class="st2" d="m2443.9 468.3c0-96.3 72.8-169.7 173.9-169.7s174 73.5 174 169.7c0 96.3-72.8 170.5-174 170.5s-173.9-74.1-173.9-170.5zm261.3 0c0-54.7-36.7-93.6-87.4-93.6s-87.3 38.8-87.3 93.6c0 54.7 36.7 93.6 87.3 93.6s87.4-38.1 87.4-93.6z"/><path class="st2" d="m2837.5 631.3v-185.5c0-86 54.8-147.6 152.5-147.6 97.8 0 151.8 62 151.8 147.6v185h-87.3v-177.7c0-47.8-21.5-77.6-64.5-77.6s-64.4 29.9-64.4 77.6v178.2z"/></g><path class="st3" d="m346.1 740.3c32.8 59.3 116.9 62.6 154 5.9l346.7-528.4c36.8-56 1.6-131.2-65-138.8l-681.4-78.1c-72.7-8.4-124.4 68.9-89.1 132.9z" clip-rule="evenodd" fill="#6d4aff" fill-rule="evenodd"/><path d="m346.1 740.3c32.8 59.3 116.9 62.6 154 5.9l346.7-528.4c36.8-56 1.6-131.2-65-138.8l-681.4-78.2c-72.6-8.3-124.4 68.9-89 132.9z" clip-rule="evenodd" fill="url(#SVGID_00000083796956185287615240000010885015769944861357_)" fill-rule="evenodd"/><path d="m396.4 638.7-30.8 46.3c-12.5 18.7-40.4 17.6-51.2-2.1l31.7 57.5c5.7 10.2 12.8 18.8 21.1 25.7 39.3 33 102.2 27.1 133-19.8l346.7-528.4c36.8-56 1.6-131.2-65-138.8l-681.5-78.2c-72.7-8.4-124.4 68.9-89.1 132.9l2.7 4.9 580.1 67.1c37 4.3 56.5 46 36 77.1z" fill="url(#SVGID_00000005978595599017039650000002259067875620926859_)"/></g></g></svg>
