<?xml version="1.0" encoding="UTF-8"?>
<svg width="128" height="128" version="1.1" viewBox="0 0 33.867 33.867" xmlns="http://www.w3.org/2000/svg"><g transform="translate(-49.664 -79.868)"><g id="Ext" transform="matrix(.11289 0 0 .11289 49.664 79.868)" fill="none" fill-rule="evenodd"><g fill="#fff"><polygon points="263.96 150.17 226.1 150.17 226.1 88.02 197.04 88.02 180.31 104.65 180.31 150.17 121.75 150.17 121.75 104.65 105.02 88.02 75.521 88.02 75.521 150.17 38.098 150.17 71.504 71.335 150.92 38.098 230.33 71.335" fill-opacity=".23559"/><path d="m75.862 87.931v127.59h22.807c8.3272 0 16.909-2.2871 23.154-8.6617l29.039-29.838 29.252 29.838c6.2454 6.3746 14.614 8.6617 22.941 8.6617h22.807v-127.59h-28.947v93.339l-46.053-46.782-45.614 46.782v-93.339z"/><path id="Shape" d="M 240.83871,59.16129 150,22 59.16129,59.16129 22,150 59.16129,240.83871 150,278 240.83871,240.83871 278,150 Z M 256.25,256.25 150,300 43.75,256.25 0,150 43.75,43.75 150,0 256.25,43.75 300,150 Z"/></g></g></g></svg>
