<svg xmlns="http://www.w3.org/2000/svg" xmlns:xlink="http://www.w3.org/1999/xlink" width="128" height="128" version="1.1" viewBox="0 0 33.867 33.867"><defs><linearGradient id="linearGradient15297-1" x1="110.97" x2="110.97" y1="976.3" y2="992.38" gradientUnits="userSpaceOnUse" xlink:href="#linearGradient10292-1-5"/><linearGradient id="linearGradient10292-1-5"><stop style="stop-color:#666" offset="0"/><stop style="stop-color:#333" offset="1"/></linearGradient><linearGradient id="linearGradient15293-1" x1="121.31" x2="121.31" y1="976.38" y2="992.42" gradientTransform="matrix(1 0 0 1.0001 0 -.10551)" gradientUnits="userSpaceOnUse" xlink:href="#linearGradient10292-1-5"/><linearGradient id="linearGradient15295-2" x1="110.97" x2="110.97" y1="976.3" y2="992.38" gradientTransform="matrix(1.004 0 0 1.0096 -1.4991 -9.3664)" gradientUnits="userSpaceOnUse" xlink:href="#linearGradient10292-1-5"/><linearGradient id="linearGradient15299-0" x1="294.34" x2="294.42" y1="256.58" y2="243.14" gradientTransform="matrix(7.979 0 0 8.0124 -2383.6 -3106.5)" gradientUnits="userSpaceOnUse"><stop style="stop-color:#b3b3b3" offset="0"/><stop style="stop-color:#e6e6e6" offset="1"/></linearGradient><linearGradient id="linearGradient15301-7" x1="209.06" x2="209.06" y1="-765.46" y2="-781.62" gradientTransform="matrix(4 0 0 4 -875 1971.9)" gradientUnits="userSpaceOnUse"><stop style="stop-color:#fff;stop-opacity:.58824" offset="0"/><stop style="stop-color:#fff;stop-opacity:.86274" offset="1"/></linearGradient><linearGradient id="linearGradient15303-1" x1="78.822" x2="144" y1="-1194.6" y2="-1194.6" gradientTransform="matrix(.37057 .37057 -.70711 .70711 -1492.7 -368.48)" gradientUnits="userSpaceOnUse" xlink:href="#linearGradient8074-1-3"/><linearGradient id="linearGradient8074-1-3"><stop style="stop-opacity:0" offset="0"/><stop offset=".493"/><stop style="stop-opacity:0" offset="1"/></linearGradient><linearGradient id="linearGradient15305-5" x1="30.744" x2="144" y1="-1194.6" y2="-1194.6" gradientTransform="matrix(.37057 .37057 -.70711 .70711 -1492.7 -351.48)" gradientUnits="userSpaceOnUse" xlink:href="#linearGradient8074-1-3"/><linearGradient id="linearGradient15307-2" x1="-17" x2="144" y1="-1194.6" y2="-1194.6" gradientTransform="matrix(.67702 0 0 .99998 -1170.1 1881.6)" gradientUnits="userSpaceOnUse" xlink:href="#linearGradient8074-1-3"/><linearGradient id="linearGradient15309-3" x1="-17" x2="144" y1="-1194.6" y2="-1194.6" gradientTransform="matrix(.34162 0 0 .99998 619.81 2262.3)" gradientUnits="userSpaceOnUse" xlink:href="#linearGradient8074-1-3"/><linearGradient id="linearGradient15311-1" x1="152" x2="113.88" y1="-1192.6" y2="-1230.8" gradientTransform="matrix(.39024 0 0 .39024 622.69 -608.23)" gradientUnits="userSpaceOnUse" xlink:href="#linearGradient7931-6-2"/><linearGradient id="linearGradient7931-6-2"><stop offset="0"/><stop style="stop-opacity:.36078" offset=".455"/><stop style="stop-opacity:0" offset="1"/></linearGradient><linearGradient id="linearGradient15313-8" x1="152" x2="113.88" y1="-1192.6" y2="-1230.8" gradientTransform="matrix(.39024 0 0 .39024 -659.32 -608.23)" gradientUnits="userSpaceOnUse" xlink:href="#linearGradient7931-6-2"/><linearGradient id="linearGradient15315-0" x1="364.87" x2="377.85" y1="300.82" y2="287.83" gradientTransform="matrix(1 0 0 -1 -1049 -880.59)" gradientUnits="userSpaceOnUse"><stop offset="0"/><stop style="stop-opacity:0" offset="1"/></linearGradient><linearGradient id="linearGradient15317-0" x1="30.744" x2="144" y1="-1194.6" y2="-1194.6" gradientTransform="matrix(.37057 .37057 -.70711 .70711 -1494.7 -346.48)" gradientUnits="userSpaceOnUse" xlink:href="#linearGradient8074-1-3"/><linearGradient id="linearGradient15319-5" x1="-17" x2="144" y1="-1194.6" y2="-1194.6" gradientTransform="matrix(.52172 0 0 1 -674.13 121.99)" gradientUnits="userSpaceOnUse" xlink:href="#linearGradient8074-1-3"/></defs><g transform="matrix(.26461 0 0 .26461 186.55 315.06)"><g><g transform="translate(-642 -24.01) matrix(7.9997 0 0 7.9969 -938.97 -8974.6)" style="fill:url(#linearGradient15297-1)"><path d="m111 977.12v14.502c5e-5 0.52364 0.22641 0.74996 0.74999 0.75001h11.5c0.52358-5e-5 0.74994-0.22637 0.74999-0.75001v-8.9809c6e-3 -0.26409-0.0975-0.52903-0.28125-0.71883l-5.2704-5.2707c-0.18978-0.18372-0.45469-0.2874-0.71875-0.28128h-5.9796c-0.51898 0-0.75228 0.43576-0.74999 0.75001z" style="color:#000;fill:url(#linearGradient15293-1);text-decoration-line:none;text-indent:0;text-transform:none"/><path d="m120.33 976.38c-0.33282 0.10664-0.44483 0.61349-0.18825 0.85184l3.012 3.0288c0.27825 0.26531 0.83246 0.0383 0.84712-0.34705v-3.0288c-3e-5 -0.26431-0.23916-0.50477-0.502-0.5048h-3.012c-0.0519-8e-3 -0.105-8e-3 -0.15687 0z" style="color:#000;fill:url(#linearGradient15295-2);text-decoration-line:none;text-indent:0;text-transform:none"/></g><path d="m-45-1160.6v2 112 2h2 87.998 2v-2-70-0.8752l-0.62496-0.6248-41.749-42-0.49996-0.5h-0.875-46.249z" transform="translate(-642 -24.01)" style="color:#000;fill:url(#linearGradient15299-0);text-decoration-line:none;text-indent:0;text-transform:none"/><path d="m-41-1156.6h42.234l41.764 42v66h-83.997z" transform="translate(-642 -24.01)" style="fill:url(#linearGradient15301-7)"/></g><path d="m-618.3-1183.5 23.662 23.662-0.7072 0.7072-23.662-23.662z" style="color:#000;fill:url(#linearGradient15303-1);opacity:.25"/><path d="m-636.3-1184.5 41.662 41.662-0.7072 0.7072-41.662-41.662z" style="color:#000;fill:url(#linearGradient15305-5);opacity:.25"/><rect width="109" height="1" x="-1181.6" y="687" transform="rotate(90)" style="color:#000;fill:url(#linearGradient15307-2);opacity:.25"/><rect width="55" height="1" x="614" y="1067.6" transform="scale(-1)" style="color:#000;fill:url(#linearGradient15309-3);opacity:.25"/><rect width="32" height="32" x="650" y="-1105.6" transform="scale(-1,1)" style="color:#000;fill:url(#linearGradient15311-1);opacity:.15"/><rect width="32" height="32" x="-632" y="-1105.6" style="color:#000;fill:url(#linearGradient15313-8);opacity:.15"/><path d="m-684-1156.6v-24-1h1 24v1h-24v24z" style="color:#000;fill:url(#linearGradient15315-0);opacity:.1"/><path d="m-638.3-1179.5 41.662 41.662-0.7072 0.7072-41.662-41.662z" style="color:#000;fill:url(#linearGradient15317-0);opacity:.1"/><rect width="83.997" height="1" x="-683" y="-1072.6" style="color:#000;fill:url(#linearGradient15319-5);opacity:.2"/></g></svg>