<svg width="100" height="100" viewBox="0 0 100 100" fill="none" xmlns="http://www.w3.org/2000/svg">
<path d="M39.7459 10.5014C45.3691 4.74253 54.6309 4.74253 60.2541 10.5014V10.5014C62.9924 13.3057 66.7598 14.8662 70.679 14.8195V14.8195C78.7273 14.7236 85.2764 21.2727 85.1805 29.321V29.321C85.1338 33.2402 86.6943 37.0076 89.4986 39.7459V39.7459C95.2575 45.3691 95.2575 54.6309 89.4986 60.2541V60.2541C86.6943 62.9924 85.1338 66.7598 85.1805 70.679V70.679C85.2764 78.7273 78.7273 85.2764 70.679 85.1805V85.1805C66.7598 85.1338 62.9924 86.6943 60.2541 89.4986V89.4986C54.6309 95.2575 45.3691 95.2575 39.7459 89.4986V89.4986C37.0076 86.6943 33.2402 85.1338 29.321 85.1805V85.1805C21.2727 85.2764 14.7236 78.7273 14.8195 70.679V70.679C14.8662 66.7598 13.3057 62.9924 10.5014 60.2541V60.2541C4.74253 54.6309 4.74253 45.3691 10.5014 39.7459V39.7459C13.3057 37.0076 14.8662 33.2402 14.8195 29.321V29.321C14.7236 21.2727 21.2727 14.7236 29.321 14.8195V14.8195C33.2402 14.8662 37.0076 13.3057 39.7459 10.5014V10.5014Z" fill="#534600"/>
<path d="M59.3715 32.9329C61.3042 33.0645 63.1237 33.8918 64.4934 35.2617C65.8631 36.6315 66.6901 38.4512 66.8215 40.3839C66.9404 42.1305 67.6282 43.7901 68.7795 45.1089C70.0532 46.5685 70.7551 48.4401 70.7551 50.3774C70.7551 52.3146 70.0532 54.1862 68.7795 55.6459C67.6283 56.965 66.941 58.625 66.8225 60.3719C66.6909 62.3045 65.8636 64.1241 64.4937 65.4937C63.1239 66.8634 61.3042 67.6905 59.3715 67.8219C57.6246 67.9406 55.9646 68.6283 54.6455 69.7799C53.186 71.0538 51.3143 71.7557 49.377 71.7557C47.4397 71.7557 45.5681 71.0538 44.1085 69.7799C42.7896 68.6289 41.13 67.9415 39.3835 67.8229C37.4509 67.6912 35.6313 66.8639 34.2616 65.494C32.892 64.1242 32.0649 62.3045 31.9335 60.3719C31.8148 58.6249 31.1271 56.9649 29.9755 55.6459C28.7018 54.1862 28 52.3146 28 50.3774C28 48.4401 28.7018 46.5685 29.9755 45.1089C31.1265 43.7899 31.8138 42.1303 31.9325 40.3839C32.0642 38.4512 32.8915 36.6316 34.2613 35.262C35.6312 33.8923 37.4508 33.0652 39.3835 32.9339C41.1305 32.8151 42.7904 32.1273 44.1095 30.9759C45.5691 29.7019 47.4407 29 49.378 29C51.3153 29 53.187 29.7019 54.6465 30.9759C55.9655 32.1268 57.625 32.8141 59.3715 32.9329Z" fill="url(#paint0_radial_409_372)"/>
<path fill-rule="evenodd" clip-rule="evenodd" d="M71.3775 61.7699C71.3775 67.0919 67.1455 71.4429 61.8075 71.7519V71.7699H61.3075C61.2352 71.7707 61.1629 71.7707 61.0905 71.7699H47.8805C47.8305 71.7705 47.7805 71.7705 47.7305 71.7699H47.3755V71.7569C44.0255 71.5379 41.3775 68.7998 41.3775 65.4538C41.3775 61.9658 44.2555 59.1379 47.8055 59.1379C49.0375 59.1379 50.1895 59.4789 51.1675 60.0689C51.9895 55.3569 56.1675 51.7699 61.1995 51.7699C66.8195 51.7699 71.3775 56.2469 71.3775 61.7699Z" fill="url(#paint1_radial_409_372)" fill-opacity="0.95"/>
<defs>
<radialGradient id="paint0_radial_409_372" cx="0" cy="0" r="1" gradientUnits="userSpaceOnUse" gradientTransform="translate(35.7395 36.4599) rotate(54.3177) scale(26.7289 26.7151)">
<stop offset="0.016" stop-color="#FFBB29"/>
<stop offset="0.393" stop-color="#FCB224"/>
<stop offset="0.967" stop-color="#E47100"/>
</radialGradient>
<radialGradient id="paint1_radial_409_372" cx="0" cy="0" r="1" gradientUnits="userSpaceOnUse" gradientTransform="translate(71.3775 79.2699) rotate(-132.879) scale(28.6575 68.8231)">
<stop stop-color="#B9B4AE"/>
<stop offset="1" stop-color="white"/>
</radialGradient>
</defs>
</svg>
