<?xml version="1.0" encoding="UTF-8"?>
<svg version="1.1" viewBox="0 0 1024 1024" xmlns="http://www.w3.org/2000/svg"><path d="m861.36 256.91c18.221 48.437-79.259 166.2-172.18 196.42-168.08-58.215-173.55 39.55-311.11 132.43 162.61 112.43 332.97 24.886 329.78-85.767-128 73.325-208.17 81.324-254.17 79.103 154.87-30.664 322.04-125.76 357.07-165.76 0.032202 1.775 0.049863 3.5523 0.049863 5.3346 0 191.09-295.17 474.61-295.17 474.61s-154.51-147.95-239.95-302.47c-11.944-0.16144-83.823 25.963-110.33-9.0514-29.608-39.105 80.169-170.2 175.37-209.31 170.36 77.326 263.74-123.1 317.03-134.21-158.97-94.214-316.12-55.549-333.88 84.435 88.368-50.217 196.78-78.658 246.88-76.435-140.76 28.762-302 132.88-350.28 172.43 0-159.04 132.15-287.97 295.17-287.97 96.402 0 182.01 45.086 235.87 114.83 0.00335 0 96.188-31.283 109.85 11.379zm-33.706 14.219c-12.661-17.229-56.734 2.8937-56.734 2.8937 6.1678 10.345 11.7 21.096 16.535 32.208 4.8995 11.262 9.0867 22.895 12.504 34.838 0 0 45.004-46.386 27.694-69.94zm-629.57 294.38c13.686 18.619 61.326-3.1309 61.326-3.1309-6.6717-11.18-12.648-22.803-17.876-34.814-5.2966-12.173-9.8214-24.745-13.517-37.655 0 0-48.643 50.14-29.933 75.599z" fill="#006c35"/></svg>
