<?xml version="1.0" encoding="UTF-8"?>
<svg viewBox="0 0 999.98 999.98" xmlns="http://www.w3.org/2000/svg"><linearGradient id="a" x1="502.06" x2="499.52" y1="5e-6" y2="1000.2" gradientUnits="userSpaceOnUse"><stop stop-color="#ffa033" offset="0"/><stop stop-color="#f80" offset="1"/></linearGradient><path d="m598.33 913.71-84.95 80.979a19.593 19.593 0 0 1-26.784 0l-84.947-80.978c-207.9-45.1-363.67-230.09-363.67-451.55 0-255.24 206.85-462.15 462.01-462.15s462.01 206.92 462.01 462.15c0 221.47-155.77 406.45-363.67 451.55zm-98.318-715.65c-145.79 0-263.97 118.21-263.97 264.04s118.18 264.04 263.97 264.04 263.98-118.22 263.98-264.04-118.19-264.04-263.98-264.04z" fill="url(#a)" fill-rule="evenodd"/></svg>
