<?xml version="1.0" encoding="UTF-8"?>
<svg width="128" height="128" version="1.1" viewBox="0 0 33.867 33.867" xmlns="http://www.w3.org/2000/svg"><defs><filter id="filter4433" x="-.095962" y="-.10909" width="1.1919" height="1.2636" color-interpolation-filters="sRGB"><feFlood flood-color="rgb(0,0,0)" flood-opacity=".2" result="flood"/><feComposite in="flood" in2="SourceGraphic" operator="in" result="composite1"/><feGaussianBlur in="composite1" result="blur" stdDeviation="4"/><feOffset dx="0" dy="4" result="offset"/><feComposite in="SourceGraphic" in2="offset" result="composite2"/></filter><radialGradient id="radialGradient4453" cx=".56012" cy=".35701" r="88" gradientTransform="matrix(.0002015 .32873 -.3322 .00020362 2.4877 1.6458)" gradientUnits="userSpaceOnUse"><stop stop-color="#fff" stop-opacity=".1" offset="0"/><stop stop-color="#fff" stop-opacity="0" offset="1"/></radialGradient></defs><circle cx="15.715" cy="17.542" r="0" fill="#ff5252" stroke-width=".28222"/><circle transform="matrix(.15228 0 0 .15228 2.3146 1.7055)" cx="96" cy="96" r="88" fill="#ff7575" filter="url(#filter4433)"/><path transform="matrix(.15228 0 0 .15228 2.3146 1.7055)" d="M 184,96 A 88,88 0 0 1 96.123,184 88,88 0 0 1 8,96.246" fill="#cc4242" filter="url(#filter4433)"/><ellipse transform="matrix(.15228 0 0 .15228 2.3146 1.7055)" cx="96" cy="96" rx="88" ry="87" fill="#cd201f" filter="url(#filter4433)"/><circle cx="16.934" cy="16.328" r="13.4" fill="url(#radialGradient4453)" fill-rule="evenodd" stroke-width=".28222"/><path transform="matrix(.15228 0 0 .15228 2.3146 1.7055)" d="m62.038 154.85 17.847-11.376 0.3733-75.406 45.925 27.267-33.233 19.163v21.928l69.034-41.091-100.04-58.795z" fill="#fff" fill-rule="evenodd" filter="url(#filter4433)"/></svg>
