<?xml version="1.0" encoding="UTF-8"?>
<svg width="120.74" height="128" version="1.1" viewBox="0 0 113.19 120" xmlns="http://www.w3.org/2000/svg" xmlns:xlink="http://www.w3.org/1999/xlink"><defs><filter id="filter4433" x="-.095961" y="-.081143" width="1.1919" height="1.1961" color-interpolation-filters="sRGB"><feFlood flood-color="rgb(0,0,0)" flood-opacity=".2" result="flood"/><feComposite in="flood" in2="SourceGraphic" operator="in" result="composite1"/><feGaussianBlur in="composite1" result="blur" stdDeviation="4"/><feOffset dx="0" dy="4" result="offset"/><feComposite in="SourceGraphic" in2="offset" result="composite2"/></filter><radialGradient id="radialGradient4453" cx=".56012" cy=".35701" r="88" gradientTransform="matrix(.00071396 1.1648 -1.1771 .0007215 5.4098 5.8316)" gradientUnits="userSpaceOnUse"><stop stop-color="#fff" stop-opacity=".1" offset="0"/><stop stop-color="#fff" stop-opacity="0" offset="1"/></radialGradient></defs><g><circle cx="52.278" cy="62.158" r="0" fill="#ff5252"/><circle transform="matrix(.53957 0 0 .53957 4.7963 6.0432)" cx="96" cy="96" r="88" fill="#ff7575" filter="url(#filter4433)"/><path transform="matrix(.53957 0 0 .53957 4.7963 6.0432)" d="m184 96a88 88 0 0 1-87.877 88 88 88 0 0 1-88.123-87.754" fill="#cc4242" filter="url(#filter4433)"/><ellipse transform="matrix(.53957 0 0 .53957 4.7963 6.0432)" cx="96" cy="96" rx="88" ry="87" fill="#cd201f" filter="url(#filter4433)"/><circle cx="56.596" cy="57.854" r="47.482" fill="url(#radialGradient4453)" fill-rule="evenodd"/><path transform="matrix(.53957 0 0 .53957 4.7963 6.0432)" d="m62.038 154.85 17.847-11.376 0.3733-75.406 45.925 27.267-33.233 19.163v21.928l69.034-41.091-100.04-58.795z" fill="#fff" fill-rule="evenodd" filter="url(#filter4433)"/></g></svg>
