<?xml version="1.0" encoding="UTF-8"?>
<svg width="128" height="128" version="1.1" viewBox="0 0 33.867 33.867" xmlns="http://www.w3.org/2000/svg"><defs><linearGradient id="grd1" x1="138.28" x2="522.49" y1="555.66" y2="480.98" gradientTransform="matrix(.15646 0 0 .15646 -23.931 -20.327)" gradientUnits="userSpaceOnUse"><stop stop-color="#8b1010" offset=".16"/><stop stop-color="#f84330" offset="1"/></linearGradient><linearGradient id="grd2" x1="353.4" x2="321.48" y1="835.89" y2="986.11" gradientTransform="matrix(.15646 0 0 .15646 -23.931 -20.327)" gradientUnits="userSpaceOnUse"><stop stop-color="#493b32" offset=".174"/><stop stop-color="#dbccc4" offset=".61"/></linearGradient><linearGradient id="grd3" x1="300.21" x2="861.41" y1="432.36" y2="323.28" gradientTransform="matrix(.15646 0 0 .15646 -23.931 -20.327)" gradientUnits="userSpaceOnUse"><stop stop-color="#8b1010" offset=".16"/><stop stop-color="#f84330" offset="1"/></linearGradient><linearGradient id="grd4" x1="553.25" x2="504.22" y1="62.95" y2="372.54" gradientTransform="matrix(.15646 0 0 .15646 -23.931 -20.327)" gradientUnits="userSpaceOnUse"><stop stop-color="#493b32" offset=".174"/><stop stop-color="#dbccc4" offset=".61"/></linearGradient><linearGradient id="grd5" x1="557.28" x2="503.26" y1="360.48" y2="701.52" gradientTransform="matrix(.15646 0 0 .15646 -23.931 -20.327)" gradientUnits="userSpaceOnUse"><stop stop-color="#493b32" offset=".174"/><stop stop-color="#dbccc4" offset=".61"/></linearGradient></defs><g transform="matrix(.26458 0 0 .26458 1.727e-5 -1.8812e-6)" stroke-width=".15646"><path id="Vertical Pipe" class="shp0" d="m24.327 4.2111s1.1437-0.85742 3.1762-1.9918c1.1422-0.49129 2.566-0.99667 4.1901-1.4504 1.7086-0.35674 3.608-0.62429 5.5685-0.76823 2.0043-0.010952 4.0336 0.11578 5.9409 0.36769 1.8979 0.38646 3.6472 0.87463 5.121 1.3941 2.8398 1.3331 4.6297 2.4486 4.6297 2.4486v117.33h-28.627v-117.33z" fill="url(#grd1)"/><path id="Vertical Pipe Hole" class="shp1" d="m38.655 128c-7.9608 0-14.395-2.5879-14.395-5.7891s6.4338-5.7891 14.395-5.7891 14.395 2.5879 14.395 5.7891-6.4338 5.7891-14.395 5.7891z" fill="url(#grd2)"/><path id="Curved Pipe" class="shp2" d="m62.141 25.435s0-1.5083-0.02503-3.4813c-0.02191-0.88715-0.05163-1.8619-0.08606-2.8586-0.03442-0.97477-0.06728-2.0215-0.09388-3.1058-0.01408-1.1578-0.01252-2.4205 0.0063-3.7285 0.04068-1.4551 0.1017-2.9712 0.17524-4.4091 0.21592-3.3155 0.41932-5.894 0.41932-5.894s2.2828-0.18932 6.1396-0.22531c0.92939 0.059456 1.9448 0.15333 3.0323 0.28946 1.0874 0.13612 2.2468 0.31449 3.4657 0.54136 1.175 0.30354 2.397 0.67279 3.6565 1.1093 1.258 0.43653 2.5535 0.94191 3.8725 1.5161 1.247 0.67592 2.505 1.4332 3.7645 2.2703 1.258 0.83708 2.5159 1.754 3.7645 2.7506 1.1735 1.0749 2.3266 2.2296 3.45 3.4625 1.0671 1.2799 2.0997 2.6333 3.087 4.0555 0.92626 1.4661 1.8025 2.9947 2.6223 4.5812 0.75103 1.621 1.4426 3.292 2.0669 5.0053 0.55075 1.7383 1.0327 3.511 1.4395 5.3072 0.33014 1.8103 0.58361 3.6378 0.75885 5.47 0.0939 1.8337 0.10796 3.6644 0.0422 5.4825-0.14864 1.8071-0.37707 3.594-0.68531 5.3479-0.38959 1.7336-0.85741 3.4281-1.3988 5.0741-0.62272 1.6131-1.3174 3.1731-2.0778 4.672-0.83864 1.4567-1.7383 2.8492-2.6927 4.1682-1.028 1.272-2.106 2.4706-3.2231 3.5893-1.2188 1.0452-2.4674 2.0106-3.7363 2.8961-1.2674 0.88558-2.5535 1.6914-3.8459 2.4174-1.4003 0.62742-2.7913 1.1844-4.1557 1.6726-1.3675 0.48816-2.7084 0.90749-4.0117 1.2611-1.3753 0.27694-2.6943 0.50381-3.9382 0.68531-1.2454 0.18306-2.4174 0.32075-3.4985 0.41932-2.2765 0.06415-4.0993 0.07197-5.3526 0.06415-1.2533-0.0078-1.937-0.03129-1.937-0.03129s0.05007-1.5067 0.11422-3.619c0.0266-1.0076 0.05476-2.1608 0.07823-3.3812 0.01721-1.2251 0.0266-2.555 0.0266-3.9304-0.01252-1.441-0.03755-2.9712-0.0751-4.503-0.0532-1.646-0.11891-3.3014-0.18776-4.8222-0.18306-3.3593-0.33952-5.8642-0.33952-5.8642s1.0859 0.06258 2.9086 0.07667c0.87306-0.03442 1.901-0.11578 3.0323-0.2566 1.0812-0.19088 2.2421-0.46157 3.4344-0.823 1.1156-0.42402 2.2359-0.9513 3.3217-1.5787 0.50538-0.33796 0.99667-0.70252 1.4708-1.0905 0.44436-0.40368 0.8715-0.83238 1.2736-1.2814 0.37082-0.46313 0.7166-0.9466 1.0327-1.4488 0.28476-0.5132 0.53823-1.0436 0.76041-1.5881 0.18776-0.55075 0.34109-1.1156 0.46-1.6867 0.08449-0.57735 0.13299-1.1594 0.14551-1.7446-0.0219-0.58674-0.08136-1.1735-0.17524-1.7571-0.12986-0.58048-0.29415-1.1563-0.49129-1.7211-0.23313-0.56014-0.49755-1.1093-0.79327-1.6444-0.32857-0.52572-0.68531-1.0358-1.0686-1.5255-0.41619-0.48034-0.85429-0.93878-1.3127-1.3769-0.48816-0.42402-0.99354-0.82456-1.513-1.2016-1.1171-0.71034-2.2718-1.3237-3.4187-1.8337-1.2298-0.45531-2.4252-0.81987-3.5423-1.0968-1.1688-0.23313-2.2296-0.39742-3.1324-0.50694-1.8869-0.13925-3.0135-0.16898-3.0135-0.16898z" fill="url(#grd3)"/><path id="Curved Pipe Upper Hole" class="shp3" d="m63.121 25.673c-3.5157 0-6.3587-5.3338-6.3587-11.93 0-6.598 2.8429-11.932 6.3587-11.932s6.3587 5.3338 6.3587 11.932c0 6.5965-2.8429 11.93-6.3587 11.93z" fill="url(#grd4)"/><path id="Curved Pipe Bottom Hole" class="shp4" d="m63.36 75.898c-3.5157 0-6.3587-5.8752-6.3587-13.143s2.8429-13.143 6.3587-13.143c3.5173 0 6.3587 5.8752 6.3587 13.143s-2.8414 13.143-6.3587 13.143z" fill="url(#grd5)"/></g></svg>
