<?xml version="1.0" encoding="UTF-8"?>
<svg width="128" height="128" version="1.1" viewBox="0 0 33.867 33.867" xmlns="http://www.w3.org/2000/svg"><defs><linearGradient id="a" x1="31.064" x2="45.126" y1="56.825" y2="56.825" gradientTransform="scale(1.0331 .96797)" gradientUnits="userSpaceOnUse"><stop stop-color="#FFF" offset="0"/><stop stop-color="#F4F4F4" offset="1"/></linearGradient></defs><g transform="matrix(.43756 0 0 .43756 1.2096 2.8221)" fill="none" fill-rule="evenodd"><circle cx="32.25" cy="32.25" r="32.25" stroke="#a4a7ad" stroke-width="5.529"/><circle cx="69.106" cy="61.735" r="5.529" fill="#a4a7ad" fill-rule="nonzero"/><path d="m52.142 26.87-1.448-3.855 1.006-2.215a0.747 0.747 0 0 0-0.157-0.84l-2.736-2.715a4.483 4.483 0 0 0-4.591-1.047l-0.765 0.26-3.997-4.48h-14.697l-3.945 4.534-0.744-0.257a4.494 4.494 0 0 0-4.635 1.058l-2.785 2.765a0.592 0.592 0 0 0-0.124 0.67l1.051 2.298-1.44 3.853 0.932 3.474 4.247 15.832a8.055 8.055 0 0 0 3.182 4.519s5.156 3.566 10.244 6.804c0.448 0.285 0.916 0.494 1.418 0.486 0.502 7e-3 0.97-0.201 1.416-0.487a377.05 377.05 0 0 0 10.236-6.817 8.07 8.07 0 0 0 3.177-4.523l4.227-15.84 0.928-3.478z" fill="#fb542b"/><path d="m47.622 27.635-0.066 0.206-0.105 0.37c-0.424 0.502-0.864 0.991-1.319 1.466l-4.082 4.255c-0.444 0.462-0.695 1.043-0.442 1.627l0.551 1.331c0.253 0.584 0.278 1.551 0.035 2.2a3.922 3.922 0 0 1-1.227 1.689l-0.426 0.34c-0.503 0.402-1.393 0.507-1.979 0.234l-1.88-0.874a9.75 9.75 0 0 1-1.941-1.268l-1.779-1.568a0.798 0.798 0 0 1-0.044-1.162l4.333-2.865c0.537-0.355 0.821-1.012 0.516-1.573l-1.54-2.747c-0.306-0.56-0.428-1.305-0.272-1.655s0.78-0.82 1.387-1.045l5.029-1.832c0.606-0.225 0.574-0.457-0.072-0.517l-3.213-0.234c-0.646-0.06-1.12 0.032-1.744 0.203l-2.432 0.59c-0.625 0.171-0.757 0.822-0.64 1.446l1.004 5.334c0.117 0.624 0.175 1.253 0.128 1.398-0.047 0.144-0.603 0.377-1.236 0.518l-0.831 0.184c-0.633 0.141-1.669 0.147-2.303 0.015l-1.006-0.21c-0.635-0.132-1.192-0.359-1.239-0.503-0.048-0.144 9e-3 -0.774 0.127-1.398l0.997-5.335c0.117-0.624-0.016-1.275-0.641-1.445l-2.433-0.587c-0.624-0.17-1.098-0.26-1.744-0.201l-3.213 0.237c-0.646 0.06-0.678 0.292-0.071 0.517l5.031 1.826c0.607 0.224 1.231 0.694 1.388 1.044s0.035 1.094-0.269 1.654l-1.538 2.749c-0.304 0.56-0.019 1.217 0.519 1.572l4.336 2.861a0.799 0.799 0 0 1-0.042 1.162l-1.778 1.57c-0.594 0.5-1.245 0.926-1.94 1.27l-1.878 0.877c-0.586 0.273-1.476 0.169-1.979-0.231l-0.426-0.34a3.98 3.98 0 0 1-1.25-1.741c-0.223-0.596-0.2-1.562 0.052-2.147l0.55-1.331c0.252-0.585 1e-3 -1.165-0.444-1.627l-4.087-4.25a31.971 31.971 0 0 1-1.32-1.464l-0.106-0.37-0.066-0.207c-7e-3 -0.238 0.08-0.995 0.179-1.2 0.098-0.204 0.476-0.802 0.839-1.328l0.874-1.268c0.364-0.526 0.991-1.362 1.395-1.86l1.282-1.574c0.404-0.496 0.749-0.9 0.801-0.897 2e-3 -3e-3 0.525 0.093 1.162 0.212l1.942 0.365c0.636 0.12 1.339 0.251 1.561 0.292 0.221 0.041 0.908-0.085 1.525-0.281l1.396-0.443c0.687-0.216 1.38-0.407 2.08-0.575l0.489 7e-3 0.488-7e-3c0.7 0.166 1.393 0.357 2.08 0.571l1.398 0.442c0.617 0.195 1.303 0.321 1.525 0.28l1.288-0.243 0.272-0.052 1.942-0.367c0.636-0.12 1.159-0.216 1.197-0.213 0.017-3e-3 0.361 0.4 0.766 0.897l1.284 1.572c0.486 0.604 0.952 1.224 1.398 1.858l0.876 1.266c0.363 0.526 0.931 1.482 0.967 1.7 0.036 0.217 0.06 0.59 0.054 0.827zm-15.271 12.696c0.057 0 0.594 0.198 1.193 0.441l0.556 0.226c0.599 0.243 1.563 0.677 2.141 0.964l1.64 0.816c0.578 0.287 0.62 0.825 0.092 1.195l-1.399 0.98c-0.633 0.45-1.247 0.926-1.842 1.426l-0.465 0.397-1.3 1.111c-0.484 0.415-1.269 0.416-1.744 6e-3 -0.58-0.502-1.163-1.001-1.749-1.497a28.88 28.88 0 0 0-1.847-1.414l-1.394-0.964c-0.53-0.367-0.493-0.907 0.082-1.2l1.649-0.841c0.7-0.351 1.412-0.677 2.135-0.977l0.556-0.226c0.598-0.243 1.135-0.443 1.192-0.443z" fill="url(#a)"/></g></svg>
