<?xml version="1.0" encoding="UTF-8"?>
<svg width="128" height="128" version="1.1" viewBox="0 0 33.867 33.867" xmlns="http://www.w3.org/2000/svg"><g transform="matrix(.16306 0 0 .16306 -7.3167e-8 3.5791)" fill="none" fill-rule="evenodd"><g transform="translate(42.5)"><circle cx="60" cy="60" r="60" fill="#de5833" fill-rule="nonzero"/><path d="m110.8 38.5c-2.8-6.6-6.8-12.5-11.8-17.5-5.1-5.1-11-9-17.5-11.8-6.8-2.9-14-4.3-21.5-4.3-7.4 0-14.7 1.5-21.5 4.3-6.6 2.7-12.5 6.7-17.5 11.8-5.1 5.1-9 11-11.8 17.5-2.9 6.8-4.3 14-4.3 21.5s1.5 14.7 4.3 21.5c2.8 6.6 6.8 12.5 11.8 17.5 5.1 5.1 11 9 17.5 11.8 6.8 2.9 14 4.3 21.5 4.3 7.4 0 14.7-1.5 21.5-4.3 6.5-2.8 12.4-6.8 17.5-11.8 5.1-5.1 9-11 11.8-17.5 2.9-6.8 4.3-14 4.3-21.5s-1.4-14.7-4.3-21.5zm-38.8 71c-3.2-5.4-11.6-20.5-11.6-31.7 0-25.8 17.3-3.7 17.3-24.3 0-4.9-2.4-22.1-17.4-25.7-3.7-4.9-12.4-9.6-26.2-7.7 0 0 2.3 0.7 4.9 2 0 0-5 0.7-5.2 4.1 0 0 9.9-0.5 15.5 1.3-12.9 1.7-19.5 8.5-18.3 20.8 1.7 17.5 9.1 48.7 11.7 59.6-19.6-7-33.7-25.8-33.7-47.9 0-28.1 22.8-51 51-51s51 22.8 51 51c-0.1 24-16.7 44.1-39 49.5z" fill="#fff" fill-rule="nonzero"/><path d="m57.2 68.3c0-6.6 9-8.7 12.4-8.7 9.2 0 22.2-5.9 25.4-5.8 3.3 0.1 5.4 1.4 5.4 2.9 0 2.2-18.4 10.5-25.5 9.8-6.8-0.6-8.4 0.1-8.4 2.9 0 2.4 4.9 4.6 10.3 4.6 8.1 0 16-3.6 18.4-1.9 2.1 1.5-5.5 6.9-14.2 6.9s-23.8-4.1-23.8-10.7z" fill="#fed30a"/><g fill-rule="nonzero"><g fill="#2d4f8d"><path d="m73.2 40.3c-2.4-3.1-6.7-3.2-8.2 0.4 2.3-1.8 5.1-2.2 8.2-0.4zm-26.7 0.1c-3.3-2-8.8-2.2-8.5 4.1 1.6-3.9 3.8-4.6 8.5-4.1zm24.7 5.8c-1.8 0-3.3 1.5-3.3 3.3s1.5 3.3 3.3 3.3 3.3-1.5 3.3-3.3-1.5-3.3-3.3-3.3zm1.2 3.1c-0.5 0-1-0.4-1-1 0-0.5 0.4-1 1-1s1 0.4 1 1c-0.1 0.5-0.5 1-1 1zm-26.8-1.3c-2.1 0-3.8 1.7-3.8 3.8s1.7 3.8 3.8 3.8 3.8-1.7 3.8-3.8-1.7-3.8-3.8-3.8zm1.4 3.5c-0.6 0-1.1-0.5-1.1-1.1s0.5-1.1 1.1-1.1 1.1 0.5 1.1 1.1-0.5 1.1-1.1 1.1z"/></g><g fill="#d5d7d8"><path d="m37.3 31.8c-4.8 3.5-7 8.9-6.3 16.5 1.7 17.5 9.1 48.8 11.7 59.7l2.7 0.9c-1.6-6.6-9.3-38.8-12.7-63.5-0.9-6.6 1.7-10.5 4.6-13.6zm11.9-4.3c0.4 0 0.7-0.1 0.7-0.1-5.2-2.5-13.4-2.6-15.6-2.6-0.2 0.4-0.4 0.9-0.4 1.4-0.1 0.1 9.6-0.5 15.3 1.3zm-9.4-5.4c-1.6-1.1-2.9-1.8-3.7-2.2-0.7 0.1-1.3 0.1-2 0.2 0 0 2.3 0.7 4.9 2h-0.2z"/></g><path d="m80.1 88.6c-1.7-0.4-8.3 4.3-10.8 6.1-0.1-0.5-0.2-0.9-0.3-1.1-0.3-1-6.7-0.4-8.2 1.2-4-1.9-12-5.6-12.1-3.3-0.3 3 0 15.5 1.6 16.4 1.2 0.7 8-3 11.4-4.9h0.1c2.1 0.5 6 0 7.4-0.9 0.2-0.1 0.3-0.3 0.4-0.5 3.1 1.2 9.8 3.6 11.2 3.1 1.8-0.5 1.4-15.6-0.7-16.1z" fill="#67bd47"/><path d="m61.8 103c-2.1-0.4-1.4-2.5-1.4-7.4-0.5 0.3-0.9 0.7-0.9 1.1 0 4.9-0.8 7.1 1.4 7.4 2.1 0.5 6 0 7.6-0.9 0.3-0.2 0.4-0.5 0.5-1-1.5 0.9-5.2 1.3-7.2 0.8z" fill="#43a347"/></g></g><g fill="#fff" fill-rule="nonzero"><path d="m0 161.6v-24.6h8.9c8.5 0 12.4 6.2 12.4 12 0 6.3-3.8 12.6-12.4 12.6zm2.8-2.9h6.1c6.6 0 9.5-4.9 9.5-9.8 0-4.5-3-9.3-9.5-9.3h-6.1zm29.7 3.2c-4.6 0-7.5-3.1-7.5-8v-9.6h2.7v9.5c0 3.5 2 5.6 5.4 5.6 3.2 0 5.5-2.5 5.5-5.8v-9.3h2.7v17.3h-2.4l-0.2-3-0.4 0.5c-1.5 1.8-3.4 2.7-5.8 2.8zm21.7 0c-4.5 0-9-2.8-9-8.9 0-5.4 3.6-8.9 9-8.9 2.4 0 4.4 0.8 6.2 2.5l-1.7 1.7c-1.2-1.1-2.8-1.7-4.4-1.7-3.8 0-6.4 2.6-6.4 6.4 0 4.4 3.2 6.4 6.4 6.4 1.8 0 3.4-0.6 4.6-1.8l1.7 1.7c-1.8 1.7-4 2.6-6.4 2.6zm20.9-0.3-8.5-8.5v8.5h-2.6v-24.6h2.6v14.9l7.4-7.6h3.5l-8.2 8.1 9.2 9.1v0.1zm6.6 0v-24.6h8.9c8.5 0 12.4 6.2 12.4 12 0 6.3-3.8 12.6-12.4 12.6zm2.9-2.9h6.1c6.6 0 9.5-4.9 9.5-9.8 0-4.5-3-9.3-9.5-9.3h-6.1zm29.6 3.2c-4.6 0-7.5-3.1-7.5-8v-9.6h2.7v9.5c0 3.5 2 5.6 5.4 5.6 3.2 0 5.5-2.5 5.5-5.8v-9.3h2.7v17.3h-2.4l-0.1-3-0.4 0.5c-1.5 1.8-3.5 2.7-5.9 2.8zm21.7 0c-4.5 0-9-2.8-9-8.9 0-5.4 3.6-8.9 9-8.9 2.4 0 4.4 0.8 6.2 2.5l-1.7 1.7c-1.2-1.1-2.8-1.7-4.4-1.7-3.8 0-6.4 2.6-6.4 6.4 0 4.4 3.2 6.4 6.4 6.4 1.8 0 3.4-0.6 4.6-1.8l1.7 1.7-0.1 0.1c-1.7 1.7-3.8 2.5-6.3 2.5zm20.9-0.3-8.4-8.5v8.5h-2.6v-24.6h2.6v14.9l7.4-7.6h3.4l-8.1 8.1 9.1 9.1v0.1zm17.3 0.4c-9.5 0-12.8-6.8-12.8-12.5 0-3.8 1.3-7.1 3.6-9.5 2.3-2.3 5.5-3.5 9.2-3.5 3.4 0 6.5 1.3 8.9 3.6l-1.6 1.9c-1.9-1.8-4.7-2.9-7.3-2.9-6.9 0-10 5.4-10 10.4 0 4.9 3.1 9.9 10.1 9.9 2.5 0 4.9-0.9 6.8-2.5l0.1-0.1v-6.1h-7.7v-2.5h10.3v9.6c-2.7 2.9-5.8 4.2-9.6 4.2zm21.8-0.1c-5.2 0-8.9-3.7-8.9-8.9s3.8-9.1 8.9-9.1c5.3 0 9 3.7 9 9.1-0.1 5.1-3.8 8.9-9 8.9zm0-15.6c-3.7 0-6.3 2.7-6.3 6.6 0 3.7 2.6 6.4 6.3 6.4s6.3-2.6 6.4-6.4c-0.1-3.8-2.7-6.6-6.4-6.6z"/><path d="m206.4 162.2c0.2-0.1 0.3-0.2 0.3-0.4s-0.1-0.3-0.2-0.4-0.3-0.1-0.6-0.1-0.5 0-0.6 0.1v1.6h0.4v-0.7h0.2c0.2 0 0.3 0.1 0.3 0.3 0.1 0.2 0.1 0.3 0.1 0.4h0.4c0-0.1-0.1-0.2-0.1-0.4s-0.1-0.3-0.2-0.4zm-0.5-0.1h-0.2v-0.5h0.2c0.2 0 0.3 0.1 0.3 0.2 0.1 0.2 0 0.3-0.3 0.3z"/><path d="m206 160.5c-0.9 0-1.7 0.7-1.7 1.6s0.7 1.7 1.7 1.7c0.9 0 1.7-0.7 1.7-1.7 0-0.9-0.7-1.6-1.7-1.6zm0 3c-0.7 0-1.3-0.6-1.3-1.3s0.5-1.3 1.3-1.3c0.7 0 1.3 0.6 1.3 1.3s-0.6 1.3-1.3 1.3z"/></g></g></svg>
