<?xml version="1.0" encoding="UTF-8" standalone="no"?>
<!DOCTYPE svg PUBLIC "-//W3C//DTD SVG 1.1//EN" "http://www.w3.org/Graphics/SVG/1.1/DTD/svg11.dtd">
<svg width="100%" height="100%" viewBox="0 0 1892 567" version="1.1" xmlns="http://www.w3.org/2000/svg" xmlns:xlink="http://www.w3.org/1999/xlink" xml:space="preserve" style="fill-rule:evenodd;clip-rule:evenodd;stroke-linejoin:round;stroke-miterlimit:2;">
    <g transform="matrix(4.16667,0,0,4.16667,0,0)">
        <path d="M120.727,100.075C117.839,100.075 116.235,98.151 116.235,93.819C116.235,89.488 118.907,71.017 119.938,62.546C121.854,46.813 112.784,35.412 99.628,35.412C89.206,35.412 81.253,39.533 75.016,46.171C70.785,39.774 66.032,35.412 56.787,35.412C47.783,35.412 42.2,38.711 36.702,43.997C33.746,38.19 28.476,35.412 20.597,35.412C14.058,35.412 5.274,38.691 0,41.936L5.875,55.235C9.876,53.009 13.157,51.325 15.976,51.325C19.063,51.325 20.897,53.551 20.384,58.207C19.89,62.699 14.445,114.193 14.445,114.193L32.169,114.193C32.169,114.193 35.647,81.141 36.873,71.198C38.309,59.545 43.953,52.167 51.995,52.167C59.053,52.167 61.458,57.722 60.951,64.217C60.509,69.874 55.363,114.193 55.363,114.193L73.187,114.193C73.187,114.193 77.12,77.451 78.35,68.345C79.946,56.519 87.575,52.167 92.361,52.167C100.23,52.167 102.623,58.604 101.886,64.703C101.287,69.67 99.155,87.157 98.506,96.234C97.705,107.455 102.999,115.798 113.026,115.798C119.604,115.798 126.176,113.923 130.862,111.245L127.022,98.089C124.793,99.053 122.68,100.075 120.727,100.075Z" style="fill:#79ba3a;fill-rule:nonzero;"/>
        <path d="M210.352,109.031C209.685,115.597 207.559,118.885 202.593,118.885C200.159,118.885 197.141,117.883 194.404,116.76L187.786,131.99C191.417,134.221 199.778,136.001 205.073,136.001C222.239,136.001 226.57,122.936 228.496,105.289C229.779,92.777 235.478,36.384 235.478,36.384L217.34,41.529C217.34,41.529 211.457,98.155 210.352,109.031Z" style="fill:#79ba3a;fill-rule:nonzero;"/>
        <path d="M229.774,0.53C222.893,0.53 217.991,6.293 217.553,12.387C217.114,18.481 221.187,24.245 228.068,24.245C234.346,24.245 239.851,18.481 240.29,12.387C240.728,6.293 236.052,0.53 229.774,0.53Z" style="fill:#79ba3a;fill-rule:nonzero;"/>
        <path d="M281.513,50.816C286.487,50.816 289.114,54.032 289.114,58.05C289.114,68.636 276.099,73.186 262.486,72.549C264.702,60.989 272.887,50.816 281.513,50.816ZM277.683,100.075C269.054,100.075 264.006,93.736 262.433,84.92C290.833,86.885 306.541,75.114 306.541,57.802C306.541,43.845 293.666,35.582 281.995,35.582C259.374,35.582 243.542,54.273 243.542,79.059C243.542,101.078 255.142,115.798 275.152,115.798C287.89,115.798 298.439,110.022 306.649,99.582L297.215,88.986C291.404,94.746 285.604,100.075 277.683,100.075Z" style="fill:#79ba3a;fill-rule:nonzero;"/>
        <path d="M351.969,50.816C356.943,50.816 359.57,54.032 359.57,58.05C359.57,68.636 346.555,73.186 332.943,72.549C335.158,60.989 343.343,50.816 351.969,50.816ZM348.139,100.075C339.51,100.075 334.462,93.736 332.889,84.92C361.29,86.885 376.997,75.114 376.997,57.802C376.997,43.845 364.123,35.582 352.451,35.582C329.831,35.582 313.999,54.273 313.999,79.059C313.999,101.078 325.599,115.798 345.608,115.798C358.346,115.798 368.895,110.022 377.106,99.582L367.671,88.986C361.86,94.746 356.06,100.075 348.139,100.075Z" style="fill:#79ba3a;fill-rule:nonzero;"/>
        <path d="M449.367,98.788C447.277,99.612 445.44,100.075 443.291,100.075C437.144,100.075 434.424,94.931 431.903,88.926C429.94,84.25 426.33,74.478 423.329,65.984L451.235,37.187L429.686,37.187C424.784,41.99 412.145,54.663 405.7,61.134C408.604,32.539 411.577,3.256 411.577,3.256L393.684,8.4C393.684,8.4 384.042,102.887 382.937,113.764L400.346,113.764C400.716,110.157 401.807,99.444 403.17,86.028L409.921,79.014C412.005,84.352 414.296,90.798 415.826,94.665C421.035,107.837 426.555,115.798 438.57,115.798C443.254,115.798 448.914,114.397 453.234,112.202L449.367,98.788Z" style="fill:#79ba3a;fill-rule:nonzero;"/>
        <path d="M164.417,99.966C156.828,99.966 150.956,93.398 150.956,80.262C150.956,63.176 159.114,51.305 169.342,51.305C178.807,51.305 182.735,62.676 182.735,73.284C182.735,89.568 173.673,99.966 164.417,99.966ZM201.796,72.241C201.796,53.59 190.438,35.6 169.342,35.6C147.56,35.6 132.02,54.623 132.02,79.139C132.02,102.8 144.715,115.798 163.646,115.798C188.234,115.798 201.796,94.409 201.796,72.241Z" style="fill:#79ba3a;fill-rule:nonzero;"/>
    </g>
</svg>