<?xml version="1.0" encoding="UTF-8"?>
<svg width="384" height="128" version="1.1" viewBox="0 0 101.6 33.867" xmlns="http://www.w3.org/2000/svg"><g transform="matrix(.22417 0 0 .22417 -9.1709e-7 1.6305)" style="clip-rule:evenodd;fill-rule:evenodd;stroke-linejoin:round;stroke-miterlimit:2"><path d="m120.73 100.08c-2.888 0-4.492-1.924-4.492-6.256 0-4.331 2.672-22.802 3.703-31.273 1.916-15.733-7.154-27.134-20.31-27.134-10.422 0-18.375 4.121-24.612 10.759-4.231-6.397-8.984-10.759-18.229-10.759-9.004 0-14.587 3.299-20.085 8.585-2.956-5.807-8.226-8.585-16.105-8.585-6.539 0-15.323 3.279-20.597 6.524l5.875 13.299c4.001-2.226 7.282-3.91 10.101-3.91 3.087 0 4.921 2.226 4.408 6.882-0.494 4.492-5.939 55.986-5.939 55.986h17.724s3.478-33.052 4.704-42.995c1.436-11.653 7.08-19.031 15.122-19.031 7.058 0 9.463 5.555 8.956 12.05-0.442 5.657-5.588 49.976-5.588 49.976h17.824s3.933-36.742 5.163-45.848c1.596-11.826 9.225-16.178 14.011-16.178 7.869 0 10.262 6.437 9.525 12.536-0.599 4.967-2.731 22.454-3.38 31.531-0.801 11.221 4.493 19.564 14.52 19.564 6.578 0 13.15-1.875 17.836-4.553l-3.84-13.156c-2.229 0.964-4.342 1.986-6.295 1.986z" style="fill-rule:nonzero;fill:#79ba3a"/><path d="m210.35 109.03c-0.667 6.566-2.793 9.854-7.759 9.854-2.434 0-5.452-1.002-8.189-2.125l-6.618 15.23c3.631 2.231 11.992 4.011 17.287 4.011 17.166 0 21.497-13.065 23.423-30.712 1.283-12.512 6.982-68.905 6.982-68.905l-18.138 5.145s-5.883 56.626-6.988 67.502z" style="fill-rule:nonzero;fill:#79ba3a"/><path d="m229.77 0.53c-6.881 0-11.783 5.763-12.221 11.857-0.439 6.094 3.634 11.858 10.515 11.858 6.278 0 11.783-5.764 12.222-11.858 0.438-6.094-4.238-11.857-10.516-11.857z" style="fill-rule:nonzero;fill:#79ba3a"/><path d="m281.51 50.816c4.974 0 7.601 3.216 7.601 7.234 0 10.586-13.015 15.136-26.628 14.499 2.216-11.56 10.401-21.733 19.027-21.733zm-3.83 49.259c-8.629 0-13.677-6.339-15.25-15.155 28.4 1.965 44.108-9.806 44.108-27.118 0-13.957-12.875-22.22-24.546-22.22-22.621 0-38.453 18.691-38.453 43.477 0 22.019 11.6 36.739 31.61 36.739 12.738 0 23.287-5.776 31.497-16.216l-9.434-10.596c-5.811 5.76-11.611 11.089-19.532 11.089z" style="fill-rule:nonzero;fill:#79ba3a"/><path d="m351.97 50.816c4.974 0 7.601 3.216 7.601 7.234 0 10.586-13.015 15.136-26.627 14.499 2.215-11.56 10.4-21.733 19.026-21.733zm-3.83 49.259c-8.629 0-13.677-6.339-15.25-15.155 28.401 1.965 44.108-9.806 44.108-27.118 0-13.957-12.874-22.22-24.546-22.22-22.62 0-38.452 18.691-38.452 43.477 0 22.019 11.6 36.739 31.609 36.739 12.738 0 23.287-5.776 31.498-16.216l-9.435-10.596c-5.811 5.76-11.611 11.089-19.532 11.089z" style="fill-rule:nonzero;fill:#79ba3a"/><path d="m449.37 98.788c-2.09 0.824-3.927 1.287-6.076 1.287-6.147 0-8.867-5.144-11.388-11.149-1.963-4.676-5.573-14.448-8.574-22.942l27.906-28.797h-21.549c-4.902 4.803-17.541 17.476-23.986 23.947 2.904-28.595 5.877-57.878 5.877-57.878l-17.893 5.144s-9.642 94.487-10.747 105.36h17.409c0.37-3.607 1.461-14.32 2.824-27.736l6.751-7.014c2.084 5.338 4.375 11.784 5.905 15.651 5.209 13.172 10.729 21.133 22.744 21.133 4.684 0 10.344-1.401 14.664-3.596z" style="fill-rule:nonzero;fill:#79ba3a"/><path d="m164.42 99.966c-7.589 0-13.461-6.568-13.461-19.704 0-17.086 8.158-28.957 18.386-28.957 9.465 0 13.393 11.371 13.393 21.979 0 16.284-9.062 26.682-18.318 26.682zm37.379-27.725c0-18.651-11.358-36.641-32.454-36.641-21.782 0-37.322 19.023-37.322 43.539 0 23.661 12.695 36.659 31.626 36.659 24.588 0 38.15-21.389 38.15-43.557z" style="fill-rule:nonzero;fill:#79ba3a"/></g></svg>
