<?xml version="1.0" encoding="UTF-8"?>
<svg width="384" height="128" version="1.1" viewBox="0 0 101.6 33.867" xmlns="http://www.w3.org/2000/svg"><g transform="matrix(.44982 0 0 .44982 -13.369 -33.903)" style="fill:#487cff" aria-label="SearXNG"><path d="m56.494 102.7q-1.1684-1.2192-3.048-2.032-1.8796-0.8128-4.4196-0.8128-3.1496 0-5.08 1.3208-1.9304 1.27-1.9304 3.4544 0 2.3368 3.7084 3.6068l7.6708 2.6416q3.9624 1.3208 5.842 3.4036t1.8796 5.1308q0 4.064-2.1844 7.0104-2.1844 2.8956-5.9436 4.4196-3.7592 1.524-8.4836 1.524-5.334 0-9.0424-1.778-3.7084-1.8288-5.5372-5.1308-0.2032-0.3556-0.2032-0.7112t0.4064-0.6096l4.0132-2.4384q0.3556-0.254 0.762-0.254 0.6096 0 1.1176 0.6604 1.3208 1.6256 2.3876 2.54 1.1176 0.8636 2.6924 1.3208 1.6256 0.4572 4.1656 0.4572 3.2004 0 5.1816-1.1684 1.9812-1.2192 1.9812-3.7592 0-1.27-0.9144-2.0828-0.9144-0.8636-2.9464-1.5748l-7.4168-2.4892q-3.6576-1.2192-5.588-3.556-1.8796-2.3876-1.8796-5.4356 0-3.7592 2.1336-6.6548 2.1336-2.8956 5.6896-4.4704 3.6068-1.5748 7.874-1.5748 4.3688 0 7.6708 1.5748 3.3528 1.524 5.1816 3.9624 0.4064 0.508 0.4064 0.762 0 0.254-0.3556 0.4572l-4.5212 2.9972q-0.0508 0.0508-0.2032 0.0508-0.3048 0-1.0668-0.762z" style="fill:#487cff;stroke-width:.26458"/><path d="m77.004 132.37q-3.6068 0-6.4008-1.4732t-4.318-4.1148q-1.524-2.6924-1.524-6.1976 0-4.1656 1.9812-7.874 2.032-3.7592 5.5372-5.9944 3.556-2.286 7.9248-2.286 5.334 0 8.4836 3.1496t3.1496 8.6868q0 1.4732-0.2032 2.8448-0.1016 0.4064-0.3556 0.6096-0.2032 0.1524-0.8128 0.1524h-17.12q-0.8128 0-0.8128 2.1844 0 2.3876 1.524 3.7084 1.5748 1.27 4.064 1.27 1.9304 0 3.6068-0.8128t3.302-2.54q0.254-0.254 0.508-0.254 0.1524 0 0.6604 0.2032l3.3528 1.5748q0.6096 0.2032 0.6096 0.6604 0 0.254-0.254 0.6604-2.9464 3.302-5.8928 4.572-2.8956 1.27-7.0104 1.27zm6.4516-16.561q1.2192 0 1.2192-1.9812 0-1.9304-1.1684-3.2512-1.1684-1.3716-3.2512-1.3716-2.54 0-4.5212 1.9304-1.9304 1.8796-2.2352 4.6736z" style="fill:#487cff;stroke-width:.26458"/><path d="m109.41 129.37q-3.048 2.9972-8.3312 2.9972-3.556 0-5.588-1.8288t-2.032-4.7752q0-3.6068 2.3876-5.8928 2.3876-2.3368 5.9944-3.3528 3.6576-1.0668 7.5692-1.1684l1.8288-0.1524q0.9652 0 1.1176-0.9652l0.1524-1.0668q0.0508-0.254 0.0508-0.8128 0-3.048-3.5052-3.048-4.0132 0-5.9436 3.1496-0.254 0.3556-0.6604 0.3556-0.3048 0-0.4572-0.0508l-4.9276-1.1684q-0.508-0.1016-0.508-0.6604 0-0.508 0.254-1.016 3.3528-5.4864 12.649-5.4864 5.4864 0 8.0264 1.9304 2.5908 1.9304 2.5908 5.334 0 0.4572-0.1016 1.4732l-2.54 17.78q-0.0508 0.6604-0.2032 0.8128-0.1524 0.1016-0.7112 0.1016h-5.2324q-0.508 0-0.6604-0.3048t-0.2032-1.016l0.0508-1.3208q0-0.4064-0.254-0.4064t-0.8128 0.5588zm2.1844-9.7536v-0.3048q0-0.2032-0.1016-0.254-0.1016-0.1016-0.4064-0.0508l-1.8288 0.1524q-2.9464 0.2032-5.4864 1.4732t-2.54 3.9116q0 1.2192 0.8636 1.9812 0.9144 0.7112 2.4384 0.7112 1.3208 0 2.4892-0.3556 1.1684-0.4064 2.032-1.0668 1.8796-1.4224 2.0828-2.8956z" style="fill:#487cff;stroke-width:.26458"/><path d="m123.86 131.86q-0.6096 0-0.9144-0.3556-0.254-0.3556-0.1524-0.9144l3.5052-24.943q0.0508-0.4572 0.1524-0.5588 0.1524-0.1524 0.5588-0.1524h6.0452q0.9144 0 0.7112 1.0668l-0.3556 2.286v0.2032q0 0.3556 0.2032 0.3556 0.1524 0 0.4572-0.3048 1.778-1.8796 3.9624-2.9972t3.9624-1.1176q1.0668 0 1.5748 0.1524t0.4572 0.6096l-0.8128 5.6896q-0.0508 0.5588-0.2032 0.7112-0.1016 0.1524-0.4064 0.1016-1.7272-0.254-3.4544-0.254-1.3208 0-2.794 0.7112-1.4732 0.6604-2.54 1.778-1.016 1.0668-1.1684 2.1336l-2.0828 14.834q-0.1016 0.6604-0.3556 0.8128-0.2032 0.1524-0.9652 0.1524z" style="fill:#487cff;stroke-width:.26458"/><path d="m176.48 130.08q0.4572 0.8128 0.4572 1.2192 0 0.3048-0.254 0.4572-0.254 0.1016-0.762 0.1016h-7.0612q-0.6096 0-0.9652-0.1524-0.3048-0.1524-0.508-0.6096l-5.6388-11.735q-0.254-0.508-0.508-0.508-0.1524 0-0.5588 0.5588l-9.0424 11.836q-0.254 0.4064-0.6096 0.508-0.3048 0.1016-1.0668 0.1016h-5.9436q-1.016 0-1.016-0.6604 0-0.4572 0.762-1.524l13.005-16.307q0.5588-0.6096 0.5588-1.0668 0-0.3556-0.1016-0.5588l-8.4836-16.561q-0.1524-0.254-0.1524-0.508 0-0.508 0.762-0.508h7.4168q0.6604 0 0.9144 0.1524t0.508 0.6604l4.9276 10.363q0.1524 0.4064 0.3556 0.4064t0.508-0.4064l8.0264-10.566q0.3048-0.4064 0.5588-0.508 0.3048-0.1016 0.9652-0.1016h6.5532q0.6096 0 0.6096 0.5588 0 0.4064-0.3048 0.9144l-12.598 15.646q-0.508 0.6604-0.508 0.9144 0 0.2032 0.1524 0.508z" style="fill:#487cff;stroke-width:.26458"/><path d="m218.11 94.169q0.3556 0 0.4572 0.2032 0.1016 0.1524 0.0508 0.5588l-5.1308 36.373q-0.0508 0.3556-0.254 0.4572-0.1524 0.1016-0.5588 0.1016h-5.1816q-0.6604 0-1.1684-0.8128l-13.106-22.708q-0.1524-0.254-0.3048-0.254-0.3048 0-0.3556 0.5588l-3.1496 22.403q-0.1016 0.508-0.3048 0.6604-0.1524 0.1524-0.7112 0.1524h-5.588q-0.8128 0-0.7112-1.1176l5.08-35.814q0.1016-0.508 0.2032-0.6096 0.1524-0.1524 0.6604-0.1524h6.1468q0.508 0 0.762 0.254 0.3048 0.2032 0.5588 0.7112l11.989 21.184q0.254 0.4064 0.508 0.4064 0.4064 0 0.4572-0.6096l2.9464-21.285q0.0508-0.4064 0.2032-0.508 0.2032-0.1524 0.6604-0.1524z" style="fill:#487cff;stroke-width:.26458"/><path d="m236.44 132.37q-4.572 0-7.9248-1.9304t-5.1308-5.4356q-1.7272-3.556-1.7272-8.3312 0-6.2992 2.4892-11.532 2.4892-5.2832 7.0612-8.382t10.516-3.0988q4.064 0 7.1628 1.5748 3.1496 1.5748 4.8768 4.1656 1.7272 2.54 1.8288 5.4356 0 0.508-0.1016 0.762-0.0508 0.2032-0.254 0.254l-6.9596 1.016h-0.0508q-0.2032 0-0.3556-0.254-0.1016-0.254-0.254-1.016-0.3556-2.54-1.9304-4.1148-1.524-1.5748-4.318-1.5748-3.6068 0-5.9944 2.6416-2.3368 2.6416-3.4544 6.8072-1.1176 4.1148-1.1176 8.5852 0 4.3688 1.6256 6.2992 1.6764 1.8796 4.8768 1.8796 3.0988 0 5.2324-1.7272t3.1496-4.2164l0.3048-1.4224q0.1524-0.254 0.1524-0.3556 0-0.3048-0.6096-0.3048h-6.2484q-0.3048 0-0.4064-0.1016-0.1016-0.1524-0.0508-0.5588l0.4572-4.1656q0.0508-0.5588 0.508-0.5588l14.529 0.0508q0.6096 0 0.762 0.2032 0.2032 0.1524 0.1016 0.6604l-2.4892 17.577q-0.0508 0.6604-0.8128 0.6604h-1.524q-0.4572 0-0.7112-0.1524-0.2032-0.1524-0.3556-0.6096l-0.8636-3.7084q-0.0508-0.254-0.3556-0.254t-0.6604 0.4064q-1.6764 2.0828-4.3688 3.4544t-6.604 1.3716z" style="fill:#487cff;stroke-width:.26458"/></g></svg>
