<?xml version="1.0" encoding="UTF-8"?>
<svg width="384" height="128" version="1.1" viewBox="0 0 101.6 33.867" xmlns="http://www.w3.org/2000/svg"><g transform="matrix(.97692 0 0 .97692 .0001288 5.5512)"><path d="m0.468 20.841c0.252-0.362 0.667-0.597 1.225-0.687a147.5 147.5 0 0 1 47.443-0.073c0.432 0.073 0.703 0.2 0.847 0.344 0.126 0.127 0.18 0.29 0.144 0.525-0.036 0.199-0.126 0.326-0.27 0.398-0.18 0.09-0.469 0.127-0.901 0.072a145.5 145.5 0 0 0-46.687 1.845 3.324 3.324 0 0 1-0.414 0.037h-0.125a1.583 1.583 0 0 1-0.81-0.254c-0.361-0.235-0.596-0.615-0.686-1.048-0.054-0.434 0.018-0.85 0.234-1.158z" fill="#6573ff"/><path d="m11.438 8.54c-0.469-0.363-1.063-0.688-1.802-0.978-0.72-0.29-1.585-0.524-2.575-0.742-0.847-0.199-1.513-0.38-2-0.578-0.486-0.181-0.828-0.398-1.044-0.634-0.217-0.235-0.307-0.524-0.307-0.868 0-0.633 0.27-1.122 0.811-1.484 0.54-0.361 1.26-0.542 2.161-0.542 0.81 0 1.585 0.126 2.36 0.398 0.774 0.271 1.513 0.687 2.233 1.23l1.117-2.515a5.43 5.43 0 0 0-1.53-0.977c-0.613-0.271-1.28-0.47-2-0.633a11.222 11.222 0 0 0-2.216-0.217c-1.26 0-2.36 0.217-3.314 0.651-0.936 0.434-1.675 1.032-2.215 1.773a4.353 4.353 0 0 0-0.793 2.533c0 0.651 0.108 1.23 0.306 1.737 0.217 0.506 0.54 0.94 0.991 1.302 0.45 0.38 1.045 0.706 1.765 0.977 0.72 0.29 1.603 0.525 2.63 0.742 0.81 0.181 1.477 0.362 1.963 0.543 0.487 0.18 0.847 0.38 1.063 0.633 0.216 0.235 0.342 0.525 0.342 0.868 0 0.58-0.27 1.032-0.81 1.357-0.54 0.326-1.315 0.489-2.324 0.489-0.937 0-1.82-0.127-2.666-0.398-0.846-0.272-1.657-0.688-2.45-1.23l-1.134 2.513c0.486 0.38 1.063 0.724 1.73 0.995 0.692 0.281 1.41 0.493 2.143 0.633 0.756 0.145 1.549 0.218 2.341 0.218 1.387 0 2.558-0.2 3.548-0.598 0.973-0.398 1.73-0.958 2.252-1.682s0.774-1.592 0.774-2.587c0-0.633-0.108-1.176-0.342-1.664-0.198-0.47-0.54-0.905-1.008-1.267zm6.286-7.503v3.74h2.881v2.532h-2.881v4.432c0 0.434 0.09 0.796 0.252 1.068 0.162 0.271 0.378 0.47 0.648 0.579 0.27 0.108 0.559 0.162 0.865 0.162 0.18 0 0.36-0.018 0.522-0.036 0.18-0.036 0.378-0.072 0.594-0.108v2.587c-0.306 0.126-0.63 0.217-0.936 0.253a6.015 6.015 0 0 1-1.009 0.072c-1.387 0-2.45-0.398-3.188-1.194s-1.099-1.917-1.099-3.328v-9.662l3.35-1.097zm11.526 4.137c0.504 0.326 0.883 0.724 1.153 1.212h0.018v-1.592h3.314v11.361h-3.314v-1.682c-0.27 0.488-0.649 0.904-1.153 1.212-0.702 0.434-1.513 0.651-2.413 0.651-0.991 0-1.856-0.253-2.612-0.723a4.778 4.778 0 0 1-1.765-2.045c-0.415-0.886-0.63-1.917-0.63-3.093 0-1.194 0.197-2.225 0.63-3.13 0.432-0.905 1.008-1.592 1.765-2.099 0.756-0.488 1.62-0.741 2.593-0.741 0.92 0 1.712 0.217 2.414 0.669zm-1.44 8.557c0.828 0 1.458-0.29 1.908-0.85s0.685-1.375 0.685-2.424c0-1.086-0.234-1.9-0.685-2.479-0.45-0.579-1.098-0.868-1.909-0.868-0.81 0-1.459 0.29-1.927 0.886-0.468 0.597-0.703 1.411-0.703 2.479 0 1.05 0.235 1.863 0.685 2.424 0.45 0.56 1.099 0.832 1.945 0.832zm20.749-12.694v3.74h2.882v2.532h-2.881v4.432c0 0.434 0.09 0.796 0.252 1.068 0.162 0.271 0.378 0.47 0.648 0.579 0.27 0.108 0.559 0.162 0.865 0.162 0.18 0 0.36-0.018 0.522-0.036 0.18-0.036 0.378-0.072 0.595-0.108v2.587c-0.307 0.126-0.63 0.217-0.937 0.253a6.015 6.015 0 0 1-1.009 0.072c-1.387 0-2.45-0.398-3.188-1.194s-1.099-1.917-1.099-3.328v-9.662zm11.51 3.468c0.972 0 1.837 0.235 2.593 0.741 0.757 0.507 1.333 1.194 1.765 2.08 0.432 0.905 0.649 1.955 0.649 3.13 0 1.177-0.217 2.208-0.649 3.094-0.432 0.887-1.008 1.574-1.765 2.045-0.756 0.488-1.621 0.723-2.594 0.723-0.918 0-1.729-0.217-2.413-0.651a3.218 3.218 0 0 1-1.117-1.194v6.694h-3.368v-13.117c0-0.543-0.018-1.086-0.036-1.629a16.567 16.567 0 0 0-0.144-1.628h3.17l0.216 1.936a3.24 3.24 0 0 1 1.279-1.556c0.684-0.452 1.495-0.67 2.413-0.67zm-0.955 9.226c0.828 0 1.459-0.271 1.909-0.832 0.45-0.56 0.666-1.375 0.684-2.46 0-1.05-0.234-1.882-0.684-2.479-0.45-0.579-1.099-0.886-1.91-0.886-0.846 0-1.494 0.29-1.945 0.868-0.45 0.579-0.666 1.411-0.666 2.479 0 1.067 0.216 1.9 0.666 2.46s1.1 0.85 1.946 0.85zm15.634-7.345a3.36 3.36 0 0 0-1.153-1.212c-0.702-0.452-1.495-0.67-2.413-0.67-0.973 0-1.838 0.254-2.594 0.742-0.757 0.507-1.333 1.194-1.765 2.099-0.433 0.905-0.63 1.936-0.63 3.13 0 1.176 0.215 2.207 0.63 3.093 0.38 0.837 0.992 1.547 1.765 2.045 0.756 0.47 1.62 0.723 2.612 0.723 0.9 0 1.71-0.217 2.413-0.65a3.224 3.224 0 0 0 1.153-1.213v1.682h3.314v-11.359h-3.332v1.591zm-0.667 6.495c-0.45 0.56-1.08 0.85-1.909 0.85-0.846 0-1.495-0.271-1.945-0.832-0.45-0.56-0.685-1.375-0.685-2.424 0-1.05 0.235-1.882 0.703-2.479s1.117-0.886 1.927-0.886 1.46 0.29 1.91 0.868c0.45 0.58 0.684 1.393 0.684 2.479-0.018 1.049-0.234 1.863-0.685 2.424zm13.095-7.689c0.504 0.326 0.9 0.724 1.17 1.212v-1.61h3.35v10.819c0 1.827-0.521 3.202-1.548 4.143-1.027 0.94-2.558 1.41-4.557 1.41-1.783 0-3.35-0.343-4.683-1.049l0.504-2.514a9.31 9.31 0 0 0 2.035 0.76 8.83 8.83 0 0 0 2.036 0.253c0.973 0 1.693-0.217 2.161-0.67 0.487-0.452 0.72-1.14 0.72-2.062v-1.99c-0.161 0.235-0.341 0.47-0.558 0.688-0.378 0.38-0.828 0.669-1.35 0.904-0.54 0.234-1.124 0.35-1.712 0.344-0.99 0-1.855-0.235-2.611-0.706-0.757-0.47-1.351-1.121-1.784-1.972-0.432-0.85-0.648-1.845-0.648-2.985s0.216-2.116 0.648-2.967c0.433-0.832 1.027-1.501 1.784-1.972 0.756-0.488 1.639-0.723 2.611-0.723 0.919 0 1.73 0.235 2.432 0.687zm-1.459 8.05c0.81 0 1.459-0.27 1.927-0.813 0.469-0.543 0.703-1.303 0.72-2.262 0-0.94-0.215-1.7-0.684-2.243-0.468-0.56-1.117-0.832-1.945-0.832-0.829 0-1.495 0.271-1.963 0.814-0.487 0.543-0.72 1.284-0.72 2.243s0.233 1.719 0.72 2.262c0.486 0.56 1.135 0.832 1.945 0.832zm-45.064-7.94c-0.469 0.361-0.81 0.85-1.045 1.447l-0.234-1.972h-3.17c0.072 0.543 0.126 1.085 0.144 1.628s0.036 1.086 0.036 1.628v8.105h3.368v-5.934c0-0.56 0.108-1.049 0.324-1.465s0.523-0.724 0.919-0.959c0.396-0.217 0.9-0.344 1.495-0.344 0.36 0 0.72 0.055 1.08 0.163v-3.022a3.083 3.083 0 0 0-0.612-0.054c-0.864 0-1.639 0.253-2.305 0.778zm62.717 1.845c0.414 0.868 0.63 1.882 0.63 3.058l-0.036 1.121h-7.367c0.108 0.67 0.324 1.194 0.649 1.574 0.504 0.56 1.26 0.85 2.287 0.85 0.594 0 1.189-0.09 1.765-0.29a5.865 5.865 0 0 0 1.603-0.831l0.883 2.28c-0.541 0.433-1.207 0.76-1.999 1.012a8.15 8.15 0 0 1-2.378 0.362c-1.26 0-2.341-0.253-3.26-0.723-0.919-0.489-1.621-1.158-2.108-2.045-0.486-0.868-0.738-1.917-0.738-3.13 0-1.176 0.252-2.207 0.72-3.093a5.204 5.204 0 0 1 1.946-2.099c0.828-0.488 1.783-0.742 2.882-0.742 1.044 0 1.963 0.236 2.737 0.706a4.56 4.56 0 0 1 1.784 1.99zm-6.233 0.525c-0.252 0.362-0.432 0.796-0.54 1.357h4.503c-0.072-0.616-0.234-1.104-0.522-1.466-0.378-0.488-0.919-0.724-1.64-0.724-0.774 0-1.368 0.272-1.8 0.833z" fill="#e5e8ff"/></g></svg>
