<svg width="100%" height="100%" viewBox="0 0 24 24" fill="none" xmlns="http://www.w3.org/2000/svg"><rect width="24" height="24" fill="none" rx="0" ry="0"></rect><path fill-rule="evenodd" clip-rule="evenodd" d="M15.5 14C18.5376 14 21 11.5376 21 8.5C21 5.46243 18.5376 3 15.5 3C12.4624 3 10 5.46243 10 8.5C10 11.5376 12.4624 14 15.5 14Z" class="svg-primary"></path><path fill-rule="evenodd" clip-rule="evenodd" d="M13.0103 4.4999C13.2864 4.49421 13.5056 4.2658 13.4999 3.98971C13.4942 3.71363 13.2658 3.49442 12.9897 3.50011L6.88472 3.62578C6.76152 3.62832 6.66578 3.63238 6.48031 3.68721C6.40031 3.71086 6.2943 3.76246 6.2358 3.79183C6.17942 3.82014 6.08012 3.87152 6.01325 3.92C5.98335 3.9339 5.95981 3.94843 5.94324 3.95967C5.92253 3.97371 5.90643 3.98691 5.89552 3.99641C5.87465 4.01456 5.85983 4.03056 5.85339 4.03763C5.84121 4.05103 5.83176 4.06301 5.8303 4.06486L5.82515 4.07143C5.77526 4.13563 5.73108 4.20394 5.69266 4.27578C5.5509 4.54084 5.5 4.79567 5.5 5.28194V18.7181C5.5 19.2043 5.5509 19.4592 5.69266 19.7242C5.82641 19.9743 6.02568 20.1736 6.27578 20.3073C6.54084 20.4491 6.79567 20.5 7.28194 20.5L14 20.5L15.4361 20.5C16.3681 20.5 16.7846 20.4027 17.2126 20.1738C17.6257 19.9529 17.9529 19.6257 18.1738 19.2126C18.4027 18.7846 18.5 18.3681 18.5 17.4361V16.5V14.2819C18.5 14.0058 18.2761 13.7819 18 13.7819C17.7239 13.7819 17.5 14.0058 17.5 14.2819V16H15C14.1716 16 13.5 16.6716 13.5 17.5V19.5H7.28194C7.07243 19.5 6.95676 19.4887 6.88551 19.475C6.8261 19.4635 6.79228 19.4495 6.74738 19.4255C6.67155 19.385 6.61503 19.3285 6.57447 19.2526C6.55046 19.2077 6.5365 19.1739 6.52503 19.1145C6.51127 19.0432 6.5 18.9276 6.5 18.7181V5.28194C6.5 5.07243 6.51127 4.95677 6.52503 4.88552C6.53635 4.82691 6.55008 4.7932 6.5735 4.7492L6.59553 4.73314L6.61189 4.72375C6.63137 4.71286 6.65695 4.69935 6.68454 4.6855C6.71212 4.67165 6.73824 4.6592 6.75861 4.65008L6.77519 4.64287C6.81586 4.63121 6.83068 4.62908 6.83563 4.62843C6.84411 4.62732 6.85282 4.62665 6.9053 4.62557L13.0103 4.4999ZM14.5 19.5H15.4361C16.2871 19.5 16.5172 19.4117 16.741 19.292C16.9798 19.1643 17.1643 18.9798 17.292 18.741C17.4117 18.5172 17.5 18.2871 17.5 17.4361V17H15C14.7239 17 14.5 17.2239 14.5 17.5V19.5ZM6.67207 4.15097L6.67081 4.14845C6.67277 4.1523 6.67346 4.15378 6.67207 4.15097ZM7.5 16C7.5 15.7239 7.72386 15.5 8 15.5H13C13.2761 15.5 13.5 15.7239 13.5 16C13.5 16.2761 13.2761 16.5 13 16.5H8C7.72386 16.5 7.5 16.2761 7.5 16ZM8 17.5C7.72386 17.5 7.5 17.7239 7.5 18C7.5 18.2761 7.72386 18.5 8 18.5H11C11.2761 18.5 11.5 18.2761 11.5 18C11.5 17.7239 11.2761 17.5 11 17.5H8ZM7.5 14C7.5 13.7239 7.72386 13.5 8 13.5H11C11.2761 13.5 11.5 13.7239 11.5 14C11.5 14.2761 11.2761 14.5 11 14.5H8C7.72386 14.5 7.5 14.2761 7.5 14ZM17 3.5C14.5147 3.5 12.5 5.51472 12.5 8C12.5 10.4853 14.5147 12.5 17 12.5C19.4853 12.5 21.5 10.4853 21.5 8C21.5 5.51472 19.4853 3.5 17 3.5ZM13.5 8C13.5 9.76324 14.8039 11.2219 16.5 11.4646V8C16.5 7.72386 16.7239 7.5 17 7.5C17.2761 7.5 17.5 7.72386 17.5 8V11.4646C19.1961 11.2219 20.5 9.76324 20.5 8C20.5 6.067 18.933 4.5 17 4.5C15.067 4.5 13.5 6.067 13.5 8ZM17 6.89999C16.5858 6.89999 16.25 6.56421 16.25 6.14999C16.25 5.73578 16.5858 5.39999 17 5.39999C17.4142 5.39999 17.75 5.73578 17.75 6.14999C17.75 6.56421 17.4142 6.89999 17 6.89999Z" class="svg-dark"></path></svg>
