<svg width="100%" height="100%" role="img" viewBox="0 0 1094 143" version="1.1" xmlns="http://www.w3.org/2000/svg" xmlns:xlink="http://www.w3.org/1999/xlink" xml:space="preserve" xmlns:serif="http://www.serif.com/" style="fill-rule:evenodd;clip-rule:evenodd;stroke-linejoin:round;stroke-miterlimit:2;">
    <title>Privacy Guides</title>
    <g transform="matrix(1,0,0,1,-1326.26,-2865.87)">
	   <g transform="matrix(0.602992,0,0,0.602992,1163.28,2174.58)">
		  <g transform="matrix(4.16667,0,0,4.16667,225,1108.44)">
			 <path d="M18.466,16.31C18.279,16.938 18.384,17.673 18.594,19.141L21.253,37.755C21.713,40.971 21.942,42.578 22.551,44.015C23.09,45.289 23.845,46.46 24.783,47.476C25.842,48.623 27.212,49.494 29.952,51.238L33.848,53.717C35.716,54.906 36.65,55.5 37.654,55.732C38.426,55.91 39.224,55.933 40.003,55.801C39.359,54.33 39.002,52.706 39.002,50.997C39.002,44.37 44.375,38.997 51.002,38.997C52.936,38.997 54.763,39.455 56.381,40.267C56.494,39.55 56.612,38.726 56.751,37.755L56.751,37.755L59.41,19.141C59.62,17.673 59.725,16.938 59.538,16.31C59.374,15.756 59.053,15.261 58.615,14.885C58.117,14.458 57.403,14.255 55.977,13.847L40.321,9.374C39.83,9.234 39.585,9.164 39.335,9.136C39.114,9.111 38.891,9.111 38.669,9.136C38.42,9.164 38.174,9.234 37.684,9.374L22.027,13.847C20.601,14.255 19.887,14.458 19.39,14.885C18.951,15.261 18.63,15.756 18.466,16.31Z" class="svg-light"/>
		  </g>
	   </g>
	   <g transform="matrix(0.602992,0,0,0.602992,1163.28,2174.58)">
		  <g transform="matrix(4.16667,0,0,4.16667,225,1108.44)">
			 <path d="M32.836,13.626C32.946,13.614 33.058,13.614 33.169,13.626C33.265,13.637 33.371,13.663 33.909,13.816L49.565,18.289C50.3,18.5 50.771,18.635 51.123,18.765C51.458,18.89 51.578,18.972 51.638,19.024C51.858,19.212 52.018,19.459 52.1,19.736C52.123,19.813 52.149,19.956 52.126,20.313C52.102,20.688 52.034,21.172 51.925,21.929L49.692,37.56C42.851,38.219 37.502,43.983 37.502,50.997C37.502,52.382 37.711,53.718 38.098,54.976L37.351,55.452C35.388,56.701 34.706,57.11 34.014,57.27C33.348,57.424 32.657,57.424 31.991,57.27C31.298,57.11 30.616,56.701 28.654,55.452L24.758,52.973C21.95,51.186 20.781,50.428 19.886,49.458C19.065,48.569 18.404,47.545 17.932,46.43C17.418,45.215 17.209,43.837 16.738,40.543L14.079,21.929C13.971,21.172 13.903,20.688 13.878,20.313C13.855,19.956 13.881,19.813 13.904,19.736C13.986,19.459 14.147,19.212 14.366,19.024C14.427,18.972 14.547,18.89 14.881,18.765C15.234,18.635 15.704,18.5 16.439,18.289L32.096,13.816C32.633,13.663 32.74,13.637 32.836,13.626ZM54.903,22.301L52.716,37.605C59.363,38.447 64.502,44.122 64.502,50.997C64.502,58.453 58.458,64.497 51.002,64.497C46.01,64.497 41.651,61.787 39.315,57.758L38.962,57.983L38.739,58.124C37.088,59.177 35.947,59.903 34.688,60.194C33.579,60.449 32.426,60.449 31.317,60.194C30.058,59.903 28.917,59.177 27.265,58.124L27.043,57.983L22.954,55.381L22.954,55.381C20.398,53.754 18.873,52.784 17.681,51.493C16.626,50.35 15.776,49.033 15.17,47.6C14.484,45.982 14.229,44.193 13.801,41.194L11.102,22.301C11.003,21.611 10.918,21.012 10.885,20.508C10.85,19.973 10.864,19.435 11.028,18.883C11.274,18.052 11.756,17.31 12.414,16.746C12.851,16.372 13.336,16.139 13.839,15.952C14.312,15.777 14.895,15.611 15.564,15.419L15.615,15.405L31.271,10.932L31.354,10.908C31.764,10.791 32.125,10.687 32.502,10.645C32.835,10.608 33.17,10.608 33.502,10.645C33.88,10.687 34.241,10.791 34.65,10.908L34.733,10.932L50.44,15.419C51.11,15.611 51.692,15.777 52.166,15.952C52.668,16.139 53.154,16.372 53.591,16.746C54.249,17.31 54.73,18.052 54.977,18.883C55.14,19.435 55.155,19.973 55.12,20.508C55.087,21.012 55.001,21.611 54.903,22.3L54.903,22.301ZM51.002,40.497C45.203,40.497 40.502,45.198 40.502,50.997C40.502,56.796 45.203,61.497 51.002,61.497C56.801,61.497 61.502,56.796 61.502,50.997C61.502,45.198 56.801,40.497 51.002,40.497ZM58.154,47.458C58.685,46.821 58.599,45.875 57.962,45.345C57.326,44.815 56.38,44.9 55.85,45.537L49.401,53.275L46.063,49.936C45.477,49.351 44.527,49.351 43.942,49.936C43.356,50.522 43.356,51.472 43.942,52.058L48.442,56.558C48.74,56.856 49.149,57.015 49.57,56.996C49.991,56.977 50.385,56.781 50.654,56.458L58.154,47.458ZM25.502,29.997C25.502,25.855 28.86,22.497 33.002,22.497C37.144,22.497 40.502,25.855 40.502,29.997C40.502,32.451 39.324,34.629 37.502,35.998L37.502,41.997C37.502,44.483 35.488,46.497 33.002,46.497C30.517,46.497 28.502,44.483 28.502,41.997L28.502,35.998C26.681,34.629 25.502,32.451 25.502,29.997ZM34.502,37.497L31.502,37.497L31.502,41.997C31.502,42.826 32.174,43.497 33.002,43.497C33.831,43.497 34.502,42.826 34.502,41.997L34.502,37.497ZM33.002,34.497C35.488,34.497 37.502,32.483 37.502,29.997C37.502,27.512 35.488,25.497 33.002,25.497C30.517,25.497 28.502,27.512 28.502,29.997C28.502,32.483 30.517,34.497 33.002,34.497Z" class="textColor"/>
		  </g>
	   </g>
	   <g transform="matrix(0.602992,0,0,0.602992,1163.28,2174.58)">
		  <g id="Privacy-Guides" serif:id="Privacy Guides" transform="matrix(0.323727,0,0,0.323727,262.925,985.314)">
			 <g transform="matrix(658.502,0,0,658.502,970.977,1072.74)">
				<path d="M0.025,-0L0.378,-0L0.269,-0.084L0.269,-0.297C0.285,-0.295 0.32,-0.293 0.388,-0.293C0.552,-0.293 0.646,-0.401 0.646,-0.521C0.646,-0.625 0.557,-0.719 0.409,-0.719C0.318,-0.719 0.207,-0.718 0.207,-0.718L0.025,-0.718L0.129,-0.637L0.129,-0.08L0.025,-0ZM0.291,-0.667C0.353,-0.667 0.4,-0.668 0.437,-0.648C0.476,-0.625 0.497,-0.571 0.497,-0.506C0.497,-0.346 0.381,-0.343 0.269,-0.343L0.269,-0.667L0.291,-0.667Z" class="textColor" style="fill-rule:nonzero;"/>
			 </g>
			 <g transform="matrix(658.502,0,0,658.502,1400.98,1072.74)">
				<path d="M0.024,-0L0.294,-0L0.216,-0.07L0.216,-0.26C0.22,-0.32 0.234,-0.363 0.271,-0.401C0.275,-0.356 0.308,-0.33 0.346,-0.33C0.382,-0.33 0.416,-0.364 0.416,-0.411C0.416,-0.464 0.375,-0.489 0.341,-0.489C0.283,-0.489 0.236,-0.44 0.213,-0.374L0.186,-0.501L0.096,-0.441L0.096,-0.44L0.024,-0.392L0.096,-0.348L0.096,-0.07L0.024,-0Z" class="textColor" style="fill-rule:nonzero;"/>
			 </g>
			 <g transform="matrix(658.502,0,0,658.502,1674.92,1072.74)">
				<path d="M0.024,-0L0.293,-0L0.216,-0.07L0.216,-0.509L0.155,-0.472L0.096,-0.436L0.024,-0.392L0.096,-0.355L0.096,-0.07L0.024,-0ZM0.086,-0.64C0.086,-0.598 0.12,-0.564 0.162,-0.564C0.203,-0.564 0.238,-0.598 0.238,-0.64C0.238,-0.681 0.203,-0.716 0.162,-0.716C0.12,-0.716 0.086,-0.681 0.086,-0.64Z" class="textColor" style="fill-rule:nonzero;"/>
			 </g>
			 <g transform="matrix(658.502,0,0,658.502,1875.76,1072.74)">
				<path d="M0.572,-0.479L0.439,-0.479L0.438,-0.476L0.438,-0.479L0.342,-0.479L0.408,-0.408L0.296,-0.153L0.182,-0.422L0.251,-0.479L-0.049,-0.479L0.054,-0.401L0.258,0.043L0.278,-0.002L0.279,-0.001L0.461,-0.397L0.572,-0.479Z" class="textColor" style="fill-rule:nonzero;"/>
			 </g>
			 <g transform="matrix(658.502,0,0,658.502,2220.16,1072.74)">
				<path d="M0.332,-0.341C0.333,-0.254 0.238,-0.243 0.166,-0.226C0.104,-0.211 0.045,-0.17 0.045,-0.1C0.045,-0.055 0.074,0.014 0.167,0.014C0.233,0.014 0.302,-0.023 0.333,-0.077L0.358,-0L0.522,-0L0.446,-0.079C0.446,-0.125 0.447,-0.279 0.447,-0.32C0.447,-0.454 0.355,-0.494 0.268,-0.494L0.252,-0.494C0.149,-0.494 0.061,-0.414 0.061,-0.355C0.061,-0.309 0.085,-0.274 0.129,-0.274C0.165,-0.274 0.198,-0.305 0.198,-0.344C0.198,-0.378 0.187,-0.403 0.144,-0.42C0.158,-0.44 0.205,-0.446 0.235,-0.446C0.285,-0.446 0.329,-0.409 0.333,-0.341L0.332,-0.341ZM0.215,-0.061C0.189,-0.061 0.164,-0.079 0.164,-0.109C0.164,-0.147 0.184,-0.17 0.238,-0.194C0.271,-0.207 0.308,-0.226 0.332,-0.257L0.33,-0.136C0.308,-0.083 0.251,-0.061 0.215,-0.061Z" class="textColor" style="fill-rule:nonzero;"/>
			 </g>
			 <g transform="matrix(658.502,0,0,658.502,2569.82,1072.74)">
				<path d="M0.279,0.01C0.379,0.01 0.485,-0.072 0.485,-0.185C0.452,-0.119 0.382,-0.091 0.32,-0.091C0.223,-0.091 0.153,-0.158 0.153,-0.28C0.153,-0.376 0.215,-0.442 0.29,-0.442C0.35,-0.442 0.327,-0.385 0.327,-0.345C0.327,-0.295 0.361,-0.272 0.398,-0.272C0.444,-0.272 0.47,-0.309 0.47,-0.349C0.47,-0.43 0.395,-0.489 0.301,-0.489C0.149,-0.489 0.04,-0.384 0.04,-0.224C0.04,-0.091 0.135,0.01 0.279,0.01Z" class="textColor" style="fill-rule:nonzero;"/>
			 </g>
			 <g transform="matrix(658.502,0,0,658.502,2908.95,1072.74)">
				<path d="M0.572,-0.479L0.439,-0.479L0.438,-0.477L0.438,-0.479L0.342,-0.479L0.407,-0.408L0.294,-0.154L0.175,-0.417L0.251,-0.479L-0.049,-0.479L0.054,-0.401L0.231,-0.014L0.207,0.04C0.194,0.062 0.169,0.122 0.127,0.122C0.095,0.122 0.056,0.102 0.066,0.028L-0.046,0.157C-0.02,0.21 0.019,0.237 0.086,0.237C0.169,0.237 0.217,0.159 0.254,0.071L0.463,-0.398L0.572,-0.479Z" class="textColor" style="fill-rule:nonzero;"/>
			 </g>
			 <g transform="matrix(658.502,0,0,658.502,3452.87,1072.74)">
				<path d="M0.724,0.032L0.724,-0.262L0.831,-0.342L0.477,-0.342L0.574,-0.271L0.574,-0.182C0.571,-0.094 0.519,-0.048 0.422,-0.048C0.265,-0.048 0.207,-0.196 0.207,-0.368C0.207,-0.54 0.298,-0.665 0.43,-0.665C0.559,-0.665 0.621,-0.554 0.709,-0.418L0.709,-0.743L0.608,-0.664C0.554,-0.711 0.485,-0.734 0.435,-0.734C0.204,-0.734 0.05,-0.589 0.05,-0.337C0.05,-0.135 0.178,0.018 0.397,0.018C0.478,0.018 0.564,-0.003 0.625,-0.068L0.724,0.032ZM0.475,-0.342L0.477,-0.342L0.475,-0.344L0.475,-0.342Z" class="textColor" style="fill-rule:nonzero;"/>
			 </g>
			 <g transform="matrix(658.502,0,0,658.502,4009.96,1072.74)">
				<path d="M0.505,-0.509L0.444,-0.471L0.444,-0.472L0.313,-0.392L0.385,-0.355L0.385,-0.138C0.379,-0.11 0.36,-0.063 0.293,-0.063C0.219,-0.063 0.201,-0.115 0.2,-0.199L0.201,-0.509L0.14,-0.471L0.14,-0.472L0.009,-0.392L0.08,-0.356L0.08,-0.163C0.08,-0.049 0.145,0.011 0.24,0.011C0.317,0.011 0.361,-0.02 0.392,-0.073L0.415,0.023L0.577,-0.058L0.505,-0.108L0.505,-0.509Z" class="textColor" style="fill-rule:nonzero;"/>
			 </g>
			 <g transform="matrix(658.502,0,0,658.502,4403.09,1072.74)">
				<path d="M0.024,-0L0.293,-0L0.216,-0.07L0.216,-0.509L0.155,-0.472L0.096,-0.436L0.024,-0.392L0.096,-0.355L0.096,-0.07L0.024,-0ZM0.086,-0.64C0.086,-0.598 0.12,-0.564 0.162,-0.564C0.203,-0.564 0.238,-0.598 0.238,-0.64C0.238,-0.681 0.203,-0.716 0.162,-0.716C0.12,-0.716 0.086,-0.681 0.086,-0.64Z" class="textColor" style="fill-rule:nonzero;"/>
			 </g>
			 <g transform="matrix(658.502,0,0,658.502,4603.93,1072.74)">
				<path d="M0.259,0.013C0.315,0.013 0.379,-0.01 0.413,-0.063L0.437,0.023L0.599,-0.058L0.527,-0.108L0.527,-0.75L0.491,-0.725L0.491,-0.726L0.335,-0.622L0.407,-0.587L0.407,-0.47C0.377,-0.482 0.346,-0.487 0.318,-0.487C0.154,-0.487 0.041,-0.363 0.041,-0.229C0.041,-0.063 0.152,0.013 0.259,0.013ZM0.326,-0.076C0.237,-0.076 0.165,-0.14 0.165,-0.275C0.165,-0.366 0.216,-0.437 0.297,-0.437C0.361,-0.437 0.4,-0.401 0.407,-0.325L0.407,-0.099C0.379,-0.078 0.346,-0.076 0.326,-0.076Z" style="fill-rule:nonzero;" class="textColor"/>
			 </g>
			 <g transform="matrix(658.502,0,0,658.502,5011.54,1072.74)">
				<path d="M0.275,0.01C0.38,0.01 0.486,-0.071 0.486,-0.184C0.447,-0.121 0.389,-0.091 0.319,-0.091C0.22,-0.091 0.157,-0.158 0.153,-0.259L0.49,-0.259L0.49,-0.309L0.489,-0.309C0.479,-0.448 0.364,-0.489 0.281,-0.489C0.135,-0.489 0.04,-0.37 0.04,-0.23C0.04,-0.107 0.12,0.01 0.275,0.01ZM0.266,-0.442C0.329,-0.442 0.362,-0.388 0.362,-0.309L0.153,-0.309C0.154,-0.394 0.212,-0.442 0.266,-0.442Z" class="textColor" style="fill-rule:nonzero;"/>
			 </g>
			 <g transform="matrix(658.502,0,0,658.502,5353.97,1072.74)">
				<path d="M0.218,-0.494C0.13,-0.494 0.054,-0.441 0.054,-0.343C0.054,-0.245 0.112,-0.205 0.206,-0.185C0.253,-0.175 0.322,-0.163 0.322,-0.106C0.322,-0.065 0.28,-0.045 0.247,-0.045C0.211,-0.045 0.184,-0.049 0.156,-0.07C0.111,-0.105 0.084,-0.156 0.052,-0.205L0.053,0.018L0.128,-0.019C0.156,-0.003 0.193,0.01 0.245,0.01C0.359,0.01 0.412,-0.077 0.412,-0.144C0.412,-0.258 0.345,-0.289 0.241,-0.315C0.181,-0.33 0.142,-0.349 0.142,-0.38C0.142,-0.419 0.177,-0.44 0.225,-0.44C0.252,-0.44 0.288,-0.428 0.311,-0.408C0.348,-0.379 0.373,-0.344 0.395,-0.304L0.394,-0.509L0.316,-0.466C0.29,-0.481 0.252,-0.494 0.218,-0.494Z" class="textColor" style="fill-rule:nonzero;"/>
			 </g>
		  </g>
	   </g>
    </g>
</svg>
