<svg width="100%" height="100%" viewBox="0 0 24 24" fill="none" xmlns="http://www.w3.org/2000/svg"><rect width="24" height="24" fill="none" rx="0" ry="0"></rect><path fill-rule="evenodd" clip-rule="evenodd" d="M12.1924 12.6062C11.8595 12.8537 11.4471 13.0001 11.0004 13.0001C9.89586 13.0001 9.00043 12.1046 9.00043 11.0001C9.00043 10.9413 9.00297 10.8832 9.00944 10.8241C8.76369 10.9759 8.50845 11.1445 8.24085 11.3318L4.17076 14.1808C3.71831 14.4975 3.60828 15.1211 3.92499 15.5735C3.99194 15.6692 4.07512 15.7523 4.17076 15.8193L8.24085 18.6684C9.49902 19.5491 10.4841 20.0159 11.4928 20.2614C12.5015 20.5068 13.4994 20.5068 14.508 20.2614C15.5167 20.0159 16.5018 19.5491 17.76 18.6684L21.8301 15.8193C22.2826 15.5026 22.3926 14.879 22.0759 14.4266C22.0089 14.331 21.9257 14.2478 21.8301 14.1808L17.76 11.3318C16.5018 10.451 15.5167 9.98422 14.508 9.73877C13.8356 9.57514 13.1679 9.5206 12.4987 9.57514L12.4127 9.58392C12.6696 9.84013 12.8572 10.1658 12.945 10.5304L17.9606 15.546C18.3511 15.9365 18.3511 16.5697 17.9606 16.9602C17.5701 17.3507 16.9369 17.3507 16.5464 16.9602L12.1924 12.6062Z" class="svg-light"></path><path fill-rule="evenodd" clip-rule="evenodd" d="M7.70744 6.00192C7.51217 5.80665 7.19559 5.80665 7.00033 6.00192C6.80507 6.19718 6.80507 6.51376 7.00033 6.70902L16.8998 16.6085C17.0951 16.8038 17.4117 16.8038 17.6069 16.6085C17.8022 16.4133 17.8022 16.0967 17.6069 15.9014L7.70744 6.00192ZM5.39589 9.01469C6.12088 8.50715 6.74012 8.07364 7.29251 7.70829L8.01527 8.43106C7.42771 8.81442 6.73368 9.2989 5.8643 9.90746L4.15961 11.1007C3.83687 11.3267 3.62278 11.4771 3.47275 11.6037C3.32425 11.729 3.29082 11.7892 3.28056 11.8146C3.232 11.9347 3.232 12.0691 3.28056 12.1892C3.29082 12.2146 3.32425 12.2748 3.47275 12.4001C3.62278 12.5267 3.83687 12.6771 4.15961 12.9031L5.8643 14.0963C8.21228 15.7399 9.28125 16.4784 10.4282 16.7643C11.4605 17.0216 12.5402 17.0216 13.5725 16.7643C14.166 16.6164 14.7386 16.3472 15.4784 15.8942L16.2049 16.6207C15.3111 17.1821 14.5824 17.5432 13.8144 17.7346C12.6232 18.0315 11.3775 18.0315 10.1863 17.7346C8.83736 17.3984 7.60959 16.5389 5.39588 14.9891L5.29083 14.9156L3.58615 13.7223L3.56726 13.7091C3.26836 13.4999 3.01663 13.3236 2.8279 13.1644C2.63368 13.0006 2.45413 12.8132 2.3534 12.5639C2.20772 12.2034 2.20772 11.8004 2.3534 11.4399C2.45413 11.1906 2.63368 11.0033 2.8279 10.8394C3.01662 10.6802 3.26834 10.504 3.56724 10.2948L3.56728 10.2947L3.56732 10.2947L3.56733 10.2947L3.58615 10.2815L5.29084 9.08823L5.39589 9.01469ZM11.4626 9.04992L11.47 9.05736C12.1973 9.2324 12.7699 9.80491 12.9449 10.5323L14.9523 12.5396C14.9839 12.3652 15.0003 12.1855 15.0003 12.0019C15.0003 10.3451 13.6572 9.00191 12.0003 9.00191C11.8166 9.00191 11.6368 9.01842 11.4626 9.04992ZM11.0003 13.0019C11.447 13.0019 11.8594 12.8555 12.1923 12.6081L13.9045 14.3203C13.3865 14.7462 12.7233 15.0019 12.0003 15.0019C10.3435 15.0019 9.00035 13.6588 9.00035 12.0019C9.00035 11.8134 9.01773 11.629 9.05099 11.4501C9.25449 12.3391 10.05 13.0019 11.0003 13.0019ZM18.1364 14.0963C17.7906 14.3384 17.4725 14.5609 17.1778 14.7651L17.8967 15.484C18.121 15.3278 18.3562 15.1632 18.6037 14.9899L18.6048 14.9891L18.7099 14.9156L20.4145 13.7223L20.4334 13.7091L20.4334 13.7091C20.7323 13.4999 20.9841 13.3237 21.1728 13.1644C21.367 13.0006 21.5466 12.8132 21.6473 12.5639C21.793 12.2034 21.793 11.8004 21.6473 11.4399C21.5466 11.1906 21.367 11.0033 21.1728 10.8394C20.9841 10.6802 20.7323 10.5039 20.4334 10.2947L20.4333 10.2947L20.4145 10.2815L18.7099 9.08824L18.6048 9.0147C16.3911 7.46496 15.1633 6.60543 13.8144 6.26918C12.6232 5.97227 11.3775 5.97227 10.1863 6.26918C9.81616 6.36145 9.45511 6.49313 9.0803 6.66766L9.84051 7.42787C10.0386 7.35036 10.2323 7.28832 10.4282 7.23948C11.4605 6.98216 12.5402 6.98216 13.5725 7.23948C14.7194 7.52538 15.7884 8.26388 18.1364 9.90747L19.8411 11.1008C20.1638 11.3267 20.3779 11.4771 20.5279 11.6037C20.6764 11.729 20.7099 11.7892 20.7201 11.8146C20.7687 11.9347 20.7687 12.0691 20.7201 12.1892C20.7099 12.2146 20.6764 12.2748 20.5279 12.4001C20.3779 12.5267 20.1638 12.6771 19.8411 12.9031L18.1364 14.0963Z" class="svg-dark"></path></svg>
