<svg width="832" height="832" viewBox="0 0 832 832" fill="none" xmlns="http://www.w3.org/2000/svg">
<rect width="832" height="832" rx="195" fill="#08C225"/>
<path d="M286.55 301.825C296.372 289.101 304.71 277.343 310.718 266.105C319.389 249.888 323.656 233.947 320.186 216.98L286.55 301.825ZM286.55 301.825L286.868 301.761L273.308 318.646L266.159 327.549C266.159 327.549 266.159 327.549 266.159 327.549C260.866 334.14 252.933 337.913 244.47 337.913C239.149 337.913 233.962 336.395 229.497 333.499C229.491 333.496 229.486 333.492 229.481 333.489L228.6 332.922L228.037 332.57C202.503 316.555 181.352 303.289 166.328 289.042L166.328 289.042C152.471 275.899 144.409 262.341 142.31 246.569L142.308 246.558L142.307 246.547C140.1 229.59 146.166 212.515 158.574 200.836L286.55 301.825ZM237.816 181.704L237.816 181.704C246.638 176.611 256.57 173.884 266.569 173.884C267.66 173.884 268.753 173.918 269.827 173.981L237.816 181.704ZM237.816 181.704C232.942 184.518 228.504 187.992 224.647 191.991C216.305 187.706 206.959 185.424 197.425 185.424C182.756 185.424 169.257 190.778 158.575 200.835L237.816 181.704ZM309.682 194.484L309.682 194.484C314.888 201.064 318.521 208.828 320.186 216.978L309.682 194.484ZM309.682 194.484C304.409 187.819 297.594 182.465 289.953 179.023M309.682 194.484L289.953 179.023M289.953 179.023C283.544 176.092 276.764 174.387 269.827 173.981L289.953 179.023Z" fill="#20D34F" stroke="#1C1C1C" stroke-width="15.7473"/>
<path d="M265.965 196.16L265.955 196.159C265.257 196.117 264.565 196.096 263.877 196.096L265.965 196.16ZM265.965 196.16C270.24 196.41 274.621 197.442 278.987 199.44L279.011 199.452M265.965 196.16L279.011 199.452M279.011 199.452L279.036 199.463M279.011 199.452L279.036 199.463M279.036 199.463C288.757 203.832 295.87 212.956 297.978 223.274L297.978 223.275M279.036 199.463L297.978 223.275M297.978 223.275C300.409 235.162 297.234 247.396 288.494 262.569C279.67 277.888 265.885 295.024 248.537 316.573L248.52 316.594M297.978 223.275L248.52 316.594M248.52 316.594L248.503 316.615M248.52 316.594L248.503 316.615M248.503 316.615L247.836 317.456L247.421 317.979M248.503 316.615L247.421 317.979M247.421 317.979C245.937 319.49 243.883 320.322 241.773 320.322C240.312 320.322 238.883 319.921 237.638 319.113L237.622 319.102L237.606 319.092L236.622 318.46L236.585 318.436L236.549 318.413C210.681 302.188 190.752 289.633 177.345 276.92C166.609 266.736 160.808 257.125 159.359 246.27M247.421 317.979L159.359 246.27M159.359 246.27C158 235.792 161.807 224.909 169.534 217.637L169.535 217.636C176.916 210.688 185.871 207.639 194.732 207.639C203.664 207.639 212.88 210.915 219.629 216.45L226.589 222.159L231.321 214.501C237.994 203.7 250.501 196.1 263.876 196.096L159.359 246.27ZM293.85 297.821L294.671 297.653L281.007 314.668L266.718 332.461C260.63 340.042 251.51 344.382 241.773 344.382C235.651 344.382 229.694 342.632 224.564 339.318C224.559 339.314 224.553 339.31 224.547 339.306L223.665 338.742L223.045 338.353C197.344 322.232 176.067 308.885 160.757 294.366L160.757 294.366C146.279 280.634 137.863 266.426 135.541 249.891L135.406 249.354V248.859C134.353 240.119 135.365 231.114 138.324 222.75C141.367 214.144 146.431 206.326 153.013 200.133L293.85 297.821ZM293.85 297.821C299.837 289.716 305.137 281.937 309.446 274.438M293.85 297.821L309.446 274.438M309.446 274.438C314.909 264.932 318.704 256.052 320.832 247.363C320.832 247.363 320.832 247.363 320.832 247.362L313.185 245.489C315.343 236.682 315.565 228.36 313.861 220.039M309.446 274.438L313.861 220.039M313.861 220.039L321.576 218.463M313.861 220.039L321.575 218.46C321.575 218.461 321.576 218.462 321.576 218.463M321.576 218.463C319.783 209.683 315.867 201.315 310.261 194.227C304.581 187.043 297.234 181.274 288.972 177.55C282.095 174.409 274.827 172.583 267.379 172.144C266.208 172.073 265.026 172.04 263.876 172.04L321.576 218.463ZM216.169 187.309L216.172 187.31C217.846 187.907 219.489 188.569 221.098 189.296C224.693 185.906 228.699 182.921 233.027 180.423L216.169 187.309ZM216.169 187.309C209.246 184.844 202.032 183.586 194.728 183.586C187.407 183.586 179.915 184.914 172.975 187.566L172.975 187.566M216.169 187.309L172.975 187.566M172.975 187.566C165.58 190.391 158.859 194.63 153.014 200.132L172.975 187.566ZM263.872 172.04C253.14 172.041 242.488 174.961 233.029 180.422L263.872 172.04Z" fill="#1C1C1C" stroke="#1C1C1C" stroke-width="15.7473"/>
<rect x="298.404" y="290.699" width="233.941" height="284.222" fill="#1C1C1C"/>
<path d="M441.982 678.976H430.004C370.73 678.976 313.882 661.587 269.918 629.828C242.941 611.335 220.178 587.303 202.244 558.438L206.424 555.84L202.244 558.437C185.187 530.981 173.233 500.395 166.697 467.554L166.697 467.554C160.233 435.064 159.423 402.173 164.302 369.807C169.349 336.307 180.254 305.125 196.736 277.158C218.817 238.669 252.147 206.817 293.083 184.992C332.107 164.184 376.435 153.196 421.279 153.196C447.474 153.196 473.162 156.949 497.624 164.364C519.523 170.676 540.521 180.424 560.036 193.327L557.322 197.432L560.036 193.327C578.929 205.819 596.124 221.051 611.151 238.601C626.036 255.985 638.487 275.28 648.147 295.945M441.982 678.976L643.689 298.029M441.982 678.976L441.75 678.746M441.982 678.976L441.75 678.746M648.147 295.945L643.689 298.029M648.147 295.945C648.147 295.945 648.147 295.945 648.147 295.945L643.689 298.029M648.147 295.945C657.98 316.977 664.73 339.01 668.194 361.434M643.689 298.029C653.333 318.655 659.943 340.247 663.333 362.204M668.194 361.434C668.193 361.429 668.192 361.424 668.191 361.419L663.333 362.204M668.194 361.434C668.195 361.44 668.196 361.447 668.197 361.453L663.333 362.204M668.194 361.434L663.333 362.204M441.75 678.746C481.723 677.2 520.582 667.783 554.808 651.227C554.809 651.227 554.809 651.227 554.81 651.227L554.967 651.151L554.997 651.136L555.026 651.122L555.185 651.042L555.198 651.036L555.211 651.029C573.696 641.649 595.285 629.313 610.001 610.813L606.15 607.749L610.001 610.813C618.256 600.435 623.664 588.905 625.981 576.554C628.455 563.367 627.387 549.308 622.975 534.821C618.488 518.373 609.258 504.195 596.224 493.817C607.803 489.949 618.405 484.356 627.806 477.12C638.97 468.53 648.179 457.832 655.172 445.357L655.172 445.357C661.937 433.286 666.459 419.849 668.641 405.445M441.75 678.746L668.641 405.445M668.641 405.445C668.641 405.445 668.641 405.445 668.641 405.445L663.775 404.708L668.641 405.445ZM466.955 501.572C471.669 501.572 476.579 501.572 481.636 501.57C478.641 502.728 475.219 503.81 469.116 505.735L468.668 505.876L468.66 505.879L468.651 505.881C456.738 509.668 440.473 511.906 424.076 511.906C411.724 511.906 398.469 510.568 386.53 507.493C380.524 505.946 374.958 503.987 370.046 501.603C388.724 501.572 407.12 501.567 423.425 501.567C427.054 501.567 436.125 501.568 445.195 501.57H445.204C454.271 501.571 463.335 501.572 466.955 501.572ZM365.868 342.773C364.004 342.77 362.159 342.767 360.335 342.764C373.249 328.153 394.818 319.083 419.969 319.083C421.115 319.083 422.277 319.103 423.422 319.143C423.425 319.143 423.429 319.143 423.432 319.143L423.673 319.153L423.771 319.157H423.87H424.118C442.614 319.276 465.85 325.994 480.303 342.789C467.864 342.831 453.393 342.852 436.546 342.852C414.484 342.852 391.505 342.818 370.782 342.784V342.78L365.868 342.773Z" fill="#1C1C1C" stroke="#1C1C1C" stroke-width="9.84207"/>
<path d="M349.038 478.203C410.218 478.028 473.448 478.208 534.354 478.06C550.484 477.994 566.929 477.935 582.521 473.437C630.059 461.16 653.36 416.38 645.042 365.093C632.403 283.058 571.182 209.888 490.985 186.848C390.171 156.214 270.385 195.764 217.013 288.938C155.844 392.589 183.205 542.158 283.418 610.655C356.589 663.667 463.96 669.132 544.609 630.124C581.243 611.53 614.836 587.904 600.453 541.316C592.265 510.642 561.578 493.766 532.605 503.677C523.004 506.546 514.226 511.497 505.461 516.11C492.367 523.014 490.017 523.729 475.763 528.225C434.556 541.324 351.203 539.731 329.86 494.412C326.883 481.4 338.635 478.192 348.999 478.203H349.041H349.038ZM335.944 364.808C331.398 363.127 328.37 358.739 328.6 353.894C328.719 349.697 330.601 345.619 332.557 341.927C349.491 310.115 386.98 294.411 424.259 295.713C459.12 295.93 495.648 313.327 510.458 347.18C511.588 350.035 512.297 353.005 511.921 355.892C510.865 363.484 503.926 366.16 497.117 366.16C453.899 366.419 388.949 366.25 344.045 366.186C341.446 366.104 338.567 365.84 335.992 364.829L335.944 364.81V364.808Z" fill="white"/>
<path d="M244.384 330.04C240.564 330.04 236.862 328.95 233.684 326.886L232.734 326.275C206.683 309.936 186.104 297.025 171.66 283.329C158.699 271.035 151.825 259.026 150.029 245.53C148.146 231.064 153.329 216.504 163.885 206.569C173.107 197.886 184.676 193.297 197.339 193.297C207.709 193.297 217.81 196.407 226.242 202.124C230.354 196.669 235.618 192.016 241.667 188.523C249.333 184.097 257.913 181.758 266.484 181.758C267.414 181.758 268.353 181.787 269.28 181.841C275.23 182.189 281.065 183.653 286.614 186.193C293.087 189.105 298.908 193.665 303.421 199.369C307.873 204.997 310.972 211.631 312.386 218.556C318.333 247.633 298.369 274.653 267.019 313.729L267.083 313.716L259.934 322.62C256.149 327.333 250.481 330.04 244.384 330.04Z" fill="#20D34F"/>
<path d="M263.79 188.223C264.637 188.223 265.487 188.248 266.34 188.299C271.578 188.606 276.915 189.872 282.178 192.281C294.271 197.717 303.005 208.966 305.606 221.697C311.562 250.823 288.991 278.772 254.584 321.511L253.917 322.351L253.981 322.338C250.915 326.157 246.322 328.196 241.687 328.196C238.774 328.196 235.843 327.391 233.264 325.716L232.279 325.084C206.667 309.019 185.947 296.009 171.84 282.632C160.335 271.719 153.234 260.563 151.466 247.298C149.782 234.349 154.452 220.937 164.053 211.903C172.998 203.482 183.926 199.766 194.646 199.766C205.365 199.766 216.354 203.651 224.536 210.362C232.549 197.394 247.508 188.226 263.79 188.223ZM263.79 179.914C254.482 179.914 245.18 182.448 236.879 187.242C231.474 190.361 226.65 194.339 222.628 198.963C219.732 197.289 216.659 195.873 213.442 194.726C207.357 192.559 201.035 191.46 194.642 191.46C188.25 191.46 181.713 192.623 175.699 194.921C169.284 197.372 163.437 201.053 158.324 205.866C152.672 211.184 148.294 217.93 145.661 225.376C143.05 232.758 142.197 240.708 143.194 248.368V248.381L143.197 248.394C145.128 262.877 152.4 275.669 166.089 288.653C180.831 302.634 201.558 315.634 227.795 332.092L228.738 332.696C232.59 335.188 237.068 336.508 241.687 336.508C249.058 336.508 255.912 333.236 260.492 327.531L274.782 309.738L274.657 309.764C285.97 295.457 295.637 282.517 302.533 270.514C307.732 261.467 311.19 253.28 313.099 245.489C315.257 236.682 315.479 228.36 313.775 220.039C312.233 212.484 308.852 205.246 303.999 199.11C299.082 192.892 292.731 187.916 285.633 184.72C279.616 181.969 273.29 180.384 266.824 180.004C265.82 179.943 264.794 179.914 263.787 179.914H263.79Z" fill="#1C1C1C"/>
<path d="M185.067 418.584C192.884 395.132 208.519 352.919 250.732 329.467H236.661L213.209 315.396L199.138 310.706L185.067 306.016L170.996 381.061L185.067 418.584Z" fill="#1C1C1C" fill-opacity="0.1"/>
<path d="M187.909 245.627C194.986 245.627 200.723 239.911 200.723 232.86C200.723 225.809 194.986 220.094 187.909 220.094C180.833 220.094 175.096 225.809 175.096 232.86C175.096 239.911 180.833 245.627 187.909 245.627Z" fill="#58E87A"/>
<circle cx="548.779" cy="558.408" r="57.5761" fill="white"/>
</svg>
