<svg version="1.1" viewBox="0 0 1024 1024" xmlns="http://www.w3.org/2000/svg"><g fill="#fff"><path d="m258.81 611.87c-18.342 0-34.491-3.588-48.447-10.766-13.757-7.177-24.424-16.946-32-29.307-7.576-12.561-11.364-26.816-11.364-42.766 0-16.149 3.688-30.404 11.065-42.765 7.576-12.561 17.844-22.33 30.803-29.308 12.96-7.178 27.613-10.766 43.962-10.766 15.75 0 29.906 3.389 42.466 10.168 12.76 6.579 22.829 16.149 30.205 28.709 7.377 12.361 11.066 27.215 11.066 44.56 0 1.794-0.1 3.888-0.299 6.28-0.2 2.193-0.399 4.287-0.599 6.281h-130.69v-27.215h106.17l-17.944 8.075c0-8.374-1.695-15.651-5.084-21.832-3.389-6.18-8.075-10.965-14.056-14.354-5.981-3.589-12.959-5.383-20.934-5.383s-15.053 1.794-21.233 5.383c-5.981 3.389-10.667 8.274-14.056 14.654-3.389 6.18-5.084 13.557-5.084 22.13v7.177c0 8.773 1.894 16.548 5.682 23.327 3.988 6.579 9.47 11.663 16.448 15.252 7.178 3.389 15.552 5.084 25.121 5.084 8.573 0 16.05-1.296 22.43-3.888 6.579-2.592 12.56-6.479 17.943-11.663l24.822 26.915c-7.376 8.374-16.647 14.854-27.812 19.439-11.165 4.386-24.025 6.579-38.579 6.579z"/><path d="m465.42 446.2c12.76 0 24.124 2.591 34.093 7.775 10.168 4.984 18.143 12.76 23.925 23.327 5.781 10.367 8.672 23.725 8.672 40.074v92.11h-46.653v-84.933c0-12.959-2.891-22.529-8.673-28.71-5.582-6.18-13.557-9.27-23.924-9.27-7.377 0-14.056 1.595-20.037 4.785-5.782 2.99-10.368 7.675-13.757 14.055-3.19 6.38-4.785 14.555-4.785 24.523v79.55h-46.653v-160.89h44.56v44.56l-8.374-13.458c5.782-10.766 14.056-19.04 24.822-24.822s23.027-8.672 36.784-8.672z"/><path d="m640.19 611.87c-18.94 0-33.694-4.784-44.261-14.354-10.566-9.77-15.85-24.224-15.85-43.364v-141.16h46.654v140.56c0 6.779 1.794 12.062 5.383 15.85 3.588 3.589 8.473 5.383 14.654 5.383 7.376 0 13.657-1.994 18.84-5.981l12.561 32.896c-4.785 3.39-10.567 5.982-17.346 7.776-6.579 1.595-13.457 2.392-20.635 2.392zm-84.933-123.81v-35.887h111.55v35.887h-111.55z"/><path d="m779.24 611.87c-18.343 0-34.492-3.588-48.448-10.766-13.757-7.177-24.423-16.946-31.999-29.307-7.577-12.561-11.365-26.816-11.365-42.766 0-16.149 3.689-30.404 11.065-42.765 7.577-12.561 17.844-22.33 30.804-29.308 12.959-7.178 27.613-10.766 43.961-10.766 15.751 0 29.906 3.389 42.467 10.168 12.76 6.579 22.828 16.149 30.205 28.709 7.377 12.361 11.065 27.215 11.065 44.56 0 1.794-0.1 3.888-0.299 6.28-0.199 2.193-0.399 4.287-0.598 6.281h-130.69v-27.215h106.17l-17.944 8.075c0-8.374-1.694-15.651-5.084-21.832-3.389-6.18-8.074-10.965-14.055-14.354-5.982-3.589-12.96-5.383-20.935-5.383s-15.052 1.794-21.233 5.383c-5.981 3.389-10.666 8.274-14.056 14.654-3.389 6.18-5.084 13.557-5.084 22.13v7.177c0 8.773 1.894 16.548 5.683 23.327 3.987 6.579 9.47 11.663 16.448 15.252 7.177 3.389 15.551 5.084 25.121 5.084 8.573 0 16.049-1.296 22.429-3.888 6.58-2.592 12.561-6.479 17.944-11.663l24.822 26.915c-7.377 8.374-16.648 14.854-27.813 19.439-11.165 4.386-24.024 6.579-38.578 6.579z"/></g></svg>
