<?xml version="1.0" encoding="UTF-8"?>
<svg width="128" height="128" version="1.1" viewBox="0 0 33.867 33.867" xmlns="http://www.w3.org/2000/svg"><rect x="1.33e-6" y="1.33e-6" width="33.867" height="33.867" rx="6.7733" fill="#08c225" stroke-width=".034735"/><path d="m12.001 12.577c0.37531-0.48615 0.69387-0.93541 0.92343-1.3648 0.33127-0.6196 0.49432-1.2287 0.36177-1.877-0.063635-0.31147-0.20244-0.60811-0.40136-0.85955-0.20146-0.25464-0.46184-0.45923-0.75382-0.59074-0.24488-0.11199-0.50394-0.17715-0.76896-0.19268zm0 0 0.01216-0.0024-0.51811 0.64517-0.27316 0.3402c-0.20223 0.25183-0.50536 0.39598-0.82871 0.39598-0.2033 0-0.4015-0.05801-0.57209-0.16864-2.084e-4 -1.38e-4 -4.169e-4 -2.77e-4 -6.253e-4 -4.16e-4l-0.033693-0.02164-0.021501-0.01348c-0.97561-0.61192-1.7838-1.1188-2.3578-1.6631l-3.48e-5 -3.5e-5c-0.52943-0.50216-0.83746-1.0202-0.91766-1.6228l-6.95e-5 -4.52e-4 -6.94e-5 -4.17e-4c-0.084302-0.64791 0.14748-1.3003 0.62155-1.7465zm-1.8621-4.5896h3.5e-5c0.33703-0.19459 0.71655-0.29879 1.0986-0.29879 0.04168 0 0.08343 0.00129 0.12446 0.00368zm0 0c-0.18621 0.10754-0.35579 0.24026-0.50317 0.39306-0.31873-0.16374-0.6758-0.25096-1.0401-0.25096-0.56048 0-1.0763 0.20459-1.4844 0.58886z" fill="#20d34f" stroke="#1c1c1c" stroke-width=".60168"/><g fill="#1c1c1c"><path d="m11.215 8.5394-4.17e-4 -3.48e-5c-0.02664-0.0016-0.05307-0.0024-0.07937-0.0024zc0.16332 0.00955 0.33071 0.048976 0.49754 0.12536l9.38e-4 4.168e-4m-0.49848-0.12578 0.49848 0.12578 9.38e-4 4.169e-4m-9.38e-4 -4.169e-4 9.38e-4 4.169e-4c0.37142 0.16697 0.64319 0.51557 0.72374 0.90978v6.95e-5m-0.72374-0.90985 0.72374 0.90985c0.09288 0.45416-0.02841 0.92163-0.36236 1.5014-0.33714 0.58532-0.86386 1.2401-1.5267 2.0634l-6.6e-4 7.99e-4m1.8897-3.5656-1.8897 3.5656-6.25e-4 7.99e-4m6.25e-4 -7.99e-4 -6.25e-4 7.99e-4 -0.02549 0.03213-0.01584 0.01997m0.04134-0.0521-0.04134 0.0521c-0.05676 0.05773-0.13519 0.08955-0.21584 0.08955-0.05579 0-0.11042-0.01535-0.15798-0.04623l-5.91e-4 -3.82e-4 -6.25e-4 -3.82e-4 -0.03762-0.02417-0.0014-9.03e-4 -0.0014-8.69e-4c-0.98833-0.61996-1.7498-1.0996-2.2621-1.5854-0.41022-0.3891-0.63187-0.75632-0.68723-1.1711m3.3647 2.7399-3.3647-2.7399m0 0c-0.051929-0.40036 0.093541-0.81617 0.38879-1.094h3.47e-5c0.28201-0.26548 0.62415-0.38198 0.96272-0.38198 0.34127 0 0.69342 0.12519 0.95129 0.33669l0.26593 0.2181 0.1808-0.29261c0.25499-0.41269 0.73284-0.70307 1.2439-0.70321zm5.1386 1.9698 0.0314-0.0064-1.068 1.3299c0 3.5e-5 0 3.5e-5 -3.4e-5 3.5e-5 -0.23259 0.28966-0.58105 0.45545-0.9531 0.45545-0.23391 0-0.46156-0.06686-0.65753-0.19351l-6.252e-4 -4.17e-4 -0.033693-0.02157-0.023689-0.01487c-0.98203-0.61595-1.795-1.1259-2.3799-1.6806v-3.5e-5c-0.55319-0.52464-0.87473-1.0675-0.96348-1.6993l-0.00514-0.02053v-0.01886c-0.040259-0.33398-0.0015639-0.67803 0.11146-0.99762 0.11629-0.32884 0.30977-0.62752 0.56128-0.86417zc0.2288-0.3097 0.43134-0.60696 0.59598-0.89352m-0.59598 0.89352-1.0113-4.802m1.6073 3.9085-3.5e-5 3.5e-5 -0.26082-0.14992zc0.20872-0.36319 0.35371-0.70248 0.43502-1.0344 0.09236-0.37674 0.10299-0.73979 0.02845-1.1042-0.068535-0.33551-0.21814-0.65524-0.43235-0.92607-0.21706-0.27448-0.49772-0.49487-0.81343-0.63718-0.26274-0.12001-0.54041-0.18979-0.82503-0.20657m2.0424 2.874-0.29219-0.07162 0.29223 0.07159c-3.4e-5 0-3.4e-5 3.5e-5 -3.4e-5 3.5e-5zm-2.0424-2.874c1.04e-4 3.47e-5 1.73e-4 3.47e-5 2.43e-4 3.47e-5l-0.01817 0.30028 0.01768-0.30032h2.43e-4zm0 0c-0.0447-0.00267-0.0899-0.00393-0.13387-0.00393zm-1.9567 0.57945 1.39e-4 3.48e-5c0.063947 0.022786 0.12671 0.048108 0.18816 0.075896 0.13738-0.12953 0.29045-0.24356 0.45583-0.33901zc-0.26451-0.094201-0.54016-0.14224-0.81923-0.14224-0.27972 0-0.56597 0.050748-0.83114 0.15207h-3.47e-5m1.6504-0.00983-1.6504 0.00983m0 0c-0.2825 0.10792-0.53933 0.26989-0.76264 0.48011zm3.4731-0.5932c-0.41008 0-0.81707 0.11157-1.1785 0.32026z" stroke="#1c1c1c" stroke-width=".60168"/><rect x="12.454" y="12.152" width="8.9385" height="10.86" stroke-width=".034735"/><path d="m17.483 26.987h0.45736l-0.0089-0.0088c1.5274-0.05902 3.0123-0.41884 4.3201-1.0514 0-3.4e-5 3.4e-5 -3.4e-5 3.4e-5 -3.4e-5l6e-3 -0.0029 0.0022-0.001112 0.0061-3e-3 4.86e-4 -2.77e-4 4.86e-4 -2.44e-4c0.70627-0.3584 1.5312-0.82972 2.0934-1.5366l-0.14714-0.11702 0.14714 0.11702c0.31543-0.3965 0.52203-0.83708 0.61057-1.309 0.09455-0.50383 0.0537-1.041-0.11483-1.5945-0.17145-0.62846-0.52412-1.1702-1.0221-1.5667 0.44246-0.1478 0.8475-0.36152 1.2067-0.63798 0.42662-0.32821 0.77845-0.73697 1.0456-1.2136v-3.5e-5c0.25846-0.46118 0.43127-0.9746 0.51464-1.5249 0.08197-0.54093 0.07579-1.1069-0.01713-1.6817-0.13234-0.85674-0.39021-1.6985-0.76591-2.5021-0.36913-0.7896-0.84483-1.5268-1.4136-2.1911-0.57401-0.67055-1.231-1.2525-1.9529-1.7298l-0.10368 0.15683 0.10368-0.15683c-0.74562-0.49299-1.5479-0.86549-2.3846-1.1066-0.93468-0.2833-1.9162-0.42672-2.9171-0.42672-1.7134 0-3.4071 0.41981-4.8982 1.2149-1.5641 0.83392-2.8376 2.0509-3.6813 3.5215-0.62978 1.0686-1.0464 2.26-1.2393 3.54-0.18642 1.2367-0.15547 2.4934 0.091492 3.7347v3.5e-5c0.24974 1.2548 0.70648 2.4234 1.3582 3.4725 0.68522 1.1029 1.5549 2.0211 2.5857 2.7277 1.6798 1.2135 3.8519 1.8779 6.1167 1.8779zm1.4119-6.7783c0.1801 0 0.3677-3.4e-5 0.5609-6.9e-5 -0.11442 0.04422-0.24519 0.08559-0.47834 0.15912l-0.01716 0.0054-3.13e-4 1.04e-4 -3.12e-4 1.04e-4c-0.45517 0.14464-1.0766 0.23019-1.7032 0.23019-0.47194 0-0.97838-0.05113-1.4346-0.16864-0.22949-0.05912-0.44214-0.13394-0.62985-0.22505 0.71367-0.0012 1.4166-0.0014 2.0395-0.0014 0.13866 0 0.48528 3.5e-5 0.83184 1.04e-4h3.47e-4c0.34641 3.5e-5 0.69272 1.04e-4 0.83107 1.04e-4zm-3.8624-6.0675c-0.07124-1.05e-4 -0.14172-2.09e-4 -0.21143-3.13e-4 0.49345-0.5583 1.3176-0.90485 2.2785-0.90485 0.0438 0 0.08812 7.64e-4 0.13185 0.0023 1.74e-4 0 3.47e-4 0 4.86e-4 3.4e-5l0.0092 3.48e-4 0.0038 1.73e-4h0.0133c0.70672 0.0046 1.5945 0.26124 2.1467 0.90297-0.47528 0.0016-1.0282 0.0024-1.6719 0.0024-0.84295 0-1.7209-0.0013-2.5127-0.0026v-1.04e-4z" stroke="#1c1c1c" stroke-width=".37605"/></g><g stroke-width=".034735"><path d="m14.389 19.316c2.3376-0.0067 4.7535 2.08e-4 7.0807-0.0055 0.61627-0.0025 1.2446-0.0048 1.8404-0.17663 1.8163-0.4691 2.7067-2.18 2.3888-4.1397-0.48292-3.1344-2.8221-5.9301-5.8863-6.8104-3.852-1.1705-8.4288 0.34065-10.468 3.9007-2.3372 3.9604-1.2918 9.6752 2.5373 12.292 2.7957 2.0255 6.8982 2.2343 9.9797 0.74392 1.3997-0.71044 2.6833-1.6132 2.1337-3.3932-0.31282-1.172-1.4854-1.8168-2.5923-1.4381-0.36687 0.10962-0.70227 0.29879-1.0372 0.47504-0.50032 0.26381-0.59011 0.29111-1.1347 0.46291-1.5745 0.5005-4.7593 0.43964-5.5748-1.292-0.11376-0.49716 0.3353-0.61971 0.73124-0.61933h0.0016zm-0.50032-4.3326c-0.17371-0.06423-0.28938-0.23186-0.28059-0.417 0.0046-0.16037 0.07645-0.31619 0.15117-0.45725 0.64704-1.2155 2.0794-1.8155 3.5038-1.7658 1.332 0.0083 2.7277 0.67299 3.2935 1.9665 0.04318 0.1091 0.07027 0.22258 0.05592 0.33287-0.04036 0.29011-0.30546 0.39233-0.56563 0.39233-1.6513 0.0099-4.133 0.0034-5.8487 1e-3 -0.09931-0.0031-0.20931-0.01323-0.30768-0.05186l-0.0018-6.94e-4z" fill="#fff"/><path d="m10.39 13.655c-0.14596 0-0.2874-0.04161-0.40883-0.1205l-0.036298-0.023342c-0.99537-0.62429-1.7817-1.1176-2.3335-1.6409-0.49525-0.46972-0.75788-0.92857-0.82652-1.4442-0.071936-0.55277 0.12612-1.1091 0.52943-1.4887 0.35235-0.33175 0.79439-0.5071 1.2782-0.5071 0.39622 0 0.78213 0.11883 1.1043 0.33728 0.15711-0.20844 0.35822-0.38622 0.58935-0.51967 0.29292-0.16912 0.62075-0.2585 0.9482-0.2585 0.03557 0 0.07145 0.00111 0.10688 0.00316 0.22734 0.013338 0.45027 0.069262 0.66229 0.16631 0.24731 0.11126 0.46976 0.28549 0.64218 0.50341 0.1701 0.21504 0.28847 0.46851 0.34252 0.73312 0.22724 1.111-0.53554 2.1434-1.7334 3.6364l0.0024-4.86e-4 -0.27316 0.3402c-0.14464 0.1801-0.36118 0.28351-0.59414 0.28351z" fill="#20d34f"/><path d="m11.132 8.2361c0.03234 0 0.06482 9.726e-4 0.09743 0.00295 0.20011 0.011706 0.40404 0.060057 0.60515 0.15214 0.46205 0.20768 0.79574 0.63749 0.89516 1.1239 0.22755 1.1128-0.63485 2.1807-1.9495 3.8137l-0.02549 0.03213 0.0024-5.21e-4c-0.11716 0.14592-0.29264 0.22383-0.46972 0.22383-0.11129 0-0.22331-0.03078-0.32185-0.09476l-0.037618-0.02418c-0.97856-0.61379-1.7702-1.1109-2.3093-1.622-0.43957-0.41699-0.71092-0.84323-0.77845-1.3501-0.064329-0.49477 0.1141-1.0072 0.48091-1.3524 0.34179-0.32175 0.75934-0.46375 1.1689-0.46375 0.4096 0 0.82944 0.14849 1.1421 0.40491 0.30615-0.4955 0.87772-0.8458 1.4998-0.84594zm0-0.31744c-0.35565 0-0.71106 0.096807-1.0282 0.27996-0.2065 0.11918-0.39084 0.27118-0.54451 0.44787-0.11067-0.063982-0.22807-0.11806-0.351-0.1619-0.23248-0.082808-0.47406-0.1248-0.71829-0.1248-0.24426 0-0.49404 0.044461-0.72381 0.13224-0.24513 0.093646-0.46854 0.23432-0.66389 0.41821-0.21591 0.20317-0.38323 0.46093-0.48382 0.74541-0.099759 0.28208-0.13238 0.58584-0.094236 0.87852v4.87e-4l1.043e-4 5.21e-4c0.073777 0.55336 0.35162 1.0421 0.87466 1.5382 0.56326 0.53422 1.3552 1.0309 2.3577 1.6597l0.03602 0.02306c0.14717 0.09524 0.31828 0.14568 0.49477 0.14568 0.2816 0 0.5435-0.12505 0.71853-0.34297l0.54597-0.67987-0.0048 9.72e-4c0.43228-0.54666 0.80165-1.041 1.0651-1.4996 0.19868-0.34568 0.33078-0.65851 0.40372-0.95619 0.08246-0.33651 0.0909-0.65444 0.02584-0.97241-0.058936-0.28864-0.18812-0.5652-0.37353-0.79963-0.18788-0.23762-0.43054-0.42773-0.70175-0.54982-0.22991-0.10514-0.4716-0.16572-0.71867-0.18024-0.03835-0.00233-0.07756-0.0034-0.11605-0.0034z" fill="#1c1c1c"/><path d="m8.1239 17.038c0.29869-0.89606 0.89606-2.509 2.509-3.405h-0.53763l-0.89606-0.53766-1.0753-0.3584-0.53763 2.8674z" fill="#1c1c1c" fill-opacity=".1"/><path d="m8.2324 10.429c0.27041 0 0.48959-0.21838 0.48959-0.48778 0-0.2694-0.21918-0.48778-0.48959-0.48778-0.27038 0-0.48959 0.21838-0.48959 0.48778 0 0.26941 0.21921 0.48778 0.48959 0.48778z" fill="#58e87a"/><circle cx="22.021" cy="22.38" r="2.1999" fill="#fff"/></g></svg>
