<svg version="1.1" viewBox="0 0 1024 1024" xmlns="http://www.w3.org/2000/svg"><rect width="1024" height="1024" fill="#fff"/><g><path d="m225.79 624.82c-20.735 0-38.991-4.057-54.767-12.171-15.551-8.113-27.609-19.157-36.173-33.13-8.565-14.199-12.847-30.314-12.847-48.344 0-18.256 4.169-34.37 12.508-48.344 8.565-14.198 20.172-25.242 34.821-33.13 14.65-8.114 31.215-12.171 49.696-12.171 17.805 0 33.807 3.832 48.006 11.495 14.424 7.437 25.806 18.255 34.145 32.454 8.339 13.974 12.508 30.764 12.508 50.372 0 2.029-0.113 4.395-0.338 7.1-0.225 2.479-0.451 4.845-0.676 7.099h-147.74v-30.764h120.01l-20.284 9.128c0-9.466-1.915-17.693-5.747-24.679-3.831-6.987-9.128-12.396-15.889-16.227-6.761-4.057-14.65-6.086-23.665-6.086s-17.016 2.029-24.002 6.086c-6.762 3.831-12.058 9.353-15.89 16.565-3.831 6.987-5.747 15.326-5.747 25.017v8.113c0 9.917 2.141 18.707 6.424 26.37 4.507 7.437 10.705 13.184 18.593 17.241 8.114 3.831 17.58 5.747 28.398 5.747 9.691 0 18.143-1.465 25.355-4.395 7.437-2.93 14.199-7.324 20.284-13.184l28.06 30.426c-8.339 9.466-18.82 16.79-31.441 21.974-12.621 4.958-27.158 7.438-43.61 7.438z"/><path d="m459.34 437.52c14.425 0 27.271 2.93 38.54 8.79 11.494 5.635 20.509 14.424 27.045 26.369 6.536 11.72 9.804 26.82 9.804 45.301v104.12h-52.738v-96.011c0-14.65-3.268-25.468-9.804-32.454-6.311-6.987-15.326-10.481-27.045-10.481-8.339 0-15.89 1.804-22.651 5.41-6.536 3.38-11.72 8.677-15.551 15.889-3.606 7.212-5.409 16.452-5.409 27.721v89.926h-52.739v-181.88h50.372v50.372l-9.465-15.213c6.536-12.17 15.889-21.524 28.059-28.06 12.171-6.536 26.031-9.804 41.582-9.804z"/><path d="m656.91 624.82c-21.411 0-38.089-5.409-50.034-16.228-11.945-11.043-17.918-27.383-17.918-49.019v-159.57h52.739v158.89c0 7.662 2.028 13.635 6.085 17.917 4.057 4.057 9.579 6.085 16.565 6.085 8.339 0 15.439-2.253 21.299-6.761l14.198 37.187c-5.409 3.832-11.945 6.762-19.607 8.79-7.438 1.803-15.213 2.705-23.327 2.705zm-96.011-139.96v-40.568h126.1v40.568h-126.1z"/><path d="m814.1 624.82c-20.735 0-38.991-4.057-54.767-12.171-15.551-8.113-27.609-19.157-36.173-33.13-8.565-14.199-12.847-30.314-12.847-48.344 0-18.256 4.169-34.37 12.508-48.344 8.565-14.198 20.172-25.242 34.821-33.13 14.65-8.114 31.215-12.171 49.696-12.171 17.805 0 33.807 3.832 48.006 11.495 14.424 7.437 25.806 18.255 34.145 32.454 8.339 13.974 12.508 30.764 12.508 50.372 0 2.029-0.113 4.395-0.338 7.1-0.225 2.479-0.451 4.845-0.676 7.099h-147.74v-30.764h120.01l-20.284 9.128c0-9.466-1.915-17.693-5.747-24.679-3.831-6.987-9.128-12.396-15.889-16.227-6.761-4.057-14.65-6.086-23.665-6.086s-17.016 2.029-24.002 6.086c-6.762 3.831-12.058 9.353-15.89 16.565-3.831 6.987-5.747 15.326-5.747 25.017v8.113c0 9.917 2.141 18.707 6.424 26.37 4.507 7.437 10.705 13.184 18.593 17.241 8.114 3.831 17.58 5.747 28.398 5.747 9.691 0 18.143-1.465 25.355-4.395 7.437-2.93 14.199-7.324 20.284-13.184l28.059 30.426c-8.339 9.466-18.819 16.79-31.44 21.974-12.621 4.958-27.158 7.438-43.61 7.438z"/></g></svg>
