<svg xmlns="http://www.w3.org/2000/svg" xmlns:xlink="http://www.w3.org/1999/xlink" width="76" height="100"><defs><path id="a" d="M37.633 0c-.07-.004-.206.018-.206.018C-1.276 2.902-.737 39.744.304 54.732c.084 1.208 5.803 44.628 9.98 44.649 5.765.026 2.883-7.8 2.883-7.8s8.9 2.57 24.26 2.67v.004l.206-.002.207.002v-.004c15.358-.1 24.259-2.67 24.259-2.67s-2.882 7.826 2.883 7.8c4.176-.02 9.895-43.44 9.98-44.649 1.04-14.988 1.58-51.83-37.122-54.714 0 0-.113-.018-.186-.018h-.021"/><path id="d" d="M37.633 0c-.07-.004-.206.018-.206.018C-1.276 2.902-.737 39.744.304 54.732c.084 1.208 5.803 44.628 9.98 44.649 5.765.026 2.883-7.8 2.883-7.8s8.9 2.57 24.26 2.67v.004l.206-.002.207.002v-.004c15.358-.1 24.259-2.67 24.259-2.67s-2.882 7.826 2.883 7.8c4.176-.02 9.895-43.44 9.98-44.649 1.04-14.988 1.58-51.83-37.122-54.714 0 0-.113-.018-.186-.018h-.021"/><path id="f" d="M37.633 0c-.07-.004-.206.018-.206.018C-1.276 2.902-.737 39.744.304 54.732c.084 1.208 5.803 44.628 9.98 44.649 5.765.026 2.883-7.8 2.883-7.8s8.9 2.57 24.26 2.67v.004l.206-.002.207.002v-.004c15.358-.1 24.259-2.67 24.259-2.67s-2.882 7.826 2.883 7.8c4.176-.02 9.895-43.44 9.98-44.649 1.04-14.988 1.58-51.83-37.122-54.714 0 0-.113-.018-.186-.018h-.021"/><path id="h" d="M37.633 0c-.07-.004-.206.018-.206.018C-1.276 2.902-.737 39.744.304 54.732c.084 1.208 5.803 44.628 9.98 44.649 5.765.026 2.883-7.8 2.883-7.8s8.9 2.57 24.26 2.67v.004l.206-.002.207.002v-.004c15.358-.1 24.259-2.67 24.259-2.67s-2.882 7.826 2.883 7.8c4.176-.02 9.895-43.44 9.98-44.649 1.04-14.988 1.58-51.83-37.122-54.714 0 0-.113-.018-.186-.018h-.021"/><path id="j" d="M37.633 0c-.07-.004-.206.018-.206.018C-1.276 2.902-.737 39.744.304 54.732c.084 1.208 5.803 44.628 9.98 44.649 5.765.026 2.883-7.8 2.883-7.8s8.9 2.57 24.26 2.67v.004l.206-.002.207.002v-.004c15.358-.1 24.259-2.67 24.259-2.67s-2.882 7.826 2.883 7.8c4.176-.02 9.895-43.44 9.98-44.649 1.04-14.988 1.58-51.83-37.122-54.714 0 0-.113-.018-.186-.018h-.021"/><path id="l" d="M37.633 0c-.07-.004-.206.018-.206.018C-1.276 2.902-.737 39.744.304 54.732c.084 1.208 5.803 44.628 9.98 44.649 5.765.026 2.883-7.8 2.883-7.8s8.9 2.57 24.26 2.67v.004l.206-.002.207.002v-.004c15.358-.1 24.259-2.67 24.259-2.67s-2.882 7.826 2.883 7.8c4.176-.02 9.895-43.44 9.98-44.649 1.04-14.988 1.58-51.83-37.122-54.714 0 0-.113-.018-.186-.018h-.021"/><path id="n" d="M37.633 0c-.07-.004-.206.018-.206.018C-1.276 2.902-.737 39.744.304 54.732c.084 1.208 5.803 44.628 9.98 44.649 5.765.026 2.883-7.8 2.883-7.8s8.9 2.57 24.26 2.67v.004l.206-.002.207.002v-.004c15.358-.1 24.259-2.67 24.259-2.67s-2.882 7.826 2.883 7.8c4.176-.02 9.895-43.44 9.98-44.649 1.04-14.988 1.58-51.83-37.122-54.714 0 0-.113-.018-.186-.018h-.021"/><path id="p" d="M37.633 0c-.07-.004-.206.018-.206.018C-1.276 2.902-.737 39.744.304 54.732c.084 1.208 5.803 44.628 9.98 44.649 5.765.026 2.883-7.8 2.883-7.8s8.9 2.57 24.26 2.67v.004l.206-.002.207.002v-.004c15.358-.1 24.259-2.67 24.259-2.67s-2.882 7.826 2.883 7.8c4.176-.02 9.895-43.44 9.98-44.649 1.04-14.988 1.58-51.83-37.122-54.714 0 0-.113-.018-.186-.018h-.021"/><path id="r" d="M37.633 0c-.07-.004-.206.018-.206.018C-1.276 2.902-.737 39.744.304 54.732c.084 1.208 5.803 44.628 9.98 44.649 5.765.026 2.883-7.8 2.883-7.8s8.9 2.57 24.26 2.67v.004l.206-.002.207.002v-.004c15.358-.1 24.259-2.67 24.259-2.67s-2.882 7.826 2.883 7.8c4.176-.02 9.895-43.44 9.98-44.649 1.04-14.988 1.58-51.83-37.122-54.714 0 0-.113-.018-.186-.018h-.021"/><path id="t" d="M37.633 0c-.07-.004-.206.018-.206.018C-1.276 2.902-.737 39.744.304 54.732c.084 1.208 5.803 44.628 9.98 44.649 5.765.026 2.883-7.8 2.883-7.8s8.9 2.57 24.26 2.67v.004l.206-.002.207.002v-.004c15.358-.1 24.259-2.67 24.259-2.67s-2.882 7.826 2.883 7.8c4.176-.02 9.895-43.44 9.98-44.649 1.04-14.988 1.58-51.83-37.122-54.714 0 0-.113-.018-.186-.018h-.021"/><path id="v" d="M37.633 0c-.07-.004-.206.018-.206.018C-1.276 2.902-.737 39.744.304 54.732c.084 1.208 5.803 44.628 9.98 44.649 5.765.026 2.883-7.8 2.883-7.8s8.9 2.57 24.26 2.67v.004l.206-.002.207.002v-.004c15.358-.1 24.259-2.67 24.259-2.67s-2.882 7.826 2.883 7.8c4.176-.02 9.895-43.44 9.98-44.649 1.04-14.988 1.58-51.83-37.122-54.714 0 0-.113-.018-.186-.018h-.021"/><path id="x" d="M37.633 0c-.07-.004-.206.018-.206.018C-1.276 2.902-.737 39.744.304 54.732c.084 1.208 5.803 44.628 9.98 44.649 5.765.026 2.883-7.8 2.883-7.8s8.9 2.57 24.26 2.67v.004l.206-.002.207.002v-.004c15.358-.1 24.259-2.67 24.259-2.67s-2.882 7.826 2.883 7.8c4.176-.02 9.895-43.44 9.98-44.649 1.04-14.988 1.58-51.83-37.122-54.714 0 0-.113-.018-.186-.018h-.021"/><path id="z" d="m1.457 1.717-.86-.626L0 1.616l1.43 1.595.003-.002.002.002L3.999.602 3.542 0z"/><path id="C" d="M0 6.562a6.558 6.558 0 0 0 6.555 6.561 6.559 6.559 0 0 0 6.555-6.561A6.559 6.559 0 0 0 6.555 0 6.558 6.558 0 0 0 0 6.562m2.941-2.087 3.614-1.54 3.613 1.54s-.24 5.712-3.613 5.712-3.614-5.712-3.614-5.712"/><linearGradient id="b" x1="50%" x2="50%" y1="-2.782%" y2="99.64%"><stop offset="0%" stop-color="#5EB8E6"/><stop offset="100%" stop-color="#26A8DF"/></linearGradient><linearGradient id="A" x1=".001%" x2="100.006%" y1="49.999%" y2="49.999%"><stop offset="0%" stop-color="#8CC63F"/><stop offset="100%" stop-color="#38B549"/></linearGradient><linearGradient id="D" x1="-.001%" x2="100.001%" y1="49.999%" y2="49.999%"><stop offset="0%" stop-color="#8CC63F"/><stop offset="100%" stop-color="#38B549"/></linearGradient></defs><g fill="none" fill-rule="evenodd"><mask id="c" fill="#fff"><use xlink:href="#a"/></mask><path fill="url(#b)" fill-rule="nonzero" d="M37.633 0c-.07-.004-.206.018-.206.018C-1.276 2.902-.737 39.744.304 54.732c.084 1.208 5.803 44.628 9.98 44.649 5.765.026 2.883-7.8 2.883-7.8s8.9 2.57 24.26 2.67v.004l.206-.002.207.002v-.004c15.358-.1 24.259-2.67 24.259-2.67s-2.882 7.826 2.883 7.8c4.176-.02 9.895-43.44 9.98-44.649 1.04-14.988 1.58-51.83-37.122-54.714 0 0-.113-.018-.186-.018h-.021" mask="url(#c)"/><mask id="e" fill="#fff"><use xlink:href="#d"/></mask><path fill="#1A1A1A" fill-rule="nonzero" d="M53.845 38.495a3.453 3.453 0 0 0 3.444-3.448 3.452 3.452 0 0 0-3.444-3.447 3.453 3.453 0 0 0-3.445 3.447 3.453 3.453 0 0 0 3.445 3.448" mask="url(#e)"/><mask id="g" fill="#fff"><use xlink:href="#f"/></mask><path fill="#FFF" fill-rule="nonzero" d="M55.21 34.623a1.012 1.012 0 0 0 0-2.022 1.013 1.013 0 0 0 0 2.022" mask="url(#g)"/><mask id="i" fill="#fff"><use xlink:href="#h"/></mask><path fill="#1A1A1A" fill-rule="nonzero" d="M21.244 38.495a3.453 3.453 0 0 0 3.444-3.448 3.452 3.452 0 0 0-3.444-3.447 3.452 3.452 0 0 0-3.444 3.447 3.453 3.453 0 0 0 3.444 3.448" mask="url(#i)"/><mask id="k" fill="#fff"><use xlink:href="#j"/></mask><path fill="#FFF" fill-rule="nonzero" d="M22.81 34.623a1.013 1.013 0 0 0 0-2.023 1.012 1.012 0 0 0 0 2.023" mask="url(#k)"/><mask id="m" fill="#fff"><use xlink:href="#l"/></mask><path fill="#1A1A1A" fill-rule="nonzero" d="M43.45 45.013a.903.903 0 0 0-1.267.103c-.016.018-1.642 1.843-4.6 1.843-3.155 0-4.414-1.598-4.54-1.768a.902.902 0 1 0-1.486 1.02c.07.104 1.769 2.553 6.027 2.553 3.817 0 5.883-2.375 5.968-2.474a.908.908 0 0 0-.102-1.277" mask="url(#m)"/><mask id="o" fill="#fff"><use xlink:href="#n"/></mask><path fill="#A7A9AC" fill-rule="nonzero" d="M55.774 67.897 37.788 78.515 19.8 67.897c0-.01 0-.02.003-.03.014-.067 1.007-.897 2.522-2.128l.04-.035C27.332 61.667 37.788 53.4 37.788 53.4s10.454 8.267 15.42 12.304c1.539 1.25 2.55 2.093 2.564 2.164.002.008.002.02.002.03" mask="url(#o)"/><mask id="q" fill="#fff"><use xlink:href="#p"/></mask><path fill="#FFF" fill-rule="nonzero" d="M30.524 80.066h19.408a3.014 3.014 0 0 0 3.014-3.017V55.617a3.016 3.016 0 0 0-3.014-3.017H25.614a3.014 3.014 0 0 0-3.014 3.017v16.517l7.924 7.932Z" mask="url(#q)"/><mask id="s" fill="#fff"><use xlink:href="#r"/></mask><path fill="#D1D3D4" fill-rule="nonzero" d="M55.775 68v17.274a2.199 2.199 0 0 1-2.192 2.194H21.986a2.193 2.193 0 0 1-2.186-2.194V68l17.987 10.617L55.775 68Z" mask="url(#s)"/><mask id="u" fill="#fff"><use xlink:href="#t"/></mask><path fill="#F4F4F4" fill-rule="nonzero" d="M55.163 86.79 43.585 75.201l-5.802 3.425-5.805-3.426L20.4 86.79c.41.439.982.688 1.582.688h31.596a2.18 2.18 0 0 0 1.584-.688" mask="url(#u)"/><mask id="w" fill="#fff"><use xlink:href="#v"/></mask><path fill="#179BC9" fill-rule="nonzero" d="M.81 58.822c.403 9.435 3.873 20.398 11.616 24.113 7.579 3.636 19.823 2.386 19.906-.1.045-1.347-1.248-.963-1.167-2.086.11-1.518 2.62-.735 2.447-2.51-.144-1.437-2.61-.53-2.706-1.953-.123-1.812 2.266-1.495 1.11-3.235-1.155-1.74-4.105 2.966-12.714.545-7.76-2.18-10.393-7.806-11.51-16.134C6.675 49.133.5 51.528.812 58.822m73.797 0c-.401 9.435-3.871 20.398-11.614 24.113-7.58 3.636-19.824 2.386-19.906-.1-.045-1.347 1.248-.963 1.166-2.086-.11-1.518-2.621-.735-2.446-2.51.143-1.437 2.61-.53 2.706-1.953.122-1.812-2.266-1.495-1.111-3.235 1.156-1.74 4.105 2.966 12.714.545 7.76-2.18 10.393-7.806 11.51-16.134 1.117-8.329 7.29-5.934 6.98 1.36" mask="url(#w)"/><mask id="y" fill="#fff"><use xlink:href="#x"/></mask><path fill="#27AAE1" fill-rule="nonzero" d="M.81 58.022c.403 9.435 3.873 20.398 11.616 24.113 7.579 3.636 19.823 2.386 19.906-.1.045-1.347-1.248-.963-1.167-2.086.11-1.518 2.62-.735 2.447-2.51-.144-1.437-2.61-.53-2.706-1.952-.123-1.813 2.266-1.496 1.11-3.236-1.155-1.74-4.105 2.966-12.714.545-7.76-2.182-10.393-7.806-11.51-16.134C6.675 48.333.5 50.728.812 58.022m73.797 0c-.401 9.435-3.871 20.398-11.614 24.113-7.58 3.636-19.824 2.386-19.906-.1-.045-1.347 1.248-.963 1.166-2.086-.11-1.518-2.621-.735-2.446-2.51.143-1.437 2.61-.53 2.706-1.953.122-1.812-2.266-1.495-1.111-3.235 1.156-1.74 4.105 2.966 12.714.545 7.76-2.182 10.393-7.806 11.51-16.134 1.117-8.329 7.29-5.934 6.98 1.36" mask="url(#y)"/><g transform="translate(36 63.4)"><mask id="B" fill="#fff"><use xlink:href="#z"/></mask><path fill="url(#A)" fill-rule="nonzero" d="m1.457 1.717-.86-.626L0 1.616l1.43 1.595.003-.002.002.002L3.999.602 3.542 0z" mask="url(#B)"/></g><g transform="translate(31.2 58.2)"><mask id="E" fill="#fff"><use xlink:href="#C"/></mask><path fill="url(#D)" fill-rule="nonzero" d="M0 6.562a6.558 6.558 0 0 0 6.555 6.561 6.559 6.559 0 0 0 6.555-6.561A6.559 6.559 0 0 0 6.555 0 6.558 6.558 0 0 0 0 6.562m2.941-2.087 3.614-1.54 3.613 1.54s-.24 5.712-3.613 5.712-3.614-5.712-3.614-5.712" mask="url(#E)"/></g></g></svg>