<svg xmlns="http://www.w3.org/2000/svg" width="128" height="128" version="1.1" viewBox="0 0 33.867 33.867"><defs><mask id="mask-2" fill="#fff"><circle cx="384" cy="384" r="384"/></mask></defs><g id="Group" fill-rule="evenodd" mask="url(#mask-2)" transform="scale(.044097)"><rect id="Rectangle" width="192" height="192" fill="#0d2e46"/><rect width="192" height="192" x="192" fill="#415a6e"/><rect width="192" height="192" x="384" fill="#597961"/><rect width="192" height="192" x="576" fill="#6d4048"/><rect width="192" height="192" x="576" y="192" fill="#e08f88"/><rect width="192" height="192" x="384" y="192" fill="#e3b59c"/><rect width="192" height="192" x="192" y="192" fill="#8ba281"/><rect width="192" height="192" y="192" fill="#6378ab"/><rect width="192" height="192" y="384" fill="#7d5a49"/><rect width="192" height="192" x="192" y="384" fill="#b48268"/><rect width="192" height="192" x="384" y="384" fill="#8f595b"/><rect width="192" height="192" x="576" y="384" fill="#ebe0d3"/><rect width="192" height="192" x="576" y="576" fill="#5f495d"/><rect width="192" height="192" x="384" y="576" fill="#b1a0b8"/><rect width="192" height="192" x="192" y="576" fill="#fbeee9"/><rect width="192" height="192" y="576" fill="#c08679"/></g></svg>