<?xml version="1.0" encoding="UTF-8"?>
<svg fill="#ffffff" version="1.1" viewBox="0 0 128 128" xmlns="http://www.w3.org/2000/svg"><path d="m52 52h24v24h-24z" fill="none"/><path d="m112 0h-96c-8.8 0-16 7.2-16 16v96c0 8.8 7.2 16 16 16h96c8.8 0 16-7.2 16-16v-96c0-8.8-7.2-16-16-16zm-68 60c0 6.64-5.36 12-12 12h-8v10c0 3.28-2.72 6-6 6s-6-2.72-6-6v-34c0-4.4 3.6-8 8-8h12c6.64 0 12 5.36 12 12zm40 16c0 6.64-5.36 12-12 12h-16c-2.24 0-4-1.76-4-4v-40c0-2.24 1.76-4 4-4h16c6.64 0 12 5.36 12 12zm32-30c0 3.28-2.72 6-6 6h-6v8h6c3.28 0 6 2.72 6 6s-2.72 6-6 6h-6v10c0 3.28-2.72 6-6 6s-6-2.72-6-6v-34c0-4.4 3.6-8 8-8h10c3.28 0 6 2.72 6 6zm-92 14h8v-8h-8zm40 16h8v-24h-8z" stroke-width="8"/></svg>
