<?xml version="1.0" encoding="UTF-8"?>
<svg width="128" height="128" version="1.1" viewBox="0 0 33.867 33.867" xmlns="http://www.w3.org/2000/svg"><g stroke-width="1.4111"><path d="m0-1.13e-6h33.867v33.867h-33.867z" fill="none"/><circle cx="16.933" cy="16.933" r="4.2333"/><path d="m28.222 5.6444h-4.4732l-1.7498-1.905c-0.52213-0.57856-1.2841-0.91722-2.0743-0.91722h-5.9831c-0.79022 0-1.5522 0.33867-2.0884 0.91722l-1.7357 1.905h-4.4732c-1.5522 0-2.8222 1.27-2.8222 2.8222v16.933c0 1.5522 1.27 2.8222 2.8222 2.8222h22.578c1.5522 0 2.8222-1.27 2.8222-2.8222v-16.933c0-1.5522-1.27-2.8222-2.8222-2.8222zm-11.289 18.344c-3.8947 0-7.0556-3.1609-7.0556-7.0556s3.1609-7.0556 7.0556-7.0556c3.8947 0 7.0556 3.1609 7.0556 7.0556s-3.1609 7.0556-7.0556 7.0556z"/></g></svg>
