<svg width="3061" height="3061" xmlns="http://www.w3.org/2000/svg" xmlns:xlink="http://www.w3.org/1999/xlink"><defs><linearGradient x1="5.235%" y1=".497%" x2="95.214%" y2="100%" id="c"><stop stop-opacity=".8" offset="0%"/><stop stop-opacity=".2" offset="100%"/></linearGradient><circle id="a" cx="1532" cy="1530.5" r="1530.5"/></defs><g fill="none" fill-rule="evenodd"><mask id="b" fill="#fff"><use xlink:href="#a"/></mask><g mask="url(#b)" fill-rule="nonzero"><path fill="#008079" d="M0 1814.17h3061.42v1247.24H0z"/><path fill="#1F2603" d="M0 0h3061.42v1814.17H0z"/></g><path fill-opacity=".2" fill="url(#c)" mask="url(#b)" d="m1002 2317 970-1500 1414 1422-325 1085H1972l-138-158z"/><g mask="url(#b)"><g transform="translate(747 582)"><path d="M785 61C450.378 61 60 580.17 60 1080.813 60 1581.455 384.605 1874 785 1874s725-292.545 725-793.188C1510 580.17 1119.6 61 785 61Z" fill="#EFBC48" fill-rule="nonzero"/><path d="m1569.359 1030.758-119.241 117.898L1268.933 907l-181.185 241.656-120.84-120.817-120.839 120.817-120.86-181.151-120.84 126.87-120.968-66.536-60.43 60.398-60.43-181.152-241.68 181.152-118.985-61.954S0 1067.607 0 1088.237C0 1622.079 351.712 1934 785.51 1934c433.8 0 785.49-311.921 785.49-845.763a1064.319 1064.319 0 0 0-1.641-57.479Z" fill="#E2CDB3"/><path d="M785.41 0C550.47 0 290.16 232.145 136 540.856l45.07 62.85 181.214-181.03 60.44 181.03 60.44-60.38 120.86 60.38 120.86-120.737 60.44 120.737 120.86-60.38 120.86 60.38 120.88-120.737L1329.14 664 1440 551.676C1286.756 237.704 1023.1 0 785.41 0Z" fill="#FCF1E3" fill-rule="nonzero"/><ellipse fill="#1F190A" fill-rule="nonzero" cx="543.5" cy="814.5" rx="60.5" ry="90.5"/><ellipse fill="#1F190A" fill-rule="nonzero" cx="1026.5" cy="814.5" rx="60.5" ry="90.5"/><path d="M1008 732.064c-1.36.012-2.718.111-4.065.296-10.374 6.16-19.33 16.514-25.935 29.64 0 16.569 13.431 30 30 30 16.569 0 30-13.431 30-30 0-16.569-13.431-30-30-30v.064ZM525 732.064c-1.36.012-2.718.111-4.065.296-10.374 6.16-19.35 16.514-25.935 29.64 0 16.569 13.431 30 30 30 16.569 0 30-13.431 30-30 0-16.569-13.431-30-30-30v.064Z" fill="#F9F8F4" fill-rule="nonzero"/><path d="M787.41 62C552.47 62 292.16 273.92 138 555.564l45.07 57.347 181.214-165.288 60.44 165.288 60.44-55.089 120.86 55.089 120.86-110.178 60.44 110.178 120.86-55.089 120.86 55.089 120.88-110.178L1331.14 668 1442 565.512C1288.756 278.926 1025.1 62 787.41 62Z" fill="#F8E4C3" fill-rule="nonzero"/><path d="m1569.401 1023.424-119.24 110.885L1268.975 907l-181.185 227.31-120.84-113.655-120.84 113.654-120.86-170.397-120.84 119.278-120.967-62.493-60.43 56.827-60.431-170.396-241.68 170.396-119.027-58.36S0 1058.035 0 1077.439C0 1579.577 351.712 1873 785.51 1873c433.8 0 785.49-293.423 785.49-795.56 0-17.935-.533-35.94-1.599-54.016Z" fill="#F9E4C4" fill-rule="nonzero"/></g></g></g></svg>