<svg version="1.2" xmlns="http://www.w3.org/2000/svg" viewBox="0 0 200 99" width="200" height="99">
	<style>
		.s0 { fill: #ffffff } 
	</style>
	<path class="s0" d="m2.05 97.32h16.35v-69.48h-16.35zm8.14-78.59c5.12 0 9.12-3.93 9.12-8.84 0-4.99-4-8.92-9.12-8.92-5.06 0-9.06 3.93-9.06 8.92 0 4.91 4 8.84 9.06 8.84zm62.63-17.56c-27.64 0-44.97 18.81-44.97 48.9 0 30.08 17.33 48.83 44.97 48.83 27.58 0 44.91-18.75 44.91-48.83 0-30.09-17.33-48.9-44.91-48.9zm0 14.42c16.88 0 27.64 13.37 27.64 34.48 0 21.04-10.77 34.41-27.64 34.41-16.93 0-27.64-13.37-27.64-34.41 0-21.11 10.71-34.48 27.64-34.48zm51.8 55.12c0.73 17.44 15.04 28.19 36.83 28.19 22.92 0 37.36-11.28 37.36-29.24 0-14.09-8.14-22.02-27.38-26.41l-10.89-2.49c-11.62-2.75-16.42-6.42-16.42-12.72 0-7.86 7.23-13.11 17.93-13.11 10.83 0 18.25 5.31 19.04 14.16h16.15c-0.4-16.65-14.19-27.92-35.06-27.92-20.62 0-35.26 11.34-35.26 28.12 0 13.5 8.27 21.89 25.74 25.89l12.27 2.88c11.95 2.82 16.81 6.75 16.81 13.57 0 7.87-7.94 13.5-19.37 13.5-11.55 0-20.28-5.7-21.33-14.42 0 0-16.41 0-16.42 0z"/>
</svg>