<svg width="128" height="128" version="1.1" viewBox="0 0 33.867 33.867" xmlns="http://www.w3.org/2000/svg"><g stroke-width=".39547"><path d="m4.8224 4.1176h3.2876a2.4717 2.4717 0 0 1 2.4717 2.4717v9.5902h6.4264v3.4604h-7.4151a2.4717 2.4717 0 0 1-2.4717-2.4717v-9.5902h-2.2989zm25.137 2.4717v2.5706h-3.4604v-1.5819h-2.7193v12.062h-3.4604v-12.062h-2.7185v1.5819h-3.4604v-2.5706a2.4717 2.4717 0 0 1 2.4717-2.4717h10.876a2.4717 2.4717 0 0 1 2.4717 2.4717z" clip-rule="evenodd" fill-rule="evenodd"/><path d="m3.2184 28.921-3.2184-2.2985c0.94518-1.3236 1.9208-2.3475 2.9471-3.0661 1.1405-0.79807 2.3523-1.2224 3.6055-1.2224 1.1635 0 2.1711 0.28236 3.072 0.8226a6.969 6.969 0 0 1 1.0342 0.76722c0.23253 0.20485 0.39903 0.3662 0.75219 0.71976 0.53587 0.53546 0.75852 0.73202 1.0251 0.89178 0.28909 0.17362 0.5944 0.25905 1.0373 0.25905 0.44333 0 0.74982-0.0858 1.0405-0.25982 0.26773-0.16017 0.49236-0.35791 1.0282-0.89259l0.0045-0.0045c0.35197-0.35118 0.51926-0.51333 0.7522-0.71858a6.975 6.975 0 0 1 1.0322-0.76445c0.89891-0.53863 1.9038-0.82022 3.0629-0.82022 1.1591 0 2.164 0.28159 3.0625 0.82022 0.36264 0.21751 0.69604 0.46784 1.0326 0.76445 0.23293 0.20485 0.40061 0.3674 0.7522 0.71858l0.0045 0.0045c0.53548 0.53468 0.7601 0.73242 1.0278 0.89259 0.29068 0.174 0.59716 0.25982 1.0405 0.25982 0.39468 0 0.83049-0.15265 1.3379-0.5078 0.62169-0.43502 1.294-1.1413 1.9964-2.1245l3.2184 2.2985c-0.94558 1.3236-1.9208 2.3475-2.9471 3.0661-1.1405 0.79807-2.3523 1.2224-3.6055 1.2224-1.1631 0-2.1712-0.28198-3.0724-0.82179a6.971 6.971 0 0 1-1.0358-0.76644c-0.23332-0.20525-0.4014-0.36779-0.75417-0.71976l-0.0045-0.0045c-0.53428-0.5331-0.75813-0.73043-1.0243-0.88981-0.28791-0.17282-0.59084-0.25745-1.0294-0.25745-0.43859 0-0.74152 0.0846-1.0294 0.25745-0.26616 0.15938-0.48999 0.35671-1.0243 0.88981l-0.0045 0.0045c-0.35276 0.35197-0.52084 0.51451-0.75417 0.71976-0.33813 0.2974-0.6723 0.54892-1.0361 0.76644-0.90089 0.53981-1.9086 0.82179-3.072 0.82179-1.1635 0-2.1711-0.28236-3.072-0.82258a6.9837 6.9837 0 0 1-1.0342-0.76683c-0.23293-0.20525-0.39903-0.36661-0.75258-0.71976-0.53548-0.53587-0.75813-0.73242-1.0247-0.89219-0.28909-0.17361-0.5944-0.25903-1.0373-0.25903-0.39468 0-0.83049 0.15264-1.3379 0.50778-0.62169 0.43502-1.294 1.1413-1.9964 2.1245z" fill="#45a1fc"/></g></svg>
