<?xml version="1.0" encoding="UTF-8"?>
<svg width="128" height="128" version="1.1" viewBox="0 0 33.867 33.867" xmlns="http://www.w3.org/2000/svg"><rect x="6.156e-7" y="2.285e-7" width="33.867" height="33.867" rx="6.0866" fill="#fff" style="paint-order:stroke markers fill"/><g transform="matrix(.50794 0 0 .50794 -.26878 -.26879)" fill="none"><g id="content" transform="matrix(.64219 0 0 -.64219 -289.95 303.69)" fill-rule="evenodd" stroke="#000" stroke-miterlimit="10.433" stroke-width="0" xml:space="preserve"><polygon points="460 437.34 460.85 436.64 460.85 409.18 460 408.5 456.86 408.25 456.86 406.2 480.72 406.2 480.72 415.26 478.14 415.26 477.29 409.29 476.6 408.5 465.33 408.5 465.33 436.64 466.18 437.34 469.02 437.64 469.02 439.64 456.86 439.64 456.86 437.64" fill="#55f"/><polygon points="485.73 406.2 498.73 406.2 498.73 408.25 495.39 408.5 494.5 409.18 494.5 437.34 502.17 437.34 502.88 436.59 503.56 431.95 506.31 431.95 506.31 439.64 478.16 439.64 478.16 431.95 480.89 431.95 481.59 436.59 482.3 437.34 489.97 437.34 489.97 409.18 489.06 408.5 485.73 408.25" fill="#55f"/><polygon points="520.85 424.59 521.56 420.36 524.35 420.36 524.35 427.64 500.48 427.64 500.48 425.64 503.32 425.34 504.17 424.64 504.17 397.18 503.32 396.5 500.48 396.25 500.48 394.2 526.14 394.2 526.14 402.32 523.56 402.32 522.7 397.29 522.01 396.5 508.65 396.5 508.65 410.43 516.82 410.43 517.53 409.7 518.03 406.11 520.35 406.11 520.35 417.07 518.03 417.07 517.53 413.43 516.82 412.73 508.65 412.73 508.65 425.34 520.17 425.34" fill="#000"/><polygon points="551.62 408.25 548.23 408.84 538.56 424.14 547.69 437.14 550.88 437.64 550.88 439.64 540.72 439.64 540.72 437.64 543.59 437.18 544.05 436.54 536.97 426.48 530.45 436.75 530.84 437.34 533.84 437.64 533.84 439.64 521.83 439.64 521.83 437.64 525.12 437 534.14 422.89 524.12 408.89 520.83 408.25 520.83 406.2 531.44 406.2 531.44 408.25 528.11 408.54 527.81 409.43 535.67 420.59 542.7 409.29 542.36 408.59 539.02 408.25 539.02 406.2 551.62 406.2" fill="#000"/></g><g stroke="#55f" stroke-linecap="round" stroke-linejoin="bevel" stroke-width="1.5875"><path d="m4.1031 46.928h3.8701"/><path d="m11.597 46.928h3.8701"/><path d="m19.09 46.928h3.8701"/><path d="m26.584 46.928h3.8701"/></g></g></svg>
