<?xml version="1.0" encoding="UTF-8" standalone="no"?>
<svg
   xmlns:dc="http://purl.org/dc/elements/1.1/"
   xmlns:cc="http://creativecommons.org/ns#"
   xmlns:rdf="http://www.w3.org/1999/02/22-rdf-syntax-ns#"
   xmlns:svg="http://www.w3.org/2000/svg"
   xmlns="http://www.w3.org/2000/svg"
   xmlns:sodipodi="http://sodipodi.sourceforge.net/DTD/sodipodi-0.dtd"
   xmlns:inkscape="http://www.inkscape.org/namespaces/inkscape"
   id="svg8"
   version="1.1"
   viewBox="0 0 67.733333 67.733336"
   height="256"
   width="256"
   inkscape:version="1.0.1 (3bc2e813f5, 2020-09-07)"
   sodipodi:docname="logo-ltex.svg"
   inkscape:export-filename="logo-ltex.png"
   inkscape:export-xdpi="96"
   inkscape:export-ydpi="96">
  <sodipodi:namedview
     inkscape:window-maximized="1"
     inkscape:window-y="0"
     inkscape:window-x="1920"
     inkscape:window-height="975"
     inkscape:window-width="1920"
     showgrid="false"
     inkscape:current-layer="svg8"
     inkscape:document-units="px"
     inkscape:cy="126.14618"
     inkscape:cx="88.251512"
     inkscape:zoom="2.7078432"
     inkscape:pageshadow="2"
     inkscape:pageopacity="0.0"
     borderopacity="1.0"
     bordercolor="#666666"
     pagecolor="#ffffff"
     id="base"
     units="px"
     fit-margin-left="5"
     fit-margin-bottom="5"
     fit-margin-top="5"
     fit-margin-right="5"
     borderlayer="true"
     inkscape:document-rotation="0" />
  <defs
     id="defs2" />
  <metadata
     id="metadata5">
    <rdf:RDF>
      <cc:Work
         rdf:about="">
        <dc:format>image/svg+xml</dc:format>
        <dc:type
           rdf:resource="http://purl.org/dc/dcmitype/StillImage" />
        <dc:title />
      </cc:Work>
    </rdf:RDF>
  </metadata>
  <rect
     style="opacity:1;vector-effect:none;fill:#ffffff;fill-opacity:1;stroke:none;stroke-width:0.359601;stroke-linecap:butt;stroke-linejoin:round;stroke-miterlimit:10;stroke-dasharray:none;stroke-dashoffset:0;stroke-opacity:1;paint-order:stroke markers fill"
     id="rect921"
     width="66.675003"
     height="66.675003"
     x="0.52916574"
     y="0.52916574"
     rx="11.982941" />
  <g
     inkscape:label="Layer 1"
     inkscape:groupmode="layer"
     id="layer1"
     transform="translate(-14.972574,-214.55667)" />
  <g
     id="g1757">
    <g
       word-spacing="normal"
       letter-spacing="normal"
       font-size-adjust="none"
       font-stretch="normal"
       font-weight="normal"
       font-variant="normal"
       font-style="normal"
       stroke-miterlimit="10.433"
       xml:space="preserve"
       transform="matrix(0.64219257,0,0,-0.64219257,-289.95251,303.68773)"
       id="content"
       style="font-style:normal;font-variant:normal;font-weight:normal;font-stretch:normal;letter-spacing:normal;word-spacing:normal;text-anchor:start;fill:none;fill-opacity:1;fill-rule:evenodd;stroke:#000000;stroke-linecap:butt;stroke-linejoin:miter;stroke-miterlimit:10.433;stroke-dasharray:none;stroke-dashoffset:0;stroke-opacity:1"><polygon
         id="polygon879"
         points="456.86,439.64 456.86,437.64 460,437.34 460.85,436.64 460.85,409.18 460,408.5 456.86,408.25 456.86,406.2 480.72,406.2 480.72,415.26 478.14,415.26 477.29,409.29 476.6,408.5 465.33,408.5 465.33,436.64 466.18,437.34 469.02,437.64 469.02,439.64 "
         style="fill:#5555ff;fill-opacity:1;stroke-width:0" /><polygon
         id="polygon881"
         points="485.73,406.2 498.73,406.2 498.73,408.25 495.39,408.5 494.5,409.18 494.5,437.34 502.17,437.34 502.88,436.59 503.56,431.95 506.31,431.95 506.31,439.64 478.16,439.64 478.16,431.95 480.89,431.95 481.59,436.59 482.3,437.34 489.97,437.34 489.97,409.18 489.06,408.5 485.73,408.25 "
         style="fill:#5555ff;fill-opacity:1;stroke-width:0" /><polygon
         id="polygon883"
         points="500.48,396.25 500.48,394.2 526.14,394.2 526.14,402.32 523.56,402.32 522.7,397.29 522.01,396.5 508.65,396.5 508.65,410.43 516.82,410.43 517.53,409.7 518.03,406.11 520.35,406.11 520.35,417.07 518.03,417.07 517.53,413.43 516.82,412.73 508.65,412.73 508.65,425.34 520.17,425.34 520.85,424.59 521.56,420.36 524.35,420.36 524.35,427.64 500.48,427.64 500.48,425.64 503.32,425.34 504.17,424.64 504.17,397.18 503.32,396.5 "
         style="fill:#000000;stroke-width:0" /><polygon
         id="polygon885"
         points="530.84,437.34 533.84,437.64 533.84,439.64 521.83,439.64 521.83,437.64 525.12,437 534.14,422.89 524.12,408.89 520.83,408.25 520.83,406.2 531.44,406.2 531.44,408.25 528.11,408.54 527.81,409.43 535.67,420.59 542.7,409.29 542.36,408.59 539.02,408.25 539.02,406.2 551.62,406.2 551.62,408.25 548.23,408.84 538.56,424.14 547.69,437.14 550.88,437.64 550.88,439.64 540.72,439.64 540.72,437.64 543.59,437.18 544.05,436.54 536.97,426.48 530.45,436.75 "
         style="fill:#000000;stroke-width:0" /></g>
    <g
       id="g1745">
      <path
         style="fill:none;stroke:#5555ff;stroke-width:1.58750003;stroke-linecap:round;stroke-linejoin:bevel;stroke-miterlimit:4;stroke-dasharray:none;stroke-dashoffset:0;stroke-opacity:1"
         d="m 4.1031314,46.927624 3.8701309,0"
         id="path985"
         sodipodi:nodetypes="cc" />
      <path
         style="fill:none;stroke:#5555ff;stroke-width:1.58750003;stroke-linecap:round;stroke-linejoin:bevel;stroke-miterlimit:4;stroke-dasharray:none;stroke-dashoffset:0;stroke-opacity:1"
         d="M 11.596679,46.927624 H 15.46681"
         id="path987"
         sodipodi:nodetypes="cc" />
      <path
         style="fill:none;stroke:#5555ff;stroke-width:1.58750003;stroke-linecap:round;stroke-linejoin:bevel;stroke-miterlimit:4;stroke-dasharray:none;stroke-dashoffset:0;stroke-opacity:1"
         d="m 19.090226,46.927624 h 3.870131"
         id="path989"
         sodipodi:nodetypes="cc" />
      <path
         style="fill:none;stroke:#5555ff;stroke-width:1.58750003;stroke-linecap:round;stroke-linejoin:bevel;stroke-miterlimit:4;stroke-dasharray:none;stroke-dashoffset:0;stroke-opacity:1"
         d="m 26.583775,46.927624 h 3.870131"
         id="path991"
         sodipodi:nodetypes="cc" />
    </g>
  </g>
</svg>
