<?xml version="1.0" encoding="UTF-8"?>
<svg width="128" height="128" version="1.1" viewBox="0 0 33.867 33.867" xmlns="http://www.w3.org/2000/svg"><g stroke-linejoin="bevel"><path d="m16.933 5.1814e-6c-0.35804 0-0.71598 0.13723-0.99032 0.41158l-15.531 15.531c-0.54869 0.54869-0.54869 1.4322 0 1.9809l15.531 15.531c0.54869 0.54869 1.4321 0.54869 1.9808 0l15.531-15.531c0.54869-0.54869 0.54869-1.4322 0-1.9809l-15.531-15.531c-0.27434-0.27434-0.63241-0.41158-0.99045-0.41158z" stop-color="#000000" stroke-width="1.0814" style="paint-order:stroke markers fill"/><path d="m16.933 5.1814e-6c-0.35804 0-0.71598 0.13723-0.99032 0.41158l-15.531 15.531c-0.54869 0.54869-0.54869 1.4322 0 1.9809l15.531 15.531c0.54869 0.54869 1.4321 0.54869 1.9808 0l15.531-15.531c0.54869-0.54869 0.54869-1.4322 0-1.9809l-15.531-15.531c-0.27434-0.27434-0.63241-0.41158-0.99045-0.41158zm0 1.089c0.33501 0 0.67002 0.12832 0.92672 0.38502l14.533 14.533c0.5134 0.5134 0.5134 1.34 0 1.8534l-14.533 14.533c-0.51341 0.5134-1.34 0.5134-1.8535 0l-14.533-14.533c-0.51341-0.5134-0.51341-1.34 0-1.8534l14.533-14.533c0.2567-0.2567 0.59172-0.38502 0.92673-0.38502z" fill="#fbc118" stop-color="#000000" stroke-width="1.0814" style="paint-order:stroke markers fill"/><rect transform="matrix(.70711 -.70711 .70711 .70711 0 0)" x="-10.767" y="13.18" width="21.535" height="21.535" ry="1.2179" fill="#fbc117" stop-color="#000000" stroke-width=".94029" style="paint-order:stroke markers fill"/><path d="m18.789 15.27c-4.8706 2.0966-4.7698 8.8122-4.7698 8.8122l-3.4024 2e-6s-0.04432-9.8252 7.432-11.828c-0.70224-1.4074-1.0526-1.9735-0.60273-2.1963 0.60302-0.29862 6.9103 1.1902 7.1465 2.0717 0.23215 0.86638-4.7571 5.3988-5.4509 5.3988-0.5945 0-0.42963-0.71339-0.35273-2.2578z" stop-color="#000000" stroke-width="1.196" style="paint-order:stroke markers fill"/></g></svg>
