<?xml version="1.0" encoding="UTF-8" standalone="no"?>
<!DOCTYPE svg PUBLIC "-//W3C//DTD SVG 1.1//EN" "http://www.w3.org/Graphics/SVG/1.1/DTD/svg11.dtd">
<svg width="100%" height="100%" viewBox="0 0 1280 1280" version="1.1" xmlns="http://www.w3.org/2000/svg" xmlns:xlink="http://www.w3.org/1999/xlink" xml:space="preserve" xmlns:serif="http://www.serif.com/" style="fill-rule:evenodd;clip-rule:evenodd;stroke-linejoin:round;stroke-miterlimit:2;">
    <path id="path4" d="M1106.87,639.342C1106.87,633.831 1103.94,628.734 1099.18,625.951L285.252,150.028C271.022,141.706 253.134,151.97 253.134,168.451L253.134,373.722C253.134,381.421 257.279,388.522 263.983,392.306L669.614,621.343C684.079,629.511 684.079,650.346 669.614,658.514L263.983,887.551C257.279,891.335 253.134,898.438 253.134,906.137L253.134,1111.36C253.134,1127.85 271.041,1138.12 285.271,1129.78L1099.2,652.724C1103.95,649.939 1106.87,644.846 1106.87,639.342Z" style="fill:rgb(22,19,22);fill-rule:nonzero;"/>
    <path id="path6" d="M540.539,621.095C554.96,629.272 554.96,650.052 540.539,658.228L285.004,803.117C270.777,811.183 253.134,800.906 253.134,784.551L253.134,494.773C253.134,478.415 270.777,468.139 285.004,476.206L540.539,621.095Z" style="fill:rgb(22,19,22);fill-rule:nonzero;"/>
</svg>
