<?xml version="1.0" encoding="UTF-8"?>
<svg width="128" height="128" version="1.1" viewBox="0 0 33.867 33.867" xmlns="http://www.w3.org/2000/svg"><g transform="matrix(1.4916 0 0 1.4916 -108.81 -169.4)"><path d="m75.442 117.85c3.3426-0.62057 5.8921-0.31143 8.1139 2.4694 2.9164-2.5188 5.4372-2.8222 9.1722-2.8222-4.1614-5.3918-13.3-5.0479-17.286 0.35278m-2.4694 8.8194h0.35278c0.57274-2.4745 1.4387-4.7979 3.5278-6.35-0.0024 3.6523-2.0171 8.0642-1.0975 11.636 0.49495 1.9227 3.2713 3.1322 4.9781 3.7012 4.9853 1.6617 10.772-0.5401 13.344-5.1071 2.4443-4.3407 2.4887-10.227-3.1135-10.936-0.54247 2.8791-1.2627 5.8902-1.3972 8.8194-0.0545 1.1867 0.16563 2.8529-1.1229 3.4973-1.6634 0.83189-2.0984-1.2819-2.0042-2.439 0.26141-3.2124 1.2561-6.5356 2.4076-9.525-1.338 0.0285-3.3185 0.0732-4.3735 1.0352-0.7456 0.67987-0.64012 1.9754-1.0793 2.8451-1.3627 2.6986-3.871 3.4357-6.5416 2.4697 1.198-0.74525 2.8991-1.1261 3.5245-2.5076 1.8751-4.1413-4.1426-6.0016-6.4428-3.0566-1.2381 1.5851-0.96224 4.037-0.96224 5.9169z" fill="#4343ff"/></g></svg>
