<svg xmlns="http://www.w3.org/2000/svg" version="1.1" viewBox="0 0 128 128"><g stroke-miterlimit="0" stroke-width="0" transform="scale(.125)"><rect id="bg" width="1024" height="1024" x="0" y="0" fill="#1b345f" style="paint-order:markers stroke fill"/><circle id="circle" cx="512" cy="512" r="406.19" fill="#ee3a3a" style="paint-order:markers stroke fill"/><path id="outer" fill="#fff" d="m327.85 320.22a50 50 0 0 0-50 50v198.11a50 50 0 0 0 50 50h15.107v-190.81a50 50 0 0 1 50-50h266.35v-7.2949a50 50 0 0 0-50-50z" style="paint-order:markers stroke fill"/><path id="square" width="378.948" height="299.793" x="367.199" y="403.986" fill="#fff" d="m417.2 403.99h278.95a50 50 45 0 1 50 50v199.79a50 50 135 0 1-50 50h-278.95a50 50 45 0 1-50-50v-199.79a50 50 135 0 1 50-50z" style="paint-order:markers stroke fill"/><path id="triangle" fill="#ee3a3a" d="m-643.31 522.07v-131.93a14.434 14.434 150 0 1 21.651-12.5l114.25 65.963a14.434 14.434 90 0 1 0 25l-114.25 65.963a14.434 14.434 30 0 1-21.651-12.5z" transform="matrix(.98233 0 0 .98233 1118.3 105.84)" style="paint-order:markers stroke fill"/></g></svg>