<?xml version="1.0" encoding="UTF-8"?>
<svg width="128" height="128" version="1.1" viewBox="0 0 33.867 33.867" xmlns="http://www.w3.org/2000/svg"><g transform="matrix(.25 0 0 .25 26.227 -5.5792)"><path d="m30.557 85.535c0-9.0311-7.0959-18.062-17.74-18.062 0 0-7.0959 9.0311-7.0959 18.062 0 9.0311 7.0959 18.062 7.0959 18.062 10.644 0 17.74-9.0311 17.74-18.062z" style="fill:#775641;stroke-linejoin:round;stroke-width:.50032"/><path d="m23.762 85.819c0-7.1466-6.5632-13.107-14.304-13.107 0 0-3.7364 6.796-3.7364 13.32 0 6.5245 3.5955 11.731 3.5955 11.731 7.7409 0 14.445-4.7979 14.445-11.945z" style="fill:#f6eab7;stroke-linejoin:round;stroke-width:.36266"/><path d="m-104.91 85.535c0-9.0311 7.0959-18.062 17.74-18.062 0 0 7.0959 9.0311 7.0959 18.062 0 9.0311-7.0959 18.062-7.0959 18.062-10.644 0-17.74-9.0311-17.74-18.062z" style="fill:#775641;stroke-linejoin:round;stroke-width:.50032"/><path d="m-98.115 85.819c0-7.1466 6.5632-13.107 14.304-13.107 0 0 3.7364 6.796 3.7364 13.321 0 6.5245-3.5955 11.731-3.5955 11.731-7.7409 0-14.445-4.7979-14.445-11.945z" style="fill:#f6eab7;stroke-linejoin:round;stroke-width:.36266"/><path d="m-37.177 31.348c-25.158 0-50.316 9.5839-50.316 38.336 1.1924 6.4728 2.7731 11.683 4.6475 15.865-7.5968 3.7523-13.034 10.248-13.034 21.274 0 33.544 33.544 41.93 58.702 41.93s58.702-8.386 58.702-41.93c0-11.026-5.4368-17.521-13.034-21.274 1.8744-4.1813 3.4552-9.3917 4.6475-15.865 0-28.752-25.158-38.336-50.316-38.336z" style="fill:#775641"/><path d="m-55.239 42.637c-14.963-2e-6 -24.836 12.13-24.836 27.093 0.0068 6.4722 2.3304 12.728 6.5501 17.636-8.7707 4.271-15.581 10.809-15.581 20.747 0 24.836 26.771 33.867 51.929 33.867 25.158 0 51.929-9.0311 51.929-33.867 0-9.9374-6.8105-16.476-15.581-20.747 4.2197-4.9075 6.5432-11.163 6.5501-17.636 0-14.963-9.8723-27.093-24.836-27.093-9.0311 0-13.461 3.4642-18.062 6.7733-4.6083-3.3145-11.289-6.7733-18.062-6.7733z" style="fill:#f6eab7;stroke-linejoin:round;stroke-width:1.0285"/><ellipse cx="-54.11" cy="74.246" rx="5.6444" ry="9.0311" style="fill:#775641;stroke-linejoin:round;stroke-width:.89246"/><ellipse cx="-20.243" cy="74.246" rx="5.6444" ry="9.0311" style="fill:#775641;stroke-linejoin:round;stroke-width:.89246"/><path d="m-71.233 110.23c12.984 13.436 55.127 13.436 68.112 0 0 0-5.0706 4.6382-16.903 7.1405-11.833 2.5023-17.153 2.034-17.153 2.034s-5.3106 0.35654-16.366-2.034c-11.055-2.3905-17.69-7.1405-17.69-7.1405z" style="fill:#775641;stroke-linejoin:round;stroke-width:4.1379;stroke:#775641"/></g></svg>
