<?xml version="1.0" encoding="UTF-8" standalone="no"?>
<!DOCTYPE svg PUBLIC "-//W3C//DTD SVG 1.1//EN" "http://www.w3.org/Graphics/SVG/1.1/DTD/svg11.dtd">
<svg width="100%" height="100%" viewBox="0 0 128 128" version="1.1" xmlns="http://www.w3.org/2000/svg" xmlns:xlink="http://www.w3.org/1999/xlink" xml:space="preserve" xmlns:serif="http://www.serif.com/" style="fill-rule:evenodd;clip-rule:evenodd;stroke-linecap:round;stroke-linejoin:round;">
    <g id="Layer-1" serif:id="Layer 1" transform="matrix(0.7115,0,0,0.7115,-4.30398,-12.0468)">
        <path id="white-border" d="M31.32,50.773C31.142,50.772 30.965,50.773 30.788,50.777C29.979,50.791 29.177,50.844 28.385,50.935C22.051,51.665 16.345,55.035 12.847,60.924C9.42,66.695 8.576,73.049 10.323,78.937C12.07,84.825 16.302,90.174 22.566,94.412C22.604,94.437 22.643,94.462 22.682,94.485C28.054,97.725 33.403,99.91 39.133,101.039C38.993,103.404 38.997,105.834 39.149,108.323C39.606,115.843 42.263,122.767 46.292,128.886L31.853,134.781C30.295,135.392 29.539,137.159 30.171,138.708C30.803,140.256 32.58,140.989 34.12,140.336L50.001,133.853C52.946,137.364 56.33,140.543 59.961,143.335C60.1,143.441 60.241,143.545 60.38,143.651L51.078,155.968C50.055,157.289 50.309,159.191 51.643,160.198C52.976,161.205 54.875,160.929 55.866,159.584L65.314,147.074C70.505,150.362 76.015,152.925 81.452,154.621C84.243,159.736 89.697,162.992 96,162.992C102.363,162.992 107.82,159.489 110.588,154.473C115.97,152.746 121.416,150.173 126.553,146.898L136.134,159.584C137.125,160.929 139.024,161.205 140.357,160.198C141.691,159.191 141.945,157.289 140.922,155.968L131.479,143.464C131.542,143.417 131.605,143.37 131.668,143.323C135.256,140.576 138.61,137.456 141.55,134.016L157.03,140.336C158.57,140.989 160.347,140.256 160.98,138.708C161.612,137.159 160.855,135.392 159.298,134.781L145.322,129.075C149.479,122.92 152.266,115.944 152.848,108.364C153.041,105.86 153.079,103.409 152.968,101.019C158.66,99.883 163.977,97.706 169.318,94.485C169.357,94.462 169.396,94.437 169.434,94.412C175.698,90.174 179.93,84.825 181.677,78.937C183.424,73.049 182.58,66.695 179.153,60.924C175.655,55.035 169.949,51.665 163.615,50.935C162.823,50.844 162.021,50.791 161.212,50.777C155.548,50.675 149.505,52.431 143.694,55.786C139.419,58.253 135.565,62.032 132.549,66.155C124.112,61.327 113.135,58.608 99.647,58.385C98.437,58.365 97.207,58.365 95.957,58.386C80.922,58.631 68.885,61.481 59.794,66.634C59.771,66.599 59.748,66.563 59.724,66.528C56.67,62.26 52.71,58.328 48.306,55.786C42.677,52.536 36.829,50.786 31.32,50.773L31.32,50.773Z" style="fill:none;fill-rule:nonzero;stroke:white;stroke-width:5.25px;"/>
        <path id="ears" d="M134.41,68.056C137.277,64.049 141.041,60.348 145.006,58.059C157.506,50.843 170.698,51.83 176.896,62.265C183.101,72.712 179.706,84.294 167.963,92.237C161.971,95.85 156.163,98.035 149.732,98.902M57.59,68.056C54.722,64.049 50.959,60.348 46.994,58.059C34.494,50.843 21.302,51.83 15.104,62.265C8.899,72.712 12.294,84.294 24.037,92.237C30.029,95.85 35.837,98.035 42.268,98.902" style="fill:white;fill-rule:nonzero;stroke:black;stroke-width:5.25px;"/>
        <path id="head" d="M150.231,108.163C152.388,80.076 135.11,60.372 96,61.01C56.89,61.649 40.071,80.256 41.769,108.163C43.39,134.803 74.919,154.364 95.792,154.364C116.664,154.364 148.189,134.762 150.231,108.163Z" style="fill:white;fill-rule:nonzero;stroke:black;stroke-width:5.25px;"/>
        <path id="eyes" d="M114.469,120.804C114.469,125.138 117.976,128.651 122.302,128.651C126.629,128.651 130.136,125.138 130.136,120.804C130.136,116.471 126.629,112.958 122.302,112.958C117.976,112.958 114.469,116.471 114.469,120.804ZM61.864,120.804C61.864,125.178 65.403,128.723 69.77,128.723C74.136,128.723 77.676,125.178 77.676,120.804C77.676,116.431 74.136,112.885 69.77,112.885C65.403,112.885 61.864,116.431 61.864,120.804Z" style="fill-rule:nonzero;"/>
        <path id="whiskers" d="M63.699,144.234L53.472,157.776M128.301,144.234L138.528,157.776M49.441,130.841L32.986,137.558M141.71,130.841L158.164,137.558" style="fill:none;fill-rule:nonzero;stroke:black;stroke-width:6px;stroke-linejoin:miter;"/>
        <path id="nose" d="M96,133.704C87.401,133.704 81.913,139.675 82.099,147.036C82.299,155.007 88.186,160.368 96,160.368C103.814,160.368 109.885,154.181 109.902,147.036C109.919,139.673 104.6,133.704 96,133.704Z" style="fill:white;fill-rule:nonzero;stroke:black;stroke-width:5.25px;"/>
    </g>
</svg>
