<svg xmlns="http://www.w3.org/2000/svg" xmlns:xlink="http://www.w3.org/1999/xlink" width="128" height="128" version="1.1" viewBox="0 0 33.867 33.867"><defs><linearGradient id="linearGradient4328" x1="200.6" x2="290.09" y1="351.41" y2="506.19" gradientTransform="translate(70.65 -1055.2)" gradientUnits="userSpaceOnUse"><stop offset="0" stop-color="#699ad7"/><stop offset=".243" stop-color="#7eb1dd"/><stop offset="1" stop-color="#7ebae4"/></linearGradient><linearGradient id="linearGradient4330" x1="-584.2" x2="-496.3" y1="782.34" y2="937.71" gradientTransform="translate(864.7 -1491.3)" gradientUnits="userSpaceOnUse"><stop offset="0" stop-color="#415e9a"/><stop offset=".232" stop-color="#4a6baf"/><stop offset="1" stop-color="#5277c3"/></linearGradient></defs><g transform="matrix(.067518 0 0 .067518 -10.566 65.26)"><path id="path3336-6" fill="url(#linearGradient4328)" fill-rule="evenodd" d="m309.55-710.39 122.2 211.68-56.157 0.5268-32.624-56.869-32.856 56.565-27.902-0.011-14.291-24.69 46.81-80.49-33.229-57.826z"/><use width="100%" height="100%" transform="rotate(60 407.11 -715.79)" xlink:href="#path3336-6"/><use width="100%" height="100%" transform="rotate(-60 407.31 -715.7)" xlink:href="#path3336-6"/><use width="100%" height="100%" transform="rotate(180 407.42 -715.76)" xlink:href="#path3336-6"/><path id="path4260-0" fill="url(#linearGradient4330)" fill-rule="evenodd" d="m309.55-710.39 122.2 211.68-56.157 0.5268-32.624-56.869-32.856 56.565-27.902-0.011-14.291-24.69 46.81-80.49-33.229-57.826z" color="#000" color-rendering="auto" image-rendering="auto" shape-rendering="auto" solid-color="#000000" style="isolation:auto;mix-blend-mode:normal"/><use width="100%" height="100%" transform="rotate(120 407.34 -716.08)" xlink:href="#path4260-0"/><use width="100%" height="100%" transform="rotate(240 407.29 -715.87)" xlink:href="#path4260-0"/></g></svg>