<svg xmlns="http://www.w3.org/2000/svg" width="128" height="128" version="1.1" viewBox="0 0 33.867 33.867"><path fill="#35b9ab" stroke-width=".135" d="m25.988 9.0047c-1.556 0-3.0622 0.44692-4.403 1.2083-1.3076 0.74486-2.4498 1.7545-3.4594 2.8636-0.39726 0.43036-0.77796 0.89384-1.1587 1.3573-0.36415 0.44692-0.69521 0.91038-1.0428 1.3739-0.16552 0.23173-0.3476 0.48002-0.51312 0.71175-0.3476 0.48002-0.69521 0.9435-1.0759 1.3739-0.36415 0.39726-0.74486 0.77796-1.1256 1.1587-0.96004 0.94348-1.9863 1.8207-3.1284 2.5491-0.89384 0.56278-1.9532 1.109-3.0457 1.109-2.9297 0-5.5451-2.3173-5.5451-5.843 0-3.5256 2.516-5.4457 5.5451-5.4457 1.7545 0 3.294 0.74487 4.8002 2.0359l-0.81107 0.82762 3.9394 0.99315-1.0925-3.9064-0.87728 0.91038c-1.5393-1.3739-3.4429-2.4829-5.843-2.4829-3.9229 0-7.1506 2.8305-7.1506 7.1506 0 4.138 3.2277 7.1506 6.8527 7.1506 1.5062 0 2.9628-0.44692 4.2374-1.2083 1.1587-0.67865 2.1684-1.5724 3.0953-2.5491 0.31449-0.33105 0.61244-0.66209 0.91038-0.99315 0.39726-0.43036 0.76141-0.86072 1.0925-1.3573 0.14897-0.21517 0.28139-0.43036 0.43036-0.64555 0.26483-0.39726 0.51312-0.79452 0.79452-1.1752 0.52968-0.71175 1.0759-1.407 1.6553-2.069 0.99314-1.109 2.1188-2.1353 3.4263-2.8305 1.0428-0.56278 2.2015-0.86072 3.3932-0.86072 4.138 0 6.4555 2.8801 6.4555 6.5547 0 3.4263-2.218 6.2568-6.0416 6.2568-2.1849 0-4.1051-0.59589-6.1244-2.3339l0.9435-1.1421-4.0056-0.66209 1.4235 3.8072 0.79452-0.96004c1.9532 1.7711 4.0884 2.9297 6.8692 2.9297 4.6346 0 7.6638-3.5256 7.6638-7.9617-0.01655-4.6677-3.1449-7.8955-7.879-7.8955z"/></svg>