<?xml version="1.0" encoding="UTF-8"?>
<!DOCTYPE svg  PUBLIC '-//W3C//DTD SVG 1.1//EN'  'http://www.w3.org/Graphics/SVG/1.1/DTD/svg11.dtd'>
<svg width="630pt" height="935pt" viewBox="0 0 630 935" xmlns="http://www.w3.org/2000/svg"><g class="graph" transform="scale(1) translate(36 899)"><polygon points="-36 36 -36 -899 594 -899 594 36" fill="#fff" stroke="transparent"/><g class="node"><path d="m89-863h-34c-6 0-12 6-12 12v12c0 6 6 12 12 12h34c6 0 12-6 12-12v-12c0-6-6-12-12-12" fill="#decbe4" stroke="#000"/><text x="72" y="-841.3" font-family="Monospace" font-size="14" text-anchor="middle">Start</text><polygon points="72 -791 0 -733.5 72 -676 144 -733.5" fill="#ffc" stroke="#000"/><text x="72" y="-737.3" font-family="Monospace" font-size="14" text-anchor="middle">Trying to be</text><text x="72" y="-722.3" font-family="Monospace" font-size="14" text-anchor="middle">anonymous?</text></g><g class="edge" stroke="#000"><path d="m72-826.59v25.14" fill="none"/><polygon points="72 -791.45 76.5 -801.45 72 -796.45 72 -801.45 72 -801.45 72 -801.45 72 -796.45 67.5 -801.45 72 -791.45"/></g><g class="node"><path d="m249.5-36h-75c-6 0-12 6-12 12v12c0 6 6 12 12 12h75c6 0 12-6 12-12v-12c0-6-6-12-12-12" fill="#decbe4" stroke="#000"/><text x="212" y="-14.3" font-family="Monospace" font-size="14" text-anchor="middle">Do nothing</text><polygon points="72 -640 0 -582.5 72 -525 144 -582.5" fill="#ffc" stroke="#000"/><text x="72" y="-586.3" font-family="Monospace" font-size="14" text-anchor="middle">Avoiding</text><text x="72" y="-571.3" font-family="Monospace" font-size="14" text-anchor="middle">censorship?</text></g><g class="edge"><path d="m72-675.98v25.87" fill="none" stroke="#000"/><polygon points="72 -640.11 76.5 -650.11 72 -645.11 72 -650.11 72 -650.11 72 -650.11 72 -645.11 67.5 -650.11 72 -640.11" stroke="#000"/><text x="63.5" y="-651.85" font-family="Monospace" font-size="14" text-anchor="middle">No</text></g><g class="node"><path d="m300-697.5h106c6 0 12-6 12-12v-48c0-6-6-12-12-12h-106c-6 0-12 6-12 12v48c0 6 6 12 12 12" fill="#b3cde3" stroke="#000"/><text x="353" y="-729.8" font-family="Monospace" font-size="14" text-anchor="middle">Use Tor</text></g><g class="edge"><path d="m143.64-733h134.11" fill="none" stroke="#000"/><polygon points="287.75 -733 277.75 -737.5 282.75 -733 277.75 -733 277.75 -733 277.75 -733 282.75 -733 277.75 -728.5 287.75 -733" stroke="#000"/><text x="198.19" y="-736.8" font-family="Monospace" font-size="14" text-anchor="middle">Yes</text></g><g class="node"><polygon points="212 -489 140 -431.5 212 -374 284 -431.5" fill="#ffc" stroke="#000"/><text x="212" y="-435.3" font-family="Monospace" font-size="14" text-anchor="middle">Want privacy</text><text x="212" y="-420.3" font-family="Monospace" font-size="14" text-anchor="middle">from ISP?</text></g><g class="edge"><path d="m84.7-535h105.97v52.89" fill="none" stroke="#000"/><polygon points="190.67 -472.11 195.17 -482.11 190.67 -477.11 190.67 -482.11 190.67 -482.11 190.67 -482.11 190.67 -477.11 186.17 -482.11 190.67 -472.11" stroke="#000"/><text x="155.63" y="-538.8" font-family="Monospace" font-size="14" text-anchor="middle">No</text></g><g class="node"><path d="m300-546.5h106c6 0 12-6 12-12v-48c0-6-6-12-12-12h-106c-6 0-12 6-12 12v48c0 6 6 12 12 12" fill="#b3cde3" stroke="#000"/><text x="353" y="-586.3" font-family="Monospace" font-size="14" text-anchor="middle">Use VPN</text><text x="353" y="-571.3" font-family="Monospace" font-size="14" text-anchor="middle">or Tor</text></g><g class="edge"><path d="m129.88-594h147.94" fill="none" stroke="#000"/><polygon points="287.82 -594 277.82 -598.5 282.82 -594 277.82 -594 277.82 -594 277.82 -594 282.82 -594 277.82 -589.5 287.82 -594" stroke="#000"/><text x="191.35" y="-597.8" font-family="Monospace" font-size="14" text-anchor="middle">Yes</text></g><g class="node"><polygon points="212 -338 140 -280.5 212 -223 284 -280.5" fill="#ffc" stroke="#000"/><g font-family="Monospace" font-size="14" text-anchor="middle"><text x="212" y="-291.8">ISP makes</text><text x="212" y="-276.8">obnoxious</text><text x="212" y="-261.8">redirects?</text></g></g><g class="edge"><path d="m212-373.98v25.87" fill="none" stroke="#000"/><polygon points="212 -338.11 216.5 -348.11 212 -343.11 212 -348.11 212 -348.11 212 -348.11 212 -343.11 207.5 -348.11 212 -338.11" stroke="#000"/><text x="203.5" y="-349.85" font-family="Monospace" font-size="14" text-anchor="middle">No</text><path d="m237.33-468.98v-101.02h40.4" fill="none" stroke="#000"/><polygon points="287.73 -570 277.73 -574.5 282.73 -570 277.73 -570 277.73 -570 277.73 -570 282.73 -570 277.73 -565.5 287.73 -570" stroke="#000"/><text x="224.83" y="-543.49" font-family="Monospace" font-size="14" text-anchor="middle">Yes</text></g><g class="node"><polygon points="212 -187 140 -129.5 212 -72 284 -129.5" fill="#ffc" stroke="#000"/><g font-family="Monospace" font-size="14" text-anchor="middle"><text x="212" y="-148.3">Does ISP</text><text x="212" y="-133.3">support</text><text x="212" y="-118.3">encrypted</text><text x="212" y="-103.3">DNS?</text></g></g><g class="edge"><path d="m212-222.98v25.87" fill="none" stroke="#000"/><polygon points="212 -187.11 216.5 -197.11 212 -192.11 212 -197.11 212 -197.11 212 -197.11 212 -192.11 207.5 -197.11 212 -187.11" stroke="#000"/><text x="203.5" y="-198.85" font-family="Monospace" font-size="14" text-anchor="middle">No</text></g><g class="node"><path d="m440-244.5h106c6 0 12-6 12-12v-48c0-6-6-12-12-12h-106c-6 0-12 6-12 12v48c0 6 6 12 12 12" fill="#b3cde3" stroke="#000"/><g font-family="Monospace" font-size="14" text-anchor="middle"><text x="493" y="-291.8">Use encrypted</text><text x="493" y="-276.8">DNS with 3rd</text><text x="493" y="-261.8">party</text></g></g><g class="edge"><path d="m283.64-280h134.11" fill="none" stroke="#000"/><polygon points="427.75 -280 417.75 -284.5 422.75 -280 417.75 -280 417.75 -280 417.75 -280 422.75 -280 417.75 -275.5 427.75 -280" stroke="#000"/><text x="338.19" y="-283.8" font-family="Monospace" font-size="14" text-anchor="middle">Yes</text><path d="m212-71.79v25.66" fill="none" stroke="#000"/><polygon points="212 -36.13 216.5 -46.13 212 -41.13 212 -46.13 212 -46.13 212 -46.13 212 -41.13 207.5 -46.13 212 -36.13" stroke="#000"/><text x="203.5" y="-47.76" font-family="Monospace" font-size="14" text-anchor="middle">No</text></g><g class="node"><path d="m440-93.5h106c6 0 12-6 12-12v-48c0-6-6-12-12-12h-106c-6 0-12 6-12 12v48c0 6 6 12 12 12" fill="#b3cde3" stroke="#000"/><text x="493" y="-133.3" font-family="Monospace" font-size="14" text-anchor="middle">Use encrypted</text><text x="493" y="-118.3" font-family="Monospace" font-size="14" text-anchor="middle">DNS with ISP</text></g><g class="edge"><path d="m283.64-129h134.11" fill="none" stroke="#000"/><polygon points="427.75 -129 417.75 -133.5 422.75 -129 417.75 -129 417.75 -129 417.75 -129 422.75 -129 417.75 -124.5 427.75 -129" stroke="#000"/><text x="338.19" y="-132.8" font-family="Monospace" font-size="14" text-anchor="middle">Yes</text></g></g></svg>
