<?xml version="1.0" encoding="UTF-8" standalone="no"?>
<!DOCTYPE svg PUBLIC "-//W3C//DTD SVG 1.1//EN"
 "http://www.w3.org/Graphics/SVG/1.1/DTD/svg11.dtd">
<!-- Generated by graphviz version 2.48.0 (0)
 -->
<!-- Title: DNS Pages: 1 -->
<svg width="630pt" height="935pt"
 viewBox="0.00 0.00 630.00 935.00" xmlns="http://www.w3.org/2000/svg" xmlns:xlink="http://www.w3.org/1999/xlink">
<g id="graph0" class="graph" transform="scale(1 1) rotate(0) translate(36 899)">
<title>DNS</title>
<!-- Start -->
<g id="node1" class="node">
<title>Start</title>
<path fill="#d4bbd2" stroke="#d4bbd2" d="M89,-863C89,-863 55,-863 55,-863 49,-863 43,-857 43,-851 43,-851 43,-839 43,-839 43,-833 49,-827 55,-827 55,-827 89,-827 89,-827 95,-827 101,-833 101,-839 101,-839 101,-851 101,-851 101,-857 95,-863 89,-863"/>
<text text-anchor="middle" x="72" y="-841.3" font-family="monospace" font-size="14.00">Start</text>
</g>
<!-- anonymous -->
<g id="node3" class="node">
<title>anonymous</title>
<polygon fill="#ffebc2" stroke="#ffebc2" points="72,-791 0,-733.5 72,-676 144,-733.5 72,-791"/>
<text text-anchor="middle" x="72" y="-737.3" font-family="monospace" font-size="14.00">Trying to be</text>
<text text-anchor="middle" x="72" y="-722.3" font-family="monospace" font-size="14.00"> anonymous?</text>
</g>
<!-- Start&#45;&gt;anonymous -->
<g id="edge1" class="edge">
<title>Start&#45;&gt;anonymous</title>
<path fill="none" stroke="black" d="M72,-826.59C72,-826.59 72,-801.45 72,-801.45"/>
<polygon fill="black" stroke="black" points="72,-791.45 76.5,-801.45 72,-796.45 72,-801.45 72,-801.45 72,-801.45 72,-796.45 67.5,-801.45 72,-791.45 72,-791.45"/>
</g>
<!-- nothing -->
<g id="node2" class="node">
<title>nothing</title>
<path fill="#d4bbd2" stroke="#d4bbd2" d="M249.5,-36C249.5,-36 174.5,-36 174.5,-36 168.5,-36 162.5,-30 162.5,-24 162.5,-24 162.5,-12 162.5,-12 162.5,-6 168.5,0 174.5,0 174.5,0 249.5,0 249.5,0 255.5,0 261.5,-6 261.5,-12 261.5,-12 261.5,-24 261.5,-24 261.5,-30 255.5,-36 249.5,-36"/>
<text text-anchor="middle" x="212" y="-14.3" font-family="monospace" font-size="14.00">Do nothing</text>
</g>
<!-- censorship -->
<g id="node4" class="node">
<title>censorship</title>
<polygon fill="#ffebc2" stroke="#ffebc2" points="72,-640 0,-582.5 72,-525 144,-582.5 72,-640"/>
<text text-anchor="middle" x="72" y="-586.3" font-family="monospace" font-size="14.00">Avoiding</text>
<text text-anchor="middle" x="72" y="-571.3" font-family="monospace" font-size="14.00"> censorship?</text>
</g>
<!-- anonymous&#45;&gt;censorship -->
<g id="edge3" class="edge">
<title>anonymous&#45;&gt;censorship</title>
<path fill="none" stroke="black" d="M72,-675.98C72,-675.98 72,-650.11 72,-650.11"/>
<polygon fill="black" stroke="black" points="72,-640.11 76.5,-650.11 72,-645.11 72,-650.11 72,-650.11 72,-650.11 72,-645.11 67.5,-650.11 72,-640.11 72,-640.11"/>
<text text-anchor="middle" x="63.5" y="-651.85" font-family="monospace" font-size="14.00">No</text>
</g>
<!-- tor -->
<g id="node8" class="node">
<title>tor</title>
<path fill="#7aa0da" stroke="#7aa0da" d="M300,-697.5C300,-697.5 406,-697.5 406,-697.5 412,-697.5 418,-703.5 418,-709.5 418,-709.5 418,-757.5 418,-757.5 418,-763.5 412,-769.5 406,-769.5 406,-769.5 300,-769.5 300,-769.5 294,-769.5 288,-763.5 288,-757.5 288,-757.5 288,-709.5 288,-709.5 288,-703.5 294,-697.5 300,-697.5"/>
<text text-anchor="middle" x="353" y="-729.8" font-family="monospace" font-size="14.00">Use Tor</text>
</g>
<!-- anonymous&#45;&gt;tor -->
<g id="edge2" class="edge">
<title>anonymous&#45;&gt;tor</title>
<path fill="none" stroke="black" d="M143.64,-733C143.64,-733 277.75,-733 277.75,-733"/>
<polygon fill="black" stroke="black" points="287.75,-733 277.75,-737.5 282.75,-733 277.75,-733 277.75,-733 277.75,-733 282.75,-733 277.75,-728.5 287.75,-733 287.75,-733"/>
<text text-anchor="middle" x="198.19" y="-736.8" font-family="monospace" font-size="14.00">Yes</text>
</g>
<!-- privacy -->
<g id="node5" class="node">
<title>privacy</title>
<polygon fill="#ffebc2" stroke="#ffebc2" points="212,-489 140,-431.5 212,-374 284,-431.5 212,-489"/>
<text text-anchor="middle" x="212" y="-435.3" font-family="monospace" font-size="14.00">Want privacy</text>
<text text-anchor="middle" x="212" y="-420.3" font-family="monospace" font-size="14.00"> from ISP?</text>
</g>
<!-- censorship&#45;&gt;privacy -->
<g id="edge5" class="edge">
<title>censorship&#45;&gt;privacy</title>
<path fill="none" stroke="black" d="M84.7,-535C115.31,-535 190.67,-535 190.67,-535 190.67,-535 190.67,-482.11 190.67,-482.11"/>
<polygon fill="black" stroke="black" points="190.67,-472.11 195.17,-482.11 190.67,-477.11 190.67,-482.11 190.67,-482.11 190.67,-482.11 190.67,-477.11 186.17,-482.11 190.67,-472.11 190.67,-472.11"/>
<text text-anchor="middle" x="155.63" y="-538.8" font-family="monospace" font-size="14.00">No</text>
</g>
<!-- vpnOrTor -->
<g id="node9" class="node">
<title>vpnOrTor</title>
<path fill="#7aa0da" stroke="#7aa0da" d="M300,-546.5C300,-546.5 406,-546.5 406,-546.5 412,-546.5 418,-552.5 418,-558.5 418,-558.5 418,-606.5 418,-606.5 418,-612.5 412,-618.5 406,-618.5 406,-618.5 300,-618.5 300,-618.5 294,-618.5 288,-612.5 288,-606.5 288,-606.5 288,-558.5 288,-558.5 288,-552.5 294,-546.5 300,-546.5"/>
<text text-anchor="middle" x="353" y="-586.3" font-family="monospace" font-size="14.00">Use VPN</text>
<text text-anchor="middle" x="353" y="-571.3" font-family="monospace" font-size="14.00"> or Tor</text>
</g>
<!-- censorship&#45;&gt;vpnOrTor -->
<g id="edge4" class="edge">
<title>censorship&#45;&gt;vpnOrTor</title>
<path fill="none" stroke="black" d="M129.88,-594C129.88,-594 277.82,-594 277.82,-594"/>
<polygon fill="black" stroke="black" points="287.82,-594 277.82,-598.5 282.82,-594 277.82,-594 277.82,-594 277.82,-594 282.82,-594 277.82,-589.5 287.82,-594 287.82,-594"/>
<text text-anchor="middle" x="191.35" y="-597.8" font-family="monospace" font-size="14.00">Yes</text>
</g>
<!-- obnoxious -->
<g id="node6" class="node">
<title>obnoxious</title>
<polygon fill="#ffebc2" stroke="#ffebc2" points="212,-338 140,-280.5 212,-223 284,-280.5 212,-338"/>
<text text-anchor="middle" x="212" y="-291.8" font-family="monospace" font-size="14.00">ISP makes</text>
<text text-anchor="middle" x="212" y="-276.8" font-family="monospace" font-size="14.00"> obnoxious</text>
<text text-anchor="middle" x="212" y="-261.8" font-family="monospace" font-size="14.00"> redirects?</text>
</g>
<!-- privacy&#45;&gt;obnoxious -->
<g id="edge7" class="edge">
<title>privacy&#45;&gt;obnoxious</title>
<path fill="none" stroke="black" d="M212,-373.98C212,-373.98 212,-348.11 212,-348.11"/>
<polygon fill="black" stroke="black" points="212,-338.11 216.5,-348.11 212,-343.11 212,-348.11 212,-348.11 212,-348.11 212,-343.11 207.5,-348.11 212,-338.11 212,-338.11"/>
<text text-anchor="middle" x="203.5" y="-349.85" font-family="monospace" font-size="14.00">No</text>
</g>
<!-- privacy&#45;&gt;vpnOrTor -->
<g id="edge6" class="edge">
<title>privacy&#45;&gt;vpnOrTor</title>
<path fill="none" stroke="black" d="M237.33,-468.98C237.33,-510 237.33,-570 237.33,-570 237.33,-570 277.73,-570 277.73,-570"/>
<polygon fill="black" stroke="black" points="287.73,-570 277.73,-574.5 282.73,-570 277.73,-570 277.73,-570 277.73,-570 282.73,-570 277.73,-565.5 287.73,-570 287.73,-570"/>
<text text-anchor="middle" x="224.83" y="-543.49" font-family="monospace" font-size="14.00">Yes</text>
</g>
<!-- ispDNS -->
<g id="node7" class="node">
<title>ispDNS</title>
<polygon fill="#ffebc2" stroke="#ffebc2" points="212,-187 140,-129.5 212,-72 284,-129.5 212,-187"/>
<text text-anchor="middle" x="212" y="-148.3" font-family="monospace" font-size="14.00">Does ISP</text>
<text text-anchor="middle" x="212" y="-133.3" font-family="monospace" font-size="14.00"> support</text>
<text text-anchor="middle" x="212" y="-118.3" font-family="monospace" font-size="14.00"> encrypted</text>
<text text-anchor="middle" x="212" y="-103.3" font-family="monospace" font-size="14.00"> DNS?</text>
</g>
<!-- obnoxious&#45;&gt;ispDNS -->
<g id="edge9" class="edge">
<title>obnoxious&#45;&gt;ispDNS</title>
<path fill="none" stroke="black" d="M212,-222.98C212,-222.98 212,-197.11 212,-197.11"/>
<polygon fill="black" stroke="black" points="212,-187.11 216.5,-197.11 212,-192.11 212,-197.11 212,-197.11 212,-197.11 212,-192.11 207.5,-197.11 212,-187.11 212,-187.11"/>
<text text-anchor="middle" x="203.5" y="-198.85" font-family="monospace" font-size="14.00">No</text>
</g>
<!-- encryptedDNS -->
<g id="node10" class="node">
<title>encryptedDNS</title>
<path fill="#7aa0da" stroke="#7aa0da" d="M440,-244.5C440,-244.5 546,-244.5 546,-244.5 552,-244.5 558,-250.5 558,-256.5 558,-256.5 558,-304.5 558,-304.5 558,-310.5 552,-316.5 546,-316.5 546,-316.5 440,-316.5 440,-316.5 434,-316.5 428,-310.5 428,-304.5 428,-304.5 428,-256.5 428,-256.5 428,-250.5 434,-244.5 440,-244.5"/>
<text text-anchor="middle" x="493" y="-291.8" font-family="monospace" font-size="14.00">Use encrypted</text>
<text text-anchor="middle" x="493" y="-276.8" font-family="monospace" font-size="14.00"> DNS with 3rd</text>
<text text-anchor="middle" x="493" y="-261.8" font-family="monospace" font-size="14.00"> party</text>
</g>
<!-- obnoxious&#45;&gt;encryptedDNS -->
<g id="edge8" class="edge">
<title>obnoxious&#45;&gt;encryptedDNS</title>
<path fill="none" stroke="black" d="M283.64,-280C283.64,-280 417.75,-280 417.75,-280"/>
<polygon fill="black" stroke="black" points="427.75,-280 417.75,-284.5 422.75,-280 417.75,-280 417.75,-280 417.75,-280 422.75,-280 417.75,-275.5 427.75,-280 427.75,-280"/>
<text text-anchor="middle" x="338.19" y="-283.8" font-family="monospace" font-size="14.00">Yes</text>
</g>
<!-- ispDNS&#45;&gt;nothing -->
<g id="edge11" class="edge">
<title>ispDNS&#45;&gt;nothing</title>
<path fill="none" stroke="black" d="M212,-71.79C212,-71.79 212,-46.13 212,-46.13"/>
<polygon fill="black" stroke="black" points="212,-36.13 216.5,-46.13 212,-41.13 212,-46.13 212,-46.13 212,-46.13 212,-41.13 207.5,-46.13 212,-36.13 212,-36.13"/>
<text text-anchor="middle" x="203.5" y="-47.76" font-family="monospace" font-size="14.00">No</text>
</g>
<!-- useISP -->
<g id="node11" class="node">
<title>useISP</title>
<path fill="#7aa0da" stroke="#7aa0da" d="M440,-93.5C440,-93.5 546,-93.5 546,-93.5 552,-93.5 558,-99.5 558,-105.5 558,-105.5 558,-153.5 558,-153.5 558,-159.5 552,-165.5 546,-165.5 546,-165.5 440,-165.5 440,-165.5 434,-165.5 428,-159.5 428,-153.5 428,-153.5 428,-105.5 428,-105.5 428,-99.5 434,-93.5 440,-93.5"/>
<text text-anchor="middle" x="493" y="-133.3" font-family="monospace" font-size="14.00">Use encrypted</text>
<text text-anchor="middle" x="493" y="-118.3" font-family="monospace" font-size="14.00"> DNS with ISP</text>
</g>
<!-- ispDNS&#45;&gt;useISP -->
<g id="edge10" class="edge">
<title>ispDNS&#45;&gt;useISP</title>
<path fill="none" stroke="black" d="M283.64,-129C283.64,-129 417.75,-129 417.75,-129"/>
<polygon fill="black" stroke="black" points="427.75,-129 417.75,-133.5 422.75,-129 417.75,-129 417.75,-129 417.75,-129 422.75,-129 417.75,-124.5 427.75,-129 427.75,-129"/>
<text text-anchor="middle" x="338.19" y="-132.8" font-family="monospace" font-size="14.00">Yes</text>
</g>
</g>
</svg>
