<svg xmlns="http://www.w3.org/2000/svg" viewBox="0 0 24 24"><g fill="none" fill-rule="evenodd"><path d="M19 14.788c-2.645 1.585-5.976 1.073-8.08-1.241C8.818 11.232 8.48 7.709 10.105 5 7.15 5.953 5 8.877 5 12.337 5 16.567 8.219 20 12.188 20c3.166 0 5.853-2.182 6.812-5.212Z"/><path fill="currentColor" fill-rule="nonzero" d="m18.917 14.768 1.027.337c.142-.42.007-.88-.34-1.161a1.096 1.096 0 0 0-1.223-.1l.536.924ZM9.49 5.065l.915.569a1.05 1.05 0 0 0-.055-1.216 1.092 1.092 0 0 0-1.178-.37l.318 1.017Zm8.892 8.778a5.99 5.99 0 0 1-2.942.764v2.13a8.181 8.181 0 0 0 4.013-1.044l-1.07-1.85Zm-2.942.764a5.998 5.998 0 0 1-4.207-1.714 5.808 5.808 0 0 1-1.743-4.14H7.327c0 4.41 3.632 7.985 8.112 7.985v-2.13h.001ZM9.49 8.755c0-1.149.335-2.217.914-3.12l-1.83-1.138a7.86 7.86 0 0 0-1.247 4.258H9.49Zm-4.327 3.585a6.538 6.538 0 0 1 4.643-6.257l-.634-2.034C5.592 5.128 3 8.435 3 12.338h2.163v.001Zm6.536 6.532c-3.596-.001-6.536-2.913-6.536-6.533H3c0 4.769 3.881 8.66 8.699 8.66V18.87Zm6.192-4.44a6.538 6.538 0 0 1-6.192 4.44V21a8.698 8.698 0 0 0 8.244-5.894l-2.052-.673v-.001Z"/><path fill="currentColor" d="M18 2a1 1 0 0 1 1 1 2 2 0 0 0 2 2 1 1 0 0 1 0 2 2 2 0 0 0-2 2 1 1 0 0 1-2 0 2 2 0 0 0-2-2 1 1 0 0 1 0-2 2 2 0 0 0 2-2 1 1 0 0 1 1-1Z"/></g></svg>