<?xml version="1.0" encoding="UTF-8" standalone="no"?>
<svg
   viewBox="0 0 128 128"
   id="vector"
   version="1.1"
   sodipodi:docname="logo_128"
   width="128"
   height="128"
   inkscape:version="1.2 (56b05e47e7, 2022-06-09, custom)"
   xmlns:inkscape="http://www.inkscape.org/namespaces/inkscape"
   xmlns:sodipodi="http://sodipodi.sourceforge.net/DTD/sodipodi-0.dtd"
   xmlns="http://www.w3.org/2000/svg"
   xmlns:svg="http://www.w3.org/2000/svg">
  <sodipodi:namedview
     id="namedview31"
     pagecolor="#ffffff"
     bordercolor="#666666"
     borderopacity="1.0"
     inkscape:showpageshadow="2"
     inkscape:pageopacity="0.0"
     inkscape:pagecheckerboard="0"
     inkscape:deskcolor="#d1d1d1"
     showgrid="false"
     inkscape:zoom="3.7638889"
     inkscape:cx="98.0369"
     inkscape:cy="53.269373"
     inkscape:window-width="1848"
     inkscape:window-height="1016"
     inkscape:window-x="72"
     inkscape:window-y="27"
     inkscape:window-maximized="1"
     inkscape:current-layer="vector" />
  <defs
     id="defs158" />
  <g
     id="group"
     transform="matrix(2.5665704,0,0,2.5665704,-73.624638,-74.594802)">
    <path
       id="path"
       d="m 28.686,54 c 0,-6.611 2.629,-12.958 7.304,-17.632 4.674,-4.675 11.021,-7.304 17.632,-7.304 6.611,0 12.958,2.629 17.633,7.304 4.674,4.674 7.303,11.021 7.303,17.632 0,6.611 -2.629,12.958 -7.303,17.632 -4.675,4.675 -11.022,7.304 -17.633,7.304 -6.611,0 -12.958,-2.629 -17.632,-7.304 C 31.315,66.958 28.686,60.611 28.686,54"
       fill="#ffffff"
       stroke-width="1" />
    <path
       id="path_1"
       d="M 48.419922,40.201172 V 61.994141 H 70.214844 V 40.201172 Z m 2.818359,2.818359 h 16.15625 V 54.070312 L 63.232422,50 l -4.988281,5.304688 -3.146485,-3.046876 -3.859375,4.173829 z m 6.460938,1.972657 c -1.196408,0.01026 -2.406315,1.012841 -2.333985,2.28125 -0.0012,0.185997 0.02158,0.372249 0.06641,0.552734 0.276824,1.497587 2.225969,2.182101 3.451171,1.363281 1.381451,-0.812417 1.303684,-3.045455 -0.04102,-3.849609 -0.347913,-0.244104 -0.743776,-0.351076 -1.142578,-0.347656 z"
       style="fill:#009688;fill-opacity:1" />
    <path
       id="path_5"
       d="m 43.2,48.735 c -0.807,0 -1.461,-0.654 -1.461,-1.461 v -6.667 c 0,-3.679 2.993,-6.673 6.672,-6.673 3.679,0 6.733873,2.586429 6.733873,6.265429 l -2.904498,0.01627 c 0,-2.068 -1.761375,-3.358703 -3.829375,-3.358703 -2.068,0 -3.75,1.682 -3.75,3.75 v 6.667 c 0,0.807 -0.654,1.461 -1.461,1.461 z m 0,-6.787 -7.013,6.818 V 68.907 H 50.213 V 48.766 Z m 0,7.429 c -1.143,0 -2.07,-0.927 -2.07,-2.07 0,-1.143 0.927,-2.07 2.07,-2.07 1.143,0 2.07,0.927 2.07,2.07 0,1.143 -0.927,2.07 -2.07,2.07 z"
       style="fill:#00675b;fill-opacity:1" />
  </g>
</svg>
