<svg xmlns="http://www.w3.org/2000/svg" id="vector" version="1.1" viewBox="0 0 128 128"><g id="group" transform="matrix(2.5666 0 0 2.5666 -73.625 -74.595)"><path id="path" fill="#fff" d="m28.686 54c0-6.611 2.629-12.958 7.304-17.632 4.674-4.675 11.021-7.304 17.632-7.304s12.958 2.629 17.633 7.304c4.674 4.674 7.303 11.021 7.303 17.632s-2.629 12.958-7.303 17.632c-4.675 4.675-11.022 7.304-17.633 7.304s-12.958-2.629-17.632-7.304c-4.675-4.674-7.304-11.021-7.304-17.632"/><path fill="#009688" d="m48.42 40.201v21.793h21.795v-21.793zm2.8184 2.8184h16.156v11.051l-4.1621-4.0703-4.9883 5.3047-3.1465-3.0469-3.8594 4.1738zm6.4609 1.9727c-1.1964 0.01026-2.4063 1.0128-2.334 2.2812-0.0012 0.186 0.02158 0.37225 0.06641 0.55273 0.27682 1.4976 2.226 2.1821 3.4512 1.3633 1.3815-0.81242 1.3037-3.0455-0.04102-3.8496-0.34791-0.2441-0.74378-0.35108-1.1426-0.34766z"/><path fill="#00675b" d="m43.2 48.735c-0.807 0-1.461-0.654-1.461-1.461v-6.667c0-3.679 2.993-6.673 6.672-6.673s6.7339 2.5864 6.7339 6.2654l-2.9045 0.01627c0-2.068-1.7614-3.3587-3.8294-3.3587s-3.75 1.682-3.75 3.75v6.667c0 0.807-0.654 1.461-1.461 1.461zm0-6.787-7.013 6.818v20.141h14.026v-20.141zm0 7.429c-1.143 0-2.07-0.927-2.07-2.07s0.927-2.07 2.07-2.07 2.07 0.927 2.07 2.07-0.927 2.07-2.07 2.07z"/></g></svg>