<svg xmlns="http://www.w3.org/2000/svg" width="128" height="128" version="1.1" viewBox="0 0 33.867 33.867"><circle cx="16.933" cy="16.933" r="16.933" style="fill:gray"/><path d="m18.986 1.2828a13.598 13.598 0 0 0-0.10724 0.00402c-0.24629 0.00196-0.49061 0.011188-0.73362 0.026058a13.598 13.598 0 0 0-0.2275 0.017025c-0.40065 0.031208-0.79646 0.078131-1.1866 0.14332a13.598 13.598 0 0 0-0.12928 0.023052c-0.41351 0.073219-0.82099 0.16491-1.2207 0.27461a13.598 13.598 0 0 0-0.07217 0.020044c-0.41753 0.11708-0.82646 0.25299-1.2267 0.4079a13.598 13.598 0 0 0-0.05011 0.020044c-0.39873 0.15616-0.78822 0.33045-1.1676 0.52215a13.598 13.598 0 0 0-0.09521 0.049107c-0.36559 0.18838-0.72099 0.39272-1.0664 0.61235a13.598 13.598 0 0 0-0.12127 0.077171c-0.33177 0.21593-0.6532 0.44626-0.96412 0.68952a13.598 13.598 0 0 0-0.14734 0.11625c-0.30101 0.24227-0.59176 0.4971-0.87091 0.76369a13.598 13.598 0 0 0-0.1413 0.1353c-0.27923 0.27441-0.54596 0.56139-0.80077 0.85889a13.598 13.598 0 0 0-0.10722 0.12427c-0.26583 0.31802-0.51634 0.64848-0.75266 0.99018a13.598 13.598 0 0 0-0.047111 0.067148c-0.24804 0.36329-0.47897 0.73907-0.69152 1.1265a13.598 13.598 0 0 0-0.00794 0.014022c-0.64285 1.1751-1.1176 2.4552-1.3911 3.8084a13.598 13.598 0 0 0-0.00296 0.01707c-0.087159 0.43399-0.15469 0.87506-0.19944 1.3229a13.598 13.598 0 0 0-0.0019 0.03508c-0.041327 0.42465-0.063787 0.85465-0.06515 1.2898a13.598 13.598 0 0 0-0.0019 0.0421 13.598 13.598 0 0 0 0.00403 0.10122c0.00178 0.24968 0.011022 0.49733 0.026062 0.74364a13.598 13.598 0 0 0 0.016095 0.22049c0.031301 0.40377 0.079514 0.80253 0.14532 1.1956a13.598 13.598 0 0 0 0.021037 0.11526c0.073932 0.41935 0.16619 0.83258 0.27761 1.2377a13.598 13.598 0 0 0 0.013961 0.05112c0.11906 0.42632 0.25846 0.84344 0.41692 1.2518a13.598 13.598 0 0 0 0.00794 0.02205c0.15979 0.40963 0.33894 0.80943 0.53618 1.1986a13.598 13.598 0 0 0 0.033067 0.06315c0.1949 0.37962 0.40587 0.74959 0.6344 1.1074a13.598 13.598 0 0 0 0.049102 0.07616c0.22493 0.3471 0.46583 0.68289 0.72059 1.0072a13.598 13.598 0 0 0 0.081185 0.10423c0.041209 0.05144 0.080332 0.10453 0.12228 0.15534 8.735e-4 0.0011 0.0019 0.0018 0.00308 3e-3 0.13772 0.16677 0.27956 0.33014 0.42494 0.49008 9.742e-4 1e-3 0.00213 0.0019 0.00296 0.0031 0.00391 0.0043 0.00818 0.0077 0.012018 0.01202 0.075022 0.08232 0.15352 0.16109 0.23051 0.24153a13.598 13.598 0 0 0 0.11225 0.11827l0.00403 4e-3c0.030637 0.03122 0.059271 0.06428 0.090204 0.09521l0.00403 4e-3 0.00604 6e-3 0.00699 7e-3 0.0051 0.0051 0.025055 0.02505c0.00249 0.0025 0.00545 0.0045 0.00794 7e-3 0.0019 0.0019 0.00308 0.0043 0.0051 6e-3 0.00344 0.0034 0.00759 0.0066 0.011022 0.01007l1e-3 1e-3c0.00557 0.0056 0.011259 0.0115 0.017067 0.01707 0.00676 0.0068 0.013191 0.01415 0.020053 0.02104 0.00759 0.0076 0.015514 0.01454 0.02304 0.02206l0.024047 0.02405 0.02605 0.02606 0.029073 0.02907c0.010074 0.01031 0.019864 0.02088 0.030056 0.03106 0.010904 0.0109 0.02221 0.02124 0.033067 0.03208 0.011496 0.0115 0.022684 0.02273 0.034074 0.03407 0.012219 0.01222 0.02387 0.02492 0.036077 0.03708 0.01299 0.01299 0.026027 0.02609 0.039076 0.03908 0.01357 0.01357 0.027544 0.02658 0.041102 0.04008 0.013962 0.01416 0.02803 0.02809 0.042086 0.04209 0.014933 0.01512 0.030021 0.03012 0.045108 0.0451 0.015514 0.01551 0.031538 0.0306 0.047111 0.0461 0.016296 0.01649 0.032675 0.03276 0.049102 0.0491 0.016877 0.01688 0.033197 0.03429 0.050109 0.0511 0.01746 0.01765 0.03553 0.03464 0.05312 0.05211 0.01843 0.01842 0.03667 0.03679 0.05512 0.05511 0.01901 0.0192 0.03803 0.03813 0.05714 0.05714 0.01947 0.01959 0.03853 0.03964 0.05812 0.05913 0.02015 0.02027 0.04087 0.03998 0.06113 0.06012 0.02131 0.02145 0.04269 0.04282 0.06413 0.06413 0.02133 0.02146 0.04267 0.0428 0.06413 0.06414 0.02232 0.02247 0.04466 0.04482 0.06714 0.06714 0.02298 0.02316 0.046 0.04615 0.06916 0.06915 0.02366 0.02382 0.04732 0.0475 0.07116 0.07116 0.02432 0.0245 0.04866 0.04885 0.07315 0.07315 0.02498 0.02517 0.05 0.05019 0.07518 0.07518 0.02564 0.02585 0.05132 0.05153 0.07717 0.07717 0.0263 0.02651 0.05266 0.05287 0.07917 0.07917 0.02697 0.02719 0.05397 0.05421 0.08118 0.08119 0.02795 0.02818 0.05599 0.05624 0.08419 0.0842 0.0281 0.02835 0.05687 0.05608 0.08519 0.08418 0.0291 0.02937 0.05784 0.05912 0.08719 0.08819 0.02962 0.02989 0.05931 0.05958 0.0892 0.0892 0.03027 0.03057 0.06065 0.06092 0.09121 0.09121 0.03143 0.03173 0.06348 0.06278 0.09521 0.09422 0.0314 0.0317 0.06248 0.06381 0.09421 0.09521 0.03227 0.03258 0.06462 0.06495 0.09722 0.09722 0.0331 0.03343 0.06677 0.06613 0.10023 0.09922 0.03373 0.03407 0.06714 0.0685 0.10121 0.10222 0.03425 0.03462 0.06861 0.06899 0.10323 0.10323 0.03505 0.03541 0.0708 0.07019 0.10624 0.10523 0.03575 0.03613 0.0711 0.0725 0.10722 0.10823 0.03636 0.03678 0.07346 0.07289 0.11023 0.10925 0.03706 0.03749 0.07375 0.07519 0.11124 0.11225 0.03769 0.03813 0.07612 0.07555 0.11425 0.11324 0.03855 0.03902 0.07723 0.07771 0.11624 0.11624 0.039 0.03947 0.07777 0.07926 0.11726 0.11827 0.0397 0.04019 0.08006 0.07955 0.12026 0.11925 0.03755 0.03801 0.07525 0.07565 0.11324 0.11324 0.04676 0.04743 0.09387 0.09457 0.1413 0.1413 0.03891 0.03934 0.07789 0.07839 0.11726 0.11726 0.04251 0.04307 0.08519 0.08578 0.12829 0.12829 0.04296 0.04354 0.08674 0.08632 0.13029 0.12928 0.04361 0.04422 0.08706 0.08868 0.1313 0.13229 0.04513 0.04575 0.09052 0.09119 0.1363 0.1363 0.04449 0.04511 0.08917 0.08981 0.1343 0.1343 0.04581 0.04647 0.09183 0.0925 0.1383 0.1383 0.04647 0.04715 0.09317 0.09384 0.14032 0.14032 0.04647 0.04715 0.09317 0.09384 0.14032 0.14031 0.04775 0.04849 0.09585 0.09657 0.14433 0.14431 0.0484 0.04916 0.09718 0.0979 0.14633 0.14633 0.04973 0.0505 0.09982 0.1006 0.15034 0.15034 0.04977 0.05054 0.09978 0.10056 0.15032 0.15032 0.05041 0.05122 0.10112 0.10191 0.15234 0.15234 0.05107 0.0519 0.10244 0.10328 0.15434 0.15434 0.05172 0.05257 0.10378 0.10463 0.15634 0.15635 0.05238 0.05325 0.10509 0.10597 0.15835 0.15835 0.05316 0.05403 0.10731 0.10721 0.16136 0.16035 0.05382 0.05473 0.10766 0.10956 0.16237 0.16336 0.05436 0.05529 0.10907 0.11 0.16436 0.16436 0.05502 0.05596 0.11039 0.11136 0.16636 0.16636 0.05577 0.05677 0.1126 0.1126 0.16937 0.16838 0.05644 0.05745 0.11392 0.11394 0.17138 0.17038 0.057 0.05803 0.11435 0.11538 0.17237 0.17237 0.05709 0.05812 0.11425 0.11629 0.17237 0.17338 0.05909 0.0602 0.1192 0.11929 0.17939 0.17839 0.05913 0.06024 0.11816 0.12028 0.17839 0.17939 0.05971 0.06084 0.12055 0.12069 0.18139 0.1804 0.06046 0.06159 0.1208 0.12298 0.1824 0.18341 0.06104 0.0622 0.12321 0.12336 0.18541 0.1844 0.06175 0.06296 0.12346 0.12567 0.18642 0.1874 0.06233 0.06357 0.12585 0.12608 0.18942 0.18841 0.06387 0.06513 0.12829 0.12961 0.19344 0.19344 0.06308 0.06431 0.12608 0.12837 0.19043 0.19142 3.32e-4 3.38e-4 6.71e-4 6.66e-4 1e-3 1e-3a16.933 16.933 0 0 0 15.225-16.829 16.933 16.933 0 0 0-2.5987-8.9988c-0.02533-0.025453-0.05062-0.050895-0.07616-0.076168-0.03373-0.034075-0.06815-0.067516-0.10222-0.10122-0.03309-0.033435-0.06579-0.067117-0.09922-0.10022-0.03227-0.032601-0.06462-0.064942-0.09722-0.097214-0.0314-0.031729-0.0635-0.06279-0.09521-0.094208-0.03142-0.031729-0.06247-0.063793-0.09421-0.095211-0.03027-0.030565-0.06062-0.060926-0.09119-0.0912-0.02962-0.029906-0.05931-0.059582-0.0892-0.089197-0.02908-0.029363-0.05886-0.058102-0.0882-0.087192-0.0281-0.028354-0.05583-0.057086-0.08418-0.085187-0.02795-0.028199-0.05599-0.056238-0.08418-0.084185-0.02696-0.02719-0.054-0.054202-0.08119-0.081179-0.02652-0.026531-0.05263-0.052877-0.07917-0.079175-0.02564-0.025852-0.05132-0.051532-0.07717-0.07717-0.02498-0.025173-0.05-0.050185-0.07518-0.075166-0.02432-0.024494-0.04866-0.048856-0.07315-0.073162-0.02364-0.023829-0.04734-0.0475-0.07116-0.071156-0.02298-0.023159-0.04601-0.046162-0.06916-0.069153-0.02233-0.022485-0.04467-0.044821-0.06714-0.067148-0.02133-0.021476-0.04267-0.04281-0.06413-0.064142-0.02131-0.021465-0.04269-0.042822-0.06413-0.064141-0.02014-0.020269-0.03987-0.04099-0.06014-0.061135-0.01947-0.019596-0.03953-0.038648-0.05913-0.058127-0.01901-0.019123-0.03803-0.03812-0.05714-0.057125-0.01842-0.018444-0.03667-0.036781-0.05511-0.055122-0.01746-0.01759-0.03454-0.035627-0.05211-0.053118-0.01688-0.016911-0.03419-0.033286-0.05112-0.05011-0.0163-0.016427-0.03268-0.032758-0.0491-0.049107-0.01551-0.015573-0.03053-0.031606-0.0461-0.047104-0.01493-0.015068-0.03004-0.030104-0.04511-0.045101-0.01396-0.01408-0.02802-0.028078-0.04209-0.042093-0.01357-0.013556-0.02652-0.027593-0.04008-0.04109-0.0066-0.00668-0.01338-0.013362-0.02005-0.020044-0.02428-0.024466-0.0487-0.048877-0.07315-0.073162-0.0055-0.00551-0.0115-0.010536-0.01707-0.016039-0.0109-0.01088-0.0212-0.022241-0.03208-0.033073-0.01007-0.010216-0.02085-0.019886-0.03106-0.030067-0.0097-0.00972-0.01939-0.019394-0.02907-0.029063-0.0088-0.00869-0.01746-0.017377-0.02606-0.026058-0.0079-0.00802-0.01609-0.016039-0.02405-0.024052-0.0076-0.00753-0.01454-0.015554-0.02206-0.023052-0.0037-0.00371-0.0073-0.00735-0.01102-0.01101-0.0031-0.00318-0.0068-0.00584-0.01007-0.00902-0.0031-0.00318-0.0058-0.00686-0.0091-0.010027-0.0025-0.00252-0.0066-0.00549-0.0091-0.00801-6.66e-4 -6.671e-4 -0.0014-0.00134-0.0019-2e-3 -0.0021-0.00222-0.0039-0.00482-6e-3 -0.00702-0.0025-0.00252-0.0055-0.00452-0.0079-0.00702-0.0025-0.00252-0.0045-0.00551-7e-3 -0.00801-0.0083-0.00836-0.01667-0.016718-0.02505-0.025055-0.0017-0.00169-0.0033-0.00332-0.0051-5e-3 -0.0013-0.00134-0.0027-0.00269-4e-3 -0.00402-1e-3 -0.00103-0.0019-0.00198-0.0031-0.00301-0.0013-0.00134-0.0027-0.00269-4e-3 -0.00402-6.68e-4 -6.671e-4 -0.0014-0.00134-0.0019-2e-3 -1e-3 -0.00103-0.0019-0.00198-3e-3 -0.00301l-1e-3 -1e-3c-6.68e-4 -6.671e-4 -0.0014-0.00134-0.0019-2e-3 -0.03026-0.030259-0.06266-0.058219-0.0932-0.088194-0.0052-0.00514-0.0109-0.00991-0.01609-0.015031-0.11462-0.11205-0.22926-0.22375-0.34777-0.33173-0.0043-0.0038-0.0077-0.00823-0.01203-0.012024-1e-3 -9.749e-4 -3e-3 -0.00204-4e-3 -0.00301-0.1107-0.10047-0.22509-0.19682-0.33891-0.29365a13.598 13.598 0 0 0-0.07217-0.063138c-0.02669-0.022379-0.0523-0.045971-0.07917-0.068151-0.0011-8.723e-4 -0.0018-0.00207-0.0031-0.00301-0.30776-0.25399-0.6285-0.49303-0.95811-0.71959-0.0051-0.00354-0.0098-0.0075-0.01512-0.01101a13.598 13.598 0 0 0-7e-3 -0.00402c-1.4731-1.0091-3.1548-1.7351-4.9679-2.1006-0.43848-0.088392-0.88429-0.15635-1.3369-0.20144-0.0024-2.329e-4 -0.0046-7.455e-4 -7e-3 -1e-3a13.598 13.598 0 0 0-0.02003-1e-3c-0.42725-0.041713-0.85995-0.063903-1.2979-0.065145a13.598 13.598 0 0 0-0.04008-2e-3z" style="opacity:.17"/><path d="m32.584 14.881a13.598 13.598 0 0 1-13.598 13.598 13.598 13.598 0 0 1-13.598-13.598 13.598 13.598 0 0 1 13.598-13.598 13.598 13.598 0 0 1 13.598 13.598z" style="enable-background:new;fill:#f2f2f2"/><path d="m23.753 6.2077c-1.1338 0-2.2674 0.29408-3.2832 0.88094-2.0317 1.1737-3.2821 3.3422-3.2802 5.6885 3.64e-4 0.45365 0.04732 0.89624 0.13529 1.3239 0.08768 0.42624 0.21589 0.83802 0.38184 1.2297l1e-3 1e-3c0.08296 0.19574 0.17472 0.38678 0.27561 0.57226l1e-3 1e-3c0.10093 0.18544 0.20999 0.36511 0.32772 0.53919 5.12e-4 7.57e-4 0.0025 0.0024 3e-3 0.0028 0.03886 0.05753 0.08365 0.11016 0.12428 0.16636 0.08196 0.11316 0.16171 0.22818 0.25055 0.33574 5.95e-4 7.21e-4 0.0014 0.0013 0.0019 0.0019 0.0018 0.0021 0.0043 0.0039 6e-3 6e-3 0.06854 0.08268 0.14404 0.15934 0.21648 0.23853 0.0091 0.01 0.01784 0.02018 0.02706 0.03006 0.02728 0.02952 0.05337 0.0602 0.08119 0.0892 0.0083 0.0088 0.01572 0.01842 0.02405 0.02706 0.02304 0.02374 0.04376 0.04979 0.06714 0.07315 8.44e-4 8.41e-4 0.0021 0.0012 0.0031 0.0019l1e-3 1e-3v1e-3c0.0027 0.0027 0.0052 0.0055 0.0079 0.0079 1e-3 1e-3 0.0019 0.0019 0.0031 0.0028l0.021 0.021c3e-3 0.0028 6e-3 6e-3 0.0091 0.0091 0.0034 0.0036 0.0076 0.0066 0.01102 0.01007l0.02305 0.02305c0.0045 0.0045 0.0085 0.0095 0.01299 0.01396 0.0046 0.0046 0.0094 0.0092 0.01396 0.01396 0.0051 5e-3 0.01007 0.01007 0.01512 0.01512 0.0055 0.0055 0.0115 0.01043 0.01707 0.01609 0.0056 0.0057 0.01126 0.0115 0.01707 0.01707l0.01804 0.01804c0.0066 0.0066 0.01241 0.01357 0.01901 0.02003 0.0068 0.0068 0.01416 0.01319 0.02105 0.02005l0.02104 0.02104c0.0077 0.0078 0.01532 0.01532 0.02306 0.02304 0.0077 0.0077 0.01533 0.01532 0.02306 0.02306 0.0079 0.0079 0.01591 0.01609 0.02405 0.02405 0.0085 0.0085 0.01746 0.01649 0.02605 0.02506 0.0089 0.0089 0.01726 0.01823 0.02606 0.02706 0.0089 0.0091 0.01804 0.01804 0.02706 0.02706 0.0097 0.0097 0.01939 0.01941 0.02907 0.02907 0.0098 0.01 0.02017 0.0192 0.03006 0.02907 0.0085 0.0085 0.01649 0.01746 0.02505 0.02606 0.01357 0.01377 0.02731 0.02745 0.04109 0.04109 0.0089 0.0091 0.01804 0.01804 0.02706 0.02706 0.01126 0.01126 0.02283 0.02191 0.03407 0.03307 0.0115 0.01161 0.02248 0.02359 0.03407 0.03508 0.01185 0.01185 0.02414 0.02325 0.03608 0.03508 0.01222 0.01222 0.02381 0.02492 0.03608 0.03708 0.01241 0.01261 0.02548 0.02459 0.03809 0.03708 0.0128 0.01299 0.02515 0.02626 0.03809 0.03908 0.01319 0.01319 0.02682 0.02593 0.04008 0.03908 0.01203 0.01202 0.02399 0.02407 0.03608 0.03608 0.01707 0.01726 0.03379 0.03501 0.05111 0.05211 0.01241 0.01261 0.02548 0.0246 0.03809 0.03708 0.01474 0.01474 0.02931 0.02946 0.0441 0.0441 0.01474 0.01474 0.02931 0.02946 0.0441 0.0441 0.01532 0.01551 0.03064 0.0308 0.0461 0.0461 0.01532 0.01551 0.03064 0.03079 0.0461 0.0461 0.01591 0.01609 0.03196 0.03214 0.04812 0.04812 0.01474 0.01474 0.02931 0.02944 0.0441 0.0441 0.01996 0.02021 0.03992 0.04019 0.06014 0.06014 0.01493 0.01512 0.02996 0.03014 0.0451 0.0451 0.01707 0.01726 0.0348 0.034 0.05211 0.05111 0.01746 0.01765 0.03447 0.03566 0.05211 0.05312 0.01823 0.01843 0.03677 0.03599 0.05511 0.05413 0.01804 0.01823 0.03578 0.037 0.05413 0.05511 0.01843 0.01862 0.03745 0.03667 0.05613 0.05511 0.01901 0.0192 0.03794 0.03819 0.05714 0.05714 0.01939 0.01953 0.03859 0.03885 0.05812 0.05812 0.01963 0.01986 0.03928 0.03953 0.05913 0.05913 0.01963 0.01986 0.03928 0.03953 0.05913 0.05913 0.02045 0.02069 0.04041 0.04172 0.06113 0.06214 0.02042 0.02069 0.04142 0.04071 0.06214 0.06113 0.02094 0.0212 0.04193 0.04222 0.06315 0.06312 0.02127 0.02155 0.04257 0.04288 0.06413 0.06413 0.02158 0.02188 0.04325 0.04358 0.06514 0.06515 0.02009 0.02036 0.03978 0.04103 0.06014 0.06113 0.02539 0.02578 0.05138 0.05081 0.07717 0.07616 0.02094 0.0212 0.04191 0.04224 0.06315 0.06315 0.0231 0.02343 0.04672 0.04608 0.07015 0.06916 0.02308 0.02341 0.04574 0.04709 0.06916 0.07015 0.02375 0.02411 0.04804 0.04742 0.07217 0.07116 0.02374 0.02408 0.04705 0.04845 0.07116 0.07217 0.02442 0.02478 0.04936 0.04877 0.07417 0.07315 0.02439 0.02477 0.04839 0.04978 0.07315 0.07417 0.02508 0.02547 0.0507 0.05011 0.07616 0.07516 0.02506 0.02545 0.04971 0.05114 0.07518 0.07616 0.02573 0.02614 0.05202 0.05147 0.07817 0.07717 0.02423 0.02461 0.04855 0.04894 0.07315 0.07315 0.02952 0.03006 0.05912 0.0597 0.0892 0.0892 0.0249 0.02527 0.04984 0.05031 0.07518 0.07518 0.02686 0.02733 0.05384 0.05433 0.08119 0.08119 0.02737 0.02783 0.05433 0.05583 0.08217 0.08318 0.02734 0.02782 0.05535 0.05485 0.08318 0.08217 0.02785 0.02834 0.05583 0.05635 0.08418 0.08418 0.02852 0.02901 0.05715 0.05772 0.08619 0.08619 0.02852 0.02901 0.05715 0.05772 0.08619 0.08619 0.02884 0.02936 0.05781 0.05838 0.08719 0.08719 0.02934 0.02989 0.05928 0.05888 0.0892 0.08819 0.0295 0.03005 0.05913 0.05971 0.0892 0.0892 0.02983 0.03039 0.05979 0.0604 0.0902 0.09021 0.03017 0.03074 0.06043 0.06105 0.09119 0.09121 0.03081 0.03142 0.06177 0.06241 0.0932 0.0932 0.03081 0.03139 0.06177 0.06242 0.0932 0.0932 0.02963 0.03023 0.05898 0.06055 0.0892 0.0902 0.0344 0.03516 0.06906 0.06986 0.10422 0.10422 0.03066 0.03123 0.06193 0.06159 0.0932 0.0922 0.03225 0.03291 0.06427 0.06598 0.09722 0.09822 0.03243 0.03309 0.0651 0.0658 0.09822 0.09821 0.03292 0.03361 0.06658 0.06631 0.10023 0.09922 0.0331 0.0338 0.06641 0.06714 0.10023 0.10023 0.03358 0.03431 0.0669 0.06867 0.10122 0.10222 0.03394 0.03466 0.06854 0.06833 0.10323 0.10222 0.03442 0.03518 0.06903 0.06984 0.10423 0.10422 0.0341 0.03483 0.06836 0.06916 0.10323 0.10323 0.03522 0.03602 0.07119 0.07104 0.10722 0.10624 0.03522 0.03599 0.07021 0.07205 0.10624 0.10722 0.03539 0.03617 0.07104 0.07187 0.10722 0.10722 0.03571 0.03652 0.0717 0.07256 0.10824 0.10824 0.03636 0.0372 0.07302 0.07391 0.11023 0.11023 0.03636 0.0372 0.07302 0.07391 0.11023 0.11023 0.037 0.03789 0.07433 0.07527 0.11225 0.11225 0.03718 0.03807 0.07515 0.07509 0.11326 0.11225 0.03749 0.03838 0.07484 0.0768 0.11324 0.11425 0.038 0.03891 0.07631 0.07729 0.11526 0.11526 0.03819 0.03912 0.07711 0.07711 0.11624 0.11526 0.0372 0.03812 0.07414 0.07607 0.11225 0.11326 0.04193 0.04306 0.08418 0.08539 0.12728 0.12728 0.03752 0.03838 0.07579 0.07579 0.11425 0.11324 0.03931 0.0403 0.07893 0.07998 0.11927 0.11927 0.03995 0.04098 0.08025 0.08134 0.12127 0.12127 0.03977 0.04081 0.07943 0.08152 0.12026 0.12127 0.04092 0.04199 0.08225 0.08338 0.12428 0.12428 0.04094 0.042 0.08223 0.08338 0.12428 0.12428 0.04108 0.04216 0.08308 0.08322 0.12528 0.12428 0.04126 0.04236 0.08292 0.08405 0.12528 0.12528 0.04158 0.0427 0.08357 0.08472 0.12627 0.12628 0.04255 0.04373 0.08555 0.08674 0.12928 0.12928 0.02477 0.02542 0.05007 0.05017 0.07518 0.07516a13.598 13.598 0 0 0 5.2626-10.735 13.598 13.598 0 0 0-0.32672-2.8854c-0.01804-0.01804-0.03592-0.03621-0.05413-0.05413-0.02905-0.02971-0.05855-0.059-0.08819-0.08819-0.02773-0.02837-0.05592-0.0563-0.08418-0.08419-0.02855-0.02921-0.05705-0.05849-0.08619-0.0872-0.02824-0.02886-0.05741-0.05682-0.08619-0.08518-0.0266-0.02717-0.05308-0.05444-0.08018-0.08118-0.02758-0.02818-0.05608-0.05547-0.08419-0.08318-0.02661-0.02719-0.05306-0.05442-0.08018-0.08118-0.02643-0.02702-0.05324-0.05361-0.08018-0.08018-0.02658-0.02717-0.05409-0.05345-0.08119-0.08017-0.02511-0.02566-0.0506-0.05091-0.07616-0.07616-0.0261-0.02667-0.0526-0.05293-0.07918-0.07917-0.02447-0.02496-0.04928-0.04957-0.07416-0.07416-0.02545-0.02599-0.05126-0.05159-0.07717-0.07717-0.02381-0.0243-0.04794-0.04821-0.07217-0.07217-0.02463-0.02513-0.0491-0.05041-0.07416-0.07517-0.02331-0.02378-0.04745-0.04672-0.07116-0.07015-0.02397-0.02446-0.04779-0.04907-0.07217-0.07315-0.02249-0.02292-0.04531-0.04554-0.06815-0.06815-0.02562-0.02612-0.05209-0.05145-0.07817-0.07717-0.01765-0.01804-0.03517-0.03629-0.05312-0.05413-0.02444-0.02498-0.0493-0.04955-0.07416-0.07416-0.02184-0.02224-0.04397-0.0442-0.06616-0.06615-0.0212-0.02159-0.04263-0.04284-0.06413-0.06414-0.02381-0.02426-0.04794-0.04825-0.07217-0.07216-0.01591-0.0161-0.032-0.0321-0.04812-0.04812-0.02249-0.02296-0.04531-0.0455-0.06815-0.06815-0.023-0.023409-0.04678-0.046061-0.07015-0.069159-0.01493-0.015128-0.03-0.03008-0.04511-0.045111-0.02151-0.021954-0.04232-0.044489-0.06413-0.066152-0.01953-0.019859-0.03932-0.039506-0.05913-0.059132-0.01881-0.019006-0.03815-0.037314-0.05714-0.056126-0.01823-0.018618-0.03667-0.03681-0.05511-0.055117-0.01823-0.018618-0.03667-0.036809-0.05512-0.055117-0.01765-0.018036-0.03518-0.036306-0.05312-0.054129-0.01765-0.018036-0.03617-0.035297-0.05413-0.05312-0.01688-0.017261-0.03402-0.034114-0.05112-0.051123-0.01668-0.016872-0.03334-0.033435-0.05011-0.050114-0.01667-0.017067-0.03318-0.034289-0.05011-0.051122-0.01609-0.016292-0.03285-0.031942-0.0491-0.048116-0.01591-0.016097-0.03202-0.032116-0.04809-0.048097-0.01551-0.015903-0.03134-0.031418-0.04711-0.047108-0.01493-0.015128-0.03002-0.030099-0.0451-0.04509-0.01454-0.014739-0.02934-0.029421-0.0441-0.044102-0.01435-0.014739-0.02852-0.029575-0.04309-0.044102-0.01416-0.014351-0.02884-0.027908-0.04309-0.042085-0.01396-0.014157-0.02803-0.028082-0.04209-0.042085-0.01338-0.013575-0.02652-0.027578-0.04008-0.041095-0.01319-0.013188-0.02686-0.025911-0.04008-0.039079-0.0128-0.012994-0.0252-0.02624-0.03809-0.039079-0.01241-0.012606-0.02553-0.024572-0.03809-0.037081-0.01203-0.012218-0.02386-0.024902-0.03608-0.037081-0.01162-0.011828-0.02337-0.023388-0.03508-0.035084-0.01161-0.011828-0.02337-0.02339-0.03508-0.035084-0.0109-0.011058-0.02203-0.022052-0.03307-0.033067-0.0109-0.011058-0.02203-0.022051-0.03307-0.033067-0.01031-0.010477-0.02069-0.020712-0.03108-0.03107-0.0098-0.010086-0.02002-0.020034-0.03006-0.030061-0.0098-0.010086-0.02003-0.020034-0.03006-0.030061-0.01357-0.013769-0.02734-0.027442-0.0411-0.041095-0.01338-0.013576-0.02652-0.027539-0.04008-0.041096-0.0085-0.00853-0.01746-0.016485-0.02606-0.025057-0.0082-0.00814-0.01591-0.016872-0.02405-0.025057-0.0077-0.00795-0.01628-0.015128-0.02405-0.023059-0.01067-0.010667-0.02136-0.021391-0.03208-0.032077-0.01031-0.010477-0.02072-0.020693-0.03108-0.03107-0.0066-0.00679-0.01338-0.013382-0.02005-0.020034-6e-3 -0.00601-0.01203-0.012024-0.01804-0.018036-0.0056-0.00563-0.0115-0.011437-0.01707-0.017067-0.0077-0.00795-0.01512-0.01629-0.02306-0.024049-0.0051-0.00504-0.01007-0.010086-0.01512-0.015128-0.0024-0.00232-0.0046-0.00466-7e-3 -0.00698-0.0019-0.00194-4e-3 -0.00408-6e-3 -0.00601-0.0024-0.00232-0.0046-0.00466-7e-3 -0.00698-0.0019-0.00194-4e-3 -0.00408-6e-3 -0.00601-0.0021-0.00213-0.0049-0.00388-7e-3 -0.00601-0.0018-0.00183-0.0031-0.00427-0.0051-0.00601-0.0017-0.00168-0.0033-0.00329-0.0051-0.00504-0.0017-0.00167-0.0033-0.00329-0.0051-0.00504-0.0018-0.00185-0.0043-0.00311-6e-3 -0.00504-0.0031-0.00311-0.0058-0.00679-0.0091-0.010086-0.0013-0.00134-0.0027-0.00271-4e-3 -0.00408-0.0013-0.00134-0.0027-0.00271-4e-3 -0.00408-9.97e-4 -1e-3 -0.0019-0.00194-3e-3 -0.0029-0.0013-0.00134-0.0027-0.00271-4e-3 -0.00408-9.97e-4 -1e-3 -0.0019-0.00194-0.0031-0.00311-1e-3 -0.00101-0.0019-0.00194-3e-3 -0.0029-6.68e-4 -6.692e-4 -0.0013-0.00134-0.0019-0.00194-1e-3 -0.00101-0.0019-0.00194-0.0031-0.0029-6.66e-4 -6.673e-4 -0.0013-0.00134-0.0019-0.00194l-1e-3 -1e-3c-8.39e-4 -8.456e-4 -0.0021-0.00116-3e-3 -0.00194-6.46e-4 -6.497e-4 -0.0013-0.00135-0.0019-0.00194-5.06e-4 -5.082e-4 -4.98e-4 -0.00149-1e-3 -0.00194l-1e-3 -1e-3c-0.09656-0.097086-0.19674-0.19039-0.29966-0.28162-0.0018-0.00155-0.0033-0.0035-0.0051-0.00504-0.0011-9.309e-4 -0.0019-0.00213-0.0031-0.0029-0.0011-9.308e-4 -0.0019-0.00213-0.0031-0.00311-0.06606-0.058259-0.13586-0.11262-0.20445-0.16838-0.0019-0.00165-4e-3 -0.00329-6e-3 -0.00504-0.26527-0.21501-0.54739-0.41304-0.84872-0.58711-0.12633-0.072979-0.25409-0.14156-0.38385-0.20545-6.71e-4 -3.297e-4 -0.0013-6.71e-4 -0.0019-1e-3 -0.39064-0.19223-0.79628-0.34301-1.2097-0.453-7.03e-4 -1.868e-4 -0.0013-8.159e-4 -0.0019-1e-3 -0.55217-0.14672-1.1188-0.22049-1.6857-0.22049z" style="enable-background:new;opacity:.07"/><path d="m29.668 12.128a6.564 6.564 0 0 1-13.128 0 6.564 6.564 0 1 1 13.128 0z" style="color:#000;fill:#fff"/><path d="m30.317 12.777a6.564 6.564 0 0 1-13.128 0 6.564 6.564 0 1 1 13.128 0z" style="color:#000;fill:#facd00"/></svg>