<?xml version="1.0" encoding="UTF-8"?>
<!DOCTYPE svg  PUBLIC '-//W3C//DTD SVG 1.1//EN'  'http://www.w3.org/Graphics/SVG/1.1/DTD/svg11.dtd'>
<svg clip-rule="evenodd" fill-rule="evenodd" stroke-linejoin="round" stroke-miterlimit="2" version="1.1" viewBox="0 0 128 128" xml:space="preserve" xmlns="http://www.w3.org/2000/svg">
    <circle cx="64" cy="64" r="64" fill="#222"/>
    <g transform="matrix(2.2856 0 0 2.2856 14.088 26.287)" fill="#5fd800" fill-rule="nonzero">
        <path d="m1.436 15.5c-0.866 0-1.559-0.734-1.418-1.588 1.26-7.606 7.934-13.412 16.153-13.412h3.38c0.711 0 1.286 0.576 1.286 1.286 0 7.574-6.14 13.714-13.714 13.714h-5.687z"/>
    
    
        <path d="m1.436 17.5c-0.866 0-1.559 0.734-1.418 1.588 1.26 7.606 7.934 13.412 16.153 13.412h3.38c0.711 0 1.286-0.576 1.286-1.286 0-7.574-6.14-13.714-13.714-13.714h-5.687z"/>
    
    
        <path d="m36.551 17.5c-7.574 0-13.714 6.14-13.714 13.714 0 0.71 0.576 1.286 1.286 1.286h3.38c8.219 0 14.893-5.806 16.153-13.412 0.141-0.854-0.552-1.588-1.418-1.588h-5.687z"/>
    
    
        <path d="m42.238 15.5c0.866 0 1.559-0.734 1.418-1.588-1.26-7.606-7.934-13.412-16.153-13.412h-3.38c-0.71 0-1.286 0.576-1.286 1.286 0 7.574 6.14 13.714 13.714 13.714h5.687z"/>
    </g>
</svg>
