<?xml version="1.0" encoding="UTF-8"?>
<!DOCTYPE svg  PUBLIC '-//W3C//DTD SVG 1.1//EN'  'http://www.w3.org/Graphics/SVG/1.1/DTD/svg11.dtd'>
<svg clip-rule="evenodd" fill-rule="evenodd" stroke-linejoin="round" stroke-miterlimit="2" version="1.1" viewBox="0 0 128 128" xml:space="preserve" xmlns="http://www.w3.org/2000/svg">
    <g transform="matrix(.2551 0 0 .2551 -1.3056 -.98036)">
        <path d="m469.14 139.98-0.016-0.391c-0.218-4.819-0.363-9.919-0.452-15.592-0.409-27.666-22.402-50.55-50.071-52.097-57.69-3.219-102.32-22.031-140.45-59.198l-0.326-0.31c-12.437-11.404-31.199-11.404-43.64 0l-0.326 0.31c-38.132 37.167-82.76 55.979-140.45 59.202-27.666 1.543-49.662 24.427-50.072 52.097-0.084 5.635-0.233 10.734-0.452 15.588l-0.023 0.907c-1.121 58.827-2.515 132.04 21.978 198.49 13.467 36.543 33.863 68.309 60.618 94.42 30.472 29.737 70.384 53.345 118.63 70.166 1.57 0.547 3.2 0.991 4.862 1.324 2.343 0.467 4.701 0.701 7.059 0.701s4.72-0.234 7.059-0.701c1.661-0.333 3.304-0.78 4.881-1.332 48.184-16.851 88.054-40.471 118.5-70.204 26.744-26.119 47.14-57.892 60.619-94.443 24.584-66.652 23.194-140 22.077-198.94z" fill="url(#_Linear1)" fill-rule="nonzero"/>
    </g>
    <defs>
        <linearGradient id="_Linear1" x2="1" gradientTransform="matrix(187.31 450.98 -450.98 187.31 42.36 3.843)" gradientUnits="userSpaceOnUse"><stop stop-color="#00a9ff" offset="0"/><stop stop-color="#05f" offset="1"/></linearGradient>
    </defs>
</svg>
