<svg xmlns="http://www.w3.org/2000/svg" viewBox="0 0 124 140"><g fill="#D0013B" fill-rule="nonzero"><path d="m72.37 84.938-28.68 16.6a4.1 4.1 0 0 1-5.58-1.5l-15.34-26.57a4.09 4.09 0 0 1 1.5-5.53L53 51.338l19.37 33.6ZM57.48 54.188 72 79.368l28.75-16.61-14.51-25.17-28.76 16.6Zm14.36-3a1 1 0 0 1 .35-1.34l2.81-1.66a1 1 0 0 1 1.34.35l2.41 4.14a1 1 0 0 1-.36 1.34l-2.84 1.65a1 1 0 0 1-1.34-.35l-2.41-4.14.04.01Zm14.22 15.93-2.84 1.66a1 1 0 0 1-1.34-.35l-2.41-4.14a1 1 0 0 1 .35-1.34l2.85-1.65a1 1 0 0 1 1.34.35l2.4 4.13a1 1 0 0 1-.35 1.34Z"/><path d="M61.66 139.798c-1.528 0-3.041-.292-4.46-.86-37.79-15.12-53.52-50.44-56.29-57.37a12.392 12.392 0 0 1-.91-4.71v-43.49a12.4 12.4 0 0 1 7.5-11.43l49.5-21a12 12 0 0 1 9.3 0l49.51 21a12.361 12.361 0 0 1 7.52 11.48v43.44a12.75 12.75 0 0 1-.91 4.69c-2.78 7-18.51 42.27-56.3 57.39-1.418.568-2.932.86-4.46.86Zm0-128.77a1 1 0 0 0-.37.08L11.8 32.018a1.472 1.472 0 0 0-.8 1.35v43.49c0 .198.036.395.11.58 2.49 6.25 16.55 37.83 50.18 51.29a1 1 0 0 0 .75 0c33.62-13.46 47.68-45 50.16-51.24.08-.201.125-.414.13-.63v-43.49a1.44 1.44 0 0 0-.78-1.34L62 11.108a.903.903 0 0 0-.37-.08h.03Z"/></g></svg>