<?xml version="1.0" encoding="UTF-8"?>
<svg width="128" height="128" version="1.1" viewBox="0 0 33.867 33.867" xmlns="http://www.w3.org/2000/svg" xmlns:xlink="http://www.w3.org/1999/xlink"><defs><linearGradient id="linearGradient14441" x1="2677.1" x2="2677.1" y1="-1001.2" y2="-1126.5" gradientTransform="translate(-1834.5 224.95)" gradientUnits="userSpaceOnUse"><stop style="stop-color:#646464" offset="0"/><stop style="stop-color:#969696" offset="1"/></linearGradient><radialGradient id="radialGradient14443" cx="245.8" cy="466.28" r="34.492" gradientTransform="matrix(-7.2244 7.2245 -7.2148 -7.2148 5889.8 216.7)" gradientUnits="userSpaceOnUse"><stop style="stop-color:#61a6ed" offset="0"/><stop style="stop-color:#257edb" offset="1"/></radialGradient></defs><g transform="matrix(.03287 0 0 .03287 -7.7924 53.365)"><path d="m278.66-904.64c-10.278-0.045-23.666 0.4709-35.25 11.594-4.6256 4.442-6.3437 12.185-6.3438 18.812v70.906c0 2.0698 0.7126 3.8054 2.125 5.2187 1.4145 1.3631 3.1251 2.0625 5.0938 2.0625h14.219c1.9686 0 3.6372-0.6994 5-2.0625 1.4133-1.4133 2.125-3.149 2.125-5.2187v-31.813h48.625c1.9686 0 3.6049-0.6681 4.9687-2.0312 1.4124-1.4134 2.125-3.0938 2.125-5.0625v-7.2187c0-1.9181-0.7126-3.5551-2.125-4.9688-1.3638-1.4134-3.0001-2.1249-4.9687-2.125h-48.625v-14.469c-0.3417-11.67 7.8265-12.187 12.687-12.187h48.188c1.9686 1e-4 3.6372-0.6684 5-2.0313 1.4133-1.4134 2.125-3.1249 2.125-5.0937v-7.125c0-1.9687-0.7116-3.649-2.125-5.0626-1.3628-1.4133-3.0314-2.1248-5-2.125h-43.625c-1.3272 0-2.7505 0.01-4.2188 0zm394.03 0c-1.3125 2e-4 -2.4039 0.4665-3.3124 1.375-0.8583 0.8583-1.2814 1.9497-1.2813 3.3126v23.25c-8.1779-2.5745-15.495-3.8437-21.906-3.8438-12.418 1e-4 -22.317 3.7045-29.687 11.125-7.3197 7.3702-10.969 17.993-10.969 31.875 0 13.832 3.5265 24.454 10.594 31.875 7.1177 7.4206 15.95 11.125 26.5 11.125 10.55 0 19.836-2.8149 27.812-8.4688v2.3438c0 1.3125 0.4231 2.4351 1.2813 3.3438 0.8581 0.8581 1.9495 1.2812 3.3125 1.2812h14.562c1.3629 0 2.4542-0.4231 3.3125-1.2812 0.9086-0.9087 1.3749-2.0313 1.375-3.3438v-99.281c-1e-4 -1.3629-0.4664-2.4543-1.375-3.3126-0.8583-0.9085-1.9496-1.3748-3.3125-1.375zm297 0c-1.9687 2e-4 -3.6803 0.7117-5.0937 2.125-1.4135 1.4136-2.125 3.0939-2.125 5.0626v94.281c0 1.9687 0.7115 3.6491 2.125 5.0625 1.4134 1.363 3.125 2.0625 5.0937 2.0625h65.094c11.257 0 20.745-2.8462 28.469-8.5 7.7738-5.7043 11.687-14.014 11.687-24.969-1e-4 -10.954-4.8703-19.05-14.562-24.25 6.8147-5.5527 10.219-12.017 10.219-19.437-1e-4 -7.4711-1.9809-13.611-5.9687-18.406-7.1684-8.6825-18.313-13.031-33.406-13.031zm21.344 20.531h40.5c3.1802 1e-4 5.7379 0.9568 7.6562 2.875 1.9182 1.9183 2.875 4.5987 2.875 8.0313 0 3.3822-0.9568 6.0193-2.875 7.9374-1.9183 1.8679-4.476 2.8126-7.6562 2.8126h-40.5zm-591.62 3.5625c-7.7236 1e-4 -13.986 0.9015-18.781 2.7188-4.7452 1.7668-9.6948 4.5145-14.844 8.25v-4.7813c0-1.3629-0.4231-2.4543-1.2812-3.3125-0.8582-0.9086-1.9809-1.3749-3.3438-1.375h-16.969c-1.3125 1e-4 -2.4038 0.4664-3.3124 1.375-0.8582 0.8582-1.2813 1.9496-1.2813 3.3125v73.688c0 1.363 0.4231 2.4856 1.2813 3.3438 0.8581 0.8581 1.9495 1.2812 3.3124 1.2812h16.969c1.3125 0 2.3918-0.4231 3.25-1.2812 0.9086-0.8582 1.375-1.9808 1.375-3.3438v-48.375c6.209-7.471 12.716-11.219 19.531-11.219l11.656 0.4376h2.4375c1.3629 0 2.4855-0.4231 3.3438-1.2813 0.9085-0.8581 1.3436-1.9495 1.3437-3.3125v-11.531c-1e-4 -1.3125-0.4352-2.3918-1.3437-3.25-0.8583-0.9086-1.9809-1.3437-3.3438-1.3438zm52.562 0c-13.882 1e-4 -24.738 3.7165-32.562 11.188-7.8245 7.4207-11.719 18.087-11.719 31.969 0 13.832 3.8823 24.411 11.656 31.781 7.7739 7.3701 18.63 11.062 32.562 11.062 27.613 0.05 41.406-7.1684 41.406-21.656 0-1.363-0.4351-2.4544-1.3437-3.3126-0.8583-0.9086-1.9809-1.3749-3.3437-1.375h-11.281c-3.6347 0.051-6.6828 1.5963-9.1563 4.625-2.4735 3.0289-7.0674 4.5313-13.781 4.5313-6.7139 0-11.608-1.4231-14.688-4.25-3.0289-2.8269-4.8077-7.3221-5.3125-13.531h57.031c1.3629 1e-4 2.4543-0.423 3.3126-1.2812 0.9085-0.9086 1.3749-2.0745 1.375-3.4375v-4.3125c-1e-4 -13.529-3.8824-23.906-11.656-31.125-7.774-7.2691-18.618-10.875-32.5-10.875zm98.5 0c-13.882 1e-4 -24.738 3.7165-32.562 11.188-7.8245 7.4207-11.719 18.087-11.719 31.969 0 13.832 3.8823 24.411 11.656 31.781 7.7739 7.3701 18.63 11.062 32.562 11.062 27.613 0.05 41.406-7.1684 41.406-21.656 0-1.363-0.4664-2.4544-1.375-3.3126-0.8582-0.9086-1.9496-1.3749-3.3124-1.375h-11.281c-3.6347 0.051-6.6828 1.5963-9.1563 4.625-2.4735 3.0289-7.0674 4.5313-13.781 4.5313-6.7139 0-11.64-1.4231-14.719-4.25-3.0288-2.8269-4.7764-7.3221-5.2812-13.531h57c1.3629 1e-4 2.4855-0.423 3.3438-1.2812 0.9085-0.9086 1.3749-2.0745 1.375-3.4375v-4.3125c-1e-4 -13.529-3.8824-23.906-11.656-31.125-7.774-7.2691-18.618-10.875-32.5-10.875zm200.77 0c-14.74 1e-4 -26.031 3.6059-33.906 10.875-7.8749 7.2188-11.812 17.94-11.812 32.125 0 14.134 3.9376 24.825 11.812 32.094 7.8749 7.2691 19.166 10.906 33.906 10.906 14.791 0 26.125-3.6371 34-10.906 7.8749-7.2692 11.812-17.959 11.813-32.094-1e-4 -14.185-3.9377-24.906-11.813-32.125-7.875-7.2691-19.209-10.875-34-10.875zm106.82 0c-4.9471 1e-4 -9.1851 0.9568-12.719 2.875-3.4832 1.8679-7.053 4.5602-10.688 8.0938v-4.7813c0-1.3629-0.4231-2.4543-1.2812-3.3125-0.8582-0.9086-1.9809-1.3749-3.3438-1.375h-16.969c-1.3125 1e-4 -2.4038 0.4664-3.3124 1.375-0.8582 0.8582-1.2913 1.9496-1.2813 3.3125l0.53835 73.688c0.01 1.363-0.11525 2.4856 0.74295 3.3438 0.8581 0.8581 1.9495 1.2812 3.3124 1.2812h16.969c1.3125 0 2.3918-0.4231 3.25-1.2812 0.9086-0.8582 1.375-1.9808 1.375-3.3438v-50.75c5.149-7.2186 10.522-10.812 16.125-10.812 8.7835-0.05 13.188 5.9785 13.188 18.094v43.469c-1e-4 1.3125 0.423 2.4351 1.2813 3.3438 0.9085 0.8581 2.0432 1.2812 3.4062 1.2812h16.875c1.3124 0 2.3917-0.4231 3.25-1.2812 0.9086-0.8582 1.3749-1.9808 1.375-3.3438v-43.469c-1e-4 -2.1706-0.1347-4.3292-0.4375-6.5 5.7042-7.7234 11.212-11.594 16.562-11.594 8.7835-0.05 13.188 5.9785 13.188 18.094v43.469c-1e-4 1.3125 0.423 2.4351 1.2813 3.3438 0.9085 0.8581 2.0431 1.2812 3.4062 1.2812h16.875c1.3628 0 2.4854-0.4231 3.3438-1.2812 0.858-0.8582 1.2811-1.9808 1.2812-3.3438v-43.469c0-12.418-2.8704-21.594-8.625-27.5-5.7044-5.9565-13.512-8.9061-23.406-8.9062-9.8438-0.05-19.455 4.7886-28.844 14.531-6.0577-9.6921-14.957-14.531-26.719-14.531zm271.13 0c-14.74 1e-4 -26.031 3.6059-33.906 10.875-7.8749 7.2188-11.812 17.94-11.812 32.125 0 14.134 3.9376 24.825 11.812 32.094 7.8749 7.2691 19.166 10.906 33.906 10.906 14.791 0 26.125-3.6371 34-10.906 7.8749-7.2692 11.812-17.959 11.813-32.094-1e-4 -14.185-3.9377-24.906-11.813-32.125-7.875-7.2691-19.209-10.875-34-10.875zm51.344 1.5c-1.1106 1e-4 -1.988 0.3559-2.5938 1.0625-1.4134 1.6155-1.3028 3.4737 0.3126 5.5937l24.594 34.75-26.344 34.906c-0.8077 0.9087-1.2188 1.7428-1.2188 2.5 0 0.7067 0.1106 1.3389 0.3125 1.8437 0.4038 1.5649 1.4832 2.3438 3.25 2.3438h16.125c4.6442 0 8.5697-2.2452 11.75-6.6875l14.625-19.688 14.531 19.688c3.2306 4.4423 7.1682 6.6875 11.812 6.6875h16.125c1.7668 0 2.8461-0.7789 3.25-2.3438 0.2019-0.4038 0.3125-0.9927 0.3126-1.75-1e-4 -0.8076-0.4112-1.685-1.2188-2.5937l-26.344-34.906 24.594-34.75c1.6153-2.12 1.7259-3.9782 0.3125-5.5937-0.6059-0.7066-1.452-1.0624-2.5625-1.0625h-16.438c-4.8967 1e-4 -8.8342 2.2141-11.812 6.6562l-12.562 19.094-12.594-19.094c-2.9784-4.4421-6.916-6.6561-11.813-6.6562zm-728.63 15.688c11.207 1e-4 17.058 5.9304 17.562 17.844h-35.219c0.6057-11.913 6.5-17.844 17.656-17.844zm98.5 0c11.207 1e-4 17.058 5.9304 17.562 17.844h-35.219c0.6057-11.913 6.5-17.844 17.656-17.844zm200.83 0c6.7644 1e-4 11.714 2.0362 14.844 6.125 3.1802 4.089 4.7812 10.608 4.7812 19.594 0 8.9856-1.601 15.548-4.7812 19.688-3.1298 4.1394-8.0794 6.2187-14.844 6.2187-6.7139 0-11.62-2.0793-14.75-6.2187s-4.7187-10.702-4.7187-19.688c0-8.9854 1.5889-15.505 4.7187-19.594 3.1298-4.0888 8.0361-6.1249 14.75-6.125zm377.95 0c6.7644 1e-4 11.714 2.0362 14.844 6.125 3.1802 4.089 4.7812 10.608 4.7812 19.594 0 8.9856-1.601 15.548-4.7812 19.688-3.1298 4.1394-8.0794 6.2187-14.844 6.2187-6.7139 0-11.62-2.0793-14.75-6.2187s-4.7187-10.702-4.7187-19.688c0-8.9854 1.5889-15.505 4.7187-19.594 3.1298-4.0888 8.0361-6.1249 14.75-6.125zm-477.53 1.125c4.4422 1e-4 9.9255 1.0121 16.438 3.0313v39.594c-7.2692 4.5433-13.654 6.8125-19.156 6.8125-5.4519 0-9.5553-1.9688-12.281-5.9062-2.726-3.9375-4.0938-10.212-4.0938-18.844 0-8.6321 1.4351-14.894 4.3126-18.781 2.8773-3.9375 7.8149-5.9062 14.781-5.9063zm339.38 19.688h43.313c3.8869 0 6.8677 1.1467 8.9375 3.4688 2.0696 2.3221 3.0937 5.5241 3.0938 9.5624-1e-4 4.0385-1.0242 7.2092-3.0938 9.5313-2.0698 2.3221-5.0506 3.4688-8.9375 3.4687h-43.313z" style="fill:url(#linearGradient14441)"/><path d="m540.34-1422.1c-12.294 0.3444-23.169 4.1084-30.188 12.156-21.94 25.162 2.2109 48.561 10.594 80.375 11.193 42.452-1.5364 87.624 32.438 117.34 11.701 10.233 25.831 12.929 39.406 14.188-17.848 21.03-28.609 50.192-22.75 80.156 10.256 52.447 62.098 87.364 113.5 78.594 29.321-5.0046 52.913-22.97 65.75-47.5 0.46733-0.8094 1.5618-0.8131 2.0312 0 12.838 24.525 36.434 42.496 65.75 47.5 51.402 8.7705 103.03-26.146 113.28-78.594 5.8593-29.964-4.6832-59.127-22.531-80.156 13.576-1.2582 27.486-3.9542 39.188-14.188 33.974-29.719 21.244-74.892 32.438-117.34 8.3828-31.814 32.503-55.214 10.562-80.375-7.0187-8.0478-17.643-11.812-29.938-12.156-27.05-0.7631-55.229 10.09-83.781 23.625s-60.055 36.775-79.875 61.656l73.156 42.5-115.72 67.188-10.125 127.47-2.625-133.34-13.688-7.9375-10.062 126.31-2.625-133.69-13.719-7.9687-10.031 126.72-2.6875-134.09-13.625-7.9062-10.094 127.03-2.6562-134.47-13.594-7.875-10.125 127.41-2.6562-134.84 70.062-40.688c-20.056-25.717-52.771-49.936-81.281-63.469s-56.212-24.229-83.781-23.625z" style="fill:url(#radialGradient14443)"/></g></svg>
