<svg xmlns="http://www.w3.org/2000/svg" width="128" height="128" version="1.1" viewBox="0 0 33.867 33.867"><path d="m15.51 32.89c-2.1261-0.2739-4.3143-2.2842-4.62-4.6427-0.2932-1.9717 0.1298-4.2732 1.7597-5.5744 0.71488-0.48726 1.6873-1.0332 2.5449-0.96823 0.02568 0.8729-0.02568 1.9339 0 2.8068-1.0214 0.11372-2.0101 1.2747-1.9896 2.3377 0.02504 1.3833 0.63725 2.6543 1.9681 3.0683 1.4721 0.49534 3.1573 0.35446 4.52-0.46907 1.1258-0.87713 1.2299-2.5102 0.64111-3.753-0.26486-0.6839-0.83579-1.186-1.6107-1.1839v2.4347h-2.185v-5.2415h6.6168v1.8849l-1.8124 0.01676c1.6912 0.9641 1.8646 3.0449 1.7779 4.4885 0.06093 2.4798-2.389 4.5017-4.819 4.772-0.87912 0.06591-1.623 0.06938-2.792 0.02322z" style="fill:#666;stroke-width:.13483"/><path d="m10.783 20.663-0.01389-2.7507h12.404l-0.0014 2.7639-12.389-0.01325z" style="fill:#d8382d;stroke-width:.13483"/><path d="m15.511 16.946v-2.9437h-4.8088v-2.5617h4.8088v-3.3032h2.8763v3.3032h4.7863v2.5617h-4.7863l-0.04742 2.9376-2.8289 0.0061z" style="fill:#40bf4c;stroke-width:.13483"/><path d="m2.8693 0.94568-2.8693 4.0111h1.5926c0.00327 0.44336 0.040782 0.88004 0.10533 1.3061l2.5322-0.38341c-0.045291-0.30133-0.072595-0.60958-0.07584-0.92272h1.5842zm1.5589 5.8354-2.4479 0.73733c0.12454 0.41298 0.27594 0.81477 0.45504 1.2008l2.3215-1.0744c-0.1289-0.27809-0.23949-0.56604-0.32864-0.86373zm0.76682 1.6516-2.153 1.3862c0.96876 1.5022 2.3657 2.703 4.0195 3.4254l1.0238-2.3468c-1.1908-0.51967-2.194-1.3829-2.8903-2.4648zm3.7414 2.7639-0.69098 2.469c0.39093 0.10931 0.79089 0.19165 1.2008 0.24859l0.35392-2.5364c-0.29453-0.041434-0.58263-0.10254-0.86373-0.18117z" style="fill-rule:evenodd;fill:#40bf4c"/><path d="m30.997 0.94568-2.8693 4.0111h1.5926c-0.0032 0.31314-0.03055 0.62139-0.07584 0.92272l2.5322 0.38341c0.06455-0.42609 0.10206-0.86277 0.10533-1.3061h1.5842zm-1.5505 5.8354c-0.08915 0.29769-0.19974 0.58564-0.32864 0.86373l2.3215 1.0744c0.1791-0.38602 0.3305-0.78782 0.45504-1.2008zm-0.76682 1.6516c-0.69629 1.0819-1.6996 1.9451-2.8903 2.4648l1.0238 2.3468c1.6538-0.72247 3.0507-1.9232 4.0195-3.4254zm-3.7414 2.7639c-0.2811 0.07864-0.5692 0.13974-0.86373 0.18117l0.35392 2.5364c0.40991-0.05694 0.80986-0.13928 1.2008-0.24859z" style="fill-rule:evenodd;fill:#40bf4c"/></svg>