<svg xmlns="http://www.w3.org/2000/svg" xmlns:ns="&amp;#38;ns_ai;" width="128" height="128" version="1.1" viewBox="0 0 33.866 33.866"><switch transform="matrix(.033072 0 0 .033072 -2.24e-6 -2.24e-6)"><g ns:extraneous="self"><path d="m896 512c0-212.08-171.92-384-384-384-112.14 0-213.06 48.08-283.26 124.74l130.35 130.35c36.68-43.48 91.57-71.09 152.91-71.09 110.46 0 200 89.54 200 200h-88l176 176 176-176z" class="st0"/><circle cx="512" cy="512" r="512" fill="#4e0d4e" class="st1"/><path fill="#fff" d="m896 512c0-212.08-171.92-384-384-384-112.14 0-213.06 48.08-283.26 124.74l130.35 130.35c36.68-43.48 91.57-71.09 152.91-71.09 110.46 0 200 89.54 200 200h-88l176 176 176-176z" class="st0"/><path fill="#fff" d="m128 512c0 212.08 171.92 384 384 384 112.14 0 213.06-48.08 283.26-124.74l-130.35-130.35c-36.68 43.48-91.57 71.09-152.91 71.09-110.46 0-200-89.54-200-200h88l-176-176-176 176z" class="st0"/></g></switch></svg>