<?xml version="1.0" encoding="UTF-8"?>
<svg width="64mm" height="64mm" version="1.1" viewBox="0 0 64 64" xmlns="http://www.w3.org/2000/svg"><path id="cloud-upload" d="m64 34.286a17.033 17.033 0 0 1-4.4062 11.429 14.857 14.857 0 0 1-10.558 4.5714h-2.1786v-6.8571h2.1786a8.0044 8.0044 0 0 0 5.4688-2.3103 10.184 10.184 0 0 0 2.6384-6.8326 11.442 11.442 0 0 0-11.429-11.429c-0.37683 0-2.3126 0.2418-3.4903 0.3935a1.136 1.136 0 0 1-1.2211-0.76359l-0.46538-1.3576a14.103 14.103 0 0 0-11.716-9.6317 13.666 13.666 0 0 0-14.73 16.779l0.4881 2.0877a1.1429 1.1429 0 0 1-0.78226 1.3542l-2.054 0.62062a6.7941 6.7941 0 0 0-4.8861 6.5178 4.6044 4.6044 0 0 0 0.94642 2.808 5.5388 5.5388 0 0 0 4.0893 1.7634h5.25v6.8571h-5.25a12.236 12.236 0 0 1-9.6808-4.6518 11.506 11.506 0 0 1-2.212-6.7768 13.573 13.573 0 0 1 6.9442-11.884c-0.057884-0.6138-0.087074-1.2254-0.087074-1.8304a20.563 20.563 0 0 1 38.987-9.1428 18.307 18.307 0 0 1 18.156 18.286zm-31.077-2.1632a1.1429 1.1429 0 0 0-1.8465 0l-8.5917 11.775a1.1429 1.1429 0 0 0 0.92327 1.8165h5.1631v12.571a1.1429 1.1429 0 0 0 1.1428 1.1429h4.5714a1.1429 1.1429 0 0 0 1.1429-1.1429v-12.571h5.1631a1.1429 1.1429 0 0 0 0.92326-1.8165z" fill="#45a1ff" stroke-width="2.2857"/></svg>
