<?xml version="1.0" encoding="UTF-8"?>
<svg version="1.1" viewBox="0 0 384 128" xmlns="http://www.w3.org/2000/svg"><g fill="none" fill-rule="evenodd"><g transform="matrix(1.9811 0 0 1.9811 .00093555 15.463)"><path d="m73.832 28.79c-0.136 1.869-0.826 3.34-2.07 4.414-1.245 1.073-2.885 1.61-4.921 1.61-2.227 0-3.979-0.75-5.255-2.249-1.277-1.499-1.915-3.557-1.915-6.173v-1.062c0-1.67 0.294-3.142 0.883-4.414 0.588-1.273 1.43-2.249 2.523-2.929s2.364-1.02 3.811-1.02c2.005 0 3.62 0.537 4.844 1.61 1.225 1.074 1.933 2.581 2.123 4.522h-3.579c-0.087-1.121-0.4-1.935-0.936-2.44-0.537-0.505-1.354-0.757-2.452-0.757-1.193 0-2.085 0.427-2.678 1.282-0.592 0.855-0.897 2.181-0.912 3.979v1.312c0 1.877 0.284 3.25 0.853 4.116 0.568 0.867 1.465 1.3 2.69 1.3 1.105 0 1.93-0.252 2.475-0.757s0.857-1.287 0.937-2.344zm16.3-8.685h-5.32v14.47h-3.58v-14.47h-5.248v-2.9h14.148zm13.713 6.943h-6.872v4.652h8.065v2.876h-11.644v-17.37h11.62v2.899h-8.041v4.14h6.872zm9.19-9.842 4.462 12.598 4.438-12.598h4.7v17.37h-3.59v-4.749l0.357-8.195-4.688 12.944h-2.458l-4.676-12.932 0.358 8.183v4.749h-3.58v-17.37zm21.526 11.25v6.12h-3.579v-17.37h6.777c1.304 0 2.451 0.238 3.441 0.716 0.99 0.477 1.752 1.155 2.285 2.034 0.533 0.878 0.8 1.878 0.8 3 0 1.702-0.583 3.044-1.749 4.026-1.165 0.982-2.777 1.474-4.837 1.474zm0-2.9h3.198c0.946 0 1.668-0.222 2.165-0.667 0.497-0.446 0.745-1.082 0.745-1.91 0-0.85-0.25-1.538-0.751-2.063s-1.193-0.795-2.076-0.811h-3.28v5.452zm16.981 6.144h7.6v2.876h-11.179v-17.37h3.58v14.494zm20.906-0.703h-6.275l-1.193 3.579h-3.806l6.466-17.37h3.317l6.502 17.37h-3.806l-1.205-3.58zm-5.309-2.9h4.343l-2.183-6.501-2.16 6.502zm19.594 0.12h-2.851v6.359h-3.58v-17.37h6.455c2.052 0 3.634 0.457 4.748 1.372 1.113 0.914 1.67 2.207 1.67 3.877 0 1.185-0.257 2.173-0.77 2.964-0.513 0.792-1.29 1.422-2.332 1.891l3.758 7.099v0.167h-3.841l-3.257-6.36zm-2.851-2.899h2.887c0.898 0 1.594-0.229 2.087-0.686s0.74-1.088 0.74-1.89c0-0.82-0.233-1.464-0.698-1.933-0.465-0.47-1.179-0.704-2.141-0.704h-2.875z" fill="#000"/><g transform="matrix(.6125 0 0 .61249 -.060025 .061083)" fill-rule="evenodd"><path d="m27.04 35.845 2.867-2.407-20.923-17.573-0.103-0.071-0.118-0.067-0.119-0.044-0.13-0.032h-0.14l-0.13 0.012-0.127 0.028-0.119 0.048-0.11 0.063-0.112 0.083-0.095 0.091-0.07 0.111-0.064 0.11-0.036 0.128-0.032 0.13v0.242l0.187 1.307 0.213 1.31 0.092 0.516 0.138 0.796 0.258 1.299 0.265 1.29 0.305 1.292 0.313 1.295 0.34 1.28 0.361 1.274 0.388 1.264 0.396 1.26 0.432 1.255 0.443 1.255 0.46 1.236 0.487 1.235 0.507 1.228 0.535 1.204 0.542 1.212 0.574 1.2 0.578 1.188 0.61 1.18 0.792 1.458zm30.725 17.16 1.505-2.126-12.163-10.222-2.867-2.408-1.929 1.624-0.293 0.222-0.242 0.147-0.237 0.13-0.25 0.111-0.265 0.091-0.261 0.075-0.274 0.044-0.277 0.032-0.27 0.016-0.368-0.016-0.277-0.048-0.265-0.055-0.269-0.076-0.258-0.099-0.25-0.11-0.237-0.143-0.23-0.154-0.221-0.167-1.93-1.624-2.866 2.408-12.159 10.223 0.757 1.085 0.772 1.07 0.792 1.061 0.812 1.053 0.828 1.03 0.84 1.026 0.866 1.006 0.876 0.994 0.89 0.978 0.916 0.959 0.93 0.942 0.939 0.93 0.958 0.924 0.979 0.895 0.986 0.883 1.006 0.867 1.01 0.852 1.033 0.831 1.042 0.808 2.091 1.549h8e-3l1.07-0.773 1.057-0.804 1.041-0.811 1.038-0.828 1.01-0.852 1.006-0.867 0.982-0.883 0.97-0.903 0.959-0.915 0.95-0.93 0.919-0.951 0.91-0.959 0.896-0.978 0.875-0.986 0.867-1.018 0.84-1.01 0.828-1.041 0.811-1.046 0.793-1.061zm-17.822-20.775 23.976-20.14-1.14-0.424-1.153-0.404-1.153-0.38-1.16-0.356-1.172-0.34-1.169-0.314-1.18-0.309-1.187-0.273-1.189-0.253-1.192-0.226-1.196-0.214-1.204-0.194-1.208-0.166-1.207-0.147-1.209-0.119-1.208-0.103-1.215-0.083-1.216-0.055-1.216-0.036-1.402-0.02-1.224 8e-3 -1.208 0.04-1.216 0.051-1.215 0.075-1.216 0.103-1.208 0.12-1.208 0.138-1.208 0.166-1.196 0.186-1.2 0.21-1.196 0.23-1.188 0.253-1.188 0.274-1.18 0.289-1.169 0.32-1.172 0.333-1.169 0.357-1.152 0.38-1.152 0.396-1.319 0.487zm32.464-15.664-9e-3 -0.138-0.028-0.12-0.047-0.13-0.063-0.11-0.083-0.112-0.092-0.09-0.11-0.072-0.111-0.067-0.13-0.044-0.128-0.032h-0.13l-0.131 0.012-0.127 0.028-0.119 0.048-0.202 0.126-20.927 17.573 2.868 2.407 10.345 8.686 0.633-1.16 0.61-1.185 0.59-1.176 0.582-1.2 0.55-1.2 0.527-1.216 0.515-1.228 0.487-1.227 0.484-1.236 0.443-1.244 0.432-1.255 0.404-1.263 0.396-1.264 0.356-1.271 0.353-1.283 0.325-1.291 0.3-1.284 0.278-1.299 0.261-1.303 0.202-1.116 0.036-0.183 0.21-1.31 0.241-1.64 9e-3 -0.13zm7.373-0.146v0.423l-0.031 0.424-0.044 0.416-0.332 2.258-0.238 1.37-0.25 1.362-0.277 1.363-0.305 1.358-0.313 1.354-0.34 1.347-0.369 1.339-0.388 1.334-0.404 1.33-0.423 1.32-0.452 1.319-0.46 1.31-0.498 1.3-0.507 1.29-0.535 1.284-0.554 1.271-0.57 1.271-0.59 1.256-0.619 1.243-0.625 1.24-0.654 1.224-0.673 1.22-0.69 1.207-0.712 1.189-0.729 1.184-0.744 1.168-0.765 1.164-0.792 1.14-0.803 1.134-0.82 1.116-0.84 1.11-0.856 1.096-0.875 1.078-0.89 1.061-0.908 1.053-0.93 1.042-0.94 1.014-0.958 1.006-0.974 0.998-0.986 0.966-1.006 0.959-1.022 0.95-1.033 0.923-1.05 0.915-1.07 0.883-1.08 0.875-1.086 0.86-1.104 0.84-1.125 0.819-1.133 0.804-1.14 0.792-1.164 0.768-1.161 0.745-1.913-1.248-1.153-0.772-1.144-0.792-1.125-0.82-1.108-0.831-1.093-0.86-1.09-0.863-1.065-0.887-1.054-0.903-1.041-0.915-1.03-0.943-1.006-0.95-0.994-0.967-0.986-0.986-0.958-1.006-0.951-1.014-0.93-1.025-0.912-1.05-0.902-1.061-0.876-1.07-0.867-1.089-0.844-1.105-0.831-1.116-0.8-1.125-0.796-1.145-0.773-1.152-0.756-1.16-0.736-1.185-0.718-1.188-0.7-1.2-0.674-1.216-0.665-1.22-0.634-1.235-0.617-1.244-0.61-1.255-0.571-1.264-0.562-1.27-0.543-1.276-0.518-1.291-0.495-1.3-0.48-1.298-0.452-1.319-0.435-1.319-0.412-1.327-0.396-1.33-0.368-1.335-0.353-1.35-0.32-1.347-0.314-1.354-0.277-1.367-0.265-1.362-0.242-1.366-0.221-1.375-0.195-1.374-0.063-0.792-0.011-0.416 0.02-0.428 0.035-0.411 0.055-0.416 0.088-0.412 0.09-0.42 0.115-0.384 4e-3 -0.012 0.147-0.396 0.158-0.388 0.182-0.388 0.195-0.369 0.221-0.36 0.23-0.337 0.258-0.344 0.269-0.321 0.285-0.305 0.305-0.297 0.313-0.277 0.333-0.266 0.34-0.237 0.349-0.234 0.372-0.21 2.23-1.156 1.148-0.563 1.153-0.534 1.168-0.515 1.172-0.51 1.188-0.468 1.188-0.464 1.2-0.44 1.204-0.415 1.22-0.396 1.212-0.376 1.227-0.353 1.237-0.332 1.235-0.313 1.243-0.297 1.244-0.266 1.251-0.25 1.256-0.233 1.26-0.198 1.262-0.186 1.263-0.166 1.272-0.139 1.27-0.119 1.272-0.103 1.275-0.075 1.28-0.052 1.271-0.04 1.279-7e-3 2.515 0.047 1.271 0.052 1.275 0.075 1.271 0.091 1.272 0.123 1.271 0.139 1.264 0.166 1.263 0.182 1.26 0.206 1.255 0.226 1.251 0.253 1.256 0.266 1.231 0.297 1.244 0.313 1.228 0.332 1.223 0.349 1.228 0.38 1.204 0.396 1.208 0.412 1.2 0.443 1.196 0.452 1.18 0.483 1.18 0.5 1.16 0.51 1.161 0.547 1.141 0.554 1.144 0.578 1.125 0.594 0.681 0.412 0.34 0.242 0.333 0.257 0.313 0.277 0.306 0.297 0.284 0.301 0.278 0.325 0.25 0.329 0.237 0.352 0.222 0.36 0.202 0.37 0.182 0.38 0.159 0.383 0.15 0.4 0.02 0.064v4e-3l0.095 0.328 0.106 0.412 0.08 0.408 0.067 0.416 0.036 0.424z" fill="#e74c3c"/><path d="m78.33 14.058-0.227-0.176-0.241-0.166-0.25-0.147-0.258-0.13-0.267-0.11-0.277-0.092-0.276-0.064-0.286-0.056-0.284-0.026-0.296-0.01-0.286 0.01-0.283 0.036-0.287 0.046-0.286 0.074-0.277 0.091-0.257 0.111-0.267 0.14-0.24 0.147-0.404 0.296-2.184 1.835-20.927 17.569-5.732 4.813-1.926 1.625-0.294 0.22-0.24 0.147-0.24 0.13-0.248 0.11-0.267 0.092-0.26 0.075-0.274 0.045-0.277 0.03-0.27 0.016-0.368-0.016-0.276-0.046-0.267-0.055-0.267-0.075-0.257-0.1-0.251-0.111-0.237-0.14-0.231-0.157-0.222-0.165-1.926-1.625-26.656-22.382-2.184-1.835-0.232-0.176-0.24-0.166-0.248-0.15-0.257-0.117-0.277-0.11-0.276-0.085-0.277-0.065-0.286-0.056-0.287-0.016-0.293-0.01-0.286 0.017-0.287 0.029-0.286 0.065-0.283 0.072-0.27 0.094-0.267 0.12-0.257 0.127-0.248 0.156-0.23 0.166-0.378 0.332 6.623 5.563 0.01 6e-3 19.072 16.016 5.731 4.814 2.425 2.037 0.306 0.24 0.312 0.232 0.323 0.202 0.341 0.195 0.342 0.172 0.358 0.15 0.361 0.137 0.368 0.12 0.378 0.092 0.377 0.075 0.378 0.064 0.387 0.037 0.514 0.019 0.38-0.02 0.385-0.026 0.387-0.046 0.378-0.074 0.38-0.091 0.368-0.111 0.359-0.13 0.36-0.146 0.349-0.166 0.332-0.186 0.332-0.195 0.322-0.222 0.407-0.322 2.424-2.037 5.732-4.814 19.076-16.016 6e-3 -6e-3 6.623-5.563z" fill="#000" opacity=".12"/></g></g></g></svg>
