<svg width="4611" height="785" viewBox="0 0 4611 785" fill="none" xmlns="http://www.w3.org/2000/svg">
<path d="M3393.77 628.366V148.75H3518.26L3634.96 436.342C3645.32 460.412 3654.25 485.07 3661.71 510.19H3662.9C3670.4 485.085 3679.33 460.429 3689.65 436.342L3806.35 148.75H3930.84V628.366H3840.6V307.01C3840.5 296.426 3841 285.846 3842.09 275.318H3840.6C3837.85 286.656 3834.08 297.724 3829.35 308.392L3700.02 622.739H3625.48L3495.75 308.392C3491.08 297.627 3487.09 286.581 3483.8 275.318H3482.42C3483.42 285.852 3483.88 296.429 3483.8 307.01V628.366H3393.77Z" fill="#6D4AFF"/>
<path d="M4239.47 311.946C4265.6 325.654 4287.2 346.641 4301.66 372.367C4317.16 400.305 4325 431.846 4324.37 463.788V628.367H4245.39L4239.76 579.003C4229.46 596.899 4214.34 611.54 4196.12 621.258C4176.6 631.406 4154.84 636.465 4132.84 635.969C4104.75 636.251 4077.14 628.732 4053.07 614.249C4028.72 599.465 4008.88 578.296 3995.71 553.038C3981.32 525.239 3974.1 494.293 3974.68 462.999C3974.29 432.197 3982.16 401.855 3997.49 375.131C4012.47 349.157 4034.24 327.756 4060.47 313.23C4087.63 298.137 4118.26 290.379 4149.33 290.72C4180.67 290.176 4211.66 297.473 4239.47 311.946V311.946ZM4210.54 533.391C4227.72 517.002 4236.21 493.9 4236.21 463.097C4237.29 437.923 4228.46 413.327 4211.62 394.581C4203.61 386.204 4193.97 379.537 4183.31 374.982C4172.65 370.428 4161.17 368.079 4149.57 368.079C4137.98 368.079 4126.5 370.428 4115.84 374.982C4105.17 379.537 4095.54 386.204 4087.52 394.581C4071.51 413.783 4062.74 437.995 4062.74 462.999C4062.74 488.002 4071.51 512.214 4087.52 531.417C4095.43 539.974 4105.06 546.75 4115.78 551.295C4126.51 555.84 4138.08 558.05 4149.72 557.777C4160.97 557.965 4172.15 555.905 4182.59 551.718C4193.03 547.53 4202.54 541.299 4210.54 533.391V533.391Z" fill="#6D4AFF"/>
<path d="M4373.04 229.311C4367.73 224.46 4363.5 218.538 4360.64 211.935C4357.78 205.333 4356.35 198.199 4356.45 191.005C4356.37 183.756 4357.81 176.569 4360.66 169.905C4363.52 163.242 4367.73 157.247 4373.04 152.304C4383.53 141.862 4397.73 136 4412.53 136C4427.33 136 4441.53 141.862 4452.02 152.304C4457.29 157.267 4461.48 163.268 4464.32 169.928C4467.15 176.589 4468.58 183.765 4468.51 191.005C4468.6 198.189 4467.18 205.312 4464.34 211.911C4461.5 218.511 4457.3 224.439 4452.02 229.311C4441.41 239.519 4427.25 245.221 4412.53 245.221C4397.8 245.221 4383.65 239.519 4373.04 229.311ZM4457.05 628.366H4368.2V297.828H4457.05V628.366Z" fill="#6D4AFF"/>
<path d="M4610.68 628.366H4521.82V148.75H4610.68V628.366Z" fill="#6D4AFF"/>
<path d="M1549.54 147.559H1328V627.471H1415.77V508.406C1415.77 496.78 1420.39 485.631 1428.61 477.41C1436.83 469.19 1447.98 464.571 1459.6 464.571H1549.54C1591.44 464.571 1631.62 447.929 1661.24 418.305C1690.86 388.681 1707.51 348.502 1707.51 306.608C1707.65 285.773 1703.67 265.115 1695.8 245.824C1687.92 226.534 1676.31 208.992 1661.63 194.208C1646.94 179.425 1629.48 167.692 1610.25 159.686C1591.01 151.68 1570.38 147.558 1549.54 147.559ZM1618.65 305.522C1618.57 325.352 1610.63 344.341 1596.56 358.317C1582.49 372.293 1563.45 380.113 1543.62 380.061H1415.27V230.094H1543.62C1553.46 230.094 1563.2 232.033 1572.3 235.798C1581.39 239.564 1589.65 245.084 1596.61 252.042C1603.56 259 1609.08 267.261 1612.85 276.352C1616.62 285.444 1618.55 295.188 1618.55 305.028L1618.65 305.522Z" fill="#1B1340"/>
<path d="M1721.33 627.476V437.13C1721.33 359.432 1766.74 297.53 1857.47 297.53C1872.06 297.319 1886.63 298.944 1900.81 302.367V380.757C1890.45 380.066 1881.07 380.066 1877.41 380.066C1829.33 380.066 1808.3 401.983 1808.3 446.707V627.476H1721.33Z" fill="#1B1340"/>
<path d="M1926.88 465.96C1926.88 370.392 1999.05 297.531 2099.46 297.531C2199.86 297.531 2271.93 370.194 2271.93 465.96C2271.93 561.725 2199.76 635.079 2099.46 635.079C1999.15 635.079 1926.88 561.527 1926.88 465.96ZM2186.04 465.96C2186.04 411.66 2149.61 373.156 2099.46 373.156C2049.3 373.156 2012.77 411.66 2012.77 465.96C2012.77 520.26 2049.2 558.763 2099.46 558.763C2149.71 558.763 2186.04 520.951 2186.04 465.96Z" fill="#1B1340"/>
<path d="M2524.87 373.845H2430.78V494.094C2430.78 536.053 2445.89 555.305 2489.13 555.305C2493.28 555.305 2503.64 555.305 2516.68 554.614V625.401C2500.15 630.24 2483.05 632.797 2465.83 633.003C2392.97 633.003 2343.41 588.971 2343.41 505.843V373.845H2285.06V304.736H2299.58C2311.2 304.736 2322.35 300.117 2330.57 291.897C2338.79 283.676 2343.41 272.526 2343.41 260.901V195.148H2430.78V304.439H2524.87V373.845Z" fill="#1B1340"/>
<path d="M2551.03 465.96C2551.03 370.392 2623.2 297.531 2723.51 297.531C2823.81 297.531 2896.08 370.194 2896.08 465.96C2896.08 561.725 2823.91 635.079 2723.51 635.079C2623.1 635.079 2551.03 561.527 2551.03 465.96ZM2810.19 465.96C2810.19 411.66 2773.76 373.156 2723.51 373.156C2673.26 373.156 2636.92 411.66 2636.92 465.96C2636.92 520.26 2673.35 558.763 2723.51 558.763C2773.66 558.763 2810.19 520.951 2810.19 465.96Z" fill="#1B1340"/>
<path d="M2941.4 627.477V443.944C2941.4 358.742 2995.7 297.531 3092.65 297.531C3189.6 297.531 3243.21 358.742 3243.21 443.944V627.477H3156.63V450.854C3156.63 403.367 3135.3 373.847 3092.65 373.847C3050 373.847 3028.77 403.465 3028.77 450.854V627.477H2941.4Z" fill="#1B1340"/>
<path d="M0 22.5541C0 3.48617 22.2124 -6.94596 36.8738 5.23613L424.677 327.46C462.177 358.619 516.546 358.619 554.046 327.46L941.85 5.23618C956.511 -6.94591 978.723 3.48621 978.723 22.5541V683.7C978.723 739.646 933.393 785 877.476 785H101.247C45.3299 785 0 739.646 0 683.7V22.5541Z" fill="#6D4AFF"/>
<path fill-rule="evenodd" clip-rule="evenodd" d="M621.492 271.42L621.546 271.464L426.244 444.071C392.975 473.475 343.246 474.216 309.116 445.817L0 188.604V22.5541C0 3.48617 22.2124 -6.94596 36.8738 5.23613L424.677 327.46C462.177 358.619 516.546 358.619 554.046 327.46L621.492 271.42Z" fill="url(#paint0_linear_6138_150267)"/>
<path fill-rule="evenodd" clip-rule="evenodd" d="M770.604 147.526V785H877.476C933.393 785 978.723 739.642 978.723 683.699V22.5548C978.723 3.4868 956.51 -6.94715 941.849 5.23724L770.604 147.526Z" fill="url(#paint1_linear_6138_150267)"/>
<defs>
<linearGradient id="paint0_linear_6138_150267" x1="738.261" y1="384.02" x2="514.95" y2="-568.829" gradientUnits="userSpaceOnUse">
<stop stop-color="#E2DBFF"/>
<stop offset="1" stop-color="#6D4AFF"/>
</linearGradient>
<linearGradient id="paint1_linear_6138_150267" x1="1276.84" y1="1301.35" x2="514.868" y2="-325.532" gradientUnits="userSpaceOnUse">
<stop offset="0.271019" stop-color="#E2DBFF"/>
<stop offset="1" stop-color="#6D4AFF"/>
</linearGradient>
</defs>
</svg>
