<svg xmlns="http://www.w3.org/2000/svg" viewBox="0 0 383 56"><g fill="none" fill-rule="nonzero"><g fill="#6573FF"><path d="M90.744 55.754a33.42 33.42 0 0 1-8.97-1.106 19.245 19.245 0 0 1-6.18-2.699c-1.119-.802-1.69-1.604-1.69-2.376 0-.772.413-1.823 1.264-3.148.85-1.325 1.568-1.97 2.145-1.97.69.125 1.336.429 1.872.882a37.02 37.02 0 0 0 5.05 2.151c1.904.6 3.893.886 5.889.845a10.33 10.33 0 0 0 6.618-2.097 7.057 7.057 0 0 0 2.619-5.822 6.364 6.364 0 0 0-1.288-4.06 10.186 10.186 0 0 0-3.246-2.675c-1.312-.692-3.147-1.537-5.469-2.516l-1.708-.699a41.626 41.626 0 0 1-6.618-3.276 13.699 13.699 0 0 1-4.357-4.588c-1.173-1.958-1.768-4.528-1.768-7.646a13.707 13.707 0 0 1 2.315-7.902 14.974 14.974 0 0 1 6.314-5.227A21.942 21.942 0 0 1 92.597.002c2.12.011 4.232.274 6.29.784a16.188 16.188 0 0 1 5.13 2.036c1.123.7 1.695 1.471 1.695 2.298a6.607 6.607 0 0 1-1.143 3.039c-.79 1.33-1.452 1.975-2.036 1.975-.182 0-.607-.097-2.315-.948a17.063 17.063 0 0 0-7.384-1.69c-2.85 0-5.099.669-6.685 1.981a6.57 6.57 0 0 0-2.388 5.319 6.018 6.018 0 0 0 1.215 3.938 8.782 8.782 0 0 0 3.039 2.37c1.179.56 3.039 1.344 5.579 2.322a57.87 57.87 0 0 1 7.511 3.464 14.872 14.872 0 0 1 5.02 4.863c1.38 2.109 2.078 4.862 2.078 8.114 0 5.044-1.635 8.989-4.861 11.724-3.227 2.735-7.463 4.163-12.598 4.163ZM128.92 55.754a11.139 11.139 0 0 1-7.432-2.631c-2.072-1.757-3.124-4.71-3.124-8.77V21.22h-2.953a1.647 1.647 0 0 1-1.483-.73 4.14 4.14 0 0 1-.456-2.218v-1.009a4.158 4.158 0 0 1 .456-2.218c.328-.49.894-.769 1.483-.73h2.971l1.01-7.791c.17-1.374 1.215-2.073 3.105-2.073h1.215c1.957 0 2.947.705 2.947 2.09v7.768h5.591a1.653 1.653 0 0 1 1.483.73c.353.683.511 1.45.456 2.218v1.009a4.17 4.17 0 0 1-.456 2.218c-.328.492-.893.77-1.483.73h-5.566v22.75c0 1.823.31 3.099.93 3.816.7.748 1.7 1.143 2.722 1.076a7.328 7.328 0 0 0 1.78-.189c.38-.112.772-.18 1.168-.2.607 0 1.075.577 1.464 1.775.306.825.49 1.692.547 2.57-.018 1.952-2.157 2.942-6.375 2.942ZM154.438 55.754c-3.95 0-7.116-1.015-9.413-3.039-2.298-2.018-3.464-4.941-3.464-8.697 0-5.264 2.218-9.007 6.605-11.117 4.388-2.109 10.423-3.172 18.153-3.239v-3.185a5.38 5.38 0 0 0-1.823-4.254c-1.216-1.052-3.185-1.593-5.877-1.593a18.612 18.612 0 0 0-5.506.736 28.433 28.433 0 0 0-4.01 1.543c-1.502.73-1.824.827-1.97.827-.607 0-1.325-.608-2.108-1.896-.784-1.289-1.15-2.176-1.15-2.832 0-.79.7-1.58 2.134-2.432a20.54 20.54 0 0 1 5.47-2.03 30.607 30.607 0 0 1 7.213-.82c5.135 0 9.116 1.118 11.777 3.33 2.662 2.213 4.054 5.33 4.054 9.239v16.617a42.684 42.684 0 0 0 .462 7.5c.215.878.372 1.77.468 2.668 0 .796-.681 1.367-2.018 1.696-1.166.3-2.363.46-3.567.474a1.92 1.92 0 0 1-1.86-1.21 13.014 13.014 0 0 1-.79-2.51l-.292-1.477a18.19 18.19 0 0 1-5.074 3.981 15.295 15.295 0 0 1-7.414 1.72Zm11.88-19.637c-4.91 0-8.89.492-11.831 1.428-2.942.936-4.394 2.869-4.394 5.871a5.24 5.24 0 0 0 1.464 3.969c.973.924 2.389 1.392 4.206 1.392a12.153 12.153 0 0 0 5.9-1.38 17.977 17.977 0 0 0 4.656-3.726v-7.554ZM190.961 55.766h-.856c-2.474 0-3.726-.705-3.726-2.096V26.836a41.942 41.942 0 0 0-.462-7.421c-.2-.881-.356-1.772-.467-2.668 0-.803.692-1.374 2.06-1.702a15.677 15.677 0 0 1 3.603-.474 1.866 1.866 0 0 1 1.824 1.179c.347.755.612 1.546.79 2.358.121.571.218 1.021.28 1.35 2.606-3.757 5.554-5.66 8.768-5.66a5.098 5.098 0 0 1 3.477 1.046 3.288 3.288 0 0 1 1.178 2.522 10.583 10.583 0 0 1-.553 3.149c-.388 1.215-.838 1.823-1.385 1.823a5.846 5.846 0 0 1-1.641-.401 7.711 7.711 0 0 0-2.473-.377 6.125 6.125 0 0 0-4.133 1.556 14.933 14.933 0 0 0-2.625 2.838v27.722c-.018 1.385-1.246 2.09-3.659 2.09ZM228.409 55.754a11.139 11.139 0 0 1-7.433-2.631c-2.072-1.757-3.123-4.71-3.123-8.77V21.22h-2.948a1.659 1.659 0 0 1-1.489-.73 4.164 4.164 0 0 1-.45-2.218v-1.009a4.164 4.164 0 0 1 .45-2.218c.331-.492.898-.77 1.49-.73h2.971l.99-7.785c.165-1.374 1.216-2.073 3.1-2.073h1.215c1.957 0 2.948.705 2.948 2.09v7.768h5.59a1.665 1.665 0 0 1 1.49.73c.347.685.502 1.452.45 2.218v1.01a4.255 4.255 0 0 1-.45 2.217c-.332.491-.899.769-1.49.73h-5.59v22.75c0 1.823.316 3.099.936 3.816a3.403 3.403 0 0 0 2.716 1.076 7.42 7.42 0 0 0 1.787-.188c.377-.113.767-.18 1.16-.201.608 0 1.076.577 1.465 1.775.308.825.495 1.691.553 2.57.024 1.946-2.12 2.936-6.338 2.936Z"/></g><g fill="#202945"><path d="m271.46 30.222 15.947-28.565c.563-1.09 1.803-1.635 3.719-1.635h2.954c2.378 0 3.567.648 3.567 1.945v51.838c0 1.3-1.216 1.944-3.567 1.944h-1.01c-2.382 0-3.573-.644-3.573-1.944v-39.94l-14.445 25.047a2.291 2.291 0 0 1-2.097 1.167h-2.838a2.291 2.291 0 0 1-2.097-1.167l-14.585-25.356v40.249c0 1.292-1.189 1.94-3.567 1.944h-1.021c-2.382 0-3.573-.648-3.573-1.944V1.96c0-1.293 1.19-1.941 3.573-1.945h3.178c1.864 0 3.106.545 3.726 1.635l15.71 28.572ZM311.679 52.821c-2.273-1.993-3.412-4.852-3.416-8.576 0-5.227 2.174-8.89 6.521-10.989 4.347-2.098 10.425-3.172 18.232-3.22v-3.35a5.47 5.47 0 0 0-1.866-4.346c-1.24-1.09-3.23-1.633-5.974-1.629a18.68 18.68 0 0 0-5.548.736 29.212 29.212 0 0 0-4.042 1.55c-.603.34-1.24.615-1.902.82-.565 0-1.215-.608-1.975-1.823-.76-1.216-1.124-2.133-1.124-2.753 0-.724.68-1.49 2.054-2.292a20.503 20.503 0 0 1 5.433-2.018 30.67 30.67 0 0 1 7.183-.814c5.117 0 9.01 1.1 11.68 3.3 2.67 2.2 4.004 5.24 4 9.117v16.611a43.043 43.043 0 0 0 .461 7.53c.31 1.55.468 2.432.468 2.639 0 .723-.638 1.215-1.902 1.55-1.154.296-2.34.453-3.53.468a1.775 1.775 0 0 1-1.75-1.167 12.29 12.29 0 0 1-.773-2.48 50.426 50.426 0 0 1-.352-1.787 17.916 17.916 0 0 1-5.239 4.194 15.155 15.155 0 0 1-7.335 1.708c-3.934-.009-7.035-1.001-9.304-2.979Zm16.615-5.087a18.02 18.02 0 0 0 4.734-3.798v-7.792c-5.02 0-9.03.48-12.033 1.44-3.002.96-4.503 2.964-4.503 6.011a5.349 5.349 0 0 0 1.513 4.078c1.009.96 2.43 1.435 4.309 1.435 2.08.05 4.137-.432 5.98-1.398v.024ZM353.092 53.812v-37.78c0-1.288 1.215-1.939 3.573-1.939h.772c2.382 0 3.574.65 3.574 1.94v37.779c0 1.292-1.192 1.938-3.574 1.938h-.772c-2.382 0-3.573-.646-3.573-1.938ZM353.092 7.14V1.962c0-1.289 1.258-1.94 3.646-1.94h.778c2.376 0 3.5.651 3.5 1.94V7.14c0 1.292-1.19 1.94-3.573 1.945h-.772c-2.386-.016-3.58-.665-3.58-1.945ZM378.633.021h-.857c-2.327 0-3.488.65-3.488 1.939v51.852c0 1.292 1.191 1.938 3.574 1.938h.778c2.374 0 3.563-.646 3.567-1.938V1.96C382.2.67 381.01.02 378.633.02Z"/></g><path fill="#6573FF" d="M55.73 9.844V5.297A5.275 5.275 0 0 0 50.453.022H5.284A5.275 5.275 0 0 0 .007 5.297v4.461c2.097 2.006 21.3 20.222 27.956 20.222 7.043 0 25.592-18.003 27.767-20.136h-.002Z"/><path fill="#202945" d="M45.804 26.455c-7.608 6.855-13.613 10.332-17.849 10.332C18.347 36.787 2.08 22.23 0 20.34v30.128a5.276 5.276 0 0 0 5.275 5.275h45.17a5.275 5.275 0 0 0 5.276-5.275V16.43a133.421 133.421 0 0 1-9.918 10.023l.001.002Z"/></g></svg>