<svg width="128" height="128" version="1.1" viewBox="0 0 33.867 33.867" xmlns="http://www.w3.org/2000/svg"><g transform="matrix(.99949 0 0 .99949 0 -4.3461e-6)" stroke-width=".17657"><path d="m18.887 33.875h-18.887v-33.884h33.867v33.884h-14.98m-11.23-6.4496v2.2541c0.52144-0.0234 0.91072-0.0407 1.3471-0.0603v-3.7967-3.7795c0.41355 0 0.72916 5.3e-4 1.0448-8e-5 2.8536-5e-3 5.7092 0.0554 8.5603-0.0316 4.4217-0.13491 7.8995-3.3228 8.4823-7.6524 0.5747-4.2695-1.9094-8.0926-6.177-9.378-0.97178-0.29269-2.0196-0.43877-3.036-0.45784-3.1467-0.059-6.2952-0.0252-9.443-0.0239-0.2281 9e-5 -0.45618 0.0282-0.77834 0.0495 0 7.5979 0 15.15-1.6e-5 22.877z" fill="#1a1824"/><path d="m7.657 27.338c8e-6 -7.6394 8e-6 -15.191 8e-6 -22.789 0.32216-0.0213 0.55024-0.0494 0.77834-0.0495 3.1478-1e-3 6.2963-0.0351 9.443 0.0239 1.0164 0.0191 2.0642 0.16514 3.036 0.45783 4.2676 1.2854 6.7517 5.1085 6.177 9.378-0.58279 4.3296-4.0606 7.5175-8.4823 7.6524-2.8511 0.087-5.7067 0.0263-8.5603 0.0316-0.31561 5.2e-4 -0.63122 8e-5 -1.0448 8e-5v3.7795 3.7967c-0.43638 0.0195-0.82566 0.0369-1.3471 0.0603 0-0.80413 0-1.5291 8e-6 -2.3416m5.6677-6.6578c1.7344-8e-3 3.4703 0.0274 5.2029-0.0332 3.9836-0.1393 7.0762-3.1038 7.2512-6.8959 0.18838-4.0816-2.4594-7.4006-6.5589-7.7594-3.1812-0.27844-6.4002-0.1252-9.6025-0.15673-0.19145-2e-3 -0.38352 0.0593-0.55944 0.0886v14.757h4.2667z" fill="#bdb9ba"/><path d="m13.236 20.68h-4.1784v-14.757c0.17592-0.0292 0.36799-0.0904 0.55944-0.0886 3.2023 0.0316 6.4214-0.12172 9.6025 0.15673 4.0994 0.35881 6.7472 3.6778 6.5589 7.7594-0.17502 3.792-3.2676 6.7566-7.2512 6.8959-1.7326 0.0606-3.4685 0.025-5.2912 0.0332z" fill="#1a1825"/></g></svg>
