<svg version="1.1" id="Layer_1" xmlns="http://www.w3.org/2000/svg" xmlns:xlink="http://www.w3.org/1999/xlink" x="0px" y="0px"
	 width="100%" viewBox="0 0 192 192" enable-background="new 0 0 192 192" xml:space="preserve">
<path fill="#1A1824" opacity="1.000000" stroke="none" 
	d="
M108.000000,193.000000 
	C72.023125,193.000000 36.546246,193.000000 1.034685,193.000000 
	C1.034685,129.064819 1.034685,65.129631 1.034685,1.097215 
	C64.893372,1.097215 128.786942,1.097215 192.840256,1.097215 
	C192.840256,64.999680 192.840256,128.999802 192.840256,193.000000 
	C164.796585,193.000000 136.648300,193.000000 108.000000,193.000000 
M44.400551,156.472321 
	C44.400551,160.578201 44.400551,164.684067 44.400551,169.238312 
	C47.353767,169.106247 49.558487,169.007660 52.029945,168.897156 
	C52.029945,161.366318 52.029945,154.380280 52.029945,147.394241 
	C52.029945,140.446945 52.029945,133.499664 52.029945,125.988792 
	C54.372101,125.988792 56.159573,125.991676 57.947037,125.988342 
	C74.108398,125.958183 90.281212,126.301979 106.428482,125.809265 
	C131.471069,125.045128 151.167664,106.990593 154.468307,82.469612 
	C157.723160,58.289082 143.654297,36.636539 119.484581,29.356768 
	C113.980827,27.699070 108.046684,26.871744 102.289978,26.763792 
	C84.468269,26.429583 66.636604,26.621151 48.808804,26.628344 
	C47.516972,26.628864 46.225204,26.787981 44.400642,26.908573 
	C44.400642,69.939743 44.400642,112.710136 44.400551,156.472321 
z"/>
<path fill="#BDB9BA" opacity="1.000000" stroke="none" 
	d="
M44.400597,155.976425 
	C44.400642,112.710136 44.400642,69.939743 44.400642,26.908573 
	C46.225204,26.787981 47.516972,26.628864 48.808804,26.628344 
	C66.636604,26.621151 84.468269,26.429583 102.289978,26.763792 
	C108.046684,26.871744 113.980827,27.699070 119.484581,29.356768 
	C143.654297,36.636539 157.723160,58.289082 154.468307,82.469612 
	C151.167664,106.990593 131.471069,125.045128 106.428482,125.809265 
	C90.281212,126.301979 74.108398,125.958183 57.947037,125.988342 
	C56.159573,125.991676 54.372101,125.988792 52.029945,125.988792 
	C52.029945,133.499664 52.029945,140.446945 52.029945,147.394241 
	C52.029945,154.380280 52.029945,161.366318 52.029945,168.897156 
	C49.558487,169.007660 47.353767,169.106247 44.400551,169.238312 
	C44.400551,164.684067 44.400551,160.578201 44.400597,155.976425 
M76.499878,118.269913 
	C86.322731,118.223999 96.154221,118.425385 105.966682,118.082283 
	C128.528183,117.293381 146.043182,100.503639 147.034409,79.027206 
	C148.101318,55.911102 133.105331,37.113804 109.888016,35.081638 
	C91.871407,33.504681 73.640038,34.372566 55.503735,34.193985 
	C54.419445,34.183308 53.331638,34.530087 52.335327,34.695606 
	C52.335327,62.627899 52.335327,90.199944 52.335327,118.269920 
	C60.255573,118.269920 67.877731,118.269920 76.499878,118.269913 
z"/>
<path fill="#1A1825" opacity="1.000000" stroke="none" 
	d="
M75.999886,118.269913 
	C67.877731,118.269920 60.255573,118.269920 52.335327,118.269920 
	C52.335327,90.199944 52.335327,62.627899 52.335327,34.695606 
	C53.331638,34.530087 54.419445,34.183308 55.503735,34.193985 
	C73.640038,34.372566 91.871407,33.504681 109.888016,35.081638 
	C133.105331,37.113804 148.101318,55.911102 147.034409,79.027206 
	C146.043182,100.503639 128.528183,117.293381 105.966682,118.082283 
	C96.154221,118.425385 86.322731,118.223999 75.999886,118.269913 
z"/>
</svg>