<?xml version="1.0" ?><svg enable-background="new 0 0 515.91 728.5" height="512" id="Layer_1" version="1.1" viewBox="0 0 512.00003 512" width="512" xml:space="preserve" xmlns="http://www.w3.org/2000/svg" xmlns:cc="http://creativecommons.org/ns#" xmlns:dc="http://purl.org/dc/elements/1.1/" xmlns:inkscape="http://www.inkscape.org/namespaces/inkscape" xmlns:rdf="http://www.w3.org/1999/02/22-rdf-syntax-ns#" xmlns:sodipodi="http://sodipodi.sourceforge.net/DTD/sodipodi-0.dtd" xmlns:svg="http://www.w3.org/2000/svg"><defs id="defs7"/><g id="g6983" style="fill:#282828;fill-opacity:1;stroke:none" transform="translate(1.5e-5,0)"><rect height="512" id="rect2984" rx="64" ry="64" style="fill:#282828;fill-opacity:1;fill-rule:nonzero;stroke:none" width="512" x="0" y="0"/><g id="g3372" style="fill:#282828;fill-opacity:1;stroke:none" transform="matrix(15.99685,0,0,15.99685,-5338.7915,-6028.4756)"><g id="g3368" style="fill:#282828;fill-opacity:1;stroke:none" transform="translate(0.44642857,-0.04464286)"><path d="m 355.84375,380.40625 c -0.0699,0.0404 -0.0811,0.0614 -0.0625,0.0312 -0.67912,1.14393 -0.69662,2.65289 -1,4 a 0.4982215,0.4982215 0 0 1 0,0.0312 c -0.005,0.0197 0.005,0.0429 0,0.0625 -0.14726,1.44619 -0.62399,2.92107 -0.28125,4.3125 a 0.4982215,0.4982215 0 0 1 0.0312,0.0937 c 0.003,0.0101 -0.003,0.0212 0,0.0312 0.005,0.008 -0.005,0.0237 0,0.0312 0.006,0.009 0.0253,-0.008 0.0312,0 0.0731,0.10058 0.16238,0.1759 0.21875,0.1875 0.0403,0.008 0.11021,0.004 0.25,-0.0937 0.15127,-0.1053 0.23683,-0.31627 0.28125,-0.59375 a 0.4982215,0.4982215 0 0 1 0.0625,-0.0937 0.4982215,0.4982215 0 0 1 0,-0.0312 0.4982215,0.4982215 0 0 1 0.0312,-0.0937 0.4982215,0.4982215 0 0 1 0.0312,-0.0312 c 0.59834,-2.38691 1.00327,-4.89182 0.84375,-7.34375 -0.0204,-0.12189 -0.0428,-0.2068 -0.15625,-0.34375 -0.0753,-0.0907 -0.13704,-0.14279 -0.15625,-0.15625 -0.0192,-0.0135 0.007,-0.004 -0.0625,0 a 0.4982215,0.4982215 0 0 1 -0.0312,0 c -0.0257,0.003 -0.0158,-6.1e-4 -0.0312,0 z" id="path3366" style="fill:#282828;fill-opacity:1;stroke:none"/><path d="m 361.84375,381.84375 c -1.03636,0.50365 -1.56686,1.70537 -2.28125,2.6875 a 0.46681363,0.46681363 0 0 1 -0.0312,0.0937 0.46681363,0.46681363 0 0 1 -0.0312,0.0625 c -0.90569,1.60511 -2.06123,3.20738 -2.1875,5.0625 -7.1e-4,0.0105 6.5e-4,0.0208 0,0.0312 0.0138,0.27995 0.17412,0.43198 0.34375,0.46875 0.16658,0.036 0.47447,-0.0594 0.59375,-0.25 a 0.46681363,0.46681363 0 0 1 0.0312,-0.0312 0.46681363,0.46681363 0 0 1 0,-0.0312 0.46681363,0.46681363 0 0 1 0,-0.0312 c 1.646,-2.26173 2.88416,-4.92489 3.90625,-7.53125 a 0.46681363,0.46681363 0 0 1 0,-0.0312 c 0.0707,-0.17113 0.0941,-0.21493 0.0312,-0.34375 -0.0185,-0.0381 -0.21237,-0.16871 -0.3125,-0.15625 -0.0163,0.007 -0.0465,-0.008 -0.0625,0 z" id="path3364" style="fill:#282828;fill-opacity:1;stroke:none" transform="translate(-0.49107143,-0.26785714)"/></g><path d="m 345.66985,382.2774 c -0.16726,0.0311 -0.4161,0.1809 -0.59375,0.25 -0.62832,0.23837 -0.975,0.77698 -1.125,1.40625 -0.15274,0.64382 -0.10183,1.36084 0,2.09375 0.10181,0.73145 0.24752,1.48649 0.40625,2.0625 0.13645,0.49836 0.23415,0.7408 0.28125,0.90625 l 0,0.125 c 0,0.0545 -0.0261,0.05 -0.0625,0.0937 -0.02,0.0109 0.02,0.0625 0,0.0625 -0.0453,0.0346 -0.0999,0.0625 -0.15625,0.0625 -0.11101,0.007 -0.19778,-0.0334 -0.3125,-0.0625 -0.0782,-0.0181 -0.17995,-0.0807 -0.15625,-0.0625 -0.0363,-0.0218 -0.1013,-0.0243 -0.125,-0.0625 0,0.0146 0.0219,0.0143 0,-0.0312 -0.0254,-0.0473 -0.0537,-0.1664 -0.0937,-0.25 -0.0891,-0.18946 -0.15908,-0.40895 -0.28125,-0.6875 -0.24381,-0.55472 -0.55754,-1.23609 -0.90625,-1.875 -0.34999,-0.64145 -0.76223,-1.22354 -1.21875,-1.625 -0.22817,-0.20054 -0.50982,-0.40155 -0.78125,-0.46875 -0.26199,-0.0655 -0.57287,-0.01 -0.84375,0.125 -0.69997,0.38836 -1.09619,1.02422 -1.25,1.6875 -0.15456,0.67346 -0.0815,1.44899 0.0312,2.125 0.11454,0.67454 0.29189,1.23077 0.40625,1.6875 0.049,0.19254 0.1087,0.37235 0.125,0.46875 0,0.0955 -0.0389,0.3448 -0.0625,0.4375 -0.11818,0.40928 -0.40559,1.09375 -0.40625,1.09375 0,0 -5.45294,14.48293 6.25,13.46875 0.0964,-0.007 0.31535,-0.0625 0.40625,-0.0625 2.29827,-0.46272 4.47308,-1.15769 6.40625,-1.9375 0.3798,-0.182 0.87805,-0.36282 1.4375,-0.625 1.11885,-0.52418 2.52451,-1.19587 3.875,-1.9375 1.35103,-0.74219 2.60454,-1.533 3.5625,-2.375 0.9596,-0.84327 1.65997,-1.76731 1.53125,-2.6875 -0.20364,-1.48345 -1.18879,-2.58587 -2.5,-3.4375 -1.31613,-0.85473 -2.95728,-1.44464 -4.59375,-1.875 -1.63576,-0.43018 -3.2241,-0.78002 -4.4375,-0.96875 -0.60652,-0.0945 -1.1749,-0.122 -1.53125,-0.1875 -0.10544,-0.0181 -0.16175,-0.0443 -0.21875,-0.0625 -0.0307,-0.004 -0.0334,-0.0131 -0.0625,-0.0312 -0.0363,-0.0218 -0.1031,-0.0243 -0.125,-0.0625 -0.02,-0.0363 0,-0.0832 0,-0.125 0,-0.0163 -1.7e-4,-0.0407 0,-0.0625 l 0,-0.90625 c -0.02,-0.748 -0.064,-1.73553 -0.21875,-2.65625 -0.15637,-0.92455 -0.39754,-1.80879 -0.90625,-2.40625 -0.30235,-0.35545 -0.73038,-0.5887 -1.25,-0.625 -0.15636,-0.0182 -0.3311,-0.0309 -0.5,0 z" id="path3302" style="fill:#282828;fill-opacity:1;stroke:none"/></g></g><path d="m 272.85129,454.53102 c 5.8293,-1.8195 10.5521,-4.3988 15.8975,-8.6813 11.9826,-9.6009 20.2845,-20.8092 51.27844,-69.22871 23.3016,-36.40211 32.046,-52.67251 38.5484,-71.72461 2.9939,-8.7725 6.4275,-23.8625 6.4278,-28.2493 0,-1.7588 -0.1873,-2.1325 -0.9922,-1.9788 -1.4384,0.2733 -4.4511,5.0609 -5.5384,8.8014 -1.1654,4.0086 -5.4802,14.862 -9.6955,24.3875 -5.4211,12.251 -14.9033,28.3032 -29.3988,49.76951 -27.6396,40.93181 -26.8196,39.79501 -28.3039,39.22581 -0.7847,-0.3011 -0.7914,-0.5926 -0.06,-2.66381 1.0116,-2.8673 5.5114,-10.5557 11.4436,-19.5522 2.4674,-3.7421 6.1014,-9.8452 8.0755,-13.5619 1.9741,-3.7172 4.8316,-8.6614 6.35,-10.9877 1.921,-2.9427 2.7608,-4.8104 2.7608,-6.1406 0,-1.0517 -0.2778,-1.9119 -0.6173,-1.9119 -0.3395,0 -1.9298,1.1482 -3.5339,2.5515 -2.6427,2.3116 -4.9681,3.4377 -4.0575,1.9641 0.1997,-0.3232 4.4608,-5.23451 9.4691,-10.91471 14.3085,-16.2267 18.9439,-23.0187 21.7539,-31.8729 1.6007,-5.0434 2.5299,-13.8913 1.4589,-13.8913 -1.3174,0 -5.6978,6.5567 -13.1275,19.6497 -4.2067,7.4128 -8.5659,14.6358 -9.6871,16.0504 -11.4316,14.4243 -32.76744,24.45561 -56.09004,26.37201 -2.3388,0.1922 -7.6776,1.0019 -11.8638,1.7985 -7.4697,1.4226 -7.8076,1.4368 -18.14381,0.7841 -12.0977,-0.7643 -17.8417,-1.7633 -19.5925,-3.4081 -1.0379,-0.9753 -1.9827,-1.1454 -6.3644,-1.1454 -6.2736,0 -12.1696,-1.0727 -20.6598,-3.7586 -14.7292,-4.6601 -26.7995,-10.83581 -35.8704,-18.35301 -6.9656,-5.7725 -9.4646,-9.3554 -17.5791,-25.2057 -5.4667,-10.6787 -8.4528,-15.6189 -9.4404,-15.6189 -1.6031,0 2.245,12.6581 5.9937,19.7172 5.8774,11.066 11.6987,18.294 26.4947,32.8958 21.1159,20.83811 25.4452,23.93161 40.5301,28.95971 12.7214,4.2406 19.6514,5.1761 38.34771,5.1767 11.8174,0 11.8261,0 13.5266,1.4328 1.3722,1.1544 2.0741,1.3619 3.6256,1.0704 1.2448,-0.2336 1.9239,-0.1394 1.9239,0.266 0,0.3447 -1.5683,2.7334 -3.4852,5.3082 -4.8283,6.4841 -5.844,8.8847 -5.8195,13.75241 0.016,3.2528 0.4231,4.9923 2.2527,9.6389 2.2262,5.6534 2.2324,5.692 2.1737,13.3243 -0.055,7.1685 -0.2237,8.2843 -2.6529,17.5768 -3.701,14.1578 -4.1478,19.8447 -1.5591,19.8447 0.6016,0 3.212,-0.6611 5.8009,-1.469 z m -31.13601,-3.6339 c -0.067,-2.027 -1.1693,-7.8954 -2.4488,-13.0408 -3.798,-15.2726 -4.5948,-21.7437 -3.345,-27.1652 0.3171,-1.3756 1.8417,-5.2238 3.3881,-8.5514 2.5347,-5.4545 2.8092,-6.4365 2.788,-9.97291 -0.027,-4.5098 -1.1852,-8.163 -3.7177,-11.7282 -2.0924,-2.945 -3.9904,-3.9214 -11.3392,-5.8304 -3.0466,-0.7915 -8.4904,-2.6864 -12.0975,-4.2111 -3.607,-1.5241 -8.4208,-3.3532 -10.6974,-4.0648 -4.9799,-1.5552 -6.2209,-1.1566 -5.803,1.8632 0.2807,2.0293 0.2684,6.9921 -0.036,14.3789 -0.1594,3.8737 0.079,5.361 1.6354,10.1832 1.8375,5.69551 2.2082,8.45841 1.3225,9.85551 -1.3148,2.0746 -4.5735,-2.4681 -8.2736,-11.53381 -2.8008,-6.8617 -11.3982,-23.4871 -17.8909,-34.5962 -5.1322,-8.781 -14.3632,-23.49111 -26.8572,-42.79831 -7.0374,-10.875 -11.2209,-18.8032 -14.86458,-28.1711 -4.4571,-11.4589 -9.0176,-18.8894 -11.5935,-18.8894 -2.043,0 -1.8422,2.3706 0.9172,10.8285 9.2321,28.2963 23.04248,55.6328 51.24578,101.43621 11.1716,18.14321 14.8701,23.61351 19.4139,28.71311 1.906,2.1387 7.4334,9.8849 12.283,17.2133 7.2001,10.8801 9.8111,14.3234 14.2337,18.7709 2.9788,2.9954 6.6297,6.1462 8.113,7.0018 3.74,2.1568 10.0058,4.3091 12.0448,4.1379 l 1.701,-0.1434 -0.1223,-3.6855 z m 15.38451,-33.2972 c -0.05,-2.5532 -1.18801,-4.5337 -2.08771,-3.6339 -0.3083,0.3079 -0.3667,1.7838 -0.1367,3.4564 0.3153,2.2923 0.602,2.8775 1.33631,2.7284 0.698,-0.1418 0.923,-0.7876 0.8881,-2.5509 z m 13.3673,-68.33631 c 0,-0.3895 -0.5069,-1.4742 -1.1219,-2.4097 -1.5216,-2.3145 -11.7382,-13.29771 -14.13651,-15.19721 -1.8559,-1.4702 -1.9997,-1.4957 -3.402,-0.6106 -1.6959,1.0705 -1.4559,0.8023 -8.775,9.8141 -3.8345,4.72191 -5.4258,7.09191 -5.0282,7.48941 0.5805,0.5806 14.0072,1.371 26.08861,1.536 4.7731,0.065 6.3778,-0.091 6.375,-0.622 z m 32.6279,-21.65061 c 16.20864,-3.9265 24.83854,-9.2653 34.05254,-21.065 4.3151,-5.5265 8.7334,-12.5668 8.7334,-13.9168 0,-1.0665 -0.5737,-1.1697 -12.1874,-2.2028 -11.6929,-1.0404 -17.0128,-2.8157 -17.0128,-5.6784 0,-1.371 0.079,-1.396 3.969,-1.223 2.1829,0.097 7.0723,0.5437 10.8654,0.9922 9.1434,1.0818 12.6158,1.0319 22.8096,-0.3283 9.1884,-1.2258 12.7192,-2.3213 17.2944,-5.366 4.3287,-2.8809 13.9515,-11.6398 16.5958,-15.1064 2.9422,-3.8567 3.7257,-5.4403 5.2947,-10.702 1.1367,-3.8113 1.2971,-5.8485 1.5481,-19.6542 l 0.2801,-15.4019 -3.3245,-0.3691 c -1.8284,-0.2029 -6.3544,-0.8629 -10.0577,-1.4662 -8.1832,-1.333 -10.0305,-1.3534 -13.6785,-0.1486 -2.3921,0.7904 -7.0866,1.0042 -30.0506,1.3688 -14.9686,0.2375 -29.38444,0.6083 -32.03514,0.8244 -6.6872,0.5437 -8.998,-0.182 -13.1314,-4.1249 -1.8213,-1.7367 -3.3114,-3.4587 -3.3114,-3.8255 0,-1.4816 3.5145,-5.7873 6.0688,-7.4344 6.8123,-4.3942 16.67914,-10.0052 19.48364,-11.0808 7.6147,-2.92 20.9826,-3.6236 30.5799,-1.6097 9.6637,2.0276 18.6392,7.181 22.963,13.1843 2.7861,3.8681 3.2931,4.1924 8.1579,5.2158 2.14,0.4502 4.752,1.3166 5.8045,1.9261 2.2798,1.3194 9.1294,3.4734 11.0453,3.4734 1.3464,0 1.3577,-0.051 1.3577,-5.975 0,-6.7965 -0.8576,-28.9274 -1.7239,-44.48741 -1.762,-31.6479 -6.5585,-55.8817 -13.9454,-70.459105 -7.6838,-15.1631 -24.5657,-24.1443 -57.7563,-30.7259 -24.91404,-4.94031 -49.66794,-6.99621 -72.29175,-6.00341 -54.1886,2.3769 -89.3127,10.55231 -105.9454,24.65861 -8.8562,7.5115 -14.12268,18.692 -18.44318,39.154805 -5.6414,26.719 -7.6357,48.1167 -8.1118,87.03351 l -0.3294,26.9321 1.8352,5.3865 c 4.5087,13.2342 12.5032,26.8477 19.64938,33.4611 3.9362,3.6423 10.1973,7.2422 13.7783,7.9209 4.4054,0.8357 17.8108,0.6843 26.9763,-0.3039 4.3659,-0.4712 10.5532,-1.0127 13.7496,-1.2038 5.6531,-0.3379 5.8117,-0.3147 5.8117,0.8551 0,1.7361 -1.8483,2.6625 -7.9379,3.9797 -12.3628,2.6739 -15.0228,3.0345 -21.9502,2.9767 -8.3111,-0.07 -8.5105,0.099 -5.8114,4.896 4.6496,8.2645 10.6495,15.1217 17.0115,19.4422 7.2814,4.9441 24.5982,12.3423 31.8446,13.6044 4.7854,0.8335 8.6139,-0.1695 12.4613,-3.2636 3.8742,-3.1162 5.2293,-5.0763 5.1625,-7.4673 -0.047,-1.6891 -0.5476,-2.4902 -2.919,-4.672 -1.574,-1.4481 -3.0127,-3.2342 -3.1969,-3.969 -0.1843,-0.7348 0.058,-3.7597 0.5388,-6.7223 1.4906,-9.1886 0.8323,-15.5548 -1.5712,-15.1937 -0.616,0.093 -1.4013,0.6787 -1.745,1.3024 -0.3437,0.6237 -1.4454,2.3048 -2.4483,3.7354 -2.8542,4.0715 -4.13,7.5705 -4.13,11.3262 0,3.1049 -0.1028,3.3702 -1.4341,3.7042 -1.0444,0.2619 -2.05,-0.067 -3.701,-1.2111 -4.5615,-3.161 -7.3422,-8.726 -7.3356,-14.6806 0.01,-6.356 2.4354,-10.0108 9.0673,-13.6458 4.7638,-2.6116 8.0307,-6.0385 9.3549,-9.813 1.1463,-3.2676 4.0229,-19.4337 5.165,-29.0272 0.5235,-4.3965 0.8739,-12.907 0.9231,-22.4155 l 0.079,-15.3281 -4.5001,-8.7045 c -4.0291,-7.7933 -4.8803,-9.0378 -8.1304,-11.8875 -1.9965,-1.7509 -6.5892,-5.8197 -10.2058,-9.04191 -11.2656,-10.038 -16.359,-13.1162 -24.6319,-14.8875 -8.0067,-1.714 -11.711,-3.5125 -11.711,-5.6864 0,-2.0905 3.4449,-2.9586 10.2058,-2.5724 13.4752,0.7694 21.526,5.0604 40.397,21.5315 13.5794,11.85241 16.6998,15.67621 20.6734,25.33381 0.9623,2.3389 2.2736,6.4212 2.9142,9.0719 2.2774,9.4252 2.4571,13.9373 1.815,45.5659 -0.3325,16.3764 -0.7198,30.1101 -0.8607,30.5184 -1.0305,2.9903 -4.2904,27.2922 -4.3191,32.1995 -0.032,5.5543 0.035,5.8888 1.4807,7.3981 3.7309,3.8947 12.9817,6.233 20.21631,5.1103 4.4708,-0.6934 6.5023,-1.5819 9.8904,-4.3255 1.2864,-1.0416 3.0372,-2.2119 3.8908,-2.6008 1.7331,-0.7899 0.7745,-1.6035 8.8946,7.554 6.0556,6.83 10.4572,7.9396 21.1855,5.34 z m -6.4878,-33.6312 c -0.8519,-4.0087 -3.5052,-9.6627 -5.3464,-11.3926 -0.7543,-0.7088 -2.6933,-1.6369 -4.3088,-2.0633 -1.6156,-0.4264 -3.3056,-1.0807 -3.7558,-1.4544 -2.0437,-1.6958 0.099,-6.1048 2.6549,-5.4635 2.3363,0.5863 8.0916,4.6119 9.952,6.961 4.467,5.6404 5.9985,12.0729 3.5986,15.1137 -0.6768,0.8579 -1.4266,1.5593 -1.6661,1.5593 -0.2396,0 -0.7474,-1.4668 -1.1284,-3.2602 z M 130.9905,226.6065 c 0,-0.8045 0.6749,-3.1496 1.4997,-5.2112 1.49388,-3.7342 1.49578,-3.7586 0.4922,-6.3339 -0.554,-1.4214 -1.1278,-3.2693 -1.275,-4.1062 -0.2887,-1.642 -0.7913,-1.3931 6.78718,-3.356 1.4137,-0.3657 2.6388,-1.2479 3.6854,-2.6541 2.74,-3.6798 7.1511,-7.7655 10.3754,-9.6105 8.0525,-4.6074 19.5674,-6.707 31.7324,-5.7867 7.1863,0.5431 11.5056,1.8325 18.9943,5.6688 12.7432,6.5277 18,10.2988 18.809,13.4927 0.7843,3.0963 -3.0816,7.4072 -7.9587,8.8751 -3.7949,1.142 -13.1476,1.8745 -36.5397,2.8616 -11.6343,0.4911 -23.1159,1.2282 -25.5147,1.6381 -8.6238,1.4747 -17.3919,3.7824 -18.57258,4.8886 -1.6075,1.5054 -2.5149,1.3733 -2.5149,-0.3663 z m 146.09519,-31.2339 c -0.7499,-0.7502 -0.3639,-6.5097 0.556,-8.2968 3.9369,-7.6493 11.4436,-15.89 23.7302,-26.05001 14.20374,-11.7452 24.42084,-16.305 36.53644,-16.305 5.0383,0 7.4056,0.821 7.4056,2.5685 0,2.3343 -3.5464,4.1413 -13.363,6.8073 -6.9781,1.8955 -8.621,2.7227 -14.2147,7.1583 -12.02464,9.53461 -30.97174,27.01611 -36.06734,33.27631 -0.9527,1.1702 -3.7419,1.6822 -4.5832,0.8414 z m -50.76601,-24.71981 c -1.3625,-0.6974 -5.5682,-4.1691 -9.3462,-7.7151 -8.181,-7.6793 -11.5301,-10.0357 -19.8763,-13.9877 -11.9175,-5.6421 -19.43,-7.3579 -30.3255,-6.9247 -11.3392,0.4514 -16.7431,2.8991 -25.564,11.5803 -2.9562,2.9098 -5.5715,5.29 -5.8116,5.29 -1.5777,0 1.5855,-6.2528 5.8856,-11.6347 5.833,-7.3 15.4111,-13.6305 24.0119,-15.8707 6.3672,-1.6579 14.9631,-2.2526 21.9839,-1.5206 16.6065,1.731 30.5137,7.9634 41.9716,18.8094 7.0189,6.6434 9.3195,11.8297 7.7816,17.5416 -1.4475,5.37511 -5.551,7.07331 -10.711,4.4322 z m 52.15381,0.35831 c -3.3083,-2.31731 -4.467,-9.43301 -2.2901,-14.06421 1.4769,-3.1417 10.1579,-11.5967 15.6199,-15.2136 18.24964,-12.0832 37.40434,-16.0362 54.29764,-11.2055 9.5659,2.7358 19.9005,9.9752 26.1961,18.3502 2.8564,3.7994 5.5085,8.6484 5.214,9.5317 -0.1023,0.3068 -2.8416,-1.8745 -6.0872,-4.8472 -10.2001,-9.3435 -17.3001,-12.0095 -30.6459,-11.506 -15.8899,0.5988 -26.8765,5.7125 -46.49344,21.6387 -10.5251,8.54581 -12.651,9.52891 -15.811,7.31591 z" id="path8-6" style="fill:#ffffff"/></svg>