<svg viewBox="0 0 430 252" xmlns:xlink="http://www.w3.org/1999/xlink" xmlns="http://www.w3.org/2000/svg" width="430" height="252" fill="none"><mask id="a" width="430" height="252" x="0" y="0" maskUnits="userSpaceOnUse" style="mask-type:alpha"><path fill="#34A853" d="M425.097 223.146a215 215 0 0 0-8.475-26.84 215 215 0 0 0-9.733-21.445 218 218 0 0 0-15.693-25.584 216 216 0 0 0-23.698-27.898 213 213 0 0 0-11.283-10.445 216.6 216.6 0 0 0-26.871-19.78c.083-.135.157-.282.241-.418 4.337-7.49 8.684-14.97 13.022-22.461l12.728-21.938c3.049-5.248 6.098-10.508 9.136-15.756a20 20 0 0 0 1.718-3.855 19.78 19.78 0 0 0-.608-13.745 20 20 0 0 0-1.246-2.473 19.6 19.6 0 0 0-6.852-6.82 19.9 19.9 0 0 0-8.412-2.703 20 20 0 0 0-3.72.032 19.735 19.735 0 0 0-15.065 9.733c-3.048 5.248-6.097 10.507-9.135 15.756l-12.729 21.937c-4.337 7.49-8.684 14.97-13.022 22.461-.471.817-.953 1.634-1.424 2.462-.66-.262-1.31-.524-1.97-.775-23.917-9.115-49.867-14.101-76.99-14.101-.744 0-1.477 0-2.221.01-24.117.241-47.29 4.432-68.903 11.954a197 197 0 0 0-7.428 2.755c-.44-.765-.89-1.53-1.33-2.294-4.337-7.491-8.685-14.971-13.022-22.462l-12.729-21.937c-3.048-5.249-6.097-10.508-9.135-15.756a20 20 0 0 0-2.494-3.405 19.74 19.74 0 0 0-12.571-6.328 20 20 0 0 0-3.72-.031 19.64 19.64 0 0 0-8.412 2.703 19.7 19.7 0 0 0-6.851 6.82 20 20 0 0 0-1.247 2.472 19 19 0 0 0-.89 2.609 19.8 19.8 0 0 0 .282 11.136c.43 1.32.996 2.609 1.719 3.855 3.048 5.249 6.097 10.508 9.135 15.757l12.729 21.937c4.337 7.49 8.685 14.97 13.022 22.461.031.063.073.126.104.189a217 217 0 0 0-24.933 18.05A218 218 0 0 0 62.533 121.4a217.7 217.7 0 0 0-23.697 27.898 214.5 214.5 0 0 0-15.694 25.583 215.2 215.2 0 0 0-18.208 48.286A216 216 0 0 0 0 251.233h430c-1.027-9.434-2.639-18.845-4.903-28.087"/></mask><g mask="url(#a)"><path fill="#34A853" d="M-26.639-7.017h459.003v258.249H-26.639z"/><g filter="url(#b)" opacity=".8"><path fill="url(#c)" fill-opacity=".3" d="M230.742 75.863c45.493 32.087-82.55 35.609-132.013 105.737s-9.814 191.928-55.307 159.84c-28.087-38.521-32.364-116.661 17.1-186.789s131.632-93.17 170.22-78.788"/></g><g filter="url(#d)" opacity=".7"><path fill="url(#e)" fill-opacity=".4" d="M199.521 75.863c-45.492 32.087 82.55 35.609 132.013 105.737s9.814 191.928 55.307 159.84c28.088-38.521 32.364-116.661-17.099-186.789s-131.633-93.17-170.221-78.788"/></g><g filter="url(#f)" opacity=".6"><path fill="#8BD8A0" d="M-5.786 190.612C-23.26 245.585-32.259 291.793-25.884 293.82c6.375 2.026 25.71-40.896 43.185-95.869s89.556-114.914 83.181-116.94C94.107 78.983 11.69 135.638-5.786 190.611"/></g><g filter="url(#g)" opacity=".5"><path fill="#8BD8A0" d="M433.278 190.612c17.475 54.973 26.473 101.181 20.098 103.208-6.375 2.026-25.709-40.896-43.185-95.869-17.475-54.974-89.557-114.914-83.181-116.94 6.375-2.027 88.792 54.628 106.268 109.601"/></g><g filter="url(#h)" opacity=".7"><path fill="#0D652D" d="M81.776 44.001c17.305 28.423 24.881 41.97 22.368 43.5-2.512 1.53-14.163-9.536-31.469-37.96-26.144-22.975 1.51-54.093 4.023-55.623s-20.64 12.426 5.078 50.083"/></g><g filter="url(#i)" opacity=".1"><ellipse cx="72.609" cy="47.48" fill="#000" rx="4.474" ry="51.454" transform="rotate(-33.176 72.609 47.48)"/></g><g filter="url(#j)" opacity=".3"><path fill="#fff" d="M103.357 29.537c18.103 29.735 26.934 43.357 28.944 42.133 2.011-1.224-3.56-16.83-21.664-46.565-17.452-39.713-48.934-16.03-45.826-11.688 6.05 11.644 15.4-25.564 38.546 16.12"/></g><ellipse cx="67.934" cy="12.295" fill="url(#k)" fill-opacity=".9" opacity=".15" rx="21.27" ry="25.028" transform="rotate(73.858 67.934 12.295)"/><ellipse cx="342.484" cy="9.027" fill="url(#l)" fill-opacity=".9" opacity=".15" rx="21.27" ry="25.028" transform="rotate(73.858 342.484 9.027)"/><g filter="url(#m)" opacity=".1"><ellipse cx="4.474" cy="51.454" fill="#000" rx="4.474" ry="51.454" transform="scale(-1 1)rotate(-32.249 -180.551 672.538)"/></g><mask id="n" width="75" height="48" x="287" y="46" maskUnits="userSpaceOnUse" style="mask-type:alpha"><path fill="#000" d="M331.337 92.435c-10.185-6.351-33.443-17.256-43.799-21.915l6.843-24.216 66.871 26.904c-5.728 9.055-19.73 25.578-29.915 19.227"/></mask><g mask="url(#n)"><g filter="url(#o)" opacity=".3" style="mix-blend-mode:multiply"><path fill="#0D652D" d="M338.105 88.773c-18.217-7.702-33.765-12.1-34.727-9.825s12.855 8.675 31.072 16.377 33.935 13.79 34.897 11.514-13.025-10.364-31.242-18.066"/></g><g filter="url(#p)" opacity=".3" style="mix-blend-mode:screen"><path fill="#81C995" d="M300.827 74.241c-5.075-2.493-9.584-3.711-10.071-2.72s3.317 3.116 8.392 5.61c5.075 2.493 9.5 4.411 9.987 3.42s-3.233-3.816-8.308-6.31"/></g></g><mask id="q" width="74" height="49" x="66" y="47" maskUnits="userSpaceOnUse" style="mask-type:alpha"><path fill="#000" d="M96.319 94.426c10.052-6.56 33.08-17.942 43.337-22.813l-7.34-24.07L66.014 75.82c5.913 8.935 20.253 25.165 30.305 18.606"/></mask><g mask="url(#q)"><g filter="url(#r)" opacity=".3" style="mix-blend-mode:multiply"><path fill="#0D652D" d="M89.476 90.904c18.055-8.075 33.508-12.794 34.517-10.539S111.32 89.304 93.266 97.38c-18.055 8.075-33.644 14.486-34.653 12.231s12.81-10.63 30.863-18.707"/></g><g filter="url(#s)" opacity=".3" style="mix-blend-mode:screen"><path fill="#81C995" d="M126.447 75.606c5.022-2.598 9.505-3.908 10.013-2.927s-3.252 3.183-8.275 5.781-9.407 4.607-9.914 3.626 3.153-3.882 8.176-6.48"/></g></g><g filter="url(#t)" opacity=".7"><path fill="#0D652D" d="M349.247 45.205c-16.638 28.818-23.897 42.538-21.349 44.01 2.548 1.47 13.938-9.864 30.576-38.683 25.602-23.578-2.769-54.043-5.317-55.514s20.924 11.94-3.91 50.187"/></g><g filter="url(#u)" opacity=".3"><path fill="#fff" d="M326.419 31.137c-16.932 29.328-25.242 42.757-27.382 41.522-2.139-1.235 2.701-16.668 19.634-45.996 19.299-50.953 57.553-44.219 51.279-16.37-4.947 11.448-22.093-20.292-43.531 20.844"/></g></g><ellipse cx="123.076" cy="158.849" fill="url(#v)" fill-opacity=".7" rx="13.023" ry="7.151" transform="rotate(41.704 123.076 158.849)"/><ellipse cx="13.017" cy="7.148" fill="url(#w)" fill-opacity=".7" rx="13.017" ry="7.148" transform="scale(-1 1)rotate(41.704 -346.193 -336.242)"/><g filter="url(#x)" opacity=".09" style="mix-blend-mode:multiply"><path fill="#011B04" d="M130.688 187.2c6.473-16.047-.337-26.015-4.551-28.993-12.137-15.002-28.487-3.371-33.376 3.034s-11.968 17.699-5.057 33.207 34.893 12.811 42.984-7.248"/></g><g filter="url(#y)" opacity=".09" style="mix-blend-mode:multiply"><path fill="#011B04" d="M298.874 187.43c-6.475-15.963.337-25.878 4.552-28.84 12.141-14.923 28.496-3.354 33.386 3.018s11.972 17.606 5.059 33.032c-6.914 15.426-34.904 12.743-42.997-7.21"/></g><path fill="#000" d="M335.598 198.461c10.088-6.713 11.708-22.009 3.619-34.165s-22.824-16.57-32.911-9.858-11.708 22.008-3.619 34.165 22.824 16.57 32.911 9.858"/><g filter="url(#z)"><path fill="#000" d="M126.868 188.04c8.089-12.157 6.657-27.328-3.199-33.886s-24.402-2.019-32.491 10.137c-8.09 12.157-6.657 27.328 3.198 33.886s24.403 2.02 32.492-10.137"/></g><g filter="url(#A)"><path fill="#000" d="M302.673 188.292c-8.086-12.152-6.654-27.317 3.197-33.872 9.852-6.555 24.393-2.018 32.479 10.133s6.654 27.317-3.197 33.872c-9.852 6.556-24.393 2.019-32.479-10.133"/></g><mask id="B" width="48" height="51" x="85" y="151" maskUnits="userSpaceOnUse" style="mask-type:alpha"><path fill="#202124" d="M126.868 188.042c8.089-12.157 6.657-27.328-3.199-33.886s-24.402-2.02-32.491 10.137c-8.09 12.157-6.657 27.328 3.198 33.886s24.403 2.019 32.492-10.137"/></mask><g mask="url(#B)"><g filter="url(#C)"><path fill="#D8D8D8" fill-opacity=".29" d="M94.086 162.788c-7.736 9.486-8.606 20.543-7.656 25.252-1.958-9.182-1.247-18.188 6.23-27.195 4.128-4.97 10.406-7.729 14.994-9.059.729-.24 1.398-.401 2.015-.522 1.162-.265 2.128-.417 2.8-.476-.789.174-1.712.262-2.8.476-.621.141-1.297.314-2.015.522-3.206 1.056-7.559 3.633-13.568 11.002"/></g><g filter="url(#D)" opacity=".8"><path fill="url(#E)" d="M128.989 165.116c-3.215-13.419-14.151-14.814-19.217-13.834 4.368-1.902 12.229.519 15.548 4.323 2.655 3.043 3.552 7.608 3.669 9.511"/></g></g><mask id="F" width="47" height="51" x="297" y="151" maskUnits="userSpaceOnUse" style="mask-type:alpha"><path fill="#202124" d="M302.673 188.291c-8.086-12.151-6.654-27.316 3.197-33.872 9.852-6.555 24.393-2.018 32.479 10.134 8.086 12.151 6.654 27.316-3.197 33.872-9.852 6.555-24.393 2.018-32.479-10.134"/></mask><g mask="url(#F)"><path fill="url(#G)" d="M315.37 153.712c-11.517.72-15.283 9.701-15.727 14.102 1.165-2.723 5.312-8.502 12.582-9.831 7.27-1.33 16.901 7.013 20.809 11.35l3.629-4.046c-2.299-4.158-9.775-12.295-21.293-11.575"/><g filter="url(#H)"><path fill="#D8D8D8" fill-opacity=".29" d="M335.442 163.049c7.733 9.482 8.602 20.535 7.653 25.242 1.957-9.179 1.246-18.181-6.229-27.184-4.125-4.968-10.4-7.726-14.987-9.055a17 17 0 0 0-2.014-.522c-1.162-.264-2.127-.417-2.799-.476.79.174 1.712.262 2.799.476.621.141 1.297.314 2.014.522 3.206 1.055 7.556 3.632 13.563 10.997"/></g></g><g filter="url(#I)" opacity=".8"><path fill="#E2DCE1" d="M104.326 159.159c-4.5.9-7.875 5.625-9 7.875l2.25 3.375c.375-.75 1.575-2.7 3.375-4.5s4.5-3.75 5.625-4.5z"/></g><g filter="url(#J)" opacity=".8"><path fill="#E2DCE1" d="M325.4 159.385c4.45.864 7.788 5.395 8.9 7.552l-2.225 3.237c-.371-.72-1.558-2.59-3.338-4.316s-4.45-3.596-5.562-4.315z"/></g><g fill="#E2DCE1" filter="url(#K)" opacity=".8"><path d="M122.79 183.49c-2.158 1.214-5.507 2.753-6.911 3.371l-1.349 3.877c3.372-1.078 5.9-3.034 6.743-3.877zM129.533 166.465c-.27-1.079-1.012-2.697-1.349-3.371v1.517c.674 1.214 1.18 3.315 1.349 4.214.112-.337.269-1.281 0-2.36"/></g><g fill="#E2DCE1" filter="url(#L)" opacity=".8"><path d="M306.476 183.827c2.16 1.214 5.514 2.753 6.92 3.371l1.35 3.877c-3.375-1.078-5.907-3.034-6.751-3.877zM299.725 166.802c.27-1.079 1.012-2.697 1.35-3.371v1.517c-.675 1.214-1.182 3.315-1.35 4.214-.113-.337-.27-1.281 0-2.36"/></g><g filter="url(#M)" opacity=".3"><path fill="url(#N)" fill-opacity=".4" d="M377.453 167.107c0 55.67-76.68-46.934-162.496-46.934S52.46 222.777 52.46 167.107c15.29-45.156 76.68-93.69 162.497-93.69 85.816 0 152.006 53.867 162.496 93.69"/></g><g filter="url(#O)" opacity=".2"><path fill="url(#P)" fill-opacity=".4" d="M377.453 167.107c0 55.67-76.68-46.934-162.496-46.934S52.46 222.777 52.46 167.107c15.29-45.156 76.68-93.69 162.497-93.69 85.816 0 152.006 53.867 162.496 93.69"/></g><defs><filter id="b" width="244.636" height="301.905" x="9.204" y="58.299" color-interpolation-filters="sRGB" filterUnits="userSpaceOnUse"><feFlood flood-opacity="0" result="BackgroundImageFix"/><feBlend in="SourceGraphic" in2="BackgroundImageFix" result="shape"/><feGaussianBlur result="effect1_foregroundBlur_203_5914" stdDeviation="6.743"/></filter><filter id="d" width="258.121" height="315.391" x="169.68" y="51.557" color-interpolation-filters="sRGB" filterUnits="userSpaceOnUse"><feFlood flood-opacity="0" result="BackgroundImageFix"/><feBlend in="SourceGraphic" in2="BackgroundImageFix" result="shape"/><feGaussianBlur result="effect1_foregroundBlur_203_5914" stdDeviation="10.114"/></filter><filter id="f" width="149.041" height="233.159" x="-38.047" y="70.844" color-interpolation-filters="sRGB" filterUnits="userSpaceOnUse"><feFlood flood-opacity="0" result="BackgroundImageFix"/><feBlend in="SourceGraphic" in2="BackgroundImageFix" result="shape"/><feGaussianBlur result="effect1_foregroundBlur_203_5914" stdDeviation="5.057"/></filter><filter id="g" width="149.041" height="233.159" x="316.498" y="70.844" color-interpolation-filters="sRGB" filterUnits="userSpaceOnUse"><feFlood flood-opacity="0" result="BackgroundImageFix"/><feBlend in="SourceGraphic" in2="BackgroundImageFix" result="shape"/><feGaussianBlur result="effect1_foregroundBlur_203_5914" stdDeviation="5.057"/></filter><filter id="h" width="70.069" height="120.804" x="48.031" y="-19.679" color-interpolation-filters="sRGB" filterUnits="userSpaceOnUse"><feFlood flood-opacity="0" result="BackgroundImageFix"/><feBlend in="SourceGraphic" in2="BackgroundImageFix" result="shape"/><feGaussianBlur result="effect1_foregroundBlur_203_5914" stdDeviation="6.743"/></filter><filter id="i" width="63.557" height="93.018" x="40.83" y=".971" color-interpolation-filters="sRGB" filterUnits="userSpaceOnUse"><feFlood flood-opacity="0" result="BackgroundImageFix"/><feBlend in="SourceGraphic" in2="BackgroundImageFix" result="shape"/><feGaussianBlur result="effect1_foregroundBlur_203_5914" stdDeviation="1.686"/></filter><filter id="j" width="88.321" height="89.517" x="54.483" y="-7.657" color-interpolation-filters="sRGB" filterUnits="userSpaceOnUse"><feFlood flood-opacity="0" result="BackgroundImageFix"/><feBlend in="SourceGraphic" in2="BackgroundImageFix" result="shape"/><feGaussianBlur result="effect1_foregroundBlur_203_5914" stdDeviation="5.057"/></filter><filter id="m" width="62.181" height="93.909" x="324.39" y="1.581" color-interpolation-filters="sRGB" filterUnits="userSpaceOnUse"><feFlood flood-opacity="0" result="BackgroundImageFix"/><feBlend in="SourceGraphic" in2="BackgroundImageFix" result="shape"/><feGaussianBlur result="effect1_foregroundBlur_203_5914" stdDeviation="1.686"/></filter><filter id="o" width="79.549" height="42.459" x="296.588" y="71.605" color-interpolation-filters="sRGB" filterUnits="userSpaceOnUse"><feFlood flood-opacity="0" result="BackgroundImageFix"/><feBlend in="SourceGraphic" in2="BackgroundImageFix" result="shape"/><feGaussianBlur result="effect1_foregroundBlur_203_5914" stdDeviation="3.371"/></filter><filter id="p" width="26.555" height="17.732" x="286.668" y="67.13" color-interpolation-filters="sRGB" filterUnits="userSpaceOnUse"><feFlood flood-opacity="0" result="BackgroundImageFix"/><feBlend in="SourceGraphic" in2="BackgroundImageFix" result="shape"/><feGaussianBlur result="effect1_foregroundBlur_203_5914" stdDeviation="2.023"/></filter><filter id="r" width="78.97" height="43.751" x="51.819" y="73.059" color-interpolation-filters="sRGB" filterUnits="userSpaceOnUse"><feFlood flood-opacity="0" result="BackgroundImageFix"/><feBlend in="SourceGraphic" in2="BackgroundImageFix" result="shape"/><feGaussianBlur result="effect1_foregroundBlur_203_5914" stdDeviation="3.371"/></filter><filter id="s" width="26.373" height="18.077" x="114.178" y="68.308" color-interpolation-filters="sRGB" filterUnits="userSpaceOnUse"><feFlood flood-opacity="0" result="BackgroundImageFix"/><feBlend in="SourceGraphic" in2="BackgroundImageFix" result="shape"/><feGaussianBlur result="effect1_foregroundBlur_203_5914" stdDeviation="2.023"/></filter><filter id="t" width="68.672" height="121.401" x="313.915" y="-18.576" color-interpolation-filters="sRGB" filterUnits="userSpaceOnUse"><feFlood flood-opacity="0" result="BackgroundImageFix"/><feBlend in="SourceGraphic" in2="BackgroundImageFix" result="shape"/><feGaussianBlur result="effect1_foregroundBlur_203_5914" stdDeviation="6.743"/></filter><filter id="u" width="92.302" height="104.149" x="288.448" y="-21.298" color-interpolation-filters="sRGB" filterUnits="userSpaceOnUse"><feFlood flood-opacity="0" result="BackgroundImageFix"/><feBlend in="SourceGraphic" in2="BackgroundImageFix" result="shape"/><feGaussianBlur result="effect1_foregroundBlur_203_5914" stdDeviation="5.057"/></filter><filter id="x" width="52.577" height="57.595" x="82.802" y="148.85" color-interpolation-filters="sRGB" filterUnits="userSpaceOnUse"><feFlood flood-opacity="0" result="BackgroundImageFix"/><feBlend in="SourceGraphic" in2="BackgroundImageFix" result="shape"/><feGaussianBlur result="effect1_foregroundBlur_203_5914" stdDeviation="1.011"/></filter><filter id="y" width="52.592" height="57.312" x="294.182" y="149.272" color-interpolation-filters="sRGB" filterUnits="userSpaceOnUse"><feFlood flood-opacity="0" result="BackgroundImageFix"/><feBlend in="SourceGraphic" in2="BackgroundImageFix" result="shape"/><feGaussianBlur result="effect1_foregroundBlur_203_5914" stdDeviation="1.011"/></filter><filter id="z" width="47.522" height="51.379" x="84.924" y="151.151" color-interpolation-filters="sRGB" filterUnits="userSpaceOnUse"><feFlood flood-opacity="0" result="BackgroundImageFix"/><feColorMatrix in="SourceAlpha" result="hardAlpha" values="0 0 0 0 0 0 0 0 0 0 0 0 0 0 0 0 0 0 127 0"/><feOffset dx="-.337" dy=".674"/><feGaussianBlur stdDeviation=".337"/><feComposite in2="hardAlpha" operator="out"/><feColorMatrix values="0 0 0 0 0.0156863 0 0 0 0 0.231373 0 0 0 0 0.0666667 0 0 0 0.7 0"/><feBlend in2="BackgroundImageFix" result="effect1_dropShadow_203_5914"/><feBlend in="SourceGraphic" in2="effect1_dropShadow_203_5914" result="shape"/></filter><filter id="A" width="47.503" height="51.358" x="296.422" y="151.418" color-interpolation-filters="sRGB" filterUnits="userSpaceOnUse"><feFlood flood-opacity="0" result="BackgroundImageFix"/><feColorMatrix in="SourceAlpha" result="hardAlpha" values="0 0 0 0 0 0 0 0 0 0 0 0 0 0 0 0 0 0 127 0"/><feOffset dx="-.337" dy=".674"/><feGaussianBlur stdDeviation=".337"/><feComposite in2="hardAlpha" operator="out"/><feColorMatrix values="0 0 0 0 0.0156863 0 0 0 0 0.231373 0 0 0 0 0.0666667 0 0 0 0.7 0"/><feBlend in2="BackgroundImageFix" result="effect1_dropShadow_203_5914"/><feBlend in="SourceGraphic" in2="effect1_dropShadow_203_5914" result="shape"/></filter><filter id="C" width="28.319" height="38.601" x="84.825" y="150.113" color-interpolation-filters="sRGB" filterUnits="userSpaceOnUse"><feFlood flood-opacity="0" result="BackgroundImageFix"/><feBlend in="SourceGraphic" in2="BackgroundImageFix" result="shape"/><feGaussianBlur result="effect1_foregroundBlur_203_5914" stdDeviation=".337"/></filter><filter id="D" width="19.553" height="14.834" x="109.604" y="150.45" color-interpolation-filters="sRGB" filterUnits="userSpaceOnUse"><feFlood flood-opacity="0" result="BackgroundImageFix"/><feBlend in="SourceGraphic" in2="BackgroundImageFix" result="shape"/><feGaussianBlur result="effect1_foregroundBlur_203_5914" stdDeviation=".084"/></filter><filter id="H" width="28.308" height="38.586" x="316.392" y="150.38" color-interpolation-filters="sRGB" filterUnits="userSpaceOnUse"><feFlood flood-opacity="0" result="BackgroundImageFix"/><feBlend in="SourceGraphic" in2="BackgroundImageFix" result="shape"/><feGaussianBlur result="effect1_foregroundBlur_203_5914" stdDeviation=".337"/></filter><filter id="I" width="12.599" height="12.599" x="94.651" y="158.485" color-interpolation-filters="sRGB" filterUnits="userSpaceOnUse"><feFlood flood-opacity="0" result="BackgroundImageFix"/><feBlend in="SourceGraphic" in2="BackgroundImageFix" result="shape"/><feGaussianBlur result="effect1_foregroundBlur_203_5914" stdDeviation=".337"/></filter><filter id="J" width="12.474" height="12.137" x="322.501" y="158.711" color-interpolation-filters="sRGB" filterUnits="userSpaceOnUse"><feFlood flood-opacity="0" result="BackgroundImageFix"/><feBlend in="SourceGraphic" in2="BackgroundImageFix" result="shape"/><feGaussianBlur result="effect1_foregroundBlur_203_5914" stdDeviation=".337"/></filter><filter id="K" width="15.825" height="28.319" x="114.193" y="162.757" color-interpolation-filters="sRGB" filterUnits="userSpaceOnUse"><feFlood flood-opacity="0" result="BackgroundImageFix"/><feBlend in="SourceGraphic" in2="BackgroundImageFix" result="shape"/><feGaussianBlur result="effect1_foregroundBlur_203_5914" stdDeviation=".169"/></filter><filter id="L" width="15.845" height="28.319" x="299.238" y="163.094" color-interpolation-filters="sRGB" filterUnits="userSpaceOnUse"><feFlood flood-opacity="0" result="BackgroundImageFix"/><feBlend in="SourceGraphic" in2="BackgroundImageFix" result="shape"/><feGaussianBlur result="effect1_foregroundBlur_203_5914" stdDeviation=".169"/></filter><filter id="M" width="351.962" height="137.211" x="38.975" y="59.932" color-interpolation-filters="sRGB" filterUnits="userSpaceOnUse"><feFlood flood-opacity="0" result="BackgroundImageFix"/><feBlend in="SourceGraphic" in2="BackgroundImageFix" result="shape"/><feGaussianBlur result="effect1_foregroundBlur_203_5914" stdDeviation="6.743"/></filter><filter id="O" width="351.962" height="137.211" x="38.975" y="59.932" color-interpolation-filters="sRGB" filterUnits="userSpaceOnUse"><feFlood flood-opacity="0" result="BackgroundImageFix"/><feBlend in="SourceGraphic" in2="BackgroundImageFix" result="shape"/><feGaussianBlur result="effect1_foregroundBlur_203_5914" stdDeviation="6.743"/></filter><linearGradient id="c" x1="58.083" x2="121.636" y1="152.931" y2="197.757" gradientUnits="userSpaceOnUse"><stop stop-color="#A8F0B9"/><stop offset="1" stop-color="#ADEEBC" stop-opacity="0"/></linearGradient><linearGradient id="e" x1="372.181" x2="308.627" y1="152.931" y2="197.757" gradientUnits="userSpaceOnUse"><stop stop-color="#A8F0B9"/><stop offset="1" stop-color="#ADEEBC" stop-opacity="0"/></linearGradient><linearGradient id="E" x1="111.13" x2="111.986" y1="145.922" y2="164.944" gradientUnits="userSpaceOnUse"><stop stop-color="#E2DDE2"/><stop offset="1" stop-color="#E2DDE2" stop-opacity="0"/></linearGradient><linearGradient id="G" x1="318.153" x2="318.153" y1="153.667" y2="169.333" gradientUnits="userSpaceOnUse"><stop stop-color="#373637"/><stop offset="1" stop-color="#373637" stop-opacity="0"/></linearGradient><linearGradient id="N" x1="214.957" x2="214.957" y1="70.433" y2="148.205" gradientUnits="userSpaceOnUse"><stop stop-color="#A8F0B9"/><stop offset="1" stop-color="#ADEEBC" stop-opacity="0"/></linearGradient><linearGradient id="P" x1="214.957" x2="214.957" y1="70.433" y2="148.205" gradientUnits="userSpaceOnUse"><stop stop-color="#A8F0B9"/><stop offset="1" stop-color="#ADEEBC" stop-opacity="0"/></linearGradient><radialGradient id="k" cx="0" cy="0" r="1" gradientTransform="rotate(89.482 27.764 40.423)scale(15.7328 11.4009)" gradientUnits="userSpaceOnUse"><stop stop-color="#fff"/><stop offset=".948" stop-color="#fff" stop-opacity="0"/></radialGradient><radialGradient id="l" cx="0" cy="0" r="1" gradientTransform="rotate(89.482 166.688 177.31)scale(15.7328 11.4009)" gradientUnits="userSpaceOnUse"><stop stop-color="#fff"/><stop offset=".948" stop-color="#fff" stop-opacity="0"/></radialGradient><radialGradient id="v" cx="0" cy="0" r="1" gradientTransform="rotate(91.532 -15.791 139.339)scale(6.13802 11.1793)" gradientUnits="userSpaceOnUse"><stop stop-color="#93E19F"/><stop offset="1" stop-color="#93E19F" stop-opacity="0"/></radialGradient><radialGradient id="w" cx="0" cy="0" r="1" gradientTransform="matrix(-.16401 6.1333 -11.1707 -.29872 13.017 7.148)" gradientUnits="userSpaceOnUse"><stop stop-color="#93E19F"/><stop offset="1" stop-color="#93E19F" stop-opacity="0"/></radialGradient></defs></svg>