<svg width="128" height="128" version="1.1" viewBox="0 0 33.867 33.867" xmlns="http://www.w3.org/2000/svg"><defs><linearGradient id="_Linear1" x2="1" gradientTransform="matrix(96.087 110.77 -110.77 96.087 217.55 321.52)" gradientUnits="userSpaceOnUse"><stop stop-color="#9b58dc" offset="0"/><stop stop-color="#321c92" offset="1"/></linearGradient></defs><g transform="matrix(.20642 0 0 .20642 -41.161 -57.382)" clip-rule="evenodd" fill-rule="evenodd"><path d="m311.47 434.34c-2.073-1.099-14.192-7.814-70.958-39.32-15.797-8.768-31.006-17.199-33.798-18.736-6.342-3.491-7.317-4.35-7.317-6.45 0-1.099 2.531-8.142 8.464-23.547 4.654-12.088 8.771-22.681 9.147-23.54 0.857-1.956 2.239-3.617 3.588-4.315 1.263-0.653 32.827-12.18 34.436-12.576 1.739-0.428 3.239 0.396 4.124 2.265 0.424 0.897 2.188 5.526 3.92 10.286 1.732 4.761 4.31 11.8 5.729 15.643 3.252 8.805 3.373 10.052 1.109 11.389-0.6 0.354-4.504 1.886-8.674 3.404-4.171 1.517-8.151 3.089-8.844 3.492-1.6 0.931-1.84 2.368-0.59 3.523 0.496 0.459 8.516 5.034 17.821 10.166 26.008 14.344 24.564 13.695 26.299 11.823 0.85-0.917 16.388-40.439 17.28-43.952 0.381-1.501 0.339-1.71-0.474-2.367-1.11-0.899-0.949-0.938-11.162 2.673-10.118 3.577-11.082 3.653-12.437 0.978-0.712-1.405-11.61-31.337-12.287-33.745-0.438-1.558 0.098-3.038 1.409-3.897 0.545-0.357 8.476-3.4 17.624-6.762 13.576-4.988 17.031-6.118 18.797-6.146 2.278-0.036 2.577 0.12 44.348 23.233 2.895 1.601 4.439 3.287 4.439 4.845 0 0.618-10.357 28.091-23.016 61.052-17.853 46.484-23.242 60.126-24.022 60.812-1.326 1.168-2.413 1.117-4.955-0.231z" fill="url(#_Linear1)" fill-rule="nonzero" stroke="url(#_Linear1)" stroke-width=".39px"/></g></svg>
