<svg xmlns="http://www.w3.org/2000/svg" viewBox="0 0 91 62"><g fill="none" fill-rule="nonzero"><path fill="#3AE7E1" d="M11.36 28.163a2.704 2.704 0 0 1-2.085-4.799l7.492-5.85a2.704 2.704 0 0 1 3.786.465 2.704 2.704 0 0 1-.466 3.786l-7.491 5.852c-.365.304-.79.486-1.235.546Z"/><path fill="#7B8794" d="M4.092 33.873a2.736 2.736 0 0 1-2.551-.992 2.704 2.704 0 0 1 .466-3.786l.708-.547a2.704 2.704 0 0 1 3.787.466 2.704 2.704 0 0 1-.466 3.786l-.709.547c-.364.283-.79.465-1.235.526Z"/><path fill="#3AE7E1" d="M3.12 49.24a2.704 2.704 0 0 1-2.085-4.799l16.44-12.836c1.175-.91 2.875-.708 3.787.466a2.704 2.704 0 0 1-.466 3.786L4.356 48.714c-.385.284-.81.466-1.236.527Z"/><path fill="#7B8794" d="M26.546 31.018a2.704 2.704 0 0 1-2.085-4.799l2.611-2.044a2.704 2.704 0 0 1 3.787.466 2.704 2.704 0 0 1-.466 3.786l-2.612 2.045c-.385.283-.81.465-1.235.546Z"/><path fill="#3AE7E1" d="M25.108 46.71a2.704 2.704 0 0 1-2.085-4.799l13.484-10.528c1.175-.911 2.876-.709 3.787.465a2.704 2.704 0 0 1-.466 3.787L26.344 46.163c-.365.304-.79.486-1.236.547Z"/><path fill="#7B8794" d="M17.739 52.561a2.706 2.706 0 0 1-2.552-1.012c-.91-1.175-.708-2.875.466-3.786l.952-.75c1.174-.91 2.875-.708 3.786.466s.709 2.875-.466 3.786l-.951.75a2.59 2.59 0 0 1-1.235.546Z"/><path fill="#3AE7E1" d="M85.708 0H23.185c-2.328 0-4.495 1.438-5.183 3.665a5.014 5.014 0 0 0 0 3.037 5.21 5.21 0 0 0 1.761 2.53S43.715 27.84 49.587 31.89c2.106 1.356 4.15.89 5.365-.04L85.343 8.2v40.879a7.232 7.232 0 0 1-7.228 7.228h-57.44a2.67 2.67 0 0 0-2.673 2.672 2.713 2.713 0 0 0 2.713 2.713h57.38c6.965 0 12.614-5.649 12.614-12.613V5C90.729 2.247 88.48 0 85.708 0ZM52.239 27.151 24.4 5.386H80.18L52.24 27.15Z"/></g></svg>