<svg xmlns="http://www.w3.org/2000/svg" viewBox="0 0 97 97"><g fill="none" fill-rule="nonzero"><path fill="#E74C3C" d="m32.702 43.148 3.48-2.923-25.396-21.33-.124-.085-.145-.081-.143-.053-.158-.04h-.17l-.16.016-.152.033-.145.058-.134.077-.135.1-.115.11-.087.135-.077.135-.042.154-.04.159v.293l.226 1.586.26 1.59.11.627.17.965.312 1.578.321 1.565.37 1.568.38 1.573.416 1.552.436 1.547.471 1.534.48 1.528.525 1.526.537 1.522.559 1.5.59 1.5.615 1.49.65 1.461.658 1.473.697 1.456.702 1.44.74 1.434.962 1.77 12.556-10.543Zm37.292 20.83 1.827-2.583L57.057 48.99l-3.48-2.923-2.34 1.97-.357.269-.293.178-.287.159-.304.135-.323.11-.317.092-.33.051-.338.04-.327.02-.447-.02-.337-.06-.321-.065-.327-.091-.313-.12-.302-.136-.289-.172-.277-.188-.27-.203-2.342-1.97-3.48 2.924-14.758 12.405.918 1.318.937 1.298.961 1.288.987 1.278 1.005 1.25 1.018 1.245 1.053 1.223 1.062 1.205 1.082 1.189 1.11 1.163 1.13 1.143 1.139 1.13 1.163 1.12 1.189 1.086 1.197 1.072 1.22 1.054 1.225 1.032L44.55 82.5l1.264.98 2.538 1.88h.01l1.298-.938 1.285-.977 1.264-.984 1.258-1.005 1.227-1.033 1.22-1.054 1.194-1.07 1.177-1.098 1.163-1.11 1.153-1.13 1.116-1.153 1.106-1.163 1.086-1.189 1.062-1.195 1.052-1.236 1.019-1.225 1.005-1.264.987-1.269.96-1.288v-.002ZM48.364 38.76l29.1-24.444-1.383-.515-1.399-.49-1.399-.462-1.407-.432-1.425-.414-1.416-.38-1.433-.375-1.443-.33-1.44-.31-1.447-.273-1.453-.258-1.462-.238-1.467-.202-1.466-.178-1.467-.143-1.466-.125-1.475-.1-1.476-.068-1.474-.044-1.705-.024-1.484.01-1.466.048-1.475.063-1.476.091-1.476.125-1.467.145-1.466.168-1.467.2-1.448.226-1.459.256-1.45.277-1.443.31-1.441.33-1.435.351-1.417.39-1.422.405-1.42.432-1.396.462-1.4.48-1.6.592 29.11 24.444Zm39.404-19.012-.01-.169-.034-.144-.06-.159-.075-.135-.099-.135-.113-.11-.135-.086-.132-.081-.159-.053-.155-.04h-.158l-.159.016-.154.033-.145.058-.244.153-25.401 21.329 3.48 2.923L76.57 53.69l.769-1.407.741-1.439.717-1.426.706-1.457.668-1.456.64-1.477.624-1.49.59-1.49.587-1.5.54-1.51.522-1.524.492-1.532.481-1.534.432-1.544.428-1.557.395-1.566.364-1.56.337-1.575.317-1.581.246-1.356.044-.222.253-1.591.294-1.99.01-.158Zm8.949-.179v.516l-.038.515-.053.503-.403 2.74-.289 1.663-.303 1.653-.337 1.655-.369 1.649-.38 1.645-.414 1.632-.446 1.625-.472 1.621-.49 1.616-.514 1.599-.547 1.601-.56 1.591-.604 1.578-.614 1.565-.65 1.558-.674 1.546-.693 1.541-.714 1.524-.753 1.508-.757 1.506-.793 1.487-.818 1.478-.836 1.467-.866 1.442-.884 1.437-.904 1.419-.927 1.413-.961 1.385-.977 1.373-.995 1.356-1.019 1.347-1.038 1.332-1.062 1.308-1.082 1.288-1.102 1.278-1.13 1.265-1.14 1.228-1.162 1.223-1.182 1.21-1.196 1.174-1.221 1.163-1.24 1.154-1.255 1.12-1.274 1.109-1.298 1.074-1.312 1.062-1.318 1.043-1.342 1.018-1.365.997-1.375.975-1.384.961-1.413.932-1.409.905-2.322-1.514-1.4-.937-1.386-.963-1.368-.995-1.343-1.01-1.328-1.041-1.322-1.05-1.294-1.077-1.278-1.095-1.265-1.11-1.248-1.144-1.223-1.155-1.207-1.171-1.196-1.197-1.164-1.223-1.153-1.228-1.13-1.247-1.105-1.274-1.096-1.288-1.063-1.298-1.052-1.322-1.024-1.342-1.011-1.355-.971-1.366-.965-1.387-.937-1.399-.918-1.409-.894-1.439-.872-1.44-.85-1.457-.816-1.476-.809-1.48-.769-1.5-.749-1.51-.741-1.525-.694-1.531-.681-1.544-.658-1.548-.63-1.565-.6-1.58-.581-1.575-.55-1.602-.529-1.6-.499-1.61-.481-1.615-.446-1.621-.428-1.639-.39-1.635-.38-1.645-.336-1.656-.323-1.655-.293-1.659-.268-1.666-.238-1.669-.075-.961L0 19.637l.024-.52.043-.499.066-.505.107-.5.11-.509.14-.468.003-.014.179-.48.192-.47.222-.472.236-.448.267-.436.28-.408.313-.419.327-.39.345-.37.37-.361.38-.337.405-.321.412-.29.424-.283.452-.254 2.705-1.405 1.395-.681 1.4-.648 1.416-.626 1.423-.62 1.443-.568 1.442-.562 1.457-.535 1.46-.504 1.48-.48 1.473-.455 1.49-.43 1.5-.402 1.5-.38 1.509-.362 1.51-.323 1.518-.3 1.526-.284 1.526-.242L36.004.85l1.533-.202L39.083.48l1.542-.143 1.542-.125 1.547-.091 1.554-.064L46.812.01 48.363 0l3.052.057 1.546.064 1.546.091 1.543.109 1.542.15 1.544.17 1.534.2 1.534.221 1.527.25 1.526.273 1.518.31 1.524.32 1.494.361 1.51.38 1.49.403 1.487.424 1.488.462 1.463.48 1.466.5 1.455.538 1.452.549 1.433.586 1.433.605 1.407.62 1.409.664 1.385.674 1.387.701 1.368.721.826.5.414.293.403.313.38.337.37.359.345.366.337.395.304.398.289.428.27.436.243.448.222.462.192.465.183.486.023.08v.003l.117.399.13.499.094.495.083.506.042.515.024.503Z"/><path fill="#FFF" d="m87.11 18.729.132.08.135.088.111.11.101.134.077.135.058.159.034.144.01.169-.01.158-.294 1.99-.253 1.591-.044.222-.246 1.356-.317 1.58-.337 1.576-.366 1.558-.393 1.568-.428 1.557-.432 1.544-.481 1.534-.492 1.532-.523 1.525-.539 1.509-.584 1.5-.593 1.49-.624 1.49-.64 1.477-.668 1.456-.708 1.457-.713 1.426-.743 1.437-.77 1.41-12.555-10.543-3.48-2.921 25.401-21.33.244-.154.145-.06.154-.031.159-.014h.158l.155.038.159.053ZM71.823 61.397l-1.827 2.58-.961 1.288-.987 1.269-1.003 1.266-1.02 1.225-1.053 1.236-1.062 1.197-1.086 1.187-1.106 1.163-1.116 1.154-1.153 1.13-1.163 1.11-1.177 1.095-1.193 1.072-1.221 1.054-1.227 1.033-1.258 1.005-1.264.984-1.285.977-1.298.938h-.01l-2.536-1.88-1.264-.98-1.257-1.01-1.225-1.033-1.222-1.054-1.197-1.07-1.187-1.088-1.163-1.12-1.14-1.13-1.13-1.143-1.11-1.163-1.081-1.19-1.062-1.204-1.05-1.223-1.021-1.244-1.005-1.249-.987-1.28-.961-1.288-.937-1.298-.918-1.316L39.658 48.99l3.48-2.923 2.34 1.97.272.202.277.188.29.172.3.135.314.119.327.093.323.067.337.058.445.02.327-.02.337-.04.331-.051.317-.091.323-.111.302-.135.289-.159.293-.178.357-.27 2.34-1.97 3.48 2.924 14.764 12.407Zm-61.037-42.5 25.396 21.328-3.48 2.92-12.556 10.543-.961-1.77-.741-1.43-.702-1.443-.695-1.456-.66-1.47-.65-1.463-.615-1.49-.59-1.5-.559-1.5-.537-1.525-.525-1.522-.48-1.53-.471-1.533-.436-1.546-.417-1.554-.378-1.571-.37-1.568-.322-1.567-.313-1.578-.168-.965-.111-.626-.258-1.591-.228-1.586v-.293l.04-.159.042-.154.079-.135.085-.135.115-.109.135-.1.134-.08.145-.056.153-.033.158-.014h.17l.16.038.142.053.145.08.124.09Zm66.679-4.581L48.363 38.758l-29.11-24.442 1.598-.593 1.402-.48 1.397-.461 1.419-.432 1.422-.404 1.417-.39 1.435-.351 1.44-.331 1.443-.308 1.451-.279 1.457-.256 1.452-.226 1.467-.2 1.466-.168 1.467-.145 1.474-.125 1.476-.09 1.477-.064 1.466-.048 1.484-.01 1.703.024 1.474.044 1.476.067 1.477.1 1.466.126 1.467.145 1.466.178 1.467.2 1.46.238 1.45.258 1.447.273 1.443.31 1.443.33 1.433.377 1.416.378 1.423.414 1.41.432 1.398.462 1.4.49 1.383.515Z"/><path fill="#000" d="m94.957 16.702-.277-.212-.292-.202-.303-.179-.313-.158-.323-.133-.337-.111-.335-.079-.347-.068-.344-.031-.359-.012-.349.012-.343.043-.346.056-.349.091-.337.111-.311.133-.323.17-.294.178-.489.359-2.652 2.229-25.401 21.324-6.956 5.844-2.338 1.971-.357.268-.291.178-.291.159-.302.133-.325.111-.315.091-.333.055-.335.036-.329.02-.445-.02-.337-.056-.323-.067-.323-.091-.314-.123-.303-.133-.289-.17-.277-.19-.272-.201-2.338-1.971-6.956-5.844-25.398-21.322-2.651-2.231-.28-.212-.293-.202-.299-.182-.313-.143-.337-.133-.335-.103-.337-.079-.345-.068-.348-.019-.357-.012-.347.02-.347.035-.349.079-.342.088-.329.115-.323.144-.313.155-.3.19-.281.202-.456.402 8.038 6.752.012.008 23.15 19.441 6.956 5.842 2.943 2.473.37.291.381.281.39.244.416.238.414.21.436.18.436.167.448.147.458.111.458.091.458.079.471.042.622.023.464-.023.466-.032.469-.056.46-.089.462-.111.446-.135.436-.158.436-.178.424-.201.402-.226.402-.237.393-.268.495-.39 2.941-2.473 6.956-5.842 23.154-19.441.008-.008 8.04-6.752z" opacity=".12"/></g></svg>