<svg xmlns="http://www.w3.org/2000/svg" viewBox="0 0 384 298"><path fill="#fff" fill-rule="nonzero" d="M70.761.97C76.184-.66 82.722.258 88.337.258c15.055 0 30.042 2.067 45.011 4.17l3.326.467 1.663.233c45.993 6.411 93.211 18.792 134.996 39.39 17.902 8.824 34.021 20.622 51.004 30.995 14.752 9.01 27.07 19.226 39.039 31.746 6.143 6.427 12.996 13.692 16.496 21.999 4.552 10.803 4.835 25.505 3.026 37-3.916 24.881-23.26 44.954-42.391 59.656-43.041 33.076-99.083 50.141-151.17 62.905-16.984 4.162-35.457 8.411-53 8.439-.975.002-1.973.02-2.979.031l-.672.007-.673.003-.675-.002c-5.62-.04-11.225-.76-14.443-6.133-1.261-2.106-1.85-4.545-2.427-6.906-6.126-25.092 31.664-30.723 30.826-56-.485-14.613-10.464-29.563-15.532-43-9.602-25.457-19.686-51.149-30.76-76-1.418-3.18-2.62-6.472-3.8-9.777l-1.063-2.975c-1.896-5.287-3.886-10.53-6.761-15.323-5.132-8.555-12.664-10.856-22.041-12.196-12.935-1.848-27.059-1.232-40 .22-1.936.218-4.408.635-7.04.947l-.61.07c-7.352.815-15.714.647-17.122-6.97-2.66-14.398 4.373-25.648 14.772-34.901C31.677 13.814 50.274 7.132 70.761.97Zm128.576 103.287c5.051 17.461 11.049 34.665 17.135 51.81l2.15 6.05a3170.29 3170.29 0 0 1 6.41 18.14c4.16 11.926 11.046 23.215 12.131 36 .281 3.305-.307 6.559-.93 9.805l-.248 1.299c-.246 1.298-.48 2.596-.648 3.896 19.663-4.844 47.291-6.374 60.443-24.001 8.448-11.322 9.163-26.261 1.449-37.999-2.234-3.4-5.12-6.116-8.052-8.83l-1.036-.958c-.69-.64-1.38-1.285-2.059-1.943-18.683-18.082-40.608-35.514-64.741-45.669-7.315-3.078-14.033-6.427-22.004-7.6Z"/></svg>