<svg width="128" height="128" version="1.1" viewBox="0 0 33.867 33.867" xmlns="http://www.w3.org/2000/svg"><defs><clipPath id="_clip1"><rect width="3756.1" height="3756.5"/></clipPath></defs><g transform="matrix(.0090155 0 0 .0090155 16.933 16.933)"><g transform="translate(-1878,-1878.2)"><clipPath><rect width="3756.1" height="3756.5"/></clipPath><g clip-path="url(#_clip1)"><g transform="translate(-371.96,-371.75)"><path d="m4128 2249.8c0 1037.2-840.74 1878-1878 1878s-1878-840.86-1878-1878 840.76-1878.1 1878-1878.1 1878 840.79 1878 1878.1z" fill="#fff"/><path d="m2250 371.75c-1036.9 0-1879.1 842.06-1877.8 1878 0.26 207.26 33.31 406.63 95.34 593.12h561.88v-1579.9l1220.6 1220.6 1220.5-1220.6v1579.9h562c62.12-186.48 95-385.85 95.37-593.12 1.77-1037-840.89-1877.8-1877.9-1877.8v-0.25z" fill="#f26822"/><path d="m1969.3 2764.2-532.67-532.7v994.14h-407.25l-384.29 0.07c329.63 540.8 925.35 902.56 1604.9 902.56s1275.3-361.84 1605-902.64h-791.75v-994.13l-813.31 813.31-280.62-280.61h-0.02z" fill="#4d4d4d"/></g></g></g></g></svg>
