<?xml version="1.0" encoding="UTF-8" standalone="no"?>
<!DOCTYPE svg PUBLIC "-//W3C//DTD SVG 1.1//EN" "http://www.w3.org/Graphics/SVG/1.1/DTD/svg11.dtd">
<svg width="100%" height="100%" viewBox="0 0 128 128" version="1.1" xmlns="http://www.w3.org/2000/svg" xmlns:xlink="http://www.w3.org/1999/xlink" xml:space="preserve" xmlns:serif="http://www.serif.com/" style="fill-rule:evenodd;clip-rule:evenodd;stroke-linejoin:round;stroke-miterlimit:2;">
    <g transform="matrix(4.57144,0,0,4.57144,0,-18.942)">
        <path d="M0.004,27.272C0.004,28.904 1.327,30.226 2.958,30.226L25.046,30.226C26.677,30.226 28,28.904 28,27.272L28,17.818C28,11.291 22.709,6 16.182,6L2.958,6C1.327,6 0.004,7.323 0.004,8.954L0.004,18.263L5.84,18.263C7.945,18.263 9.651,20.086 9.651,22.335C9.651,24.583 7.945,26.406 5.84,26.406L0.004,26.406L0.004,27.272Z" style="fill:url(#_Linear1);fill-rule:nonzero;"/>
        <path d="M5.546,20.181C6.743,20.181 7.713,21.151 7.713,22.348C7.713,23.544 6.743,24.514 5.546,24.514C4.35,24.514 3.38,23.544 3.38,22.348C3.38,21.151 4.35,20.181 5.546,20.181Z" style="fill:url(#_Linear2);fill-rule:nonzero;"/>
        <path d="M0,27.333C0,28.964 1.323,30.287 2.954,30.287L22.091,30.287L22.091,18.863C22.091,13.968 18.123,10 13.228,10L0,10L0,18.263L5.84,18.263C7.945,18.263 9.651,20.086 9.651,22.335C9.651,24.583 7.945,26.406 5.84,26.406L0,26.406L0,27.333Z" style="fill:rgb(109,74,255);fill-rule:nonzero;"/>
        <path d="M0,27.333C0,28.964 1.323,30.287 2.954,30.287L22.091,30.287L22.091,18.863C22.091,13.968 18.123,10 13.228,10L0,10L0,18.263L5.84,18.263C7.945,18.263 9.651,20.086 9.651,22.335C9.651,24.583 7.945,26.406 5.84,26.406L0,26.406L0,27.333Z" style="fill:url(#_Linear3);fill-rule:nonzero;"/>
        <path d="M5.546,20.181C6.743,20.181 7.713,21.151 7.713,22.348C7.713,23.544 6.743,24.514 5.546,24.514C4.35,24.514 3.38,23.544 3.38,22.348C3.38,21.151 4.35,20.181 5.546,20.181Z" style="fill:rgb(109,74,255);fill-rule:nonzero;"/>
        <path d="M5.546,20.181C6.743,20.181 7.713,21.151 7.713,22.348C7.713,23.544 6.743,24.514 5.546,24.514C4.35,24.514 3.38,23.544 3.38,22.348C3.38,21.151 4.35,20.181 5.546,20.181Z" style="fill:url(#_Linear4);fill-rule:nonzero;"/>
        <path d="M8.625,25.114C7.929,25.909 6.939,26.406 5.84,26.406L0,26.406L0,27.272C0,28.903 1.323,30.226 2.954,30.226L4.19,30.226L8.698,25.105L8.625,25.114Z" style="fill:rgb(255,187,147);fill-rule:nonzero;"/>
    </g>
    <defs>
        <linearGradient id="_Linear1" x1="0" y1="0" x2="1" y2="0" gradientUnits="userSpaceOnUse" gradientTransform="matrix(34.6373,13.4926,-13.4926,34.6373,-3.51386,8.81943)"><stop offset="0" style="stop-color:rgb(149,122,253);stop-opacity:1"/><stop offset="1" style="stop-color:rgb(255,198,198);stop-opacity:1"/></linearGradient>
        <linearGradient id="_Linear2" x1="0" y1="0" x2="1" y2="0" gradientUnits="userSpaceOnUse" gradientTransform="matrix(34.6373,13.4926,-13.4926,34.6373,-3.51386,8.81943)"><stop offset="0" style="stop-color:rgb(149,122,253);stop-opacity:1"/><stop offset="1" style="stop-color:rgb(255,198,198);stop-opacity:1"/></linearGradient>
        <linearGradient id="_Linear3" x1="0" y1="0" x2="1" y2="0" gradientUnits="userSpaceOnUse" gradientTransform="matrix(-10.7436,21.8612,-21.8612,-10.7436,20.8426,13.1146)"><stop offset="0" style="stop-color:rgb(250,82,142);stop-opacity:0"/><stop offset="0.15" style="stop-color:rgb(250,82,142);stop-opacity:0"/><stop offset="0.72" style="stop-color:rgb(255,128,101);stop-opacity:0.9"/><stop offset="1" style="stop-color:rgb(255,165,31);stop-opacity:0.9"/></linearGradient>
        <linearGradient id="_Linear4" x1="0" y1="0" x2="1" y2="0" gradientUnits="userSpaceOnUse" gradientTransform="matrix(-10.7436,21.8612,-21.8612,-10.7436,20.8426,13.1146)"><stop offset="0" style="stop-color:rgb(250,82,142);stop-opacity:0"/><stop offset="0.15" style="stop-color:rgb(250,82,142);stop-opacity:0"/><stop offset="0.72" style="stop-color:rgb(255,128,101);stop-opacity:0.9"/><stop offset="1" style="stop-color:rgb(255,165,31);stop-opacity:0.9"/></linearGradient>
    </defs>
</svg>
