<?xml version="1.0" encoding="UTF-8"?>
<svg width="128" height="127.87" version="1.0" viewBox="0 0 96 95.905" xmlns="http://www.w3.org/2000/svg"><g transform="matrix(.059448 0 0 -.059448 -16.702 105.77)"><path d="m930 1765c-296-61-538-286-620-577-104-371 79-777 425-943 122-59 213-79 355-79 147 0 237 21 365 85 203 101 361 295 421 519 28 102 26 312-4 414-40 140-104 249-207 352-94 95-164 142-279 188-134 54-314 70-456 41zm302-116c29-6 86-25 126-41l72-30-2-157-3-156-377-3-378-2v-103c0-83-4-110-20-142-22-43-19-68 13-103 57-62 157 7 128 89-6 18-11 61-11 95v64h750v173l1 172 67-70c103-108 166-246 179-392l6-73h-353v-601l-62-29-63-30-3 256c-2 243-1 257 18 281 43 55 14 144-51 158-90 20-153-83-94-153l25-30v-530l-22-6c-70-18-257 5-343 43l-45 20v381h69c40 0 73-5 77-11 3-6 22-17 40-25 29-12 39-12 68 0 41 17 56 42 56 91 0 74-91 113-153 65-22-17-40-20-141-20h-116l-2-211-3-212-54 49c-30 27-67 67-83 88l-28 39v780l26 34 25 33h269c185 0 271-3 276-11 3-6 22-17 40-25 29-12 39-12 68 0 40 17 56 42 56 88 0 76-100 117-154 63-12-12-51-15-228-15-196 1-211 2-193 17 34 27 161 83 222 97 71 17 233 20 305 5zm-807-679c0-167-13-202-22-57-6 87 4 217 15 217 4 0 7-72 7-160zm1345-122c0-45-58-187-103-254-25-38-66-89-91-114l-46-44v434h120c118 0 120 0 120-22z"/></g></svg>
