<svg width="384" height="128" version="1.1" viewBox="0 0 101.6 33.867" xmlns="http://www.w3.org/2000/svg"><defs><linearGradient id="SVGID_1_" x1="42.708" x2="130.68" y1="135.75" y2="47.776" gradientTransform="matrix(1,0,0,-1,0,206)" gradientUnits="userSpaceOnUse"><stop stop-color="#3AE7E1" offset="0"/><stop stop-color="#1993D2" offset=".9481"/></linearGradient><linearGradient id="SVGID_00000136373650974520554620000001398413718164066707_" x1="67.759" x2="155.73" y1="160.8" y2="72.827" gradientTransform="matrix(1,0,0,-1,0,206)" gradientUnits="userSpaceOnUse"><stop stop-color="#3AE7E1" offset="0"/><stop stop-color="#1993D2" offset=".9481"/></linearGradient><linearGradient id="SVGID_00000134237001975571424250000007484391121173169798_" x1="42.676" x2="130.65" y1="135.72" y2="47.744" gradientTransform="matrix(1,0,0,-1,0,206)" gradientUnits="userSpaceOnUse"><stop stop-color="#3AE7E1" offset="0"/><stop stop-color="#1993D2" offset=".9481"/></linearGradient><linearGradient id="SVGID_00000034810394409234836000000003050705981277782422_" x1="366.4" x2="366.4" y1="77.811" y2="64.922" gradientTransform="matrix(1,0,0,-1,0,206)" gradientUnits="userSpaceOnUse"><stop stop-color="#3AE7E1" offset="0"/><stop stop-color="#1993D2" offset=".9481"/></linearGradient></defs><g transform="matrix(.25025 0 0 .25025 -11.762 -8.7169)"><path class="st0" d="m116.9 109.5c0 5.2-2.8 9.7-7 12.1v8.9c0 3.9-3.1 7-7 7 4.9 0 9.5-1.3 13.5-3.5 0.3-1.1 0.5-2.3 0.5-3.5z" fill="#2d7aae"/><path class="st1" d="m102.9 95.5h-27.9c-3.9 0-7 3.1-7 7v28c0 3.9 3.1 7 7 7h28c3.9 0 7-3.1 7-7v-28c-0.1-3.9-3.2-7-7.1-7zm-7 28h-13.9v-14h14z" fill="url(#SVGID_1_)"/><path d="m76.9 67.5c2.4-4.2 6.9-7 12.1-7s9.7 2.8 12.1 7h1.9c4.7 0 9.3 1 13.6 2.8-2-13.4-13.6-23.8-27.6-23.8s-25.6 10.3-27.6 23.8c4.3-1.8 8.9-2.8 13.6-2.8z" fill="url(#SVGID_00000136373650974520554620000001398413718164066707_)"/><path class="st0" d="m61 78.3c4.1-2.4 8.9-3.8 14-3.8 0-2.5 0.7-4.9 1.9-7h-1.9c-4.7 0-9.3 1-13.6 2.8-0.2 1.4-0.3 2.8-0.3 4.2v3.8z" fill="#2d7aae"/><path class="st0" d="m101 67.5c1.2 2.1 1.9 4.4 1.9 7 5.1 0 9.9 1.4 14 3.8v-3.8c0-1.4-0.1-2.8-0.3-4.2-4.3-1.8-8.9-2.8-13.6-2.8z" fill="#2d7aae"/><path d="m116.9 130.5c0 1.2-0.2 2.4-0.5 3.5 8.6-4.8 14.4-13.9 14.4-24.5v-7c0-10.3-5.6-19.4-14-24.2-4.1-2.4-8.9-3.8-14-3.8h-27.8c-5.1 0-9.9 1.4-14 3.8-8.4 4.8-14 13.8-14 24.2v28c0 15.4 12.5 28 28 28h28c0-7.7-6.3-14-14-14h-14c-7.7 0-14-6.3-14-14v-28c0-7.7 6.3-14 14-14h28c7.7 0 14 6.3 14 14v7z" fill="url(#SVGID_00000134237001975571424250000007484391121173169798_)"/><g fill="#f5f7fa"><path class="st4" d="m194.6 97.2c-1.3-1.3-2.8-2.2-4.5-2.9-1.7-0.6-3.4-1.1-5.2-1.4s-3.5-0.4-5.1-0.4c-3.8 0-7.4 0.4-10.7 1.2-3.3 0.7-5.8 1.7-7.5 2.8v10.6c1.8-1.4 4-2.6 6.8-3.5 2.7-0.8 5.4-1.3 8.1-1.3 3.5 0 6.2 0.7 8.1 2.1s2.9 3.6 2.9 6.6v3.9c-0.6-0.4-1.3-0.7-2-1.1-1.6-0.7-3.3-1.3-5.2-1.7s-4-0.6-6.2-0.6c-3.6 0-6.7 0.6-9.2 1.7s-4.4 2.8-5.7 5-1.9 4.9-1.9 8.1c0 3 0.5 5.5 1.6 7.5s2.5 3.6 4.4 4.8 4 2 6.3 2.5 4.8 0.7 7.5 0.7c4.4 0 8.3-0.4 11.4-1.1 3.3-0.7 5.9-1.9 7.7-3.5s2.7-3.9 2.7-6.7l0.1-22.1c0-2.6-0.4-4.8-1.2-6.6s-1.8-3.4-3.2-4.6zm-9.4 35.2c-1.6 0.5-4 0.7-7.4 0.7-1.5 0-2.9-0.2-4.3-0.7-1.3-0.5-2.4-1.2-3.3-2.3s-1.3-2.3-1.3-3.8c0-2.2 0.8-3.8 2.4-4.9s4-1.6 7.3-1.6c2.3 0 4.5 0.3 6.5 0.8 0.9 0.2 1.7 0.5 2.4 0.8v8c0 1.5-0.8 2.5-2.3 3z"/><path class="st4" d="m240.1 94.9c-0.6-0.3-1.3-0.6-2-0.9-1.7-0.7-3.4-1.1-5.1-1.3s-3.1-0.3-4.1-0.3c-7.4 0-13 2.2-16.6 6.5-3.7 4.3-5.5 10.2-5.5 17.7 0 5 0.6 9.1 1.9 12.4 1.2 3.3 3 5.8 5.2 7.7 2.2 1.8 4.8 3.1 7.7 3.9s6 1.2 9.2 1.2c2.6 0 5.1-0.3 7.5-0.9 2.5-0.6 4.7-1.3 6.7-2.3 2-0.9 3.7-2.2 4.9-3.8 1.3-1.6 1.9-3.4 1.9-5.5v-55h-11.7zm0 33.3c0 1.1-0.8 2-2.5 2.6-1.7 0.7-3.8 1-6.3 1-3.2 0-5.7-0.7-7.6-2-1.8-1.3-3.1-3.1-3.8-5.3s-1.1-4.8-1.1-7.7c0-3.4 0.4-6.2 1.3-8.4s2.3-3.8 4.2-4.8 4.2-1.5 7-1.5c1.4 0 2.9 0.2 4.4 0.6 1.6 0.4 3 1 4.4 1.8z"/><path class="st4" d="m292.7 94.9c-0.6-0.3-1.3-0.6-2-0.9-1.7-0.7-3.4-1.1-5.1-1.3s-3.1-0.3-4.1-0.3c-7.4 0-13 2.2-16.6 6.5-3.7 4.3-5.5 10.2-5.5 17.7 0 5 0.6 9.1 1.9 12.4 1.2 3.3 3 5.8 5.2 7.7 2.2 1.8 4.8 3.1 7.7 3.9s6 1.2 9.2 1.2c2.6 0 5.1-0.3 7.5-0.9 2.5-0.6 4.7-1.3 6.7-2.3 2-0.9 3.7-2.2 4.9-3.8 1.3-1.6 1.9-3.4 1.9-5.5v-55h-11.7zm0 33.3c0 1.1-0.8 2-2.5 2.6-1.7 0.7-3.8 1-6.3 1-3.2 0-5.7-0.7-7.6-2-1.8-1.3-3.1-3.1-3.8-5.3s-1.1-4.8-1.1-7.7c0-3.4 0.4-6.2 1.3-8.4s2.3-3.8 4.2-4.8 4.2-1.5 7-1.5c1.4 0 2.9 0.2 4.4 0.6 1.6 0.4 3 1 4.4 1.8z"/><path class="st4" d="m346.6 93.7-11.2 32.7-11.3-32.7h-13.4l18.8 46.3c-0.3 1.1-0.7 2.1-1 3-0.8 1.7-1.8 3-3 3.9s-2.6 1.3-4.3 1.3c-0.9 0-1.8-0.1-2.6-0.3-0.8-0.1-1.6-0.4-2.5-0.7v9.8c0.9 0.4 2 0.7 3.3 1 1.2 0.3 2.5 0.4 3.9 0.4 2 0 4-0.5 6-1.5 2-0.9 3.9-2.6 5.8-5 1.8-2.4 3.6-5.7 5.2-9.8l18.8-48.4z"/></g><path d="m360.3 140.4v-11.9h12.2v11.9z" fill="url(#SVGID_00000034810394409234836000000003050705981277782422_)"/><path class="st4" d="m386.8 86.7v-9.7h12.3v9.7zm0.3 53.7v-46.2h11.8l0.1 46.2z" fill="#f5f7fa"/><path class="st4" d="m429.8 141.8c-7.7 0-13.5-2.1-17.3-6.4s-5.7-10.4-5.7-18.4c0-8.6 2-14.9 5.9-18.8s9.6-5.8 17.1-5.8c5.2 0 9.5 0.9 12.9 2.7s6 4.6 7.7 8.2 2.6 8.2 2.6 13.7c0 8-2 14.2-6 18.4s-9.7 6.4-17.2 6.4zm0-9.7c2.7 0 4.9-0.6 6.6-1.9 1.7-1.2 2.9-3 3.7-5.3s1.2-5 1.2-8.1c0-3.5-0.4-6.4-1.2-8.6s-2.1-3.9-3.8-4.9-3.9-1.6-6.5-1.6c-2.7 0-4.9 0.6-6.6 1.7s-2.9 2.8-3.6 5-1.1 5-1.1 8.4c0 4.9 0.9 8.6 2.6 11.3 1.8 2.7 4.6 4 8.7 4z" fill="#f5f7fa"/></g></svg>
