<?xml version="1.0" encoding="UTF-8"?><svg id="a" xmlns="http://www.w3.org/2000/svg" width="83.91mm" height="36.03mm" viewBox="0 0 237.84 102.12"><path id="b" d="M47.99,39.69l10.94,8.28h0c.68.44,1.04.38,1.59-.22.13-.15.25-.29.37-.43.32-.39.5-.64.37-1.1h0c-.01-.06-3.4-10.43-3.4-10.43-.32-1.11-1.11-1.72-2.33-1.74,0,0-5.03,0-5.03,0-.77,0-1.17.16-1.62.68l-1.37,1.82c-.95,1.35-.84,2.07.48,3.15" fill="#abe659"/><path id="c" d="M62.51,47.93l-8.28,10.94h0c-.44.68-.38,1.04.22,1.59.15.13.29.25.43.37.39.32.64.5,1.1.37h0c.06-.01,10.43-3.4,10.43-3.4,1.11-.32,1.72-1.11,1.74-2.33,0,0,0-5.03,0-5.03,0-.77-.16-1.17-.68-1.62l-1.82-1.37c-1.35-.95-2.07-.84-3.15.48" fill="#abe659"/><path id="d" d="M39.74,54.19l8.28-10.94h0c.44-.68.38-1.04-.22-1.59-.15-.13-.29-.25-.43-.37-.39-.32-.64-.5-1.1-.37h0c-.06.01-10.43,3.4-10.43,3.4-1.11.32-1.72,1.11-1.74,2.33,0,0,0,5.03,0,5.03,0,.77.16,1.17.68,1.62l1.82,1.37c1.35.95,2.07.84,3.15-.48" fill="#abe659"/><path id="e" d="M54.24,62.43l-10.94-8.28h0c-.68-.44-1.04-.38-1.59.22-.13.15-.25.29-.37.43-.32.39-.5.64-.37,1.1h0c.01.06,3.4,10.43,3.4,10.43.32,1.11,1.11,1.72,2.33,1.74,0,0,5.03,0,5.03,0,.77,0,1.17-.16,1.62-.68l1.37-1.82c.95-1.35.84-2.07-.48-3.15" fill="#abe659"/><path id="f" d="M132.61,38.73c1.75,0,2.27.56,2.27,2.23v.33c0,1.75-.52,2.27-2.27,2.27h-.26c-1.67,0-2.27-.52-2.27-2.27v-.33c0-1.67.52-2.23,2.27-2.23h.26ZM133.5,45.94c.86,0,1.15.26,1.15,1.12v17c0,.86-.3,1.15-1.15,1.15h-2.04c-.86,0-1.12-.3-1.12-1.15v-17c0-.86.26-1.12,1.12-1.12h2.04Z" fill="#abe659"/><path id="g" d="M143.35,64.06c0,.86-.3,1.15-1.15,1.15h-2.01c-.89,0-1.15-.3-1.15-1.15v-25.22c0-.86.26-1.15,1.15-1.15h2.01c.86,0,1.15.3,1.15,1.15v25.22Z" fill="#abe659"/><path id="h" d="M150.9,37.69c.85,0,1.12.3,1.12,1.15v7.18c1.46-.37,2.96-.58,4.46-.63,5.17,0,7.74,2.49,7.74,7.48v5.03c0,5.24-2.79,7.89-8.41,7.89-2.3.06-4.59-.35-6.73-1.19-1.19-.56-1.38-.86-1.38-2.04v-23.71c0-.85.3-1.15,1.15-1.15h2.05ZM159.9,52.98c0-2.34-1.41-3.65-4.05-3.65-1.3.01-2.6.24-3.83.67v10.97c0,.19.12.35.3.41,1.03.33,2.12.48,3.2.45,2.94,0,4.39-1.34,4.39-4.05v-4.8Z" fill="#abe659"/><path id="i" d="M167.3,52.82c0-4.65,3.09-7.44,8.55-7.44s8.59,2.79,8.59,7.44v5.5c0,4.65-3.09,7.44-8.59,7.44s-8.55-2.79-8.55-7.44v-5.5ZM180.13,52.82c0-2.27-1.56-3.53-4.28-3.53s-4.24,1.26-4.24,3.53v5.5c0,2.23,1.53,3.53,4.24,3.53s4.28-1.3,4.28-3.53v-5.5Z" fill="#abe659"/><path id="j" d="M202.67,45.94c1.12,0,1.38.45.79,1.34l-5.58,8,5.95,8.59c.63.89.37,1.34-.82,1.34h-1.78c-1.23,0-1.52-.11-2.08-.97l-4.02-5.84-3.83,5.84c-.56.85-.86.97-2.08.97h-1.75c-1.34,0-1.56-.45-.86-1.34l5.95-8.56-5.69-8.03c-.63-.89-.33-1.34.89-1.34h1.67c1.3,0,1.64.19,2.12.97l3.68,5.24,3.61-5.24c.56-.85.79-.97,2.01-.97h1.82Z" fill="#abe659"/><path d="M118.38,45.38c5.32,0,7.97,2.57,7.97,7.67v9.64c0,1.3-.3,1.68-1.34,2.12-1.49.63-3.72.97-6.7.97-3.16,0-5.32-.48-6.52-1.49-1.19-.97-1.79-2.49-1.79-4.54,0-4.43,2.38-5.99,8.45-5.99.26,0,1.45.07,3.57.19v-1.04c0-2.42-1.04-3.69-3.72-3.69-1.82,0-3.13.6-3.91,1.79-.56.78-.74.86-1.6.56l-1.49-.63c-.82-.37-1.04-.93-.63-1.68,1.34-2.57,3.91-3.87,7.71-3.87ZM122.03,57.48c-2.61-.11-3.95-.19-4.06-.19-2.68,0-3.57.78-3.57,2.42s.78,2.49,3.5,2.49c1.6,0,2.83-.11,3.72-.3.26-.11.41-.26.41-.52v-3.91Z" fill="#abe659"/><path d="M99.57,45.91c4.87,0,7.29,2.45,7.29,7.4v11.27c0,.86-.26,1.15-1.12,1.15h-2.05c-.86,0-1.15-.3-1.15-1.15v-11.12c0-2.42-1.19-3.61-3.61-3.61-1.12,0-2.31.22-3.61.67.26.71.41,1.64.41,2.79v11.27c0,.86-.3,1.15-1.15,1.15h-2.01c-.86,0-1.15-.3-1.15-1.15v-11.12c0-2.42-1.23-3.61-3.64-3.61-1.08,0-2.05.15-2.98.45-.19.07-.3.22-.3.45v13.83c0,.86-.26,1.15-1.12,1.15h-2.05c-.86,0-1.15-.3-1.15-1.15v-15.28c0-1.19.3-1.64,1.45-2.12,2.05-.86,4.31-1.26,6.77-1.26,1.97,0,3.5.41,4.61,1.23,2.05-.82,4.2-1.23,6.55-1.23Z" fill="#abe659"/></svg>