<?xml version="1.0" encoding="UTF-8" standalone="no"?>
<!DOCTYPE svg PUBLIC "-//W3C//DTD SVG 1.1//EN" "http://www.w3.org/Graphics/SVG/1.1/DTD/svg11.dtd">
<svg width="100%" height="100%" viewBox="0 0 142 142" version="1.1" xmlns="http://www.w3.org/2000/svg" xmlns:xlink="http://www.w3.org/1999/xlink" xml:space="preserve" xmlns:serif="http://www.serif.com/" style="fill-rule:evenodd;clip-rule:evenodd;stroke-linejoin:round;stroke-miterlimit:2;">
    <g transform="matrix(4.16667,0,0,4.16667,-142.092,-141.896)">
        <g id="b" transform="matrix(1.00006,0,0,1.00006,0,0.00289614)">
            <path d="M47.99,39.69L58.93,47.97C59.61,48.41 59.97,48.35 60.52,47.75C60.65,47.6 60.77,47.46 60.89,47.32C61.21,46.93 61.39,46.68 61.26,46.22C61.25,46.16 57.86,35.79 57.86,35.79C57.54,34.68 56.75,34.07 55.53,34.05L50.5,34.05C49.73,34.05 49.33,34.21 48.88,34.73L47.51,36.55C46.56,37.9 46.67,38.62 47.99,39.7" style="fill:rgb(171,230,89);fill-rule:nonzero;"/>
        </g>
        <g id="c" transform="matrix(1.00006,0,0,1.00006,0,0.00289614)">
            <path d="M62.51,47.93L54.23,58.87C53.79,59.55 53.85,59.91 54.45,60.46C54.6,60.59 54.74,60.71 54.88,60.83C55.27,61.15 55.52,61.33 55.98,61.2C56.04,61.19 66.41,57.8 66.41,57.8C67.52,57.48 68.13,56.69 68.15,55.47L68.15,50.44C68.15,49.67 67.99,49.27 67.47,48.82L65.65,47.45C64.3,46.5 63.58,46.61 62.5,47.93" style="fill:rgb(171,230,89);fill-rule:nonzero;"/>
        </g>
        <g id="d" transform="matrix(1.00006,0,0,1.00006,0,0.00289614)">
            <path d="M39.74,54.19L48.02,43.25C48.46,42.57 48.4,42.21 47.8,41.66C47.65,41.53 47.51,41.41 47.37,41.29C46.98,40.97 46.73,40.79 46.27,40.92C46.21,40.93 35.84,44.32 35.84,44.32C34.73,44.64 34.12,45.43 34.1,46.65L34.1,51.68C34.1,52.45 34.26,52.85 34.78,53.3L36.6,54.67C37.95,55.62 38.67,55.51 39.75,54.19" style="fill:rgb(171,230,89);fill-rule:nonzero;"/>
        </g>
        <g id="e" transform="matrix(1.00006,0,0,1.00006,0,0.00289614)">
            <path d="M54.24,62.43L43.3,54.15C42.62,53.71 42.26,53.77 41.71,54.37C41.58,54.52 41.46,54.66 41.34,54.8C41.02,55.19 40.84,55.44 40.97,55.9C40.98,55.96 44.37,66.33 44.37,66.33C44.69,67.44 45.48,68.05 46.7,68.07L51.73,68.07C52.5,68.07 52.9,67.91 53.35,67.39L54.72,65.57C55.67,64.22 55.56,63.5 54.24,62.42" style="fill:rgb(171,230,89);fill-rule:nonzero;"/>
        </g>
    </g>
</svg>
