<svg width="1024" height="1024" viewBox="0 0 1024 1024" fill="none" xmlns="http://www.w3.org/2000/svg">
<g clip-path="url(#clip0_1040_16600)">
<rect width="1024" height="1024" fill="#7DC1E2"/>
<path d="M-0.000976562 222.265C-0.000976562 99.5121 99.5101 0.000976563 222.263 0.000976563L801.736 0.000976562C924.489 0.000976562 1024 99.5122 1024 222.265V458.669V801.738C1024 924.492 924.49 1024 801.736 1024H222.263C99.5102 1024 -0.000976562 924.492 -0.000976562 801.739V222.265Z" fill="#2797CF"/>
<path d="M501.97 719.75C1068.49 378.465 457.375 747.425 1023.9 406.14V820.77L935.824 985.196L501.97 719.75Z" fill="#FFFFFE" fill-opacity="0.4"/>
<path d="M-0.00909221 794.094L-0.00923334 401.753L912.258 957.162L841.016 1003.28L82.3688 958.64L-0.00909221 794.094Z" fill="#FFFFFE" fill-opacity="0.4"/>
<path opacity="0.1" fill-rule="evenodd" clip-rule="evenodd" d="M0.00359587 293.197L0.00341797 236.661L512.001 551.59L1024.04 237.345V293.884L512.003 608.128L0.00359587 293.197Z" fill="black"/>
<path d="M513.484 548.89L-0.00099021 236.672L-0.000990216 224C-0.00099028 100.288 100.642 0.000666987 224.79 0.000661561L799.209 0.000636452C924.511 0.00069201 1025.63 102.089 1023.98 226.939L1023.85 236.672L513.484 548.89Z" fill="#FFFFFE" fill-opacity="0.4"/>
<path d="M2.52333 202.342L512 514.753L1021.78 202.634L1023.36 224.18V241.186L512 554.257L0.642578 241.186V222.199L2.52333 202.342Z" fill="#B1DAEE"/>
<path d="M512 711.276L0.642578 398.204V437.709L982.347 1042.32L1005.57 1035.53L1035.91 1027.97L544.038 731.165L1023.36 437.709V398.204L512 711.276Z" fill="#B1DAEE"/>
<path d="M908.899 998.203L879.132 978.358L837.458 998.203L889.055 1018.05L908.899 998.203Z" fill="#7DC1E2"/>
<path d="M1025.99 202.419H1.98353L-7.93896 0H1025.99V202.419Z" fill="#7DC1E2"/>
<path d="M946.606 1022.02L-1.98443 714.42L-63.5039 1069.65L946.606 1022.02Z" fill="#7DC1E2"/>
<path d="M1704.68 986.296L1000.19 801.738L910.884 952.56L984.311 996.219L1704.68 986.296Z" fill="#7DC1E2"/>
</g>
<defs>
<clipPath id="clip0_1040_16600">
<rect width="1024" height="1024" fill="white"/>
</clipPath>
</defs>
</svg>
