<svg width="128" height="128" version="1.1" viewBox="0 0 33.867 33.867" xmlns="http://www.w3.org/2000/svg"><g fill="#00d2a7" stroke-width=".91795"><path d="m2.6793 0.33879 5.7992 5.8589c0.13565 0.13531 0.27131 0.16931 0.47479 0.16931h24.451c0.16955 0 0.27134-0.20331 0.10172-0.37254l-5.7313-5.7911c-0.13565-0.13565-0.27134-0.20331-0.5426-0.20331h-24.418c-0.23741 0-0.27131 0.20331-0.13565 0.33861z"/><path d="m1.8315 33.596c-0.034 0.13565 0.034 0.27096 0.20348 0.27096h24.112c0.23738 0 0.3391-0.10165 0.40693-0.30461l7.2913-23.503c0.06783-0.23696-0.034-0.30461-0.23738-0.30461h-24.18c-0.20341 0-0.27127 0.067653-0.3391 0.23696z"/><path d="m1.5914e-4 26.822c0 0.27096 0.33913 0.27096 0.40696 0l5.5279-17.983c0.067827-0.20331 0.067827-0.33861-0.10172-0.50802l-5.4939-5.4525c-0.13565-0.13565-0.33913-0.067653-0.33913 0.10165z"/></g></svg>
