<svg width="128" height="128" version="1.1" viewBox="0 0 33.867 33.867" xmlns="http://www.w3.org/2000/svg"><g fill="#850122" stroke-width=".91795"><path d="m2.6792 0.33866 5.7992 5.8589c0.13565 0.13548 0.27131 0.16934 0.47479 0.16934h24.452c0.16955 0 0.27134-0.2032 0.10172-0.37253l-5.7313-5.7912c-0.13565-0.13548-0.27134-0.2032-0.5426-0.2032h-24.418c-0.23741 0-0.27131 0.2032-0.13565 0.33865z"/><path d="m1.8314 33.596c-0.034 0.13548 0.034 0.27089 0.20348 0.27089h24.113c0.23738 0 0.3391-0.10152 0.40693-0.30476l7.2914-23.503c0.06783-0.23703-0.034-0.30475-0.23738-0.30475h-24.18c-0.20341 0-0.27127 0.067758-0.3391 0.23703z"/><path d="m5.3925e-5 26.822c0 0.27089 0.33914 0.27089 0.40696 0l5.5279-17.983c0.067827-0.2032 0.067827-0.33865-0.10172-0.508l-5.494-5.4525c-0.13565-0.13548-0.33914-0.067723-0.33914 0.10158z"/></g></svg>
