<svg xmlns="http://www.w3.org/2000/svg" viewBox="0 0 77 77"><g fill="none" fill-rule="nonzero"><path fill="#192E45" d="M0 38.274c0 21.152 17.152 38.274 38.274 38.274s38.274-17.122 38.274-38.274S59.426 0 38.274 0 0 17.122 0 38.274Z"/><path fill="#D0933A" d="m5.121 33.698 2.91-4.06-.182 5.848.818-4.394c2.424 4.91 8.364 11.697 13.788 15.334.576.394 1.061.818 1.394 1.242.697.273 1.394.425 2.091.546.364.06.758.09 1.122.121.363.03.757.03 1.12.03.365 0 .728-.03 1.092-.06.363-.03.727-.091 1.09-.152.364-.06.728-.12 1.061-.242.364-.091.697-.182 1.061-.303.333-.091.697-.243 1.03-.364.334-.151.667-.273 1-.454.334-.182.667-.334.97-.516.334-.151.637-.363.97-.545.333-.182.636-.394.97-.576.333-.182.636-.394.94-.576.302-.212.635-.394.938-.606.304-.212.637-.394.97-.606l.303-.182.152.091 2.182 1.455-2.213-.576c-.212.243-.424.485-.666.727-.273.273-.576.546-.849.819-.303.242-.606.515-.94.727-.333.242-.636.455-1 .667-.666.424-1.393.788-2.15 1.09-.364.152-.758.304-1.122.425-.394.121-.758.242-1.152.333-.394.091-.788.182-1.181.243-.394.06-.788.09-1.182.151-.788.03-1.606.03-2.394-.09-.394-.061-.788-.122-1.182-.213-.394-.09-.758-.212-1.121-.333a10.463 10.463 0 0 1-1.849-.91s-2.091.304-1.242 1.88c.848 1.575 2.12 1.424 1.515 3.272-.425 1-1.03 1.97-1.697 2.88-1.394 1.878-3.576 3.545-3.364 4.545 9.91 12.212 32.244 10.515 40.729-.394-.122-1.576-2.606-2.334-4.334-6.182.485.151 1.212.364 1.212.333 0-.03-2.06-3.364-2.151-3.697l1.333.091s-1.757-2.182-1.818-2.394l1.788-.242s-2.243-2.576-2.273-2.788l2.273.363-2.485-3h1.182l-1.394-2.03c-.243-.091-.485-.152-.728-.212l-.909-.273c-3.394-1.06-6.606-2.03-9.697-3.97-4.333-2.697-8.212-6-11.122-8.576l-5.848-2.849c-5.607-.424-10.88-.272-14.092.364l2.061-3.515-3.152 3.788c-.212-.06-.272-.182-.272-.182l.212-4.667-1 4.212c-.303-.151-.667-.212-1.03-.212A2.509 2.509 0 0 0 5.09 26.85c0 1.273.94 2.334 2.182 2.485l-2.152 4.364Z"/><path fill="#FFCC86" d="M8.637 24.486a2.813 2.813 0 0 0-1-.212 2.509 2.509 0 0 0-2.516 2.515c0 1.212.88 2.242 2.03 2.485h.061c.758-.243 2.273-2.273 2.03-3.546a2.807 2.807 0 0 0-.605-1.242Z"/><path fill="#FDD321" d="M30.728 21.243c-.454-1.242-.333-2.848.303-4.364.91-2.09 2.637-3.485 4.273-3.485.334 0 .637.061.94.182.94-.848 2.03-1.545 3.242-2.03 6.698-2.667 16.486 2.09 19.001 8.667 1.212 3.182.849 6.667-.182 9.849-.848 2.606-3.94 6.364-2.788 9.212-.454-.121-10.03-3.09-12.697-4.788-4.273-2.667-8.122-5.94-11-8.485l-.092-.091-9.727-4.606a3.306 3.306 0 0 1-.334-.182c1.394 0 6.698.636 9.061.121"/><path fill="#FFF" d="M33.607 22.334a1.58 1.58 0 0 1-.697-.151c-.485-.212-.848-.606-1.09-1.213-.425-1.03-.304-2.454.272-3.788.758-1.727 2.182-2.939 3.485-2.939.243 0 .485.06.727.151.637.273 1.091.91 1.243 1.819.182.97.03 2.09-.455 3.151-.757 1.728-2.212 2.97-3.485 2.97Z"/><path fill="#192E45" d="M35.547 14.728c.182 0 .363.03.545.121.485.212.849.758.97 1.485.151.879.03 1.91-.424 2.879-.667 1.545-1.97 2.667-3.061 2.667-.182 0-.364-.03-.515-.091-.455-.182-.697-.606-.818-.94-.364-.909-.273-2.242.242-3.454.697-1.546 1.97-2.667 3.06-2.667m0-.91c-1.454 0-3.06 1.334-3.908 3.243-.637 1.425-.728 2.97-.273 4.152.273.697.727 1.182 1.303 1.455.273.12.576.181.909.181 1.455 0 3.06-1.333 3.879-3.242.515-1.152.667-2.364.485-3.425-.182-1.06-.728-1.818-1.515-2.151-.243-.152-.546-.212-.88-.212Z"/></g></svg>