<?xml version="1.0" encoding="UTF-8"?>
<svg width="128" height="128" version="1.1" viewBox="0 0 33.867 33.867" xmlns="http://www.w3.org/2000/svg" xmlns:xlink="http://www.w3.org/1999/xlink"><defs><clipPath id="SVGID_00000142168627081468672430000006527680084326249886_"><use xlink:href="#SVGID_1_"/></clipPath><linearGradient id="SVGID_00000088853459014864040730000009902632102805990829_" x1="536.6" x2="292.94" y1="1113.2" y2="64.084" gradientTransform="matrix(1,0,0,-1,0,788)" gradientUnits="userSpaceOnUse"><stop stop-color="#24ECC6" stop-opacity="0" offset=".4799"/><stop stop-color="#24ECC6" offset=".9944"/></linearGradient><linearGradient id="SVGID_00000075863372972845837890000016599907698185993344_" x1="759.68" x2="219.42" y1="79.312" y2="1003.2" gradientTransform="matrix(1,0,0,-1,0,788)" gradientUnits="userSpaceOnUse"><stop stop-color="#ABFFEF" offset=".066012"/><stop stop-color="#CAC9FF" offset=".4499"/><stop stop-color="#6D4AFF" offset="1"/></linearGradient><rect id="SVGID_1_" width="862" height="787"/></defs><g transform="matrix(.039294 0 0 .039294 3.7235e-7 1.4686)"><clipPath><use xlink:href="#SVGID_1_"/></clipPath><g clip-path="url(#SVGID_00000142168627081468672430000006527680084326249886_)"><path class="st1" d="m346.1 740.3c32.8 59.3 116.9 62.6 154 5.9l346.7-528.4c36.8-56 1.6-131.2-65-138.8l-681.4-78.1c-72.7-8.3-124.4 68.9-89.1 132.9z" clip-rule="evenodd" fill="#6851f6" fill-rule="evenodd"/><path d="m346.3 740.3c32.8 59.3 116.9 62.6 154 5.9l346.7-528.4c36.8-56 1.6-131.2-65-138.8l-681.4-78.2c-72.7-8.3-124.4 68.9-89 132.9z" clip-rule="evenodd" fill="url(#SVGID_00000088853459014864040730000009902632102805990829_)" fill-rule="evenodd"/><path d="m396.4 638.7-30.8 46.3c-12.5 18.7-40.4 17.6-51.2-2.1l31.7 57.5c5.7 10.2 12.8 18.8 21.1 25.7 39.3 33 102.2 27.1 133-19.8l346.7-528.4c36.8-56 1.6-131.2-65-138.8l-681.5-78.2c-72.7-8.4-124.4 68.9-89.1 132.9l2.7 4.9 580.1 67.1c37 4.3 56.5 46 36 77.1z" fill="url(#SVGID_00000075863372972845837890000016599907698185993344_)"/></g></g></svg>
