<svg xmlns="http://www.w3.org/2000/svg" viewBox="0 0 33.867 33.867"><g fill="none"><path fill="#68bc71" d="M16.933 0C11.703 0 5.393 1.214.2 3.887c0 5.773-.071 20.154 16.734 29.98C33.74 24.041 33.668 9.66 33.668 3.887 28.474 1.214 22.164 0 16.933 0z"/><path fill="#67b279" d="M16.916 33.857C.128 24.031.199 9.658.199 3.887 5.388 1.217 11.69.003 16.916 0z"/><path fill="#fff" d="m16.323 22.597 10.12-13.465c-.742-.586-1.393-.172-1.75.148l-.014.001-8.437 8.666-3.18-3.777c-1.516-1.73-3.577-.41-4.06-.062l7.32 8.49"/></g></svg>