<svg xmlns="http://www.w3.org/2000/svg" xmlns:xlink="http://www.w3.org/1999/xlink" version="1.1" viewBox="0 0 128 128"><defs><linearGradient id="a" x2="235.8" y1="119.6" y2="119.6" gradientTransform="scale(.9229 1.084)" gradientUnits="userSpaceOnUse"><stop offset="0" stop-color="#F50"/><stop offset=".41" stop-color="#F50"/><stop offset=".582" stop-color="#FF2000"/><stop offset="1" stop-color="#FF2000"/></linearGradient><linearGradient id="c" x1="11.3" x2="100.5" y1="46.23" y2="46.23" gradientTransform="scale(1.981 .5049)" gradientUnits="userSpaceOnUse"><stop offset="0" stop-color="#FF452A"/><stop offset="1" stop-color="#FF2000"/></linearGradient><path id="b" d="m170.3 25.34-22.3-25.34h-78.34l-22.3 25.34s-19.58-5.447-28.83 3.813c0 0 26.11-2.36 35.09 12.26 0 0 24.21 4.63 27.47 4.63s10.34-2.724 16.86-4.902c6.528-2.179 10.88-2.195 10.88-2.195s4.352 0.016 10.88 2.195c6.528 2.178 13.6 4.902 16.86 4.902s27.47-4.63 27.47-4.63c8.976-14.62 35.09-12.26 35.09-12.26-9.248-9.26-28.83-3.813-28.83-3.813"/></defs><g fill-rule="evenodd" transform="matrix(.50101 0 0 .50101 9.4745 .0060121)"><path fill="url(#a)" d="m210 61.28 5.984-14.71s-7.616-8.17-16.86-17.43c-9.248-9.259-28.83-3.812-28.83-3.812l-22.3-25.34h-78.34l-22.3 25.34s-19.58-5.447-28.83 3.813-16.86 17.43-16.86 17.43l5.984 14.71-7.616 21.79s22.4 84.95 25.02 95.32c5.168 20.42 8.704 28.32 23.39 38.67s41.34 28.32 45.7 31.05c4.352 2.724 9.792 7.363 14.69 7.363s10.34-4.64 14.69-7.363 31.01-20.7 45.7-31.05 18.22-18.25 23.39-38.67c2.624-10.37 25.02-95.32 25.02-95.32z"/><path fill="#fff" d="m164 41.4s28.69 34.72 28.69 42.14c0 7.421-3.608 9.38-7.237 13.24l-21.51 22.87c-2.036 2.164-6.273 5.445-3.78 11.35 2.492 5.905 6.168 13.42 2.08 21.04-4.089 7.62-11.09 12.71-15.58 11.87-4.489-0.842-15.03-6.357-18.9-8.876-3.876-2.52-16.16-12.66-16.16-16.54s12.7-10.85 15.04-12.43c2.347-1.583 13.05-7.712 13.27-10.12 0.219-2.406 0.136-3.111-3.022-9.055s-8.845-13.88-7.898-19.15c0.946-5.277 10.12-8.02 16.66-10.5 6.545-2.474 19.15-7.148 20.72-7.875 1.575-0.727 1.168-1.42-3.601-1.872-4.768-0.452-18.3-2.251-24.4-0.548-6.1 1.702-16.52 4.293-17.37 5.667-0.844 1.373-1.589 1.42-0.722 6.158 0.867 4.739 5.33 27.48 5.764 31.52 0.433 4.039 1.28 6.709-3.068 7.705-4.35 0.995-11.67 2.724-14.19 2.724s-9.838-1.729-14.19-2.724c-4.35-0.996-3.503-3.666-3.07-7.705 0.434-4.039 4.898-26.78 5.765-31.52s0.122-4.785-0.722-6.158c-0.844-1.374-11.27-3.965-17.37-5.667-6.1-1.703-19.63 0.096-24.4 0.548-4.769 0.453-5.176 1.145-3.602 1.872 1.575 0.727 14.18 5.4 20.72 7.875 6.546 2.475 15.72 5.22 16.66 10.5 0.946 5.278-4.741 13.21-7.899 19.15-3.158 5.944-3.241 6.65-3.022 9.055s10.92 8.534 13.27 10.12 15.04 8.552 15.04 12.43c0 3.882-12.28 14.03-16.16 16.54-3.876 2.52-14.42 8.034-18.9 8.876-4.488 0.84-11.49-4.246-15.58-11.87-4.089-7.621-0.412-15.14 2.08-21.04 2.491-5.905-1.745-9.186-3.78-11.35l-21.51-22.87c-3.629-3.858-7.237-5.817-7.237-13.24 0-7.422 28.69-42.14 28.69-42.14s24.21 4.63 27.47 4.63 10.34-2.724 16.86-4.902c6.528-2.179 10.88-2.195 10.88-2.195s4.352 0.016 10.88 2.195c6.528 2.178 13.6 4.902 16.86 4.902s27.47-4.63 27.47-4.63zm-21.51 132.8c1.775 1.113 0.692 3.212-0.925 4.357-1.618 1.145-23.36 18-25.47 19.86-2.11 1.864-5.21 4.94-7.318 4.94s-5.209-3.076-7.318-4.94c-2.11-1.863-23.85-18.72-25.47-19.86s-2.7-3.244-0.925-4.357c1.777-1.113 7.333-3.922 15-7.894 7.665-3.972 17.22-7.349 18.71-7.349s11.04 3.377 18.71 7.349 13.22 6.781 15 7.894z"/><use width="100%" height="100%" fill="url(#c)" xlink:href="#b"/></g></svg>