<?xml version="1.0" encoding="UTF-8"?>
<svg width="128" height="128" version="1.1" viewBox="0 0 33.867 33.867" xmlns="http://www.w3.org/2000/svg"><defs><linearGradient id="a" x1="74.808" x2="7.7404" y1="738.54" y2="780.79" gradientTransform="matrix(.42324 0 0 .42324 60.222 -288.13)" gradientUnits="userSpaceOnUse"><stop stop-color="#9658f9" offset="0"/><stop stop-color="#9356f4" offset=".13"/><stop stop-color="#8951e5" offset=".29"/><stop stop-color="#7a49cd" offset=".46"/><stop stop-color="#643dab" offset=".64"/><stop stop-color="#492e81" offset=".82"/><stop stop-color="#291d4f" offset="1"/></linearGradient><radialGradient id="b" cx="-711.74" cy="-14.957" r="1.3333" gradientTransform="matrix(-9.9589,23.646,-24.971,-10.517,-7373.9,16694)" gradientUnits="userSpaceOnUse"><stop stop-color="#9658f9" offset="0"/><stop stop-color="#291d4f" offset=".65"/></radialGradient><radialGradient id="c" cx="-705.93" cy="12.062" r="1.3333" gradientTransform="matrix(25.629,0,0,25.629,18172,-272.37)" gradientUnits="userSpaceOnUse"><stop stop-color="#ab71ff" stop-opacity="0" offset=".25"/><stop stop-color="#9462e0" stop-opacity=".18" offset=".42"/><stop stop-color="#573b8d" stop-opacity=".65" offset=".73"/><stop stop-color="#291d4f" offset=".94"/></radialGradient><radialGradient id="d" cx="-701.25" cy="16.393" r="1.3333" gradientTransform="matrix(18.527,0,0,18.527,13076,-288.66)" gradientUnits="userSpaceOnUse"><stop stop-color="#9658f9" offset=".18"/><stop stop-color="#7e48ea" offset=".33"/><stop stop-color="#7542e5" offset=".37"/><stop stop-color="#6a3dd0" offset=".41"/><stop stop-color="#5332a2" offset=".48"/><stop stop-color="#41297e" offset=".56"/><stop stop-color="#342264" offset=".63"/><stop stop-color="#2c1e54" offset=".69"/><stop stop-color="#291d4f" offset=".74"/></radialGradient><radialGradient id="e" cx="-692.84" cy="25.393" r="1.3333" gradientTransform="matrix(12.214,0,0,12.214,8534.5,-269.34)" gradientUnits="userSpaceOnUse"><stop stop-color="#9358fc" offset=".07"/><stop stop-color="#9857f8" offset=".13"/><stop stop-color="#a755eb" offset=".21"/><stop stop-color="#bf52d7" offset=".3"/><stop stop-color="#e14eba" offset=".39"/><stop stop-color="#ef4caf" offset=".42"/><stop stop-color="#ff7583" offset=".74"/><stop stop-color="#ffb753" offset=".97"/></radialGradient><radialGradient id="f" cx="-683.15" cy="48.979" r="1.3333" gradientTransform="matrix(6.2809,-1.554,1.8256,7.3785,4277.7,-1393.9)" gradientUnits="userSpaceOnUse"><stop stop-color="#ffb653" stop-opacity=".3" offset=".22"/><stop stop-color="#ff807a" stop-opacity=".5" offset=".34"/><stop stop-color="#ff7781" stop-opacity=".48" offset=".44"/><stop stop-color="#ff5c94" stop-opacity=".43" offset=".57"/><stop stop-color="#ff4aa2" stop-opacity=".4" offset=".64"/><stop stop-color="#9658f9" stop-opacity=".3" offset=".86"/></radialGradient><radialGradient id="g" cx="-682.79" cy="34.773" r="1.3333" gradientTransform="matrix(8.7797,0,0,8.7797,6074.2,-283.9)" gradientUnits="userSpaceOnUse"><stop stop-color="#9658f9" offset=".03"/><stop stop-color="#7542e5" offset=".62"/><stop stop-color="#6339c2" offset=".72"/><stop stop-color="#37246b" offset=".93"/><stop stop-color="#291d4f" offset="1"/></radialGradient><radialGradient id="h" cx="-711.74" cy="-13.057" r="1.3333" gradientTransform="matrix(-8.0128,35.098,-27.549,-6.2894,-5981.4,24906)" gradientUnits="userSpaceOnUse"><stop stop-color="#ab71ff" offset=".2"/><stop stop-color="#a46bfc" offset=".29"/><stop stop-color="#9059f2" offset=".41"/><stop stop-color="#7542e5" offset=".54"/><stop stop-color="#6239bf" offset=".64"/><stop stop-color="#291d4f" offset=".94"/></radialGradient><radialGradient id="i" cx="-705.74" cy="-15.307" r="1.3333" gradientTransform="matrix(2.8801,27.285,-17.935,1.8931,1840.4,19307)" gradientUnits="userSpaceOnUse"><stop stop-color="#9658f9" offset=".09"/><stop stop-color="#8c51f3" offset=".14"/><stop stop-color="#7542e5" offset=".26"/><stop stop-color="#6e3ed6" offset=".29"/><stop stop-color="#5533a6" offset=".4"/><stop stop-color="#422980" offset=".5"/><stop stop-color="#342365" offset=".59"/><stop stop-color="#2c1e55" offset=".67"/><stop stop-color="#291d4f" offset=".74"/></radialGradient><radialGradient id="j-3" cx="-704.78" cy="13.103" r="1.3333" gradientTransform="matrix(23.383,0,0,23.383,16559,-280.64)" gradientUnits="userSpaceOnUse"><stop stop-color="#9658f9" offset="0"/><stop stop-color="#9155f6" offset=".12"/><stop stop-color="#834cee" offset=".25"/><stop stop-color="#7542e5" offset=".34"/><stop stop-color="#291d4f" offset=".78"/></radialGradient><radialGradient id="k-6" cx="-705.82" cy="12.014" r="1.3333" gradientTransform="matrix(25.54,0,0,25.54,18114,-279.28)" gradientUnits="userSpaceOnUse"><stop stop-color="#9658f9" offset=".19"/><stop stop-color="#834bed" offset=".49"/><stop stop-color="#7542e5" offset=".66"/><stop stop-color="#6b3dd2" offset=".7"/><stop stop-color="#52319f" offset=".79"/><stop stop-color="#291d4f" offset=".91"/></radialGradient><linearGradient id="l-7" x1="70.023" x2="15.276" y1="730.07" y2="784.82" gradientTransform="matrix(.42324 0 0 .42324 60.222 -288.13)" gradientUnits="userSpaceOnUse"><stop stop-color="#9059ff" stop-opacity=".9" offset="0"/><stop stop-color="#291d4f" stop-opacity="0" offset=".61"/></linearGradient></defs><path d="m9.6002-9.1447e-7h14.666c5.3184 0 9.6002 4.2817 9.6002 9.6002v14.666c0 5.3184-4.2817 9.6002-9.6002 9.6002h-14.666c-5.3184 0-9.6002-4.2817-9.6002-9.6002v-14.666c-1e-15 -5.3184 4.2817-9.6002 9.6002-9.6002z" fill="#1d1033" stroke-width=".33867"/><g transform="matrix(.80161 0 0 .80129 -44.913 -9.2591)" stroke-width=".42324"><path d="m92.351 27.109c-0.71528-1.7141-2.1585-3.5679-3.2928-4.152 0.92266 1.8072 1.4559 3.6229 1.6633 4.9773v0.02539c-1.8538-4.6218-5.0027-6.484-7.5718-10.543-0.1312-0.20739-0.25818-0.41054-0.38938-0.63063-0.07195-0.12274-0.12697-0.23278-0.17776-0.33859-0.10581-0.20739-0.19046-0.42324-0.24548-0.64756 0-0.0127-0.0042-0.02116-0.0085-0.02963-0.0085-0.0085-0.01693-0.0127-0.02539-0.0127-0.0085-0.0042-0.02116-0.0042-0.02963 0l-0.0085 0.0042c-0.0042 0-0.0085 0.0042-0.0127 0.0042l0.0042-0.0085c-4.1224 2.4125-5.5191 6.8777-5.646 9.1124-1.6464 0.11428-3.2209 0.71951-4.516 1.7395-0.13544-0.11428-0.27934-0.22008-0.42324-0.32166-0.37245-1.3078-0.38938-2.6918-0.04656-4.0081-1.6845 0.76607-2.9965 1.9808-3.9488 3.0516h0.0042c-0.65179-0.82532-0.60523-3.5425-0.56714-4.1097-0.0085-0.03386-0.48673 0.24971-0.54598 0.29204-0.57561 0.41054-1.1089 0.86764-1.6041 1.3755-0.56291 0.56714-1.075 1.1851-1.5321 1.8369-1.0581 1.494-1.8072 3.1828-2.2051 4.9688-0.0085 0.03386-0.0127 0.07195-0.02116 0.11004-0.02963 0.1439-0.1439 0.86764-0.16083 1.0242v0.03386c-0.14376 0.74501-0.23264 1.5026-0.2665 2.2644v0.08465c0 9.0616 7.3432 16.405 16.405 16.405 8.1135 0 14.852-5.8915 16.172-13.628 0.02963-0.20739 0.05079-0.41901 0.07618-0.63063 0.3132-2.8188-0.05502-5.7772-1.0793-8.249zm-18.91 12.841c0.07618 0.03809 0.14813 0.07618 0.22855 0.11004l0.0127 0.0085c-0.08042-0.03809-0.16083-0.08042-0.24125-0.11851zm17.285-11.982v-0.01693z" fill="url(#a)"/><path d="m92.351 27.109c-0.71528-1.7141-2.1585-3.5679-3.2928-4.152 0.92266 1.8072 1.4559 3.6229 1.6633 4.9773v0.03386c1.5491 4.1943 0.70258 8.4648-0.51212 11.072-1.8792 4.0335-6.4333 8.1685-13.552 7.9696-7.6945-0.22008-14.475-5.9296-15.74-13.412-0.23278-1.1808 0-1.7776 0.11428-2.7341-0.13967 0.73644-0.19469 0.95229-0.26664 2.2643v0.08465c0 9.0616 7.3432 16.405 16.405 16.405 8.1135 0 14.852-5.8915 16.172-13.628 0.02963-0.21162 0.05079-0.41901 0.07618-0.63063 0.3259-2.8188-0.04232-5.7772-1.0666-8.249z" fill="url(#b)"/><path d="m92.351 27.109c-0.71528-1.7141-2.1585-3.5679-3.2928-4.152 0.92266 1.8072 1.4559 3.6229 1.6633 4.9773v0.03386c1.5491 4.1943 0.70258 8.4648-0.51212 11.072-1.8792 4.0335-6.4333 8.1685-13.552 7.9696-7.6945-0.22008-14.475-5.9296-15.74-13.412-0.23278-1.1808 0-1.7776 0.11428-2.7341-0.13967 0.73644-0.19469 0.95229-0.26664 2.2643v0.08465c0 9.0616 7.3432 16.405 16.405 16.405 8.1135 0 14.852-5.8915 16.172-13.628 0.02963-0.21162 0.05079-0.41901 0.07618-0.63063 0.3259-2.8188-0.04232-5.7772-1.0666-8.249z" fill="url(#c)"/><path d="m84.381 29.039 0.10158 0.07618c-0.41054-0.7322-0.92266-1.4009-1.5237-1.9892-5.1001-5.1001-1.3374-11.059-0.70258-11.36l0.0042-0.0085c-4.1224 2.4125-5.5191 6.8777-5.646 9.1124 0.19046-0.0127 0.38092-0.02963 0.57561-0.02963 3.077 0 5.7561 1.6887 7.1909 4.1985z" fill="url(#d)"/><path d="m77.237 30.055c-0.02539 0.40631-1.4686 1.8157-1.9723 1.8157-4.6641 0-5.4217 2.823-5.4217 2.823 0.20739 2.3786 1.8623 4.334 3.8642 5.3709 0.09311 0.04656 0.18199 0.08888 0.27511 0.1312 0.16083 0.07195 0.32166 0.13544 0.48249 0.19892 0.68565 0.24125 1.4052 0.38092 2.1331 0.41054 8.177 0.38515 9.7599-9.7769 3.86-12.727 1.511-0.26241 3.0812 0.34706 3.9573 0.96076-1.4348-2.5056-4.1139-4.1985-7.1866-4.1985-0.19469 0-0.38938 0.01693-0.57561 0.02963-1.6464 0.11428-3.2209 0.71951-4.516 1.7395 0.24971 0.21162 0.53328 0.49519 1.1258 1.0793 1.1089 1.0962 3.9658 2.2305 3.9742 2.3659z" fill="url(#e)"/><path d="m77.237 30.055c-0.02539 0.40631-1.4686 1.8157-1.9723 1.8157-4.6641 0-5.4217 2.823-5.4217 2.823 0.20739 2.3786 1.8623 4.334 3.8642 5.3709 0.09311 0.04656 0.18199 0.08888 0.27511 0.1312 0.16083 0.07195 0.32166 0.13544 0.48249 0.19892 0.68565 0.24125 1.4052 0.38092 2.1331 0.41054 8.177 0.38515 9.7599-9.7769 3.86-12.727 1.511-0.26241 3.0812 0.34706 3.9573 0.96076-1.4348-2.5056-4.1139-4.1985-7.1866-4.1985-0.19469 0-0.38938 0.01693-0.57561 0.02963-1.6464 0.11428-3.2209 0.71951-4.516 1.7395 0.24971 0.21162 0.53328 0.49519 1.1258 1.0793 1.1089 1.0962 3.9658 2.2305 3.9742 2.3659z" fill="url(#f)"/><path d="m71.333 26.063c0.1312 0.08465 0.24125 0.1566 0.33859 0.22432-0.37245-1.3078-0.38938-2.6918-0.04656-4.0081-1.6845 0.76607-2.9965 1.9808-3.9488 3.0516 0.08042 0 2.4633-0.04656 3.6568 0.73221z" fill="url(#g)"/><path d="m60.917 33.597c1.2655 7.4787 8.0458 13.192 15.745 13.408 7.1231 0.20316 11.677-3.9319 13.552-7.9696 1.2147-2.6072 2.057-6.8734 0.51212-11.072v-0.03386 0.02539c0.57984 3.8007-1.3501 7.4787-4.3721 9.9673l-0.0085 0.02116c-5.8873 4.7953-11.521 2.8907-12.663 2.112-0.07618-0.03809-0.1566-0.07618-0.23702-0.11851-3.4325-1.6422-4.8503-4.7699-4.5456-7.449-2.8992 0-3.8854-2.4463-3.8854-2.4463s2.6029-1.8538 6.0312-0.24125c3.1785 1.494 6.1582 0.24125 6.1582 0.24125-0.0042-0.13544-2.8611-1.2697-3.9742-2.3659-0.59677-0.58407-0.87611-0.86764-1.1258-1.0793-0.13544-0.11428-0.27934-0.22009-0.42324-0.32166-0.09734-0.06772-0.20739-0.13967-0.33859-0.22432-1.1978-0.77876-3.5764-0.73644-3.6526-0.73221h-0.0042c-0.65179-0.82532-0.60523-3.5425-0.56714-4.1097-0.0085-0.03386-0.48673 0.24971-0.54598 0.29204-0.57561 0.41054-1.1089 0.86764-1.6041 1.3755-0.56291 0.56714-1.075 1.1851-1.5321 1.8369-1.0581 1.494-1.8072 3.1828-2.2051 4.9688-0.02116 0.04656-0.601 2.5945-0.3132 3.915z" fill="url(#h)"/><path d="m82.959 27.126c0.59677 0.5883 1.1089 1.257 1.5237 1.9892 0.08888 0.06772 0.17353 0.13544 0.24548 0.19892 3.7203 3.4282 1.7691 8.2744 1.6252 8.6214 3.0219-2.4929 4.9561-6.1708 4.3721-9.9673-1.8538-4.6303-4.9985-6.4925-7.5675-10.551-0.1312-0.20739-0.25818-0.41054-0.38938-0.63063-0.07195-0.12274-0.1312-0.23278-0.18199-0.33859-0.10581-0.20739-0.19046-0.42324-0.24548-0.64756 0-0.0127-0.0042-0.02116-0.0085-0.02963-0.0085-0.0085-0.01693-0.0127-0.0254-0.0127-0.0085-0.0042-0.02116-0.0042-0.02963 0l-0.0085 0.0042c-0.0042 0-0.0085 0.0042-0.0127 0.0042-0.63486 0.3005-4.3975 6.2597 0.70258 11.36z" fill="url(#i)"/><path d="m84.728 29.314c-0.07195-0.06349-0.1566-0.1312-0.24548-0.19892l-0.10158-0.07618c-0.87611-0.6137-2.4421-1.2232-3.9573-0.96076 5.9 2.95 4.3171 13.108-3.86 12.727-0.72797-0.02963-1.4475-0.1693-2.1331-0.41054-0.16083-0.05925-0.32166-0.12697-0.48249-0.19892-0.09311-0.04232-0.18623-0.08465-0.27511-0.1312l0.0127 0.0085c1.1428 0.77876 6.7761 2.6791 12.663-2.112l0.0085-0.02116c0.13967-0.35129 2.0866-5.1974-1.6295-8.6256z" fill="url(#j-3)"/><path d="m69.805 34.693s0.7576-2.823 5.4217-2.823c0.50366 0 1.9469-1.4052 1.9723-1.8157 0 0-2.9838 1.2528-6.1582-0.24125-3.4283-1.6125-6.0312 0.24125-6.0312 0.24125s0.99038 2.4463 3.8854 2.4463c-0.30473 2.6833 1.1131 5.8069 4.5456 7.449 0.07618 0.03809 0.14813 0.07618 0.22855 0.11004-2.0019-1.0327-3.6568-2.9923-3.8642-5.3667z" fill="url(#k-6)"/><path d="m92.351 27.109c-0.71528-1.7141-2.1585-3.5679-3.2928-4.152 0.92266 1.8072 1.4559 3.6229 1.6633 4.9773v0.02539c-1.8538-4.6218-5.0027-6.484-7.5718-10.543-0.1312-0.20739-0.25818-0.41054-0.38938-0.63063-0.07195-0.12274-0.12697-0.23278-0.17776-0.33859-0.10581-0.20739-0.19046-0.42324-0.24548-0.64756 0-0.0127-0.0042-0.02116-0.0085-0.02963-0.0085-0.0085-0.01693-0.0127-0.02539-0.0127-0.0085-0.0042-0.02116-0.0042-0.02963 0l-0.0085 0.0042c-0.0042 0-0.0085 0.0042-0.0127 0.0042l0.0042-0.0085c-4.1224 2.4125-5.5191 6.8777-5.646 9.1124 0.19046-0.0127 0.38092-0.02963 0.57561-0.02963 3.077 0 5.7561 1.693 7.1866 4.1985-0.87611-0.6137-2.4421-1.2232-3.9573-0.96076 5.9 2.95 4.3171 13.108-3.86 12.727-0.72798-0.02963-1.4475-0.1693-2.1331-0.41054-0.16083-0.05925-0.32166-0.12697-0.48249-0.19892-0.09311-0.04232-0.18623-0.08465-0.27511-0.1312l0.0127 0.0085c-0.07618-0.03809-0.1566-0.07618-0.23701-0.11851 0.07618 0.03809 0.14813 0.07618 0.22855 0.11004-2.0019-1.0369-3.661-2.9923-3.8642-5.3667 0 0 0.7576-2.823 5.4217-2.823 0.50366 0 1.9469-1.4052 1.9723-1.8157-0.0042-0.13544-2.8611-1.2697-3.9742-2.3659-0.59677-0.58407-0.87611-0.86764-1.1258-1.0793-0.13544-0.11428-0.27934-0.22008-0.42324-0.32166-0.37245-1.3078-0.38938-2.6918-0.04656-4.0081-1.6845 0.76607-2.9965 1.9808-3.9488 3.0516-0.65179-0.82532-0.60523-3.5425-0.56714-4.1097-0.0085-0.03386-0.48673 0.24971-0.54598 0.29204-0.57561 0.41054-1.1089 0.86764-1.6041 1.3755-0.56291 0.56714-1.075 1.1851-1.5321 1.8369-1.0581 1.494-1.8072 3.1828-2.2051 4.9688-0.0085 0.03386-0.0127 0.07195-0.02116 0.11004-0.02963 0.1439-0.1693 0.87611-0.19046 1.0327-0.12697 0.7576-0.20739 1.5237-0.24125 2.2897v0.08465c0 9.0616 7.3432 16.405 16.405 16.405 8.1135 0 14.852-5.8915 16.172-13.628 0.02963-0.20739 0.05079-0.41901 0.07618-0.63063 0.31743-2.823-0.05079-5.7815-1.075-8.2532zm-1.6252 0.84225v0.01693z" fill="url(#l-7)"/></g></svg>
