<svg width="128" height="128" version="1.1" viewBox="0 0 33.867 33.867" xmlns="http://www.w3.org/2000/svg"><g transform="matrix(.23559 0 0 .23559 1.8105e-7 .00017997)"><path d="m97.545 29.843s2.554-8.59 10.911-13c8.357-4.411 28.553-4.411 31.57-3.018 3.018 1.393 3.947 25.999 0 32.034-3.946 6.036-11.839 9.286-18.106 9.286-6.268 0-25.999-15.089-25.999-15.089z" fill="#e91e63"/><path d="m104.86 31.267s1.694-5.697 7.238-8.623c5.543-2.926 18.941-2.926 20.943-2.002s2.618 17.247 0 21.251-7.854 6.159-12.011 6.159c-4.158 0-17.248-10.009-17.248-10.009z" fill="#424242"/><path d="m46.206 29.843s-2.554-8.59-10.911-13c-8.356-4.411-28.553-4.411-31.57-3.018-3.018 1.393-3.946 25.999 0 32.034 3.946 6.036 11.839 9.286 18.106 9.286 6.268 0 25.999-15.089 25.999-15.089z" fill="#e91e63"/><path d="m38.888 31.267s-1.694-5.697-7.237-8.623c-5.544-2.926-18.941-2.926-20.943-2.002s-2.618 17.247 0 21.251 7.854 6.159 12.012 6.159 17.247-10.009 17.247-10.009z" fill="#424242"/></g><path d="m8.1036 7.1525s1.1318 0.00899 2.048 0.26551c0 0-2.3456 0.47637-4.178 1.6856 0 0 0.69618 0.036774 1.6126 0.18329 0 0-2.8064 2.0574-4.9931 5.1856 7.3768 1.4324 8.7289 9.3139 8.7289 9.3139 0.30485-0.48744 2.4372-1.9497 2.4372-1.9497 0.91786-10.59-0.71926-15.081-1.5827-16.652-1.5059 0.43396-2.9788 1.0762-4.0729 1.9677zm18.177 2.1344c0.91621-0.14654 1.6126-0.18329 1.6126-0.18329-1.8324-1.2093-4.1777-1.6856-4.1777-1.6856 0.91622-0.25656 2.048-0.26551 2.048-0.26551-1.0943-0.89148-2.567-1.5337-4.0731-1.9677-0.86343 1.5709-2.5006 6.0615-1.5827 16.652 0 0 2.1326 1.4623 2.4372 1.9497 0 0 1.3521-7.8815 8.7289-9.3139-2.1868-3.1279-4.9931-5.1856-4.9931-5.1856z" fill="#212121" stroke-width=".23559"/><g transform="matrix(.23559 0 0 .23559 1.8105e-7 .00017997)"><path d="m128.2 91.998c9.178-0.623 15.556 4.2 15.556 4.2-1.4-14.468-11.044-19.134-11.044-19.134 6.222 0.622 9.645 4.666 9.645 4.666-1.845-7.679-5.674-14.776-10.023-20.884 0.139 0.194 0.279 0.387 0.416 0.583-31.312 6.08-37.051 39.534-37.051 39.534-1.293-2.069-10.345-8.276-10.345-8.276-3.896-44.952 3.054-64.013 6.718-70.681-7.263-2.092-14.707-3.04-20.19-3.04-6.07 0-14.542 1.159-22.511 3.752 0.77-0.25 1.544-0.488 2.321-0.712 3.665 6.668 10.614 25.729 6.718 70.681 0 0-9.052 6.207-10.345 8.276 0 0-5.74-33.454-37.052-39.534 0.138-0.196 0.277-0.389 0.416-0.583-4.351 6.108-8.18 13.206-10.025 20.885 0 0 3.422-4.044 9.645-4.666 0 0-9.645 4.666-11.045 19.134 0 0 6.378-4.823 15.556-4.2 0 0-9.8 0.934-13.222 11.667 0 0 12.013-7.723 29.168-2.784 15.974 4.599 15.005 24.445 26.677 28.606 9.641 3.438 13.697-1.244 13.697-1.244s4.056 4.682 13.697 1.244c11.671-4.161 10.703-24.008 26.677-28.606 17.156-4.938 29.169 2.784 29.169 2.784-3.423-10.734-13.223-11.668-13.223-11.668z" fill="#e91e63"/><path d="m71.876 101.79c-10.66 0-15.61 4.697-15.61 4.697s10.557 14.105 15.61 14.352c5.053-0.247 15.61-14.352 15.61-14.352s-4.95-4.697-15.61-4.697z" fill="#212121"/><path d="m71.876 104.16c9.164 0 14.204 1.759 15.605 2.332l4e-3 -6e-3s-4.95-4.697-15.61-4.697-15.61 4.697-15.61 4.697l4e-3 6e-3c1.403-0.573 6.442-2.332 15.607-2.332z" fill="#424242"/><ellipse transform="matrix(.9602 -.2794 .2794 .9602 -15.818 30.286)" cx="98.317" cy="70.621" rx="10.771" ry="13.034" fill="#424242"/><circle cx="98.316" cy="69.891" r="6.81" fill="#332a24"/><circle cx="98.317" cy="69.891" r="4.375" fill="#4d4a47"/><circle cx="96.999" cy="68.527" r="1.761" fill="#fff"/><ellipse transform="matrix(-.9602 -.2794 .2794 -.9602 69.326 151.13)" cx="45.435" cy="70.621" rx="10.771" ry="13.034" fill="#424242"/><circle cx="45.435" cy="69.891" r="6.81" fill="#332a24"/><circle cx="45.435" cy="69.891" r="4.375" fill="#4d4a47"/><circle cx="44.117" cy="68.527" r="1.761" fill="#fff"/></g><path d="m30.064 21.674c2.1623-0.14678 3.6649 0.98948 3.6649 0.98948-0.32982-3.4085-2.6019-4.5078-2.6019-4.5078 1.4658 0.14654 2.2723 1.0993 2.2723 1.0993-0.421-1.7523-1.2819-3.3739-2.2664-4.7818 8.9e-4 -2.4e-4 0.0018-4.72e-4 0.0027-8.9e-4 -0.03223-0.04621-0.06527-0.09164-0.09801-0.13735 2.41e-4 2.32e-4 2.41e-4 4.72e-4 4.72e-4 7.04e-4 -0.38401-0.5395-0.78476-1.0463-1.1853-1.5148 1.1546-0.29802 2.322-0.98288 2.9981-2.0169 0.92988-1.4218 0.71101-7.219 0-7.5469-0.71101-0.32841-5.4688-0.32841-7.4376 0.71101-0.96545 0.50959-1.6006 1.255-1.9987 1.8833-0.59843-0.26056-1.2265-0.48343-1.8624-0.66672-1.7111-0.49286-3.4648-0.71619-4.7566-0.71619v25.744s0.95556 1.103 3.2269 0.29307c2.7496-0.98029 2.5215-5.6561 6.2849-6.7393 4.0418-1.1634 6.8717 0.65588 6.8717 0.65588-0.80642-2.5284-3.1155-2.7484-3.1155-2.7484z" fill="#5c4337" opacity=".1" stroke-width=".23559"/></svg>
