<svg width="128" height="128" version="1.1" viewBox="0 0 33.867 33.867" xmlns="http://www.w3.org/2000/svg"><defs><linearGradient id="_Linear1" x2="1" gradientTransform="matrix(0,40.021,-40.021,0,24,3.2919)" gradientUnits="userSpaceOnUse"><stop stop-color="#205c9d" offset="0"/><stop stop-color="#05101b" offset=".66"/><stop stop-color="#05101b" offset="1"/></linearGradient><radialGradient id="_Radial2" cx="0" cy="0" r="1" gradientTransform="matrix(0,-18.525,18.506,0,24,27.694)" gradientUnits="userSpaceOnUse"><stop stop-color="#88608c" offset="0"/><stop stop-color="#8f7664" offset=".69"/><stop stop-color="#907029" offset="1"/></radialGradient><linearGradient id="_Linear3" x2="1" gradientTransform="matrix(-32.682,16.274,-16.274,-32.682,43.322,15.932)" gradientUnits="userSpaceOnUse"><stop stop-color="#d59c14" offset="0"/><stop stop-color="#f8a912" offset=".29"/><stop stop-color="#fddf00" offset="1"/></linearGradient><linearGradient id="_Linear4" x2="1" gradientTransform="matrix(-49.261,21.428,-21.428,-49.261,57.801,12.353)" gradientUnits="userSpaceOnUse"><stop stop-color="#d59c14" offset="0"/><stop stop-color="#f8a912" offset=".07"/><stop stop-color="#fddf00" offset="1"/></linearGradient></defs><g transform="matrix(.87681 0 0 .87681 -4.1105 -4.1105)"><path d="m4.688 12.938c0-4.557 3.693-8.25 8.25-8.25h22.125c4.556 0 8.25 3.693 8.25 8.25v22.125c0 4.556-3.694 8.25-8.25 8.25h-22.125c-4.557 0-8.25-3.694-8.25-8.25z" fill="url(#_Linear1)"/><path d="m16.2 9.844h-5.7v28.125h5.7v-14.7l3.9 7.425h7.8l3.9-7.425v14.7h5.7v-28.125h-5.7l-7.8 14.775z" fill="url(#_Radial2)"/><path d="m16.2 12.844h-5.7v25.125h5.7v-14.7l3.9 7.425h7.8l3.9-7.425v14.7h5.7v-25.125h-5.7l-7.8 14.775z" fill="url(#_Linear3)"/><path d="m16.2 15.469h-5.7v22.5h5.7v-14.7l3.9 7.425h7.8l3.9-7.425v14.7h5.7v-22.5h-5.7l-7.8 14.7z" fill="url(#_Linear4)"/></g></svg>
