<svg xmlns="http://www.w3.org/2000/svg" xmlns:xlink="http://www.w3.org/1999/xlink" width="61" height="61" version="1.1" viewBox="0 0 61 61"><g id="Page-1" fill="none" fill-rule="evenodd" stroke="none" stroke-width="1"><g id="status-on-dark" fill="#CC80FF" fill-rule="nonzero"><path id="Fill-4" d="M51.7222976,29.9000395 C53.7806847,27.8629428 57.1855234,24.4890718 59.1755234,22.5000395 C59.5535879,22.121975 59.5535879,21.5090718 59.175846,21.1310073 C58.7977815,20.7532653 58.1855234,20.7535879 57.8071363,21.1306847 C55.2393944,23.6977815 50.3032653,28.5822976 48.9706847,29.9000395 L33.2039105,29.9000395 L43.9887492,19.1152008 C44.5145557,19.1216524 45.0410073,19.1252008 45.5674589,19.1252008 C46.8642331,19.1252008 48.1584266,19.1090718 49.421975,19.0929428 C51.8429428,19.0626202 54.3471363,19.0316524 56.8461686,19.1139105 C57.3874589,19.1271363 57.8277815,18.7132653 57.845846,18.1790718 C57.8635879,17.6448782 57.4448782,17.1974589 56.9103621,17.1797169 C54.3668137,17.0952008 51.8410073,17.1268137 49.3974589,17.1577815 C48.2548782,17.171975 47.0874589,17.1822976 45.9187492,17.1852008 L52.0810073,11.0229428 C52.4590718,10.6455234 52.4590718,10.0322976 52.0810073,9.65455566 C51.7032653,9.27649114 51.0900395,9.27649114 50.7126202,9.65455566 L44.8761686,15.4910073 C44.8910073,12.575846 44.9116524,7.95262017 44.9122976,5.21326533 C44.9126202,4.67874921 44.4790718,4.2455234 43.9448782,4.24520082 C43.4103621,4.24520082 42.9771363,4.67842662 42.9768137,5.21294275 C42.9761686,8.71100727 42.9422976,15.2839105 42.9306847,17.4364911 L31.8355234,28.5316524 L31.8355234,13.0864911 C32.9977815,11.9116524 38.0655234,6.78907179 40.6977815,4.15584598 C41.075846,3.77778146 41.075846,3.16520082 40.6977815,2.78745888 C40.3193944,2.40907179 39.7064911,2.40971695 39.3287492,2.78745888 C37.3090718,4.80810404 33.8616524,8.28778146 31.8355234,10.3345557 L31.8355234,1.8355234 C31.8355234,1.30100727 31.4022976,0.867781463 30.8677815,0.867781463 C30.3335879,0.867781463 29.9000395,1.30100727 29.9000395,1.8355234 L29.9000395,10.2890718 C29.1613299,9.5439105 28.428104,8.7971363 27.711975,8.06262017 C26.005846,6.31294275 24.2416524,4.5039105 22.3832653,2.76520082 C21.9932653,2.40003953 21.3810073,2.41971695 21.0155234,2.81036211 C20.6503621,3.20068469 20.6706847,3.81294275 21.0610073,4.17842662 C22.8868137,5.8871363 24.6352008,7.67971695 26.3261686,9.41358791 C27.4861686,10.6029428 28.6845557,11.8264911 29.9000395,13.0197169 L29.9000395,28.5316524 L19.3787492,18.0103621 C19.3735879,17.0690718 19.3293944,9.14487824 19.3290718,5.1771363 C19.3287492,4.64294275 18.895846,4.20939437 18.3610073,4.20971695 C17.8268137,4.20971695 17.3932653,4.64326533 17.3935879,5.17745888 C17.3939105,8.1171363 17.4184266,13.2245557 17.4329428,16.0642331 L11.0229428,9.65455566 C10.6455234,9.27649114 10.0322976,9.27649114 9.65455566,9.65455566 C9.27649114,10.0322976 9.27649114,10.6455234 9.65455566,11.0229428 L15.7800395,17.1484266 C14.8148782,17.1432653 13.8529428,17.1342331 12.9084266,17.1222976 C10.4648782,17.0913299 7.93874921,17.0593944 5.3955234,17.1442331 C4.86132985,17.161975 4.44262017,17.6090718 4.46036211,18.1435879 C4.47810404,18.6777815 4.92262017,19.0968137 5.45971695,19.0784266 C7.95842662,18.995846 10.4626202,19.0271363 12.8842331,19.0574589 C14.1477815,19.0732653 15.4416524,19.0893944 16.7384266,19.0893944 C17.0639105,19.0893944 17.3893944,19.085846 17.7152008,19.0835879 L28.5316524,29.9000395 L13.2916524,29.9000395 C11.9590718,28.5822976 7.02294275,23.6977815 4.45520082,21.1306847 C4.0771363,20.7535879 3.46455566,20.7532653 3.08681372,21.1310073 C2.70874921,21.5090718 2.70874921,22.121975 3.08681372,22.5000395 C5.07681372,24.4890718 8.48165243,27.8629428 10.5397169,29.9000395 L1.8355234,29.9000395 C1.30132985,29.9000395 0.867781463,30.3332653 0.867781463,30.8677815 C0.867781463,31.4022976 1.30132985,31.8355234 1.8355234,31.8355234 L10.6816524,31.8355234 C9.9055234,32.6064911 9.12616856,33.3713299 8.36003953,34.1184266 C6.61132985,35.8239105 4.80262017,37.5877815 3.06455566,39.4452008 C2.69939437,39.8355234 2.71939437,40.4477815 3.10971695,40.8129428 C3.29649114,40.9874589 3.5339105,41.0742331 3.77100727,41.0742331 C4.02939437,41.0742331 4.2871363,40.9710073 4.47745888,40.7674589 C6.1855234,38.9422976 7.97810404,37.1945557 9.71132985,35.5042331 C10.9316524,34.3142331 12.1887492,33.0839105 13.4116524,31.8355234 L28.5316524,31.8355234 L17.2216524,43.1455234 C15.5610073,43.1322976 13.8929428,43.1506847 12.2739105,43.1716524 C9.85262017,43.2013299 7.34842662,43.2326202 4.84971695,43.1503621 C4.31520082,43.1377815 3.86810404,43.5510073 3.85003953,44.0855234 C3.83229759,44.6197169 4.25100727,45.0671363 4.7855234,45.0845557 C7.32842662,45.1690718 9.85455566,45.1371363 12.2984266,45.1068137 C13.2806847,45.0945557 14.2822976,45.0852008 15.2864911,45.0806847 L9.65455566,50.7126202 C9.27649114,51.0900395 9.27649114,51.7032653 9.65455566,52.0810073 C9.84358791,52.2700395 10.0913299,52.3645557 10.3387492,52.3645557 C10.5864911,52.3645557 10.8342331,52.2700395 11.0229428,52.0810073 L16.821975,46.281975 C16.8074589,49.1426202 16.7839105,54.1516524 16.7835879,57.0513299 C16.7832653,57.585846 17.2168137,58.0193944 17.7510073,58.0193944 C18.2855234,58.0193944 18.7187492,57.5861686 18.7190718,57.051975 C18.7197169,53.2174589 18.7606847,45.6877815 18.7677815,44.3361686 L29.9000395,33.2039105 L29.9000395,48.715846 C28.6839105,49.9100395 27.4848782,51.1339105 26.3242331,52.3239105 C24.6339105,54.0571363 22.8861686,55.8490718 21.0610073,57.5571363 C20.6706847,57.9222976 20.6503621,58.5348782 21.0155234,58.9252008 C21.2061686,59.1284266 21.4639105,59.2316524 21.7222976,59.2316524 C21.9593944,59.2316524 22.1968137,59.1448782 22.3832653,58.9703621 C24.2410073,57.231975 26.0045557,55.4239105 27.7100395,53.6752008 C28.4271363,52.9400395 29.1610073,52.1922976 29.9000395,51.4468137 L29.9000395,59.9000395 C29.9000395,60.4345557 30.3335879,60.8677815 30.8677815,60.8677815 C31.4022976,60.8677815 31.8355234,60.4345557 31.8355234,59.9000395 L31.8355234,51.4010073 C33.8616524,53.448104 37.3090718,56.9271363 39.3287492,58.948104 C39.7068137,59.325846 40.3193944,59.3261686 40.6977815,58.9484266 C41.075846,58.5703621 41.075846,57.9577815 40.6977815,57.5797169 C38.0655234,54.9468137 32.9977815,49.8242331 31.8355234,48.6493944 L31.8355234,33.2039105 L42.735846,44.1042331 C42.7442331,45.6068137 42.7839105,52.9790718 42.7845557,56.7587492 C42.7848782,57.2932653 43.218104,57.7264911 43.7526202,57.7264911 C44.2871363,57.7264911 44.7203621,57.2929428 44.7200395,56.7587492 C44.7197169,53.8793944 44.6964911,48.9210073 44.681975,46.0500395 L50.7126202,52.0810073 C50.9013299,52.2700395 51.1490718,52.3645557 51.3968137,52.3645557 C51.6442331,52.3645557 51.8922976,52.2700395 52.0810073,52.0810073 C52.4590718,51.7032653 52.4590718,51.0900395 52.0810073,50.7126202 L46.1561686,44.7874589 C47.1806847,44.7922976 48.2029428,44.8013299 49.2055234,44.8139105 C51.6487492,44.8448782 54.1745557,44.8768137 56.7184266,44.791975 C57.2526202,44.7742331 57.6713299,44.3271363 57.6535879,43.7926202 C57.6355234,43.2584266 57.1955234,42.8461686 56.6539105,42.8577815 C54.1548782,42.9400395 51.6510073,42.9087492 49.2297169,42.8787492 C47.5913299,42.858104 45.9026202,42.8390718 44.2216524,42.8532653 L33.2039105,31.8355234 L48.8506847,31.8355234 C50.0735879,33.0839105 51.3310073,34.3142331 52.5510073,35.5042331 C54.2845557,37.1945557 56.0764911,38.9422976 57.7845557,40.7674589 C57.9752008,40.9710073 58.2329428,41.0742331 58.4916524,41.0742331 C58.7284266,41.0742331 58.965846,40.9874589 59.1526202,40.8129428 C59.5429428,40.4477815 59.5632653,39.8355234 59.1977815,39.4452008 C57.4597169,37.5877815 55.6513299,35.8239105 53.9022976,34.1184266 C53.1361686,33.3713299 52.3568137,32.6064911 51.5806847,31.8355234 L59.9000395,31.8355234 C60.4345557,31.8355234 60.8677815,31.4022976 60.8677815,30.8677815 C60.8677815,30.3332653 60.4345557,29.9000395 59.9000395,29.9000395 L51.7222976,29.9000395 Z"/></g></g></svg>