<?xml version="1.0" encoding="UTF-8"?>
<svg width="128" height="128" version="1.1" viewBox="0 0 33.867 33.867" xmlns="http://www.w3.org/2000/svg"><g stroke-width=".066148"><g><path d="m16.933 16.933 7.3325 4.2332-7.3325 12.7c9.352 0 16.933-7.5812 16.933-16.933 0-3.0852-0.8292-5.9752-2.2709-8.4667h-14.663z" fill="#9c9c9c"/><path d="m16.933-1.1601e-6c-6.2675 0-11.736 3.4075-14.664 8.4687l7.331 12.698 7.3325-4.2332v-8.4667h14.663c-2.9285-5.06-8.3958-8.4667-14.663-8.4667z" fill="#212121"/><path d="m9.884e-5 16.933c0 9.352 7.581 16.933 16.933 16.933l7.3325-12.7-7.3325-4.2332-7.3325 4.2332-7.331-12.698c-1.4409 2.4908-2.2699 5.3797-2.2699 8.4645" fill="#595959"/></g><path d="m25.4 16.933c0 4.676-3.7908 8.4667-8.4668 8.4667-4.676 0-8.4668-3.7907-8.4668-8.4667s3.7908-8.4667 8.4668-8.4667c4.676 0 8.4668 3.7907 8.4668 8.4667" fill="#fff"/><path d="m23.813 16.933c0 3.7992-3.08 6.8792-6.8793 6.8792-3.7993 0-6.8793-3.08-6.8793-6.8792s3.08-6.8792 6.8793-6.8792c3.7993 0 6.8793 3.08 6.8793 6.8792"/></g></svg>
