<svg width="128" height="128" version="1.1" viewBox="0 0 33.867 33.867" xmlns="http://www.w3.org/2000/svg"><defs><linearGradient id="a" x1="45.04" x2="231.72" y1="231.72" y2="45.04" gradientTransform="matrix(.12828 0 0 .12828 -.81844 -.81845)" gradientUnits="userSpaceOnUse"><stop stop-color="#fff" offset="0"/><stop stop-color="#b8edff" offset="0"/><stop stop-color="#d4b8ff" offset="1"/></linearGradient></defs><circle cx="16.933" cy="16.933" r="16.933" fill="url(#a)" stroke-width=".12828"/><path d="m28.631 22.515-0.51313 3.1032m-22.87-2.9762 1.8999 1.796m12.284-17.658-12.297 17.634a0.011545 0.011545 0 0 0 0.00898 0.01924l20.963 1.202a0.011545 0.011545 0 0 0 0.01154-0.01668l-8.6681-18.836a0.012828 0.012828 0 0 0-0.01796-0.00257zm-2.5323-1.7049-11.666 17.543a0.016677 0.016677 0 0 0 0.014109 0.02437l23.371-0.10262a0.015394 0.015394 0 0 0 0.01283-0.02437l-11.705-17.44a0.015394 0.015394 0 0 0-0.02694 0zm0.01411-0.020524 2.5362 1.7087" fill="none" shape-rendering="geometricPrecision" stroke="#1d1d1b" stroke-miterlimit="10" stroke-width=".7697px" data-name="Logo Pfad"/></svg>
