<?xml version="1.0" encoding="UTF-8"?>
<svg width="128" height="128" version="1.1" viewBox="0 0 33.867 33.867" xmlns="http://www.w3.org/2000/svg" xmlns:xlink="http://www.w3.org/1999/xlink"><defs><mask id="holes"><rect x="-60" y="-60" width="120" height="120" fill="#fff"/><circle id="hole" cy="-40" r="3"/><use transform="rotate(72)" xlink:href="#hole"/><use transform="rotate(144)" xlink:href="#hole"/><use transform="rotate(216)" xlink:href="#hole"/><use transform="rotate(-72)" xlink:href="#hole"/></mask></defs><g id="logo" transform="matrix(.32254 0 0 .32254 16.933 16.933)"><g id="gear" mask="url(#holes)" stroke="#fff"><path d="m-31.172-33.813 26.496 74.189h9.3515l26.496-74.189h-9.7672l-16.729 47.589q-1.6625 4.5719-2.8055 8.6242-1.143 3.9484-1.8703 7.5851-0.72734-3.6367-1.8703-7.689-1.143-4.0523-2.8055-8.7281l-16.625-47.381z" fill="#fff" stroke-width="4.5117"/><circle transform="scale(-1,1)" r="43" fill="none" stroke-width="9"/><g id="cogs" transform="scale(-1,1)"><polygon id="cog" points="46 3 51 0 46 -3" fill="#fff" stroke="#fff" stroke-linejoin="round" stroke-width="3"/><g fill="#fff" stroke="#fff"><use transform="rotate(11.25)" xlink:href="#cog"/><use transform="rotate(22.5)" xlink:href="#cog"/><use transform="rotate(33.75)" xlink:href="#cog"/><use transform="rotate(45)" xlink:href="#cog"/><use transform="rotate(56.25)" xlink:href="#cog"/><use transform="rotate(67.5)" xlink:href="#cog"/><use transform="rotate(78.75)" xlink:href="#cog"/><use transform="rotate(90)" xlink:href="#cog"/><use transform="rotate(101.25)" xlink:href="#cog"/><use transform="rotate(112.5)" xlink:href="#cog"/><use transform="rotate(123.75)" xlink:href="#cog"/><use transform="rotate(135)" xlink:href="#cog"/><use transform="rotate(146.25)" xlink:href="#cog"/><use transform="rotate(157.5)" xlink:href="#cog"/><use transform="rotate(168.75)" xlink:href="#cog"/><use transform="scale(-1)" xlink:href="#cog"/><use transform="rotate(191.25)" xlink:href="#cog"/><use transform="rotate(202.5)" xlink:href="#cog"/><use transform="rotate(213.75)" xlink:href="#cog"/><use transform="rotate(225)" xlink:href="#cog"/><use transform="rotate(236.25)" xlink:href="#cog"/><use transform="rotate(247.5)" xlink:href="#cog"/><use transform="rotate(258.75)" xlink:href="#cog"/><use transform="rotate(-90)" xlink:href="#cog"/><use transform="rotate(-78.75)" xlink:href="#cog"/><use transform="rotate(-67.5)" xlink:href="#cog"/><use transform="rotate(-56.25)" xlink:href="#cog"/><use transform="rotate(-45)" xlink:href="#cog"/><use transform="rotate(-33.75)" xlink:href="#cog"/><use transform="rotate(-22.5)" xlink:href="#cog"/><use transform="rotate(-11.25)" xlink:href="#cog"/></g></g><g id="mounts" transform="scale(-1,1)"><polygon id="mount" points="-7 -42 0 -35 7 -42" fill="#fff" stroke="#fff" stroke-linejoin="round" stroke-width="6"/><g fill="#fff" stroke="#fff"><use transform="rotate(72)" xlink:href="#mount"/><use transform="rotate(144)" xlink:href="#mount"/><use transform="rotate(216)" xlink:href="#mount"/><use transform="rotate(-72)" xlink:href="#mount"/></g></g></g><mask><rect x="-60" y="-60" width="120" height="120" fill="#fff"/><circle cy="-40" r="3"/><use transform="rotate(72)" xlink:href="#hole"/><use transform="rotate(144)" xlink:href="#hole"/><use transform="rotate(216)" xlink:href="#hole"/><use transform="rotate(-72)" xlink:href="#hole"/></mask></g></svg>
