<?xml version="1.0" encoding="UTF-8"?>
<svg width="128" height="128" version="1.1" viewBox="0 0 33.867 33.867" xmlns="http://www.w3.org/2000/svg"><defs><radialGradient id="a" cx="250.34" cy="1008" r="26.421" gradientTransform="matrix(.41116 -.0047432 .0056477 .48958 -91.645 -470.93)" gradientUnits="userSpaceOnUse"><stop stop-color="#7ecff3" stop-opacity=".98039" offset="0"/><stop stop-color="#87d0ef" stop-opacity=".98824" offset=".66885"/><stop stop-color="#0c84ce" offset="1"/></radialGradient></defs><path d="m16.607 0.48083c-4.4582 0-8.193 3.5554-8.193 8.0147v3.9246a12.214 12.214 0 0 0-3.6957 8.7517 12.214 12.214 0 0 0 12.215 12.214 12.214 12.214 0 0 0 12.214-12.214 12.214 12.214 0 0 0-3.8655-8.8946v-3.782c0-4.459-3.543-8.0147-8.0011-8.0147zm-0.052549 2.883h0.22523c2.745 0 4.8987 2.2475 4.8987 4.9926v1.5616a12.214 12.214 0 0 0-4.7449-0.96004 12.214 12.214 0 0 0-5.3473 1.2425v-1.8441c0-2.745 2.2232-4.9926 4.9682-4.9926z" fill="url(#a)" stroke="#000" stroke-width=".96099"/><path d="m11.235 19.445c0.06956-3.6517 1.2172-6.26 2.1214-6.26 1.1129 0 2.7126 1.5302 3.8255 1.5302 0.69551 0 2.2605-1.1128 3.4778-1.1128 0.62599 0 1.6315 1.9827 1.6662 5.3215-4.3885 0.25147-7.3042 1.9609-11.091 0.5212z" fill-rule="evenodd" stroke-width=".068054"/><path d="m15.553 23.209c0.67434-0.41309 1.7756-0.38573 2.3726-0.04708l0.0098 0.49172c-0.62789-0.34413-1.7282-0.32225-2.3726 0.04708z" fill-rule="evenodd" stroke-width=".068054"/><path d="m18.867 27.687s-0.20215 0.75907-1.895 0.81876c-1.8786 0.08812-2.1123-0.633-2.1123-0.633" fill="none" stroke="#000" stroke-linecap="round" stroke-linejoin="round" stroke-width=".96099"/><g fill-rule="evenodd" stroke-width=".068054"><path d="m7.9223 19.924c0.033252-1.3309 5.5358 1.0118 7.2348 0.79065 2.6487-0.19148 9.9331-2.4542 10.299-0.75737 0.26618 1.4973-2.0458 0.32123-6.3475 0.97582 0 0-11.187 1.2202-11.187-1.0091z"/><path d="m10.975 23.298c0.54965-0.79882 3.0422-1.045 4.8514-0.25243 0 0 0.27153 0.80753-0.07045 1.3239-0.28129 0.8521-2.8723 1.724-4.3748 0.74771-0.57042-0.47474-0.65288-1.1139-0.40604-1.8192z"/><path d="m22.473 22.743c-0.64467-0.7243-3.1485-0.6588-4.8451 0.35243 0 0-0.16906 0.83502 0.23443 1.3049 0.38502 0.81059 3.0643 1.3537 4.4338 0.19828 0.507-0.54198 0.50939-1.1865 0.17682-1.8556z"/></g></svg>
