<?xml version="1.0" encoding="UTF-8"?>
<svg width="128" height="128" version="1.1" viewBox="0 0 33.867 33.867" xmlns="http://www.w3.org/2000/svg"><path d="m16.891 2.5654c-5.1683 0-8.0214 4.3847-8.0214 8.6654h16.043c0-4.2807-3.2193-8.6654-8.0214-8.6654z" fill="#cfcfcf" style="stroke-width:.030564"/><path d="m16.891 4.1914c-4.1985 0-6.5165 3.5619-6.5165 7.0394l6.5165 0.73903 6.5165-0.73903c0-3.4775-2.6153-7.0394-6.5165-7.0394z" fill="#585e62" style="stroke-width:.030564"/><path d="m2.7434 25.168a0.61127 0.61127 0 0 1-0.068157-1.2189 1.3081 1.3081 0 1 0-1.2904-0.6669 0.61127 0.61127 0 0 1-1.0697 0.59018 2.5304 2.5304 0 1 1 2.4989 1.2916 0.66568 0.66568 0 0 1-0.070602 4e-3z" fill="#585e62" style="stroke-width:.030564"/><rect transform="rotate(27.09)" x="10.964" y="12.792" width="3.1994" height="4.407" rx="1.5105" fill="#cfcfcf" style="stroke-width:.030564"/><path d="m5.5481 14.604 1.7088 0.87407-1.316 2.5728a0.9597 0.9597 0 0 1-1.2914 0.41738 0.9597 0.9597 0 0 1-0.41738-1.2914z" fill="#585e62" style="stroke-width:.030564"/><circle cx="6.8019" cy="14.41" r="2.2938" fill="#cfcfcf" style="stroke-width:.030564"/><path d="m7.8869 12.401a2.295 2.295 0 0 0-2.7883 0.44745 2.2941 2.2941 0 0 1 1.5765 3.8528 2.2941 2.2941 0 0 0 1.2118-4.3003z" fill="#b1b1b1" style="stroke-width:.030564"/><path d="m31.122 25.168a0.67515 0.67515 0 0 1-0.06968-4e-3 2.5307 2.5307 0 1 1 2.4992-1.2916 0.61127 0.61127 0 1 1-1.0697-0.59018 1.3081 1.3081 0 1 0-1.2907 0.6669 0.61127 0.61127 0 0 1-0.06816 1.2189z" fill="#585e62" style="stroke-width:.030564"/><rect transform="rotate(152.91)" x="-19.185" y="-32.622" width="3.1994" height="4.407" rx="1.5105" fill="#cfcfcf" style="stroke-width:.030564"/><path d="m29.215 18.47a0.9597 0.9597 0 0 1-1.2914-0.41738l-1.316-2.5728 1.7088-0.87407 1.316 2.5728a0.9597 0.9597 0 0 1-0.41738 1.2914z" fill="#585e62" style="stroke-width:.030564"/><circle cx="27.064" cy="14.41" r="2.2938" fill="#cfcfcf" style="stroke-width:.030564"/><path d="m25.978 12.401a2.2947 2.2947 0 0 1 2.788 0.44745 2.2941 2.2941 0 0 0-1.5752 3.8528 2.2938 2.2938 0 0 1-1.2128-4.3003z" fill="#b1b1b1" style="stroke-width:.030564"/><path d="m7.6024 31.301c-1.1208 0-2.0478-1.218-2.3079-3.0304-0.13937-0.97284-0.069074-1.9924 0.19805-2.873 0.2876-0.94747 0.77968-1.6379 1.3851-1.9475a1.5807 1.5807 0 0 1 0.72405-0.17849h3.1639v8.0294z" fill="#585e62" style="stroke-width:.030564"/><path d="m10.74 31.301c-0.64978 0-1.1874-1.218-1.3381-3.0304-0.080688-0.97284-0.040038-1.9924 0.11492-2.873 0.16657-0.94747 0.45173-1.6379 0.80291-1.9475 0.13418-0.11828 0.27507-0.17849 0.41964-0.17849s0.28546 0.06113 0.42025 0.17727l1.519 1.3396c0.53089 0.46824 0.71488 1.9561 0.6183 3.1175-0.07427 0.8949-0.30564 1.5948-0.61708 1.8729l-1.5187 1.3393c-0.1357 0.12195-0.27752 0.18277-0.42117 0.18277z" fill="#585e62" style="stroke-width:.030564"/><path d="m11.019 23.929 1.5175 1.3384c0.3417 0.30258 0.54342 1.4502 0.45173 2.5646-0.06113 0.74178-0.23931 1.2821-0.45142 1.471l-1.5175 1.3384c-0.56787 0.50063-1.155-0.59385-1.309-2.4472-0.15404-1.8534 0.18338-3.7624 0.75125-4.2639 0.18797-0.16566 0.38204-0.15404 0.55748-0.0012z" fill="#35393b" style="stroke-width:.030564"/><path d="m26 31.301c1.1205 0 2.0478-1.218 2.3079-3.0304 0.13937-0.97284 0.06907-1.9924-0.19805-2.873-0.2876-0.94747-0.77968-1.6379-1.3851-1.9475a1.5807 1.5807 0 0 0-0.72405-0.17849h-3.1643v8.0294z" fill="#585e62" style="stroke-width:.030564"/><path d="m22.863 31.301c0.64978 0 1.1874-1.218 1.3381-3.0304 0.08069-0.97284 0.04004-1.9924-0.11492-2.873-0.16657-0.94747-0.45204-1.6379-0.80291-1.9475-0.13448-0.11828-0.27507-0.17849-0.41964-0.17849s-0.28546 0.06113-0.42056 0.17727l-1.5187 1.3396c-0.5312 0.46824-0.71488 1.9561-0.6183 3.1175 0.07427 0.8949 0.30564 1.5948 0.61708 1.8729l1.5184 1.3393c0.13601 0.12195 0.27782 0.18277 0.42147 0.18277z" fill="#585e62" style="stroke-width:.030564"/><path d="m22.583 23.929-1.5175 1.3384c-0.34201 0.30136-0.54403 1.449-0.45142 2.5634 0.06113 0.74178 0.23931 1.2821 0.45142 1.471l1.5175 1.3384c0.56879 0.50155 1.1547-0.59385 1.3087-2.4472 0.15404-1.8534-0.18338-3.7624-0.75125-4.2639-0.18888-0.16443-0.38204-0.15282-0.55748 0z" fill="#35393b" style="stroke-width:.030564"/><path d="m25.936 16.361a2.5557 2.5557 0 0 1-0.01712-1.3937c0.45051-1.6238 0.15465-3.4164 0.15465-3.4164-5.6564-1.7657-9.1731-0.01467-9.1731-0.01467s-3.5084-1.7617-9.1691-0.01375c0 0-0.30136 1.7923 0.14426 3.4179a2.5579 2.5579 0 0 1-0.021089 1.3934c-0.1571 0.537-0.32764 1.3601-0.32917 2.4084-0.011309 7.6103 9.3525 9.9662 9.3525 9.9662s9.3702-2.3274 9.3815-9.9381c0-1.0483-0.16779-1.8708-0.32336-2.4093z" fill="#cfcfcf" style="stroke-width:.030564"/><path d="m16.88 27.287c-1.5502-0.48504-7.9985-2.8501-7.9899-8.5428 0-0.90621 0.14946-1.6021 0.27507-2.0267a3.9213 3.9213 0 0 0 0.027813-2.1395c-0.18949-0.69013-0.21089-1.4405-0.18858-1.9955 1.2372-0.31267 2.4512-0.46976 3.619-0.46823 2.3124 0.0037 3.6634 0.64184 3.6768 0.64703l0.62319 0.31267 0.58804-0.31542c0.0034 0 1.3558-0.6342 3.6676-0.63083 1.1678 0.0018 2.3812 0.1626 3.6178 0.47924 0.02048 0.55442-0.0031 1.3054-0.19469 1.9949a3.9222 3.9222 0 0 0 0.02109 2.1395c0.12225 0.42514 0.26957 1.1214 0.26804 2.0279-0.0086 5.7172-6.4569 8.041-8.0113 8.5178z" fill="#49b04a" style="stroke-width:.030564"/><path d="m18.647 17.198a1.7562 1.7562 0 1 0-2.144 1.7091l-0.9869 4.1405 1.3653 0.39274 1.3665-0.38846-0.97315-4.1435a1.7562 1.7562 0 0 0 1.3723-1.7103z" fill="#35393b" style="stroke-width:.030564"/><g transform="matrix(.030564 0 0 .030564 -.0012583 2.5654)" fill="#49b04a"><path d="m454.94 131.08a60.64 60.64 0 0 0-60.64 60.64h121.28a60.64 60.64 0 0 0-60.64-60.64z"/><path d="m642.38 131.08a60.64 60.64 0 0 0-60.64 60.64h121.26a60.64 60.64 0 0 0-60.62-60.64z"/><circle cx="483.23" cy="229.43" r="11.52"/><circle cx="528.52" cy="229.43" r="11.52"/><circle cx="573.8" cy="229.43" r="11.52"/><circle cx="619.09" cy="229.43" r="11.52"/></g></svg>
