<?xml version="1.0" encoding="UTF-8" standalone="no"?>
<!DOCTYPE svg PUBLIC "-//W3C//DTD SVG 1.1//EN" "http://www.w3.org/Graphics/SVG/1.1/DTD/svg11.dtd">
<svg xmlns="http://www.w3.org/2000/svg" xmlns:xlink="http://www.w3.org/1999/xlink" xmlns:serif="http://www.serif.com/" width="100%" height="100%" viewBox="0 0 1051 447" version="1.1" xml:space="preserve" style="fill-rule:evenodd;clip-rule:evenodd;stroke-linecap:round;stroke-linejoin:round;">
    <g transform="matrix(1,0,0,1,-101.526,-98.3251)">
        <g transform="matrix(0.438175,0,0,0.438175,63.5184,110.551)">
            <rect x="87.098" y="355.919" width="154.361" height="165.495" style="fill:rgb(114,159,207);"/>
        </g>
        <g transform="matrix(0.438175,0,0,0.438175,63.5184,110.551)">
            <path d="M164.319,521.414L87.098,521.414L87.098,355.919L241.458,355.919L241.458,521.414L164.319,521.414" style="fill:none;fill-rule:nonzero;stroke:rgb(52,101,164);stroke-width:0.08px;"/>
        </g>
        <g transform="matrix(0.438175,0,0,0.438175,63.5184,110.551)">
            <path d="M481.938,94.093C481.938,108.602 478.372,122.936 471.566,135.531C464.84,148.041 455.036,158.553 443.368,165.764C431.619,173.061 418.249,176.884 404.715,176.884C391.183,176.884 377.814,173.061 366.146,165.764C354.397,158.553 344.592,148.041 337.867,135.531C331.06,122.934 327.495,108.6 327.495,94.093C327.495,79.585 331.061,65.251 337.867,52.742C344.592,40.145 354.397,29.634 366.065,22.423C377.814,15.126 391.184,11.303 404.718,11.303C418.25,11.303 431.619,15.126 443.287,22.423C455.036,29.634 464.84,40.146 471.566,52.742C478.372,65.252 481.938,79.587 481.938,94.093Z" style="fill:rgb(129,212,26);"/>
        </g>
        <g transform="matrix(0.438175,0,0,0.438175,63.5184,110.551)">
            <path d="M481.938,93.965C481.938,108.473 478.372,122.807 471.566,135.403C464.84,147.913 455.036,158.425 443.368,165.635C431.619,172.932 418.249,176.755 404.715,176.755C391.183,176.755 377.814,172.932 366.146,165.635C354.397,158.425 344.592,147.912 337.867,135.403C331.06,122.806 327.495,108.472 327.495,93.965C327.495,79.457 331.061,65.122 337.867,52.614C344.592,40.017 354.397,29.505 366.065,22.295C377.814,14.997 391.184,11.175 404.718,11.175C418.25,11.175 431.619,14.997 443.287,22.295C455.036,29.505 464.84,40.017 471.566,52.614C478.372,65.124 481.938,79.458 481.938,93.965" style="fill:none;fill-rule:nonzero;stroke:rgb(52,101,164);stroke-width:0.08px;"/>
        </g>
        <g transform="matrix(0.438175,0,0,0.438175,63.5184,110.551)">
            <path d="M790.681,94.18C790.681,108.689 787.116,122.936 780.31,135.531C773.584,148.128 763.78,158.553 752.112,165.764C740.362,173.061 726.993,176.884 713.459,176.884C699.927,176.884 686.558,173.061 674.89,165.764C663.141,158.553 653.336,148.128 646.611,135.531C639.804,122.934 636.239,108.687 636.239,94.18C636.239,79.585 639.804,65.338 646.611,52.742C653.336,40.145 663.141,29.721 674.89,22.51C686.558,15.213 699.928,11.39 713.459,11.39C726.991,11.39 740.361,15.213 752.112,22.51C763.78,29.721 773.584,40.146 780.31,52.742C787.116,65.339 790.681,79.587 790.681,94.18Z" style="fill:rgb(128,0,128);"/>
        </g>
        <g transform="matrix(0.438175,0,0,0.438175,63.5184,110.551)">
            <path d="M790.681,94.052C790.681,108.56 787.116,122.807 780.31,135.403C773.584,148 763.78,158.425 752.112,165.635C740.362,172.932 726.993,176.755 713.459,176.755C699.927,176.755 686.558,172.932 674.89,165.635C663.141,158.425 653.336,147.999 646.611,135.403C639.804,122.806 636.239,108.558 636.239,94.052C636.239,79.457 639.804,65.209 646.611,52.614C653.336,40.017 663.141,29.592 674.89,22.382C686.558,15.084 699.928,11.262 713.459,11.262C726.991,11.262 740.361,15.084 752.112,22.382C763.78,29.592 773.584,40.017 780.31,52.614C787.116,65.211 790.681,79.458 790.681,94.052" style="fill:none;fill-rule:nonzero;stroke:rgb(52,101,164);stroke-width:0.08px;"/>
        </g>
        <g transform="matrix(0.438175,0,0,0.438175,63.5184,110.551)">
            <path d="M1099.39,94.139C1099.39,108.647 1095.82,122.894 1089.02,135.49C1082.29,148.087 1072.49,158.512 1060.82,165.722C1049.07,173.019 1035.7,176.842 1022.17,176.842C1008.63,176.842 995.264,173.019 983.596,165.722C971.847,158.512 962.042,148.086 955.317,135.49C948.51,122.893 944.945,108.645 944.945,94.139C944.945,79.544 948.511,65.296 955.317,52.701C962.042,40.104 971.847,29.679 983.596,22.468C995.264,15.171 1008.63,11.348 1022.17,11.348C1035.7,11.348 1049.07,15.171 1060.82,22.468C1072.49,29.679 1082.29,40.104 1089.02,52.701C1095.82,65.298 1099.39,79.545 1099.39,94.139Z" style="fill:rgb(255,128,0);"/>
        </g>
        <g transform="matrix(0.438175,0,0,0.438175,63.5184,110.551)">
            <path d="M1099.39,94.139C1099.39,108.647 1095.82,122.894 1089.02,135.49C1082.29,148.087 1072.49,158.512 1060.82,165.722C1049.07,173.019 1035.7,176.842 1022.17,176.842C1008.63,176.842 995.264,173.019 983.596,165.722C971.847,158.512 962.042,148.086 955.317,135.49C948.51,122.893 944.945,108.645 944.945,94.139C944.945,79.544 948.511,65.296 955.317,52.701C962.042,40.104 971.847,29.679 983.596,22.468C995.264,15.171 1008.63,11.348 1022.17,11.348C1035.7,11.348 1049.07,15.171 1060.82,22.468C1072.49,29.679 1082.29,40.104 1089.02,52.701C1095.82,65.298 1099.39,79.545 1099.39,94.139" style="fill:none;fill-rule:nonzero;stroke:rgb(52,101,164);stroke-width:0.08px;"/>
        </g>
        <g transform="matrix(0.438175,0,0,0.438175,63.5184,110.551)">
            <path d="M481.938,432.899C481.938,447.407 478.372,461.655 471.566,474.25C464.84,486.847 455.036,497.272 443.368,504.482C431.619,511.78 418.249,515.602 404.715,515.602C391.183,515.602 377.814,511.78 366.146,504.482C354.397,497.272 344.592,486.847 337.867,474.25C331.06,461.653 327.495,447.406 327.495,432.899C327.495,418.304 331.061,404.057 337.867,391.461C344.592,378.864 354.397,368.439 366.065,361.229C377.814,353.931 391.184,350.109 404.718,350.109C418.25,350.109 431.619,353.931 443.287,361.229C455.036,368.439 464.84,378.865 471.566,391.461C478.372,404.058 481.938,418.305 481.938,432.899Z" style="fill:rgb(129,212,26);"/>
        </g>
        <g transform="matrix(0.438175,0,0,0.438175,63.5184,110.551)">
            <path d="M481.938,438.795C481.938,453.303 478.372,467.551 471.566,480.146C464.84,492.743 455.036,503.168 443.368,510.378C431.619,517.676 418.249,521.498 404.715,521.498C391.183,521.498 377.814,517.676 366.146,510.378C354.397,503.168 344.592,492.743 337.867,480.146C331.06,467.549 327.495,453.302 327.495,438.795C327.495,424.2 331.061,409.952 337.867,397.357C344.592,384.76 354.397,374.335 366.065,367.125C377.814,359.827 391.184,356.005 404.718,356.005C418.25,356.005 431.619,359.827 443.287,367.125C455.036,374.335 464.84,384.76 471.566,397.357C478.372,409.954 481.938,424.201 481.938,438.795" style="fill:none;fill-rule:nonzero;stroke:rgb(52,101,164);stroke-width:0.08px;"/>
        </g>
        <g transform="matrix(0.438175,0,0,0.438175,63.5184,110.551)">
            <path d="M790.681,432.899C790.681,447.407 787.116,461.655 780.31,474.25C773.584,486.847 763.78,497.272 752.112,504.482C740.362,511.78 726.993,515.602 713.459,515.602C699.927,515.602 686.558,511.78 674.89,504.482C663.141,497.272 653.336,486.847 646.611,474.25C639.804,461.653 636.239,447.406 636.239,432.899C636.239,418.304 639.804,404.057 646.611,391.461C653.336,378.864 663.141,368.439 674.89,361.229C686.558,353.931 699.928,350.109 713.459,350.109C726.991,350.109 740.361,353.931 752.112,361.229C763.78,368.439 773.584,378.865 780.31,391.461C787.116,404.058 790.681,418.305 790.681,432.899Z" style="fill:rgb(128,0,128);"/>
        </g>
        <g transform="matrix(0.438175,0,0,0.438175,63.5184,110.551)">
            <path d="M790.681,438.795C790.681,453.303 787.116,467.551 780.31,480.146C773.584,492.743 763.78,503.168 752.112,510.378C740.362,517.676 726.993,521.498 713.459,521.498C699.927,521.498 686.558,517.676 674.89,510.378C663.141,503.168 653.336,492.743 646.611,480.146C639.804,467.549 636.239,453.302 636.239,438.795C636.239,424.2 639.804,409.952 646.611,397.357C653.336,384.76 663.141,374.335 674.89,367.125C686.558,359.827 699.928,356.005 713.459,356.005C726.991,356.005 740.361,359.827 752.112,367.125C763.78,374.335 773.584,384.76 780.31,397.357C787.116,409.954 790.681,424.201 790.681,438.795" style="fill:none;fill-rule:nonzero;stroke:rgb(52,101,164);stroke-width:0.08px;"/>
        </g>
        <g transform="matrix(0.438175,0,0,0.438175,63.5184,110.551)">
            <path d="M1099.39,432.899C1099.39,447.407 1095.82,461.655 1089.02,474.25C1082.29,486.847 1072.49,497.272 1060.82,504.482C1049.07,511.78 1035.7,515.602 1022.17,515.602C1008.63,515.602 995.264,511.78 983.596,504.482C971.847,497.272 962.042,486.847 955.317,474.25C948.51,461.653 944.945,447.406 944.945,432.899C944.945,418.304 948.511,404.057 955.317,391.461C962.042,378.864 971.847,368.439 983.596,361.229C995.264,353.931 1008.63,350.109 1022.17,350.109C1035.7,350.109 1049.07,353.931 1060.82,361.229C1072.49,368.439 1082.29,378.865 1089.02,391.461C1095.82,404.058 1099.39,418.305 1099.39,432.899Z" style="fill:rgb(255,128,0);"/>
        </g>
        <g transform="matrix(0.438175,0,0,0.438175,63.5184,110.551)">
            <path d="M1099.39,432.899C1099.39,447.407 1095.82,461.655 1089.02,474.25C1082.29,486.847 1072.49,497.272 1060.82,504.482C1049.07,511.78 1035.7,515.602 1022.17,515.602C1008.63,515.602 995.264,511.78 983.596,504.482C971.847,497.272 962.042,486.847 955.317,474.25C948.51,461.653 944.945,447.406 944.945,432.899C944.945,418.304 948.511,404.057 955.317,391.461C962.042,378.864 971.847,368.439 983.596,361.229C995.264,353.931 1008.63,350.109 1022.17,350.109C1035.7,350.109 1049.07,353.931 1060.82,361.229C1072.49,368.439 1082.29,378.865 1089.02,391.461C1095.82,404.058 1099.39,418.305 1099.39,432.899" style="fill:none;fill-rule:nonzero;stroke:rgb(52,101,164);stroke-width:0.08px;"/>
        </g>
        <g transform="matrix(0.438175,0,0,0.438175,63.5184,110.551)">
            <path d="M481.938,756.043C481.938,770.551 478.372,784.798 471.566,797.394C464.84,809.991 455.036,820.416 443.368,827.626C431.619,834.924 418.249,838.746 404.715,838.746C391.183,838.746 377.814,834.924 366.146,827.626C354.397,820.416 344.592,809.991 337.867,797.394C331.06,784.797 327.495,770.549 327.495,756.043C327.495,741.448 331.061,727.2 337.867,714.605C344.592,702.008 354.397,691.583 366.065,684.372C377.814,677.075 391.184,673.253 404.718,673.253C418.25,673.253 431.619,677.075 443.287,684.372C455.036,691.583 464.84,702.008 471.566,714.605C478.372,727.202 481.938,741.449 481.938,756.043Z" style="fill:rgb(129,212,26);"/>
        </g>
        <g transform="matrix(0.438175,0,0,0.438175,63.5184,110.551)">
            <path d="M481.938,756.043C481.938,770.551 478.372,784.798 471.566,797.394C464.84,809.991 455.036,820.416 443.368,827.626C431.619,834.924 418.249,838.746 404.715,838.746C391.183,838.746 377.814,834.924 366.146,827.626C354.397,820.416 344.592,809.991 337.867,797.394C331.06,784.797 327.495,770.549 327.495,756.043C327.495,741.448 331.061,727.2 337.867,714.605C344.592,702.008 354.397,691.583 366.065,684.372C377.814,677.075 391.184,673.253 404.718,673.253C418.25,673.253 431.619,677.075 443.287,684.372C455.036,691.583 464.84,702.008 471.566,714.605C478.372,727.202 481.938,741.449 481.938,756.043" style="fill:none;fill-rule:nonzero;stroke:rgb(52,101,164);stroke-width:0.08px;"/>
        </g>
        <g transform="matrix(0.438175,0,0,0.438175,63.5184,110.551)">
            <path d="M790.681,756.118C790.681,770.626 787.116,784.874 780.31,797.469C773.584,810.066 763.78,820.491 752.112,827.702C740.362,834.999 726.993,838.822 713.459,838.822C699.927,838.822 686.558,834.999 674.89,827.702C663.141,820.492 653.336,810.066 646.611,797.469C639.804,784.872 636.239,770.625 636.239,756.118C636.239,741.523 639.804,727.276 646.611,714.68C653.336,702.083 663.141,691.658 674.89,684.448C686.558,677.15 699.928,673.328 713.459,673.328C726.991,673.328 740.361,677.15 752.112,684.448C763.78,691.658 773.584,702.083 780.31,714.68C787.116,727.277 790.681,741.525 790.681,756.118Z" style="fill:rgb(128,0,128);"/>
        </g>
        <g transform="matrix(0.438175,0,0,0.438175,63.5184,110.551)">
            <path d="M790.681,756.118C790.681,770.626 787.116,784.874 780.31,797.469C773.584,810.066 763.78,820.491 752.112,827.702C740.362,834.999 726.993,838.822 713.459,838.822C699.927,838.822 686.558,834.999 674.89,827.702C663.141,820.492 653.336,810.066 646.611,797.469C639.804,784.872 636.239,770.625 636.239,756.118C636.239,741.523 639.804,727.276 646.611,714.68C653.336,702.083 663.141,691.658 674.89,684.448C686.558,677.15 699.928,673.328 713.459,673.328C726.991,673.328 740.361,677.15 752.112,684.448C763.78,691.658 773.584,702.083 780.31,714.68C787.116,727.277 790.681,741.525 790.681,756.118" style="fill:none;fill-rule:nonzero;stroke:rgb(52,101,164);stroke-width:0.08px;"/>
        </g>
        <g transform="matrix(0.438175,0,0,0.438175,63.5184,110.551)">
            <path d="M1099.39,756.118C1099.39,770.626 1095.82,784.874 1089.02,797.469C1082.29,810.066 1072.49,820.491 1060.82,827.702C1049.07,834.999 1035.7,838.822 1022.17,838.822C1008.63,838.822 995.264,834.999 983.596,827.702C971.847,820.492 962.042,810.066 955.317,797.469C948.51,784.872 944.945,770.625 944.945,756.118C944.945,741.523 948.511,727.276 955.317,714.68C962.042,702.083 971.847,691.658 983.596,684.448C995.264,677.15 1008.63,673.328 1022.17,673.328C1035.7,673.328 1049.07,677.15 1060.82,684.448C1072.49,691.658 1082.29,702.083 1089.02,714.68C1095.82,727.277 1099.39,741.525 1099.39,756.118Z" style="fill:rgb(255,128,0);"/>
        </g>
        <g transform="matrix(0.438175,0,0,0.438175,63.5184,110.551)">
            <path d="M1099.39,756.118C1099.39,770.626 1095.82,784.874 1089.02,797.469C1082.29,810.066 1072.49,820.491 1060.82,827.702C1049.07,834.999 1035.7,838.822 1022.17,838.822C1008.63,838.822 995.264,834.999 983.596,827.702C971.847,820.492 962.042,810.066 955.317,797.469C948.51,784.872 944.945,770.625 944.945,756.118C944.945,741.523 948.511,727.276 955.317,714.68C962.042,702.083 971.847,691.658 983.596,684.448C995.264,677.15 1008.63,673.328 1022.17,673.328C1035.7,673.328 1049.07,677.15 1060.82,684.448C1072.49,691.658 1082.29,702.083 1089.02,714.68C1095.82,727.277 1099.39,741.525 1099.39,756.118" style="fill:none;fill-rule:nonzero;stroke:rgb(52,101,164);stroke-width:0.08px;"/>
        </g>
        <g transform="matrix(0.438175,0,0,0.438175,495.206,203.232)">
            <path d="M1340.44,328.48L1433.95,503.186L1247.02,503.186L1340.44,328.48Z" style="fill:rgb(114,159,207);"/>
        </g>
        <g>
            <g transform="matrix(0.423185,0,0,0.453686,63.5184,110.551)">
                <g transform="matrix(1,0,0,1,88.7196,550.073)">
                    <text x="0px" y="0px" style="font-family:'Helvetica';font-size:53.309px;fill:white;">Your</text>
                </g>
                <g transform="matrix(1,0,0,1,88.7196,616.708)">
                    <text x="0px" y="0px" style="font-family:'Helvetica';font-size:53.309px;fill:white;">Device</text>
                </g>
            </g>
            <g transform="matrix(0.423185,0,0,0.423185,215.188,217.539)">
                <g transform="matrix(53.3092,0,0,53.3092,148.162,0)">
                </g>
                <text x="0px" y="0px" style="font-family:'Helvetica';font-size:53.309px;fill:white;">Guard</text>
            </g>
            <g transform="matrix(0.423185,0,0,0.453686,342.481,365.105)">
                <text x="0px" y="0px" style="font-family:'Helvetica';font-size:53.309px;fill:white;">Relay</text>
            </g>
            <g transform="matrix(0.423185,0,0,0.453686,486.481,214.679)">
                <text x="0px" y="0px" style="font-family:'Helvetica';font-size:53.309px;fill:white;">Relay</text>
            </g>
            <g transform="matrix(0.423185,0,0,0.423185,1011.71,453.118)">
                <g transform="matrix(53.3092,0,0,53.3092,334.953,0)">
                </g>
                <text x="0px" y="0px" style="font-family:'Helvetica';font-size:53.309px;fill:white;">hidden...onion</text>
            </g>
            <g transform="matrix(1,0,0,1.13387,0,-13.5981)">
                <rect x="192.377" y="101.575" width="397.824" height="388.045" style="fill:none;stroke:rgb(97,107,243);stroke-width:6.08px;stroke-linecap:butt;stroke-miterlimit:1.5;stroke-dasharray:6.08,6.08;"/>
            </g>
            <g transform="matrix(1,0,0,1.13387,406.832,-13.5981)">
                <rect x="192.377" y="101.575" width="397.824" height="388.045" style="fill:none;stroke:rgb(218,85,92);stroke-width:6.08px;stroke-linecap:butt;stroke-miterlimit:1.5;stroke-dasharray:6.08,6.08;"/>
            </g>
        </g>
        <g transform="matrix(1,0,0,-1,296.309,499.871)">
            <g transform="matrix(0.438175,0,0,0.438175,-102.956,170.289)">
                <path d="M330.234,166.032L193.058,348.322L196.941,351.246L334.117,168.955L330.234,166.032Z" style="fill:white;fill-rule:nonzero;"/>
            </g>
            <g transform="matrix(0.438175,0,0,0.438175,-102.956,170.289)">
                <path d="M340.601,156.288L337.671,180.385L318.258,165.776L340.601,156.288Z" style="fill:white;"/>
                <path d="M342.547,153.703L339.971,154.795L315.043,165.381L338.945,183.37L342.547,153.703ZM338.657,158.87L336.406,177.398L321.48,166.171L338.657,158.87Z" style="fill:white;"/>
            </g>
        </g>
        <g transform="matrix(1,0,0,1,599.384,5.09357)">
            <g transform="matrix(0.438175,0,0,0.438175,-273.231,107.69)">
                <path d="M330.234,166.032L193.058,348.322L196.941,351.246L334.117,168.955L330.234,166.032Z" style="fill:white;fill-rule:nonzero;"/>
            </g>
            <g transform="matrix(0.438175,0,0,0.438175,-273.231,107.69)">
                <path d="M340.601,156.288L337.671,180.385L318.258,165.776L340.601,156.288Z" style="fill:white;"/>
                <path d="M342.547,153.703L339.971,154.795L315.043,165.381L338.945,183.37L342.547,153.703ZM338.657,158.87L336.406,177.398L321.48,166.171L338.657,158.87Z" style="fill:white;"/>
            </g>
        </g>
        <g transform="matrix(1,0,0,-1,927.895,527.537)">
            <g transform="matrix(0.438175,0,0,0.438175,-37.0942,67.0447)">
                <path d="M330.234,166.032L193.058,348.322L196.941,351.246L334.117,168.955L330.234,166.032Z" style="fill:white;fill-rule:nonzero;"/>
            </g>
            <g transform="matrix(0.438175,0,0,0.438175,-34.7625,65.947)">
                <path d="M340.601,156.288L337.671,180.385L318.258,165.776L340.601,156.288Z" style="fill:white;"/>
                <path d="M342.547,153.703L339.971,154.795L315.043,165.381L338.945,183.37L342.547,153.703ZM338.657,158.87L336.406,177.398L321.48,166.171L338.657,158.87Z" style="fill:white;"/>
            </g>
            <g transform="matrix(0.438175,0,0,0.438175,-467.504,185.162)">
                <path d="M330.234,166.032L193.058,348.322L196.941,351.246L334.117,168.955L330.234,166.032Z" style="fill:white;fill-rule:nonzero;"/>
            </g>
            <g transform="matrix(0.438175,0,0,0.438175,-467.504,185.162)">
                <path d="M340.601,156.288L337.671,180.385L318.258,165.776L340.601,156.288Z" style="fill:white;"/>
                <path d="M342.547,153.703L339.971,154.795L315.043,165.381L338.945,183.37L342.547,153.703ZM338.657,158.87L336.406,177.398L321.48,166.171L338.657,158.87Z" style="fill:white;"/>
            </g>
        </g>
        <g transform="matrix(1,0,0,1,-12.9813,-5.07732)">
            <g transform="matrix(0.438175,0,0,0.438175,70.8116,113.404)">
                <path d="M330.234,166.032L193.058,348.322L196.941,351.246L334.117,168.955L330.234,166.032Z" style="fill:white;fill-rule:nonzero;"/>
            </g>
            <g transform="matrix(0.438175,0,0,0.438175,70.8116,113.404)">
                <path d="M340.601,156.288L337.671,180.385L318.258,165.776L340.601,156.288Z" style="fill:white;"/>
                <path d="M342.547,153.703L339.971,154.795L315.043,165.381L338.945,183.37L342.547,153.703ZM338.657,158.87L336.406,177.398L321.48,166.171L338.657,158.87Z" style="fill:white;"/>
            </g>
            <g transform="matrix(0.438175,0,0,0.438175,495.905,117.379)">
                <path d="M481.938,94.093C481.938,108.602 478.372,122.936 471.566,135.531C464.84,148.041 455.036,158.553 443.368,165.764C431.619,173.061 418.249,176.884 404.715,176.884C391.183,176.884 377.814,173.061 366.146,165.764C354.397,158.553 344.592,148.041 337.867,135.531C331.06,122.934 327.495,108.6 327.495,94.093C327.495,79.585 331.061,65.251 337.867,52.742C344.592,40.145 354.397,29.634 366.065,22.423C377.814,15.126 391.184,11.303 404.718,11.303C418.25,11.303 431.619,15.126 443.287,22.423C455.036,29.634 464.84,40.146 471.566,52.742C478.372,65.252 481.938,79.587 481.938,94.093Z" style="fill:rgb(129,212,26);"/>
            </g>
            <g transform="matrix(0.438175,0,0,0.438175,495.905,117.379)">
                <path d="M481.938,93.965C481.938,108.473 478.372,122.807 471.566,135.403C464.84,147.913 455.036,158.425 443.368,165.635C431.619,172.932 418.249,176.755 404.715,176.755C391.183,176.755 377.814,172.932 366.146,165.635C354.397,158.425 344.592,147.912 337.867,135.403C331.06,122.806 327.495,108.472 327.495,93.965C327.495,79.457 331.061,65.122 337.867,52.614C344.592,40.017 354.397,29.505 366.065,22.295C377.814,14.997 391.184,11.175 404.718,11.175C418.25,11.175 431.619,14.997 443.287,22.295C455.036,29.505 464.84,40.017 471.566,52.614C478.372,65.124 481.938,79.458 481.938,93.965" style="fill:none;fill-rule:nonzero;stroke:rgb(52,101,164);stroke-width:0.08px;"/>
            </g>
            <g transform="matrix(0.438175,0,0,0.438175,495.905,117.379)">
                <path d="M790.681,94.18C790.681,108.689 787.116,122.936 780.31,135.531C773.584,148.128 763.78,158.553 752.112,165.764C740.362,173.061 726.993,176.884 713.459,176.884C699.927,176.884 686.558,173.061 674.89,165.764C663.141,158.553 653.336,148.128 646.611,135.531C639.804,122.934 636.239,108.687 636.239,94.18C636.239,79.585 639.804,65.338 646.611,52.742C653.336,40.145 663.141,29.721 674.89,22.51C686.558,15.213 699.928,11.39 713.459,11.39C726.991,11.39 740.361,15.213 752.112,22.51C763.78,29.721 773.584,40.146 780.31,52.742C787.116,65.339 790.681,79.587 790.681,94.18Z" style="fill:rgb(128,0,128);"/>
            </g>
            <g transform="matrix(0.438175,0,0,0.438175,495.905,117.379)">
                <path d="M790.681,94.052C790.681,108.56 787.116,122.807 780.31,135.403C773.584,148 763.78,158.425 752.112,165.635C740.362,172.932 726.993,176.755 713.459,176.755C699.927,176.755 686.558,172.932 674.89,165.635C663.141,158.425 653.336,147.999 646.611,135.403C639.804,122.806 636.239,108.558 636.239,94.052C636.239,79.457 639.804,65.209 646.611,52.614C653.336,40.017 663.141,29.592 674.89,22.382C686.558,15.084 699.928,11.262 713.459,11.262C726.991,11.262 740.361,15.084 752.112,22.382C763.78,29.592 773.584,40.017 780.31,52.614C787.116,65.211 790.681,79.458 790.681,94.052" style="fill:none;fill-rule:nonzero;stroke:rgb(52,101,164);stroke-width:0.08px;"/>
            </g>
            <g transform="matrix(0.438175,0,0,0.438175,495.905,117.379)">
                <path d="M1099.39,94.139C1099.39,108.647 1095.82,122.894 1089.02,135.49C1082.29,148.087 1072.49,158.512 1060.82,165.722C1049.07,173.019 1035.7,176.842 1022.17,176.842C1008.63,176.842 995.264,173.019 983.596,165.722C971.847,158.512 962.042,148.086 955.317,135.49C948.51,122.893 944.945,108.645 944.945,94.139C944.945,79.544 948.511,65.296 955.317,52.701C962.042,40.104 971.847,29.679 983.596,22.468C995.264,15.171 1008.63,11.348 1022.17,11.348C1035.7,11.348 1049.07,15.171 1060.82,22.468C1072.49,29.679 1082.29,40.104 1089.02,52.701C1095.82,65.298 1099.39,79.545 1099.39,94.139Z" style="fill:rgb(255,128,0);"/>
            </g>
            <g transform="matrix(0.438175,0,0,0.438175,495.905,117.379)">
                <path d="M1099.39,94.139C1099.39,108.647 1095.82,122.894 1089.02,135.49C1082.29,148.087 1072.49,158.512 1060.82,165.722C1049.07,173.019 1035.7,176.842 1022.17,176.842C1008.63,176.842 995.264,173.019 983.596,165.722C971.847,158.512 962.042,148.086 955.317,135.49C948.51,122.893 944.945,108.645 944.945,94.139C944.945,79.544 948.511,65.296 955.317,52.701C962.042,40.104 971.847,29.679 983.596,22.468C995.264,15.171 1008.63,11.348 1022.17,11.348C1035.7,11.348 1049.07,15.171 1060.82,22.468C1072.49,29.679 1082.29,40.104 1089.02,52.701C1095.82,65.298 1099.39,79.545 1099.39,94.139" style="fill:none;fill-rule:nonzero;stroke:rgb(52,101,164);stroke-width:0.08px;"/>
            </g>
            <g transform="matrix(0.438175,0,0,0.438175,495.905,117.379)">
                <path d="M481.938,432.899C481.938,447.407 478.372,461.655 471.566,474.25C464.84,486.847 455.036,497.272 443.368,504.482C431.619,511.78 418.249,515.602 404.715,515.602C391.183,515.602 377.814,511.78 366.146,504.482C354.397,497.272 344.592,486.847 337.867,474.25C331.06,461.653 327.495,447.406 327.495,432.899C327.495,418.304 331.061,404.057 337.867,391.461C344.592,378.864 354.397,368.439 366.065,361.229C377.814,353.931 391.184,350.109 404.718,350.109C418.25,350.109 431.619,353.931 443.287,361.229C455.036,368.439 464.84,378.865 471.566,391.461C478.372,404.058 481.938,418.305 481.938,432.899Z" style="fill:rgb(129,212,26);"/>
            </g>
            <g transform="matrix(0.438175,0,0,0.438175,495.905,117.379)">
                <path d="M481.938,438.795C481.938,453.303 478.372,467.551 471.566,480.146C464.84,492.743 455.036,503.168 443.368,510.378C431.619,517.676 418.249,521.498 404.715,521.498C391.183,521.498 377.814,517.676 366.146,510.378C354.397,503.168 344.592,492.743 337.867,480.146C331.06,467.549 327.495,453.302 327.495,438.795C327.495,424.2 331.061,409.952 337.867,397.357C344.592,384.76 354.397,374.335 366.065,367.125C377.814,359.827 391.184,356.005 404.718,356.005C418.25,356.005 431.619,359.827 443.287,367.125C455.036,374.335 464.84,384.76 471.566,397.357C478.372,409.954 481.938,424.201 481.938,438.795" style="fill:none;fill-rule:nonzero;stroke:rgb(52,101,164);stroke-width:0.08px;"/>
            </g>
            <g transform="matrix(0.438175,0,0,0.438175,495.905,117.379)">
                <path d="M790.681,432.899C790.681,447.407 787.116,461.655 780.31,474.25C773.584,486.847 763.78,497.272 752.112,504.482C740.362,511.78 726.993,515.602 713.459,515.602C699.927,515.602 686.558,511.78 674.89,504.482C663.141,497.272 653.336,486.847 646.611,474.25C639.804,461.653 636.239,447.406 636.239,432.899C636.239,418.304 639.804,404.057 646.611,391.461C653.336,378.864 663.141,368.439 674.89,361.229C686.558,353.931 699.928,350.109 713.459,350.109C726.991,350.109 740.361,353.931 752.112,361.229C763.78,368.439 773.584,378.865 780.31,391.461C787.116,404.058 790.681,418.305 790.681,432.899Z" style="fill:rgb(128,0,128);"/>
            </g>
            <g transform="matrix(0.438175,0,0,0.438175,495.905,117.379)">
                <path d="M790.681,438.795C790.681,453.303 787.116,467.551 780.31,480.146C773.584,492.743 763.78,503.168 752.112,510.378C740.362,517.676 726.993,521.498 713.459,521.498C699.927,521.498 686.558,517.676 674.89,510.378C663.141,503.168 653.336,492.743 646.611,480.146C639.804,467.549 636.239,453.302 636.239,438.795C636.239,424.2 639.804,409.952 646.611,397.357C653.336,384.76 663.141,374.335 674.89,367.125C686.558,359.827 699.928,356.005 713.459,356.005C726.991,356.005 740.361,359.827 752.112,367.125C763.78,374.335 773.584,384.76 780.31,397.357C787.116,409.954 790.681,424.201 790.681,438.795" style="fill:none;fill-rule:nonzero;stroke:rgb(52,101,164);stroke-width:0.08px;"/>
            </g>
            <g transform="matrix(0.438175,0,0,0.438175,495.905,117.379)">
                <path d="M1099.39,432.899C1099.39,447.407 1095.82,461.655 1089.02,474.25C1082.29,486.847 1072.49,497.272 1060.82,504.482C1049.07,511.78 1035.7,515.602 1022.17,515.602C1008.63,515.602 995.264,511.78 983.596,504.482C971.847,497.272 962.042,486.847 955.317,474.25C948.51,461.653 944.945,447.406 944.945,432.899C944.945,418.304 948.511,404.057 955.317,391.461C962.042,378.864 971.847,368.439 983.596,361.229C995.264,353.931 1008.63,350.109 1022.17,350.109C1035.7,350.109 1049.07,353.931 1060.82,361.229C1072.49,368.439 1082.29,378.865 1089.02,391.461C1095.82,404.058 1099.39,418.305 1099.39,432.899Z" style="fill:rgb(255,128,0);"/>
            </g>
            <g transform="matrix(0.438175,0,0,0.438175,495.905,117.379)">
                <path d="M1099.39,432.899C1099.39,447.407 1095.82,461.655 1089.02,474.25C1082.29,486.847 1072.49,497.272 1060.82,504.482C1049.07,511.78 1035.7,515.602 1022.17,515.602C1008.63,515.602 995.264,511.78 983.596,504.482C971.847,497.272 962.042,486.847 955.317,474.25C948.51,461.653 944.945,447.406 944.945,432.899C944.945,418.304 948.511,404.057 955.317,391.461C962.042,378.864 971.847,368.439 983.596,361.229C995.264,353.931 1008.63,350.109 1022.17,350.109C1035.7,350.109 1049.07,353.931 1060.82,361.229C1072.49,368.439 1082.29,378.865 1089.02,391.461C1095.82,404.058 1099.39,418.305 1099.39,432.899" style="fill:none;fill-rule:nonzero;stroke:rgb(52,101,164);stroke-width:0.08px;"/>
            </g>
            <g transform="matrix(0.438175,0,0,0.438175,495.905,117.379)">
                <path d="M481.938,756.043C481.938,770.551 478.372,784.798 471.566,797.394C464.84,809.991 455.036,820.416 443.368,827.626C431.619,834.924 418.249,838.746 404.715,838.746C391.183,838.746 377.814,834.924 366.146,827.626C354.397,820.416 344.592,809.991 337.867,797.394C331.06,784.797 327.495,770.549 327.495,756.043C327.495,741.448 331.061,727.2 337.867,714.605C344.592,702.008 354.397,691.583 366.065,684.372C377.814,677.075 391.184,673.253 404.718,673.253C418.25,673.253 431.619,677.075 443.287,684.372C455.036,691.583 464.84,702.008 471.566,714.605C478.372,727.202 481.938,741.449 481.938,756.043Z" style="fill:rgb(129,212,26);"/>
            </g>
            <g transform="matrix(0.438175,0,0,0.438175,495.905,117.379)">
                <path d="M481.938,756.043C481.938,770.551 478.372,784.798 471.566,797.394C464.84,809.991 455.036,820.416 443.368,827.626C431.619,834.924 418.249,838.746 404.715,838.746C391.183,838.746 377.814,834.924 366.146,827.626C354.397,820.416 344.592,809.991 337.867,797.394C331.06,784.797 327.495,770.549 327.495,756.043C327.495,741.448 331.061,727.2 337.867,714.605C344.592,702.008 354.397,691.583 366.065,684.372C377.814,677.075 391.184,673.253 404.718,673.253C418.25,673.253 431.619,677.075 443.287,684.372C455.036,691.583 464.84,702.008 471.566,714.605C478.372,727.202 481.938,741.449 481.938,756.043" style="fill:none;fill-rule:nonzero;stroke:rgb(52,101,164);stroke-width:0.08px;"/>
            </g>
            <g transform="matrix(0.438175,0,0,0.438175,495.905,117.379)">
                <path d="M790.681,756.118C790.681,770.626 787.116,784.874 780.31,797.469C773.584,810.066 763.78,820.491 752.112,827.702C740.362,834.999 726.993,838.822 713.459,838.822C699.927,838.822 686.558,834.999 674.89,827.702C663.141,820.492 653.336,810.066 646.611,797.469C639.804,784.872 636.239,770.625 636.239,756.118C636.239,741.523 639.804,727.276 646.611,714.68C653.336,702.083 663.141,691.658 674.89,684.448C686.558,677.15 699.928,673.328 713.459,673.328C726.991,673.328 740.361,677.15 752.112,684.448C763.78,691.658 773.584,702.083 780.31,714.68C787.116,727.277 790.681,741.525 790.681,756.118Z" style="fill:rgb(128,0,128);"/>
            </g>
            <g transform="matrix(0.438175,0,0,0.438175,495.905,117.379)">
                <path d="M790.681,756.118C790.681,770.626 787.116,784.874 780.31,797.469C773.584,810.066 763.78,820.491 752.112,827.702C740.362,834.999 726.993,838.822 713.459,838.822C699.927,838.822 686.558,834.999 674.89,827.702C663.141,820.492 653.336,810.066 646.611,797.469C639.804,784.872 636.239,770.625 636.239,756.118C636.239,741.523 639.804,727.276 646.611,714.68C653.336,702.083 663.141,691.658 674.89,684.448C686.558,677.15 699.928,673.328 713.459,673.328C726.991,673.328 740.361,677.15 752.112,684.448C763.78,691.658 773.584,702.083 780.31,714.68C787.116,727.277 790.681,741.525 790.681,756.118" style="fill:none;fill-rule:nonzero;stroke:rgb(52,101,164);stroke-width:0.08px;"/>
            </g>
            <g transform="matrix(0.438175,0,0,0.438175,495.905,117.379)">
                <path d="M1099.39,756.118C1099.39,770.626 1095.82,784.874 1089.02,797.469C1082.29,810.066 1072.49,820.491 1060.82,827.702C1049.07,834.999 1035.7,838.822 1022.17,838.822C1008.63,838.822 995.264,834.999 983.596,827.702C971.847,820.492 962.042,810.066 955.317,797.469C948.51,784.872 944.945,770.625 944.945,756.118C944.945,741.523 948.511,727.276 955.317,714.68C962.042,702.083 971.847,691.658 983.596,684.448C995.264,677.15 1008.63,673.328 1022.17,673.328C1035.7,673.328 1049.07,677.15 1060.82,684.448C1072.49,691.658 1082.29,702.083 1089.02,714.68C1095.82,727.277 1099.39,741.525 1099.39,756.118Z" style="fill:rgb(255,128,0);"/>
            </g>
            <g transform="matrix(0.438175,0,0,0.438175,495.905,117.379)">
                <path d="M1099.39,756.118C1099.39,770.626 1095.82,784.874 1089.02,797.469C1082.29,810.066 1072.49,820.491 1060.82,827.702C1049.07,834.999 1035.7,838.822 1022.17,838.822C1008.63,838.822 995.264,834.999 983.596,827.702C971.847,820.492 962.042,810.066 955.317,797.469C948.51,784.872 944.945,770.625 944.945,756.118C944.945,741.523 948.511,727.276 955.317,714.68C962.042,702.083 971.847,691.658 983.596,684.448C995.264,677.15 1008.63,673.328 1022.17,673.328C1035.7,673.328 1049.07,677.15 1060.82,684.448C1072.49,691.658 1082.29,702.083 1089.02,714.68C1095.82,727.277 1099.39,741.525 1099.39,756.118" style="fill:none;fill-rule:nonzero;stroke:rgb(52,101,164);stroke-width:0.08px;"/>
            </g>
            <g transform="matrix(0.423185,0,0,0.453686,613.992,258.963)">
                <g transform="matrix(53.3092,0,0,53.3092,296.35,0)">
                </g>
                <text x="0px" y="0px" style="font-family:'Helvetica';font-size:53.309px;fill:white;">Rendezvous</text>
            </g>
            <g transform="matrix(0.423185,0,0,0.453686,776.886,519.873)">
                <text x="0px" y="0px" style="font-family:'Helvetica';font-size:53.309px;fill:white;">Relay</text>
            </g>
            <g transform="matrix(0.423185,0,0,0.453686,924.29,375.575)">
                <g transform="matrix(53.3092,0,0,53.3092,124.423,0)">
                </g>
                <text x="0px" y="0px" style="font-family:'Helvetica';font-size:53.309px;fill:white;">Entry</text>
            </g>
            <g transform="matrix(0.438175,0,0,-0.438175,616.236,496.055)">
                <path d="M330.234,166.032L193.058,348.322L196.941,351.246L334.117,168.955L330.234,166.032Z" style="fill:white;fill-rule:nonzero;"/>
            </g>
            <g transform="matrix(0.438175,0,0,-0.438175,618.568,497.152)">
                <path d="M340.601,156.288L337.671,180.385L318.258,165.776L340.601,156.288Z" style="fill:white;"/>
                <path d="M342.547,153.703L339.971,154.795L315.043,165.381L338.945,183.37L342.547,153.703ZM338.657,158.87L336.406,177.398L321.48,166.171L338.657,158.87Z" style="fill:white;"/>
            </g>
            <g transform="matrix(0.438175,0,0,0.438175,757.768,262.897)">
                <path d="M330.234,166.032L193.058,348.322L196.941,351.246L334.117,168.955L330.234,166.032Z" style="fill:white;fill-rule:nonzero;"/>
            </g>
            <g transform="matrix(0.438175,0,0,0.438175,760.1,261.799)">
                <path d="M340.601,156.288L337.671,180.385L318.258,165.776L340.601,156.288Z" style="fill:white;"/>
                <path d="M342.547,153.703L339.971,154.795L315.043,165.381L338.945,183.37L342.547,153.703ZM338.657,158.87L336.406,177.398L321.48,166.171L338.657,158.87Z" style="fill:white;"/>
            </g>
        </g>
    </g>
</svg>
