<?xml version="1.0" encoding="UTF-8"?>
<svg width="128" height="128" version="1.1" viewBox="0 0 33.867 33.867" xmlns="http://www.w3.org/2000/svg" xmlns:xlink="http://www.w3.org/1999/xlink"><defs><linearGradient id="linearGradient4356" x1="419.57" x2="426.57" y1="529.8" y2="536.8" gradientTransform="matrix(.26458 0 0 .26458 -108.56 -10.535)" gradientUnits="userSpaceOnUse" xlink:href="#linearGradient5044"/><linearGradient id="linearGradient5044"><stop offset="0"/><stop style="stop-opacity:0" offset="1"/></linearGradient><linearGradient id="linearGradient4486" x2="0" y1="44" y2="20" gradientTransform="matrix(.26458 0 0 .26458 -6.8047 121.7)" gradientUnits="userSpaceOnUse"><stop style="stop-color:#eef1f2" offset="0"/><stop style="stop-color:#f9fafb" offset="1"/></linearGradient><linearGradient id="linearGradient5038" x1="427.71" x2="437.71" gradientUnits="userSpaceOnUse" xlink:href="#linearGradient5026"/><linearGradient id="linearGradient5026"><stop style="stop-color:#ebc69a" offset="0"/><stop style="stop-color:#f4e0c8" offset="1"/></linearGradient><linearGradient id="linearGradient5050" x2="0" y1="531.79" y2="544.79" gradientTransform="rotate(-45 -392.17 755.39)" gradientUnits="userSpaceOnUse" xlink:href="#linearGradient5044"/><linearGradient id="linearGradient5040" x1="428.76" x2="430.47" y1="541.51" y2="528.51" gradientUnits="userSpaceOnUse" xlink:href="#linearGradient5026"/><linearGradient id="linearGradient4466" x2="0" y1="519.8" y2="504.8" gradientTransform="matrix(.26458 0 0 .26458 -108.56 -10.271)" gradientUnits="userSpaceOnUse" xlink:href="#linearGradient4152"/><linearGradient id="linearGradient4152"><stop style="stop-color:#bd8d48" offset="0"/><stop style="stop-color:#e8b971" offset="1"/></linearGradient><linearGradient id="linearGradient4768" x1="428.57" x2="406.57" gradientTransform="matrix(.26458 0 0 .26458 -108.56 -10.535)" gradientUnits="userSpaceOnUse"><stop style="stop-color:#e3dfd6" offset="0"/><stop style="stop-color:#f4f1e8" offset="1"/></linearGradient><linearGradient id="linearGradient4466-8" x2="0" y1="519.8" y2="504.8" gradientTransform="matrix(.26458 0 0 .26458 -108.56 -10.8)" gradientUnits="userSpaceOnUse" xlink:href="#linearGradient4152"/><linearGradient id="linearGradient4943" x1="392.57" x2="400.57" y1="516.8" y2="508.8" gradientTransform="translate(4e-6 1)" gradientUnits="userSpaceOnUse"><stop style="stop-color:#f39c12" offset="0"/><stop style="stop-color:#f5ab35" offset="1"/></linearGradient></defs><g transform="matrix(3.175 0 0 3.175 18.245 -389.64)"><g transform="matrix(.25557 -.068479 .068479 .25557 -140.39 21.666)"><rect x="392.57" y="509.8" width="19" height="16" style="color:#000000;fill:url(#linearGradient4943);stroke-linecap:round;stroke-linejoin:round"/><rect x="392.57" y="509.8" width="19" height="3" style="color:#000000;fill:#fff;opacity:.2;stroke-linecap:round;stroke-linejoin:round"/></g><rect x="-.98383" y="123.03" width="5.8208" height="8.7312" style="color:#000000;fill:url(#linearGradient4466-8);stroke-linecap:round;stroke-linejoin:round;stroke-width:.26458"/><rect x="-.98383" y="123.29" width="5.8208" height="8.7312" style="color:#000000;fill:url(#linearGradient4768);stroke-linecap:round;stroke-linejoin:round;stroke-width:.26458"/><rect x="-.98383" y="123.55" width="5.8208" height="8.7312" style="color:#000000;fill:url(#linearGradient4466);stroke-linecap:round;stroke-linejoin:round;stroke-width:.26458"/><g transform="matrix(.26458 0 0 .26458 -112.56 -15.296)" style="fill:url(#linearGradient5038)"><path transform="translate(399.71 517.79)" d="m35.121 11.879-4.2422 4.2422 2.6367 2.6367-3.8906 0.14844-0.625 1.0938v3l8.9844 0.22852 2.0859 2.0859 4.2441-4.2441z" style="color:#000000;fill:url(#linearGradient5050);opacity:.2;stroke-linecap:round;stroke-linejoin:round"/><path d="m432.71 528.79c-1.662 0-3 1.338-3 3s1.338 3 3 3 3-1.338 3-3-1.338-3-3-3zm0 7c-2.77 0-5 0.89198-5 2v6h10v-6c0-1.108-2.23-2-5-2zm0 1c2.216 0 4 0.6363 4 1.4277v4.5723h-8v-4.5723c0-0.79143 1.784-1.4277 4-1.4277z" style="fill:url(#linearGradient5040)"/></g><path d="m-5.7463 126.99v6.35h10.583v-6.35z" style="fill:url(#linearGradient4486);stroke-width:.26458"/><rect x="-5.7463" y="133.08" width="10.583" height=".26458" style="fill:#d1d3d4;stroke-width:.26458"/><path d="m-4.9526 133.34 0.26458-0.52916h0.52917l-0.26458 0.52916z" style="fill-rule:evenodd;fill:#c0392b;stroke-width:.26458"/><path d="m-2.8359 133.34 0.26458-0.52916h0.52917l-0.26458 0.52916z" style="fill-rule:evenodd;fill:#2980b9;stroke-width:.26458"/><path d="m-0.71925 133.34 0.26458-0.52916h0.52917l-0.26458 0.52916z" style="fill-rule:evenodd;fill:#c0392b;stroke-width:.26458"/><path d="m1.3974 133.34 0.26458-0.52916h0.52917l-0.26458 0.52916z" style="fill-rule:evenodd;fill:#2980b9;stroke-width:.26458"/><path d="m3.5141 133.34 0.26458-0.52916h0.52917l-0.26458 0.52916z" style="fill-rule:evenodd;fill:#c0392b;stroke-width:.26458"/><path d="m4.3078 131.76 0.52916 0.26458v0.52917l-0.52916-0.26459z" style="fill-rule:evenodd;fill:#2980b9;stroke-width:.26458"/><path d="m4.3078 129.64 0.52916 0.26458v0.52917l-0.52916-0.26458z" style="fill-rule:evenodd;fill:#c0392b;stroke-width:.26458"/><path d="m4.3078 127.52 0.52916 0.26459v0.52916l-0.52916-0.26458z" style="fill-rule:evenodd;fill:#2980b9;stroke-width:.26458"/><path d="m-5.2172 132.02-0.52916 0.26458v0.52917l0.52916-0.26458z" style="fill-rule:evenodd;fill:#2980b9;stroke-width:.26458"/><path d="m-5.2172 129.9-0.52916 0.26459v0.52916l0.52916-0.26458z" style="fill-rule:evenodd;fill:#c0392b;stroke-width:.26458"/><path d="m-5.2172 127.79-0.52916 0.26458v0.52917l0.52916-0.26459z" style="fill-rule:evenodd;fill:#2980b9;stroke-width:.26458"/><path d="m-5.2172 126.99 0.26458 0.52916h0.52917l-0.26458-0.52916z" style="fill-rule:evenodd;fill:#c0392b;stroke-width:.26458"/><path d="m-3.1005 126.99 0.26458 0.52916h0.52917l-0.26458-0.52916z" style="fill-rule:evenodd;fill:#2980b9;stroke-width:.26458"/><path d="m-0.98384 126.99 0.26458 0.52916h0.52917l-0.26458-0.52916z" style="fill-rule:evenodd;fill:#c0392b;stroke-width:.26458"/><path d="m1.1328 126.99 0.26458 0.52916h0.52917l-0.26458-0.52916z" style="fill-rule:evenodd;fill:#2980b9;stroke-width:.26458"/><path d="m3.2495 126.99 0.26458 0.52916h0.52917l-0.26458-0.52916z" style="fill-rule:evenodd;fill:#c0392b;stroke-width:.26458"/><path d="m3.7787 128.05 1.0583 1.0583v2.9104l-2.3812-2.3812z" style="fill-rule:evenodd;fill:url(#linearGradient4356);opacity:.2;stroke-width:.26458"/><rect x="2.4557" y="128.05" width="1.3229" height="1.5875" style="color:#000000;fill:#fcfcfc;stroke-linecap:round;stroke-linejoin:round;stroke-width:.26458"/><rect x="2.7203" y="128.32" width=".79375" height="1.0583" style="color:#000000;fill:#16a085;stroke-linecap:round;stroke-linejoin:round;stroke-width:.26458"/><g transform="matrix(.26458 0 0 .26458 -108.56 -10.535)"><rect x="404.57" y="528.8" width="7" height="1" style="color:#000000;fill:#bdc3c7;stroke-linecap:round;stroke-linejoin:round"/><rect x="404.57" y="530.8" width="4" height="1" style="color:#000000;fill:#bdc3c7;stroke-linecap:round;stroke-linejoin:round"/><rect x="404.57" y="532.8" width="10" height="1" style="color:#000000;fill:#bdc3c7;stroke-linecap:round;stroke-linejoin:round"/><rect x="404.57" y="534.8" width="5" height="1" style="color:#000000;fill:#bdc3c7;stroke-linecap:round;stroke-linejoin:round"/><rect x="392.57" y="523.8" width="4" height="1" style="color:#000000;fill:#bdc3c7;stroke-linecap:round;stroke-linejoin:round"/><rect x="392.57" y="525.8" width="7" height="1" style="color:#000000;fill:#bdc3c7;stroke-linecap:round;stroke-linejoin:round"/><rect x="392.57" y="527.8" width="6" height="1" style="color:#000000;fill:#bdc3c7;stroke-linecap:round;stroke-linejoin:round"/></g><rect x="-.19008" y="122.76" width=".26458" height="1.0583" style="color:#000000;fill:#7f8c8d;stroke-linecap:round;stroke-linejoin:round;stroke-width:.26458"/><rect x="3.7787" y="122.76" width=".26458" height="1.0583" style="color:#000000;fill:#7f8c8d;stroke-linecap:round;stroke-linejoin:round;stroke-width:.26458"/><rect x="1.1328" y="122.76" width=".26458" height="1.0583" style="color:#000000;fill:#7f8c8d;stroke-linecap:round;stroke-linejoin:round;stroke-width:.26458"/><rect x="2.4557" y="122.76" width=".26458" height="1.0583" style="color:#000000;fill:#7f8c8d;stroke-linecap:round;stroke-linejoin:round;stroke-width:.26458"/></g></svg>
