<?xml version="1.0" encoding="UTF-8"?>
<svg width="128" height="128" version="1.1" viewBox="0 0 33.867 33.867" xmlns="http://www.w3.org/2000/svg"><defs><linearGradient id="a" x1="43" x2="13" y1="40" y2="4" gradientUnits="userSpaceOnUse"><stop stop-color="#f27935" offset="0"/><stop stop-color="#f2784b" offset="1"/></linearGradient><linearGradient id="b" x1="24.13" x2="38" y1="27.13" y2="41" gradientUnits="userSpaceOnUse"><stop stop-color="#292c2f" offset="0"/><stop stop-opacity="0" offset="1"/></linearGradient></defs><g transform="matrix(.84667 0 0 .84667 -3.3867 -3.385)" stroke-linejoin="round" stroke-width="6"><path d="m11 4c-1.662 0-3 1.338-3 3v22.08a8 8 0 0 0-4 6.916 8 8 0 0 0 8 8 8 8 0 0 0 6.9199-4h22.08c1.662 0 3-1.338 3-3v-30c0-1.662-1.338-3-3-3z" fill="url(#a)" style="fill:url(#a)"/><path d="m26 21.75-14-1.75 6 6-6 2 12 12h17c1.662 0 2-1.25 2-1.25zm-11.172 11.422-5.656 5.656 4.889 4.891c2.049-0.547 3.796-1.884 4.859-3.719h2.738z" fill="url(#b)" opacity=".2" style="fill:url(#b)"/><path d="m4.0234 35.488a8 8 0 0 0-0.02344 0.51172 8 8 0 0 0 8 8 8 8 0 0 0 6.9199-4h22.08c1.662 0 3-1.338 3-3v-1c0 1.662-1.338 3-3 3h-22.08a8 8 0 0 1-6.92 4 8 8 0 0 1-7.9766-7.5117" fill="#b86333"/><path d="m12 16v4c8.837 0 16 7.163 16 16h4c0-11.05-8.954-20-20-20m0 8v4c4.418 0 8 3.582 8 8h4c0-6.627-5.373-12-12-12m0 8c-2.209 0-4 1.791-4 4s1.791 4 4 4 4-1.791 4-4-1.791-4-4-4" fill="#fff"/></g></svg>
