<svg xmlns="http://www.w3.org/2000/svg" width="128" height="128" version="1.1" viewBox="0 0 33.867 33.867"><path d="m8.3333e-7 17.111v-10.533h6.6667v1.4667c0 0.80667 0.06031 1.4667 0.13403 1.4667 0.07372 0 0.55472-0.46565 1.0689-1.0348 2.8248-3.1267 8.5352-2.9215 10.87 0.39062l0.81371 1.1544 1.0329-1.1735c1.5418-1.7516 3.5292-2.6256 5.9698-2.6256 3.866 0 6.3353 2.1308 7.019 6.0568 0.1605 0.92165 0.29182 4.7559 0.29182 8.5206v6.8448h-6.6667l-0.02048-6.7333c-0.0232-7.6255-0.17595-8.5622-1.5247-9.3499-1.659-0.96889-3.7937 0.0566-4.7504 2.2822-0.41586 0.96742-0.50177 2.0662-0.58384 7.4677l-0.09624 6.3333h-6.6244l-0.01161-6.4667c-0.0064-3.5567-0.11264-6.9896-0.23611-7.6287-0.31779-1.645-1.0704-2.311-2.575-2.2787-1.5406 0.0331-2.4555 0.69203-3.2986 2.3759-0.62835 1.255-0.65912 1.5622-0.7665 7.6528l-0.11187 6.3453h-6.6003z" style="stroke-width:.26667"/></svg>