<svg width="72" height="72" viewBox="0 0 24 24" fill="none" xmlns="http://www.w3.org/2000/svg" data-reactroot="">
<path stroke-linejoin="round" stroke-linecap="round" stroke-width="0" stroke="#ffffff" fill="#eb7c0f" d="M12 22C9.28 22 4.57 19.33 4.05 14.99C3.69 11.95 5.51 9.6 6.01 8.99C6.42 11.1 7.53 12.7 8.95 12.99C9.21 13.04 9.54 13.06 9.93 12.99C9.82 10.67 10 6.33 12.86 3C13.17 2.63 13.66 2.3 14 2C14.24 4.64 14.98 6.12 15.8 7C16.91 8.19 18.59 9 19.48 11.28C19.52 11.37 19.63 11.65 19.72 12C20.34 14.38 20.04 17.88 17.76 19.99C15.85 21.76 13.35 22 13 22C12.49 22 12.56 22 12 22Z" transform="translate(2,2)"></path><path stroke-linejoin="round" stroke-linecap="round" stroke-width="1" stroke="#ffffff" fill="none" d="M12 22C9.28 22 4.57 19.33 4.05 14.99C3.69 11.95 5.51 9.6 6.01 8.99C6.42 11.1 7.53 12.7 8.95 12.99C9.21 13.04 9.54 13.06 9.93 12.99C9.82 10.67 10 6.33 12.86 3C13.17 2.63 13.66 2.3 14 2C14.24 4.64 14.98 6.12 15.8 7C16.91 8.19 18.59 9 19.48 11.28C19.52 11.37 19.63 11.65 19.72 12C20.34 14.38 20.04 17.88 17.76 19.99C15.85 21.76 13.35 22 13 22C12.49 22 12.56 22 12 22Z"></path>
<path stroke-linejoin="round" stroke-linecap="round" stroke-miterlimit="10" stroke-width="0" stroke="#ffffff" fill="#FDD17B" d="M14 16C12.96 17.04 11.41 17.43 10 17C11.13 18.09 12.7 18.5 14 18C16.01 17.24 16.83 14.54 16 13C15.74 12.53 15.36 12.21 15 12C15.43 13.41 15.04 14.96 14 16Z" transform="translate(2,2)"></path><path stroke-linejoin="round" stroke-linecap="round" stroke-miterlimit="10" stroke-width="1" stroke="#ffffff" fill="none" d="M14 16C12.96 17.04 11.41 17.43 10 17C11.13 18.09 12.7 18.5 14 18C16.01 17.24 16.83 14.54 16 13C15.74 12.53 15.36 12.21 15 12C15.43 13.41 15.04 14.96 14 16Z"></path>
</svg>
