<?xml version="1.0" encoding="UTF-8" standalone="no"?>
<!DOCTYPE svg PUBLIC "-//W3C//DTD SVG 1.1//EN" "http://www.w3.org/Graphics/SVG/1.1/DTD/svg11.dtd">
<svg width="100%" height="100%" viewBox="0 0 128 128" version="1.1" xmlns="http://www.w3.org/2000/svg" xmlns:xlink="http://www.w3.org/1999/xlink" xml:space="preserve" xmlns:serif="http://www.serif.com/" style="fill-rule:evenodd;clip-rule:evenodd;stroke-linejoin:round;stroke-miterlimit:2;">
    <g transform="matrix(1.10345,0,0,1.10345,0,0)">
        <path d="M2,58C2,88.929 27.072,114 58,114C88.928,114 114,88.929 114,58C114,27.072 88.928,2 58,2C27.072,2 2,27.072 2,58Z" style="fill:white;"/>
        <path d="M58,14C82.3,14 102,33.7 102,58C102,82.301 82.3,102 58,102C33.7,102 14,82.301 14,58C14,33.7 33.7,14 58,14" style="fill:rgb(26,140,255);"/>
        <path d="M0,58C0,90.034 25.967,116 58,116C90.033,116 116,90.034 116,58C116,25.967 90.033,0 58,0C25.967,0 0,25.967 0,58ZM2,58C2,27.075 27.069,2 58,2C88.931,2 114,27.075 114,58C114,88.925 88.932,114 58,114C27.068,114 2,88.925 2,58Z" style="fill-opacity:0.5;fill-rule:nonzero;"/>
        <path d="M113.921,55C113.973,55.993 114,56.994 114,58C114,88.928 88.928,114 58,114C27.072,114 2,88.928 2,58C2,56.994 2.027,55.993 2.079,55C3.638,84.533 28.079,108 58,108C87.69,108 111.985,84.894 113.88,55.682L113.921,55ZM58,8C85.062,8 107,29.938 107,57C107,72.13 100.143,85.657 89.368,94.646C98.37,86.249 104,74.282 104,61C104,35.595 83.405,15 58,15C32.595,15 12,35.595 12,61C12,74.282 17.629,86.249 26.631,94.646C15.857,85.657 9,72.129 9,57C9,29.938 30.938,8 58,8Z" style="fill-opacity:0.05;"/>
        <path d="M58,14C82.304,14 102,33.703 102,58C102,82.298 82.304,102 58,102C33.94,102 14.394,82.69 14.006,58.728L14,58C14,33.703 33.696,14 58,14ZM58,16C34.804,16 16,34.804 16,58C16,81.197 34.804,100 58,100C81.196,100 100,81.197 100,58C100,34.804 81.196,16 58,16Z" style="fill-opacity:0.26;fill-rule:nonzero;"/>
        <path d="M58.223,23C58.181,23 58.138,23 58.096,23C38.843,23 23,38.843 23,58.096C23,58.138 23,58.181 23,58.223C23,77.403 38.743,93 58.223,93C77.33,93 93,77.33 93,58.223C93,38.743 77.402,23 58.223,23ZM58.221,25C76.225,25 91,39.775 91,58.221C91,76.226 76.225,91 58.221,91C39.775,91 25,76.226 25,58.221C25,58.179 25,58.138 25,58.096C25,39.94 39.94,25 58.096,25C58.138,25 58.179,25 58.221,25Z" style="fill-opacity:0.25;fill-rule:nonzero;"/>
        <path d="M58.221,25C76.225,25 91,39.775 91,58.221C91,76.226 76.225,91 58.221,91C39.775,91 25,76.226 25,58.221C25,58.179 25,58.138 25,58.096C25,39.94 39.94,25 58.096,25C58.138,25 58.179,25 58.221,25Z" style="fill:rgb(247,247,247);"/>
        <g>
            <path d="M73,58C73,66.284 66.284,73 58,73C49.716,73 43,66.284 43,58C43,49.716 49.716,43 58,43C66.284,43 73,49.716 73,58Z" style="fill-opacity:0.05;"/>
            <path d="M58,41C48.611,41 41,48.611 41,58C41,67.389 48.611,75 58,75C67.389,75 75,67.389 75,58C75,48.611 67.389,41 58,41ZM58,43C66.284,43 73,49.716 73,58C73,66.284 66.284,73 58,73C49.716,73 43,66.284 43,58C43,49.716 49.716,43 58,43Z" style="fill:white;fill-rule:nonzero;"/>
            <path d="M58,43C66.284,43 73,49.716 73,58C73,66.284 66.284,73 58,73C49.716,73 43,66.284 43,58C43,49.716 49.716,43 58,43ZM58,45C50.82,45 45,50.82 45,58C45,65.18 50.82,71 58,71C65.18,71 71,65.18 71,58C71,50.82 65.18,45 58,45Z" style="fill-opacity:0.15;fill-rule:nonzero;"/>
        </g>
        <g>
            <path d="M63.577,32L52.423,32C49.951,32 48,34.165 48,36.772L48,47.564C48,48.546 48.354,49.494 48.996,50.206L50.636,52.025C50.673,52.067 50.673,52.186 50.636,52.229L48.996,54.047C48.35,54.775 47.995,55.717 48,56.69L48,79.229C48,81.835 49.951,84 52.423,84L63.577,84C66.049,84 68,81.835 68,79.228L68,68.436C68.005,67.463 67.65,66.522 67.004,65.794L65.364,63.975C65.327,63.933 65.327,63.814 65.364,63.771L67.004,61.953C67.65,61.225 68.005,60.283 68,59.31L68,36.772C68,34.165 66.049,32 63.577,32ZM63.45,34.038C64.858,34.038 66,35.332 66,36.928L66,59.302C66,59.812 65.82,60.302 65.502,60.664L63.908,62.47C63.244,63.222 63.244,64.442 63.908,65.195L65.502,67C65.821,67.361 66,67.851 66,68.362L66,79.072C66,80.667 64.858,81.962 63.45,81.962L52.55,81.962C51.142,81.962 50,80.667 50,79.072L50,56.697C50,56.187 50.18,55.697 50.498,55.335L52.092,53.529C52.756,52.777 52.756,51.557 52.092,50.804L50.498,49C50.173,48.621 49.996,48.137 50,47.637L50,36.927C50,35.332 51.142,34.037 52.55,34.037L63.45,34.037L63.45,34.038Z" style="fill:white;fill-rule:nonzero;"/>
            <path d="M50,47.621L50,36.895C50,35.296 51.142,34 52.55,34L63.45,34C64.858,34 66,35.296 66,36.894L66,59.304C66.004,59.804 65.827,60.288 65.502,60.668L63.908,62.478C63.244,63.231 63.244,64.452 63.908,65.206L65.502,67.015C65.821,67.377 66,67.868 66,68.379L66,79.106C66,80.704 64.858,82 63.45,82L52.55,82C51.142,82 50,80.704 50,79.106L50,56.696C50,56.185 50.18,55.694 50.498,55.332L52.092,53.522C52.756,52.769 52.756,51.548 52.092,50.794L50.498,48.985C50.173,48.605 49.996,48.121 50,47.621Z" style="fill:rgb(10,45,77);"/>
            <path d="M63.45,34C64.858,34 66,35.296 66,36.894L66,59.304C66.004,59.804 65.827,60.288 65.502,60.668L63.908,62.478C63.244,63.231 63.244,64.452 63.908,65.206L65.502,67.015C65.821,67.377 66,67.868 66,68.379L66,79.106C66,80.704 64.858,82 63.45,82L52.55,82C51.142,82 50,80.704 50,79.106L50,56.696C50,56.185 50.18,55.694 50.498,55.332L52.092,53.522C52.756,52.769 52.756,51.548 52.092,50.794L50.498,48.985C50.173,48.605 49.996,48.121 50,47.621L50,36.894C50,35.296 51.142,34 52.55,34L63.45,34ZM63.162,36.054L52.838,36.041C52.434,36.041 52.054,36.421 52.005,36.957L52,37.075L52,47.705C52,47.737 52.007,47.764 52.015,47.783L52.029,47.806L53.7,49.6C55.006,51.003 55.05,53.201 53.835,54.659L53.7,54.812L52.03,56.606C52.02,56.616 52.01,56.637 52.005,56.664L52.001,56.707L52.001,78.925C52.001,79.484 52.354,79.9 52.753,79.953L52.839,79.959L63.163,79.972C63.567,79.972 63.947,79.593 63.996,79.056L64.001,78.939L64.001,68.308C64.001,68.281 63.996,68.255 63.986,68.23L63.972,68.207L62.302,66.413C60.996,65.01 60.952,62.813 62.167,61.355L62.302,61.201L63.972,59.407C63.982,59.397 63.992,59.377 63.997,59.35L64.001,59.306L64.001,37.088C64.001,36.53 63.648,36.113 63.249,36.06L63.163,36.054L63.162,36.054Z" style="fill-opacity:0.4;fill-rule:nonzero;"/>
        </g>
    </g>
</svg>
