<?xml version="1.0" encoding="UTF-8"?>
<svg version="1.1" viewBox="0 0 128 128" xml:space="preserve" xmlns="http://www.w3.org/2000/svg">
<style type="text/css">
	.st0{fill:none;}
	.st1{fill:#F6D2A2;}
	.st2{fill:#6BD7E5;}
	.st3{fill:#5EC4CC;}
	.st4{fill:#FFFFFF;}
	.st5{fill:#FBC500;}
	.st6{fill:#E8B30C;}
	.st7{fill:#CCCCCC;}
	.st8{fill:#D8B58B;}
	.st9{fill:#BCBCBC;}
	.st10{fill:#DBDBDB;}
	.st11{fill:#E0E0E0;}
</style>
<g transform="matrix(.11224 0 0 .11224 20.256 -2.1438)">
	<path class="st0" d="m700.8 580.3c2.4-1.8 4.5-3.7 6.4-5.4-0.5 0-0.9-0.1-1.4-0.2-1.8-0.4-3.5-1.3-4.8-2.5z"/>
	<path class="st0" d="m77.3 569.3 0.9 1.2v-0.4c-0.3-0.3-0.6-0.5-0.9-0.8z"/>
	<path class="st1" d="m531.5 1123.9c10.4 2.4 43.8 9.9 64.3 11.2-0.1-0.1-0.2-0.3-0.4-0.4-5.4-5.7-31.1-15.7-50.3-18.5-4.5 2.7-9 5.2-13.6 7.7z"/>
	<path class="st1" d="m222.8 1109.7c-16.1 4.8-34.1 17.5-38 21.8-1.1 1.2-1.3 2-1.3 2.3 0.1 0.3 0.9 1.1 2.9 1.8 11.1-0.7 42.1-13.6 50.5-17.2-4.7-2.8-9.4-5.7-14.1-8.7z"/>
	<path class="st1" d="m736.3 723.9c-7.4-12.2-26.3-26.1-38.8-34.4l-0.5 17.5c8.3 4.2 31.2 15.6 39.3 16.9 0.1 0 0 0 0 0z"/>
	<path class="st2" d="m693.2 585.8 0.7-23.3c-5.6 4-11 9.3-14.9 13.4 1 0.9 1.9 1.8 2.8 2.9 2.7 3.1 4.9 6.6 6.5 10.1 1.7-1.1 3.3-2.1 4.9-3.1z"/>
	<path class="st2" d="m496.4 758.2-3.7-7.4-2.8-0.4c-2.7-0.4-16.5-2.8-22.3-13-1.7-3-3.2-7.6-2-13.4l-41.7 15.7c3.3 5.6 5.1 12 5.5 17.8 0.7 9.5-2.1 17.2-7.5 20.7l-0.8 1 7 12.5c19.7-15.8 43-27.4 68.3-33.5z"/>
	<path class="st2" d="m619.8 634.7c0.2-3.1-0.4-7-2.4-9.1-1.2 5-0.5 9.4 0.1 11.6l0.2 0.2c1.1-1.3 1.8-2.2 2.1-2.7z"/>
	<path class="st2" d="m598.4 646.2-0.2-0.5c-0.2-0.6-2.7-7.4-2.4-16.7-11.3 6.5-24.2 17.8-32.5 26 6.4 1.8 10.9 5.5 13.5 10.9 0.1 0.3 0.2 0.5 0.4 0.8 5.8-3.1 12.3-7 18.6-11.2 2.2-1.5 4.2-2.9 6.1-4.3-1.3-1.4-2.3-2.8-3-4z"/>
	<path class="st2" d="m534.7 677.7c-1.4 0.4-2.7 1-4 1.5 3 3.7 4.5 6.5 4.5 6.6s0.1 0.2 0.1 0.3l7 16.6c2.7-3.4 5.1-6.7 7.2-9.8-1.8-0.7-3.6-1.7-5.2-2.8-4.9-3.6-7.8-8.4-9.6-12.4z"/>
	<path class="st2" d="m652.8 608.5c-3-4.2-3.9-9.1-3.6-13.7-4.7 3-10.8 7.5-18.7 14.1 6.7 5.6 10.4 14.7 10.4 24.8 6.8-5.3 14.1-12.7 19.8-19.1-3.9-1.5-6.4-3.9-7.9-6.1z"/>
	<path class="st2" d="m311.8 1100.7c68.9 26.1 134.5 15.3 178.7 0.8-74.7-21-129.6-89.6-129.6-170.9 0-32.5 8.8-62.9 24.1-89.2l-26.1-52.5c-13-4.2-32.7-11.6-41.3-16.4-7.3-4.1-10.8-10.4-12.2-17.5-12.9-1.9-28-6.7-38.5-11.3-19.7-8.6-24.3-11.3-30.7-23.7-3.6-0.9-12.1-5.7-51.4-34.3-1.2-0.9-2.2-1.8-3.1-2.7-3.6-0.2-7.1-1.1-10.3-2.6-8.9-4.2-28.8-21.3-36.9-28.5-1.2 0-4.9 0.1-6.1 0.1-5.7 0-12.1-0.8-20.3-6.4-0.2-0.1-11.3-8.5-21-18.3l2.6 109.2c7-4.1 11.7-6.3 12-6.4 1.9-0.9 4.1 0 4.9 1.8 0.9 1.9 0 4.1-1.8 4.9 0 0-0.4 0.2-0.9 0.4l5.9 35.5c1-0.2 2 0.1 2.9 0.7 1.6 1.3 1.9 3.6 0.7 5.2-2.2 2.8-11.1 8.7-22.3 14.4l1.7 73.4c0 6.1 0.2 12.2 0.6 18.2 15 50.8 64.2 157.6 218.4 216.1z"/>
	<path class="st2" d="m345.2 727.3v0.7c0 8.1-5.1 19.8-19.1 25.8-0.1 0-0.2 0.1-0.3 0.1 0.4 0.5 0.8 1 1.4 1.3 3.9 2.2 11.3 5.2 19 8.2l-0.7-1.5c-0.3-0.5-0.4-1.1-0.4-1.7 0-1.1 0.2-17.1 4.4-31.8-1.8-0.4-3.2-0.8-4.3-1.1z"/>
	<path class="st2" d="m134.4 610.3c-9.2-7.7-20.5-16.8-26.7-21.7-1.6 7.1-5 15-8.3 21.4-0.2 0.3-0.3 0.6-0.5 0.9 5.8 6.1 14.1 14 20.3 18.3 2.8 1.9 4.7 2.6 7 2.8-0.1-2.7 0-5.4 0.6-8.1 1.1-4.2 4.1-9.2 7.6-13.6z"/>
	<path class="st2" d="m80.8 367.6 4.3 182.7c5 3.5 9.9 8.1 13.9 12.6 5.8 0.3 11.2 2.6 17.2 7.2 0.3 0.2 18.9 14.7 33.2 26.9 6.9-3 13.6-2.1 19.4 2.5l37.2 25.9c1.7 1.2 3 2.9 3.7 4.9 0.1 0.3 0.2 0.5 0.3 0.8 5.1 0.2 10.6 1.5 16 4.4 9.4 5 34.9 27 42 33.8 0.9 0.9 1.8 1.8 2.5 2.7 5.2 0.2 10.2 0.9 14 1.4l1.5 0.3c2.8 0.9 27.8 8.8 40 16.6 6.8 4.3 11.7 9.7 14.9 16.3 3.3 0.2 5.7 0.6 6.3 0.7 0.2 0 0.5 0.1 0.7 0.2 0.1 0 4.2 1.1 10.5 2.9 1.3-1.4 2.6-2.7 4.2-3.7 15.9-10.5 115.4-43.6 119.6-45 0.1 0 0.3-0.1 0.4-0.1 12.2-2.5 22.1-0.6 29.9 3 7.4-4.3 15.7-7.7 25.1-9.5l5-9 0.9-1c1.3-1.4 32.5-34.4 57-41 1.9-0.5 3.7-0.9 5.4-1.2 1.6-1.9 3.4-3.7 5.5-5.5 17.8-15.3 32.5-26.2 44.9-28.8 0.5-0.5 1-0.9 1.6-1.3 0.5-0.4 2.2-2.3 3.2-3.3 7.1-7.6 19.2-20.5 33.7-26l5.2-170.8v-0.1c1-10 1.4-20.1 1.4-30 0-74.7-26.2-145.4-74.2-201.6-6.3 2.9-11.1 4.9-12.7 5.5-0.4 0.2-0.9 0.2-1.3 0.2-1.5 0-2.9-0.9-3.5-2.4-0.7-1.9 0.2-4.1 2.1-4.8 16-6.1 57.2-26.2 55.4-44.8-2.2-22.6-33.4-41.8-61.9-52.1-3.5-1.3-6.9-1-10.2 0.8-14 8.1-23.4 40.3-25.9 52.1-0.4 2-2.4 3.3-4.4 2.9s-3.3-2.4-2.9-4.4c0.1-0.5 0.8-4 2.2-9-50.9-34.5-111-53.1-173.9-53.1-71.1 0-138.5 23.7-193.3 67.3 1.7 4.6 2.5 7.8 2.6 8.3 0.5 2-0.7 4-2.7 4.5s-4-0.7-4.5-2.7c-0.1-0.4-11.2-42.8-36.8-47.6-11.9-2.3-32.8 7.6-45.6 21.4-5.3 5.7-13.6 17-10.4 28.9 5.2 19.2 19.9 33.1 30.7 43.3 4.5 4.3 8.1 7.6 10.1 10.6 1.1 1.7 0.7 4-1 5.1-0.6 0.4-1.3 0.6-2.1 0.6-1.2 0-2.4-0.6-3.1-1.7-0.4-0.5-0.8-1.1-1.4-1.7-34.7 51.3-53.4 111.6-53.4 174.7 0 9.9 0.5 19.9 1.4 30zm497.6-259.4c0.6-1.2 16-29.8 39.1-33.8 2-0.4 3.9 1 4.3 3s-1 3.9-3 4.3c-1.8 0.3-3.6 0.8-5.3 1.5-3.7 9.1-7.2 29.1-15 32.7-7.1 3.3-12.7-0.3-15.3-2.6-0.5 0.2-1 0.4-1.5 0.4-0.6 0-1.2-0.1-1.7-0.4-1.9-1-2.5-3.3-1.6-5.1zm-12.8 130.1c62.8 0 113.8 51.1 113.8 113.8s-51.1 113.9-113.8 113.9-113.9-51-113.9-113.8 51.1-113.9 113.9-113.9zm-165.8 273.5v-1.1c0-12 9-21.8 20-21.8 11.1 0 20 9.8 20 21.8 0 0.5 0 0.9-0.1 1.4 7 0.8 18.6 4.1 26.5 11.1 6.4 5.7 8.8 17.2 7.9 25.2-0.6 5-2.5 8.4-5.4 10-2.1 1.1-5.2 1.4-9.5 1-0.1 3.1-0.3 6.9-0.9 11.6-1.3 11-3.7 22.1-5.2 26.2-1.3 3.6-4.9 5.4-10.5 5.4-3.1 0-6.8-0.6-11.1-1.7-3.2-0.9-5.7-1.7-7.5-2.6-1 1.2-2.5 2.4-5 3.2-2.2 0.8-5 1.2-8 1.2-5.8 0-12.6-1.5-18-4.8-8.2-5.1-8.8-24.2-8.4-36-1.2 0.1-2.5 0.2-3.7 0.2-3.5 0-7-0.4-10.2-1.5-5.8-1.9-8.1-5.7-8.9-8.6-2.7-8.7 3.6-20.3 7.8-25.7 7.1-9.4 24.2-13.3 30.2-14.5zm-136.5-249.9c59.3 0 107.5 48.2 107.5 107.5s-48.2 107.6-107.5 107.6-107.5-48.2-107.5-107.5 48.2-107.6 107.5-107.6zm-132.2-167.1c-2.3-1.3-3.7-2.1-3.8-2.1-1.8-0.9-2.6-3.2-1.6-5 0.9-1.8 3.2-2.6 5-1.6 1.6 0.8 38.2 19.7 45.1 43.3 0.6 2-0.6 4-2.5 4.6-0.3 0.1-0.7 0.1-1 0.1h-0.5c-4.2 4.9-20.7-1.3-20.7-1.3s-15.4-27.1-20-38z"/>
	<path class="st2" d="m167.1 622.5c-0.4 6.5-3.2 12.7-5.2 15.1-0.1 0.1-0.2 0.2-0.3 0.4l-0.1 0.2c-1 1.4-2.8 3.9-5.4 6.4 7.8 6.6 15.4 12.7 20.2 15.9 1.7-6.2 6.8-12.9 13.1-20.7l0.9-1.1z"/>
	<path class="st2" d="m235.5 690c3.1-5.9 7.5-10.4 11.2-13.2-10.6-9.3-25.4-21.3-30-23.7-0.3-0.2-0.7-0.3-1-0.5 0 1.3 0 18-9.4 24.4 10.6 7.6 20.2 14.3 26.8 18.7 0.7-1.9 1.4-3.8 2.4-5.7z"/>
	<path class="st3" d="m171.7 134.1c-1.4-0.2-2.7-1.2-3.1-2.6-4.8-16.5-28.2-31.3-37.5-36.7 4.7 10.9 19.9 38 19.9 38s16.5 6.2 20.7 1.3z"/>
	<path class="st2" d="m269.4 700.2c-1.1 2.4-2.2 4.7-2.7 6.5-1 3.8-3.3 8.1-8.1 10.9 2.8 2.2 7.2 4.1 16.1 8 11.4 5 22.5 7.9 30.6 9.4 0.4-3.1 0.9-6.1 1.4-9l0.1-0.4c0.9-5.6 3.9-10.3 8.6-13.6 1.2-0.8 2.4-1.5 3.7-2.1-1.1-1-2.3-1.9-3.6-2.7-9.4-5.9-31.2-13.1-34.7-14.2-2.6-0.4-5.4-0.7-8-0.9-1.1 3-2.4 5.8-3.4 8.1z"/>
	<path class="st2" d="m685.8 831.8 6.7-221.6c-1.3 0.6-2.6 1.2-3.9 1.7-5.8 11.1-19.2 24.5-21 26.3-11 10.9-27 23.9-41 23.9-1.4 0-2.8-0.1-4.1-0.3-3.9 3.2-8.4 6.6-13.6 10.2-9.7 6.7-23.1 14.6-34.1 19-3.7 8.6-10.6 19.3-22.7 32.6l-0.5 0.5 13.1 30.9c50.3 7.5 93.8 36.3 121.1 76.8z"/>
	<path class="st4" d="m174.7 416c15.3 12.3 50.4 36.3 90.3 36 43.3-0.3 76.1-28.5 90.5-43.4 5.1-12 8-25.2 8-39.1 0-55.2-44.9-100.1-100.1-100.1s-100.1 44.9-100.1 100.1c-0.1 16.7 4.1 32.6 11.4 46.5zm48.3-93.5c9.1 0 16.4 8.7 16.4 19.4s-7.3 19.4-16.4 19.4-16.4-8.7-16.4-19.4 7.4-19.4 16.4-19.4z"/>
	<path class="st4" d="m569.6 439.4c52-0.1 83.2-33.9 96.8-53.2 3.6-10.7 5.6-22.1 5.6-34 0-58.7-47.7-106.4-106.4-106.4s-106.4 47.7-106.4 106.4c0 12 2 23.6 5.7 34.3 14.9 18.6 50.1 53 104.7 52.9zm47.1-134.4c7.5 0 13.5 8.3 13.5 18.4 0 10.2-6.1 18.4-13.5 18.4s-13.5-8.3-13.5-18.4c-0.1-10.1 6-18.4 13.5-18.4z"/>
	<path class="st4" d="m407.7 556.7c-4.8 1.5-10.1 3.1-15.6 4.1-0.6 11.9 0.5 21.4 2.4 26.6 5.5 1.9 11.5 2.8 15 2.9 2.6 0.1 6.1-5.2 8.6-9.7-0.4-7.6-1-17.7-1.6-26.5-2.6 0.7-5.7 1.6-8.8 2.6z"/>
	<path class="st3" d="m538.4 1108.1c-16.6 0-32.7-2.3-47.9-6.6-44.2 14.5-109.8 25.3-178.7-0.8-154.1-58.5-203.4-165.3-218.5-215.9 4.7 68.8 35.9 133.5 89 183.7 56.3 53.2 132.1 83.7 208 83.7 38.6 0 76.4-7.7 112.5-22.9 14.4-6 28.2-13.2 41.4-21.3-1.9 0.1-3.9 0.1-5.8 0.1z"/>
	<path class="st4" d="m451.8 558.5c-3.4-0.6-7.3-1.3-11.6-2.2-6-1.2-12.1-2.4-16.2-2.8 0.7 11.1 1.2 20 1.6 26.5 3 3.4 7.3 7.2 12.4 8.1 4.1 0.8 7.7-0.5 10.5-2.2 0.9-4.2 1.7-9.2 2.4-14.1 0.6-5.8 0.9-10.2 0.9-13.3z"/>
	<path class="st1" d="m384.9 548.9c7.2 0.6 16.9-7.1 33.7-7.5 16.9-0.4 16.2 0.9 29.9 2 7.9 0.6 14.2-0.5 18.2-1.6-0.6-5-2.5-10.4-5.4-13-6.6-5.9-17.4-8.9-23.1-9.4-3.1 7.7-10.1 13.1-18.4 13.1s-15.5-5.6-18.5-13.5c-6.8 1.2-20.8 4.9-25.9 11.7-3 4-5.8 9.4-6.6 13.9 3.5 2.9 10.4 3.9 16.1 4.3z"/>
	<path d="m223 361.3c9.1 0 16.4-8.7 16.4-19.4s-7.3-19.4-16.4-19.4-16.4 8.7-16.4 19.4 7.4 19.4 16.4 19.4zm-4.3-28.7c2.4 0 4.3 2.1 4.3 4.6s-1.9 4.6-4.3 4.6-4.3-2.1-4.3-4.6 1.9-4.6 4.3-4.6z"/>
	<path class="st3" d="m585 111.7c-0.4 0.8-1 1.3-1.8 1.6 2.6 2.3 8.2 5.9 15.3 2.6 7.8-3.6 11.4-23.6 15-32.7-16.7 6.6-28.4 28.2-28.5 28.5z"/>
	<path d="m616.7 341.9c7.5 0 13.5-8.3 13.5-18.4 0-10.2-6.1-18.4-13.5-18.4s-13.5 8.3-13.5 18.4c-0.1 10.1 6 18.4 13.5 18.4zm3.7-28.2c2.7 0 4.9 2.2 4.9 4.9s-2.2 4.9-4.9 4.9-4.9-2.2-4.9-4.9 2.2-4.9 4.9-4.9z"/>
	<path d="m168.6 131.5c0.4 1.5 1.7 2.5 3.1 2.6h0.5c0.3 0 0.7 0 1-0.1 2-0.6 3.1-2.6 2.5-4.6-6.9-23.6-43.5-42.5-45.1-43.3-1.8-0.9-4.1-0.2-5 1.6s-0.2 4.1 1.6 5c0.1 0 1.5 0.8 3.8 2.1 9.4 5.4 32.8 20.2 37.6 36.7z"/>
	<path d="m580 113.2c0.6 0.3 1.1 0.4 1.7 0.4 0.5 0 1-0.1 1.5-0.4 0.7-0.3 1.4-0.9 1.8-1.6 0.1-0.2 11.8-21.9 28.5-28.5 1.7-0.7 3.5-1.2 5.3-1.5 2-0.4 3.4-2.3 3-4.3s-2.3-3.4-4.3-3c-23.1 4.1-38.5 32.6-39.1 33.8-0.9 1.9-0.3 4.2 1.6 5.1z"/>
	<path class="st1" d="m43.8 791.4c-0.4 0.9-1.3 3-1.7 4.9 35.3-10.1 65.5-35.8 65.5-35.8l1.7 12.3c0.1 0 0.2-0.1 0.4-0.1l-5.9-35.5c-6.5 3.2-45.8 23.4-60 54.2z"/>
	<path class="st5" d="m484.3 668.9c-35.4 11.7-104.9 35.9-117.4 43.9 13.4 3.9 31 9.3 42.8 14.1l65.6-23.8c6.4-10.7 16.1-23.6 29.7-33.6-5.8-1.6-12.7-2.2-20.7-0.6z"/>
	<path class="st6" d="m549.5 717.2c6.5-7.3 12.6-15.5 16.9-23.4l-1.5 0.3c-1.9 0.3-3.8 0.5-5.7 0.5-1.2 0-2.3-0.1-3.4-0.2-3.2 5-7 10.1-10.8 14.6l2.8 6.7z"/>
	<path class="st5" d="m548 649.5-0.4 0.4-2.3 4.2c1.1-0.1 2.3-0.2 3.5-0.3 2.5-0.1 4.9-0.1 7.1 0 4.5-4.6 24-24 40.9-32.2 0.8-3.5 2-7.2 4-10.9-22.7 6.9-51.6 37.5-52.8 38.8z"/>
	<path class="st5" d="m537.6 661.5c-1.4 0.3-2.7 0.6-4.1 1-5.3 1.4-10.1 3.4-14.6 5.8-2.5 1.3-4.9 2.7-7.2 4.2-19.9 13.2-31.7 33.6-37.1 45-0.8 1.7-1.5 3.2-2 4.5-0.4 0.8-0.6 1.6-0.8 2.4-1.2 4.4-0.1 7.8 1.1 9.9 3.3 5.7 10.5 8.3 14.7 9.3l0.3-2.1-4.5-8.8c-1.3-0.8-2.4-1.7-3-2.8-0.5-1-0.6-2-0.4-2.9 0.1-0.8 0.4-1.5 0.6-1.9 0.6-1.4 1.3-3.1 2.3-5 5.4-11.3 17.1-30.8 36.6-42.4 2.2-1.3 4.5-2.5 6.8-3.6 2.1-0.9 4.2-1.8 6.4-2.5l3-0.9c1-0.3 2-0.5 3-0.8 2.7-0.6 5.6-1.1 8.6-1.3 0.8-0.1 1.6-0.2 2.4-0.2h1.1 3.5c4.9 0.2 8.1 1.5 9.1 3.7 0.1 0.2 0.1 0.3 0.2 0.5 2.2-0.7 4.9-1.8 8-3.2-0.1-0.3-0.3-0.7-0.4-1-2.1-4.4-6.2-7.1-12.4-8.2-1-0.2-2.2-0.3-3.3-0.4-1-0.1-2.1-0.1-3.3-0.1h-0.2c-0.9 0-1.9 0-2.9 0.1-2.6 0.1-5.1 0.4-7.5 0.8-1.4 0.4-2.7 0.6-4 0.9z"/>
	<path class="st6" d="m669.8 616.2c-0.7 0-1.4 0-2.1-0.1-7.5 9.1-18.6 20-28.4 26.2-1.7 4.1-5.1 8.5-10 13.4 9-1.3 20.9-9 33.9-21.8 5.9-5.8 12-12.8 16.2-18.9-1.8 0.4-3.7 0.8-5.5 1-1.4 0.2-2.8 0.2-4.1 0.2z"/>
	<path class="st5" d="m661.7 583.1c1.6 0 3.4 0.7 5.3 2 0.8 0.6 1.6 1.3 2.5 2.1l1.2 1.2c0.4 0.4 0.7 0.9 1.1 1.3 1.2 1.5 2.1 3.1 2.9 4.8 2.6-0.6 5.4-1.6 8.2-2.9-1.4-3.1-3.3-6.2-5.7-8.9-0.8-0.9-1.6-1.7-2.4-2.4s-1.6-1.4-2.4-2c-0.9-0.6-1.7-1.2-2.6-1.7-2.6-1.4-5.3-2.2-8-2.2-0.7 0-1.5 0.1-2.3 0.1-1.3 0.2-2.6 0.4-4 0.8-1.2 0.3-2.4 0.8-3.7 1.3-10.9 4.4-23.7 14.7-36.4 25.6-0.2 0.2-0.4 0.3-0.5 0.5-1.1 1-2.1 2-3.1 3-1 1.1-1.9 2.1-2.7 3.2-2.4 3.2-4.1 6.5-5.2 9.7-0.4 1.2-0.8 2.4-1 3.6-0.3 1.2-0.5 2.4-0.7 3.5-1.3 9.6 1.5 17.1 1.7 17.7l0.1 0.3 0.2 0.3c0.6 1 1.4 2.2 2.5 3.4 2.7-2.1 4.9-4 6.6-5.6-0.5-0.5-0.9-1-1.1-1.3l-0.3-0.4-0.2-0.5c-0.5-1.8-2.1-8.3-0.2-15.8 0.3-1 0.6-2 1-3.1 0.4-1 0.8-2 1.4-3 1.4-2.6 3.2-5.1 5.8-7.6 0.4-0.4 0.8-0.8 1.3-1.2 0.4-0.4 0.9-0.8 1.3-1.1 0.9-0.7 1.7-1.5 2.6-2.2 8.4-7.1 17.7-14.4 25.5-18.6 1.3-0.7 2.6-1.3 3.8-1.9 1.1-0.5 2.3-0.9 3.3-1.2 1.6-0.6 3-0.8 4.2-0.8z"/>
	<path class="st5" d="m609 653.5c-0.8 0.6-1.7 1.3-2.6 1.9-2.2 1.7-4.6 3.4-7.3 5.2-7.2 4.8-14.3 9.1-20.7 12.4-1 0.5-2 1-2.9 1.5-1.1 0.5-2.1 1-3.1 1.4-3.6 1.6-6.7 2.7-9.1 3.3-0.3 0.1-0.7 0.2-1 0.2l-2.4 0.3h-0.7c-0.9 0-1.7-0.1-2.5-0.3-1.4-0.3-2.7-0.8-3.8-1.6-1.2-0.9-2.2-2-3-3.1-3.2 0.2-6.3 0.6-9.2 1.3 1.4 3 3.7 6.4 7.2 8.9 1.5 1.1 3.2 1.9 4.9 2.5 1 0.3 2.1 0.6 3.2 0.7 1.1 0.2 2.2 0.3 3.4 0.3 1.4 0 2.9-0.1 4.5-0.4 1.8-0.3 3.9-0.9 6.1-1.7 1.2-0.4 2.5-0.9 3.8-1.5 1.2-0.5 2.4-1 3.6-1.6 9-4.2 19.4-10.4 27.9-16.2 3.6-2.5 6.7-4.8 9.5-6.9 1-0.8 2-1.5 2.9-2.3 1-0.8 2-1.7 2.9-2.4 3.6-3.1 6.4-5.9 8.4-8.3 1.3-1.5 2.3-2.9 3.1-4.2 1.1-1.7 1.7-3.2 2.1-4.5 0.2-0.6 0.3-1.2 0.3-1.7 0.8-9.4-2.2-18-8.1-23-0.3-0.2-0.5-0.4-0.8-0.7-0.2 0.2-0.4 0.3-0.6 0.5-2.3 2-3.9 4-5.2 6.1 0.3 0.2 0.7 0.4 1 0.7 5.4 4.6 5.2 12.9 5 15.4v0.4l-0.1 0.3c-0.3 1-1.2 2.5-2.7 4.2-0.6 0.8-1.4 1.6-2.3 2.5l-2.3 2.3c-1.9 1.8-4.3 3.9-6.9 6-0.8 0.8-1.6 1.5-2.5 2.1z"/>
	<path class="st5" d="m701 542.7c-14.8 3.6-28.1 17.8-35.5 25.7 0 0.1-0.1 0.1-0.1 0.1 3 0.5 5.9 1.7 8.7 3.4 6.1-6.4 15.7-15.9 25.6-19.8 0.4-2.9 0.9-6.1 1.3-9.4z"/>
	<path class="st5" d="m729.6 567.8c0.4-9.4-2-16.7-6.8-21.1-0.3-0.3-0.7-0.6-1-0.8-0.6 4.2-1.2 8.5-1.8 12.3 0.8 2.4 1.1 5.4 1 8.9v0.4l-0.1 0.4c-2 6-15.9 18.8-30.4 26.7-0.9 0.5-1.9 1-2.8 1.5-1 0.5-1.9 0.9-2.9 1.3-2.8 1.2-5.6 2.2-8.3 2.9-1 0.3-2 0.5-3 0.6-0.4 0.1-0.8 0.1-1.2 0.2-0.7 0.1-1.3 0.1-1.9 0.1h-0.6c-1.1 0-2.1-0.1-2.9-0.3h-1.2l-0.9-1.4c-1.2-1.9-0.8-5.4 0-8.4-1.5-1.4-2.7-1.9-3-1.9-1.2 0-3.1 0.4-5.8 1.7-0.9 4.3-1 9.8 1.9 13.9 1.7 2.3 4.1 3.9 7.2 4.6 1.1 0.3 2.3 0.5 3.6 0.5 1.2 0.1 2.5 0 3.9-0.1 0.2 0 0.5 0 0.7-0.1 3.6-0.4 7.3-1.4 10.8-2.7 1.3-0.5 2.6-1 3.8-1.6 1.2-0.5 2.3-1 3.4-1.6 7.9-3.9 14.6-8.8 18.2-11.5 18.3-14 20-22.3 20.1-24.5z"/>
	<path class="st5" d="m538.4 753.1c6 0 11.8 0.3 17.6 0.9l-15.5-36.7-3.6-8.5-8.4-19.9c-0.3-0.6-1.9-3.3-4.6-6.6-14.7 8.3-24.9 21.7-31.1 32.3l19.8 40.3c8.4-1.1 17.1-1.8 25.8-1.8z"/>
	<path class="st5" d="m707.2 568.7c2.3 0.5 4.7-1 5.2-3.3 0.4-1.8 0.8-4 1.2-6.5l0.6-3.9c0.2-1.1 0.3-2.2 0.5-3.3 0.4-2.9 0.9-5.9 1.3-8.8 0.1-1 0.3-2.1 0.4-3.1 0.1-1.1 0.3-2.1 0.4-3.1 1-7.3 1.6-13 1.7-13.5 0.3-2.4-1.4-4.5-3.8-4.8h-0.5c-2.2 0-4 1.6-4.3 3.8 0 0.1-0.7 6-1.7 13.5-0.1 1-0.3 2.1-0.4 3.1s-0.3 2.1-0.4 3.1c-0.4 2.9-0.8 5.9-1.3 8.8-0.2 1.1-0.3 2.1-0.5 3.2s-0.4 2.2-0.5 3.2c-0.4 2.5-0.8 4.7-1.2 6.5-0.2 1.1 0 2.3 0.6 3.3 0.6 0.9 1.6 1.5 2.7 1.8z"/>
	<path class="st6" d="m320.5 767.1c6.8 3.8 22.2 9.8 34.4 14l-4.7-9.5c-10-3.6-20.6-7.9-26-10.9-2.1-1.2-3.6-2.9-4.5-5.1-1.4 0.2-2.9 0.3-4.5 0.3-1.1 0-2.2 0-3.4-0.1 1.3 4.7 4 8.7 8.7 11.3z"/>
	<path class="st5" d="m422.2 796.5-6.3-11.2-3.2-5.8-5.3-9.4-3.3-5.8-1.8-3.2c-0.5-0.9-0.6-2.1-0.3-3.1l2.2-6.2c-2.5-3.3-6.4-6.9-12-9.2-11.3-4.6-25.6-9.1-35.9-12.1-0.5 1.9-1 3.8-1.4 5.7l40.9 88.5c7.9-10.3 16.7-19.8 26.4-28.2z"/>
	<path class="st5" d="m354.6 715.8c-4.9-1.4-8.1-2.2-8.2-2.2s-0.2 0-0.3-0.1c-0.2 0-1.2-0.2-2.8-0.4-0.9-0.1-2.1-0.2-3.4-0.3-1-0.1-2.1-0.1-3.3-0.1-2.4 0-5.1 0.1-7.7 0.6-1 0.2-2.1 0.4-3.1 0.6-1 0.3-2 0.6-3 1-1.4 0.6-2.8 1.3-4 2.1-3.3 2.3-5.4 5.6-6 9.6l-0.1 0.4c-0.5 2.9-1 5.9-1.4 8.9 3.1 0.3 5.3 0.4 6.1 0.1 0.2-0.1 0.4-0.2 0.5-0.2 0.3-0.1 0.6-0.3 1-0.5 0.3-2.3 0.7-4.6 1.1-7.1l0.1-0.4c0.3-2 1.3-3.5 3-4.7 0.6-0.4 1.2-0.7 1.9-1.1 0.9-0.4 1.9-0.7 3-1 0.9-0.2 1.9-0.4 3-0.6 1.7-0.2 3.5-0.3 5.5-0.3h2c1.1 0 2.1 0.1 3.1 0.2s2 0.2 2.9 0.4l0.3 0.1c0.8 0.2 3.2 0.8 6.6 1.8 2 0.6 4.4 1.2 7.1 2 10.4 3 24.8 7.5 36.2 12.2 5 2.1 9 5 12.1 8.3 2.3 2.4 4 4.9 5.3 7.2 2 3.7 2.7 7.1 2.2 8.8l-0.2 0.5-1.7 2.1 5.4 9.7 0.4-0.2c3.5-2.1 5.5-8.1 5-15.3-0.4-5.3-2.1-11.2-5.2-16.1-1.4-2.3-3.2-4.3-5.2-6-1.5-1.2-3.2-2.3-5.1-3.1-12.6-5.2-32.2-11.1-45.8-15-2.7-0.6-5.2-1.3-7.3-1.9z"/>
	<path class="st5" d="m322.7 695.6c-11.8-7.5-37.5-15.6-38.6-15.9-0.2-0.1-0.4-0.1-0.6-0.1-3.5-0.5-6.8-0.9-9.9-1.1 0.7 2.5 0.8 5.1 0.5 7.5 2.6 0.2 5.2 0.5 7.8 0.9l0.5 0.1c4.3 1.4 26.2 8.6 36.3 14.9 2.7 1.7 4.9 3.6 6.7 5.8 2.8-0.6 5.6-1 8.3-1.1-2.6-4.3-6.3-8-11-11z"/>
	<path class="st5" d="m240 714c0 0.1 0.1 0.2 0.1 0.3l1.6 3.2c0.6 1.2 1.2 2.2 1.7 3.2 4.5 7.5 9 10 25.7 17.3 9.9 4.3 23.7 8.7 35.3 10.6 1 0.2 2.1 0.3 3.1 0.4 1.1 0.1 2.1 0.2 3.1 0.3 1.5 0.1 3 0.2 4.4 0.2 1.1 0 2.1-0.1 3.1-0.1 1.1-0.1 2.1-0.3 3-0.5 0.8-0.2 1.6-0.5 2.2-0.8l0.1-0.1c0.2-0.1 0.4-0.2 0.7-0.3 5.8-2.7 14.7-9.6 14.7-19.9v-1.6c-0.8 0-1.7-0.1-2.5-0.1-1.8 0-3.5 0.1-4.9 0.3v1.3c0 5-3.7 8.7-6.8 11-1.3 1-2.5 1.7-3.3 2.1-0.5 0.3-0.9 0.4-0.9 0.5-0.2 0.1-0.3 0.1-0.4 0.2l-0.2 0.2h-0.1c-0.4 0.2-1 0.3-1.6 0.4-0.8 0.1-1.7 0.2-2.7 0.2-1.4 0-3-0.1-4.7-0.3-1-0.1-2-0.2-3.1-0.4-1-0.1-2-0.3-3-0.5-9.5-1.7-21.7-5.2-32.4-9.9-12.1-5.3-16.9-7.5-20.1-11.2-0.7-0.8-1.4-1.7-2-2.8-0.5-0.9-1.1-1.8-1.6-2.9-0.6-1.1-1.1-2.3-1.8-3.6-0.6-1.2-0.9-2.4-1.2-3.5-0.2-1.1-0.3-2.1-0.2-3.1 0-1.1 0.2-2.1 0.4-3.1 1.1-4.4 3.9-8.3 6.5-11 1.6-3.5 2.3-5.7 2.2-6.3-0.9-0.8-1.9-1.7-2.9-2.7-3.3 2.2-7.5 6.3-10.5 11.9-1.1 2.1-1.9 4.2-2.4 6.3-0.3 1.1-0.5 2.2-0.6 3.3-0.1 1.2-0.1 2.4-0.1 3.6 0.2 2.7 0.9 5.4 2.1 7.9z"/>
	<path class="st6" d="m231.8 702.2c-7.8-5.2-20.2-13.9-32.2-22.5-2.4 0.8-5.5 1.9-9.1 2.6 24.2 17.5 36 25.5 42 29-0.7-2.9-1-6-0.7-9.1z"/>
	<path class="st5" d="m202.5 630.5-37.5-26.1c-2.4-2-4.9-2.9-7.6-2.9-0.8 0-1.6 0.1-2.5 0.3 5.3 4.7 9.3 8.6 10.3 10.6 0.3 0.6 0.6 1.3 0.9 1.9l29.2 20.3c2.4-1.4 5.2-2.4 8.3-2.9-0.4-0.5-0.7-0.9-1.1-1.2z"/>
	<path class="st6" d="m132.8 635.2c0.2 1.1 0.3 2.1 0.5 3.1 0.4 2 0.9 3.7 1.3 5 0.2 0.6 0.6 1.1 1 1.6 0.3 0.3 0.7 0.6 1 0.9 1.1 1 2.3 2 3.5 3.1 1 0.9 2 1.8 3.1 2.7 10.7 9.2 24.4 20.4 30.6 23.3 1.1 0.5 2.2 0.9 3.4 1.2s2.4 0.6 3.7 0.7c0.9 0.1 1.7 0.1 2.6 0.1h1c3.2-0.1 6.2-0.8 8.9-1.6 1.3-0.4 2.5-0.8 3.6-1.2 0.2-0.1 0.5-0.2 0.7-0.3 1.1-0.4 2.1-0.7 2.8-1 8.8-2.5 8.9-20.1 8.9-20.3 0-0.4-0.1-0.9-0.2-1.6-1.8-0.1-3.2 0.1-3.8 0.3l-0.7 0.8c-1.1 1.4-2.1 2.6-3 3.7-0.3 3.1-1.2 6.8-2.3 8.7l-0.6 1-1.1 0.3c-0.7 0.2-1.5 0.5-2.3 0.8-0.1 0-0.1 0-0.2 0.1-0.9 0.3-1.8 0.6-2.8 1l-3 0.9c-1.9 0.5-3.9 0.8-5.9 0.8-0.5 0-1 0-1.5-0.1-1.1-0.1-2.1-0.3-3.2-0.6-0.6-0.2-1.3-0.4-1.9-0.7-0.4-0.2-0.8-0.4-1.3-0.7-5.4-3.1-15.8-11.4-24.6-18.9-0.8-0.7-1.7-1.4-2.5-2.1-0.9-0.7-1.7-1.5-2.5-2.2-1.5-1.3-2.9-2.5-4.1-3.6l-0.7-0.6-0.2-0.9c-0.1-0.3-0.1-0.6-0.2-0.9-0.2-0.8-0.4-1.9-0.6-3-0.2-1-0.3-2-0.4-3.1-0.1-1.7-0.1-3.4 0.2-4.8 0.5-2.2 2.4-5.2 4.6-8.1-1.5-1.4-3.4-3-5.6-4.8-3 3.8-5.5 7.9-6.2 11.2-0.5 2-0.6 4.3-0.4 6.6 0.1 1.1 0.2 2.2 0.4 3.2z"/>
	<path class="st5" d="m264.9 675c-0.4-0.4-0.7-0.8-1.2-1.2-0.5-0.5-1.2-1.1-1.9-1.7-8.5-7.8-30.8-26.8-38.7-31-3.3-1.7-7.1-2.9-10.9-3.4-1.1-0.1-2.2-0.2-3.3-0.2h-0.4c-0.9 0-1.9 0.1-2.8 0.2-2.6 0.3-5.1 1-7.1 2.2-1 0.6-1.8 1.2-2.6 2l-0.8 0.8-0.9 1.1c-0.2 0.3-0.5 0.6-0.7 0.9-5.8 7.2-10.5 13.7-11.5 18.7 2.6 0.4 5.4-0.3 8.2-1.2 1-2 2.8-4.7 5.6-8.4 0.8-1 1.6-2.1 2.6-3.3 0.5-0.6 1-1.3 1.6-2l0.8-1 0.1-0.1c1.2-1.5 3.8-2.3 6.9-2.3 1 0 2.1 0 3.3 0.2 1.1 0.1 2.2 0.3 3.4 0.6 1.8 0.5 3.5 1.1 5.1 1.9 5.9 3.1 22.5 16.9 32.8 26 1 0.9 1.9 1.7 2.7 2.4 1.1 1 2 1.8 2.8 2.6 0.2 0.2 0.4 0.4 0.6 0.5 1.9 1.8 2.3 3.9 1.8 6.6-0.2 1-0.5 2.1-1 3.2-0.5 1.4-1.2 3-2 4.7-0.1 0.3-0.2 0.5-0.4 0.8-1.3 2.9-2.7 5.8-3.5 8.8-0.3 1.2-1 2.1-1.9 2.7 0.1 0.7 0.3 1.5 0.7 2.2 0.9 1.9 1.6 3.4 2.4 4.6 3.1-1.6 5.2-4.1 6.1-7.6 0.6-2.3 1.8-4.8 3-7.5 0.9-2 1.8-3.9 2.5-5.8 0.4-1 0.7-2.1 1-3.1s0.5-2.1 0.6-3.1c0.3-2.6 0.1-5.1-1-7.5-0.5-1.2-1.2-2.3-2-3.3z"/>
	<path class="st5" d="m148.7 604.5-2.4-2.1c-0.8-0.7-1.6-1.3-2.4-2-11.2-9.5-25.3-20.7-31.4-25.4-2.7-2.1-5.1-3.6-7.6-4.5 1.4 2.1 2.4 4 2.9 5.5 0.6 1.6 0.8 3.5 0.8 5.4 4.5 3.6 18.6 14.8 29.8 24.1 0.8 0.7 1.6 1.3 2.4 2s1.6 1.4 2.4 2c2.1 1.8 4 3.4 5.6 4.8 0.9 0.8 1.6 1.5 2.3 2.1 0.7 0.7 1.4 1.3 1.8 1.8l0.6 0.6 0.1 0.9c0.4 2.4-0.8 7.1-2.1 9.1l-0.3 0.3c-0.2 0.3-0.5 0.6-0.8 1.1-0.9 1.3-2.2 3.1-3.9 4.7l0.3 1.5c1.5 1.3 3 2.7 4.6 4 2.3-2.1 4-4.4 5-5.9l0.1-0.2c0.2-0.3 0.4-0.5 0.5-0.7 1.6-2 4.9-9.6 3.6-15.7-0.2-1-0.5-1.9-1-2.8-0.3-0.6-1.4-1.8-2.8-3.2-0.7-0.7-1.5-1.5-2.5-2.3-1.5-1.5-3.5-3.2-5.6-5.1z"/>
	<path class="st6" d="m94.7 626.1c8.5 8 16.8 14.4 16.9 14.5 6.3 4.4 11.3 5.3 16.7 5.3h0.8c-0.1-0.2-0.2-0.4-0.2-0.6-0.3-0.9-1.1-3.5-1.8-6.9-3.6-0.1-6.9-0.9-11.3-4-6.4-4.4-15.3-12.7-21.7-19.5-0.8-0.9-1.6-1.7-2.3-2.5-0.9-1-1.6-1.9-2.3-2.7-1.3-1.6-2.2-3-2.7-3.9l-0.3-0.6-0.1-2.1v-0.7c0-1.2-0.1-2.4-0.1-3.5-0.1-3.3 0-6.1 0.1-8.4 0.3-4.9 1-7.8 1.7-9.6-1-1.4-2.7-3.5-5-6-0.3 0.4-0.6 0.8-0.8 1.3-0.6 1-1 2.1-1.4 3.3-1.1 3.1-1.6 6.7-1.9 10.3-0.1 1.2-0.1 2.3-0.2 3.5v0.4 3.4c0 1.2 0 2.3 0.1 3.4 0 1 0.1 2 0.1 2.9 0 0.8 0.1 1.4 0.1 2s0.2 1.7 1 3.3c0.5 1 1.2 2.2 2.2 3.7 0.7 1 1.6 2.2 2.7 3.5 2.1 2.6 5.3 6 9.7 10.2z"/>
	<path class="st5" d="m84.3 567.4c0.4 0.4 0.9 0.8 1.3 1.3 0.8 0.8 1.6 1.6 2.3 2.4 2.1 2.3 3.9 4.4 5.1 6.2 0.8 1.1 1.4 2 1.7 2.8 0 0.1 0.1 0.1 0.1 0.2l0.2 0.5v0.5c0 0.5 0 1.2-0.1 2-0.3 2.3-1.3 5.5-2.4 8.7-0.1 2.8-0.2 6.3 0 11v0.7c0.4 0.6 1.1 1.5 1.9 2.5 4.3-8.6 6.9-16.2 7.7-21.6 0.2-1.3 0.3-2.4 0.2-3.5 0-1.1-0.2-2.1-0.5-2.9-0.1-0.3-0.2-0.5-0.3-0.8-1-2.1-2.9-5-5.4-8.1-0.8-0.9-1.6-1.9-2.5-2.8-0.8-0.9-1.7-1.8-2.5-2.7-6.5-6.5-14.5-12.5-20.4-13.3-0.3 0-0.5-0.1-0.9-0.1-1.4 0-3.2 0.4-5 2l4.3 5.9 0.4-1 2.8 1.3c3 1.4 6.9 4.2 10.8 7.8 0.5 0.3 0.9 0.6 1.2 1z"/>
	<path class="st6" d="m72.8 603.5c-0.1-1.9-0.2-4-0.2-6.2-2.9-1.7-5.3-3.6-6.3-5.4l-0.2-0.5c-0.4-1-0.7-2.8-0.8-5.1l-7.5-10.2c-0.5 8 0.1 15.8 1.9 19.1 1.9 3.6 7.1 7.7 13.2 10.6v-0.5c-0.1-0.4-0.1-1.1-0.1-1.8z"/>
	<path class="st5" d="m69.2 568.7-2.5-3.4-5.4-7.4-2.1-2.9-2-2.8-0.3-0.4c-0.6-0.8-1.4-1.3-2.4-1.5h-0.6c-0.8 0-1.5 0.2-2.2 0.7-0.8 0.6-1.3 1.4-1.5 2.4s0.1 2 0.7 2.8l3.1 4.3 2.4 3.3 2.5 3.4 6.4 8.7 2.9 4 3.1 4.3 1.3 1.8c0.1 0.2 0.3 0.3 0.4 0.5 0.4-3.3 1-6.6 2.1-9.6l-3.4-4.6z"/>
	<path class="st5" d="m538.4 760.5c-93.8 0-170.1 76.3-170.1 170.1 0 19.6 3.4 38.5 9.5 56.1 43.7 53.9 114.3 92 166 91.6 1 0 2 0 3-0.1 2.4-0.1 4.7-0.2 7-0.5 45.3-5.1 104.7-39.6 126.2-53 18-27 28.5-59.3 28.5-94.1 0-93.8-76.3-170.1-170.1-170.1zm0 283.1c-62.3 0-113-50.7-113-113 0-18.1 4.3-35.3 11.9-50.5 7.6-30.9 36.4-54.1 48.8-60.4 0.8-0.4 1.7-0.8 2.6-1.2l-19.3-14.2c-0.9-0.7-1.4-1.7-1.2-2.8 0.1-1.1 0.8-2 1.8-2.5l25.6-11.2c1-0.4 2.2-0.3 3.1 0.3 0.9 0.7 1.4 1.7 1.2 2.8l-2.8 24.4c23.7-7.2 66.2-10.2 103.1 9.6 20.5 11 32.5 37.1 38 52.6 8.4 15.8 13.2 33.8 13.2 53 0 62.4-50.7 113.1-113 113.1z"/>
	<path class="st7" d="m538.4 825c-58.2 0-105.6 47.4-105.6 105.6 0 12.5 2.2 24.6 6.2 35.7 15.8 16.6 59.5 57.3 105.1 55.8 8-0.3 16-2 23.8-4.7l-8.3-21.9c-0.6-1.6 0.2-3.4 1.8-4s3.4 0.2 4 1.8l8.3 21.9c28.8-11.9 53.7-35.7 62.2-44.4 5.1-12.4 8-26 8-40.2 0.1-58.2-47.3-105.6-105.5-105.6zm-34.5 14.3c1.6-0.6 3.4 0.2 4 1.8l8.5 22.5c0.6 1.6-0.2 3.4-1.8 4-0.4 0.1-0.7 0.2-1.1 0.2-1.2 0-2.4-0.8-2.9-2l-8.5-22.5c-0.6-1.6 0.2-3.4 1.8-4zm-27 118.2-25.9 9.8c-0.4 0.1-0.7 0.2-1.1 0.2-1.2 0-2.4-0.8-2.9-2-0.6-1.6 0.2-3.4 1.8-4l25.9-9.8c1.6-0.6 3.4 0.2 4 1.8s-0.2 3.4-1.8 4zm61.5 14.5c-22.8 0-41.4-18.6-41.4-41.4s18.6-41.4 41.4-41.4 41.4 18.6 41.4 41.4-18.6 41.4-41.4 41.4zm93.1-76.3c0.6 1.6-0.2 3.4-1.8 4l-28.3 10.7c-0.4 0.1-0.7 0.2-1.1 0.2-1.2 0-2.4-0.8-2.9-2-0.6-1.6 0.2-3.4 1.8-4l28.3-10.7c1.6-0.6 3.4 0.2 4 1.8z"/>
	<path class="st5" d="m538.4 895.4c-19.4 0-35.2 15.8-35.2 35.2s15.8 35.2 35.2 35.2 35.2-15.8 35.2-35.2-15.8-35.2-35.2-35.2z"/>
	<path d="m538.4 889.2c-22.8 0-41.4 18.6-41.4 41.4s18.6 41.4 41.4 41.4 41.4-18.6 41.4-41.4-18.6-41.4-41.4-41.4zm0 76.6c-19.4 0-35.2-15.8-35.2-35.2s15.8-35.2 35.2-35.2 35.2 15.8 35.2 35.2-15.8 35.2-35.2 35.2z"/>
	<path d="m510.6 865.8c0.5 1.2 1.6 2 2.9 2 0.4 0 0.7-0.1 1.1-0.2 1.6-0.6 2.4-2.4 1.8-4l-8.5-22.5c-0.6-1.6-2.4-2.4-4-1.8s-2.4 2.4-1.8 4z"/>
	<path d="m597.4 908.6c0.5 1.2 1.6 2 2.9 2 0.4 0 0.7-0.1 1.1-0.2l28.3-10.7c1.6-0.6 2.4-2.4 1.8-4s-2.4-2.4-4-1.8l-28.3 10.7c-1.6 0.6-2.4 2.4-1.8 4z"/>
	<path d="m474.7 951.7-25.9 9.8c-1.6 0.6-2.4 2.4-1.8 4 0.5 1.2 1.6 2 2.9 2 0.4 0 0.7-0.1 1.1-0.2l25.9-9.8c1.6-0.6 2.4-2.4 1.8-4s-2.4-2.4-4-1.8z"/>
	<ellipse class="st4" cx="218.7" cy="337.3" rx="4.3" ry="4.6"/>
	<circle class="st4" cx="620.4" cy="318.6" r="4.9"/>
	<path class="st6" d="m546.8 1078.2c-1 0-2 0.1-3 0.1-51.7 0.4-122.3-37.7-166-91.6 19.5 55.6 67 98 125.5 110.4 11.3 2.4 23.1 3.7 35.1 3.7 5.3 0 10.6-0.3 15.8-0.7 52.4-4.8 98-33.6 125.8-75.2-21.6 13.4-80.9 47.9-126.2 53-2.3 0.1-4.7 0.2-7 0.3z"/>
	<path class="st6" d="m360.2 775.1 4.6 9.3 3.7 7.4 21.1 42.3c2.1-3.2 4.2-6.2 6.5-9.3l-40.9-88.5c-1.9 8.8-2.6 17.9-2.7 23.2l3.8 7.7z"/>
	<path class="st6" d="m512.6 755-19.8-40.3c-2.2 3.8-3.9 7.2-5.2 9.9l2.1 4.2 4.8 9.5 9.2 18.1c3.1-0.5 6-1 8.9-1.4z"/>
	<path class="st6" d="m410.1 727.2c3.5 1.5 6.6 3.7 9.1 6.4l47.4-17.9c0.7-0.3 1.4-0.3 2.1-0.1 1.6-3.4 3.7-7.6 6.5-12.2l-65.5 23.6c0.1 0.1 0.3 0.1 0.4 0.2z"/>
	<path class="st8" d="m186.5 1135.5c1.1 0.4 2.6 0.7 4.5 1 6.4 0.8 33.7-8.4 51.4-15.2l-5.4-3c-8.4 3.6-39.4 16.5-50.5 17.2z"/>
	<path class="st8" d="m524.2 1127.6c18.6 4.7 48.4 11.8 55.9 11.3 11.4-0.8 15.1-2 16.2-2.8-0.1-0.2-0.3-0.5-0.7-0.9-20.4-1.3-53.9-8.8-64.3-11.2-2.2 1.2-4.6 2.4-7.1 3.6z"/>
	<path class="st8" d="m697 707-0.3 9.1c19.1 6.9 36.3 11.1 40.5 9.6-0.1-0.4-0.4-0.9-0.9-1.8-8.1-1.3-31-12.7-39.3-16.9z"/>
	<path class="st8" d="m42.1 796.3c-0.3 1.5-0.2 2.8 0.7 3.4 3 1.8 13.7 0.9 33.7-7.9 16.1-7 28.7-15 30.8-17.6 0.5-0.7 1.2-1.1 2-1.3l-1.7-12.3c0-0.1-30.2 25.6-65.5 35.7z"/>
	<path class="st6" d="m538.4 817.6c43.2 0 80.8 24.4 99.8 60-5.5-15.5-17.5-41.6-38-52.6-36.9-19.8-79.4-16.7-103.1-9.6l-0.4 3.2c-0.1 1.1-0.8 2-1.8 2.5-0.4 0.2-0.8 0.3-1.2 0.3-0.7 0-1.3-0.2-1.8-0.6l-3.1-2.3c-0.9 0.4-1.8 0.8-2.6 1.2-12.4 6.3-41.2 29.5-48.8 60.4 18.5-37 56.8-62.5 101-62.5z"/>
	<path d="m742.7 720c-9.1-14.9-32.2-31.1-44.9-39.3l2.2-74.5c5.7-3.3 10.4-6.7 13.2-8.8 19.2-14.8 22.4-24.7 22.6-29.3 0.4-11.2-2.6-20.2-8.8-25.9-1.3-1.2-2.7-2.2-4.3-3.1 1-7.6 1.7-13.8 1.9-15.2 0.7-5.8-3.5-11-9.2-11.7s-11 3.5-11.7 9.2c0 0.1-0.7 5.5-1.6 12.5l5-165.9c1-10.2 1.5-20.5 1.5-30.5 0-75.8-26.4-147.6-74.7-204.9 18.3-9.5 42.3-25.4 40.5-43.6-1.2-12.6-9.4-24.8-24.3-36.1-15.1-11.5-33.1-18.9-42.4-22.3-5.6-2-11.1-1.6-16.4 1.3-12.1 6.7-20.3 26-24.9 40.2-51.7-34.5-112.5-53-176.1-53-72 0-140.4 23.7-196.1 67.5-6.2-14.4-18-34-37.2-37.6-14.6-2.8-37.6 7.7-52.5 23.7-10.9 11.8-15.2 24.5-12.2 35.9 5.7 21.3 22 36.6 32.8 46.8 0.8 0.8 1.6 1.5 2.3 2.2-36.1 52.5-55.5 114.7-55.5 179.8 0 10.1 0.5 20.3 1.5 30.5l4.2 178.1c-2.1-0.9-4.2-1.6-6.1-1.8-2-0.2-6.3-0.3-10.4 3.1-1.5-1.7-3.5-2.8-5.8-3.1-2.6-0.4-5.2 0.2-7.4 1.8-2.1 1.6-3.5 3.9-3.9 6.5s0.2 5.2 1.8 7.4l6.4 8.8c-1.6 11.4-1 24.1 2 29.6 3.4 6.3 12.4 12.4 21.6 15.5 1 1.6 2.2 3.3 3.5 5l3 122.2c-2.1 1.4-4.3 2.8-6.5 4.4-18.7 13.3-31.7 27.7-38.6 42.8-4.9 10.7-1.7 15.6 1.9 17.7 2 1.2 4.7 1.8 7.9 1.8 9.7 0 23.9-5 36.7-11l1.7 69.9c0 77.6 32.7 151.2 91.9 207.2 11.9 11.2 24.5 21.5 37.9 30.7-15.8 6-31.3 17.1-35.7 22-3.9 4.3-3.4 8-2.7 9.8 1 2.8 4.2 6.4 13.5 7.6 0.5 0.1 1 0.1 1.5 0.1 12.5 0 49-14 56.4-16.9 0.9-0.3 1.5-1 1.9-1.8 8 4.1 16.1 7.8 24.4 11.2 37.3 15.3 76.3 23 115.9 23s78.4-7.9 115.4-23.5c2.7-1.1 5.4-2.3 8.1-3.6 9.3 2.5 52.8 13.7 65.7 13.7h1.2c12.9-0.9 20.8-2.4 22.8-7.7 0.8-2 0.9-5.1-2.8-9-6.1-6.4-27.4-15.2-46.3-19.3 1.8-1.2 3.5-2.3 5.3-3.5 87.9-10.5 156.2-85.5 156.2-176.2 0-31.7-8.4-61.5-23-87.3l3.6-119.4c4.1 1.4 9 3.1 14.1 4.6 11.8 3.5 19.3 4.8 24.1 4.8 5 0 7.2-1.4 8.5-2.9 1.5-1.7 2.6-4.9-0.6-10.2zm-38.8-156.5c0.4-1.8 0.8-4 1.2-6.5 0.2-1 0.3-2.1 0.5-3.2 0.2-1 0.3-2.1 0.5-3.2 0.4-2.9 0.9-5.8 1.3-8.8 0.1-1 0.3-2.1 0.4-3.1 0.1-1.1 0.3-2.1 0.4-3.1 1-7.5 1.7-13.4 1.7-13.5 0.3-2.2 2.1-3.8 4.3-3.8h0.5c2.4 0.3 4.1 2.4 3.8 4.8-0.1 0.5-0.7 6.3-1.7 13.5-0.1 1-0.3 2.1-0.4 3.1s-0.3 2.1-0.4 3.1c-0.4 2.9-0.8 5.9-1.3 8.8-0.2 1.1-0.3 2.2-0.5 3.3-0.2 1.4-0.4 2.7-0.6 3.9-0.4 2.5-0.8 4.7-1.2 6.5-0.5 2.3-2.8 3.8-5.2 3.3-1.1-0.2-2.1-0.9-2.7-1.9-0.6-0.9-0.8-2-0.6-3.2zm2 11.2c0.5 0.1 0.9 0.2 1.4 0.2-1.9 1.7-4.1 3.6-6.4 5.4l0.2-8.1c1.3 1.3 3 2.1 4.8 2.5zm-579.6 57.4c-2.3-0.2-4.2-0.9-7-2.8-6.2-4.3-14.6-12.2-20.3-18.3 0.2-0.3 0.4-0.6 0.5-0.9 3.3-6.5 6.7-14.3 8.3-21.4 6.2 4.9 17.5 14 26.7 21.7-3.5 4.5-6.5 9.4-7.5 13.8-0.7 2.5-0.9 5.3-0.7 7.9zm492.2 13.4c0.9-0.8 1.6-1.6 2.3-2.3 0.9-0.9 1.6-1.7 2.3-2.5 1.4-1.8 2.4-3.2 2.7-4.2l0.1-0.3v-0.4c0.2-2.5 0.4-10.8-5-15.4-0.3-0.3-0.7-0.5-1-0.7 1.2-2.1 2.9-4.1 5.2-6.1 0.2-0.2 0.4-0.3 0.6-0.5 0.3 0.2 0.6 0.4 0.8 0.7 5.9 4.9 8.9 13.5 8.1 23 0 0.5-0.1 1.1-0.3 1.7-0.3 1.3-1 2.7-2.1 4.5-0.8 1.3-1.8 2.7-3.1 4.2-2 2.4-4.8 5.2-8.4 8.3-0.9 0.8-1.9 1.6-2.9 2.4-0.9 0.7-1.9 1.5-2.9 2.3-2.8 2.1-5.9 4.4-9.5 6.9-8.5 5.8-18.8 12-27.9 16.2-1.2 0.6-2.4 1.1-3.6 1.6-1.3 0.5-2.6 1.1-3.8 1.5-2.2 0.8-4.3 1.4-6.1 1.7-1.5 0.3-3 0.4-4.5 0.4-1.2 0-2.3-0.1-3.4-0.3s-2.1-0.4-3.2-0.7c-1.8-0.6-3.4-1.4-4.9-2.5-3.5-2.5-5.7-5.8-7.2-8.9 2.9-0.6 6-1.1 9.2-1.3 0.8 1.2 1.8 2.3 3 3.1 1.1 0.8 2.4 1.3 3.8 1.6 0.8 0.2 1.6 0.3 2.5 0.3h0.7c0.8 0 1.5-0.1 2.4-0.3 0.3-0.1 0.6-0.1 1-0.2 2.5-0.6 5.6-1.7 9.1-3.3 1-0.4 2-0.9 3.1-1.4 1-0.5 1.9-1 2.9-1.5 6.4-3.3 13.6-7.5 20.7-12.4 2.6-1.8 5-3.5 7.3-5.2 0.9-0.7 1.7-1.3 2.6-1.9 0.9-0.7 1.7-1.3 2.5-2 2.6-2.2 4.9-4.2 6.9-6.1zm-1.1-19.9c2 2.2 2.5 6.1 2.4 9.1-0.3 0.5-0.9 1.4-2.1 2.7-0.1-0.1-0.1-0.2-0.2-0.2-0.6-2.2-1.3-6.6-0.1-11.6zm-61.5 68.8c1.1 0.1 2.3 0.2 3.4 0.2 1.8 0 3.7-0.2 5.7-0.5l1.5-0.3c-4.3 7.9-10.4 16.1-16.9 23.4l-1.6-1.4-2.8-6.7c3.7-4.6 7.5-9.7 10.7-14.7zm-13.5 8.2-7-16.6c0-0.1-0.1-0.2-0.1-0.3s-1.5-2.9-4.5-6.6c1.3-0.5 2.6-1 4-1.5 1.8 4.1 4.8 8.8 9.6 12.3 1.6 1.2 3.4 2.1 5.2 2.8-2.1 3.1-4.5 6.5-7.2 9.9zm53.3-47.1c-6.3 4.3-12.8 8.2-18.6 11.2-0.1-0.3-0.2-0.6-0.4-0.8-2.6-5.4-7.1-9-13.5-10.9 8.3-8.2 21.2-19.5 32.5-26-0.4 9.2 2.2 16.1 2.4 16.7l0.2 0.5 0.5 0.9c0.7 1.2 1.7 2.6 3 4-1.8 1.5-3.9 2.9-6.1 4.4zm1-34c-16.9 8.3-36.4 27.7-40.9 32.2-2.2-0.2-4.6-0.2-7.1 0-1.2 0.1-2.3 0.2-3.5 0.3l2.3-4.2 0.4-0.4c1.2-1.3 30.2-31.9 52.8-38.8-2 3.7-3.2 7.4-4 10.9zm-47.6 38.4c1-0.1 1.9-0.1 2.9-0.1h0.2c1.1 0 2.2 0 3.3 0.1 1.2 0.1 2.3 0.2 3.3 0.4 6.2 1.1 10.3 3.8 12.4 8.2 0.2 0.3 0.3 0.6 0.4 1-3.1 1.5-5.8 2.6-8 3.2-0.1-0.2-0.1-0.3-0.2-0.5-1-2.2-4.2-3.5-9.1-3.7-1.1-0.1-2.3-0.1-3.5 0h-1.1c-0.8 0-1.6 0.1-2.4 0.2-3 0.3-5.8 0.7-8.6 1.3-1 0.2-2 0.5-3 0.8l-3 0.9c-2.2 0.7-4.3 1.6-6.4 2.5-2.4 1.1-4.7 2.3-6.8 3.6-19.5 11.6-31.1 31.2-36.6 42.4-0.9 2-1.7 3.7-2.3 5-0.1 0.3-0.4 1-0.6 1.9-0.1 0.9-0.1 1.9 0.4 2.9 0.6 1.1 1.7 2 3 2.8l4.5 8.8-0.3 2.1c-4.2-1-11.5-3.6-14.7-9.3-1.2-2.2-2.3-5.5-1.1-9.9 0.2-0.8 0.5-1.6 0.8-2.4 0.5-1.2 1.2-2.8 2-4.5 5.4-11.4 17.1-31.8 37.1-45 2.3-1.5 4.7-2.9 7.2-4.2 4.5-2.4 9.4-4.3 14.6-5.8 1.3-0.4 2.7-0.7 4.1-1 1.3-0.3 2.6-0.5 3.9-0.7 2.5-0.5 5-0.8 7.6-1zm-73.9 43.4c-2.8 4.6-4.9 8.9-6.5 12.2-0.7-0.2-1.4-0.1-2.1 0.1l-47.4 17.9c-2.6-2.7-5.6-4.9-9.1-6.4-0.1-0.1-0.3-0.1-0.4-0.2-11.8-4.8-29.4-10.3-42.8-14.1 12.5-8.1 82.1-32.2 117.4-43.9 8.1-1.6 14.9-1 20.7 0.7-13.7 10-23.4 22.9-29.8 33.7zm-67.4 29.6c1.9 0.8 3.5 1.8 5.1 3.1 2 1.7 3.8 3.7 5.2 6 3.1 4.9 4.8 10.7 5.2 16.1 0.5 7.2-1.4 13.2-5 15.3l-0.4 0.2-5.4-9.7 1.7-2.1 0.2-0.5c0.5-1.7-0.2-5.1-2.2-8.8-1.2-2.3-3-4.8-5.3-7.2-3.1-3.2-7.1-6.2-12.1-8.3-11.4-4.7-25.8-9.2-36.2-12.2-2.7-0.8-5.1-1.5-7.1-2-3.4-0.9-5.8-1.6-6.6-1.8l-0.3-0.1c-0.9-0.1-1.9-0.3-2.9-0.4s-2.1-0.2-3.1-0.2h-2c-2 0-3.8 0.1-5.5 0.3-1.1 0.1-2.1 0.3-3 0.6-1.1 0.3-2.1 0.6-3 1-0.7 0.3-1.3 0.7-1.9 1.1-1.7 1.2-2.6 2.7-3 4.7l-0.1 0.4c-0.4 2.5-0.8 4.8-1.1 7.1-0.4 0.2-0.7 0.4-1 0.5-0.2 0.1-0.4 0.2-0.5 0.2-0.9 0.2-3 0.2-6.1-0.1 0.4-3 0.9-6 1.4-8.9l0.1-0.4c0.6-3.9 2.7-7.3 6-9.6 1.2-0.9 2.6-1.6 4-2.1 1-0.4 2-0.7 3-1s2-0.5 3.1-0.6c2.6-0.4 5.3-0.6 7.7-0.6 1.2 0 2.3 0 3.3 0.1 1.3 0.1 2.4 0.2 3.4 0.3 1.6 0.2 2.6 0.4 2.8 0.4 0.1 0 0.2 0 0.3 0.1 0.1 0 3.3 0.9 8.2 2.2 2.2 0.6 4.6 1.3 7.4 2.1 13.5 3.7 33.1 9.6 45.7 14.8zm-62.4 29.1 0.7 1.5c-7.7-2.9-15.1-6-19-8.2-0.5-0.3-1-0.7-1.4-1.3 0.1 0 0.2-0.1 0.3-0.1 14-6.1 19-17.7 19.1-25.8v-0.7c1.1 0.3 2.5 0.7 4.2 1.2-4.2 14.7-4.4 30.8-4.4 31.8 0.1 0.5 0.3 1.1 0.5 1.6zm-19.9-54.3c-1.8-2.2-4.1-4.1-6.7-5.8-10.1-6.4-32-13.6-36.3-14.9l-0.5-0.1c-2.6-0.4-5.2-0.7-7.8-0.9 0.3-2.5 0.2-5-0.5-7.5 3.1 0.2 6.4 0.6 9.9 1.1 0.2 0 0.4 0.1 0.6 0.1 1.1 0.3 26.8 8.4 38.6 15.9 4.7 3 8.4 6.6 11.1 11-2.8 0.1-5.6 0.5-8.4 1.1zm-44.8-14.8c3.5 1.1 25.3 8.2 34.7 14.2 1.4 0.9 2.6 1.8 3.6 2.7-1.3 0.6-2.5 1.3-3.7 2.1-4.7 3.3-7.6 8-8.6 13.6l-0.1 0.4c-0.5 2.8-1 5.9-1.4 9-8.1-1.5-19.1-4.4-30.6-9.4-8.9-3.9-13.3-5.8-16.1-8 4.8-2.8 7.1-7.1 8.1-10.9 0.5-1.8 1.5-4 2.7-6.5 1.1-2.3 2.4-5.1 3.3-8.1 2.8 0.3 5.5 0.6 8.1 0.9zm-12.8-7.3c-0.1 1-0.3 2-0.6 3.1-0.3 1-0.6 2-1 3.1-0.7 1.9-1.6 3.8-2.5 5.8-1.2 2.7-2.4 5.2-3 7.5-0.9 3.5-2.9 6.1-6.1 7.6-0.7-1.3-1.4-2.8-2.4-4.6-0.3-0.7-0.5-1.5-0.7-2.2 0.9-0.6 1.6-1.5 1.9-2.7 0.8-2.9 2.1-5.9 3.5-8.8 0.1-0.3 0.2-0.5 0.4-0.8 0.8-1.7 1.5-3.2 2-4.7 0.4-1.2 0.8-2.2 1-3.2 0.5-2.6 0.1-4.7-1.8-6.6-0.2-0.2-0.4-0.4-0.6-0.5-0.8-0.8-1.8-1.6-2.8-2.6-0.8-0.8-1.8-1.6-2.7-2.4-10.3-9.1-26.9-22.9-32.8-26-1.6-0.8-3.3-1.5-5.1-1.9-1.1-0.3-2.3-0.5-3.4-0.6s-2.2-0.2-3.3-0.2c-3.1 0.1-5.7 0.8-6.9 2.3l-0.1 0.1-0.8 1c-0.5 0.7-1.1 1.3-1.6 2-0.9 1.2-1.8 2.3-2.6 3.3-2.8 3.7-4.6 6.4-5.6 8.4-2.7 0.9-5.6 1.5-8.2 1.2 0.9-5 5.7-11.4 11.5-18.7 0.2-0.3 0.5-0.6 0.7-0.9l0.9-1.1c0.2-0.3 0.5-0.5 0.8-0.8 0.8-0.8 1.6-1.4 2.6-2 2-1.2 4.5-1.9 7.1-2.2 0.9-0.1 1.8-0.2 2.8-0.2h0.4c1.1 0 2.2 0.1 3.3 0.2 3.8 0.5 7.7 1.7 10.9 3.4 8 4.2 30.2 23.2 38.7 31 0.7 0.7 1.4 1.3 1.9 1.7l1.2 1.2c0.9 1 1.5 2 2 3.1 1.1 2.6 1.3 5.1 1 7.7zm-91.5-25.1c-4.8-3.2-12.4-9.3-20.2-15.9 2.6-2.5 4.4-5 5.4-6.4l0.1-0.2c0.1-0.2 0.2-0.3 0.3-0.4 1.9-2.4 4.7-8.6 5.2-15.1l23.2 16.1-0.9 1.1c-6.3 7.8-11.4 14.6-13.1 20.8zm18.8-26-29.2-20.3c-0.2-0.7-0.5-1.3-0.9-1.9-1-1.9-5-5.8-10.3-10.6 0.8-0.2 1.7-0.3 2.5-0.3 2.7 0 5.2 1 7.6 2.9l37.5 26.1c0.4 0.3 0.7 0.6 1 1.1-3 0.6-5.8 1.6-8.2 3zm-38.3-22.5c1.5 1.5 2.5 2.6 2.8 3.2 0.5 0.9 0.8 1.8 1 2.8 1.3 6.1-2.1 13.7-3.6 15.7-0.1 0.2-0.3 0.4-0.5 0.7l-0.1 0.2c-1 1.5-2.7 3.8-5 5.9-1.6-1.4-3.1-2.7-4.6-4l-0.3-1.5c1.7-1.6 2.9-3.4 3.9-4.7 0.3-0.4 0.6-0.8 0.8-1.1l0.3-0.3c1.3-2 2.5-6.7 2.1-9.1l-0.1-0.9-0.6-0.6c-0.4-0.5-1-1.1-1.8-1.8-0.7-0.6-1.4-1.3-2.3-2.1-1.6-1.4-3.5-3-5.6-4.8-0.8-0.6-1.6-1.3-2.4-2s-1.6-1.3-2.4-2c-11.2-9.3-25.2-20.6-29.8-24.1 0-2-0.2-3.8-0.8-5.4-0.5-1.5-1.5-3.4-2.9-5.5 2.4 1 4.9 2.5 7.6 4.5 6.1 4.7 20.2 15.9 31.4 25.4 0.8 0.7 1.6 1.4 2.4 2l2.4 2.1c2.2 1.9 4.1 3.6 5.8 5.1l2.3 2.3zm-24 13.5c0.8-3.3 3.3-7.4 6.2-11.2 2.1 1.8 4.1 3.5 5.6 4.8-2.2 2.9-4.1 5.9-4.6 8.1-0.3 1.4-0.4 3.1-0.2 4.8 0.1 1.1 0.2 2.1 0.4 3.1 0.2 1.2 0.4 2.2 0.6 3 0.1 0.3 0.2 0.6 0.2 0.9l0.2 0.9 0.7 0.6c1.3 1.1 2.6 2.3 4.1 3.6 0.8 0.7 1.6 1.4 2.5 2.2 0.8 0.7 1.6 1.4 2.5 2.1 8.8 7.5 19.2 15.9 24.6 18.9 0.5 0.3 0.9 0.5 1.3 0.7 0.6 0.3 1.3 0.5 1.9 0.7 1.1 0.3 2.1 0.5 3.2 0.6 0.5 0 1 0.1 1.5 0.1 2 0 4-0.3 5.9-0.8 1-0.3 2.1-0.6 3-0.9 1-0.3 1.9-0.7 2.8-1 0.1 0 0.1 0 0.2-0.1 0.8-0.3 1.6-0.6 2.3-0.8l1.1-0.3 0.6-1c1.2-1.9 2-5.6 2.3-8.7 0.9-1.1 1.8-2.4 3-3.7l0.7-0.8c0.6-0.2 2-0.4 3.8-0.3 0.1 0.6 0.2 1.2 0.2 1.6 0 0.2 0 17.7-8.9 20.3-0.8 0.2-1.8 0.6-2.8 1-0.2 0.1-0.5 0.2-0.7 0.3-1.1 0.4-2.3 0.8-3.6 1.2-2.6 0.8-5.6 1.5-8.9 1.6h-1c-0.9 0-1.8 0-2.6-0.1-1.3-0.1-2.5-0.4-3.7-0.7-1.1-0.3-2.3-0.7-3.4-1.2-6.2-2.9-19.9-14.1-30.6-23.3-1.1-0.9-2.1-1.8-3.1-2.7-1.2-1.1-2.4-2.1-3.5-3.1-0.3-0.3-0.7-0.6-1-0.9-0.5-0.4-0.8-1-1-1.6-0.4-1.3-0.9-3-1.3-5-0.2-1-0.4-2-0.5-3.1-0.1-1-0.2-2-0.3-3.1-0.3-2.4-0.2-4.7 0.3-6.7zm66.7 54.2c11.9 8.6 24.4 17.3 32.2 22.5-0.3 3.1 0 6.2 0.7 9.2-6-3.6-17.8-11.6-42-29 3.6-0.7 6.7-1.8 9.1-2.7zm6.7-2.8c9.4-6.4 9.4-23.1 9.4-24.4 0.3 0.1 0.7 0.3 1 0.5 4.6 2.5 19.4 14.5 30 23.7-3.7 2.8-8.1 7.3-11.2 13.2-1 1.9-1.8 3.8-2.4 5.6-6.6-4.3-16.2-11-26.8-18.6zm31.7 25.6c0.1-1.1 0.3-2.2 0.6-3.3 0.5-2.1 1.3-4.2 2.4-6.3 3-5.6 7.2-9.7 10.5-11.9 1.1 1 2.1 1.9 2.9 2.7 0.2 0.7-0.6 2.8-2.2 6.3-2.6 2.7-5.4 6.6-6.5 11-0.2 1-0.4 2-0.4 3.1 0 1 0 2.1 0.2 3.1 0.2 1.2 0.6 2.4 1.2 3.5 0.7 1.3 1.2 2.5 1.8 3.6s1.1 2 1.6 2.9c0.6 1 1.3 1.9 2 2.8 3.3 3.7 8.1 5.9 20.1 11.2 10.8 4.7 22.9 8.2 32.4 9.9 1.1 0.2 2.1 0.3 3 0.5 1.1 0.2 2.1 0.3 3.1 0.4 1.8 0.2 3.4 0.3 4.7 0.3 1 0 1.9-0.1 2.7-0.2 0.6-0.1 1.1-0.2 1.6-0.4h0.1l0.2-0.2c0.1-0.1 0.2-0.1 0.4-0.2 0.1 0 0.4-0.2 0.9-0.5 0.8-0.4 2-1.1 3.3-2.1 3.1-2.2 6.8-6 6.8-11v-1.3c1.4-0.2 3.1-0.3 4.9-0.3 0.8 0 1.7 0 2.5 0.1v1.6c-0.1 10.3-9 17.2-14.7 19.9-0.2 0.1-0.5 0.2-0.7 0.3l-0.1 0.1c-0.6 0.3-1.4 0.6-2.2 0.8-0.9 0.2-1.9 0.4-3 0.5-1 0.1-2 0.1-3.1 0.1-1.4 0-2.9-0.1-4.4-0.2-1-0.1-2-0.2-3.1-0.3-1-0.1-2-0.3-3.1-0.4-11.6-1.9-25.4-6.3-35.3-10.6-16.7-7.3-21.3-9.8-25.7-17.3-0.6-1-1.1-2-1.7-3.2-0.5-1-1.1-2.1-1.6-3.2 0-0.1-0.1-0.2-0.1-0.3-1.2-2.5-1.9-5.2-2.1-7.9 0-1.2 0-2.4 0.1-3.6zm77.1 53.4c1.6 0 3.1-0.1 4.5-0.3 1 2.2 2.4 3.9 4.5 5.1 5.4 3 16.1 7.3 26 10.9l4.7 9.5c-12.2-4.2-27.6-10.2-34.4-14-4.8-2.7-7.4-6.7-8.8-11.4 1.3 0.1 2.5 0.2 3.5 0.2zm37.4 3.6c0.1-5.3 0.8-14.4 2.7-23.2 0.4-1.9 0.9-3.9 1.4-5.7 10.3 3 24.6 7.4 35.9 12.1 5.6 2.3 9.5 5.9 12 9.2l-2.2 6.2c-0.4 1-0.3 2.1 0.3 3.1l1.8 3.2 3.3 5.8 5.3 9.4 3.2 5.8 6.3 11.2c-9.7 8.4-18.5 17.9-26.2 28.2-2.3 3-4.4 6.1-6.5 9.3l-21.1-42.3-3.7-7.4-4.6-9.3-3.9-7.9zm68.6 19.7 0.8-1c5.4-3.5 8.2-11.2 7.5-20.7-0.4-5.8-2.2-12.2-5.5-17.8l41.7-15.7c-1.2 5.8 0.3 10.3 2 13.4 5.8 10.2 19.6 12.6 22.3 13l2.8 0.4 3.7 7.4c-25.3 6.2-48.6 17.8-68.4 33.5zm73.6-40.8-4.8-9.5-2.1-4.2c1.3-2.7 3-6.1 5.2-9.9 6.2-10.6 16.3-24 31.1-32.3 2.8 3.3 4.3 5.9 4.6 6.6l8.4 19.9 3.6 8.5 15.3 36.5c-5.8-0.6-11.7-0.9-17.6-0.9-8.8 0-17.4 0.6-25.8 1.9-2.9 0.4-5.9 0.9-8.7 1.5zm56.8-14.2 0.5-0.5c12.1-13.2 19-24 22.7-32.6 11.1-4.4 24.4-12.3 34.1-19 5.2-3.6 9.7-7 13.6-10.2 1.3 0.2 2.7 0.3 4.1 0.3 13.9 0 30-13 41-23.9 1.8-1.8 15.2-15.2 21-26.3 1.3-0.5 2.6-1.1 3.9-1.7l-6.7 221.6c-27.3-40.6-70.8-69.3-121.2-76.8zm111.7-90.3c-13 12.9-24.9 20.5-33.9 21.8 4.9-4.8 8.3-9.3 10-13.4 9.8-6.2 20.8-17.1 28.4-26.2 0.7 0 1.4 0.1 2.1 0.1 1.3 0 2.7-0.1 4.1-0.3 1.8-0.2 3.7-0.6 5.5-1-4.2 6.2-10.3 13.2-16.2 19zm-22.4-0.1c0-10.1-3.7-19.2-10.4-24.8 7.9-6.6 14-11.1 18.7-14.1-0.2 4.6 0.6 9.5 3.6 13.7 1.6 2.2 4.1 4.6 7.9 6.1-5.6 6.4-13 13.7-19.8 19.1zm13.5-48.8c-1.2 0.5-2.5 1.2-3.8 1.9-7.8 4.2-17.1 11.5-25.5 18.6-0.9 0.7-1.8 1.5-2.6 2.2-0.4 0.4-0.9 0.8-1.3 1.1-0.5 0.4-0.9 0.8-1.3 1.2-2.6 2.4-4.4 5-5.8 7.6-0.5 1-1 2-1.4 3s-0.7 2.1-1 3.1c-1.9 7.5-0.4 14 0.2 15.8l0.2 0.5 0.3 0.4c0.2 0.3 0.6 0.8 1.1 1.3-1.8 1.6-4 3.5-6.6 5.6-1.1-1.2-1.9-2.4-2.5-3.4l-0.2-0.3-0.1-0.3c-0.2-0.5-3-8.1-1.7-17.7 0.2-1.2 0.4-2.3 0.7-3.5s0.6-2.4 1-3.6c1.1-3.2 2.8-6.5 5.2-9.7 0.8-1.1 1.7-2.2 2.7-3.2 0.9-1 2-2 3.1-3 0.2-0.2 0.4-0.3 0.5-0.5 12.6-10.9 25.5-21.1 36.4-25.6 1.3-0.5 2.5-0.9 3.7-1.3 1.4-0.4 2.7-0.7 4-0.8 0.8-0.1 1.5-0.1 2.3-0.1 2.7 0 5.4 0.8 8 2.2 0.9 0.5 1.8 1.1 2.6 1.7s1.6 1.3 2.4 2 1.6 1.5 2.4 2.4c2.4 2.7 4.3 5.8 5.7 8.9-2.8 1.3-5.6 2.3-8.2 2.9-0.8-1.6-1.8-3.3-2.9-4.8-0.3-0.5-0.7-0.9-1.1-1.3l-1.2-1.2c-0.8-0.8-1.6-1.5-2.5-2.1-1.8-1.3-3.7-2-5.3-2-1.2 0-2.6 0.2-4.1 0.7-1.1 0.4-2.2 0.8-3.4 1.3zm27.5-6.4c-0.9-1-1.8-2-2.8-2.9 3.9-4.1 9.3-9.4 14.9-13.4l-0.7 23.3c-1.6 1.1-3.3 2.1-4.9 3-1.6-3.4-3.8-6.9-6.5-10zm-7.7-6.6c-2.8-1.7-5.7-2.9-8.7-3.4l0.1-0.1c7.4-7.9 20.7-22.1 35.5-25.7-0.5 3.2-0.9 6.5-1.4 9.5-9.8 3.8-19.5 13.3-25.5 19.7zm-541.3-409c0.5 0.6 1 1.2 1.4 1.7 0.7 1.1 1.9 1.7 3.1 1.7 0.7 0 1.4-0.2 2.1-0.6 1.7-1.1 2.2-3.4 1-5.1-2-3-5.6-6.3-10.1-10.6-10.8-10.2-25.5-24.1-30.7-43.3-3.2-11.9 5.2-23.3 10.4-28.9 12.9-13.9 33.8-23.7 45.6-21.4 25.6 4.8 36.7 47.2 36.8 47.6 0.5 2 2.5 3.2 4.5 2.7s3.2-2.5 2.7-4.5c-0.1-0.5-1-3.7-2.6-8.3 54.8-43.6 122.2-67.3 193.3-67.3 62.9 0 122.9 18.6 173.9 53.1-1.4 5-2.1 8.5-2.2 9-0.4 2 0.9 4 2.9 4.4s4-0.9 4.4-2.9c2.5-11.8 11.9-44 25.8-51.7 3.3-1.9 6.7-2.1 10.2-0.8 28.5 10.4 59.7 29.5 61.9 52.1 1.8 18.6-39.3 38.7-55.4 44.8-1.9 0.7-2.9 2.9-2.1 4.8 0.6 1.5 2 2.4 3.5 2.4 0.4 0 0.9-0.1 1.3-0.2 1.6-0.6 6.5-2.5 12.7-5.5 48 56.2 74.2 126.9 74.2 201.6 0 9.9-0.5 19.9-1.4 30v0.1l-5.2 170.8c-14.4 5.5-26.6 18.4-33.7 26-1 1-2.7 2.9-3.2 3.3-0.6 0.4-1.1 0.9-1.6 1.3-12.5 2.6-27.2 13.4-44.9 28.8-2.1 1.8-3.9 3.7-5.5 5.5-1.7 0.3-3.5 0.6-5.4 1.2-24.5 6.6-55.6 39.6-57 41l-0.9 1-5 9c-9.4 1.8-17.7 5.2-25.1 9.5-7.8-3.6-17.8-5.5-29.9-3-0.1 0-0.3 0.1-0.4 0.1-4.2 1.4-103.7 34.5-119.6 45-1.5 1-2.9 2.2-4.2 3.7-6.2-1.8-10.3-2.8-10.5-2.9s-0.5-0.1-0.7-0.2c-0.7-0.1-3-0.5-6.3-0.7-3.2-6.6-8.1-12-14.9-16.3-12.3-7.7-37.2-15.7-40-16.6-0.5-0.2-1-0.3-1.5-0.3-3.8-0.6-8.8-1.2-14-1.4-0.7-0.9-1.5-1.8-2.5-2.7-7.1-6.7-32.5-28.7-42-33.8-5.4-2.9-10.9-4.2-16-4.4-0.1-0.3-0.2-0.5-0.3-0.8-0.7-2-2-3.7-3.7-4.9l-37.2-25.9c-5.8-4.7-12.4-5.5-19.4-2.5-14.3-12.2-32.9-26.7-33.2-26.9-6-4.6-11.4-6.9-17.2-7.2-4-4.5-8.9-9.1-13.9-12.6l-4.3-182.7v-0.3c-1-10-1.4-20.1-1.4-30-0.1-63.7 18.6-124 53.4-175zm-73.1 432.3c-1.8-3.3-2.4-11.1-1.9-19.1l7.5 10.2c0.2 2.3 0.5 4.1 0.8 5.1l0.2 0.5c1 1.8 3.4 3.7 6.3 5.4 0 2.3 0.1 4.4 0.2 6.2 0 0.7 0.1 1.4 0.1 1.9v0.5c-6.1-3.1-11.3-7.2-13.2-10.7zm13.4-8.8c-0.2-0.1-0.3-0.3-0.4-0.5l-1.3-1.8-3.1-4.3-2.9-4-6.4-8.7-2.5-3.4-2.4-3.3-3.1-4.3c-0.6-0.8-0.8-1.8-0.7-2.8 0.2-1 0.7-1.8 1.5-2.4 0.6-0.5 1.4-0.7 2.2-0.7h0.6c1 0.2 1.8 0.7 2.4 1.5l0.3 0.4 2 2.8 2.1 2.9 5.4 7.4 2.5 3.4 2.6 3.6 3.4 4.6c-1.2 3-1.9 6.2-2.2 9.6zm-0.6-27.9-2.8-1.3-0.4 1-4.3-5.9c1.8-1.6 3.7-2 5-2 0.3 0 0.6 0 0.9 0.1 5.9 0.7 13.9 6.8 20.4 13.3 0.9 0.9 1.7 1.8 2.5 2.7 0.9 1 1.7 1.9 2.5 2.8 2.5 3.1 4.5 5.9 5.4 8.1 0.1 0.3 0.2 0.6 0.3 0.8 0.3 0.8 0.4 1.8 0.5 2.9 0 1 0 2.2-0.2 3.5-0.8 5.4-3.4 13-7.7 21.6-0.9-1-1.5-1.9-1.9-2.5v-0.7c-0.2-4.7-0.1-8.3 0-11 1.2-3.2 2.1-6.3 2.4-8.7 0.1-0.7 0.1-1.4 0.1-2v-0.5l-0.2-0.5c0-0.1-0.1-0.1-0.1-0.2-0.3-0.7-0.9-1.6-1.7-2.8-1.2-1.7-3-3.9-5.1-6.2-0.7-0.8-1.5-1.6-2.3-2.4-0.4-0.4-0.9-0.8-1.3-1.3-0.4-0.3-0.7-0.7-1.1-1-4.1-3.6-8-6.5-10.9-7.8zm4.8 10.7c0.3 0.2 0.6 0.5 0.9 0.8v0.4zm4.9 42.9c-1-1.5-1.7-2.7-2.2-3.7-0.8-1.6-1-2.7-1-3.3 0-0.5 0-1.2-0.1-2 0-0.9-0.1-1.9-0.1-2.9 0-1.1-0.1-2.2-0.1-3.4v-3.4-0.4c0-1.1 0.1-2.3 0.2-3.5 0.3-3.6 0.8-7.2 1.9-10.3 0.4-1.2 0.9-2.3 1.4-3.3 0.2-0.4 0.5-0.9 0.8-1.3 2.4 2.5 4 4.6 5 6-0.7 1.8-1.4 4.7-1.7 9.6-0.1 2.3-0.2 5.1-0.1 8.4 0 1.1 0 2.2 0.1 3.5v0.7l0.1 2.1 0.3 0.6c0.4 0.9 1.4 2.3 2.7 3.9 0.7 0.8 1.5 1.8 2.3 2.7 0.7 0.8 1.5 1.7 2.3 2.5 6.3 6.8 15.3 15.2 21.7 19.5 4.5 3.1 7.7 3.9 11.3 4 0.6 3.4 1.5 6 1.8 6.9 0.1 0.2 0.2 0.4 0.2 0.6h-0.8c-5.4 0-10.3-0.9-16.7-5.3-0.1-0.1-8.4-6.4-16.9-14.5-4.4-4.1-7.5-7.6-9.8-10.3-1-1.2-1.9-2.3-2.6-3.4zm108.8 524.3c-1.9-0.3-3.4-0.6-4.5-1-2-0.7-2.8-1.5-2.9-1.8-0.1-0.2 0.2-1.1 1.3-2.3 3.9-4.3 21.9-17 38-21.8 4.7 3 9.4 5.9 14.2 8.6l5.4 3c-17.7 6.9-45 16.2-51.5 15.3zm311.8-7.2c-36.1 15.2-74 22.9-112.5 22.9-75.9 0-151.7-30.5-208-83.7-53.1-50.2-84.3-114.9-89-183.7-0.4-6.1-0.6-12.1-0.6-18.2l-1.7-73.4c11.1-5.8 20.1-11.6 22.3-14.4 1.3-1.6 1-4-0.7-5.2-0.9-0.7-1.9-0.9-2.9-0.7-0.1 0-0.2 0.1-0.4 0.1-0.8 0.2-1.5 0.6-2 1.3-2 2.6-14.7 10.6-30.8 17.6-20 8.8-30.7 9.8-33.7 7.9-0.9-0.5-1-1.9-0.7-3.4 0.4-1.9 1.3-4 1.7-4.9 14.2-30.8 53.5-51 60-54.1 0.5-0.3 0.9-0.4 0.9-0.4 1.9-0.9 2.7-3.1 1.8-4.9-0.9-1.9-3.1-2.7-4.9-1.8-0.3 0.1-5.1 2.3-12 6.4l-2.6-109.4c9.7 9.8 20.8 18.2 21 18.3 8.2 5.6 14.6 6.4 20.3 6.4 1.2 0 4.9-0.1 6.1-0.1 8.2 7.2 28 24.4 36.9 28.5 3.2 1.5 6.7 2.4 10.3 2.6 0.9 1 1.9 1.9 3.1 2.7 39.4 28.6 47.9 33.4 51.4 34.3 6.4 12.4 11 15.1 30.7 23.7 10.5 4.6 25.6 9.5 38.5 11.3 1.4 7.1 4.9 13.4 12.2 17.5 8.6 4.8 28.3 12.2 41.3 16.4l26.1 52.5c-15.3 26.2-24.1 56.7-24.1 89.2 0 81.3 54.9 150 129.6 170.9 15.3 4.3 31.3 6.6 47.9 6.6 1.9 0 3.9 0 5.8-0.1-13.1 8.1-26.9 15.3-41.3 21.3zm92.6 5.4 0.4 0.4c0.3 0.4 0.5 0.7 0.7 0.9-1.1 0.8-4.8 2.1-16.2 2.8-7.5 0.5-37.3-6.5-55.9-11.3 2.4-1.2 4.8-2.5 7.2-3.7 4.6-2.5 9.2-5 13.6-7.7 19 2.9 44.7 12.9 50.2 18.6zm113.1-204.1c0 34.8-10.5 67.2-28.5 94.1-27.8 41.6-73.4 70.4-125.8 75.2-5.2 0.5-10.5 0.7-15.8 0.7-12 0-23.8-1.3-35.1-3.7-58.5-12.3-106-54.8-125.5-110.4-6.1-17.6-9.5-36.4-9.5-56.1 0-93.8 76.3-170.1 170.1-170.1s170.1 76.5 170.1 170.3zm-17.2-326.7c-1.1 0.6-2.2 1.1-3.4 1.6-1.3 0.6-2.5 1.1-3.8 1.6-3.6 1.3-7.2 2.3-10.8 2.7-0.2 0-0.5 0-0.7 0.1-1.4 0.1-2.7 0.2-3.9 0.1-1.3-0.1-2.5-0.2-3.6-0.5-3.1-0.8-5.5-2.3-7.2-4.6-3-4.1-2.8-9.5-1.9-13.9 2.7-1.3 4.6-1.7 5.8-1.7 0.3 0 1.5 0.5 3 1.9-0.8 3.1-1.2 6.5 0 8.4l0.9 1.4h1.2c0.8 0.2 1.8 0.3 2.9 0.3h0.6c0.6 0 1.2-0.1 1.9-0.1 0.4 0 0.8-0.1 1.2-0.2l3-0.6c2.7-0.7 5.5-1.7 8.3-2.9 1-0.4 1.9-0.9 2.9-1.3 0.9-0.5 1.9-1 2.8-1.5 14.6-7.9 28.4-20.7 30.4-26.7l0.1-0.4v-0.4c0.1-3.5-0.2-6.5-1-8.9 0.6-3.8 1.3-8.1 1.8-12.3 0.3 0.3 0.7 0.5 1 0.8 4.8 4.4 7.2 11.7 6.8 21.1-0.1 2.2-1.8 10.5-20.2 24.6-3.5 2.7-10.2 7.5-18.1 11.4zm5.4 112.2 0.3-9.1 0.5-17.6c12.5 8.4 31.4 22.2 38.8 34.4 0.5 0.8 0.7 1.4 0.9 1.8-4.2 1.6-21.4-2.6-40.5-9.5z"/>
	<path d="m493.7 821.4c0.4 0 0.8-0.1 1.2-0.3 1-0.4 1.7-1.4 1.8-2.5l0.4-3.2 2.8-24.4c0.1-1.1-0.3-2.2-1.2-2.8-0.9-0.7-2.1-0.8-3.1-0.3l-25.6 11.2c-1 0.4-1.7 1.4-1.8 2.5s0.3 2.2 1.2 2.8l19.3 14.2 3.1 2.3c0.6 0.3 1.3 0.5 1.9 0.5z"/>
	<path class="st9" d="m573.8 1015.3 1 2.7c0.6 1.6-0.2 3.4-1.8 4-0.4 0.1-0.7 0.2-1.1 0.2-1.2 0-2.4-0.8-2.9-2l-1-2.7c-7.8 2.7-15.8 4.4-23.8 4.7-45.7 1.5-89.3-39.3-105.1-55.8 14.7 40.7 53.7 69.8 99.3 69.8 44 0 81.7-27 97.6-65.4-8.5 8.8-33.4 32.6-62.2 44.5z"/>
	<path d="m571.9 1022.2c0.4 0 0.7-0.1 1.1-0.2 1.6-0.6 2.4-2.4 1.8-4l-1-2.7-8.3-21.9c-0.6-1.6-2.4-2.4-4-1.8s-2.4 2.4-1.8 4l8.3 21.9 1 2.7c0.5 1.2 1.7 2 2.9 2z"/>
	<path d="m538.4 817.6c-44.2 0-82.5 25.5-101.1 62.5-7.6 15.2-11.9 32.4-11.9 50.5 0 62.3 50.7 113 113 113s113-50.7 113-113c0-19.1-4.8-37.2-13.2-53-19-35.6-56.6-60-99.8-60zm97.6 153.2c-15.8 38.3-53.6 65.4-97.6 65.4-45.7 0-84.7-29.2-99.3-69.8-4-11.2-6.2-23.2-6.2-35.7 0-58.2 47.4-105.6 105.6-105.6s105.6 47.4 105.6 105.6c-0.1 14.2-3 27.7-8.1 40.1z"/>
	<path class="st8" d="m448.5 543.4c-13.7-1.1-13.1-2.5-29.9-2-16.9 0.4-26.5 8.1-33.7 7.5-5.7-0.4-12.6-1.4-16.1-4.2-0.4 1.9-0.4 3.7 0.1 5.1 0.4 1.1 1.2 2.7 4.2 3.7 9.5 3.1 22.2-0.8 32.5-3.9 6.4-1.9 11.9-3.6 16.2-3.6 4.7 0 12.1 1.5 19.9 3s21 4.1 23.6 2.9c0.3-0.1 1.2-1.3 1.5-4.3 0.2-1.7 0.2-3.7-0.1-5.7-4 1-10.3 2.2-18.2 1.5z"/>
	<path class="st10" d="m409.5 590.4c-3.5-0.1-9.5-1-15-2.9 0.7 2.1 1.6 3.5 2.5 4.1 5.9 3.7 14.5 4.5 19.1 3.1 1.7-0.5 2.2-1.1 2.3-1.2 0-0.2 0.1-0.4 0.1-0.6v-0.6c0-1.1-0.2-5.6-0.5-11.6-2.4 4.5-5.9 9.7-8.5 9.7z"/>
	<path class="st10" d="m437.9 588.1c-5-0.9-9.4-4.7-12.4-8.1 0.3 5.2 0.4 8.9 0.5 11.1 4.5 2.4 18.1 5.6 20.2 3.5 0.6-1.6 1.3-4.7 2.1-8.6-2.8 1.6-6.4 2.9-10.4 2.1z"/>
	<path d="m361.8 552c0.9 2.9 3.2 6.7 8.9 8.6 3.3 1.1 6.7 1.5 10.2 1.5 1.2 0 2.4-0.1 3.7-0.2-0.4 11.8 0.3 30.9 8.4 36 5.4 3.4 12.1 4.8 18 4.8 3 0 5.8-0.4 8-1.2 2.4-0.8 4-2 5-3.2 1.9 0.8 4.3 1.7 7.5 2.6 4.2 1.1 8 1.7 11.1 1.7 5.6 0 9.2-1.8 10.5-5.4 1.5-4 3.9-15.2 5.2-26.2 0.6-4.7 0.8-8.5 0.9-11.6 4.3 0.4 7.4 0.1 9.5-1 3-1.6 4.8-5.1 5.4-10 0.9-7.9-1.5-19.4-7.9-25.2-7.8-7-19.4-10.3-26.5-11.1 0-0.5 0.1-0.9 0.1-1.4 0-12-9-21.8-20-21.8-11.1 0-20 9.8-20 21.8v1.1c-6 1.1-23.1 5-30.3 14.4-4.1 5.5-10.4 17.1-7.7 25.8zm84.4 42.6c-2.1 2.1-15.7-1.1-20.2-3.5 0-2.2-0.2-5.9-0.5-11.1-0.3-6.5-0.9-15.4-1.6-26.5 4.2 0.4 10.3 1.6 16.2 2.8 4.3 0.9 8.2 1.6 11.6 2.2 0 3.2-0.3 7.5-1.1 13.4-0.7 4.9-1.5 10-2.4 14.1-0.7 3.9-1.5 7-2 8.6zm-27.6-2.3v0.6c0 0.2-0.1 0.5-0.1 0.6-0.1 0.1-0.6 0.7-2.3 1.2-4.6 1.4-13.3 0.6-19.1-3.1-0.9-0.6-1.8-2-2.5-4.1-1.8-5.2-2.9-14.7-2.4-26.6 5.4-1.1 10.7-2.7 15.6-4.1 3.2-1 6.2-1.9 8.9-2.5 0.5 8.8 1.1 18.9 1.6 26.5 0.1 5.9 0.3 10.4 0.3 11.5zm-43.2-61.5c5.1-6.7 19.1-10.4 25.9-11.7 3 7.9 10.2 13.5 18.5 13.5 8.2 0 15.3-5.4 18.4-13.1 5.7 0.4 16.5 3.4 23.1 9.4 3 2.7 4.9 8 5.4 13 0.2 2 0.3 4 0.1 5.7-0.4 3.1-1.3 4.2-1.5 4.3-2.6 1.2-15.8-1.4-23.6-2.9-7.9-1.5-15.3-3-19.9-3-4.3 0-9.8 1.7-16.2 3.6-10.3 3.1-23 7-32.5 3.9-3-1-3.8-2.6-4.2-3.7-0.4-1.4-0.4-3.2-0.1-5.1 0.9-4.5 3.6-10 6.6-13.9z"/>
	<path class="st11" d="m569.6 439.4c-54.6 0.1-89.8-34.3-104.7-52.9 14.3 41.9 54 72.1 100.7 72.1 46.8 0 86.6-30.3 100.8-72.4-13.6 19.3-44.8 53.1-96.8 53.2z"/>
	<path d="m565.6 466c62.8 0 113.8-51.1 113.8-113.8s-51.1-113.8-113.8-113.8-113.8 51.1-113.8 113.8 51 113.8 113.8 113.8zm0-220.2c58.7 0 106.4 47.7 106.4 106.4 0 11.9-2 23.3-5.6 34-14.2 42-54 72.4-100.8 72.4-46.7 0-86.4-30.2-100.7-72.1-3.7-10.8-5.7-22.3-5.7-34.3-0.1-58.7 47.7-106.4 106.4-106.4z"/>
	<path class="st11" d="m265 452c-39.8 0.3-75-23.7-90.3-36 16.8 31.8 50.2 53.6 88.6 53.6 41.3 0 76.9-25.2 92.2-61-14.4 14.9-47.2 43-90.5 43.4z"/>
	<path d="m263.3 477c59.3 0 107.5-48.2 107.5-107.5s-48.2-107.5-107.5-107.5-107.5 48.2-107.5 107.5 48.2 107.5 107.5 107.5zm0-207.7c55.2 0 100.1 44.9 100.1 100.1 0 13.9-2.8 27.1-8 39.1-15.3 35.8-50.8 61-92.2 61-38.4 0-71.8-21.8-88.6-53.6-7.3-13.9-11.5-29.7-11.5-46.5 0.1-55.2 45-100.1 100.2-100.1z"/>
</g>
</svg>
