<svg xmlns="http://www.w3.org/2000/svg" xmlns:xlink="http://www.w3.org/1999/xlink" width="128" height="128" version="1.1" viewBox="0 0 33.867 33.867"><defs><linearGradient id="linearGradient1534-1" x1=".25" x2="192" y1=".25" y2="192" gradientUnits="userSpaceOnUse"><stop style="stop-color:#42ab46" offset="0"/><stop style="stop-color:#439447" offset="1"/></linearGradient><filter id="filter6016-3-3" width="1.126" height="1.153" x="-.063" y="-.063" style="color-interpolation-filters:sRGB"><feFlood flood-color="#000" flood-opacity=".239" result="flood"/><feComposite in="flood" in2="SourceGraphic" operator="in" result="composite1"/><feGaussianBlur in="composite1" result="blur" stdDeviation="2"/><feOffset dx="0" dy="4" result="offset"/><feComposite in="SourceGraphic" in2="offset" result="fbSourceGraphic"/><feColorMatrix in="fbSourceGraphic" result="fbSourceGraphicAlpha" values="0 0 0 -1 0 0 0 0 -1 0 0 0 0 -1 0 0 0 0 1 0"/><feFlood flood-color="#000" flood-opacity=".122" in="fbSourceGraphic" result="flood"/><feComposite in="flood" in2="fbSourceGraphic" operator="in" result="composite1"/><feGaussianBlur in="composite1" result="blur" stdDeviation="2"/><feOffset dx="0" dy="0" result="offset"/><feComposite in="fbSourceGraphic" in2="offset" result="composite2"/></filter><filter id="filter1587-0" width="1.121" height="1.146" x="-.06" y="-.06" style="color-interpolation-filters:sRGB"><feFlood flood-color="#000" flood-opacity=".2" result="flood"/><feComposite in="flood" in2="SourceGraphic" operator="in" result="composite1"/><feGaussianBlur in="composite1" result="blur" stdDeviation="2"/><feOffset dx="0" dy="2" result="offset"/><feComposite in="SourceGraphic" in2="offset" result="composite2"/></filter><filter id="filter1631-3-5" width="1.123" height="1.184" x="-.062" y="-.065" style="color-interpolation-filters:sRGB"><feFlood flood-color="#000" flood-opacity=".2" result="flood"/><feComposite in="flood" in2="SourceGraphic" operator="in" result="composite1"/><feGaussianBlur in="composite1" result="blur" stdDeviation="1"/><feOffset dx="0" dy="2" result="offset"/><feComposite in="SourceGraphic" in2="offset" result="composite2"/></filter></defs><g><g transform="matrix(.73059 0 0 .73059 -.11775 -17.923) matrix(.26458 0 0 .26458 -2.0613 21.781)"><rect width="152" height="152" x="20" y="20" ry="12" style="fill:url(#linearGradient1534-1);filter:url(#filter6016-3-3)"/><path d="m32 19c-6.648 0-12 5.352-12 12v1c0-6.648 5.352-12 12-12h128c6.648 0 12 5.352 12 12v-1c0-6.648-5.352-12-12-12z" style="fill:#43a047"/><path d="m20 160v1c0 6.648 5.352 12 12 12h128c6.648 0 12-5.352 12-12v-1c0 6.648-5.352 12-12 12h-128c-6.648 0-12-5.352-12-12z" style="fill:#43a047"/><path d="m32 19c-6.648 0-12 5.352-12 12v1c0-6.648 5.352-12 12-12h128c6.648 0 12 5.352 12 12v-1c0-6.648-5.352-12-12-12z" style="fill-opacity:.2;fill:#fff"/><path d="m20 160v1c0 6.648 5.352 12 12 12h128c6.648 0 12-5.352 12-12v-1c0 6.648-5.352 12-12 12h-128c-6.648 0-12-5.352-12-12z" style="fill-opacity:.2"/></g><path d="m56 56.42v9.3776l70.2 70.203h9.3773v-9.3776l-70.2-70.203z" transform="matrix(.73059 0 0 .73059 -.11775 -17.923) matrix(.26458 0 0 .26458 -2.0613 21.781)" style="fill:#ffa726;filter:url(#filter1587-0);stroke-width:4.421"/><path d="m116.53 54.381c-0.79147 0-1.583 0.30369-2.1895 0.91015l-7.2988 7.2988c-1.2129 1.2129-1.2129 3.164 0 4.377l7.2988 7.2988c1.2129 1.2129 3.166 1.2129 4.3789 0l7.2969-7.2988c1.2129-1.2129 1.2129-3.164 0-4.377l-7.2969-7.2988c-0.60646-0.60646-1.398-0.91015-2.1894-0.91015zm3.1719 7.543c1.6569 0 3 1.3431 3 3 0 1.6568-1.3431 3-3 3-1.6568 0-3-1.3432-3-3 0-1.6569 1.3432-3 3-3zm-19.329 12.813-12.344 12.344v4.2422h4.2422l4.5156-4.5156v0.0156h4.2422v-4.2422h-0.0156l0.0156-0.0156v0.0156h4.2578v-2.9297z" transform="matrix(.73059 0 0 .73059 -.11775 -17.923) matrix(.57987 0 0 .57987 -38.23 4.725)" style="fill:#fff;filter:url(#filter1631-3-5);stroke-width:2"/></g></svg>