<?xml version="1.0" encoding="utf-8"?>
<!-- Generator: Adobe Illustrator 25.0.0, SVG Export Plug-In . SVG Version: 6.00 Build 0)  -->
<svg version="1.1" id="Layer_1" xmlns="http://www.w3.org/2000/svg" xmlns:xlink="http://www.w3.org/1999/xlink" x="0px" y="0px"
	 viewBox="0 0 256 256" style="enable-background:new 0 0 256 256;" xml:space="preserve">
<style type="text/css">
	.st0{fill:#709CFF;}
	.st1{fill:#2E4EFF;}
	.st2{fill:#2A49FF;}
	.st3{fill:#5983FF;}
	.st4{fill:#4066FF;}
	.st5{fill:#3152FF;}
	.st6{fill:#426AFF;}
	.st7{fill:#3D63FF;}
	.st8{fill:#5079FF;}
	.st9{fill:#3F66FF;}
	.st10{fill:#2745FF;}
	.st11{fill:#557EFF;}
	.st12{fill:#446BFF;}
	.st13{fill:#4971FF;}
	.st14{fill:#466FFF;}
	.st15{fill:#3A5FFF;}
	.st16{fill:#3456FF;}
	.st17{fill:#537CFF;}
	.st18{fill:#2340FF;}
	.st19{fill:#5C86FF;}
	.st20{fill:#3659FF;}
	.st21{fill:#385CFF;}
	.st22{fill:#3457FF;}
	.st23{fill:#5D88FF;}
	.st24{fill:#4973FF;}
	.st25{fill:#213DFF;}
	.st26{fill:#618CFF;}
	.st27{fill:#3153FF;}
	.st28{fill:#365AFF;}
	.st29{fill:#4C77FF;}
	.st30{fill:#6691FF;}
	.st31{fill:#6A96FF;}
	.st32{fill:#4D75FF;}
	.st33{fill:#385DFF;}
	.st34{fill:#466EFF;}
	.st35{fill:#3B60FF;}
	.st36{fill:#1D38FF;}
	.st37{fill:#5681FF;}
	.st38{fill:#507BFF;}
	.st39{fill:#5B86FF;}
	.st40{fill:#547EFF;}
	.st41{fill:#537EFF;}
	.st42{fill:#608BFF;}
	.st43{fill:#2D4EFF;}
	.st44{fill:#4B74FF;}
	.st45{fill:#1A34FF;}
	.st46{fill:#5D89FF;}
	.st47{fill:#638FFF;}
	.st48{fill:#4269FF;}
	.st49{fill:#3F64FF;}
	.st50{fill:#3558FF;}
	.st51{fill:#3B5FFF;}
	.st52{fill:#3A5EFF;}
	.st53{fill:#2F4EFF;}
	.st54{fill:#6995FF;}
	.st55{fill:#304FFF;}
	.st56{fill:#375AFF;}
	.st57{fill:#638EFF;}
	.st58{fill:#3E64FF;}
	.st59{fill:#3355FF;}
	.st60{fill:#2644FF;}
	.st61{fill:#436AFF;}
	.st62{fill:#5A84FF;}
	.st63{fill:#5F89FF;}
	.st64{fill:#557FFF;}
	.st65{fill:#507AFF;}
	.st66{fill:#4870FF;}
	.st67{fill:#4B75FF;}
	.st68{fill:#1933FF;}
	.st69{fill:#1C37FF;}
	.st70{fill:#526FFF;}
	.st71{fill:#5579FF;}
	.st72{fill:#3452FF;}
	.st73{fill:#6C98FF;}
	.st74{fill:#6994FF;}
	.st75{fill:#6B96FF;}
	.st76{fill:#5F8AFF;}
	.st77{fill:#628DFF;}
	.st78{fill:#436BFF;}
	.st79{fill:#4770FF;}
	.st80{fill:#4C75FF;}
	.st81{fill:#395CFF;}
	.st82{fill:#3051FF;}
	.st83{fill:#638DFF;}
	.st84{fill:#608AFF;}
	.st85{fill:#2C4BFF;}
</style>
<g>
	<path class="st0" d="M44.22,247.38c0.63-3.2,1.24-6.4,1.9-9.6c1.82-8.84,3.66-17.68,5.49-26.51c1.54-7.44,3.09-14.88,4.64-22.32
		c1.12-5.39,2.24-10.78,3.37-16.17c0.03-0.14,0.15-0.26,0.22-0.39c1.87,1.15,1.84,1.15,2.4-0.99c0.86-3.3,1.52-6.64,2.41-9.93
		c0.03-0.21,0.09-0.42,0.16-0.62c0.09-0.27,0.17-0.53,0.2-0.82c0.03-0.28,0.08-0.57,0.16-0.84c0.08-0.28,0.17-0.57,0.25-0.86
		c0.68-2.47,1.26-4.96,2.05-7.4c0.77-2.24,1.57-4.47,2.44-6.68c0.04-0.13,0.1-0.27,0.16-0.39c0.05-0.13,0.12-0.25,0.18-0.38
		c0.06-0.12,0.12-0.25,0.19-0.37c0.09-0.19,0.18-0.37,0.25-0.57c0.9-2.18,1.81-4.36,3.04-6.38c1.08-2.28,2.4-4.42,3.84-6.48
		c0.06-0.12,0.13-0.23,0.21-0.34c0.06-0.12,0.13-0.23,0.19-0.34c0.06-0.12,0.13-0.23,0.2-0.33c0.07-0.11,0.15-0.22,0.23-0.32
		c0.04-0.06,0.08-0.11,0.11-0.16c0.07-0.12,0.15-0.23,0.22-0.34c1.11-1.48,2.18-2.98,3.34-4.42c1.58-1.88,3.24-3.69,4.91-5.49
		c0.09-0.09,0.19-0.19,0.29-0.27c0.09-0.09,0.19-0.17,0.28-0.26c0.04-0.04,0.09-0.09,0.14-0.13c0.09-0.09,0.18-0.18,0.28-0.27
		c0.05-0.05,0.09-0.09,0.14-0.13c0.15-0.14,0.31-0.26,0.47-0.38c1.83-1.74,3.76-3.38,5.83-4.84c2.62-2.07,5.44-3.82,8.4-5.33
		c0.12-0.06,0.24-0.12,0.37-0.17c0.18-0.08,0.36-0.16,0.54-0.25c0.12-0.07,0.24-0.13,0.36-0.19c0.18-0.11,0.37-0.21,0.55-0.31
		c2.9-1.56,6.04-2.5,9.11-3.64c3.73-1.2,7.56-1.95,11.44-2.45c0.34-0.06,0.68-0.08,1.02-0.09c0.62,0.06,1.21-0.08,1.8-0.24
		c3.16-0.06,6.32-0.31,9.48-0.39c2.91,0.04,5.8-0.06,8.68-0.49c0.25-0.05,0.51-0.07,0.77-0.09c0.49,0,0.98-0.03,1.45-0.2
		c1.85-0.32,3.6-1.12,5.49-1.27c0.26,0.03,0.5,0.12,0.71,0.29c0.76,0.97,0.86,2.17,1.11,3.31c1.47,6.68,2.99,13.36,4.49,20.03
		c0.03,0.15,0.07,0.3,0.1,0.45c0.44,2.07,0.4,2.14-1.69,2.72c-3.09,0.56-6.22,0.6-9.34,0.72c-4.48,0.08-8.93,0.46-13.36,1.05
		c-3.43,0.4-6.79,1.13-10.1,2.11c-3.41,0.96-6.67,2.29-9.81,3.93c-2.08,1.03-3.89,2.49-5.81,3.75c-0.1,0.07-0.21,0.14-0.32,0.21
		c-0.09,0.07-0.2,0.15-0.29,0.22c-0.04,0.04-0.09,0.08-0.13,0.12c-0.08,0.09-0.17,0.16-0.26,0.25c-0.04,0.04-0.08,0.08-0.12,0.13
		c-0.08,0.09-0.16,0.18-0.25,0.27c-0.04,0.05-0.09,0.09-0.13,0.14c-0.09,0.1-0.18,0.19-0.27,0.28c-0.28,0.28-0.56,0.55-0.9,0.77
		c-0.1,0.07-0.21,0.14-0.31,0.2c-0.05,0.03-0.1,0.07-0.15,0.1c-0.09,0.07-0.18,0.15-0.27,0.22c-0.04,0.04-0.09,0.08-0.13,0.12
		c-0.08,0.09-0.16,0.16-0.25,0.25c-0.04,0.04-0.08,0.08-0.12,0.13c-0.08,0.09-0.16,0.18-0.24,0.27c-0.04,0.05-0.08,0.09-0.12,0.14
		c-0.07,0.11-0.15,0.21-0.23,0.31c-0.48,0.77-1.15,1.37-1.76,2.02c-2.07,2.48-3.97,5.08-5.55,7.9c-0.07,0.12-0.15,0.23-0.23,0.34
		c-0.16,0.23-0.28,0.48-0.4,0.73c-1.92,3.75-3.74,7.54-5.21,11.49c-0.04,0.13-0.09,0.25-0.15,0.38c-0.1,0.23-0.21,0.47-0.28,0.72
		c-0.03,0.12-0.07,0.24-0.12,0.35c-0.09,0.23-0.17,0.47-0.23,0.72c-0.03,0.13-0.07,0.25-0.11,0.38c-0.09,0.27-0.16,0.54-0.23,0.81
		c-1.54,4.79-2.75,9.67-4.1,14.51c-0.03,0.15-0.08,0.3-0.14,0.44c-0.15,0.36-0.22,0.73-0.31,1.11c-1.51,5.17-3.08,10.33-5.07,15.34
		c-0.04,0.15-0.09,0.29-0.15,0.43c-0.11,0.28-0.22,0.56-0.31,0.84c-1.47,3.7-2.96,7.39-4.68,10.98c-0.06,0.12-0.12,0.24-0.19,0.35
		c-0.09,0.16-0.2,0.32-0.29,0.49c-0.05,0.11-0.11,0.21-0.17,0.32c-0.08,0.16-0.16,0.31-0.24,0.47c-0.05,0.11-0.1,0.22-0.16,0.33
		c-0.11,0.23-0.2,0.47-0.31,0.7c-1.29,2.73-2.71,5.39-4.27,7.97c-0.06,0.12-0.12,0.23-0.19,0.34c-0.06,0.11-0.12,0.22-0.19,0.33
		c-0.06,0.11-0.12,0.22-0.19,0.32c-0.07,0.1-0.14,0.2-0.22,0.3c-0.03,0.05-0.07,0.1-0.11,0.16c-0.14,0.22-0.25,0.45-0.36,0.69
		c-1.55,2.44-3.12,4.86-4.8,7.21c-0.08,0.11-0.17,0.21-0.25,0.31c-0.07,0.11-0.15,0.21-0.23,0.32c-0.07,0.11-0.14,0.22-0.22,0.32
		c-0.07,0.11-0.16,0.21-0.24,0.31c-0.04,0.05-0.09,0.1-0.12,0.16c-0.08,0.11-0.16,0.22-0.25,0.32c-2,2.63-4.14,5.15-6.4,7.57
		c-3.16,3.22-6.52,6.19-10.38,8.56C46.05,246.83,45.28,247.46,44.22,247.38z"/>
	<path class="st0" d="M43.86,36.11c-0.72-0.75-1.18-1.67-1.64-2.57c-2.45-4.8-4.31-9.82-5.26-15.14c-0.58-3.25-0.95-6.54-0.76-9.98
		c0.56,0,1.11,0,1.66,0c36.95,0,73.91-0.01,110.86-0.01c0.6,0,1.24-0.16,1.78,0.26c-0.18,0.25-0.43,0.35-0.71,0.41
		c-1.01,0.15-2.02,0.04-3.03,0.08c-0.92,0.02-1.84,0.02-2.75-0.01c-1.27,0.04-2.55,0.03-3.82-0.01c-0.82,0.03-1.63-0.01-2.45,0
		c-1.65,0.03-1.75,0.15-1.38,1.81c0.87,3.84,1.71,7.69,2.57,11.53c2.07,9.18,4.12,18.36,6.18,27.55c0.19,0.83,0.49,1.71-0.24,2.46
		c-1.28,0.5-2.59,0.29-3.9,0.17c-1.65-0.44-3.33-0.07-4.99-0.17c-0.86-0.05-1.72,0.03-2.58-0.13c-2.75-0.32-5.51-0.45-8.24-0.93
		c-2.01-0.44-4.06-0.68-6.05-1.22c-0.36-0.1-0.71-0.24-1.08-0.31c-0.14-0.03-0.28-0.07-0.42-0.11c-0.33-0.12-0.68-0.19-1.03-0.25
		c-0.14-0.03-0.28-0.06-0.42-0.11c-2.03-0.63-4.09-1.16-6.06-1.98c-0.25-0.12-0.5-0.24-0.76-0.32c-0.13-0.04-0.26-0.09-0.38-0.14
		c-0.19-0.07-0.37-0.16-0.56-0.24c-0.13-0.05-0.26-0.1-0.38-0.16c-1.91-0.75-3.69-1.8-5.57-2.62c-1.51-0.92-3.05-1.8-4.52-2.78
		c-0.12-0.07-0.24-0.16-0.35-0.24c-0.06-0.04-0.11-0.08-0.17-0.12c-1.67-1.25-3.39-2.44-4.87-3.94c-1.86-1.28-3.1-3.14-4.58-4.78
		c-0.08-0.11-0.15-0.22-0.22-0.33c-0.04-0.05-0.08-0.11-0.12-0.16c-0.09-0.1-0.17-0.2-0.25-0.3c-0.05-0.05-0.09-0.09-0.13-0.14
		c-0.09-0.09-0.18-0.19-0.27-0.29c-0.17-0.21-0.33-0.43-0.48-0.65c-1.55-2.1-3-4.26-4.06-6.66c-0.08-0.17-0.15-0.34-0.23-0.52
		c-0.05-0.1-0.1-0.21-0.14-0.32c-0.07-0.15-0.14-0.3-0.21-0.45c-0.05-0.09-0.09-0.19-0.14-0.29c-0.07-0.14-0.14-0.28-0.21-0.43
		c-0.04-0.1-0.07-0.2-0.1-0.3c-0.05-0.15-0.1-0.3-0.16-0.45c-0.06-0.1-0.1-0.2-0.15-0.3c-0.09-0.16-0.17-0.31-0.25-0.47
		c-0.07-0.11-0.12-0.23-0.18-0.34c-0.07-0.12-0.13-0.25-0.19-0.37c-0.07-0.13-0.12-0.27-0.17-0.41c-1.04-2.76-1.96-5.55-2.34-8.49
		c-0.13-1.04-0.64-1.37-1.62-1.33c-0.86,0.04-1.72,0.02-2.59,0.03c-1.46,0.04-2.91,0.04-4.37,0.01c-1.47,0.04-2.94,0.05-4.41,0
		c-1.06,0-2.12-0.02-3.19,0c-1.54,0.03-1.63,0.13-1.38,1.71c0.2,1.25,0.44,2.5,0.61,3.75c0.08,0.59,0.28,1.23-0.44,1.61
		c-0.16,0.03-0.31,0-0.45-0.08c-0.22-0.22-0.32-0.5-0.42-0.78c-0.05-0.13-0.08-0.26-0.11-0.39c-0.06-0.31-0.09-0.62-0.2-0.93
		c-0.04-0.11-0.08-0.23-0.11-0.34c-0.06-0.23-0.13-0.46-0.22-0.68c-0.04-0.11-0.07-0.23-0.09-0.34c-0.05-0.29-0.1-0.58-0.22-0.86
		c-0.05-0.11-0.08-0.23-0.12-0.34c-0.07-0.24-0.16-0.47-0.23-0.7c-0.07-0.24-0.1-0.49-0.13-0.74c-0.04-0.25-0.12-0.47-0.31-0.65
		c-0.49-0.37-1.05-0.25-1.59-0.24c-1.22,0.03-2.43,0.04-3.65,0.01c-1.4,0.05-2.81,0.03-4.21,0c-1.32,0.05-2.65,0.04-3.97,0
		c-1.47,0.03-2.94,0.04-4.4,0c-2.97-0.02-2.93-0.03-2.18,2.77c2.01,7.49,4.09,14.97,6.06,22.48C44.17,34.98,44.4,35.58,43.86,36.11z
		"/>
	<path class="st1" d="M91.48,163.8c0-0.1,0.01-0.2,0.03-0.29c0.17-0.17,0.1-0.45,0.27-0.63c0-0.1,0.01-0.2,0.03-0.29
		c0.17-0.17,0.1-0.45,0.27-0.63c0-0.09,0.01-0.19,0.03-0.28c0.9-0.42,1.16,0.39,1.53,0.85c2.82,3.56,5.58,7.16,8.37,10.75
		c2.22,2.86,4.39,5.76,6.69,8.56c0.26,0.31,0.59,0.6,0.29,1.06c-0.21,2.65-0.87,5.22-1.3,7.83c-0.54,3.32-1.22,6.61-2.04,9.87
		c-0.15,0.59-0.27,1.18-0.63,1.69c-1.65-1.2-2.61-3-3.83-4.55c-4.36-5.55-8.67-11.15-12.97-16.75c-0.41-0.53-0.86-1.02-1.33-1.49
		c1.29-5.06,2.53-10.14,4.3-15.06C91.38,164.25,91.31,163.97,91.48,163.8z"/>
	<path class="st2" d="M86.91,179.49c0.53-0.08,0.81,0.24,1.11,0.63c1.2,1.57,2.43,3.12,3.65,4.68c2.8,3.6,5.6,7.2,8.4,10.8
		c1.62,2.08,3.23,4.16,4.84,6.25c0.09,0.11,0.09,0.29,0.13,0.44c-0.68,3.37-2.11,6.46-3.59,9.52c-0.92,1.91-1.75,3.9-3.15,5.54
		c-1.39-0.62-2.02-1.99-2.89-3.09c-4.21-5.41-8.4-10.83-12.6-16.25c-0.44-0.57-0.99-1.04-1.41-1.62c0.97-2.79,1.96-5.58,2.9-8.38
		c0.8-2.42,1.53-4.86,2.29-7.29c0.29-0.25,0.04-0.68,0.3-0.94C86.87,179.67,86.88,179.58,86.91,179.49z"/>
	<path class="st3" d="M152.61,8.71c1.25-0.07,2.5-0.09,3.72,0.21c0.75,2.39,1.2,4.86,1.74,7.3c4.48,20.14,9.03,40.25,13.53,60.39
		c2.96,13.24,5.93,26.47,8.91,39.7c0.12,0.55,0.29,1.09,0.2,1.67c-0.94,1.19-2.14,1.67-3.64,1.3c-1.15-4.35-2.06-8.75-3.04-13.13
		c-2.72-12.07-5.44-24.14-8.14-36.22c-3.03-13.57-6.09-27.14-9.12-40.72c-1.31-5.89-2.59-11.79-3.96-17.66
		C152.59,10.61,152.12,9.68,152.61,8.71z"/>
	<path class="st4" d="M177.21,14.13c1.59,0.63,3.16,1.28,4.6,2.22c0.81,5.57,2.26,11.01,3.49,16.49
		c3.47,15.51,6.94,31.03,10.44,46.54c1.66,7.38,3.25,14.78,4.98,22.15c0.12,0.5,0.29,0.98,0.46,1.46c0.29,1.01-0.39,1.6-0.97,2.24
		c-0.5,0.42-0.87,0.97-1.35,1.41c-0.12,0.1-0.24,0.19-0.37,0.27c-0.07,0.04-0.14,0.07-0.21,0.11c-0.16,0.07-0.32,0.07-0.48,0.02
		c-0.07-0.05-0.14-0.1-0.21-0.14c-0.88-1.44-1-3.1-1.35-4.68c-5.48-24.5-11.01-48.99-16.49-73.5c-0.91-4.09-1.88-8.17-2.76-12.27
		C176.83,15.66,176.53,14.84,177.21,14.13z"/>
	<path class="st5" d="M109.01,182.89c-0.71-1.16-1.68-2.12-2.48-3.21c-1.52-2.09-3.19-4.08-4.78-6.13
		c-2.96-3.81-5.9-7.64-8.84-11.47c-0.2-0.27-0.46-0.39-0.78-0.41c0.63-2.19,1.59-4.27,2.54-6.33c0.88-1.93,1.76-3.87,2.92-5.67
		c0.23-0.14,0.18-0.44,0.34-0.61l0,0c0.78-0.43,1.13,0.2,1.49,0.66c4.69,6.13,9.43,12.22,14.17,18.31c0.32,0.41,0.63,0.82,0.35,1.38
		c-1.41,2.8-2.77,5.63-3.64,8.66C109.84,179.68,109.44,181.29,109.01,182.89z"/>
	<path class="st6" d="M149.24,123.58c3.18-0.07,6.36-0.32,9.53-0.62c1.26-0.02,2.36-0.91,3.67-0.69c0.61,0.04,1,0.37,1.37,0.85
		c4.36,5.74,8.8,11.41,13.2,17.12c0.53,0.69,1.34,1.31,1.12,2.39c-2.47,1.36-5.15,2.21-7.83,3.02c-1.26,0.38-2.5,0.9-3.84,0.95
		c-5.48-7.09-11.03-14.14-16.44-21.29C149.62,124.81,149.04,124.35,149.24,123.58z"/>
	<path class="st7" d="M125.57,126.93c1.01-0.64,2.18-0.75,3.3-0.99c2.25-0.5,4.48-1.2,6.83-1.14c1.11-0.38,1.91-0.03,2.64,0.9
		c5.42,6.92,10.74,13.91,16.13,20.85c0.41,0.53,1.07,1.04,0.6,1.88c-0.41,0.01-0.82,0.03-1.23,0.04c-1.72,0.4-3.48-0.09-5.21,0.26
		c-2.08,0-4.11,0.42-6.17,0.59c-1.49-0.99-2.27-2.59-3.33-3.93c-4.29-5.44-8.49-10.95-12.72-16.44
		C125.97,128.37,125.3,127.83,125.57,126.93z"/>
	<path class="st8" d="M161.28,9.57c1.15,0.05,2.29,0.2,3.37,0.64c5.83,26.53,11.92,53,17.78,79.52c0.07,0.37,0.07,0.75,0.18,1.12
		c0.04,0.13,0.07,0.27,0.09,0.41c0.05,0.33,0.11,0.66,0.22,0.98c0.06,0.19,0.1,0.38,0.13,0.57c0.05,0.25,0.12,0.5,0.19,0.74
		c0.07,0.25,0.1,0.5,0.13,0.75c0.03,0.25,0.09,0.49,0.16,0.73c0.06,0.18,0.09,0.37,0.13,0.55c0.05,0.25,0.12,0.49,0.19,0.73
		c0.07,0.25,0.1,0.5,0.13,0.76c0.03,0.26,0.1,0.51,0.18,0.76c0.06,0.2,0.11,0.4,0.16,0.6c0.06,0.29,0.17,0.56,0.24,0.85
		c0.62,2.87,1.27,5.72,1.93,8.58c0.06,0.22,0.11,0.44,0.16,0.67c0.12,0.65,0.22,1.3,0.38,1.93c0.06,0.28,0.12,0.55,0.2,0.82
		c0.07,0.28,0.11,0.56,0.15,0.84c0.04,0.29,0.13,0.57,0.21,0.86c0.05,0.16,0.07,0.31,0.09,0.47c-0.09,2.13-1.11,3.07-2.95,2.73
		c-1.08-3.26-1.65-6.64-2.4-9.98c-4.86-21.6-9.7-43.21-14.55-64.82c-2.21-9.83-4.43-19.66-6.58-29.5
		C161.05,11.14,160.59,10.32,161.28,9.57z"/>
	<path class="st9" d="M155.07,148.43c-0.12-1.1-0.97-1.78-1.57-2.57c-2.32-3.08-4.71-6.11-7.08-9.16
		c-2.93-3.77-5.86-7.54-8.77-11.32c-0.53-0.69-1.26-0.55-1.96-0.58c0.79-0.57,1.78-0.43,2.63-0.51c1.56-0.13,3.11-0.45,4.69-0.42
		c2.08,0.03,4.13-0.46,6.22-0.29c2.2,3.24,4.71,6.25,7.08,9.37c2.71,3.56,5.46,7.1,8.19,10.64c0.5,0.64,1.01,1.28,1.55,1.88
		c0.3,0.34,0.39,0.7,0.37,1.12l-0.13,0.05l-0.14-0.01c-0.19,0.14-0.44,0.11-0.64,0.21c-0.2,0.03-0.39,0.06-0.59,0.1
		c-0.28,0.22-0.67,0.03-0.95,0.24C161.06,147.92,158.08,148.32,155.07,148.43z"/>
	<path class="st10" d="M81.39,196.38c0.76,0.05,1.15,0.65,1.54,1.15c2.61,3.36,5.17,6.76,7.77,10.12c2.51,3.24,5.06,6.46,7.59,9.69
		c-0.5,1.3-1.35,2.39-2.16,3.48c-1.62,2.2-3.2,4.45-5.23,6.32c-0.89-0.23-1.22-1.05-1.71-1.67c-4.38-5.57-8.71-11.19-13.04-16.8
		c1.63-3.79,3.26-7.58,4.9-11.37c0.2-0.17,0.13-0.46,0.3-0.64C81.34,196.56,81.35,196.47,81.39,196.38z"/>
	<path class="st11" d="M180.57,118.05c-0.72-2.07-1.02-4.24-1.51-6.36c-1.75-7.57-3.5-15.14-5.16-22.74c-1.3-5.96-2.7-11.89-4-17.84
		c-1.29-5.9-2.63-11.8-3.97-17.69c-1.77-7.83-3.52-15.66-5.27-23.49c-1.11-4.96-2.28-9.9-3.28-14.88c-0.41-2.03-1.33-3.99-1.03-6.14
		c0.92,0.09,1.87-0.05,2.77,0.31c1,2.96,1.47,6.05,2.16,9.08c4.27,18.84,8.46,37.71,12.7,56.56c3.06,13.62,6.12,27.23,9.15,40.86
		c0.07,0.3,0.13,0.6,0.14,0.9c0,0.16-0.03,0.31-0.09,0.46c-0.12,0.19-0.29,0.32-0.48,0.43c-0.11,0.07-0.23,0.12-0.35,0.18
		c-0.16,0.08-0.33,0.15-0.5,0.22c-0.16,0.06-0.33,0.11-0.49,0.15c-0.16,0.05-0.32,0.09-0.48,0.12
		C180.75,118.18,180.65,118.13,180.57,118.05z"/>
	<path class="st12" d="M177.21,14.13c-0.25,1.57,0.37,3.03,0.7,4.5c1.51,6.9,3.18,13.77,4.7,20.66c1.52,6.9,3.08,13.79,4.62,20.68
		c1.32,5.9,2.64,11.8,3.98,17.7c1.57,6.89,3.11,13.78,4.64,20.68c0.56,2.53,1.08,5.07,1.62,7.6c0.09,0.4,0.23,0.78,0.59,1.04
		c-0.37,1.4-1.17,2.06-2.73,2.27c-0.92-0.54-0.99-1.52-1.18-2.39c-1.99-8.99-4.02-17.97-6.04-26.95
		c-4.21-18.71-8.37-37.44-12.6-56.14c-0.65-2.89-1.28-5.79-1.93-8.69c-0.16-0.7-0.31-1.41,0.12-2.08c0.15-0.14,0.31-0.15,0.47-0.03
		C175.24,13.24,176.27,13.57,177.21,14.13z"/>
	<path class="st13" d="M168.39,11.12c1.08,0.1,2.1,0.41,3.06,0.9c-0.21,0.72-0.08,1.41,0.08,2.12c5.45,24.2,10.86,48.41,16.31,72.6
		c1.73,7.68,3.46,15.37,5.16,23.06c0.1,0.45,0.22,0.9,0.15,1.37c-0.43,1.23-1.32,1.8-2.61,1.79c-0.84-0.54-0.88-1.47-1.06-2.29
		c-1.9-8.38-3.77-16.77-5.65-25.15c-4.01-17.82-7.96-35.65-12.01-53.46c-1.42-6.24-2.74-12.49-4.19-18.72
		c-0.17-0.72-0.5-1.48-0.01-2.22C167.88,10.99,168.14,11.02,168.39,11.12z"/>
	<path class="st14" d="M178.11,142.63c-0.87-1.81-2.28-3.24-3.47-4.83c-2.66-3.53-5.37-7.03-8.09-10.52
		c-1.15-1.48-2.41-2.87-3.39-4.48c-0.06-0.1-0.28-0.1-0.42-0.15c-0.05-0.46,0.3-0.53,0.61-0.64c0.8-0.09,1.59-0.26,2.39-0.38
		c1.01-0.13,2-0.33,2.99-0.52c0.87-0.2,1.75-0.38,2.62-0.56c0.14-0.03,0.28-0.06,0.42-0.08c0.27-0.05,0.54-0.1,0.8-0.19
		c0.19-0.06,0.4-0.11,0.59-0.14c0.34-0.07,0.67-0.18,1.01-0.25c0.22-0.04,0.43-0.06,0.65-0.05c0.82,0,1.27,0.54,1.71,1.12
		c3.66,4.84,7.4,9.62,11.11,14.43c0.37,0.48,1.06,0.92,0.61,1.72C185.07,139.32,181.76,141.29,178.11,142.63z"/>
	<path class="st7" d="M201.15,103.31c-0.73-0.33-0.74-1.08-0.88-1.69c-0.88-3.86-1.71-7.74-2.57-11.6
		c-1.42-6.4-2.84-12.79-4.27-19.18c-0.82-3.67-1.69-7.33-2.51-10.99c-1.42-6.34-2.81-12.69-4.24-19.03
		c-0.83-3.72-1.7-7.42-2.55-11.14c-0.87-3.81-1.75-7.62-2.57-11.44c-0.13-0.62-0.3-1.32,0.25-1.88l0,0.01
		c0.14,0.23,0.44,0.16,0.62,0.31l-0.01,0c0.15,0.23,0.45,0.16,0.64,0.31c0.77,0.29,1.5,0.67,2.13,1.22
		c2.3,11.11,4.89,22.16,7.37,33.24c3.47,15.51,6.95,31.03,10.45,46.54c0.11,0.5,0.21,1,0.38,1.48c0.06,0.15,0.1,0.3,0.12,0.45
		c0.02,0.15,0.02,0.3,0,0.44c-0.03,0.13-0.08,0.27-0.15,0.38c-0.03,0.06-0.07,0.11-0.11,0.17c-0.06,0.1-0.14,0.21-0.21,0.31
		c-0.06,0.1-0.13,0.2-0.19,0.3c-0.06,0.09-0.13,0.18-0.21,0.27c-0.03,0.04-0.07,0.09-0.1,0.13c-0.06,0.09-0.12,0.18-0.18,0.27
		c-0.05,0.09-0.11,0.18-0.16,0.27c-0.06,0.09-0.12,0.17-0.2,0.24c-0.03,0.04-0.07,0.07-0.11,0.11c-0.07,0.07-0.15,0.15-0.22,0.21
		c-0.04,0.03-0.08,0.07-0.12,0.1c-0.08,0.07-0.17,0.12-0.26,0.17C201.25,103.3,201.2,103.3,201.15,103.31z"/>
	<path class="st15" d="M125.57,126.93c0.88,1.87,2.35,3.32,3.57,4.94c3.33,4.43,6.72,8.81,10.13,13.17c1.09,1.4,2.27,2.74,3.19,4.27
		c-0.2,0.02-0.4,0.05-0.6,0.07c-0.25,0.26-0.64,0.04-0.91,0.26c-0.19,0.02-0.39,0.04-0.58,0.07c-0.19,0.14-0.44,0.11-0.64,0.21
		c-2.4,0.7-4.76,1.54-7.08,2.47c-5.01-6.67-10.17-13.22-15.27-19.81c-0.48-0.62-1.06-1.1-1.62-1.62c1.74-1.28,3.77-1.96,5.74-2.76
		C122.82,127.66,124.15,127.15,125.57,126.93z"/>
	<path class="st16" d="M113.94,169.42c-0.1-1.01-0.98-1.53-1.51-2.24c-2.94-3.89-5.99-7.7-8.99-11.55
		c-1.44-1.84-2.85-3.71-4.24-5.59c-0.34-0.46-0.63-0.94-1.28-0.97c1.55-3.04,3.52-5.78,5.81-8.3c0.89-0.43,1.18,0.34,1.55,0.83
		c3.42,4.44,6.88,8.85,10.29,13.29c1.21,1.58,2.44,3.14,3.65,4.71c0.39,0.51,0.95,0.96,0.79,1.73l-0.03,0.04
		c-0.06,0.11-0.14,0.2-0.26,0.26l-0.05,0.05c-0.06,0.11-0.14,0.2-0.26,0.26l-0.05,0.05c-0.07,0.12-0.15,0.22-0.25,0.31
		C117.24,164.54,115.54,166.95,113.94,169.42z"/>
	<path class="st17" d="M183.02,117.13c-1.13-5.06-2.26-10.12-3.4-15.18c-0.7-3.12-1.43-6.24-2.12-9.37
		c-1.34-6-2.67-12.01-4.02-18.01c-1.7-7.54-3.44-15.07-5.15-22.6c-1.11-4.91-2.2-9.82-3.28-14.74c-1.6-7.25-3.19-14.49-4.8-21.74
		c-0.3-1.34-0.56-2.69-0.94-4.01c-0.22-0.76-0.26-1.5-0.2-2.27c0.3,0.04,0.59,0.07,0.89,0.11c0.37,0.31,0.87,0.01,1.26,0.25
		c0,0,0.03-0.02,0.03-0.02c0,1.75,0.6,3.4,0.97,5.07c1.41,6.5,2.95,12.98,4.42,19.47c1.55,6.84,3.06,13.68,4.59,20.52
		c1.13,5.05,2.29,10.11,3.41,15.16c1.67,7.49,3.3,14.98,4.98,22.46c1.69,7.53,3.42,15.06,5.12,22.59c0.1,0.44,0.07,0.91,0.1,1.37
		c-0.02,0.23-0.14,0.41-0.3,0.56C184.1,117.09,183.66,117.55,183.02,117.13z"/>
	<path class="st18" d="M76.15,208.67c1.08,0.15,1.37,1.19,1.89,1.86c2.97,3.73,5.82,7.56,8.72,11.35c1.36,1.77,2.75,3.52,4.13,5.27
		c-2.4,2.72-5,5.22-8.02,7.27c-1.67-1.46-2.75-3.41-4.13-5.11c-2.13-2.62-4.15-5.33-6.19-8.02c-0.56-0.74-1.2-1.39-1.98-1.89
		c0.18-0.93,0.84-1.62,1.26-2.42c1.09-2.07,2.23-4.11,3.35-6.16c0.21-0.16,0.16-0.44,0.32-0.62l0,0.01c0.21-0.17,0.16-0.46,0.3-0.66
		c-0.01-0.09,0-0.18,0.04-0.26c0.11-0.11,0.21-0.22,0.27-0.37C76.1,208.82,76.11,208.74,76.15,208.67z"/>
	<path class="st19" d="M152.61,8.71c1.12,5.01,2.25,10.01,3.38,15.02c1.53,6.84,3.06,13.69,4.6,20.53
		c1.71,7.58,3.52,15.15,5.15,22.76c1.27,5.92,2.65,11.8,3.98,17.7c1.76,7.83,3.52,15.67,5.27,23.51c0.69,3.08,1.35,6.16,2.07,9.23
		c0.14,0.61,0.1,1.22,0.13,1.83c-0.32,0.61-0.78,0.68-1.33,0.33c-1.08-2.51-1.36-5.23-1.98-7.86c-2.46-10.45-4.53-20.99-7.17-31.41
		c-0.29-1.15-0.06-2.34-0.11-3.51c-0.07-0.38,0.18-0.82-0.21-1.15c-0.15-0.07-0.21-0.18-0.18-0.34c0.2-0.71-0.08-1.37-0.2-2.06
		c-0.09-0.19-0.15-0.38-0.18-0.58c-0.06-0.32-0.1-0.64-0.2-0.95c-0.06-0.18-0.09-0.37-0.12-0.55c-0.04-0.24-0.09-0.47-0.17-0.7
		c-0.04-0.11-0.07-0.23-0.09-0.34c-0.05-0.28-0.09-0.57-0.2-0.84c-0.04-0.11-0.07-0.22-0.1-0.33c-0.06-0.22-0.13-0.44-0.21-0.65
		c-0.04-0.11-0.08-0.22-0.11-0.33c-0.05-0.16-0.1-0.32-0.16-0.48c-0.05-0.1-0.09-0.21-0.13-0.31c-0.07-0.16-0.15-0.31-0.22-0.46
		c-0.05-0.11-0.1-0.21-0.15-0.32c-0.11-0.23-0.28-0.41-0.44-0.6c-0.75-1.31-1.42-2.66-2.28-3.9c-0.32-0.46-0.55-0.96-0.48-1.55
		c-0.4-3.73-1.46-7.32-2.26-10.96c-2.89-13.04-5.83-26.06-8.76-39.09c-0.12-0.54-0.31-1.1,0.12-1.61c0.22-0.01,0.44-0.03,0.65-0.04
		C151.21,8.68,151.91,8.7,152.61,8.71z"/>
	<path class="st20" d="M120.03,161.32c-2.16-2.82-4.32-5.64-6.49-8.45c-2.92-3.78-5.85-7.54-8.76-11.33
		c-0.29-0.38-0.52-0.75-1.05-0.77c0.62-0.71,1.25-1.42,1.87-2.13c0.1-0.1,0.22-0.19,0.31-0.31v0c0.11-0.1,0.21-0.2,0.31-0.31l0,0
		c0.11-0.1,0.21-0.2,0.31-0.31l0,0c0.11-0.1,0.21-0.2,0.31-0.31l0,0c0.1-0.09,0.2-0.19,0.3-0.28c0.4-0.32,0.81-0.63,1.21-0.95
		c0.12-0.09,0.24-0.19,0.33-0.3l0,0c0.11-0.1,0.21-0.2,0.31-0.31l0,0c0.11-0.1,0.21-0.2,0.31-0.31l0,0c0.1-0.1,0.21-0.2,0.31-0.29
		l0.01,0c0.72-0.16,0.98,0.41,1.31,0.84c4.74,6.07,9.43,12.18,14.15,18.26c0.47,0.6,1.23,1.16,0.85,2.13l0.01-0.02
		c-0.15,0.06-0.25,0.17-0.34,0.3l0.01,0c-0.11,0.09-0.22,0.17-0.33,0.26C123.53,158.25,121.78,159.78,120.03,161.32z"/>
	<path class="st21" d="M125.93,156.19c-0.3-1.19-1.19-2-1.89-2.92c-2.27-3-4.63-5.93-6.94-8.9c-2.31-2.97-4.58-5.96-6.88-8.94
		c-0.15-0.19-0.4-0.31-0.59-0.47c1.94-1.49,3.85-3.04,6.14-4c0.56-0.06,0.99,0.15,1.33,0.6c1.79,2.34,3.59,4.69,5.39,7.02
		c2.74,3.54,5.53,7.04,8.23,10.61c0.75,0.99,1.82,1.82,1.93,3.21c-0.06,0.08-0.15,0.11-0.25,0.09c-0.12,0.07-0.23,0.14-0.35,0.21
		c-0.07,0.08-0.16,0.11-0.26,0.09c-0.12,0.07-0.24,0.14-0.35,0.21c-0.07,0.08-0.16,0.11-0.26,0.09c-0.12,0.07-0.24,0.14-0.35,0.21
		C129.19,154.27,127.56,155.23,125.93,156.19z"/>
	<path class="st22" d="M196.95,26.79c0.78,0.59,1.45,1.31,2.09,2.06c1.16,5.08,2.25,10.17,3.39,15.25
		c2.56,11.31,5.1,22.62,7.6,33.95c0.19,0.85,0.52,1.65,0.86,2.45c0.31,2.35-0.67,4.47-1.16,6.68c-0.1,0.25-0.25,0.46-0.45,0.64
		c-0.22,0.17-0.44,0.29-0.73,0.21c-0.75-0.36-0.87-1.09-1.03-1.79c-3.07-13.78-6.19-27.56-9.27-41.34
		c-1.28-5.74-2.53-11.49-3.87-17.22c-0.12-0.5-0.29-0.99-0.28-1.5c0.02-0.59,0.08-1.19,0.96-0.94l-0.03,0
		c0.07,0.2,0.21,0.31,0.42,0.33c0.09-0.02,0.14,0.01,0.18,0.09c0.1,0.08,0.2,0.16,0.29,0.26l0.01,0.01c0.1,0.1,0.2,0.19,0.29,0.29
		l0.01,0.01c0.1,0.1,0.2,0.22,0.33,0.28l-0.01-0.01C196.64,26.65,196.77,26.76,196.95,26.79z"/>
	<path class="st23" d="M52.79,8.71c1.33,0,2.66,0,3.99,0c0.62,0.47,0.75,1.2,0.93,1.89c2.51,9.34,5.09,18.66,7.59,28
		c1.55,5.78,3.16,11.55,4.71,17.33c0.19,0.71,0.58,1.47-0.02,2.19c-1.78-0.41-3.3-1.39-4.91-2.18c-1.32-4.62-2.56-9.27-3.82-13.9
		c-2.82-10.37-5.65-20.74-8.42-31.12C52.65,10.21,52.24,9.46,52.79,8.71z"/>
	<path class="st24" d="M175.96,119.59c0.45,0.05,0.84-0.1,1.23-0.31c1.17-0.3,2.31-0.66,3.38-1.23c0.1,0,0.2,0,0.31,0
		c0.09-0.11,0.22-0.19,0.31-0.31c0.2,0,0.41,0,0.61,0c0.09-0.11,0.22-0.19,0.31-0.31c0.1,0,0.2,0,0.31,0
		c0.09-0.11,0.22-0.19,0.31-0.31c0.1,0,0.2,0,0.31,0c0.58-0.02,1.03-0.41,1.54-0.61c0.67-0.34,1.06,0.12,1.4,0.55
		c3.36,4.24,6.67,8.52,9.94,12.83c0.24,0.31,0.55,0.63,0.36,1.1c-2.45,2.32-5.08,4.41-8,6.12c-0.1-0.88-0.83-1.39-1.29-2.03
		c-1.56-2.13-3.23-4.18-4.85-6.27c-2.08-2.69-4.15-5.4-6.2-8.11c-0.33-0.43-0.71-0.53-1.19-0.52
		C174.85,119.41,175.43,119.57,175.96,119.59z"/>
	<path class="st25" d="M70.57,219.39c0.63-0.35,0.96,0.13,1.27,0.5c1.29,1.57,2.56,3.15,3.81,4.76c2.3,2.97,4.56,5.97,6.85,8.95
		c0.19,0.25,0.37,0.48,0.38,0.81c-2.81,2.37-5.87,4.34-9.21,5.88c-0.6-0.17-0.86-0.71-1.19-1.14c-2.62-3.37-5.21-6.77-7.87-10.1
		c-0.09-0.12-0.13-0.27-0.16-0.43c1.72-2.56,3.44-5.13,5.16-7.69c0.25-0.12,0.2-0.43,0.36-0.61l0,0.01c0.13-0.1,0.24-0.22,0.3-0.38
		c-0.01-0.08,0.01-0.16,0.04-0.23c0.1-0.1,0.19-0.21,0.27-0.33L70.57,219.39z"/>
	<path class="st26" d="M52.79,8.71c0.48,2.76,1.34,5.41,2.06,8.11c1.13,4.27,2.31,8.53,3.47,12.79c1.47,5.39,2.94,10.78,4.41,16.16
		c0.76,2.79,1.54,5.58,2.28,8.37c0.16,0.58,0.28,1.19,0.06,1.79c-1.68-0.66-3.15-1.67-4.62-2.71c-0.5-0.28-0.61-0.76-0.74-1.28
		c-2.62-10.26-5.49-20.45-8.26-30.67c-1-3.7-1.99-7.41-2.98-11.12c-0.13-0.48-0.37-0.98,0.01-1.46C49.93,8.71,51.36,8.71,52.79,8.71
		z"/>
	<path class="st27" d="M210.68,80.59c-0.56-0.56-0.8-1.26-0.97-2.03c-1.2-5.46-2.42-10.91-3.65-16.35
		c-1.71-7.58-3.45-15.15-5.16-22.73c-0.62-2.72-1.2-5.46-1.8-8.18c-0.18-0.81-0.09-1.63-0.06-2.44c0.16,0.05,0.26,0.15,0.3,0.31
		c0.03,0.22,0.16,0.35,0.37,0.4c1.99,1.69,3.63,3.69,5.16,5.8c-0.17,1.51,0.36,2.92,0.68,4.35c1.87,8.47,3.79,16.92,5.67,25.39
		c0.21,0.95,0.51,1.87,0.97,2.73c0.41,3.52-0.09,7-0.53,10.48c-0.08,0.39-0.22,0.77-0.36,1.15c-0.13,0.34-0.25,0.69-0.46,1
		C210.79,80.49,210.73,80.54,210.68,80.59z"/>
	<path class="st28" d="M195.06,25.23c-0.69,0.14-0.71,0.59-0.58,1.16c0.63,2.67,1.26,5.34,1.86,8.01
		c1.42,6.34,2.81,12.69,4.22,19.03c0.81,3.62,1.66,7.23,2.47,10.84c1.44,6.44,2.86,12.88,4.31,19.32c0.22,0.99,0.47,1.97,0.68,2.97
		c0.11,0.51,0.16,1.15,0.8,1.39c0.09,0.08,0.16,0.17,0.18,0.29c0.01,0.12,0,0.23-0.03,0.35c-0.07,0.22-0.15,0.44-0.2,0.67
		c-0.03,0.12-0.06,0.22-0.11,0.34c-0.06,0.16-0.11,0.33-0.16,0.5c-0.03,0.11-0.07,0.22-0.11,0.33c-0.09,0.21-0.16,0.42-0.22,0.65
		c-0.03,0.11-0.06,0.22-0.11,0.33c-0.07,0.17-0.14,0.33-0.22,0.49c-0.05,0.12-0.1,0.23-0.16,0.35c-0.11,0.26-0.19,0.53-0.43,0.71
		c-0.16,0.02-0.31-0.02-0.46-0.1c-0.64-0.47-0.76-1.19-0.91-1.88c-4.03-17.86-8.02-35.72-12.02-53.59
		c-0.97-4.34-1.96-8.68-2.91-13.03c-0.14-0.65-0.56-1.4,0.26-1.95c0.18-0.02,0.34,0.01,0.5,0.09
		C192.89,23.33,194.13,24.09,195.06,25.23z"/>
	<path class="st29" d="M196.26,131c-3.53-4.59-7.06-9.18-10.59-13.77c-0.29-0.37-0.59-0.71-1.11-0.72c0.1-0.1,0.2-0.2,0.31-0.31
		c0.19-0.05,0.39-0.08,0.58-0.14c1.43-0.46,2.16-1.37,1.88-2.93c0.63-0.06,0.98,1.04,1.74,0.42c0.54-0.25,1.07-0.53,1.64-0.72
		c0.77-0.44,1.72-0.63,2.15-1.53c0.41-0.54,0.78-1.13,1.61-0.94c2.53,3.97,5.65,7.49,8.46,11.25c0.39,0.52,0.96,0.96,0.72,1.74
		c-0.63,1.18-1.63,2.07-2.52,3.03C199.6,128.01,198.1,129.69,196.26,131z"/>
	<path class="st30" d="M48.49,8.71c1.69,6.24,3.37,12.48,5.07,18.72C55.7,35.3,57.83,43.16,60,51.02c0.2,0.74-0.02,1.56,0.47,2.22
		c-2.05-1.05-3.81-2.51-5.51-4.04c-0.84-1.77-1.09-3.72-1.59-5.58c-2.94-10.86-5.93-21.7-8.85-32.57c-0.21-0.76-0.62-1.56-0.01-2.34
		C45.83,8.71,47.16,8.71,48.49,8.71z"/>
	<path class="st31" d="M44.5,8.71c-0.08,0.84,0.24,1.61,0.45,2.38c1.28,4.8,2.57,9.61,3.88,14.4c1.78,6.51,3.6,13.01,5.36,19.53
		c0.37,1.36,0.88,2.72,0.77,4.18c-2.4-1.9-4.5-4.09-6.44-6.44c-2-7.83-4.18-15.61-6.28-23.41c-0.79-2.91-1.61-5.82-2.37-8.74
		c-0.16-0.62-0.47-1.28,0.03-1.9C41.43,8.71,42.96,8.71,44.5,8.71z"/>
	<path class="st32" d="M190.7,112.83c-0.33,0.62-0.9,0.82-1.54,0.92c-0.93-0.46-0.96-1.41-1.14-2.22
		c-1.99-8.99-4.02-17.97-6.04-26.95c-4-17.81-7.96-35.64-12-53.44c-1.38-6.08-2.67-12.19-4.09-18.27c-0.19-0.79-0.39-1.62,0.24-2.34
		c0.11,0.02,0.21,0.04,0.32,0.06c0.22,0.15,0.49,0.14,0.72,0.23c0.16,0.03,0.33,0.05,0.49,0.08c0.11,0.06,0.14,0.12,0.11,0.18
		c-0.03,0.06-0.07,0.09-0.11,0.09c0.52,2.43,1.03,4.87,1.57,7.3c1.43,6.45,2.86,12.9,4.3,19.35c0.79,3.52,1.63,7.03,2.42,10.55
		c1.24,5.5,2.44,11.01,3.68,16.52c1.71,7.59,3.49,15.16,5.15,22.75c1.09,4.97,2.19,9.93,3.34,14.88c0.68,2.92,1.3,5.86,1.96,8.78
		C190.21,111.84,190.29,112.41,190.7,112.83z"/>
	<path class="st3" d="M69.99,58.12c-0.11-1.9-0.81-3.67-1.29-5.49c-2.15-8.01-4.37-16.01-6.55-24.02
		c-1.49-5.45-2.95-10.91-4.42-16.37c-0.32-1.18-0.63-2.36-0.94-3.54c0.55,0.12,1.33-0.37,1.54,0.61c0.18,0.16,0.11,0.46,0.3,0.62
		c0,0.31,0,0.61,0.01,0.92c0.18,0.16,0.11,0.46,0.3,0.62c0,0.1,0,0.2,0,0.31c0.28,0.25,0.01,0.68,0.3,0.92c0,0.1,0,0.2,0,0.31
		c0.19,0.16,0.11,0.46,0.3,0.62c0,0.1,0,0.2,0,0.3c0.28,0.25,0.01,0.68,0.31,0.92c0,0.1,0,0.2,0,0.31c0.19,0.16,0.11,0.46,0.3,0.62
		c0,0.1,0,0.2,0,0.3c0.37,0.21,0.61,0.52,0.75,0.93c1.55,4.42,3.69,8.53,6.4,12.36c0.18,0.25,0.31,0.53,0.37,0.84
		c0.02,0.16,0.01,0.32-0.03,0.47c-0.19,0.89,0.12,1.72,0.35,2.55c2.2,8.24,4.46,16.47,6.7,24.71c0.16,0.59,0.4,1.19-0.1,1.74
		C72.97,59.44,71.5,58.73,69.99,58.12z"/>
	<path class="st32" d="M166.13,10.53c-0.1,1.09,0.14,2.13,0.37,3.17c1.22,5.45,2.38,10.92,3.67,16.36
		c0.84,3.56,1.63,7.14,2.42,10.71c1.45,6.5,2.87,13,4.34,19.49c1.05,4.66,2.17,9.3,3.21,13.97c1.41,6.3,2.77,12.61,4.16,18.9
		c0.8,3.62,1.65,7.24,2.47,10.85c0.6,2.62,1.17,5.26,1.78,7.88c0.15,0.64,0.41,1.26,0.61,1.88c-1.09,0.71-1.09,0.71-1.84-0.61
		c0-0.1,0-0.2,0-0.31c-0.19-0.16-0.11-0.46-0.31-0.61c0-0.31,0-0.61,0-0.92c-0.19-0.16-0.11-0.46-0.31-0.61
		c-0.19-0.7-0.39-1.41-0.31-2.15c-0.11-0.09-0.19-0.22-0.31-0.31c-0.53-2.47-1.03-4.95-1.62-7.41c-0.14-0.6-0.23-1.19-0.23-1.8
		c-0.19-0.16-0.11-0.46-0.31-0.61c0-0.2,0-0.41,0-0.61c-0.19-0.16-0.11-0.46-0.31-0.61c0-0.31,0-0.61,0-0.92
		c-0.19-0.16-0.11-0.46-0.31-0.61c0-0.2,0-0.41,0-0.61c-0.19-0.16-0.11-0.46-0.31-0.61c0-0.31,0-0.61,0-0.92
		c-0.19-0.16-0.11-0.46-0.31-0.61c0-0.2,0-0.41,0-0.61c-0.28-0.25-0.01-0.68-0.31-0.92c0-0.1,0-0.2,0-0.31
		c-0.28-0.25-0.01-0.68-0.31-0.92c-1.03-4.66-2.06-9.33-3.1-13.98c-0.62-2.78-1.3-5.54-1.92-8.32c-1.42-6.34-2.81-12.7-4.23-19.04
		c-0.79-3.52-1.63-7.03-2.42-10.55c-1.46-6.54-2.9-13.1-4.35-19.64c-0.52-2.33-1.05-4.66-1.61-6.98c-0.12-0.5-0.36-0.98,0.17-1.38
		C165.16,10.22,165.68,10.21,166.13,10.53z"/>
	<path class="st33" d="M191.32,22.53c-0.31,0.21-0.28,0.49-0.21,0.82c1.05,4.56,2.12,9.11,3.14,13.67c1.62,7.24,3.19,14.5,4.8,21.74
		c1.02,4.57,2.09,9.12,3.11,13.68c1.41,6.3,2.81,12.6,4.21,18.9c0.14,0.61,0.31,1.19,0.91,1.52c0.46,0.9-0.27,1.48-0.6,2.16
		c-0.12,0.19-0.25,0.38-0.38,0.56c-0.09,0.13-0.2,0.24-0.34,0.34c-0.15,0.09-0.3,0.12-0.47,0.09c-0.08-0.04-0.15-0.07-0.23-0.11
		c-0.72-0.62-0.82-1.51-1-2.35c-4.25-19.15-8.62-38.28-12.86-57.44c-0.97-4.39-1.96-8.78-2.96-13.16c-0.11-0.5-0.28-1-0.21-1.51
		c0.08-0.5,0.13-1.11,0.93-0.77l0.01,0.01c0.1,0.11,0.19,0.24,0.35,0.27l-0.03-0.02c0.08,0.19,0.21,0.3,0.42,0.32
		c0.09-0.02,0.14,0.01,0.18,0.09c0.11,0.09,0.21,0.16,0.33,0.24l-0.01-0.01c0.08,0.14,0.18,0.26,0.35,0.3l-0.03-0.03
		c0.1,0.27,0.42,0.2,0.58,0.37l0.01,0.01c0.06,0.07,0.09,0.14,0.06,0.21C191.36,22.49,191.34,22.53,191.32,22.53z"/>
	<path class="st34" d="M194.39,110.38c-0.51,0.31-1.03,0.61-1.54,0.92c-0.51-2.33-1.01-4.66-1.53-6.99c-1.33-5.95-2.65-11.9-4-17.85
		c-1.71-7.58-3.5-15.15-5.15-22.74c-1.08-4.96-2.21-9.92-3.33-14.87c-1.62-7.24-3.18-14.49-4.79-21.73
		c-1.02-4.56-2.07-9.12-3.13-13.67c-0.15-0.64-0.39-1.22,0.53-1.41c0.08-0.03,0.15-0.01,0.2,0.06c0.18,0.2,0.44,0.16,0.66,0.26
		l0.01-0.02c1.11,2.77,1.52,5.71,2.17,8.59c3.32,14.7,6.58,29.41,9.92,44.1c0.19,0.85,0.37,1.7,0.51,2.55
		c0.05,0.3,0.06,0.61,0.15,0.9c0.06,0.2,0.09,0.41,0.13,0.62c0.05,0.26,0.11,0.52,0.19,0.78c0.07,0.25,0.1,0.51,0.13,0.77
		c0.03,0.25,0.09,0.5,0.16,0.74c0.06,0.18,0.09,0.37,0.13,0.55c0.05,0.25,0.12,0.49,0.19,0.73c0.07,0.25,0.1,0.5,0.13,0.75
		c0.03,0.25,0.09,0.49,0.16,0.72c0.06,0.18,0.09,0.36,0.12,0.54c0.05,0.24,0.11,0.48,0.19,0.72c0.06,0.18,0.1,0.36,0.13,0.55
		c0.05,0.25,0.12,0.49,0.19,0.72c0.07,0.25,0.1,0.5,0.13,0.75c0.03,0.25,0.09,0.49,0.16,0.73c0.06,0.18,0.09,0.37,0.13,0.55
		c0.05,0.25,0.12,0.49,0.19,0.73c0.07,0.25,0.1,0.5,0.13,0.75c0.03,0.25,0.09,0.49,0.16,0.73c0.06,0.18,0.09,0.37,0.13,0.55
		c0.05,0.25,0.12,0.49,0.19,0.73c0.07,0.25,0.1,0.5,0.13,0.75c0.03,0.25,0.09,0.49,0.16,0.73c0.06,0.18,0.09,0.37,0.13,0.55
		c0.05,0.25,0.12,0.49,0.19,0.73c0.07,0.25,0.1,0.5,0.13,0.75c0.03,0.25,0.09,0.49,0.16,0.73c0.06,0.18,0.09,0.37,0.13,0.55
		c0.05,0.25,0.12,0.49,0.19,0.73c0.07,0.25,0.1,0.5,0.13,0.75c0.03,0.25,0.09,0.49,0.16,0.73c0.06,0.18,0.09,0.37,0.13,0.55
		c0.05,0.25,0.12,0.49,0.19,0.73c0.07,0.25,0.1,0.5,0.13,0.76c0.03,0.26,0.1,0.51,0.18,0.76c0.06,0.2,0.11,0.4,0.16,0.6
		c0.07,0.29,0.17,0.56,0.25,0.85c1.08,4.67,2.15,9.34,3.16,14.02c0.18,0.85,0.41,1.68,0.83,2.45
		C194.79,110.2,194.74,110.4,194.39,110.38z"/>
	<path class="st35" d="M203.29,99.93c-0.39-0.3-0.51-0.73-0.61-1.19c-0.85-3.87-1.72-7.74-2.57-11.6c-1.41-6.35-2.8-12.7-4.22-19.04
		c-1.03-4.61-2.11-9.21-3.15-13.82c-1.42-6.34-2.81-12.7-4.23-19.04c-1.03-4.61-2.1-9.22-3.15-13.82c-0.16-0.69-0.34-1.38-0.47-2.08
		c-0.07-0.4-0.1-0.83,0.29-1.12l0,0.01c0.13,0.23,0.44,0.15,0.6,0.33l0.01,0.01c0.12,0.14,0.24,0.25,0.43,0.27
		c0.09-0.02,0.15,0.01,0.18,0.09c0.1,0.09,0.21,0.16,0.33,0.24l-0.01-0.01c0.09,0.14,0.18,0.27,0.36,0.28l0.02-0.02
		c1.51,6.78,3.05,13.56,4.56,20.34c3.9,17.5,7.86,34.99,11.78,52.49c0.4,1.79,0.58,3.64,1.4,5.32c0.39,0.69-0.02,1.22-0.33,1.77
		c-0.21,0.32-0.4,0.65-0.8,0.78C203.54,100.09,203.41,100.04,203.29,99.93z"/>
	<path class="st36" d="M64.46,228.62c0.56,0.29,0.97,0.76,1.34,1.23c2.46,3.15,4.91,6.32,7.36,9.5c0.22,0.28,0.35,0.62,0.52,0.93
		l-0.03,0.01c-0.15,0.19-0.42,0.13-0.58,0.29c-2.48,1.56-5.23,2.51-7.95,3.5c-0.81,0.3-1.65,0.49-2.49,0.73
		c-1.76-2.53-3.74-4.88-5.62-7.32c2.25-2.48,4.39-5.06,6.52-7.65c0.11-0.1,0.23-0.19,0.3-0.33l-0.01,0.01
		c0.15-0.09,0.25-0.21,0.31-0.37c0-0.08,0.01-0.16,0.05-0.23C64.27,228.83,64.36,228.73,64.46,228.62L64.46,228.62z"/>
	<path class="st37" d="M204.21,99.31c-0.04-0.61,0.67-0.92,0.62-1.53c0-0.05,0-0.11,0-0.16c0.01-0.11,0.04-0.21,0.08-0.31
		c0.04-0.1,0.09-0.2,0.14-0.29c0.05-0.1,0.09-0.19,0.14-0.29c0.04-0.1,0.09-0.2,0.15-0.29c0.05-0.1,0.11-0.19,0.17-0.28
		c0.07-0.08,0.16-0.15,0.25-0.21l0,0c0.1-0.1,0.2-0.21,0.3-0.31c0.01-0.1,0.01-0.2,0.01-0.3c0.11-0.1,0.19-0.22,0.3-0.31
		c0.3-0.72,0.83-1.34,0.92-2.15c0.01-0.1,0.02-0.2,0.02-0.3c0.19-0.17,0.12-0.45,0.3-0.62l0,0c0.19-0.16,0.12-0.44,0.3-0.61
		c0.01-0.1,0.01-0.2,0.01-0.3c0.19-0.16,0.12-0.45,0.3-0.62c0.01-0.1,0.01-0.2,0.01-0.3c0.11-0.11,0.24-0.17,0.39-0.18
		c0.76,0.16,1.18,0.76,1.61,1.31c2.07,2.63,4.03,5.35,6.22,7.88c0.14,0.16,0.22,0.34,0.1,0.54c-0.91,3.53-2.26,6.89-4.03,10.08
		c-0.76-0.17-1.21-0.77-1.64-1.32c-2.06-2.67-4.13-5.34-6.2-8.01C204.41,100.1,204.2,99.75,204.21,99.31z"/>
	<path class="st38" d="M194.39,110.38c0.1-0.1,0.2-0.21,0.31-0.31c0.09-0.53,0.5-0.72,0.92-0.92c0.91-0.61,1.88-1.15,2.45-2.15h0
		c0.11-0.09,0.21-0.2,0.31-0.31l0,0c0.1-0.1,0.22-0.19,0.31-0.31c0.45-0.37,0.62-1.01,1.23-1.23c0.62,0.11,0.91,0.62,1.26,1.05
		c2.38,2.94,4.6,6.01,6.97,8.95c0.39,0.49,0.8,0.97,0.36,1.63c-1.39,2.36-2.99,4.56-4.86,6.56c-0.77-1.63-2.13-2.81-3.17-4.24
		c-1.72-2.37-3.57-4.65-5.38-6.95C194.68,111.63,194.35,111.08,194.39,110.38z"/>
	<path class="st34" d="M195.62,109.15c-0.2,0.41-0.51,0.72-0.92,0.92c-0.65-0.06-0.79-0.57-0.9-1.07c-0.73-3.25-1.45-6.5-2.17-9.75
		c-0.36-1.62-0.71-3.25-1.1-4.87c-0.1-0.4-0.12-0.8-0.13-1.2c-0.19-0.16-0.11-0.46-0.31-0.61c0-0.2,0-0.41,0-0.61
		c-0.19-0.16-0.11-0.46-0.31-0.61c0-0.31,0-0.61,0-0.92c-0.19-0.16-0.11-0.46-0.31-0.61c0-0.2,0-0.41,0-0.61
		c-0.19-0.16-0.11-0.46-0.31-0.61c0-0.31,0-0.61,0-0.92c-0.19-0.16-0.11-0.46-0.31-0.61c0-0.2,0-0.41,0-0.61
		c-0.19-0.16-0.11-0.46-0.31-0.61c0-0.31,0-0.61,0-0.92c-0.19-0.16-0.11-0.46-0.31-0.61c0-0.2,0-0.41,0-0.61
		c-0.19-0.16-0.11-0.46-0.31-0.61c0-0.31,0-0.61,0-0.92c-0.19-0.16-0.11-0.46-0.31-0.61c0-0.2,0-0.41,0-0.61
		c-0.19-0.16-0.11-0.46-0.31-0.61c0-0.31,0-0.61,0-0.92c-0.19-0.16-0.11-0.46-0.31-0.61c0-0.2,0-0.41,0-0.61
		c-0.19-0.16-0.11-0.46-0.31-0.61c0-0.31,0-0.61,0-0.92c-0.19-0.16-0.11-0.46-0.31-0.61c0-0.2,0-0.41,0-0.61
		c-0.19-0.16-0.11-0.46-0.31-0.61c0-0.2,0-0.41,0-0.61c-0.19-0.16-0.11-0.46-0.31-0.61c0-0.31,0-0.61,0-0.92
		c-0.19-0.16-0.11-0.46-0.31-0.61c0-0.2,0-0.41,0-0.61c-0.19-0.16-0.11-0.46-0.31-0.61c0-0.31,0-0.61,0-0.92
		c-0.19-0.16-0.11-0.46-0.31-0.61c0-0.2,0-0.41,0-0.61c-0.19-0.16-0.11-0.46-0.31-0.61c-0.53-2.48-1.06-4.97-1.6-7.45
		c-1.42-6.4-2.84-12.8-4.27-19.19c-0.82-3.67-1.68-7.33-2.52-11c-1.29-5.7-2.57-11.4-3.85-17.1c-0.06-0.29,0-0.61,0.01-0.91
		c0.1-0.03,0.18,0,0.25,0.06c0.2,0.21,0.49,0.17,0.74,0.27c0.07-0.04,0.13-0.03,0.19,0.04c0.1,0.11,0.28,0.14,0.31,0.32
		c-0.16,1.57,0.43,3.02,0.75,4.49c1.21,5.56,2.54,11.09,3.79,16.64c1.68,7.48,3.3,14.98,4.98,22.46c1.7,7.58,3.49,15.15,5.15,22.74
		c1.08,4.96,2.2,9.92,3.33,14.87c1,4.36,1.91,8.73,2.89,13.09C194.85,107.98,194.86,108.76,195.62,109.15z"/>
	<path class="st39" d="M216.54,99.68c-1.7-1.53-2.83-3.53-4.32-5.22c-1.26-1.43-2.06-3.25-3.7-4.36c-0.09-0.08-0.12-0.19-0.08-0.31
		c0.15-0.18,0.27-0.37,0.25-0.62c0-0.12,0.03-0.23,0.07-0.33c0.17-0.17,0.26-0.37,0.24-0.61c0-0.12,0.03-0.23,0.09-0.33
		c0.18-0.16,0.22-0.4,0.36-0.58c0.1-1.74,0.82-3.35,1.07-5.07c0.08-0.56,0.17-1.1,0.18-1.66h0c0.28-0.25,0.04-0.66,0.28-0.92
		c0.04-0.33-0.04-0.7,0.3-0.94c0.77-0.43,1.14,0.17,1.49,0.63c1.93,2.54,3.9,5.06,5.89,7.57c0.56,0.7,0.62,1.46,0.34,2.28
		C218.61,92.8,217.82,96.3,216.54,99.68z"/>
	<path class="st40" d="M74.6,59.67c-0.09-1.59-0.7-3.06-1.1-4.58c-1.1-4.23-2.31-8.43-3.47-12.64c-0.89-3.23-1.75-6.47-2.62-9.71
		c-0.16-0.59-0.27-1.19-0.37-1.78c-0.06-0.35,0.24-0.39,0.49-0.44c0.41,0.06,0.61,0.37,0.81,0.68c0.1,0.15,0.19,0.3,0.29,0.44
		c0.14,0.19,0.28,0.39,0.43,0.57c0.13,0.14,0.27,0.27,0.41,0.41c1.14,1.24,2.09,2.64,3.35,3.76c0.11,0.1,0.21,0.2,0.3,0.31
		c0.05,0.06,0.09,0.11,0.14,0.17c0.09,0.12,0.16,0.25,0.22,0.39c0.02,0.07,0.03,0.15,0.04,0.22c0.01,0.16,0,0.31-0.01,0.47
		c0.91,4.29,2.28,8.46,3.34,12.71c0.85,3.4,2.05,6.72,2.62,10.19C77.81,60.67,76.2,60.2,74.6,59.67z"/>
	<path class="st15" d="M205.76,95.94c0,0.1,0,0.2-0.01,0.3c-0.11,0.09-0.19,0.21-0.3,0.31c0,0.1,0,0.2-0.01,0.3
		c-0.1,0.1-0.2,0.2-0.3,0.31l0,0c-0.19,0.16-0.14,0.44-0.31,0.61l0,0c-0.65-0.07-0.79-0.58-0.9-1.08
		c-1.44-6.81-3.03-13.58-4.55-20.37c-1.32-5.9-2.64-11.8-3.97-17.69c-1.77-7.83-3.52-15.66-5.27-23.49c-1.01-4.51-2-9.02-2.96-13.54
		c-0.15-0.72-0.55-1.46-0.08-2.21c0.1-0.01,0.18,0.03,0.23,0.12c0.1,0.09,0.21,0.16,0.33,0.24l-0.01-0.01
		c0.13,0.23,0.43,0.16,0.6,0.33l0.01,0.01c0.1,0.13,0.22,0.24,0.4,0.27c0.23,0.03,0.42,0.1,0.51,0.34
		c-0.86,0.17-0.64,0.81-0.53,1.33c0.69,3.12,1.41,6.24,2.1,9.36c1.44,6.44,2.81,12.9,4.32,19.33c0.86,3.66,1.67,7.33,2.49,11
		c1.42,6.34,2.81,12.69,4.23,19.03c0.82,3.67,1.67,7.33,2.5,11c0.2,0.89,0.34,1.8,0.61,2.67C205.07,94.96,205.06,95.66,205.76,95.94
		z"/>
	<path class="st0" d="M39.89,8.71c0.31,2.28,1.11,4.44,1.67,6.65c1.06,4.14,2.27,8.24,3.38,12.37c1.22,4.52,2.39,9.05,3.62,13.57
		c0.14,0.53,0.25,0.98-0.06,1.45c-1.71-2.11-3.51-4.15-4.65-6.65c0.19-1.12-0.39-2.09-0.66-3.11c-1.63-6.19-3.34-12.36-5.03-18.54
		c-0.41-1.52-0.83-3.04-1.21-4.57c-0.25-0.98-0.11-1.14,0.94-1.17C38.57,8.69,39.23,8.71,39.89,8.71z"/>
	<path class="st41" d="M208.51,116.79c0.15-1.16-0.9-1.67-1.44-2.4c-2.31-3.14-4.75-6.17-7.15-9.24c0.39-0.63,1-1.11,1.23-1.84l0,0
		c0.11-0.09,0.2-0.21,0.31-0.31l0,0c0.11-0.1,0.21-0.2,0.3-0.31l0,0c0.1-0.1,0.2-0.2,0.3-0.3c0-0.1,0.01-0.2,0.01-0.3
		c0.11-0.1,0.2-0.21,0.3-0.31l0,0c0.1-0.1,0.2-0.2,0.3-0.31c0-0.1,0.01-0.2,0.01-0.3c0.11-0.1,0.2-0.21,0.3-0.31l0,0
		c0.1-0.1,0.2-0.2,0.3-0.31c0-0.1,0.01-0.2,0.01-0.3c0.09-0.12,0.19-0.22,0.3-0.31c0.2-0.21,0.41-0.41,0.61-0.62
		c2.86,3.4,5.36,7.1,8.3,10.44l0,0c-0.19,0.16-0.12,0.45-0.3,0.61C211.24,112.66,209.95,114.78,208.51,116.79z"/>
	<path class="st42" d="M218.61,65.52c0.54,2.6,0.79,5.22,1.05,7.86c0.28,2.91,0.1,5.81,0.18,8.72c0.01,0.35,0.07,0.72-0.23,1.01
		c-0.54-0.47-0.5-1.12-0.44-1.72c0.14-1.43-0.38-2.54-1.29-3.62c-1.8-2.16-3.44-4.45-5.23-6.62c-0.42-0.5-0.56-1.03-0.61-1.67
		c-0.23-2.65-0.27-5.3-0.25-7.95c0-0.41-0.07-0.81-0.19-1.21c-0.12-0.74-0.2-1.48,0.05-2.21c0.86-0.76,1.29,0.12,1.68,0.56
		c1.31,1.49,2.5,3.08,3.68,4.68C217.54,64.07,218.37,64.57,218.61,65.52z"/>
	<path class="st8" d="M79.49,60.85c-0.18-0.24-0.5-0.34-0.58-0.69c-1.42-6.34-3.43-12.53-4.98-18.84c-0.22-0.89-0.52-1.75-0.77-2.63
		c-0.12-0.4-0.2-0.8,0.2-1.11c0.07,0,0.14,0,0.22,0c0.14,0.03,0.28,0.07,0.41,0.14c1.62,1.59,3.57,2.82,5.07,4.55
		c0.03,0.16,0.04,0.31,0.02,0.46c-0.12,1.05,0.2,2.03,0.47,3.01c1.3,4.68,2.58,9.37,3.79,14.07c0.14,0.53,0.39,1.07,0.15,1.64
		C82.14,61.35,80.81,61.14,79.49,60.85z"/>
	<path class="st43" d="M211.89,57.85c0,0.82,0.01,1.64,0.02,2.46c0.22,2.46,0.25,4.91-0.02,7.37c-0.74-0.39-0.75-1.17-0.9-1.84
		c-1.35-5.93-2.67-11.86-4-17.79c-0.85-3.81-1.66-7.62-2.54-11.42c-0.14-0.6-0.1-0.98,0.43-1.27l-0.01,0.02
		c0.03,0.17,0.17,0.25,0.27,0.36l0,0c0.1,0.1,0.19,0.2,0.28,0.31l0.02,0.02c0.18,0.15,0.13,0.48,0.42,0.56
		c1.61,2.01,3.1,4.11,4.24,6.43c1.37,4.17,1.44,8.53,1.93,12.83C212.1,56.53,212.13,57.21,211.89,57.85z"/>
	<path class="st44" d="M83.49,61.46c-0.82-2.24-1.32-4.56-1.93-6.86c-0.92-3.42-1.87-6.83-2.8-10.25c-0.17-0.64-0.38-1.28,0.15-1.86
		c1.71,0.28,2.78,1.67,4.23,2.41c0.16,0.11,0.32,0.23,0.49,0.34c0.12,0.06,0.22,0.13,0.33,0.21c0.11,0.07,0.22,0.15,0.32,0.24
		c0.06,0.04,0.11,0.09,0.16,0.13c0.29,0.24,0.49,0.52,0.41,0.92c0.06,2.48,1.08,4.74,1.64,7.11c0.46,1.98,1.11,3.91,1.58,5.89
		c0.18,0.77,0.78,1.29,0.96,2.03C87.16,61.89,85.33,61.59,83.49,61.46z"/>
	<path class="st45" d="M57.01,237.5c0.37,0.04,0.67,0.16,0.91,0.48c1.42,1.84,2.88,3.66,4.27,5.53c0.25,0.34,0.84,0.7,0.44,1.32
		c-0.11,0.03-0.22,0.06-0.33,0.08c-0.16,0.16-0.39,0.14-0.59,0.22c-2.78,0.87-5.62,1.43-8.5,1.84c-2.78,0.39-5.57,0.63-8.37,0.62
		c-0.23,0-0.52,0.14-0.62-0.22c3.09-1.53,5.8-3.59,8.42-5.8C54.17,240.28,55.48,238.77,57.01,237.5z"/>
	<path class="st34" d="M89.01,61.77c-0.58-0.24-1.02-0.58-1.19-1.24c-1.1-4.15-2.24-8.3-3.31-12.46c-0.12-0.48-0.67-1.18,0.22-1.59
		c1.53-0.05,2.6,1.03,3.87,1.6c0.93,0.76,2.45,0.55,3.04,1.87c-0.07,2.3,0.93,4.37,1.44,6.55c0.29,1.24,0.66,2.46,0.95,3.71
		c0.13,0.53,0.34,1.09-0.09,1.6C92.3,61.89,90.66,61.95,89.01,61.77z"/>
	<path class="st46" d="M211.89,67.68c0.01-2.46,0.01-4.91,0.02-7.37c0.46,0.41,0.29,0.95,0.29,1.44c0.02,2.24,0.03,4.49,0,6.73
		c-0.01,0.99,0.13,1.75,0.94,2.55c1.28,1.28,2.25,2.86,3.37,4.31c0.83,1.09,1.63,2.21,2.55,3.22c0.39,0.43,0.54,0.8,0.54,1.33
		c-0.01,1.07,0.01,2.14,0.03,3.21c0.04,2.06-0.1,4.1-0.63,6.1c0.34-1.51-0.9-2.29-1.61-3.27c-1.55-2.13-3.23-4.16-4.83-6.25
		c-0.35-0.46-0.64-0.93-1.28-0.96c0.16-1.96,0.36-3.92,0.56-5.87C211.98,71.14,211.87,69.41,211.89,67.68z"/>
	<path class="st47" d="M211.89,57.85c-0.26-0.22-0.28-0.52-0.29-0.83c-0.18-4.29-0.73-8.54-1.49-12.76
		c-0.07-0.39-0.01-0.81-0.01-1.21c1.67,2.33,2.78,4.96,3.95,7.55c1.55,3.43,2.82,6.96,3.62,10.65c-0.06,0.11-0.05,0.21,0.05,0.29
		c0.44,1.3,0.72,2.63,0.9,3.98c-1.94-1.64-3.25-3.81-4.82-5.76C213.22,59.05,212.66,58.36,211.89,57.85z"/>
	<path class="st19" d="M175.96,119.59c-0.27,0.5-0.96,0.12-1.23,0.61c-0.2,0-0.41,0-0.61,0c-2.18-11.2-4.95-22.26-7.34-33.41
		c-0.17-0.8-0.39-1.59-0.77-2.32c-0.3-0.8,0.44-1.53,0.18-2.33c0.41-1.83,0.3-3.69,0.29-5.55c0.09-0.13,0.19-0.14,0.28,0
		c0,0.31,0,0.61,0,0.92c0.01,1.26,0.1,2.46,0.59,3.71c0.73,1.88,1.07,3.92,1.52,5.9c0.77,3.42,1.48,6.86,2.23,10.28
		c1.42,6.45,2.86,12.9,4.31,19.35C175.6,117.7,175.99,118.6,175.96,119.59z"/>
	<path class="st48" d="M93.95,61.81c-0.53-2.88-1.44-5.66-2.17-8.49c-0.16-0.63-0.41-1.25-0.52-1.89c-0.1-0.53-0.26-1.11,0.24-1.57
		c0.06-0.1,0.15-0.15,0.26-0.13c0.16,0.04,0.3,0.11,0.45,0.17c0.1,0.04,0.19,0.08,0.29,0.13c0.15,0.06,0.3,0.12,0.46,0.16
		c0.17,0.04,0.33,0.08,0.5,0.14c0.18,0.06,0.36,0.11,0.54,0.16c0.14,0.03,0.27,0.06,0.4,0.1c0.93,0.43,2.11,0.45,2.63,1.57
		c0.4,2.6,1.32,5.07,1.91,7.62c0.16,0.67,0.47,1.37-0.07,2.02C97.23,61.91,95.59,61.9,93.95,61.81z"/>
	<path class="st49" d="M98.87,61.81c-0.14-2-0.96-3.84-1.37-5.78c-0.28-1.34-0.98-2.59-0.78-4.02c0.08-0.1,0.18-0.14,0.31-0.13
		c0.24,0.04,0.47,0.1,0.71,0.12c0.19,0.01,0.38,0.03,0.57,0.06c0.13,0.02,0.26,0.05,0.39,0.09c0.2,0.05,0.41,0.1,0.61,0.14
		c1.27,0.48,2.7,0.43,3.87,1.19c0.08,0.14,0.09,0.29,0.04,0.45c-0.43,0.6-0.35,1.24-0.14,1.9c0.44,1.35,0.72,2.75,1.13,4.12
		c0.19,0.63,0.4,1.28-0.13,1.87C102.35,61.91,100.61,61.9,98.87,61.81z"/>
	<path class="st50" d="M137.56,98.99c-3.27,0.18-6.54,0.41-9.82,0.34c-0.47,0.34-1.07-0.05-1.54,0.28c-0.31,0-0.62,0-0.93,0.01
		c-0.82-0.88-2.32-1.34-1.84-3.02c0.36-0.16,0.73-0.12,1.11-0.08c0.42-0.21,0.94,0.05,1.35-0.25c2.66-0.51,5.35-0.59,8.05-0.73
		c5.82-0.32,11.63-0.1,17.45-0.15c0.07,0.21,0.01,0.36-0.18,0.46c-2,0.51-4.04,0.17-6.06,0.23c-2.97-0.01-5.94-0.01-8.94,0
		C136.31,97.32,138.06,97.62,137.56,98.99z"/>
	<path class="st51" d="M104.09,61.81c-0.02-1.81-0.81-3.45-1.19-5.18c-0.14-0.64-0.32-1.28-0.53-1.91c-0.25-0.79,0.22-0.87,0.8-0.87
		c1.42-0.73,2.72,0.23,4.09,0.29c0.31,0.06,0.61,0.18,0.94,0.19c0.4,0.03,0.8,0.03,1.2,0.12c0.31,0.11,0.63,0.22,0.57,0.65
		c-1.22,0.38-1.35,1.09-1.01,2.31c0.39,1.42,1.25,2.82,0.67,4.4C107.77,61.91,105.93,61.9,104.09,61.81z"/>
	<path class="st52" d="M123.43,96.59c-0.08,0.63,0.27,1.05,0.7,1.43c0.5,0.44,0.88,0.97,1.14,1.59c-0.86,0.57-1.88,0.27-2.81,0.47
		c-2.81,0.6-5.64,1.14-8.39,1.99c-0.14,0.04-0.3,0.02-0.45,0.03c-1.51-0.44-2.06-1.33-1.55-2.46c2.71-1.15,5.54-1.84,8.4-2.45
		C121.46,96.97,122.45,96.78,123.43,96.59z"/>
	<path class="st53" d="M144.94,95.65c2.15,0,4.3-0.01,6.44-0.02c0.09-0.11,0.2-0.21,0.31-0.3c2.15-0.43,4.26-0.98,6.18-2.08
		c3.64-2.07,6.2-5.05,7.68-8.96c0.24-0.11,0.35,0.04,0.45,0.22c0.04,0.12,0.06,0.25,0.05,0.39c-0.01,0.13-0.04,0.25-0.08,0.38
		c-0.1,0.3-0.19,0.6-0.29,0.91c-0.1,0.3-0.19,0.61-0.31,0.91c-0.33,0.72-0.7,1.42-1.04,2.13c-0.06,0.12-0.12,0.24-0.2,0.35
		c-0.07,0.11-0.16,0.22-0.25,0.32c-0.04,0.05-0.09,0.1-0.13,0.16c-0.08,0.11-0.17,0.21-0.26,0.32c-0.4,0.57-0.84,1.1-1.33,1.59
		c-0.09,0.11-0.19,0.2-0.29,0.3c-0.09,0.1-0.2,0.2-0.3,0.29c-0.63,0.66-1.35,1.19-2.07,1.75c-0.76,0.56-1.63,0.92-2.46,1.35
		c-0.11,0.06-0.22,0.11-0.33,0.16c-0.16,0.07-0.32,0.14-0.48,0.21c-0.1,0.05-0.2,0.1-0.3,0.14c-0.15,0.07-0.3,0.14-0.44,0.22
		c-0.09,0.06-0.19,0.11-0.29,0.16c-0.15,0.08-0.3,0.15-0.45,0.2c-0.11,0.03-0.22,0.03-0.33,0c-0.22-0.02-0.44-0.03-0.62,0.14
		c-1.38,0.34-2.77,0.67-4.15,1.05c-0.45,0.12-0.89,0.21-1.36,0.19c-0.36,0.31-0.86-0.02-1.23,0.27c-0.21,0-0.42,0.01-0.62,0.01
		C145.77,97.57,144.69,96.98,144.94,95.65z"/>
	<path class="st54" d="M65.07,161.36c-0.93,3.93-1.86,7.85-2.77,11.78c-0.25,1.05-0.55,1.19-1.4,0.45c-0.4-0.34-1.04-0.52-1.06-1.2
		c0.19-2.13,0.79-4.19,1.21-6.28c0.47-2.33,0.82-4.69,1.53-6.97C63.43,159.85,64.13,160.74,65.07,161.36z"/>
	<path class="st55" d="M126.2,61.81c-2.05,0.1-4.1,0.09-6.14,0c-1.07-1.86-1.97-3.74-1.17-5.97c1.73-0.53,3.48-0.31,5.23-0.16
		c0.36,0.09,0.68,0.26,0.94,0.53c0.67,1.42,0.98,2.94,1.34,4.46C126.49,61.07,126.5,61.47,126.2,61.81z"/>
	<path class="st56" d="M109.61,61.81c-0.31-1.74-0.77-3.44-1.26-5.13c-0.43-1.47-0.39-1.55,1.11-1.59c0.15,0,0.3,0,0.46,0
		c1.77-0.44,3.52-0.35,5.22,0.31c0.09,0.88-1.62,0.54-1.14,1.75c0.28,0.69,0.5,1.44,0.62,2.18c0.14,0.82,0.7,1.6,0.22,2.48
		C113.1,61.91,111.35,61.9,109.61,61.81z"/>
	<path class="st2" d="M126.2,61.81c-0.18-1.31-0.58-2.58-0.94-3.85c-0.16-0.54-0.34-1.07-0.29-1.65c0.17-0.2,0.4-0.35,0.66-0.35
		c2.28-0.03,4.58-0.46,6.84,0.15c0.28,0.18,0.3,0.48,0.05,0.6c-1.19,0.56-0.79,1.45-0.59,2.34c0.2,0.9,0.84,1.81,0.11,2.75
		C130.09,61.91,128.15,61.9,126.2,61.81z"/>
	<path class="st57" d="M65.07,161.36c-1.38-0.13-2.03-1.08-2.5-2.23c0.02-0.18,0.04-0.36,0.06-0.54c0.25-0.27,0.03-0.68,0.27-0.95
		c0.02-0.2,0.04-0.39,0.06-0.59c0.21-0.28,0.01-0.67,0.24-0.95c0.16-2.12,0.97-4.09,1.41-6.15c0.09-0.43,0.06-0.92,0.41-1.27
		c0.95,0.73,1.53,1.91,2.8,2.23c-0.72,2.56-1.43,5.12-2.15,7.68c-0.2,0.16-0.12,0.45-0.31,0.62c0,0.31,0,0.61,0,0.92
		c-0.2,0.16-0.12,0.45-0.31,0.62C65.08,160.95,65.08,161.16,65.07,161.36z"/>
	<path class="st58" d="M112.07,99.62c-0.4,0.59,0.16,0.93,0.37,1.33c0.26,0.49,0.67,0.87,1.17,1.14c-2.1,0.82-4.19,1.66-6.31,2.44
		c-0.99,0.36-1.85,1.04-2.9,1.25c-0.11,0.09-0.21,0.19-0.32,0.28c-0.1,0.02-0.2,0.03-0.3,0.03c-0.11,0.09-0.21,0.19-0.32,0.28
		c-0.1,0.02-0.2,0.03-0.3,0.03c-1.53-0.41-2.02-1.09-1.56-2.18l0,0c0.19-0.15,0.47-0.09,0.62-0.31l-0.01,0.01
		c0.11-0.08,0.22-0.16,0.32-0.24c0.04-0.08,0.1-0.11,0.19-0.09c0.18-0.01,0.31-0.12,0.43-0.24
		C105.99,101.78,108.95,100.52,112.07,99.62z"/>
	<path class="st59" d="M114.84,61.81c-0.42-1.61-0.86-3.21-1.26-4.82c-0.31-1.23-0.28-1.24,0.96-1.29c0.2-0.01,0.41,0,0.61,0
		c0.42-0.43,0.96-0.41,1.49-0.39c0.75,0.16,1.57,0.13,2.19,0.69c0.03,2.01,0.84,3.87,1.23,5.8
		C118.32,61.91,116.58,61.9,114.84,61.81z"/>
	<path class="st60" d="M132.04,61.81c0.18-1.21-0.55-2.24-0.68-3.39c-0.02-0.2-0.15-0.38-0.19-0.57c-0.11-0.66-0.11-1.25,0.82-1.22
		c0.27,0.01,0.5-0.08,0.66-0.3c0.19-0.21,0.44-0.27,0.71-0.28c1.33,0.27,2.7-0.03,4.02,0.35c0.15,0.07,0.25,0.19,0.3,0.35
		c-0.17,0.97,0.13,1.86,0.37,2.78c0.19,0.74,0.69,1.49,0.13,2.28C136.13,61.91,134.09,61.9,132.04,61.81z"/>
	<path class="st61" d="M101.61,104.21c-0.13,0.33-0.2,0.64,0.14,0.92c0.49,0.41,0.84,0.97,1.42,1.26c-2.1,1.28-4.26,2.46-6.28,3.88
		c-0.78,0.55-1.56,1.09-2.35,1.64c-1.52,0.21-2.19-0.39-2.17-1.93C95.21,107.67,98.26,105.7,101.61,104.21z"/>
	<path class="st25" d="M138.18,61.81c-0.13-1.45-0.76-2.77-1.06-4.18c-0.1-0.47,0-0.66,0.44-0.7c0.28-0.29,0.64-0.36,1.02-0.36
		c0.29,0,0.58,0.02,0.87,0.07c0.14,0.03,0.28,0.06,0.41,0.1c0.34,0.11,0.7,0.12,1.06,0.11c0.94,0.02,1.85,0.2,2.75,0.48
		c0.22,0.12,0.39,0.28,0.52,0.5c0.34,1.31,1,2.56,0.73,3.97C142.68,61.91,140.43,61.9,138.18,61.81z"/>
	<path class="st62" d="M73.98,136.18c-0.46,1.45-1.46,2.65-1.92,4.11c-0.29,0.91-0.76,1.77-1.15,2.65c-0.11,0.09-0.19,0.21-0.3,0.31
		c0,0.1,0,0.2,0,0.31c-0.11,0.09-0.2,0.21-0.3,0.31h0c-1.27-0.04-2.46-1.39-2.48-2.81c-0.01-0.1,0.01-0.19,0.07-0.28
		c0.09-0.12,0.19-0.24,0.22-0.4c0.79-2.24,1.8-4.38,3.09-6.37C72.15,134.71,72.74,135.86,73.98,136.18z"/>
	<path class="st63" d="M67.83,141.05c0.54,1.19,1.3,2.18,2.48,2.81c0.09,0.81-0.44,1.42-0.67,2.13c-0.55,1.66-1.19,3.29-1.79,4.93
		c-0.28,0.09-0.57,0.4-0.83,0.15c-0.75-0.72-1.73-1.25-1.97-2.38C65.77,146.07,66.5,143.45,67.83,141.05z"/>
	<path class="st64" d="M73.98,136.18c-0.27,0.09-0.57,0.4-0.82,0.16c-0.73-0.7-1.71-1.22-1.95-2.33c1.09-2.29,2.42-4.44,4.01-6.41
		c1.31,0.02,1.54,1.67,2.76,1.83c-0.02,0.1,0,0.22-0.05,0.3C76.53,131.82,75.24,133.99,73.98,136.18z"/>
	<path class="st65" d="M77.98,129.42c-0.58,0.4-1.07,0.21-1.36-0.34c-0.33-0.65-0.89-1.04-1.4-1.49l0-0.01
		c0.11-0.1,0.22-0.21,0.27-0.35l-0.02,0.02c0.25-0.12,0.17-0.43,0.36-0.58c1.2-2.02,2.79-3.74,4.31-5.52
		c1.09,0.47,1.77,1.31,2.14,2.43c-1.13,1.54-2.25,3.07-3.38,4.61c-0.1,0.1-0.2,0.2-0.3,0.31l0,0c-0.11,0.1-0.2,0.21-0.3,0.32
		c0,0.1-0.01,0.2-0.01,0.3C78.17,129.21,78.07,129.32,77.98,129.42L77.98,129.42z"/>
	<path class="st66" d="M92.37,109.97c0.36,1.05,0.92,1.88,2.17,1.93c-1.76,1.53-3.77,2.76-5.31,4.54c-0.21,0.24-0.48,0.37-0.8,0.38
		c-0.11,0.1-0.23,0.19-0.32,0.31l0,0c-0.11,0.09-0.22,0.2-0.31,0.31l0,0c-0.11,0.09-0.22,0.2-0.31,0.31h0
		c-1.25-0.1-1.86-0.81-1.9-2.21l0,0.02c0.16-0.05,0.26-0.16,0.35-0.3l-0.01,0.01c0.13-0.07,0.22-0.18,0.33-0.28l0.01-0.01
		c0.09-0.1,0.19-0.2,0.29-0.29C88.33,112.89,90.23,111.29,92.37,109.97z"/>
	<path class="st67" d="M85.6,115.54c0.35,0.98,1,1.7,1.9,2.21c-1.66,2.02-3.45,3.92-5.23,5.83c-0.71-0.81-1.42-1.62-2.14-2.43
		C81.81,119.14,83.62,117.26,85.6,115.54z"/>
	<path class="st68" d="M164.94,71.37c-0.07-0.05-0.1-0.12-0.08-0.21c-0.02-0.17-0.14-0.28-0.23-0.41c-0.07-0.05-0.1-0.12-0.08-0.21
		c-0.02-0.18-0.15-0.29-0.26-0.41c-2.09-3.26-4.84-5.74-8.49-7.15c-1.92-0.75-3.91-1.09-5.96-1.17c-0.38-0.93-1.26-1.9,0.19-2.7
		c0.15-0.02,0.31-0.02,0.46,0c0.28,0.05,0.55,0.16,0.83,0.25c0.13,0.03,0.26,0.08,0.39,0.13c0.19,0.06,0.39,0.12,0.59,0.17
		c0.48,0.09,0.94,0.26,1.39,0.45c3.67,1.6,7.02,3.63,9.59,6.79c1.05,1.29,1.78,2.7,2.33,4.24c-0.02,0.33,0.31,0.81-0.37,0.84
		c-0.07-0.05-0.1-0.12-0.07-0.2C165.14,71.6,165.03,71.49,164.94,71.37z"/>
	<path class="st69" d="M150.46,59.39c-0.54,0-1.08,0.06-0.8,0.82c0.2,0.53,0.17,1.06,0.18,1.6c-1.64,0.1-3.28,0.09-4.92,0
		c-0.43-1.29-0.86-2.58-0.92-3.96c0.13-0.16,0.31-0.2,0.51-0.19c0.13,0.02,0.26,0.04,0.38,0.07c0.27,0.06,0.55,0.05,0.83,0.05
		c1.32,0.06,2.56,0.48,3.81,0.82C149.94,58.71,150.5,58.74,150.46,59.39z"/>
	<path class="st9" d="M148.63,148.72c0.42-0.41,0.95-0.25,1.43-0.26c1.26-0.02,2.51,0,3.77,0c-0.64,0.45-1.36,0.19-2.05,0.22
		C150.74,148.74,149.69,148.72,148.63,148.72z"/>
	<path class="st60" d="M165.24,71.97c0.33-0.23,0.25-0.57,0.25-0.9c0.05-0.04,0.11-0.08,0.16-0.12c0.05,0.04,0.1,0.09,0.15,0.13
		c0.01,0.2,0.02,0.4,0.03,0.6c0.25,0.26,0,0.67,0.28,0.92c0.01,0.21,0.02,0.41,0.03,0.62c0.13,0.32,0.25,0.63-0.31,0.59
		C165.71,73.17,165.28,72.64,165.24,71.97z"/>
	<path class="st70" d="M165.83,84.58c-0.09-0.1-0.18-0.2-0.27-0.29c0.21-0.72,0.41-1.44,0.62-2.15c0.35,0.33,0.29,0.73,0.14,1.11
		c-0.14,0.34-0.19,0.67-0.18,1.03c0.08,0.07,0.12,0.14,0.1,0.22c-0.01,0.08-0.03,0.12-0.05,0.12
		C166.06,84.7,165.94,84.68,165.83,84.58z"/>
	<path class="st3" d="M165.85,73.81c0.26-0.11,0.27-0.36,0.31-0.59c0.44,0.7,0.39,1.4,0.04,2.12
		C166.09,74.82,165.8,74.35,165.85,73.81z"/>
	<path class="st11" d="M161.25,9.59c-0.44,0.01-0.91,0.19-1.26-0.25C160.42,9.38,160.89,9.18,161.25,9.59z"/>
	<path class="st52" d="M125.89,96.25c-0.38,0.46-0.88,0.26-1.35,0.25C124.94,96.13,125.43,96.29,125.89,96.25z"/>
	<path class="st6" d="M163.99,147.19c0.25-0.33,0.61-0.26,0.95-0.24C164.68,147.23,164.33,147.19,163.99,147.19z"/>
	<path class="st3" d="M166.74,76.59h-0.14h-0.14c-0.16-0.29-0.08-0.6-0.08-0.91C166.8,75.86,166.73,76.24,166.74,76.59z"/>
	<path class="st54" d="M62.91,157.64c0.01,0.34,0.08,0.71-0.27,0.95C62.62,158.24,62.61,157.9,62.91,157.64z"/>
	<path class="st54" d="M63.22,156.1c0.01,0.34,0.09,0.69-0.24,0.95C62.95,156.71,62.9,156.36,63.22,156.1z"/>
	<path class="st7" d="M140.95,149.64c0.24-0.32,0.58-0.26,0.91-0.26C141.61,149.65,141.29,149.67,140.95,149.64z"/>
	<path class="st61" d="M102.23,103.89c-0.12,0.28-0.35,0.33-0.62,0.31C101.74,103.96,101.97,103.91,102.23,103.89z"/>
	<path class="st37" d="M212.2,110.37c0-0.25,0.06-0.48,0.3-0.61C212.51,110.02,212.43,110.23,212.2,110.37z"/>
	<path class="st64" d="M75.83,126.66c-0.01,0.26-0.07,0.49-0.36,0.58C75.49,126.99,75.58,126.78,75.83,126.66z"/>
	<path class="st6" d="M165.53,146.85c0.17-0.21,0.4-0.23,0.64-0.21C166.01,146.86,165.78,146.88,165.53,146.85z"/>
	<path class="st7" d="M139.73,149.92c0.17-0.21,0.4-0.23,0.64-0.21C140.21,149.94,139.98,149.95,139.73,149.92z"/>
	<path class="st71" d="M148.3,157.34c-0.15,0.31-0.42,0.32-0.72,0.28C147.77,157.39,148.03,157.35,148.3,157.34z"/>
	<path class="st32" d="M167.17,10.81c-0.28,0.03-0.54,0.03-0.72-0.23C166.72,10.56,166.99,10.56,167.17,10.81z"/>
	<path class="st32" d="M167.67,11.17c0-0.09,0-0.18,0-0.27c0.28-0.03,0.54-0.03,0.73,0.23C168.15,11.13,167.91,11.15,167.67,11.17z"
		/>
	<path class="st13" d="M172.32,12.34c-0.27,0.05-0.51,0.01-0.66-0.26C171.92,12.06,172.17,12.08,172.32,12.34z"/>
	<path class="st34" d="M173.32,12.66c-0.29,0.03-0.56,0.02-0.74-0.27C172.87,12.37,173.13,12.41,173.32,12.66z"/>
	<path class="st34" d="M173.81,13.02c-0.1-0.11-0.21-0.21-0.31-0.32c0.27-0.02,0.51,0.05,0.68,0.28
		C174.06,12.99,173.93,13,173.81,13.02z"/>
	<path class="st4" d="M182.43,16.67c-0.27,0.02-0.5-0.04-0.62-0.31C182.06,16.37,182.29,16.42,182.43,16.67z"/>
	<path class="st4" d="M183.07,16.98c-0.27,0.02-0.52-0.02-0.64-0.31C182.68,16.67,182.91,16.74,183.07,16.98z"/>
	<path class="st7" d="M185.78,18.53c-0.26,0-0.49-0.06-0.6-0.33C185.44,18.21,185.67,18.27,185.78,18.53z"/>
	<path class="st7" d="M188.24,20.06c-0.26,0-0.49-0.06-0.6-0.33C187.9,19.75,188.13,19.8,188.24,20.06z"/>
	<path class="st15" d="M191.31,22.21c-0.27,0-0.5-0.06-0.58-0.37C190.98,21.88,191.2,21.96,191.31,22.21z"/>
	<path class="st27" d="M205.86,36.62c-0.32-0.05-0.4-0.28-0.42-0.56C205.7,36.16,205.78,36.39,205.86,36.62z"/>
	<path class="st25" d="M73.07,240.59c0.12-0.23,0.34-0.29,0.58-0.29C73.51,240.5,73.32,240.61,73.07,240.59z"/>
	<path class="st36" d="M61.71,245.14c0.15-0.2,0.36-0.23,0.59-0.22C62.15,245.1,61.95,245.16,61.71,245.14z"/>
	<path class="st67" d="M86.57,114.69c-0.1,0.1-0.2,0.2-0.29,0.29C86.31,114.81,86.41,114.72,86.57,114.69z"/>
	<path class="st15" d="M190.42,21.59c-0.11-0.08-0.22-0.16-0.33-0.24C190.27,21.34,190.38,21.42,190.42,21.59z"/>
	<path class="st67" d="M86.27,114.99c-0.11,0.09-0.22,0.19-0.33,0.28C85.99,115.11,86.11,115.03,86.27,114.99z"/>
	<path class="st20" d="M119.74,161.61c0.09-0.09,0.17-0.17,0.26-0.26C119.98,161.51,119.89,161.59,119.74,161.61z"/>
	<path class="st20" d="M119.43,161.92c0.09-0.09,0.17-0.17,0.26-0.26C119.67,161.81,119.59,161.9,119.43,161.92z"/>
	<path class="st67" d="M85.95,115.26c-0.06,0.17-0.17,0.27-0.35,0.3C85.64,115.38,85.76,115.28,85.95,115.26z"/>
	<path class="st20" d="M119.14,162.28c0.08-0.1,0.16-0.21,0.25-0.31C119.3,162.07,119.22,162.18,119.14,162.28z"/>
	<path class="st27" d="M205.43,36.04c-0.09-0.1-0.19-0.2-0.28-0.31C205.31,35.77,205.41,35.87,205.43,36.04z"/>
	<path class="st27" d="M205.14,35.73c-0.16-0.07-0.25-0.19-0.27-0.36C205.04,35.43,205.11,35.56,205.14,35.73z"/>
	<path class="st22" d="M199.71,29.56c-0.22-0.05-0.34-0.18-0.37-0.4C199.46,29.29,199.59,29.42,199.71,29.56z"/>
	<path class="st28" d="M196.95,26.79c-0.19-0.02-0.32-0.12-0.4-0.3C196.75,26.51,196.88,26.61,196.95,26.79z"/>
	<path class="st28" d="M196.57,26.5c-0.11-0.09-0.22-0.19-0.33-0.28C196.4,26.26,196.52,26.34,196.57,26.5z"/>
	<path class="st28" d="M196.22,26.21c-0.1-0.1-0.19-0.19-0.29-0.29C196.1,25.94,196.19,26.04,196.22,26.21z"/>
	<path class="st28" d="M195.91,25.9c-0.09-0.09-0.19-0.17-0.29-0.26C195.8,25.64,195.89,25.74,195.91,25.9z"/>
	<path class="st28" d="M195.45,25.56c-0.21-0.02-0.35-0.12-0.42-0.33C195.23,25.26,195.36,25.38,195.45,25.56z"/>
	<path class="st15" d="M191.32,22.53c0-0.1,0-0.21,0.01-0.31c0.18,0.02,0.31,0.1,0.38,0.27C191.58,22.5,191.45,22.52,191.32,22.53z"
		/>
	<path class="st15" d="M190.77,21.87c-0.18-0.03-0.3-0.12-0.35-0.3C190.6,21.59,190.72,21.69,190.77,21.87z"/>
	<path class="st15" d="M189.92,21.26c-0.21-0.02-0.35-0.12-0.42-0.32C189.7,20.96,189.83,21.08,189.92,21.26z"/>
	<path class="st15" d="M189.53,20.96c-0.17-0.02-0.28-0.12-0.35-0.27C189.35,20.71,189.48,20.78,189.53,20.96z"/>
	<path class="st7" d="M188.65,20.34c-0.18-0.02-0.32-0.1-0.4-0.27C188.43,20.09,188.57,20.17,188.65,20.34z"/>
	<path class="st7" d="M187.66,19.74c-0.11-0.08-0.22-0.16-0.33-0.24C187.51,19.5,187.61,19.58,187.66,19.74z"/>
	<path class="st7" d="M187.09,19.4c-0.19-0.01-0.3-0.11-0.36-0.28C186.91,19.13,187.04,19.22,187.09,19.4z"/>
	<path class="st7" d="M186.74,19.13c-0.11-0.08-0.22-0.16-0.33-0.24C186.58,18.88,186.69,18.97,186.74,19.13z"/>
	<path class="st7" d="M186.23,18.8c-0.19-0.01-0.34-0.09-0.43-0.27C185.98,18.56,186.13,18.63,186.23,18.8z"/>
	<path class="st64" d="M75.49,127.23c-0.09,0.12-0.18,0.23-0.27,0.35C75.24,127.41,75.32,127.28,75.49,127.23z"/>
	<path class="st72" d="M151.69,95.33c-0.1,0.1-0.2,0.2-0.31,0.3c0-0.08,0-0.17,0-0.25C151.49,95.36,151.59,95.34,151.69,95.33z"/>
	<path class="st63" d="M68.11,140.37c-0.07,0.13-0.15,0.27-0.22,0.4C67.88,140.59,67.96,140.46,68.11,140.37z"/>
	<path class="st61" d="M102.54,103.67c-0.11,0.08-0.22,0.16-0.32,0.24C102.26,103.74,102.37,103.66,102.54,103.67z"/>
	<path class="st60" d="M164.94,71.37c0.15,0.09,0.23,0.22,0.23,0.4C165.01,71.69,164.93,71.55,164.94,71.37z"/>
	<path class="st61" d="M103.16,103.34c-0.1,0.16-0.24,0.24-0.43,0.24C102.82,103.41,102.97,103.33,103.16,103.34z"/>
	<path class="st60" d="M164.63,70.75c0.15,0.09,0.23,0.23,0.23,0.41C164.7,71.07,164.62,70.94,164.63,70.75z"/>
	<path class="st15" d="M132.05,152.69c0.12-0.07,0.23-0.14,0.35-0.21C132.33,152.62,132.22,152.71,132.05,152.69z"/>
	<path class="st15" d="M131.43,153c0.12-0.07,0.23-0.14,0.35-0.21C131.71,152.93,131.6,153.02,131.43,153z"/>
	<path class="st15" d="M130.82,153.31c0.12-0.07,0.24-0.14,0.35-0.21C131.1,153.24,130.99,153.32,130.82,153.31z"/>
	<path class="st60" d="M164.3,70.14c0.16,0.09,0.25,0.22,0.26,0.41C164.39,70.46,164.31,70.32,164.3,70.14z"/>
	<path class="st42" d="M217.72,61.53c-0.05-0.06-0.1-0.12-0.13-0.2c-0.01-0.01,0.06-0.06,0.09-0.09
		C217.74,61.33,217.76,61.43,217.72,61.53z"/>
	<path class="st21" d="M125.6,156.47c0.06-0.16,0.17-0.26,0.34-0.3C125.89,156.34,125.79,156.45,125.6,156.47z"/>
	<path class="st21" d="M125.28,156.72c0.11-0.09,0.22-0.17,0.33-0.26C125.56,156.63,125.44,156.71,125.28,156.72z"/>
	<path class="st73" d="M154.46,96.57c0.09-0.03,0.18-0.04,0.27-0.03c0.19-0.16,0.47-0.1,0.65-0.29l0,0c0.16-0.18,0.45-0.12,0.61-0.3
		l0.01,0c0.16-0.18,0.44-0.12,0.61-0.3l0.01,0c1.19-0.53,1.29,0.44,1.47,1.14c0.7,2.67,1.25,5.38,1.86,8.08
		c1.18,5.19,2.34,10.38,3.46,15.59c0.14,0.63,0.44,1.29-0.05,1.91c-0.25,0.02-0.48,0.08-0.62,0.31c-1.35-0.19-2.64,0.45-3.98,0.3
		c0.33-0.51,1.01-0.09,1.48-0.64c-1.91-8.43-3.85-16.94-5.78-25.46c-0.11-0.06-0.14-0.13-0.11-0.19
		C154.39,96.6,154.42,96.57,154.46,96.57z"/>
	<path class="st72" d="M144.94,95.65c-0.02,0.59,0.53,0.84,0.75,1.27c0.25,0.49,0.76,0.84,0.78,1.46c-1.34,0.53-2.79,0.44-4.18,0.57
		c-1.56,0.16-3.15,0.04-4.72,0.04c-0.05-0.76-0.72-1.08-1.14-1.57c-0.42-0.49-1.03-0.85-1.12-1.77
		C138.56,95.65,141.75,95.65,144.94,95.65z"/>
	<path class="st52" d="M126.21,99.6c0.44-0.48,1.02-0.22,1.54-0.28C127.3,99.79,126.73,99.55,126.21,99.6z"/>
	<path class="st72" d="M147.1,98.37c0.34-0.41,0.81-0.24,1.23-0.27C147.99,98.5,147.52,98.35,147.1,98.37z"/>
	<path class="st1" d="M86.87,179.77c0,0.35,0.07,0.71-0.3,0.94C86.58,180.37,86.54,180.01,86.87,179.77z"/>
	<path class="st74" d="M154.46,96.57c0,0.09,0,0.19,0,0.29c-0.21,0-0.42,0-0.63-0.01C153.98,96.63,154.2,96.56,154.46,96.57z"/>
	<path class="st16" d="M97.94,149.07c0,0.27-0.06,0.5-0.34,0.61C97.63,149.43,97.69,149.2,97.94,149.07z"/>
	<path class="st54" d="M65.38,159.21c0-0.25,0.06-0.48,0.31-0.62C65.68,158.85,65.63,159.08,65.38,159.21z"/>
	<path class="st54" d="M65.08,160.75c0-0.25,0.06-0.48,0.31-0.62C65.38,160.39,65.32,160.61,65.08,160.75z"/>
	<path class="st5" d="M92.1,161.95c0,0.25-0.03,0.48-0.27,0.63C91.81,162.33,91.86,162.1,92.1,161.95z"/>
	<path class="st5" d="M91.79,162.88c0,0.25-0.03,0.48-0.27,0.63C91.5,163.25,91.56,163.02,91.79,162.88z"/>
	<path class="st5" d="M91.48,163.8c0.01,0.25-0.03,0.48-0.27,0.63C91.19,164.17,91.25,163.94,91.48,163.8z"/>
	<path class="st2" d="M81.34,196.66c0.01,0.26-0.04,0.5-0.3,0.64C81.04,197.04,81.11,196.81,81.34,196.66z"/>
	<path class="st10" d="M75.8,209.53c0.02,0.28-0.01,0.53-0.3,0.66C75.51,209.93,75.58,209.7,75.8,209.53z"/>
	<path class="st10" d="M75.51,210.19c0,0.26-0.05,0.5-0.32,0.62C75.21,210.56,75.27,210.33,75.51,210.19z"/>
	<path class="st18" d="M69.98,220.32c0,0.28-0.05,0.52-0.36,0.61C69.67,220.69,69.74,220.46,69.98,220.32z"/>
	<path class="st67" d="M88.12,117.14c0.11-0.1,0.21-0.21,0.32-0.31C88.33,116.93,88.22,117.03,88.12,117.14z"/>
	<path class="st67" d="M87.81,117.45c0.1-0.1,0.21-0.21,0.31-0.31C88.02,117.24,87.91,117.34,87.81,117.45z"/>
	<path class="st67" d="M87.5,117.75c0.1-0.1,0.21-0.21,0.31-0.31C87.71,117.55,87.61,117.65,87.5,117.75z"/>
	<path class="st64" d="M78.59,128.5c0.1-0.1,0.2-0.21,0.3-0.31C78.79,128.29,78.69,128.39,78.59,128.5z"/>
	<path class="st64" d="M78.29,128.81c0.1-0.11,0.2-0.21,0.3-0.32C78.49,128.6,78.39,128.71,78.29,128.81z"/>
	<path class="st64" d="M77.98,129.42c0.1-0.1,0.2-0.2,0.3-0.31C78.17,129.21,78.08,129.32,77.98,129.42z"/>
	<path class="st21" d="M109.61,134.96c-0.1,0.1-0.21,0.2-0.31,0.29C109.41,135.15,109.51,135.06,109.61,134.96z"/>
	<path class="st21" d="M109.3,135.25c-0.1,0.1-0.2,0.2-0.31,0.31C109.1,135.46,109.2,135.36,109.3,135.25z"/>
	<path class="st21" d="M109,135.56c-0.1,0.1-0.21,0.2-0.31,0.31C108.79,135.77,108.89,135.66,109,135.56z"/>
	<path class="st21" d="M108.69,135.87c-0.11,0.1-0.22,0.2-0.33,0.3C108.47,136.07,108.58,135.97,108.69,135.87z"/>
	<path class="st21" d="M107.15,137.12c-0.1,0.09-0.2,0.19-0.3,0.28C106.95,137.31,107.05,137.21,107.15,137.12z"/>
	<path class="st21" d="M106.85,137.4c-0.1,0.1-0.21,0.2-0.31,0.31C106.64,137.61,106.74,137.5,106.85,137.4z"/>
	<path class="st21" d="M106.54,137.71c-0.1,0.1-0.21,0.21-0.31,0.31C106.33,137.91,106.44,137.81,106.54,137.71z"/>
	<path class="st21" d="M106.23,138.02c-0.1,0.1-0.21,0.21-0.31,0.31C106.03,138.22,106.13,138.12,106.23,138.02z"/>
	<path class="st21" d="M105.92,138.32c-0.1,0.1-0.21,0.21-0.31,0.31C105.72,138.53,105.82,138.43,105.92,138.32z"/>
	<path class="st10" d="M76.11,208.91c-0.09,0.12-0.18,0.25-0.27,0.37C75.93,209.15,76.02,209.03,76.11,208.91z"/>
	<path class="st63" d="M70.61,143.24c0.1-0.1,0.2-0.21,0.3-0.31C70.81,143.04,70.7,143.14,70.61,143.24z"/>
	<path class="st63" d="M70.3,143.86c0.1-0.1,0.2-0.21,0.3-0.31C70.5,143.65,70.4,143.75,70.3,143.86z"/>
	<path class="st61" d="M104.09,106.05c0.11-0.09,0.21-0.19,0.32-0.28C104.3,105.86,104.19,105.96,104.09,106.05z"/>
	<path class="st18" d="M70.59,219.39c-0.09,0.11-0.18,0.22-0.27,0.33C70.34,219.55,70.43,219.44,70.59,219.39z"/>
	<path class="st18" d="M70.27,219.95c-0.03,0.18-0.12,0.31-0.3,0.38C70.08,220.2,70.17,220.08,70.27,219.95z"/>
	<path class="st61" d="M103.47,106.36c0.1-0.09,0.21-0.19,0.32-0.28C103.68,106.17,103.58,106.26,103.47,106.36z"/>
	<path class="st25" d="M64.46,228.62c-0.09,0.1-0.19,0.2-0.28,0.31C64.2,228.77,64.31,228.67,64.46,228.62z"/>
	<path class="st25" d="M64.13,229.16c-0.03,0.19-0.13,0.31-0.31,0.37C63.92,229.41,64.03,229.29,64.13,229.16z"/>
	<path class="st25" d="M63.83,229.52c-0.1,0.11-0.2,0.22-0.3,0.33C63.63,229.74,63.73,229.64,63.83,229.52z"/>
	<path class="st75" d="M144.93,52.29c0.17-1.51-0.41-2.92-0.71-4.35c-1.19-5.56-2.52-11.09-3.78-16.63
		c-1.57-6.93-3.12-13.86-4.67-20.8c-0.12-0.53-0.14-1.09-0.22-1.7c1.53-0.21,3-0.07,4.47-0.1c0.65,0.32,0.71,0.96,0.84,1.55
		c3,13.64,6.1,27.26,9.14,40.89c0.16,0.69,0.38,1.4-0.04,2.09c-1.38,0.67-2.63-0.32-3.96-0.31C145.6,52.8,145.19,52.68,144.93,52.29
		z"/>
	<path class="st30" d="M149.85,53.24c0.12-1.4-0.42-2.71-0.71-4.03c-1.2-5.6-2.55-11.17-3.82-16.75
		c-1.35-5.93-2.67-11.87-3.99-17.81c-0.44-1.97-0.87-3.95-1.3-5.93c1.33,0,2.66,0,3.99,0c0.97,2.38,1.33,4.91,1.88,7.39
		c2.59,11.61,5.22,23.21,7.8,34.82c0.27,1.22,0.84,2.44,0.33,3.74C152.31,55.14,151.06,54.24,149.85,53.24z"/>
	<path class="st23" d="M83.81,45.57c-0.1,0-0.2,0-0.3,0c-0.09-0.11-0.21-0.19-0.31-0.3c-1.54-0.75-2.88-1.82-4.3-2.77
		c0-0.1,0-0.2,0-0.31c0.01-3.19-0.82-6.26-1.33-9.38c-1.22-7.4-2.51-14.79-3.76-22.19c-0.11-0.64-0.33-1.31,0.18-1.9
		c1.12,0,2.25,0,3.37-0.01c0.52,0,0.87,0.12,0.93,0.74c0.28,2.84,0.99,5.58,2.02,8.25c0.22,0.56,0.49,1.13,0.44,1.76
		c0.74,5.53,1.87,10.99,2.75,16.49c0.41,2.58,0.9,5.14,1.25,7.73c0.1,0.75,0.57,1.75-0.62,2.2l0,0
		C84.03,45.76,83.91,45.68,83.81,45.57z"/>
	<path class="st76" d="M149.85,8.71c0.65,2.92,1.29,5.84,1.94,8.76c1.41,6.34,2.81,12.68,4.22,19.01c1.03,4.6,2.08,9.2,3.13,13.8
		c0.66,2.92,1.35,5.83,2,8.75c0.12,0.53,0.26,1.12-0.24,1.58l-0.14-0.03c-0.09-0.04-0.17-0.1-0.24-0.16c0,0-0.1-0.1-0.11-0.1
		c-0.07-0.06-0.14-0.13-0.21-0.2c0,0-0.1-0.11-0.11-0.1c-0.08-0.07-0.14-0.14-0.21-0.22c-0.07-0.08-0.13-0.16-0.2-0.25
		c-0.16-0.18-0.35-0.3-0.54-0.44c-0.79-0.91-2.37-1.17-2.34-2.78c-0.16-2.67-0.98-5.22-1.55-7.81c-2.69-12.23-5.47-24.44-8.19-36.66
		c-0.23-1.02-0.68-2.06-0.3-3.15C147.81,8.71,148.83,8.71,149.85,8.71z"/>
	<path class="st77" d="M73.98,8.71c0.36,2.25,0.7,4.49,1.07,6.74c0.56,3.34,1.12,6.68,1.7,10.02c0.44,2.59,0.91,5.18,1.36,7.77
		c0.46,2.64,0.93,5.28,1.37,7.92c0.08,0.46,0.07,0.95-0.59,1.02c-1.95-1.17-3.5-2.84-5.22-4.3c-0.03-0.08-0.07-0.16-0.1-0.24
		c0.02-0.09,0.03-0.17,0.05-0.26c-0.92-7.4-2.41-14.71-3.59-22.07c-0.27-1.66-0.57-3.32-0.82-4.99c-0.08-0.55-0.25-1.12,0.17-1.61
		C70.91,8.71,72.45,8.71,73.98,8.71z"/>
	<path class="st77" d="M146.78,8.71c0.4,1.67,0.81,3.34,1.19,5.02c0.65,2.92,1.28,5.85,1.92,8.77c1.43,6.44,2.85,12.87,4.29,19.3
		c0.94,4.21,1.91,8.41,2.86,12.61c0.13,0.59,0.27,1.19,0.36,1.79c0.05,0.35-0.27,0.37-0.51,0.42c-1.04,0.19-1.66-0.62-2.46-1.01
		c-0.12-0.08-0.23-0.17-0.33-0.27c-0.05-0.06-0.09-0.11-0.14-0.17c-0.07-0.12-0.12-0.26-0.12-0.41c0.15-1.04-0.15-2.04-0.37-3.02
		c-1.58-7.15-3.22-14.28-4.84-21.42c-1.51-6.64-3.02-13.29-4.51-19.93c-0.12-0.54-0.07-1.12-0.11-1.68
		C144.94,8.71,145.86,8.71,146.78,8.71z"/>
	<path class="st30" d="M69.38,8.71c0.83,4.59,1.47,9.2,2.37,13.78c0.65,3.33,1.09,6.7,1.63,10.05c0.15,0.9,0.35,1.79,0.49,2.69
		c0.12,0.79,0.37,1.6-0.19,2.34c-0.18-0.02-0.2-0.21-0.31-0.31l0,0c-0.1-0.11-0.2-0.21-0.31-0.31l0,0c-0.09-0.11-0.21-0.2-0.31-0.31
		c-1.55-1.04-2.43-2.68-3.68-3.99c-0.09-0.11-0.2-0.21-0.31-0.31c-0.1-0.2-0.21-0.41-0.31-0.61c-0.11-0.09-0.19-0.22-0.31-0.31
		c-0.21-0.31-0.41-0.61-0.62-0.92c0-0.1,0-0.21,0-0.31c0.27-0.71,0.09-1.41-0.04-2.11c-1-5.77-1.99-11.55-2.93-17.34
		c-0.11-0.69-0.36-1.41,0.2-2.04C66.31,8.71,67.84,8.71,69.38,8.71z"/>
	<path class="st3" d="M84.12,45.87c0.56-0.62,0.37-1.39,0.25-2.04c-0.98-5.08-1.64-10.21-2.64-15.29c-0.48-2.43-0.81-4.9-1.24-7.35
		c-0.1-0.57-0.27-1.23,0.26-1.74l0,0c0.08,0.12,0.2,0.21,0.3,0.31c0,0.1,0,0.2,0,0.31c0.19,0.16,0.12,0.45,0.31,0.62l0,0
		c0.18,0.16,0.12,0.45,0.31,0.61c0,0.1,0,0.2,0,0.31c0.11,0.1,0.19,0.22,0.3,0.31c0,0.1,0,0.2,0,0.3c0.11,0.1,0.19,0.22,0.3,0.31
		c0,0.1,0,0.2,0,0.3c0.11,0.1,0.19,0.22,0.3,0.31c1.15,2.53,2.68,4.82,4.3,7.07c0.68,5.05,1.68,10.06,2.47,15.1
		c0.11,0.71,0.29,1.41,0.29,2.12c0,0.8-0.27,1.32-1.21,0.9c-1.23-0.61-2.46-1.23-3.69-1.84C84.53,46.28,84.33,46.08,84.12,45.87z"/>
	<path class="st75" d="M64.77,8.71c0.01,1.74,0.49,3.41,0.75,5.12c0.41,2.76,0.93,5.5,1.4,8.25c0.36,2.1,0.7,4.2,1.1,6.3
		c0.11,0.56,0.16,1.12,0.1,1.67c-0.04,0.42-0.37,0.19-0.59,0.16c-2.97-3.86-5.19-8.12-6.83-12.7c-0.17-0.48-0.36-0.95-0.54-1.43
		c0.77-0.13,0.59-0.64,0.5-1.16c-0.31-1.78-0.53-3.58-0.9-5.35c-0.16-0.79,0.15-0.87,0.75-0.86C61.94,8.72,63.35,8.71,64.77,8.71z"
		/>
	<path class="st64" d="M88.42,48.33c0.61,0.03,1-0.16,0.88-0.87c-0.56-3.23-1.15-6.46-1.68-9.69c-0.31-1.89-0.63-3.78-1-5.67
		c-0.12-0.6-0.28-1.32,0.26-1.88c0.1,0.2,0.21,0.4,0.31,0.6c0.1,0.1,0.19,0.22,0.31,0.31l0,0c0.1,0.11,0.2,0.21,0.31,0.31l0,0
		c0.1,0.1,0.19,0.21,0.3,0.31c1.5,1.68,2.81,3.52,4.61,4.92c-0.23,1.23,0.09,2.43,0.28,3.63c0.47,2.81,0.91,5.62,1.42,8.42
		c0.14,0.75,0.29,1.53-0.48,2.08c-0.1,0-0.2,0-0.31,0c-0.09-0.12-0.22-0.19-0.31-0.3c-0.2,0-0.41,0-0.61,0
		c-0.09-0.11-0.21-0.19-0.31-0.3c-0.1,0-0.2,0-0.31,0c-0.09-0.12-0.21-0.19-0.31-0.3c-0.1,0-0.21,0-0.31,0
		C90.59,49.11,89.28,49.18,88.42,48.33z"/>
	<path class="st65" d="M93.95,50.78c0.24-0.68,0.18-1.34,0.04-2.06c-0.66-3.52-1.25-7.05-1.82-10.59c-0.09-0.53-0.39-1.27,0.55-1.48
		c1.64,1.33,3.28,2.66,4.92,3.99c0.31,3.2,0.98,6.34,1.47,9.51c0.11,0.7,0.29,1.41-0.09,2.09c-0.13,0.17-0.28,0.19-0.46,0.08
		c-0.1,0-0.21,0-0.31-0.01c-0.2-0.21-0.46-0.14-0.7-0.16c-0.19,0-0.38,0-0.53-0.15c-0.1,0-0.2,0-0.31,0
		C95.87,51.43,94.86,51.22,93.95,50.78z"/>
	<path class="st78" d="M116.68,55.7c-0.51,0-1.02,0-1.53,0c-0.17-0.22-0.4-0.31-0.67-0.3c-1.53,0.06-3.05-0.05-4.55-0.31
		c-0.13-0.25-0.36-0.3-0.61-0.31c-1.15-2.36-1.25-4.94-1.57-7.48c-0.04-0.35,0.05-0.84,0.64-0.81h0c0.16,0.19,0.45,0.12,0.63,0.3
		c0.1,0,0.2,0.01,0.3,0.02c0.16,0.19,0.45,0.11,0.61,0.3c2.17,0.68,4.35,1.31,6.46,2.14c-0.34,1.34,0.09,2.62,0.25,3.93
		C116.73,54.01,117.16,54.85,116.68,55.7z"/>
	<path class="st79" d="M108.38,46.49c-0.5,0.53-0.29,1.13-0.2,1.72c0.36,2.19,0.92,4.35,1.12,6.57c-0.41,0-0.82,0-1.23,0
		c-0.16-0.19-0.45-0.12-0.62-0.3c-1.07,0.08-2.08-0.28-3.1-0.49c-0.4-0.08-0.79-0.11-1.19-0.12c0-0.1,0-0.2,0-0.31
		c-0.4-2.5-0.93-4.99-1.26-7.5c-0.1-0.8-0.51-1.82,0.64-2.33C104.56,44.49,106.45,45.53,108.38,46.49z"/>
	<path class="st80" d="M102.55,43.72c-0.57,0.72-0.36,1.57-0.25,2.33c0.3,1.99,0.75,3.95,1.1,5.93c0.09,0.53,0.26,1.11-0.24,1.57
		c-1.48-0.07-2.84-0.72-4.3-0.92c-0.08-0.07-0.1-0.13-0.08-0.2c0.03-0.07,0.05-0.1,0.08-0.1c0.04-1.85-0.51-3.62-0.75-5.43
		c-0.19-1.46-0.56-2.89-0.75-4.35c-0.08-0.62-0.28-1.33,0.27-1.9l0,0c0.08,0.13,0.22,0.2,0.32,0.3
		C99.59,41.71,101.06,42.73,102.55,43.72z"/>
	<path class="st58" d="M116.68,55.7c-0.3-1.67-0.65-3.33-0.89-5c-0.07-0.52-0.33-1.27,0.59-1.45c0.1,0,0.2,0,0.3,0.01
		c0.25,0.28,0.67,0.03,0.93,0.29c0.1,0,0.2,0,0.3,0.01c0.25,0.28,0.68,0.03,0.94,0.29c2.08,0.29,4.14,0.66,6.16,1.22
		c-0.36,1.27,0,2.49,0.16,3.74c0.07,0.55,0.39,1.43-0.81,1.2c-1.84,0-3.68,0-5.53,0C118.09,56.08,117.38,55.9,116.68,55.7z"/>
	<path class="st81" d="M124.36,56.01c0.54-0.06,0.62-0.35,0.51-0.85c-0.23-1.02-0.55-2.03-0.51-3.09c0.02-0.48,0.03-0.92,0.65-1
		c1.59-0.01,3.14,0.29,4.69,0.52c0.72,0.11,1.43,0.08,2.14,0.12c0.5,0.03,1.03-0.14,1.45,0.29c-0.25,0.91-0.06,1.8,0.06,2.71
		c0.07,0.53,0.33,1.09-0.09,1.6c-0.2,0-0.41,0-0.61,0c-2.56,0-5.12,0-7.68,0C124.72,56.31,124.49,56.26,124.36,56.01z"/>
	<path class="st82" d="M144.93,52.29c0.33,0.05,0.7,0,0.94,0.32c0.22,1.29,0.4,2.59,0.59,3.89c0.12,0.81,0.07,1.58-1.09,1.49
		c-0.25-0.01-0.52,0.04-0.74-0.15v0c-0.25-0.28-0.67-0.03-0.92-0.3c-1.05,0.14-2.02-0.45-3.07-0.31c-0.25-0.29-0.67-0.04-0.92-0.3v0
		c-0.8-1.13-0.9-2.48-0.88-3.76c0.03-1.61,1.28-0.9,2.13-0.86C142.29,52.31,143.61,52.3,144.93,52.29z"/>
	<path class="st16" d="M140.96,52.31c-0.1,0-0.2,0-0.31,0.01c-1.57,0.04-1.48,0.03-1.32,1.6c0.1,1.01,0.52,1.98,0.38,3.01
		c-0.31,0-0.62,0-0.92,0c-0.35-0.34-0.88,0.04-1.23-0.3c-0.95,0-1.9-0.02-2.86,0c-0.51,0.01-1-0.05-1.44-0.31
		c-0.2-0.99-0.44-1.98-0.58-2.98c-0.07-0.51-0.26-1.19,0.6-1.32c2.13,0,4.26,0.01,6.39,0.02C140.12,52.02,140.6,51.92,140.96,52.31z
		"/>
	<path class="st78" d="M118.84,49.86c-0.34,0-0.71,0.06-0.94-0.29C118.25,49.56,118.61,49.52,118.84,49.86z"/>
	<path class="st78" d="M117.61,49.55c-0.34,0-0.7,0.06-0.93-0.29C117.02,49.25,117.38,49.21,117.61,49.55z"/>
	<path class="st75" d="M59.24,12.7c-0.36-0.22-0.3-0.59-0.3-0.92C59.29,12,59.23,12.36,59.24,12.7z"/>
	<path class="st75" d="M59.85,14.85c-0.36-0.22-0.3-0.59-0.31-0.92C59.91,14.15,59.85,14.51,59.85,14.85z"/>
	<path class="st75" d="M58.62,9.94c-0.25-0.13-0.3-0.36-0.3-0.62C58.57,9.46,58.62,9.68,58.62,9.94z"/>
	<path class="st75" d="M58.93,11.47c-0.25-0.13-0.3-0.36-0.3-0.62C58.88,10.99,58.93,11.22,58.93,11.47z"/>
	<path class="st75" d="M59.54,13.63c-0.25-0.13-0.3-0.36-0.3-0.62C59.49,13.14,59.54,13.37,59.54,13.63z"/>
	<path class="st75" d="M60.16,15.77c-0.25-0.13-0.3-0.36-0.3-0.62C60.1,15.29,60.16,15.52,60.16,15.77z"/>
	<path class="st23" d="M81.35,20.69c-0.25-0.13-0.3-0.36-0.31-0.62C81.29,20.2,81.35,20.43,81.35,20.69z"/>
	<path class="st23" d="M81.66,21.3c-0.25-0.13-0.3-0.36-0.31-0.61C81.6,20.82,81.66,21.05,81.66,21.3z"/>
	<path class="st79" d="M109.01,46.79c-0.26,0-0.49-0.05-0.63-0.3C108.64,46.49,108.87,46.55,109.01,46.79z"/>
	<path class="st79" d="M109.92,47.1c-0.25,0-0.47-0.06-0.61-0.3C109.56,46.8,109.79,46.86,109.92,47.1z"/>
	<path class="st65" d="M97.96,40.95c-0.11-0.1-0.22-0.2-0.32-0.3C97.74,40.75,97.85,40.85,97.96,40.95z"/>
	<path class="st3" d="M88.11,31.74c-0.1-0.1-0.2-0.2-0.3-0.31C87.91,31.54,88.01,31.64,88.11,31.74z"/>
	<path class="st3" d="M87.8,31.44c-0.1-0.1-0.2-0.21-0.31-0.31C87.6,31.23,87.7,31.33,87.8,31.44z"/>
	<path class="st3" d="M87.5,31.13c-0.1-0.1-0.2-0.21-0.31-0.31C87.3,30.92,87.4,31.02,87.5,31.13z"/>
	<path class="st23" d="M82.58,23.14c-0.1-0.1-0.2-0.21-0.3-0.31C82.38,22.94,82.48,23.04,82.58,23.14z"/>
	<path class="st23" d="M82.27,22.53c-0.1-0.1-0.2-0.21-0.3-0.31C82.07,22.32,82.17,22.43,82.27,22.53z"/>
	<path class="st23" d="M81.96,21.91c-0.1-0.1-0.2-0.21-0.3-0.31C81.76,21.71,81.86,21.81,81.96,21.91z"/>
	<path class="st23" d="M81.04,19.76c-0.1-0.1-0.2-0.21-0.3-0.31C80.84,19.56,80.94,19.66,81.04,19.76z"/>
	<path class="st12" d="M198.38,106.69c-0.1,0.1-0.2,0.2-0.31,0.31C198.17,106.89,198.28,106.79,198.38,106.69z"/>
	<path class="st12" d="M198.69,106.38c-0.1,0.1-0.2,0.2-0.31,0.31C198.48,106.58,198.58,106.48,198.69,106.38z"/>
	<path class="st29" d="M182.41,91.33c0.36,0.22,0.3,0.58,0.31,0.92C182.35,92.03,182.42,91.67,182.41,91.33z"/>
	<path class="st29" d="M182.1,90.1c0.36,0.22,0.3,0.58,0.31,0.92C182.05,90.8,182.11,90.44,182.1,90.1z"/>
	<path class="st29" d="M182.72,92.87c0.25,0.13,0.3,0.36,0.31,0.61C182.78,93.35,182.72,93.12,182.72,92.87z"/>
	<path class="st29" d="M183.02,94.4c0.25,0.13,0.3,0.36,0.31,0.61C183.08,94.88,183.03,94.66,183.02,94.4z"/>
	<path class="st29" d="M183.33,95.63c0.25,0.13,0.3,0.36,0.31,0.61C183.39,96.11,183.34,95.88,183.33,95.63z"/>
	<path class="st29" d="M183.64,97.17c0.25,0.13,0.3,0.36,0.31,0.61C183.7,97.65,183.64,97.42,183.64,97.17z"/>
	<path class="st29" d="M183.94,98.4c0.25,0.13,0.3,0.36,0.31,0.61C184.01,98.88,183.95,98.65,183.94,98.4z"/>
	<path class="st29" d="M186.71,110.68c0.25,0.13,0.3,0.36,0.31,0.61C186.77,111.16,186.72,110.94,186.71,110.68z"/>
	<path class="st29" d="M187.02,112.22c0.25,0.13,0.3,0.36,0.31,0.61C187.08,112.7,187.02,112.47,187.02,112.22z"/>
	<path class="st29" d="M186.1,108.23c0.1,0.1,0.2,0.2,0.31,0.31C186.3,108.43,186.2,108.33,186.1,108.23z"/>
	<path class="st17" d="M182.72,117.13c-0.1,0.1-0.21,0.2-0.31,0.31C182.51,117.34,182.61,117.23,182.72,117.13z"/>
	<path class="st17" d="M182.1,117.44c-0.1,0.1-0.21,0.2-0.31,0.31C181.9,117.64,182,117.54,182.1,117.44z"/>
	<path class="st17" d="M181.18,117.75c-0.1,0.1-0.21,0.2-0.31,0.31C180.98,117.95,181.08,117.85,181.18,117.75z"/>
	<path class="st83" d="M161.83,91.95c0.51-0.62,1.03-1.23,1.54-1.84c0.09-0.11,0.21-0.2,0.29-0.31l0,0c0.12-0.09,0.22-0.21,0.3-0.34
		c0-0.09,0.01-0.18,0.03-0.27c1.32-0.27,1.18,0.85,1.36,1.53c0.95,3.71,1.73,7.45,2.55,11.19c1.24,5.68,2.59,11.33,3.81,17.02
		c0.13,0.63,0.44,1.28-0.05,1.9c-0.89,0.36-1.83,0.47-2.76,0.61c-0.48-0.38-0.58-0.94-0.71-1.49
		C166.06,110.61,164.08,101.25,161.83,91.95z"/>
	<path class="st30" d="M161.83,91.95c1.03,0.69,0.93,1.89,1.16,2.88c0.94,3.9,1.77,7.82,2.62,11.74c1.07,4.96,2.35,9.87,3.28,14.86
		c-0.97,0.46-2.06,0.34-3.07,0.61c-1.67-6.96-3.13-13.97-4.73-20.95c-0.54-2.34-0.98-4.71-1.73-7c0.72-0.61,1.44-1.23,2.16-1.84
		C161.62,92.14,161.74,92.06,161.83,91.95L161.83,91.95z"/>
	<path class="st74" d="M159.36,94.09c0.79,0.08,0.75,0.79,0.87,1.27c0.67,2.71,1.28,5.43,1.88,8.15c0.77,3.46,1.5,6.94,2.27,10.4
		c0.52,2.33,1.06,4.65,1.63,6.96c0.11,0.45-0.02,0.79-0.2,1.16c-0.83,0.03-1.61,0.48-2.46,0.31c-0.51-2.33-1.01-4.66-1.53-6.98
		c-1.33-5.94-2.66-11.88-3.99-17.82c-0.1-0.45-0.24-0.88-0.31-1.33c-0.09-0.56-0.5-0.57-0.91-0.57
		C157.44,94.95,158.45,94.6,159.36,94.09z"/>
	<path class="st76" d="M166.13,84.57c0-0.1,0-0.2,0.01-0.3c1.03,0.69,0.91,1.89,1.16,2.87c0.74,2.95,1.33,5.93,1.98,8.9
		c1.41,6.38,2.83,12.76,4.26,19.14c0.24,1.09,0.48,2.18,0.78,3.25c0.17,0.63,0.12,1.2-0.19,1.77c-0.3,0.13-0.57,0.32-0.92,0.3
		c-0.57-0.44-0.73-1.09-0.87-1.74c-2.36-10.58-4.71-21.17-7.13-31.74c0.03-0.33-0.01-0.69,0.32-0.91c0.3-0.24,0.04-0.68,0.31-0.93
		c0-0.1,0.01-0.2,0.02-0.3C165.92,84.77,166.02,84.66,166.13,84.57z"/>
	<path class="st84" d="M165.19,87.02c0.5,0.21,0.56,0.64,0.67,1.11c1.19,4.99,2.31,9.99,3.37,15.01c0.56,2.63,1.22,5.24,1.81,7.87
		c0.72,3.17,1.43,6.33,2.15,9.5c-0.2,0-0.41,0.01-0.61,0.01c-0.16,0.19-0.46,0.1-0.62,0.3c-0.1,0-0.21,0-0.31,0
		c-0.55-2.52-1.09-5.05-1.65-7.57c-1.4-6.33-2.8-12.65-4.21-18.98c-0.31-1.38-0.77-2.73-0.96-4.15c-0.06-0.44-0.26-0.9-0.85-0.94
		C164.36,88.44,164.65,87.66,165.19,87.02z"/>
	<path class="st76" d="M171.97,120.81c0.13-0.25,0.36-0.29,0.62-0.3C172.45,120.76,172.22,120.81,171.97,120.81z"/>
	<path class="st4" d="M201.45,103c-0.1,0.1-0.2,0.21-0.31,0.31C201.25,103.21,201.35,103.11,201.45,103z"/>
	<path class="st4" d="M201.76,102.7c-0.1,0.1-0.2,0.2-0.3,0.31C201.55,102.9,201.66,102.8,201.76,102.7z"/>
	<path class="st4" d="M202.06,102.39c-0.1,0.1-0.2,0.2-0.3,0.3C201.86,102.59,201.96,102.49,202.06,102.39z"/>
	<path class="st4" d="M202.37,101.77c-0.1,0.1-0.2,0.21-0.3,0.31C202.17,101.98,202.27,101.88,202.37,101.77z"/>
	<path class="st4" d="M202.67,101.47c-0.1,0.1-0.2,0.2-0.3,0.31C202.47,101.67,202.57,101.57,202.67,101.47z"/>
	<path class="st4" d="M202.99,100.85c-0.1,0.1-0.2,0.21-0.3,0.31C202.79,101.06,202.88,100.96,202.99,100.85z"/>
	<path class="st4" d="M203.29,100.55c-0.1,0.1-0.2,0.2-0.3,0.31C203.09,100.75,203.19,100.65,203.29,100.55z"/>
	<path class="st4" d="M203.6,99.93c-0.1,0.1-0.2,0.21-0.3,0.31c0-0.1,0-0.21,0-0.31C203.4,99.93,203.5,99.93,203.6,99.93z"/>
	<path class="st60" d="M154.49,55.38c0.89,0.24,1.55,0.93,2.41,1.25c0.71,1.05,1.88,1.59,2.76,2.46c0.2,0.14,0.13,0.45,0.34,0.58
		l0.02,0.02c0.08,0.11,0.17,0.21,0.28,0.28l0.02,0.03c0.08,0.11,0.17,0.21,0.28,0.29l0.01,0.01c0.09,0.11,0.19,0.22,0.29,0.32l0,0
		c1.03,1.74,2.06,3.48,3.08,5.22c0.17,0.17,0.11,0.46,0.3,0.62c0.01,0.1,0.02,0.21,0.03,0.31c0.09,0.11,0.18,0.22,0.27,0.32
		c0,0.1,0.01,0.19,0.02,0.29c0.17,0.18,0.11,0.46,0.28,0.63c0,0.1,0.02,0.2,0.04,0.3c0.15,0.18,0.09,0.45,0.27,0.62
		c0,0.1,0.01,0.2,0.03,0.29c0.25,0.26,0,0.67,0.29,0.92c0.01,0.1,0.02,0.21,0.03,0.31c0.13,0.2,0.15,0.4-0.02,0.59l-0.03,0.03
		c-0.17-0.25-0.38-0.48-0.5-0.75c-1.66-3.55-4.41-6.02-7.71-7.99c-1.22-0.73-2.49-1.36-3.75-2.01c0.06-1.32-0.4-2.59-0.37-3.9
		c0.01-0.56-0.28-1.57,0.97-1.32l0.01,0C154.26,55.2,154.37,55.3,154.49,55.38z"/>
	<path class="st3" d="M165.51,70.14c-0.33-0.23-0.3-0.58-0.29-0.92C165.57,69.45,165.51,69.81,165.51,70.14z"/>
	<path class="st3" d="M166.13,72.6c-0.33-0.23-0.29-0.58-0.28-0.92C166.19,71.91,166.12,72.26,166.13,72.6z"/>
	<path class="st3" d="M164.28,66.46c-0.23-0.14-0.3-0.37-0.3-0.62C164.23,65.97,164.28,66.2,164.28,66.46z"/>
	<path class="st3" d="M164.89,68.01c-0.24-0.15-0.29-0.37-0.28-0.63C164.85,67.52,164.9,67.75,164.89,68.01z"/>
	<path class="st3" d="M165.2,68.93c-0.24-0.15-0.28-0.37-0.27-0.62C165.17,68.45,165.2,68.68,165.2,68.93z"/>
	<path class="st3" d="M165.53,71.04c0-0.19,0.01-0.39,0.02-0.59c0.23,0.15,0.27,0.38,0.26,0.62
		C165.72,71.07,165.63,71.05,165.53,71.04z"/>
	<path class="st3" d="M164.59,67.09c-0.09-0.11-0.18-0.22-0.27-0.32C164.41,66.87,164.5,66.98,164.59,67.09z"/>
	<path class="st37" d="M209.43,87.32c0.01,0.26-0.04,0.49-0.28,0.63c-0.09-0.06-0.13-0.13-0.1-0.2c0.03-0.07,0.05-0.11,0.08-0.11
		C209.22,87.54,209.33,87.43,209.43,87.32z"/>
	<path class="st33" d="M209.12,87.65c0.01,0.1,0.01,0.21,0.02,0.31c-0.01,0.1-0.02,0.2-0.02,0.3c-0.09,0.14-0.19,0.14-0.3,0.02
		c0-0.11,0-0.21-0.01-0.32C208.92,87.85,209.02,87.75,209.12,87.65z"/>
	<path class="st22" d="M210.96,79.67c0,0.34,0.07,0.69-0.28,0.92C210.68,80.25,210.61,79.9,210.96,79.67z"/>
	<path class="st37" d="M208.83,88.27c0.1-0.01,0.2-0.01,0.3-0.02c0,0.25-0.05,0.48-0.29,0.62c-0.09-0.06-0.13-0.13-0.1-0.2
		c0.03-0.07,0.06-0.11,0.08-0.11C208.83,88.47,208.83,88.37,208.83,88.27z"/>
	<path class="st33" d="M208.82,88.57c0,0.1,0.01,0.21,0.02,0.31c-0.01,0.1-0.02,0.2-0.02,0.3c-0.09,0.14-0.19,0.15-0.3,0.02
		C208.52,88.94,208.57,88.71,208.82,88.57z"/>
	<path class="st37" d="M208.52,89.19c0.1-0.01,0.2-0.01,0.3-0.02c0,0.25-0.05,0.48-0.29,0.62c-0.09-0.06-0.13-0.13-0.1-0.2
		c0.03-0.07,0.06-0.11,0.08-0.11C208.52,89.39,208.52,89.29,208.52,89.19z"/>
	<path class="st33" d="M208.51,89.49c0,0.1,0.01,0.21,0.02,0.31c-0.01,0.1-0.02,0.2-0.02,0.3c-0.1,0-0.2,0.01-0.3,0.01
		C208.21,89.86,208.26,89.63,208.51,89.49z"/>
	<path class="st33" d="M208.2,90.41c0,0.25-0.06,0.48-0.3,0.62C207.91,90.78,207.96,90.55,208.2,90.41z"/>
	<path class="st33" d="M207.89,91.33c0,0.25-0.05,0.48-0.3,0.61C207.6,91.69,207.65,91.47,207.89,91.33z"/>
	<path class="st33" d="M207.59,91.94c0,0.25-0.06,0.48-0.3,0.62C207.29,92.31,207.34,92.08,207.59,91.94z"/>
	<path class="st35" d="M206.05,95.63c-0.1,0.1-0.2,0.21-0.3,0.31C205.85,95.84,205.95,95.74,206.05,95.63z"/>
	<path class="st35" d="M206.36,95.02c-0.1,0.1-0.2,0.21-0.3,0.31C206.16,95.23,206.26,95.12,206.36,95.02z"/>
	<path class="st34" d="M185.48,71.98c0.25,0.13,0.3,0.36,0.31,0.61C185.54,72.46,185.49,72.23,185.48,71.98z"/>
	<path class="st34" d="M185.79,73.52c0.25,0.13,0.3,0.36,0.31,0.61C185.85,74,185.79,73.77,185.79,73.52z"/>
	<path class="st34" d="M186.1,74.75c0.25,0.13,0.3,0.36,0.31,0.61C186.16,75.23,186.1,75,186.1,74.75z"/>
	<path class="st34" d="M186.4,75.97c0.25,0.13,0.3,0.36,0.31,0.61C186.46,76.46,186.41,76.23,186.4,75.97z"/>
	<path class="st34" d="M186.71,77.51c0.25,0.13,0.3,0.36,0.31,0.61C186.77,77.99,186.72,77.76,186.71,77.51z"/>
	<path class="st34" d="M187.02,78.74c0.25,0.13,0.3,0.36,0.31,0.61C187.08,79.22,187.02,78.99,187.02,78.74z"/>
	<path class="st34" d="M187.32,80.27c0.25,0.13,0.3,0.36,0.31,0.61C187.38,80.76,187.33,80.53,187.32,80.27z"/>
	<path class="st34" d="M187.63,81.5c0.25,0.13,0.3,0.36,0.31,0.61C187.69,81.98,187.64,81.75,187.63,81.5z"/>
	<path class="st34" d="M187.94,83.04c0.25,0.13,0.3,0.36,0.31,0.61C188,83.52,187.94,83.29,187.94,83.04z"/>
	<path class="st34" d="M188.25,84.27c0.25,0.13,0.3,0.36,0.31,0.61C188.3,84.75,188.25,84.52,188.25,84.27z"/>
	<path class="st34" d="M188.55,85.8c0.25,0.13,0.3,0.36,0.31,0.61C188.61,86.28,188.56,86.05,188.55,85.8z"/>
	<path class="st34" d="M189.17,88.57c0.25,0.13,0.3,0.36,0.31,0.61C189.23,89.05,189.17,88.82,189.17,88.57z"/>
	<path class="st34" d="M189.47,89.79c0.25,0.13,0.3,0.36,0.31,0.61C189.53,90.28,189.48,90.05,189.47,89.79z"/>
	<path class="st34" d="M189.78,91.33c0.25,0.13,0.3,0.36,0.31,0.61C189.84,91.81,189.79,91.58,189.78,91.33z"/>
	<path class="st34" d="M190.09,92.56c0.25,0.13,0.3,0.36,0.31,0.61C190.15,93.04,190.09,92.81,190.09,92.56z"/>
	<path class="st34" d="M188.86,87.03c0.25,0.13,0.3,0.36,0.31,0.61C188.92,87.51,188.87,87.28,188.86,87.03z"/>
	<path class="st34" d="M184.56,67.99c0.25,0.13,0.3,0.36,0.31,0.61C184.62,68.47,184.57,68.24,184.56,67.99z"/>
	<path class="st34" d="M184.87,69.22c0.25,0.13,0.3,0.36,0.31,0.61C184.93,69.7,184.87,69.47,184.87,69.22z"/>
	<path class="st34" d="M185.17,70.75c0.25,0.13,0.3,0.36,0.31,0.61C185.23,71.23,185.18,71.01,185.17,70.75z"/>
	<path class="st35" d="M204.83,97.78c0.01-0.25,0.06-0.48,0.31-0.61C205.13,97.42,205.08,97.65,204.83,97.78z"/>
	<path class="st35" d="M205.14,97.17c0.1-0.1,0.2-0.21,0.3-0.31C205.34,96.97,205.24,97.07,205.14,97.17z"/>
	<path class="st35" d="M205.45,96.56c0.1-0.1,0.2-0.21,0.3-0.31C205.65,96.35,205.55,96.46,205.45,96.56z"/>
	<path class="st77" d="M73.37,37.27c0.1,0.1,0.21,0.2,0.31,0.31l0,0c-0.1,0.09-0.2,0.09-0.31,0l0,0
		C73.37,37.48,73.37,37.38,73.37,37.27z"/>
	<path class="st77" d="M73.06,36.97c0.1,0.1,0.21,0.21,0.31,0.31C73.27,37.17,73.16,37.07,73.06,36.97z"/>
	<path class="st77" d="M72.75,36.66c0.1,0.1,0.21,0.21,0.31,0.31C72.96,36.86,72.85,36.76,72.75,36.66z"/>
	<path class="st3" d="M68.76,32.36c0.1,0.1,0.2,0.21,0.31,0.31C68.97,32.56,68.86,32.46,68.76,32.36z"/>
	<path class="st3" d="M68.15,31.44c0.1,0.1,0.2,0.21,0.31,0.31C68.35,31.64,68.25,31.54,68.15,31.44z"/>
	<path class="st40" d="M73.37,37.58c0.1,0,0.2,0,0.31,0c0,0.1,0,0.2,0,0.31C73.57,37.79,73.47,37.68,73.37,37.58z"/>
	<path class="st3" d="M83.81,45.57c0.1,0.1,0.21,0.2,0.31,0.3C84.02,45.77,83.91,45.67,83.81,45.57z"/>
	<path class="st3" d="M83.2,45.26c0.1,0.1,0.21,0.2,0.31,0.3C83.4,45.46,83.3,45.36,83.2,45.26z"/>
	<path class="st65" d="M93.33,50.48c0.1,0.1,0.21,0.2,0.31,0.3C93.54,50.68,93.44,50.58,93.33,50.48z"/>
	<path class="st34" d="M92.41,50.18c0.1,0.1,0.21,0.2,0.31,0.3C92.62,50.38,92.51,50.28,92.41,50.18z"/>
	<path class="st34" d="M91.8,49.87c0.1,0.1,0.21,0.2,0.31,0.3C92,50.07,91.9,49.97,91.8,49.87z"/>
	<path class="st48" d="M97.02,52.02c0.2,0,0.41,0,0.61,0c0.1,0.07,0.13,0.13,0.1,0.2c-0.03,0.07-0.07,0.1-0.1,0.1
		C97.38,52.32,97.15,52.26,97.02,52.02z"/>
	<path class="st80" d="M97.64,52.32c0-0.1,0-0.2,0-0.31c0.25,0,0.48,0.06,0.61,0.3C98.04,52.32,97.84,52.32,97.64,52.32z"/>
	<path class="st48" d="M98.86,52.32c0,0.1,0,0.2,0,0.31c-0.1-0.1-0.21-0.2-0.31-0.3C98.66,52.32,98.76,52.32,98.86,52.32z"/>
	<path class="st78" d="M107.46,54.47c0.25,0,0.48,0.06,0.62,0.3C107.83,54.77,107.6,54.72,107.46,54.47z"/>
	<path class="st19" d="M165.82,85.18c-0.01,0.34,0.06,0.71-0.31,0.93C165.54,85.77,165.47,85.41,165.82,85.18z"/>
	<path class="st74" d="M156.61,95.64c-0.13,0.24-0.36,0.3-0.61,0.3C156.14,95.71,156.36,95.64,156.61,95.64z"/>
	<path class="st74" d="M155.99,95.94c-0.13,0.24-0.36,0.3-0.61,0.3C155.52,96.01,155.74,95.94,155.99,95.94z"/>
	<path class="st74" d="M155.38,96.25c-0.15,0.25-0.38,0.3-0.65,0.29C154.89,96.3,155.12,96.25,155.38,96.25z"/>
	<path class="st83" d="M161.83,91.95c-0.1,0.1-0.2,0.2-0.31,0.3C161.63,92.15,161.73,92.05,161.83,91.95z"/>
	<path class="st84" d="M163.67,89.79c-0.1,0.1-0.2,0.21-0.29,0.31C163.47,90,163.57,89.89,163.67,89.79z"/>
	<path class="st84" d="M163.97,89.45c-0.1,0.11-0.2,0.23-0.3,0.34C163.76,89.68,163.87,89.56,163.97,89.45z"/>
	<path class="st19" d="M166.13,84.57c-0.1,0.1-0.19,0.21-0.29,0.31c-0.01-0.1-0.01-0.2,0-0.3
		C165.93,84.57,166.03,84.57,166.13,84.57z"/>
	<path class="st82" d="M137.56,56.62c0.42,0.04,0.9-0.14,1.23,0.3c-0.41,0-0.82,0-1.22,0C137.56,56.83,137.56,56.72,137.56,56.62z"
		/>
	<path class="st85" d="M143.71,57.54c0.34,0.01,0.7-0.05,0.92,0.3c-0.21,0-0.41,0-0.62,0C143.91,57.75,143.81,57.65,143.71,57.54z"
		/>
	<path class="st60" d="M139.71,56.94c0.34,0,0.7-0.06,0.92,0.3C140.3,57.23,139.94,57.29,139.71,56.94z"/>
	<path class="st85" d="M154.14,55.09c-0.56,0.06-0.59,0.45-0.6,0.89c-0.03,1.18,0.29,2.31,0.5,3.46c0.09,0.5,0.06,0.8-0.5,0.87
		c-0.53-0.03-0.98-0.4-1.53-0.31c-0.09-0.11-0.21-0.19-0.31-0.3c-0.1,0-0.21,0-0.31,0c-0.16-0.2-0.45-0.12-0.61-0.3
		c-0.1,0-0.21,0-0.31,0c-1.68-0.67-3.41-1.12-5.22-1.23c-0.1-0.07-0.14-0.13-0.1-0.2c0.03-0.07,0.07-0.1,0.1-0.1
		c0.9,0.06,1.09-0.5,0.86-1.16c-0.29-0.82-0.18-1.7-0.47-2.52c-0.17-0.49-0.27-1.1,0.24-1.55c1.38-0.15,2.64,0.49,3.98,0.62
		c1.33,0.51,2.66,1.02,3.99,1.53C153.94,54.88,154.04,54.99,154.14,55.09z"/>
	<path class="st69" d="M150.77,59.39c0.25,0,0.48,0.06,0.61,0.3C151.13,59.69,150.91,59.64,150.77,59.39z"/>
	<path class="st69" d="M151.69,59.7c0.1,0.1,0.21,0.2,0.31,0.3C151.9,59.9,151.8,59.8,151.69,59.7z"/>
	<path class="st25" d="M145.24,57.85c0,0.1,0,0.2,0,0.31c-0.25,0-0.48-0.06-0.62-0.3C144.83,57.85,145.04,57.85,145.24,57.85z"/>
	<path class="st19" d="M160,59.67c-0.25-0.11-0.31-0.34-0.34-0.58C159.91,59.19,159.98,59.42,160,59.67z"/>
	<path class="st19" d="M160.9,60.62c-0.1-0.11-0.19-0.21-0.29-0.32C160.71,60.41,160.81,60.52,160.9,60.62z"/>
	<path class="st19" d="M160.6,60.29c-0.09-0.1-0.19-0.2-0.28-0.29C160.42,60.1,160.51,60.19,160.6,60.29z"/>
	<path class="st19" d="M160.3,59.97c-0.09-0.09-0.19-0.19-0.28-0.28C160.11,59.78,160.2,59.88,160.3,59.97z"/>
	<path class="st85" d="M154.49,55.38c-0.11-0.09-0.22-0.19-0.34-0.28C154.26,55.19,154.37,55.29,154.49,55.38z"/>
</g>
</svg>
