<?xml version="1.0" encoding="UTF-8"?>
<svg id="svg" version="1.1" viewBox="0 0 400 400" xmlns="http://www.w3.org/2000/svg"><g id="svgg" fill-rule="evenodd"><path d="m192.97 62.129c-26.656 3.317-47.983 19.882-57.565 44.71-3.853 9.982-4.545 15.747-4.545 37.851v17.306l-6.738 0.232c-14.347 0.494-22.587 5.938-26.729 17.659l-1.103 3.121v29.492c0 32.127 0.031 32.689 2.391 43.3 7.874 35.404 34.139 64.851 68.117 76.367 64.962 22.019 132.51-23.702 137.13-92.819 0.687-10.284 0.297-55.379-0.502-58.008-3.668-12.066-12.845-18.84-25.525-18.84-2.61 0-5.562-0.112-6.558-0.248l-1.813-0.249v-16.507c0-21.046-0.486-25.958-3.516-35.535-9.734-30.76-41.753-51.726-73.046-47.832m15.537 24.046c16.237 2.877 30.363 15.383 35.396 31.336 2.023 6.411 2.192 8.514 2.192 27.267v17.331h-45.899-45.898v-17.331c0-13.608 0.125-18.05 0.582-20.673 4.48-25.69 28.165-42.442 53.627-37.93m-2.898 121.87c16.242 4.187 21.698 24.248 9.976 36.683-4.224 4.481-4.355 4.975-3.637 13.767 0.717 8.774 0.689 10.256-0.241 12.743-3.982 10.643-19.039 10.643-23.021 0-0.93-2.485-0.959-3.97-0.244-12.722 0.716-8.755 0.61-9.191-3.224-13.329-15.541-16.775-1.291-42.732 20.391-37.142" fill="#f4f5f5"/><path d="m66.797 0.623c-34.231 4.974-61.413 32.288-66.186 66.507-0.93 6.668-0.93 259.07 0 265.74 4.796 34.385 32.134 61.723 66.519 66.519 6.668 0.93 259.07 0.93 265.74 0 34.385-4.796 61.723-32.134 66.519-66.519 0.93-6.668 0.93-259.07 0-265.74-4.795-34.376-32.143-61.724-66.519-66.519-6.215-0.867-260.1-0.855-266.07 0.012m147.07 62.252c28.834 6.201 50.351 28.799 55.107 57.871 0.535 3.274 0.698 7.656 0.843 22.669l0.18 18.61 7.091 0.164c13.738 0.317 22.526 6.264 26.147 17.694 1.083 3.416 1.371 60.296 0.341 67.187-9.283 62.11-67.941 102.56-127.69 88.048-42.787-10.389-75.15-47.632-79.396-91.368-0.9-9.268-0.357-61.056 0.672-64.062 3.924-11.473 12.498-17.212 26.144-17.502l7.092-0.15 0.179-18.616c0.281-29.073 2.88-38.928 14.315-54.268 15.529-20.833 43.951-31.661 68.979-26.277m-20.508 23.266c-18.263 2.85-33.014 16.445-37.53 34.59-1.16 4.66-1.519 10.98-1.526 26.828l-6e-3 14.55h45.898 45.899l-6e-3 -14.55c-7e-3 -15.848-0.367-22.168-1.527-26.828-5.762-23.154-28.041-38.204-51.202-34.59m3.259 121.69c-17.389 3.099-23.811 23.765-11.46 36.877 4.079 4.331 4.177 4.691 3.58 13.041-0.882 12.331-0.586 14.057 3.034 17.681 4.868 4.873 11.978 4.873 16.847 0 3.62-3.624 3.916-5.35 3.034-17.681-0.598-8.35-0.499-8.71 3.58-13.041 14.6-15.5 1.959-40.543-18.615-36.877" fill="#1444b4"/><path d="m273.03 307.72-1.346 1.465 1.465-1.346c0.805-0.741 1.464-1.4 1.464-1.465 0-0.299-0.33-0.018-1.583 1.346" fill="#6884c7"/><path d="m150.95 82.129-1.147 1.269 1.269-1.147c1.184-1.069 1.449-1.392 1.148-1.392-0.068 0-0.639 0.572-1.27 1.27m-20.305 64.16c0 8.809 0.051 12.468 0.114 8.132 0.063-4.337 0.063-11.544 0-16.016-0.062-4.472-0.114-0.925-0.114 7.884m139.06 3.32c0 6.983 0.053 9.839 0.118 6.348 0.064-3.491 0.064-9.204 0-12.695-0.065-3.491-0.118-0.635-0.118 6.347" fill="#4c6cc4"/><path d="m274.12 162.4c1.343 0.076 3.54 0.076 4.883 0 1.343-0.077 0.244-0.139-2.441-0.139-2.686 0-3.785 0.062-2.442 0.139m29.892 75.882c0 0.967 0.076 1.363 0.169 0.879 0.093-0.483 0.093-1.274 0-1.758-0.093-0.483-0.169-0.088-0.169 0.879m-109.97 99.495c0.483 0.093 1.274 0.093 1.758 0 0.483-0.093 0.088-0.17-0.879-0.17s-1.362 0.077-0.879 0.17m10.547 0c0.483 0.093 1.274 0.093 1.758 0 0.483-0.093 0.088-0.17-0.879-0.17s-1.363 0.077-0.879 0.17" fill="#8c9ccc"/><path d="m269.67 133.79c-1e-3 1.934 0.065 2.774 0.147 1.867 0.082-0.906 0.083-2.488 2e-3 -3.515s-0.148-0.286-0.149 1.648" fill="#3c62ba"/></g></svg>
