<svg xmlns="http://www.w3.org/2000/svg" width="128" height="128" version="1.1" viewBox="0 0 33.866 33.866"><defs><filter id="b" color-interpolation-filters="sRGB"><feFlood flood-opacity=".471" result="flood"/><feComposite in="flood" in2="SourceGraphic" operator="in" result="composite1"/><feGaussianBlur in="composite1" result="blur" stdDeviation="1"/><feOffset dx="2" dy="0" result="offset"/><feComposite in="SourceGraphic" in2="offset" result="composite2"/></filter><filter id="h" width="1.26" height="1.389" x="-.13" y="-.195" color-interpolation-filters="sRGB"><feGaussianBlur stdDeviation="6.054"/></filter><filter id="i" width="1.355" height="1.53" x="-.177" y="-.265" color-interpolation-filters="sRGB"><feGaussianBlur stdDeviation="8.243"/></filter><linearGradient id="g" x1="197.99" x2="197.99" y1="73.906" y2="-.808" gradientTransform="matrix(1.1736,0,0,1.1736,497.53,-305.62)" gradientUnits="userSpaceOnUse"><stop offset="0" stop-color="#d02038"/><stop offset="1" stop-color="#7d113d"/></linearGradient><linearGradient id="c" x1="195.92" x2="195.92" y1="134.85" y2="175.4" gradientTransform="translate(531.26,-286.56)" gradientUnits="userSpaceOnUse"><stop offset="0" stop-color="#dae70b"/><stop offset="1" stop-color="#38a943"/></linearGradient><filter id="a" color-interpolation-filters="sRGB"><feFlood flood-opacity=".471" result="flood"/><feComposite in="flood" in2="SourceGraphic" operator="in" result="composite1"/><feGaussianBlur in="composite1" result="blur" stdDeviation="1"/><feOffset dx="0" dy="2" result="offset"/><feComposite in="SourceGraphic" in2="offset" result="fbSourceGraphic"/><feColorMatrix in="fbSourceGraphic" result="fbSourceGraphicAlpha" values="0 0 0 -1 0 0 0 0 -1 0 0 0 0 -1 0 0 0 0 1 0"/><feFlood flood-opacity=".471" in="fbSourceGraphic" result="flood"/><feComposite in="fbSourceGraphic" in2="flood" operator="in" result="composite1"/><feGaussianBlur in="composite1" result="blur" stdDeviation="2"/><feOffset dx="0" dy="-2" result="offset"/><feComposite in="fbSourceGraphic" in2="offset" result="composite2"/></filter><linearGradient id="e" x1="221.1" x2="221.1" y1="113.69" y2="61.85" gradientTransform="matrix(1.1736,0,0,1.1736,497.53,-305.62)" gradientUnits="userSpaceOnUse"><stop offset="0" stop-color="#ff526e"/><stop offset="1" stop-color="#fa445a"/></linearGradient><linearGradient id="f" x1="184.93" x2="184.93" y1="116.22" y2="63.739" gradientTransform="matrix(1.1736,0,0,1.1736,497.53,-305.62)" gradientUnits="userSpaceOnUse"><stop offset="0" stop-color="#ff8387"/><stop offset="1" stop-color="#ff626c"/></linearGradient><linearGradient id="d" x1="187.49" x2="187.49" y1="138.27" y2="93.865" gradientTransform="matrix(1.1736,0,0,1.1736,497.53,-305.62)" gradientUnits="userSpaceOnUse"><stop offset="0" stop-color="#ff8063"/><stop offset="1" stop-color="#f44158"/></linearGradient></defs><g><g transform="matrix(1.9304 0 0 1.9304 .46688 -540.37) matrix(.072143 0 0 .072143 -44.234 303.31)"><path fill="#640e45" d="m729.25-287.37a93.687 93.687 0 0 0-93.688 93.688 93.687 93.687 0 0 0 18.949 56.346h149.44a93.687 93.687 0 0 0 18.984-56.346 93.687 93.687 0 0 0-93.688-93.688z" filter="url(#b)" transform="matrix(1.1736,0,0,1.1736,-125.95,30.685)"/><path fill="#3d0d57" stroke-width="1.174" d="m637.62-256.37a109.95 109.95 0 0 0-17.677 59.755 109.95 109.95 0 0 0 22.239 66.127h175.38a109.95 109.95 0 0 0 22.28-66.127 109.95 109.95 0 0 0-14.814-54.919c-41.061 10.62-70.936 32.956-95.625 60.727 1.0596-0.43845-29.374-43.445-95.502-58.973 1.2407-2.2482 2.4787-4.435 3.7156-6.59z"/><g fill="#ff003c" filter="url(#h)" opacity=".829" transform="matrix(1.3037,0,0,1.3037,471.15,-323.49)"><path d="m198.35 67.289c-0.0517-0.12939 25.326 31.953 25.326 31.953l-50.43 0.14639z"/><path d="m236.55 62.709c-8.6725 24.878-14.218 49.13-14.621 72.354h-40.059c10.334-33.724 28.186-62.501 54.68-72.354z" opacity="1"/><path d="m160.21 63.718c27.757 9.5982 37.527 34.57 47.884 55.094l-35.54-0.62107c-2.1626-18.564-3.7734-37.243-12.344-54.473z" opacity="1"/><path d="m144.45 93.826c13.039 15.927 24.429 28.663 27.996 43.561l55.56 0.0116c-22.281-18.088-43.7-33.749-83.556-43.573z"/><path d="m184.84 137.4 43.164-6e-3c4.5032-16.22 18.444-27.572 28.027-43.143-28.398 8.3724-67.086 19-71.191 43.149z" opacity="1"/></g><g fill="#ff003c" filter="url(#i)" transform="matrix(1.1013,0,0,1.1013,507.71,-300.78)"><path d="m198.35 67.289c-0.0517-0.12939 25.326 31.953 25.326 31.953l-50.43 0.14639z"/><path d="m236.55 62.709c-8.6725 24.878-14.218 49.13-14.621 72.354h-40.059c10.334-33.724 28.186-62.501 54.68-72.354z"/><path d="m160.21 63.718c27.757 9.5982 37.527 34.57 47.884 55.094l-35.54-0.62107c-2.1626-18.564-3.7734-37.243-12.344-54.473z"/><path d="m144.45 93.826c13.039 15.927 24.429 28.663 27.996 43.561l55.56 0.0116c-22.281-18.088-43.7-33.749-83.556-43.573z"/><path d="m184.84 137.4 43.164-6e-3c4.5032-16.22 18.444-27.572 28.027-43.143-28.398 8.3724-67.086 19-71.191 43.149z"/></g><path fill="url(#g)" stroke-width="1.174" d="m730.29-218.93c-12.967-25.38-25.021-51.684-54.408-73.469 33.001-17.818 69.925-22.494 107.12-0.48043-26.49 17.924-40.927 46.573-52.712 73.949z"/><ellipse cx="730.51" cy="-131.65" fill="url(#c)" filter="url(#a)" rx="97.8" ry="20.21" transform="matrix(1.1736,0,0,1.1736,-125.95,30.685)"/><g stroke-width="1.174"><path fill="#ffbab6" d="m730.32-226.65c-0.0607-0.15185 29.722 37.5 29.722 37.5l-59.185 0.1718z"/><path fill="url(#e)" d="m775.14-232.03c-10.178 29.197-16.686 57.659-17.159 84.915h-47.013c12.128-39.579 33.079-73.351 64.172-84.915z"/><path fill="url(#f)" d="m685.55-230.84c32.575 11.264 44.042 40.571 56.197 64.658l-41.71-0.72888c-2.538-21.787-4.4284-43.709-14.487-63.929z"/><path fill="url(#d)" d="m667.05-195.51c15.302 18.692 28.67 33.639 32.857 51.124l65.205 0.0136c-26.149-21.228-51.287-39.607-98.061-51.137z"/><path fill="#f43a38" d="m714.46-144.36 50.657-7e-3c5.285-19.036 21.646-32.359 32.892-50.633-33.327 9.8259-78.732 22.298-83.55 50.639z"/></g></g></g></svg>