<svg xmlns="http://www.w3.org/2000/svg" viewBox="0 0 89 130"><defs><linearGradient id="a" x1="0%" x2="100%" y1="49.975%" y2="49.975%"><stop offset="0%" stop-color="#12B212"/><stop offset="100%" stop-color="#0F0"/></linearGradient></defs><g fill="none" fill-rule="nonzero"><path fill="url(#a)" d="M36.56 39.93C20.34 38.2 4 25.94 2.71 0c25.17 0 38.63 14.9 39.93 38.51 4.76-28.32 27.07-25 27.07-25 1.06 16.05-12.12 25.78-27.07 26.59-4.2-8.85-29.36-30.56-29.36-30.56a.07.07 0 0 0-.11.08s24.28 21.15 23.39 30.31"/><path fill="#980200" d="M44.16 129.93c-1.57-.09-16.22-.65-17.11-17.11-.72-10 7.18-17.37 7.18-27.08C32.44 61.53 0 64.53 0 85.74a19.94 19.94 0 0 0 5.83 14.14L30 124.06a19.94 19.94 0 0 0 14.14 5.83"/><path fill="red" d="M88.32 85.75c-.09 1.57-.65 16.22-17.11 17.11-10 .72-17.38-7.18-27.08-7.18-24.21 1.79-21.21 34.22 0 34.22a19.94 19.94 0 0 0 14.14-5.83L82.46 99.9a19.94 19.94 0 0 0 5.83-14.14"/><path fill="#980200" d="M44.16 41.59c1.57.09 16.22.65 17.11 17.11.72 10-7.18 17.37-7.18 27.08 1.79 24.21 34.22 21.21 34.22 0a19.94 19.94 0 0 0-5.83-14.14L58.3 47.45a19.94 19.94 0 0 0-14.14-5.83"/><path fill="red" d="M.08 85.75c.09-1.57.65-16.22 17.11-17.11 10-.72 17.38 7.18 27.08 7.18 24.21-1.82 21.21-34.22 0-34.22a19.94 19.94 0 0 0-14.14 5.83L5.94 71.61A19.94 19.94 0 0 0 .11 85.75"/></g></svg>