<svg width="128" height="128" version="1.1" viewBox="0 0 33.867 33.867" xmlns="http://www.w3.org/2000/svg"><g fill="#26b99a"><rect class="cls-2" x="6.0734" y="30.393" width="21.72" height="3.4742" stroke-width="1.2679"/><polygon class="cls-2" transform="matrix(1.2679 0 0 1.2679 -6.7708 -10.511)" points="13.73 13.61 23.67 13.61 25.36 31.59 12.03 31.59"/><polygon class="cls-2" transform="matrix(1.2679 0 0 1.2679 -6.7708 -10.511)" points="21.68 9.2 21.68 8.29 19.7 8.29 19.7 9.2 17.7 9.2 17.7 8.29 15.72 8.29 15.72 9.2 13.72 9.2 13.72 8.29 11.74 8.29 11.74 9.2 11.74 10.27 11.74 11.61 25.66 11.61 25.66 10.27 25.66 9.2 25.66 8.29 23.68 8.29 23.68 9.2"/></g><g fill="#209e84"><polygon class="cls-3" transform="matrix(1.2679 0 0 1.2679 -6.7708 -10.511)" points="23.67 13.61 25.66 11.61 11.74 11.61 13.73 13.61"/><polygon class="cls-3" transform="matrix(1.2679 0 0 1.2679 -6.7708 -10.511)" points="25.36 30.91 27.26 32.26 10.13 32.26 12.03 30.91"/><g stroke-width="1.2679"><path class="cls-3" d="m20.186 17.269-0.90024-0.19019a2.3837 2.3837 0 0 0 0-0.48182v-0.97631a2.371 2.371 0 1 0-4.7421 0v0.97631 0.15215l-0.9256 0.0634v-0.21555-0.97631a3.2966 3.2966 0 1 1 6.5933 0v0.97631a3.2966 3.2966 0 0 1-0.02536 0.67201z"/><circle class="cls-3" cx="16.94" cy="18.55" r=".60861"/><path class="cls-3" d="m21.048 18.55a3.9687 3.9687 0 0 1-4.1081 3.9053 3.9306 3.9306 0 1 1 0-7.8359 3.9433 3.9433 0 0 1 4.1081 3.9306zm-6.8849 0a2.7768 2.7768 0 0 0 2.7895 2.7514 2.7514 2.7514 0 1 0-2.7895-2.7514z"/></g><polygon class="cls-3" transform="matrix(1.2679 0 0 1.2679 -6.7708 -10.511)" points="19.03 23.96 18.81 23.24 18.56 23.24 18.36 23.96"/></g></svg>
