<svg width="128" height="128" version="1.1" viewBox="0 0 33.867 33.867" xmlns="http://www.w3.org/2000/svg"><defs><linearGradient id="_Linear1" x2="1" gradientTransform="matrix(29.248 0 0 29.248 2.3091 16.933)" gradientUnits="userSpaceOnUse"><stop stop-color="#00c4d5" offset="0"/><stop stop-color="#2b6df1" offset="1"/></linearGradient></defs><g clip-rule="evenodd" stroke-linejoin="round" stroke-miterlimit="2"><path id="symbol" d="m16.933 2.3333e-7 -14.624 8.4667v16.933l14.624 8.4667 14.624-8.4667v-16.933zm-11.545 10.242 11.545-6.6839 5.0434 2.9191-16.589 9.5298zm23.091 13.383-11.545 6.6839-11.545-6.6839v-4.0669l19.668-11.298 3.4232 1.982z" fill="url(#_Linear1)" stroke-width=".048106"/><g id="border" transform="matrix(.048106 0 0 .048106 2.3091 2.1333e-7)" fill-rule="evenodd" opacity=".15"><path d="m304 0 304 176v352l-304 176-304-176v-352l304-176m-240 332.74 344.84-198.1-104.84-60.68-240 138.94v119.84m240 297.3 240-138.94v-278.2l-71.16-41.2-408.84 234.86v84.54l240 138.94m0-627.73-302 174.84v349.69l302 174.84 302-174.84v-349.69zm-242 333.88v-124.45l0.998-0.578 240-138.94 1.002-0.578 1.002 0.58 104.84 60.68 3.002 1.738-347.85 199.83zm242 296.15-1.002-0.58-240-138.94-0.998-0.576v-86.85l1.004-0.578 408.84-234.86 1-0.574 0.998 0.578 71.16 41.2 0.998 0.578v280.51l-0.998 0.578-240 138.94z" fill-rule="nonzero"/></g></g></svg>
