<?xml version="1.0" encoding="UTF-8" standalone="no"?><!DOCTYPE svg PUBLIC "-//W3C//DTD SVG 1.1//EN" "http://www.w3.org/Graphics/SVG/1.1/DTD/svg11.dtd"><svg width="100%" height="100%" viewBox="0 0 608 704" version="1.1" xmlns="http://www.w3.org/2000/svg" xmlns:xlink="http://www.w3.org/1999/xlink" xml:space="preserve" xmlns:serif="http://www.serif.com/" style="fill-rule:evenodd;clip-rule:evenodd;stroke-linejoin:round;stroke-miterlimit:2;"><path id="symbol" d="M304,0l-304,176l0,352l304,176l304,-176l0,-352l-304,-176Zm-240,212.9l240,-138.94l104.84,60.68l-344.84,198.1l0,-119.84Zm480,278.198l-240,138.94l-240,-138.94l0,-84.54l408.84,-234.86l71.16,41.2l-0,278.2Z" style="fill:url(#_Linear1);fill-rule:nonzero;"/><g id="border" opacity="0.15"><path d="M304,0l304,176l0,352l-304,176l-304,-176l0,-352l304,-176m-240,332.74l344.84,-198.1l-104.84,-60.68l-240,138.94l0,119.84m240,297.298l240,-138.94l0,-278.2l-71.16,-41.2l-408.84,234.86l0,84.54l240,138.94m0,-627.728l-302,174.842l0,349.694l302,174.842l302,-174.842l0,-349.694l-302,-174.842Zm-242,333.884l0,-124.45l0.998,-0.578l240,-138.94l1.002,-0.578l1.002,0.58l104.84,60.68l3.002,1.738l-3.008,1.728l-344.84,198.1l-2.996,1.72Zm242,296.154l-1.002,-0.58l-240,-138.94l-0.998,-0.576l0,-86.85l1.004,-0.578l408.84,-234.86l1,-0.574l0.998,0.578l71.16,41.2l0.998,0.578l-0,280.506l-0.998,0.578l-240,138.94l-1.002,0.578Z" style="fill-rule:nonzero;"/></g><defs><linearGradient id="_Linear1" x1="0" y1="0" x2="1" y2="0" gradientUnits="userSpaceOnUse" gradientTransform="matrix(608,0,0,608,0,351.999)"><stop offset="0" style="stop-color:#00c4d5;stop-opacity:1"/><stop offset="1" style="stop-color:#2b6df1;stop-opacity:1"/></linearGradient></defs></svg>