<?xml version="1.0" encoding="UTF-8"?>
<!DOCTYPE svg PUBLIC "-//W3C//DTD SVG 1.1//EN" "http://www.w3.org/Graphics/SVG/1.1/DTD/svg11.dtd">
<svg xmlns="http://www.w3.org/2000/svg" version="1.1" width="223px" height="223px" style="shape-rendering:geometricPrecision; text-rendering:geometricPrecision; image-rendering:optimizeQuality; fill-rule:evenodd; clip-rule:evenodd" xmlns:xlink="http://www.w3.org/1999/xlink">
<g><path style="opacity:0.999" fill="#000d19" d="M 9.5,-0.5 C 77.1667,-0.5 144.833,-0.5 212.5,-0.5C 216.833,1.83333 220.167,5.16667 222.5,9.5C 222.5,77.1667 222.5,144.833 222.5,212.5C 220.167,216.833 216.833,220.167 212.5,222.5C 144.833,222.5 77.1667,222.5 9.5,222.5C 5.16667,220.167 1.83333,216.833 -0.5,212.5C -0.5,144.833 -0.5,77.1667 -0.5,9.5C 1.83333,5.16667 5.16667,1.83333 9.5,-0.5 Z"/></g>
<g><path style="opacity:1" fill="#f6f7f7" d="M 78.5,53.5 C 78.5,56.1667 78.5,58.8333 78.5,61.5C 78.5,85.8333 78.5,110.167 78.5,134.5C 75.8333,134.5 73.1667,134.5 70.5,134.5C 71.5807,127.856 70.2474,126.689 66.5,131C 63.6907,132.741 60.6907,133.908 57.5,134.5C 55.1667,134.5 52.8333,134.5 50.5,134.5C 40.9915,133.487 34.4915,128.487 31,119.5C 27.2248,102.379 33.7248,91.3791 50.5,86.5C 52.9496,86.298 55.283,86.6314 57.5,87.5C 62.1899,88.3436 66.3566,90.3436 70,93.5C 70.4997,85.1733 70.6664,76.84 70.5,68.5C 70.5,65.8333 70.5,63.1667 70.5,60.5C 70.5,55.5 70.5,50.5 70.5,45.5C 73.1667,45.5 75.8333,45.5 78.5,45.5C 78.5,48.1667 78.5,50.8333 78.5,53.5 Z"/></g>
<g><path style="opacity:1" fill="#4ba59e" d="M 173.5,87.5 C 170.833,87.5 168.167,87.5 165.5,87.5C 152.554,62.4243 131.887,50.591 103.5,52C 94.49,53.5098 86.1566,56.6765 78.5,61.5C 78.5,58.8333 78.5,56.1667 78.5,53.5C 110.195,38.9759 138.029,44.3092 162,69.5C 166.107,75.3951 169.941,81.3951 173.5,87.5 Z"/></g>
<g><path style="opacity:1" fill="#010e19" d="M 165.5,87.5 C 160.636,88.0153 156.469,90.0153 153,93.5C 152.505,91.5273 152.338,89.5273 152.5,87.5C 149.833,87.5 147.167,87.5 144.5,87.5C 143.668,111.663 143.168,135.997 143,160.5C 119.036,174.794 95.8698,173.628 73.5,157C 66.2896,150.713 60.9563,143.213 57.5,134.5C 60.6907,133.908 63.6907,132.741 66.5,131C 70.2474,126.689 71.5807,127.856 70.5,134.5C 73.1667,134.5 75.8333,134.5 78.5,134.5C 78.5,110.167 78.5,85.8333 78.5,61.5C 86.1566,56.6765 94.49,53.5098 103.5,52C 131.887,50.591 152.554,62.4243 165.5,87.5 Z"/></g>
<g><path style="opacity:1" fill="#4aa59e" d="M 70.5,60.5 C 70.5,63.1667 70.5,65.8333 70.5,68.5C 64.1798,73.4846 59.8465,79.818 57.5,87.5C 55.283,86.6314 52.9496,86.298 50.5,86.5C 52.6286,80.2417 55.7953,74.5751 60,69.5C 63.0977,65.8926 66.5977,62.8926 70.5,60.5 Z"/></g>
<g><path style="opacity:1" fill="#06121c" d="M 70.5,68.5 C 70.6664,76.84 70.4997,85.1733 70,93.5C 66.3566,90.3436 62.1899,88.3436 57.5,87.5C 59.8465,79.818 64.1798,73.4846 70.5,68.5 Z"/></g>
<g><path style="opacity:1" fill="#f1f1f1" d="M 125.5,72.5 C 131.758,73.4774 133.091,76.6441 129.5,82C 123.324,83.1875 121.158,80.6875 123,74.5C 123.995,73.9341 124.828,73.2674 125.5,72.5 Z"/></g>
<g><path style="opacity:1" fill="#f7f7f7" d="M 144.5,87.5 C 147.167,87.5 149.833,87.5 152.5,87.5C 152.338,89.5273 152.505,91.5273 153,93.5C 156.469,90.0153 160.636,88.0153 165.5,87.5C 168.167,87.5 170.833,87.5 173.5,87.5C 185.551,90.058 192.217,97.558 193.5,110C 192.227,123.766 184.894,131.932 171.5,134.5C 169.167,134.5 166.833,134.5 164.5,134.5C 160.347,133.197 156.514,131.197 153,128.5C 152.5,136.493 152.334,144.493 152.5,152.5C 152.5,155.5 152.5,158.5 152.5,161.5C 152.5,166.167 152.5,170.833 152.5,175.5C 149.833,175.5 147.167,175.5 144.5,175.5C 144.5,172.833 144.5,170.167 144.5,167.5C 144.5,140.833 144.5,114.167 144.5,87.5 Z"/></g>
<g><path style="opacity:1" fill="#acadaf" d="M 98.5,92.5 C 98.44,93.0431 98.1067,93.3764 97.5,93.5C 96.5481,91.9547 96.2148,90.288 96.5,88.5C 94.1667,88.5 91.8333,88.5 89.5,88.5C 89.5,103.5 89.5,118.5 89.5,133.5C 91.8333,133.5 94.1667,133.5 96.5,133.5C 96.1734,124.318 96.5067,115.318 97.5,106.5C 97.5,115.833 97.5,125.167 97.5,134.5C 94.5,134.5 91.5,134.5 88.5,134.5C 88.5,118.833 88.5,103.167 88.5,87.5C 91.5,87.5 94.5,87.5 97.5,87.5C 97.2155,89.4147 97.5489,91.0813 98.5,92.5 Z"/></g>
<g><path style="opacity:1" fill="#fafafa" d="M 97.5,106.5 C 96.5067,115.318 96.1734,124.318 96.5,133.5C 94.1667,133.5 91.8333,133.5 89.5,133.5C 89.5,118.5 89.5,103.5 89.5,88.5C 91.8333,88.5 94.1667,88.5 96.5,88.5C 96.2148,90.288 96.5481,91.9547 97.5,93.5C 98.1067,93.3764 98.44,93.0431 98.5,92.5C 102.199,88.4866 106.865,86.8199 112.5,87.5C 112.5,90.5 112.5,93.5 112.5,96.5C 104.826,95.8435 99.8257,99.1768 97.5,106.5 Z"/></g>
<g><path style="opacity:1" fill="#aaacad" d="M 122.5,87.5 C 125.5,87.5 128.5,87.5 131.5,87.5C 131.5,103.167 131.5,118.833 131.5,134.5C 128.5,134.5 125.5,134.5 122.5,134.5C 122.5,118.833 122.5,103.167 122.5,87.5 Z"/></g>
<g><path style="opacity:1" fill="#fefffe" d="M 123.5,88.5 C 125.833,88.5 128.167,88.5 130.5,88.5C 130.5,103.5 130.5,118.5 130.5,133.5C 128.167,133.5 125.833,133.5 123.5,133.5C 123.5,118.5 123.5,103.5 123.5,88.5 Z"/></g>
<g><path style="opacity:1" fill="#4ca59e" d="M 53.5,95.5 C 52.8355,100.492 52.1688,105.492 51.5,110.5C 52.1683,115.841 52.835,121.175 53.5,126.5C 50.7718,126.829 48.4385,126.163 46.5,124.5C 45.2032,115.495 45.2032,106.495 46.5,97.5C 46.6107,96.8826 46.944,96.3826 47.5,96C 49.4727,95.5045 51.4727,95.3379 53.5,95.5 Z"/></g>
<g><path style="opacity:1" fill="#04111b" d="M 53.5,95.5 C 66.8791,98.589 71.0458,106.589 66,119.5C 62.9153,123.792 58.7486,126.125 53.5,126.5C 52.835,121.175 52.1683,115.841 51.5,110.5C 52.1688,105.492 52.8355,100.492 53.5,95.5 Z"/></g>
<g><path style="opacity:1" fill="#06131c" d="M 168.5,95.5 C 169.373,100.126 170.04,104.792 170.5,109.5C 169.941,115.187 169.274,120.854 168.5,126.5C 159.224,125.223 154.558,119.89 154.5,110.5C 155.039,101.628 159.705,96.6284 168.5,95.5 Z"/></g>
<g><path style="opacity:1" fill="#4aa59d" d="M 168.5,95.5 C 171.495,95.2938 174.162,95.9605 176.5,97.5C 176.81,106.32 176.477,115.32 175.5,124.5C 173.485,125.924 171.152,126.59 168.5,126.5C 169.274,120.854 169.941,115.187 170.5,109.5C 170.04,104.792 169.373,100.126 168.5,95.5 Z"/></g>
<g><path style="opacity:1" fill="#07131c" d="M 46.5,97.5 C 45.2032,106.495 45.2032,115.495 46.5,124.5C 40.9043,121.818 38.2376,117.318 38.5,111C 38.2505,104.652 40.9172,100.152 46.5,97.5 Z"/></g>
<g><path style="opacity:1" fill="#06111b" d="M 176.5,97.5 C 184.903,102.999 186.736,110.332 182,119.5C 180.223,121.79 178.056,123.457 175.5,124.5C 176.477,115.32 176.81,106.32 176.5,97.5 Z"/></g>
<g><path style="opacity:1" fill="#02101a" d="M 164.5,134.5 C 162.495,141.837 158.495,147.837 152.5,152.5C 152.334,144.493 152.5,136.493 153,128.5C 156.514,131.197 160.347,133.197 164.5,134.5 Z"/></g>
<g><path style="opacity:1" fill="#4fa099" d="M 144.5,87.5 C 144.5,114.167 144.5,140.833 144.5,167.5C 143.508,167.328 142.842,167.662 142.5,168.5C 111.15,182.997 83.6503,177.663 60,152.5C 55.723,147.064 52.5564,141.064 50.5,134.5C 52.8333,134.5 55.1667,134.5 57.5,134.5C 60.9563,143.213 66.2896,150.713 73.5,157C 95.8698,173.628 119.036,174.794 143,160.5C 143.168,135.997 143.668,111.663 144.5,87.5 Z"/></g>
<g><path style="opacity:1" fill="#4ba59e" d="M 164.5,134.5 C 166.833,134.5 169.167,134.5 171.5,134.5C 167.922,145.415 161.589,154.415 152.5,161.5C 152.5,158.5 152.5,155.5 152.5,152.5C 158.495,147.837 162.495,141.837 164.5,134.5 Z"/></g>
<g><path style="opacity:1" fill="#62696a" d="M 142.5,168.5 C 142.842,167.662 143.508,167.328 144.5,167.5C 144.5,170.167 144.5,172.833 144.5,175.5C 143.833,173.167 143.167,170.833 142.5,168.5 Z"/></g>
</svg>
