<?xml version="1.0" encoding="UTF-8"?>
<!DOCTYPE svg PUBLIC "-//W3C//DTD SVG 1.1//EN" "http://www.w3.org/Graphics/SVG/1.1/DTD/svg11.dtd">
<svg xmlns="http://www.w3.org/2000/svg" version="1.1" width="240px" height="240px" style="shape-rendering:geometricPrecision; text-rendering:geometricPrecision; image-rendering:optimizeQuality; fill-rule:evenodd; clip-rule:evenodd" xmlns:xlink="http://www.w3.org/1999/xlink">
<g><path style="opacity:1" fill="#fefefe" d="M -0.5,-0.5 C 79.5,-0.5 159.5,-0.5 239.5,-0.5C 239.5,79.5 239.5,159.5 239.5,239.5C 159.5,239.5 79.5,239.5 -0.5,239.5C -0.5,159.5 -0.5,79.5 -0.5,-0.5 Z"/></g>
<g><path style="opacity:1" fill="#53786c" d="M 101.5,28.5 C 101.231,30.4286 101.731,32.0953 103,33.5C 103.974,31.1224 104.641,31.4557 105,34.5C 105.667,31.8333 106.333,31.8333 107,34.5C 109.316,33.6327 111.316,34.2993 113,36.5C 116.089,36.7819 119.256,36.7819 122.5,36.5C 126.361,37.8427 126.361,39.3427 122.5,41C 123.276,42.7698 123.11,44.6031 122,46.5C 121.667,46.1667 121.333,45.8333 121,45.5C 118.669,51.3163 116.169,56.483 113.5,61C 109.651,64.8464 105.484,68.3464 101,71.5C 100.667,71.1667 100.333,70.8333 100,70.5C 96.892,72.87 93.5587,74.87 90,76.5C 89.586,76.0426 89.086,75.7093 88.5,75.5C 87.4805,76.6872 86.3139,77.6872 85,78.5C 82.867,77.5823 80.7004,77.4156 78.5,78C 78.1667,77 77.8333,76 77.5,75C 80.1667,74.3333 80.1667,73.6667 77.5,73C 77.6158,71.7318 77.9491,70.3985 78.5,69C 77.6919,68.6924 77.0253,68.1924 76.5,67.5C 77.3966,67.3309 78.3966,66.9976 79.5,66.5C 78.3147,65.147 76.9814,63.9803 75.5,63C 77.9913,62.3741 77.9913,61.5407 75.5,60.5C 76.0253,59.8076 76.6919,59.3076 77.5,59C 73.1482,58.5811 72.8149,57.9145 76.5,57C 73.6384,56.0695 71.305,54.4029 69.5,52C 69.8333,51.6667 70.1667,51.3333 70.5,51C 69.552,50.5172 68.552,50.3505 67.5,50.5C 67.5,49.5 67.5,48.5 67.5,47.5C 78.1521,40.1684 89.4854,33.8351 101.5,28.5 Z"/></g>
<g><path style="opacity:1" fill="#558172" d="M 133.5,27.5 C 140.097,29.4651 146.097,32.4651 151.5,36.5C 153.05,39.1717 152.55,41.5051 150,43.5C 143.72,68.3435 129.72,86.3435 108,97.5C 106.927,96.7203 105.76,96.887 104.5,98C 106.301,98.3173 106.634,98.984 105.5,100C 100.86,100.871 97.1928,103.205 94.5,107C 94.8333,107.333 95.1667,107.667 95.5,108C 90.4919,108.76 88.1586,111.593 88.5,116.5C 88.9452,113.635 88.2785,111.135 86.5,109C 80.8431,108.501 75.1764,108.334 69.5,108.5C 69.5,105.5 69.5,102.5 69.5,99.5C 76.5079,99.6663 83.5079,99.4996 90.5,99C 93.3851,95.0562 93.0517,91.5562 89.5,88.5C 83.5,87.8333 77.5,87.1667 71.5,86.5C 76.5111,86.6659 81.5111,86.4993 86.5,86C 85.8333,85.3333 85.1667,84.6667 84.5,84C 87.1667,83.6667 89.8333,83.3333 92.5,83C 93.6667,82.5 94.5,81.6667 95,80.5C 95.6891,81.3567 96.5224,82.0233 97.5,82.5C 98.9122,81.1936 100.579,80.3603 102.5,80C 101.66,78.3335 102.16,78.1669 104,79.5C 107.834,77.753 110.834,75.0863 113,71.5C 115.695,70.4326 117.695,68.0993 119,64.5C 119.333,64.8333 119.667,65.1667 120,65.5C 124.702,59.7932 127.369,53.4599 128,46.5C 128.93,44.4476 130.43,42.9476 132.5,42C 131.601,39.4622 131.934,36.9622 133.5,34.5C 132.234,32.0276 132.234,29.6943 133.5,27.5 Z"/></g>
<g><path style="opacity:1" fill="#517c6f" d="M 133.5,27.5 C 132.234,29.6943 132.234,32.0276 133.5,34.5C 131.934,36.9622 131.601,39.4622 132.5,42C 130.43,42.9476 128.93,44.4476 128,46.5C 127.369,53.4599 124.702,59.7932 120,65.5C 119.667,65.1667 119.333,64.8333 119,64.5C 117.695,68.0993 115.695,70.4326 113,71.5C 110.834,75.0863 107.834,77.753 104,79.5C 102.16,78.1669 101.66,78.3335 102.5,80C 100.579,80.3603 98.9122,81.1936 97.5,82.5C 96.5224,82.0233 95.6891,81.3567 95,80.5C 94.5,81.6667 93.6667,82.5 92.5,83C 89.8333,83.3333 87.1667,83.6667 84.5,84C 85.1667,84.6667 85.8333,85.3333 86.5,86C 81.5111,86.4993 76.5111,86.6659 71.5,86.5C 64.343,86.7018 57.843,84.3684 52,79.5C 52.0016,75.3318 51.8349,71.1651 51.5,67C 52.2931,65.9148 52.9598,64.7481 53.5,63.5C 53.6837,61.5851 53.3503,59.5851 52.5,57.5C 56.9756,53.4254 61.9756,50.0921 67.5,47.5C 67.5,48.5 67.5,49.5 67.5,50.5C 68.552,50.3505 69.552,50.5172 70.5,51C 70.1667,51.3333 69.8333,51.6667 69.5,52C 71.305,54.4029 73.6384,56.0695 76.5,57C 72.8149,57.9145 73.1482,58.5811 77.5,59C 76.6919,59.3076 76.0253,59.8076 75.5,60.5C 77.9913,61.5407 77.9913,62.3741 75.5,63C 76.9814,63.9803 78.3147,65.147 79.5,66.5C 78.3966,66.9976 77.3966,67.3309 76.5,67.5C 77.0253,68.1924 77.6919,68.6924 78.5,69C 77.9491,70.3985 77.6158,71.7318 77.5,73C 80.1667,73.6667 80.1667,74.3333 77.5,75C 77.8333,76 78.1667,77 78.5,78C 80.7004,77.4156 82.867,77.5823 85,78.5C 86.3139,77.6872 87.4805,76.6872 88.5,75.5C 89.086,75.7093 89.586,76.0426 90,76.5C 93.5587,74.87 96.892,72.87 100,70.5C 100.333,70.8333 100.667,71.1667 101,71.5C 105.484,68.3464 109.651,64.8464 113.5,61C 116.169,56.483 118.669,51.3163 121,45.5C 121.333,45.8333 121.667,46.1667 122,46.5C 123.11,44.6031 123.276,42.7698 122.5,41C 126.361,39.3427 126.361,37.8427 122.5,36.5C 119.256,36.7819 116.089,36.7819 113,36.5C 111.316,34.2993 109.316,33.6327 107,34.5C 106.333,31.8333 105.667,31.8333 105,34.5C 104.641,31.4557 103.974,31.1224 103,33.5C 101.731,32.0953 101.231,30.4286 101.5,28.5C 107.267,25.6186 113.267,23.2853 119.5,21.5C 124.641,22.6051 129.307,24.6051 133.5,27.5 Z"/></g>
<g><path style="opacity:1" fill="#5a8674" d="M 151.5,36.5 C 159.986,39.5711 167.653,43.9044 174.5,49.5C 174.84,53.1309 174.006,56.4642 172,59.5C 171.667,59.1667 171.333,58.8333 171,58.5C 169.674,63.1603 167.341,67.1603 164,70.5C 162.334,69.6598 162.167,70.1598 163.5,72C 160.803,74.0395 158.137,76.0395 155.5,78C 154.5,80.3333 152.833,82 150.5,83C 150.833,83.3333 151.167,83.6667 151.5,84C 149.261,86.0865 146.927,87.9198 144.5,89.5C 141.59,88.1861 139.09,88.8527 137,91.5C 136.5,106.496 136.333,121.496 136.5,136.5C 135.829,133.242 134.996,129.909 134,126.5C 133.692,127.308 133.192,127.975 132.5,128.5C 132.167,127.833 131.833,127.167 131.5,126.5C 130.808,127.025 130.308,127.692 130,128.5C 129.828,122.319 129.328,116.319 128.5,110.5C 126.243,108.416 123.743,108.083 121,109.5C 119.755,115.39 119.088,121.39 119,127.5C 115.399,132.321 111.399,132.654 107,128.5C 105.804,122.581 105.138,116.581 105,110.5C 101.742,107.654 98.9083,107.987 96.5,111.5C 95.2114,117.191 95.2114,123.025 96.5,129C 93.9898,130.293 93.3231,132.126 94.5,134.5C 94.0428,136.598 93.0428,138.264 91.5,139.5C 91.9383,137.874 92.2716,136.207 92.5,134.5C 92.6598,132.645 91.9931,131.312 90.5,130.5C 83.6866,129.509 76.6866,129.175 69.5,129.5C 69.5,125.833 69.5,122.167 69.5,118.5C 75.1764,118.666 80.8431,118.499 86.5,118C 87.0442,117.283 87.7109,116.783 88.5,116.5C 88.1586,111.593 90.4919,108.76 95.5,108C 95.1667,107.667 94.8333,107.333 94.5,107C 97.1928,103.205 100.86,100.871 105.5,100C 106.634,98.984 106.301,98.3173 104.5,98C 105.76,96.887 106.927,96.7203 108,97.5C 129.72,86.3435 143.72,68.3435 150,43.5C 152.55,41.5051 153.05,39.1717 151.5,36.5 Z"/></g>
<g><path style="opacity:1" fill="#648d78" d="M 174.5,49.5 C 186.306,55.3033 195.973,63.6367 203.5,74.5C 199.523,78.3245 196.023,82.6578 193,87.5C 192.667,86.8333 192.333,86.1667 192,85.5C 188.962,89.5017 185.962,92.8351 183,95.5C 182.768,94.2625 182.268,93.2625 181.5,92.5C 181.586,91.5041 181.252,90.6708 180.5,90C 173.678,88.1624 171.178,90.6624 173,97.5C 173.708,98.3805 174.542,99.0472 175.5,99.5C 176.077,102.55 174.91,104.55 172,105.5C 171.138,107.087 170.471,108.754 170,110.5C 168.989,111.337 167.822,111.67 166.5,111.5C 166.657,112.873 166.49,114.207 166,115.5C 165.31,116.738 164.81,116.738 164.5,115.5C 165.999,111.831 164.832,109.498 161,108.5C 155.817,111.001 151.151,114.335 147,118.5C 146.667,109.167 146.333,99.8333 146,90.5C 145.617,89.944 145.117,89.6107 144.5,89.5C 146.927,87.9198 149.261,86.0865 151.5,84C 151.167,83.6667 150.833,83.3333 150.5,83C 152.833,82 154.5,80.3333 155.5,78C 158.137,76.0395 160.803,74.0395 163.5,72C 162.167,70.1598 162.334,69.6598 164,70.5C 167.341,67.1603 169.674,63.1603 171,58.5C 171.333,58.8333 171.667,59.1667 172,59.5C 174.006,56.4642 174.84,53.1309 174.5,49.5 Z"/></g>
<g><path style="opacity:1" fill="#6d9279" d="M 203.5,74.5 C 206.277,76.9505 208.277,79.9505 209.5,83.5C 201.726,91.5946 194.06,99.9279 186.5,108.5C 184.604,109.275 182.937,110.275 181.5,111.5C 179.947,108.746 177.614,107.913 174.5,109C 173.177,109.816 172.511,110.983 172.5,112.5C 171.671,120.657 171.171,128.99 171,137.5C 170.423,132.379 169.423,132.379 168,137.5C 167.722,136.584 167.222,135.918 166.5,135.5C 163.794,130.614 160.461,126.114 156.5,122C 159.331,119.999 161.997,117.833 164.5,115.5C 164.81,116.738 165.31,116.738 166,115.5C 166.49,114.207 166.657,112.873 166.5,111.5C 167.822,111.67 168.989,111.337 170,110.5C 170.471,108.754 171.138,107.087 172,105.5C 174.91,104.55 176.077,102.55 175.5,99.5C 180.323,99.6728 182.323,97.3394 181.5,92.5C 182.268,93.2625 182.768,94.2625 183,95.5C 185.962,92.8351 188.962,89.5017 192,85.5C 192.333,86.1667 192.667,86.8333 193,87.5C 196.023,82.6578 199.523,78.3245 203.5,74.5 Z"/></g>
<g><path style="opacity:1" fill="#467e6f" d="M 52.5,57.5 C 53.3503,59.5851 53.6837,61.5851 53.5,63.5C 52.9598,64.7481 52.2931,65.9148 51.5,67C 51.8349,71.1651 52.0016,75.3318 52,79.5C 57.843,84.3684 64.343,86.7018 71.5,86.5C 77.5,87.1667 83.5,87.8333 89.5,88.5C 80.4938,88.3336 71.4938,88.5002 62.5,89C 61.5838,89.3742 60.7504,89.8742 60,90.5C 58.5318,105.737 58.0318,121.07 58.5,136.5C 57.6695,125.674 57.1695,114.674 57,103.5C 56.8078,105.577 56.3078,107.577 55.5,109.5C 54.0944,108.332 52.9277,108.665 52,110.5C 50,107.833 48,107.833 46,110.5C 45.6667,110.167 45.3333,109.833 45,109.5C 42.5314,111.645 40.5314,110.979 39,107.5C 38.3333,110.167 37.6667,110.167 37,107.5C 34.0964,109.598 31.2631,109.931 28.5,108.5C 27.3044,108.846 27.3044,109.346 28.5,110C 23.9771,111.149 21.6438,113.982 21.5,118.5C 20.9635,92.5722 31.2968,72.2388 52.5,57.5 Z"/></g>
<g><path style="opacity:1" fill="#f7f9f8" d="M 89.5,88.5 C 93.0517,91.5562 93.3851,95.0562 90.5,99C 83.5079,99.4996 76.5079,99.6663 69.5,99.5C 69.5,102.5 69.5,105.5 69.5,108.5C 75.1764,108.334 80.8431,108.501 86.5,109C 88.2785,111.135 88.9452,113.635 88.5,116.5C 87.7109,116.783 87.0442,117.283 86.5,118C 80.8431,118.499 75.1764,118.666 69.5,118.5C 68.5166,122.298 68.1832,126.298 68.5,130.5C 75.8333,130.5 83.1667,130.5 90.5,130.5C 91.9931,131.312 92.6598,132.645 92.5,134.5C 92.2716,136.207 91.9383,137.874 91.5,139.5C 90.5084,139.328 89.8417,139.662 89.5,140.5C 80.1607,140.666 70.8274,140.5 61.5,140C 60.3636,138.855 59.3636,137.688 58.5,136.5C 58.0318,121.07 58.5318,105.737 60,90.5C 60.7504,89.8742 61.5838,89.3742 62.5,89C 71.4938,88.5002 80.4938,88.3336 89.5,88.5 Z"/></g>
<g><path style="opacity:1" fill="#fafbfa" d="M 144.5,89.5 C 145.117,89.6107 145.617,89.944 146,90.5C 146.333,99.8333 146.667,109.167 147,118.5C 151.151,114.335 155.817,111.001 161,108.5C 164.832,109.498 165.999,111.831 164.5,115.5C 161.997,117.833 159.331,119.999 156.5,122C 160.461,126.114 163.794,130.614 166.5,135.5C 166.532,140.213 164.199,141.713 159.5,140C 156,135.833 152.5,131.667 149,127.5C 148.586,127.957 148.086,128.291 147.5,128.5C 146.676,131.785 146.176,135.118 146,138.5C 145.302,139.691 144.469,140.691 143.5,141.5C 139.763,141.759 137.43,140.093 136.5,136.5C 136.333,121.496 136.5,106.496 137,91.5C 139.09,88.8527 141.59,88.1861 144.5,89.5 Z"/></g>
<g><path style="opacity:1" fill="#f4f6f5" d="M 181.5,92.5 C 182.323,97.3394 180.323,99.6728 175.5,99.5C 174.542,99.0472 173.708,98.3805 173,97.5C 171.178,90.6624 173.678,88.1624 180.5,90C 181.252,90.6708 181.586,91.5041 181.5,92.5 Z"/></g>
<g><path style="opacity:1" fill="#79987c" d="M 209.5,83.5 C 214.012,89.7035 216.346,96.7035 216.5,104.5C 216.719,105.675 216.386,106.675 215.5,107.5C 206.806,113.672 199.972,121.006 195,129.5C 193.184,131.441 191.184,132.108 189,131.5C 186.904,132.715 187.071,133.549 189.5,134C 188.747,135.487 187.914,135.654 187,134.5C 185.945,137.056 184.112,138.723 181.5,139.5C 181.5,130.167 181.5,120.833 181.5,111.5C 182.937,110.275 184.604,109.275 186.5,108.5C 194.06,99.9279 201.726,91.5946 209.5,83.5 Z"/></g>
<g><path style="opacity:1" fill="#4e8775" d="M 58.5,136.5 C 59.3636,137.688 60.3636,138.855 61.5,140C 70.8274,140.5 80.1607,140.666 89.5,140.5C 80.676,141.33 71.676,141.83 62.5,142C 63.8333,142.333 65.1667,142.667 66.5,143C 63.7372,146.435 60.4039,149.101 56.5,151C 56.8333,151.333 57.1667,151.667 57.5,152C 56.5,152.333 55.5,152.667 54.5,153C 51.4791,157.018 48.1458,160.684 44.5,164C 45.8333,165 47.1667,166 48.5,167C 48.2716,167.399 47.9382,167.565 47.5,167.5C 31.2433,155.326 22.5767,138.992 21.5,118.5C 21.6438,113.982 23.9771,111.149 28.5,110C 27.3044,109.346 27.3044,108.846 28.5,108.5C 31.2631,109.931 34.0964,109.598 37,107.5C 37.6667,110.167 38.3333,110.167 39,107.5C 40.5314,110.979 42.5314,111.645 45,109.5C 45.3333,109.833 45.6667,110.167 46,110.5C 48,107.833 50,107.833 52,110.5C 52.9277,108.665 54.0944,108.332 55.5,109.5C 56.3078,107.577 56.8078,105.577 57,103.5C 57.1695,114.674 57.6695,125.674 58.5,136.5 Z"/></g>
<g><path style="opacity:1" fill="#f9fafa" d="M 128.5,110.5 C 128.666,117.508 128.5,124.508 128,131.5C 121.85,140.647 113.683,142.981 103.5,138.5C 101.5,136.329 99.6665,133.996 98,131.5C 96.7264,124.897 96.2264,118.23 96.5,111.5C 98.9083,107.987 101.742,107.654 105,110.5C 105.138,116.581 105.804,122.581 107,128.5C 111.399,132.654 115.399,132.321 119,127.5C 119.088,121.39 119.755,115.39 121,109.5C 123.743,108.083 126.243,108.416 128.5,110.5 Z"/></g>
<g><path style="opacity:1" fill="#fafbfa" d="M 181.5,111.5 C 181.5,120.833 181.5,130.167 181.5,139.5C 179.621,140.341 177.621,140.675 175.5,140.5C 174.25,140.423 173.417,139.756 173,138.5C 172.5,129.84 172.334,121.173 172.5,112.5C 172.511,110.983 173.177,109.816 174.5,109C 177.614,107.913 179.947,108.746 181.5,111.5 Z"/></g>
<g><path style="opacity:1" fill="#d3dbd7" d="M 69.5,118.5 C 69.5,122.167 69.5,125.833 69.5,129.5C 76.6866,129.175 83.6866,129.509 90.5,130.5C 83.1667,130.5 75.8333,130.5 68.5,130.5C 68.1832,126.298 68.5166,122.298 69.5,118.5 Z"/></g>
<g><path style="opacity:1" fill="#82987d" d="M 216.5,104.5 C 220.235,128.213 213.235,148.213 195.5,164.5C 194.668,163.671 195.001,162.838 196.5,162C 194.729,159.887 193.229,160.053 192,162.5C 189.792,161.555 187.292,161.555 184.5,162.5C 182.436,160.739 180.269,160.405 178,161.5C 176.266,160.751 174.433,160.251 172.5,160C 173.672,159.581 174.672,158.915 175.5,158C 173.668,157.252 172.001,156.252 170.5,155C 171.951,155.263 173.284,155.096 174.5,154.5C 173.873,153.583 173.539,152.583 173.5,151.5C 173.938,151.565 174.272,151.399 174.5,151C 172.671,149.887 171.837,148.387 172,146.5C 173.637,144.19 175.804,142.69 178.5,142C 177.263,141.768 176.263,141.268 175.5,140.5C 177.621,140.675 179.621,140.341 181.5,139.5C 184.112,138.723 185.945,137.056 187,134.5C 187.914,135.654 188.747,135.487 189.5,134C 187.071,133.549 186.904,132.715 189,131.5C 191.184,132.108 193.184,131.441 195,129.5C 199.972,121.006 206.806,113.672 215.5,107.5C 216.386,106.675 216.719,105.675 216.5,104.5 Z"/></g>
<g><path style="opacity:1" fill="#678d7a" d="M 96.5,111.5 C 96.2264,118.23 96.7264,124.897 98,131.5C 99.6665,133.996 101.5,136.329 103.5,138.5C 100.658,139.172 98.1575,140.506 96,142.5C 95.6667,142.167 95.3333,141.833 95,141.5C 80.3684,150.109 67.5351,160.109 56.5,171.5C 56.8627,172.183 57.1961,172.85 57.5,173.5C 53.4945,172.502 50.1612,170.502 47.5,167.5C 47.9382,167.565 48.2716,167.399 48.5,167C 47.1667,166 45.8333,165 44.5,164C 48.1458,160.684 51.4791,157.018 54.5,153C 55.5,152.667 56.5,152.333 57.5,152C 57.1667,151.667 56.8333,151.333 56.5,151C 60.4039,149.101 63.7372,146.435 66.5,143C 65.1667,142.667 63.8333,142.333 62.5,142C 71.676,141.83 80.676,141.33 89.5,140.5C 89.8417,139.662 90.5084,139.328 91.5,139.5C 93.0428,138.264 94.0428,136.598 94.5,134.5C 93.3231,132.126 93.9898,130.293 96.5,129C 95.2114,123.025 95.2114,117.191 96.5,111.5 Z"/></g>
<g><path style="opacity:1" fill="#728d7b" d="M 128.5,110.5 C 129.328,116.319 129.828,122.319 130,128.5C 130.308,127.692 130.808,127.025 131.5,126.5C 131.833,127.167 132.167,127.833 132.5,128.5C 133.192,127.975 133.692,127.308 134,126.5C 134.996,129.909 135.829,133.242 136.5,136.5C 137.43,140.093 139.763,141.759 143.5,141.5C 141.49,142.693 139.324,142.693 137,141.5C 133.066,141.964 129.066,142.964 125,144.5C 124.667,144.167 124.333,143.833 124,143.5C 115.309,147.301 106.142,150.801 96.5,154C 85.9101,160.916 75.5768,168.249 65.5,176C 66.5707,176.852 67.5707,177.685 68.5,178.5C 64.4179,177.624 60.7512,175.957 57.5,173.5C 57.1961,172.85 56.8627,172.183 56.5,171.5C 67.5351,160.109 80.3684,150.109 95,141.5C 95.3333,141.833 95.6667,142.167 96,142.5C 98.1575,140.506 100.658,139.172 103.5,138.5C 113.683,142.981 121.85,140.647 128,131.5C 128.5,124.508 128.666,117.508 128.5,110.5 Z"/></g>
<g><path style="opacity:1" fill="#7c917c" d="M 172.5,112.5 C 172.334,121.173 172.5,129.84 173,138.5C 173.417,139.756 174.25,140.423 175.5,140.5C 176.263,141.268 177.263,141.768 178.5,142C 175.804,142.69 173.637,144.19 172,146.5C 171.837,148.387 172.671,149.887 174.5,151C 174.272,151.399 173.938,151.565 173.5,151.5C 171.533,151.739 169.699,151.406 168,150.5C 163.467,152.036 158.8,153.036 154,153.5C 149.118,152.871 143.618,152.704 137.5,153C 136.5,152.667 135.5,152.333 134.5,152C 136.623,151.185 138.623,150.185 140.5,149C 139.892,148.13 139.059,147.63 138,147.5C 119.823,150.136 102.323,156.303 85.5,166C 80.2114,169.62 75.2114,173.62 70.5,178C 71.5707,178.852 72.5707,179.685 73.5,180.5C 71.4471,180.598 69.7804,179.931 68.5,178.5C 67.5707,177.685 66.5707,176.852 65.5,176C 75.5768,168.249 85.9101,160.916 96.5,154C 106.142,150.801 115.309,147.301 124,143.5C 124.333,143.833 124.667,144.167 125,144.5C 129.066,142.964 133.066,141.964 137,141.5C 139.324,142.693 141.49,142.693 143.5,141.5C 144.469,140.691 145.302,139.691 146,138.5C 146.176,135.118 146.676,131.785 147.5,128.5C 148.086,128.291 148.586,127.957 149,127.5C 152.5,131.667 156,135.833 159.5,140C 164.199,141.713 166.532,140.213 166.5,135.5C 167.222,135.918 167.722,136.584 168,137.5C 169.423,132.379 170.423,132.379 171,137.5C 171.171,128.99 171.671,120.657 172.5,112.5 Z"/></g>
<g><path style="opacity:1" fill="#86907b" d="M 173.5,151.5 C 173.539,152.583 173.873,153.583 174.5,154.5C 173.284,155.096 171.951,155.263 170.5,155C 172.001,156.252 173.668,157.252 175.5,158C 174.672,158.915 173.672,159.581 172.5,160C 174.433,160.251 176.266,160.751 178,161.5C 180.269,160.405 182.436,160.739 184.5,162.5C 187.292,161.555 189.792,161.555 192,162.5C 193.229,160.053 194.729,159.887 196.5,162C 195.001,162.838 194.668,163.671 195.5,164.5C 189.837,170.006 183.17,174.006 175.5,176.5C 175.146,174.459 175.146,172.626 175.5,171C 174.833,170.333 174.167,169.667 173.5,169C 169.579,168.026 165.746,166.859 162,165.5C 160.984,166.634 160.317,166.301 160,164.5C 158.333,164.5 156.667,164.5 155,164.5C 154.667,163.833 154.333,163.167 154,162.5C 151.667,163.833 150.667,163.167 151,160.5C 152.135,160.273 153.302,159.94 154.5,159.5C 148.863,158.337 143.196,158.17 137.5,159C 134.128,159.134 130.961,159.968 128,161.5C 126.044,161.339 124.044,161.006 122,160.5C 115.047,162.615 108.213,165.115 101.5,168C 94.228,172.274 87.228,176.941 80.5,182C 82.3427,182.159 83.0093,182.659 82.5,183.5C 79.2154,183.072 76.2154,182.072 73.5,180.5C 72.5707,179.685 71.5707,178.852 70.5,178C 75.2114,173.62 80.2114,169.62 85.5,166C 102.323,156.303 119.823,150.136 138,147.5C 139.059,147.63 139.892,148.13 140.5,149C 138.623,150.185 136.623,151.185 134.5,152C 135.5,152.333 136.5,152.667 137.5,153C 143.618,152.704 149.118,152.871 154,153.5C 158.8,153.036 163.467,152.036 168,150.5C 169.699,151.406 171.533,151.739 173.5,151.5 Z"/></g>
<g><path style="opacity:1" fill="#93907b" d="M 175.5,176.5 C 170.618,179.464 165.285,181.464 159.5,182.5C 155.992,179.56 152.158,176.894 148,174.5C 130.584,170.68 114.084,173.847 98.5,184C 97.7476,184.671 97.4142,185.504 97.5,186.5C 92.1059,186.876 87.1059,185.876 82.5,183.5C 83.0093,182.659 82.3427,182.159 80.5,182C 87.228,176.941 94.228,172.274 101.5,168C 108.213,165.115 115.047,162.615 122,160.5C 124.044,161.006 126.044,161.339 128,161.5C 130.961,159.968 134.128,159.134 137.5,159C 143.196,158.17 148.863,158.337 154.5,159.5C 153.302,159.94 152.135,160.273 151,160.5C 150.667,163.167 151.667,163.833 154,162.5C 154.333,163.167 154.667,163.833 155,164.5C 156.667,164.5 158.333,164.5 160,164.5C 160.317,166.301 160.984,166.634 162,165.5C 165.746,166.859 169.579,168.026 173.5,169C 174.167,169.667 174.833,170.333 175.5,171C 175.146,172.626 175.146,174.459 175.5,176.5 Z"/></g>
<g><path style="opacity:1" fill="#a3907b" d="M 159.5,182.5 C 150.977,184.717 142.311,186.717 133.5,188.5C 133.389,187.883 133.056,187.383 132.5,187C 124.54,185.73 117.374,186.897 111,190.5C 110.329,189.748 109.496,189.414 108.5,189.5C 105.009,187.892 101.342,186.892 97.5,186.5C 97.4142,185.504 97.7476,184.671 98.5,184C 114.084,173.847 130.584,170.68 148,174.5C 152.158,176.894 155.992,179.56 159.5,182.5 Z"/></g>
<g><path style="opacity:1" fill="#b88f7b" d="M 133.5,188.5 C 129.88,190.285 127.047,192.952 125,196.5C 124.828,203.013 124.328,209.347 123.5,215.5C 123.666,210.489 123.499,205.489 123,200.5C 121.648,202.432 119.815,203.766 117.5,204.5C 116.808,203.975 116.308,203.308 116,202.5C 115.501,206.821 115.334,211.154 115.5,215.5C 114.672,209.347 114.172,203.013 114,196.5C 112.334,194.004 110.5,191.671 108.5,189.5C 109.496,189.414 110.329,189.748 111,190.5C 117.374,186.897 124.54,185.73 132.5,187C 133.056,187.383 133.389,187.883 133.5,188.5 Z"/></g>
<g><path style="opacity:1" fill="#d08a75" d="M 123.5,215.5 C 120.757,218.059 118.09,218.059 115.5,215.5C 115.334,211.154 115.501,206.821 116,202.5C 116.308,203.308 116.808,203.975 117.5,204.5C 119.815,203.766 121.648,202.432 123,200.5C 123.499,205.489 123.666,210.489 123.5,215.5 Z"/></g>
</svg>
