<?xml version="1.0" encoding="UTF-8"?>
<svg xmlns="http://www.w3.org/2000/svg" width="1600" height="1100" version="1.1" viewBox="0 0 423.33 291.04">
  <g transform="translate(-27.597 12.24)">
    <path d="m51.708 62.175h-10.029v-21.505h20.057v21.505z" fill="#729fcf" fill-rule="evenodd"/>
    <path d="m51.708 62.175h-10.029v-21.505h20.057v21.505h-10.029" fill="none" stroke="#3465a4" stroke-linecap="round" stroke-linejoin="round" stroke-width=".016353px"/>
    <path d="m111.88 78.278h-30.086v-53.763h60.172v53.763z" fill="#81d41a" fill-rule="evenodd"/>
    <path d="m111.88 78.278h-30.086v-53.763h60.172v53.763h-30.086" fill="none" stroke="#3465a4" stroke-linecap="round" stroke-linejoin="round" stroke-width=".016353px"/>
    <path d="m111.88 67.526h-30.086v-32.258h60.172v32.258z" fill="#55308d" fill-rule="evenodd"/>
    <path d="m111.88 67.526h-30.086v-32.258h60.172v32.258h-30.086" fill="none" stroke="#3465a4" stroke-linecap="round" stroke-linejoin="round" stroke-width=".016353px"/>
    <path d="m111.88 56.773h-30.086v-10.753h60.172v10.753z" fill="#ff8000" fill-rule="evenodd"/>
    <path d="m111.88 56.773h-30.086v-10.753h60.172v10.753h-30.086" fill="none" stroke="#3465a4" stroke-linecap="round" stroke-linejoin="round" stroke-width=".016353px"/>
    <path d="m192.11 218.06h-30.086v-32.258h60.172v32.258z" fill="#55308d" fill-rule="evenodd"/>
    <path d="m192.11 218.06h-30.086v-32.258h60.172v32.258h-30.086" fill="none" stroke="#3465a4" stroke-linecap="round" stroke-linejoin="round" stroke-width=".016353px"/>
    <path d="m111.88 228.81h-30.086v-53.763h60.172v53.763z" fill="#81d41a" fill-rule="evenodd"/>
    <path d="m111.88 228.81h-30.086v-53.763h60.172v53.763h-30.086" fill="none" stroke="#3465a4" stroke-linecap="round" stroke-linejoin="round" stroke-width=".016353px"/>
    <path d="m111.88 218.06h-30.086v-32.258h60.172v32.258z" fill="#55308d" fill-rule="evenodd"/>
    <path d="m111.88 218.06h-30.086v-32.258h60.172v32.258h-30.086" fill="none" stroke="#3465a4" stroke-linecap="round" stroke-linejoin="round" stroke-width=".016353px"/>
    <path d="m111.88 207.31h-30.086v-10.753h60.172v10.753z" fill="#ff8000" fill-rule="evenodd"/>
    <path d="m111.88 207.31h-30.086v-10.753h60.172v10.753h-30.086" fill="none" stroke="#3465a4" stroke-linecap="round" stroke-linejoin="round" stroke-width=".016353px"/>
    <path d="m192.11 67.526h-30.086v-32.258h60.172v32.258z" fill="#55308d" fill-rule="evenodd"/>
    <path d="m192.11 67.526h-30.086v-32.258h60.172v32.258h-30.086" fill="none" stroke="#3465a4" stroke-linecap="round" stroke-linejoin="round" stroke-width=".016353px"/>
    <path d="m192.11 207.31h-30.086v-10.753h60.172v10.753z" fill="#ff8000" fill-rule="evenodd"/>
    <path d="m192.11 207.31h-30.086v-10.753h60.172v10.753h-30.086" fill="none" stroke="#3465a4" stroke-linecap="round" stroke-linejoin="round" stroke-width=".016353px"/>
    <path d="m192.11 56.773h-30.086v-10.753h60.172v10.753z" fill="#ff8000" fill-rule="evenodd"/>
    <path d="m192.11 56.773h-30.086v-10.753h60.172v10.753h-30.086" fill="none" stroke="#3465a4" stroke-linecap="round" stroke-linejoin="round" stroke-width=".016353px"/>
    <path d="m272.34 56.773h-30.086v-10.753h60.172v10.753z" fill="#ff8000" fill-rule="evenodd"/>
    <path d="m272.34 56.773h-30.086v-10.753h60.172v10.753h-30.086" fill="none" stroke="#3465a4" stroke-linecap="round" stroke-linejoin="round" stroke-width=".016353px"/>
    <path d="m272.34 207.31h-30.086v-10.753h60.172v10.753z" fill="#ff8000" fill-rule="evenodd"/>
    <path d="m272.34 207.31h-30.086v-10.753h60.172v10.753h-30.086" fill="none" stroke="#3465a4" stroke-linecap="round" stroke-linejoin="round" stroke-width=".016353px"/>
    <path d="m51.708 212.71h-10.029v-21.505h20.057v21.505z" fill="#729fcf" fill-rule="evenodd"/>
    <path d="m51.708 212.71h-10.029v-21.505h20.057v21.505h-10.029" fill="none" stroke="#3465a4" stroke-linecap="round" stroke-linejoin="round" stroke-width=".016353px"/>
    <path d="m162.01 51.439c0 1.8796-0.458 3.7423-1.3424 5.3679-0.88442 1.6425-2.1479 2.9972-3.664 3.9455-1.532 0.94826-3.2692 1.4393-5.0222 1.4393s-3.4903-0.49106-5.0064-1.4393c-1.5319-0.94826-2.7954-2.3029-3.6798-3.9455-0.88442-1.6256-1.3424-3.4883-1.3424-5.3679 0-1.8965 0.45801-3.7592 1.3424-5.3848 0.88441-1.6425 2.1479-2.9972 3.6798-3.9455 1.5162-0.94826 3.2534-1.4393 5.0064-1.4393s3.4903 0.49107 5.0222 1.4393c1.5162 0.94827 2.7796 2.3029 3.664 3.9455 0.88442 1.6256 1.3424 3.4883 1.3424 5.3679z" fill="#81d41a" fill-rule="evenodd"/>
    <path d="m162.01 51.439c0 1.8796-0.458 3.7423-1.3424 5.3679-0.88442 1.6425-2.1479 2.9972-3.664 3.9455-1.532 0.94826-3.2692 1.4393-5.0222 1.4393s-3.4903-0.49106-5.0064-1.4393c-1.5319-0.94826-2.7954-2.3029-3.6798-3.9455-0.88442-1.6256-1.3424-3.4883-1.3424-5.3679 0-1.8965 0.45801-3.7592 1.3424-5.3848 0.88441-1.6425 2.1479-2.9972 3.6798-3.9455 1.5162-0.94826 3.2534-1.4393 5.0064-1.4393s3.4903 0.49107 5.0222 1.4393c1.5162 0.94827 2.7796 2.3029 3.664 3.9455 0.88442 1.6256 1.3424 3.4883 1.3424 5.3679v0.0169" fill="none" stroke="#3465a4" stroke-linecap="round" stroke-linejoin="round" stroke-width=".016353px"/>
    <path d="m242.25 51.439c0 1.8796-0.458 3.7423-1.3424 5.3679-0.88442 1.6425-2.1479 2.9972-3.664 3.9455-1.5319 0.94826-3.2692 1.4393-5.0222 1.4393s-3.4903-0.49106-5.0064-1.4393c-1.5319-0.94826-2.7954-2.3029-3.6798-3.9455-0.88442-1.6256-1.3424-3.4883-1.3424-5.3679 0-1.8965 0.458-3.7592 1.3424-5.3848 0.88442-1.6425 2.1479-2.9972 3.6798-3.9455 1.5162-0.94826 3.2534-1.4393 5.0064-1.4393s3.4903 0.49107 5.0222 1.4393c1.5162 0.94827 2.7796 2.3029 3.664 3.9455 0.88442 1.6256 1.3424 3.4883 1.3424 5.3679z" fill="#55308d" fill-rule="evenodd"/>
    <path d="m242.25 51.439c0 1.8796-0.458 3.7423-1.3424 5.3679-0.88442 1.6425-2.1479 2.9972-3.664 3.9455-1.5319 0.94826-3.2692 1.4393-5.0222 1.4393s-3.4903-0.49106-5.0064-1.4393c-1.5319-0.94826-2.7954-2.3029-3.6798-3.9455-0.88442-1.6256-1.3424-3.4883-1.3424-5.3679 0-1.8965 0.458-3.7592 1.3424-5.3848 0.88442-1.6425 2.1479-2.9972 3.6798-3.9455 1.5162-0.94826 3.2534-1.4393 5.0064-1.4393s3.4903 0.49107 5.0222 1.4393c1.5162 0.94827 2.7796 2.3029 3.664 3.9455 0.88442 1.6256 1.3424 3.4883 1.3424 5.3679v0.0169" fill="none" stroke="#3465a4" stroke-linecap="round" stroke-linejoin="round" stroke-width=".016353px"/>
    <path d="m322.47 51.439c0 1.8796-0.45802 3.7423-1.3424 5.3679-0.88443 1.6425-2.1479 2.9972-3.664 3.9455-1.532 0.94826-3.2692 1.4393-5.0222 1.4393s-3.4903-0.49106-5.0064-1.4393c-1.532-0.94826-2.7954-2.3029-3.6798-3.9455-0.8844-1.6256-1.3424-3.4883-1.3424-5.3679 0-1.8965 0.45802-3.7592 1.3424-5.3848 0.88443-1.6425 2.1479-2.9972 3.6798-3.9455 1.5161-0.94826 3.2534-1.4393 5.0064-1.4393s3.4903 0.49107 5.0222 1.4393c1.5162 0.94827 2.7796 2.3029 3.664 3.9455 0.8844 1.6256 1.3424 3.4883 1.3424 5.3679z" fill="#ff8000" fill-rule="evenodd"/>
    <path d="m322.47 51.439c0 1.8796-0.45802 3.7423-1.3424 5.3679-0.88443 1.6425-2.1479 2.9972-3.664 3.9455-1.532 0.94826-3.2692 1.4393-5.0222 1.4393s-3.4903-0.49106-5.0064-1.4393c-1.532-0.94826-2.7954-2.3029-3.6798-3.9455-0.8844-1.6256-1.3424-3.4883-1.3424-5.3679 0-1.8965 0.45802-3.7592 1.3424-5.3848 0.88443-1.6425 2.1479-2.9972 3.6798-3.9455 1.5161-0.94826 3.2534-1.4393 5.0064-1.4393s3.4903 0.49107 5.0222 1.4393c1.5162 0.94827 2.7796 2.3029 3.664 3.9455 0.8844 1.6256 1.3424 3.4883 1.3424 5.3679v0.0169" fill="none" stroke="#3465a4" stroke-linecap="round" stroke-linejoin="round" stroke-width=".016353px"/>
    <path d="m162.02 201.97c0 1.8796-0.45801 3.7422-1.3424 5.3678-0.88442 1.6425-2.1479 2.9972-3.664 3.9455-1.5319 0.94826-3.2692 1.4393-5.0222 1.4393s-3.4903-0.49107-5.0064-1.4393c-1.532-0.94826-2.7954-2.3029-3.6798-3.9455-0.88441-1.6256-1.3424-3.4882-1.3424-5.3678 0-1.8965 0.45801-3.7592 1.3424-5.3848 0.88443-1.6425 2.1479-2.9972 3.6798-3.9454 1.5161-0.94827 3.2534-1.4393 5.0064-1.4393s3.4903 0.49106 5.0222 1.4393c1.5162 0.94826 2.7796 2.3029 3.664 3.9454 0.88441 1.6256 1.3424 3.4883 1.3424 5.3848z" fill="#81d41a" fill-rule="evenodd"/>
    <path d="m162.02 201.97c0 1.8796-0.45801 3.7422-1.3424 5.3678-0.88442 1.6425-2.1479 2.9972-3.664 3.9455-1.5319 0.94826-3.2692 1.4393-5.0222 1.4393s-3.4903-0.49107-5.0064-1.4393c-1.532-0.94826-2.7954-2.3029-3.6798-3.9455-0.88441-1.6256-1.3424-3.4882-1.3424-5.3678 0-1.8965 0.45801-3.7592 1.3424-5.3848 0.88443-1.6425 2.1479-2.9972 3.6798-3.9454 1.5161-0.94827 3.2534-1.4393 5.0064-1.4393s3.4903 0.49106 5.0222 1.4393c1.5162 0.94826 2.7796 2.3029 3.664 3.9454 0.88441 1.6256 1.3424 3.4883 1.3424 5.3848" fill="none" stroke="#3465a4" stroke-linecap="round" stroke-linejoin="round" stroke-width=".016353px"/>
    <path d="m242.24 201.97c0 1.8796-0.45801 3.7422-1.3424 5.3678-0.88442 1.6425-2.1479 2.9972-3.664 3.9455-1.5319 0.94826-3.2692 1.4393-5.0222 1.4393s-3.4903-0.49107-5.0064-1.4393c-1.5319-0.94826-2.7954-2.3029-3.6798-3.9455-0.88442-1.6256-1.3424-3.4882-1.3424-5.3678 0-1.8965 0.458-3.7592 1.3424-5.3848 0.88442-1.6425 2.1479-2.9972 3.6798-3.9454 1.5162-0.94827 3.2534-1.4393 5.0064-1.4393s3.4903 0.49106 5.0222 1.4393c1.5162 0.94826 2.7796 2.3029 3.664 3.9454 0.88442 1.6256 1.3424 3.4883 1.3424 5.3848z" fill="#55308d" fill-rule="evenodd"/>
    <path d="m242.24 201.97c0 1.8796-0.45801 3.7422-1.3424 5.3678-0.88442 1.6425-2.1479 2.9972-3.664 3.9455-1.5319 0.94826-3.2692 1.4393-5.0222 1.4393s-3.4903-0.49107-5.0064-1.4393c-1.5319-0.94826-2.7954-2.3029-3.6798-3.9455-0.88442-1.6256-1.3424-3.4882-1.3424-5.3678 0-1.8965 0.458-3.7592 1.3424-5.3848 0.88442-1.6425 2.1479-2.9972 3.6798-3.9454 1.5162-0.94827 3.2534-1.4393 5.0064-1.4393s3.4903 0.49106 5.0222 1.4393c1.5162 0.94826 2.7796 2.3029 3.664 3.9454 0.88442 1.6256 1.3424 3.4883 1.3424 5.3848" fill="none" stroke="#3465a4" stroke-linecap="round" stroke-linejoin="round" stroke-width=".016353px"/>
    <path d="m322.48 201.97c0 1.8796-0.45802 3.7422-1.3424 5.3678-0.88443 1.6425-2.1479 2.9972-3.664 3.9455-1.5319 0.94826-3.2692 1.4393-5.0222 1.4393s-3.4903-0.49107-5.0064-1.4393c-1.5319-0.94826-2.7954-2.3029-3.6798-3.9455-0.88443-1.6256-1.3424-3.4882-1.3424-5.3678 0-1.8965 0.45799-3.7592 1.3424-5.3848 0.8844-1.6425 2.1479-2.9972 3.6798-3.9454 1.5161-0.94827 3.2534-1.4393 5.0064-1.4393s3.4903 0.49106 5.0222 1.4393c1.5161 0.94826 2.7796 2.3029 3.664 3.9454 0.8844 1.6256 1.3424 3.4883 1.3424 5.3848z" fill="#ff8000" fill-rule="evenodd"/>
    <path d="m322.48 201.97c0 1.8796-0.45802 3.7422-1.3424 5.3678-0.88443 1.6425-2.1479 2.9972-3.664 3.9455-1.5319 0.94826-3.2692 1.4393-5.0222 1.4393s-3.4903-0.49107-5.0064-1.4393c-1.5319-0.94826-2.7954-2.3029-3.6798-3.9455-0.88443-1.6256-1.3424-3.4882-1.3424-5.3678 0-1.8965 0.45799-3.7592 1.3424-5.3848 0.8844-1.6425 2.1479-2.9972 3.6798-3.9454 1.5161-0.94827 3.2534-1.4393 5.0064-1.4393s3.4903 0.49106 5.0222 1.4393c1.5161 0.94826 2.7796 2.3029 3.664 3.9454 0.8844 1.6256 1.3424 3.4883 1.3424 5.3848" fill="none" stroke="#3465a4" stroke-linecap="round" stroke-linejoin="round" stroke-width=".016353px"/>
    <path d="m390.16 40.67 12.54 21.522h-25.08z" fill="#729fcf" fill-rule="evenodd"/>
    <path d="m390.16 40.67 12.54 21.522h-25.08l12.54-21.522" fill="none" stroke="#3465a4" stroke-linecap="round" stroke-linejoin="round" stroke-width=".016353px"/>
    <path d="m390.17 191.2 12.54 21.522h-25.08z" fill="#729fcf" fill-rule="evenodd"/>
    <path d="m390.17 191.2 12.54 21.522h-25.08l12.54-21.522" fill="none" stroke="#3465a4" stroke-linecap="round" stroke-linejoin="round" stroke-width=".016353px"/>
    <g transform="translate(1.454e-4,7.6627)" font-family="'Liberation Sans'" font-size="10.373px" font-weight="400" letter-spacing="0px" stroke-width=".43334" word-spacing="0px">
      <text transform="scale(.96575 1.0355)" x="42.045822" y="83.470764" style="line-height:125%" xml:space="preserve">
        <tspan x="42.045822" y="83.470764">
          <tspan x="42.045822" y="83.470764" stroke-width=".43334">Votre</tspan>
        </tspan>
        <tspan x="42.045822" y="96.437141">Appareil</tspan>
      </text>
      <text transform="scale(.96575 1.0355)" x="68.014885" y="6.9863148" style="line-height:125%" xml:space="preserve">
        <tspan x="68.014885" y="6.9863148" stroke-width=".43334">
          <tspan dx="0" dy="0" fill="#000000" font-family="'Liberation Sans'" font-size="10.373px" font-weight="400" stroke-width=".43334">Envoi de données à un site Web</tspan>
        </tspan>
      </text>
      <text transform="scale(.96575 1.0355)" x="78.399231" y="152.36726" style="line-height:125%" xml:space="preserve">
        <tspan x="78.399231" y="152.36726" stroke-width=".43334">
          <tspan dx="0" dy="0" fill="#000000" font-family="'Liberation Sans'" font-size="10.373px" font-weight="400" stroke-width=".43334">Réception de données d'un site Web</tspan>
        </tspan>
      </text>
      <text transform="scale(.96575 1.0355)" x="42.06218" y="230.09454" style="line-height:125%" xml:space="preserve">
        <tspan x="42.06218" y="230.09454">
          <tspan x="42.06218" y="230.09454" stroke-width=".43334">Votre<tspan fill="#000000" font-family="'Liberation Sans'" font-size="10.373px" font-weight="400" stroke-width=".43334"/></tspan>
        </tspan>
        <tspan x="42.06218" y="243.06091">Appareil</tspan>
      </text>
      <text transform="scale(.96575 1.0355)" x="145.88936" y="230.25807" style="line-height:125%" xml:space="preserve">
        <tspan x="145.88936" y="230.25807" stroke-width=".43334">
          <tspan dx="0" dy="0" fill="#000000" font-family="'Liberation Sans'" font-size="10.373px" font-weight="400" stroke-width=".43334">Entrée</tspan>
        </tspan>
      </text>
      <text transform="scale(.96575 1.0355)" x="223.78017" y="230.25807" style="line-height:125%" xml:space="preserve">
        <tspan x="223.78017" y="230.25807" stroke-width=".43334">
          <tspan dx="0" dy="0" fill="#000000" font-family="'Liberation Sans'" font-size="10.373px" font-weight="400" stroke-width=".43334">Milieu</tspan>
        </tspan>
      </text>
      <text transform="scale(.96575 1.0355)" x="312.03897" y="230.24173" style="line-height:125%" xml:space="preserve">
        <tspan x="312.03897" y="230.24173" stroke-width=".43334">
          <tspan dx="0" dy="0" fill="#000000" font-family="'Liberation Sans'" font-size="10.373px" font-weight="400" stroke-width=".43334">Sortie</tspan>
        </tspan>
      </text>
      <text transform="scale(.96575 1.0355)" x="363.96078" y="228.85168" style="line-height:125%" xml:space="preserve">
        <tspan x="363.96078" y="228.85168" stroke-width=".43334">
          <tspan dx="0" dy="0" fill="#000000" font-family="'Liberation Sans'" font-size="10.373px" font-weight="400" stroke-width=".43334">PrivacyGuides.org</tspan>
        </tspan>
      </text>
      <text transform="scale(.96575 1.0355)" x="369.14478" y="83.850639" style="line-height:125%" xml:space="preserve">
        <tspan x="369.14478" y="83.850639" stroke-width=".43334">
          <tspan dx="0" dy="0" fill="#000000" font-family="'Liberation Sans'" font-size="10.373px" font-weight="400" stroke-width=".43334">PrivacyGuides.org</tspan>
        </tspan>
      </text>
      <text transform="scale(.96575 1.0355)" x="145.88936" y="85.257019" style="line-height:125%" xml:space="preserve">
        <tspan x="145.88936" y="85.257019" stroke-width=".43334">
          <tspan dx="0" dy="0" fill="#000000" font-family="'Liberation Sans'" font-size="10.373px" font-weight="400" stroke-width=".43334">Entrée</tspan>
        </tspan>
      </text>
      <text transform="scale(.96575 1.0355)" x="226.64198" y="85.257019" style="line-height:125%" xml:space="preserve">
        <tspan x="226.64198" y="85.257019" stroke-width=".43334">
          <tspan dx="0" dy="0" fill="#000000" font-family="'Liberation Sans'" font-size="10.373px" font-weight="400" stroke-width=".43334">Milieu</tspan>
        </tspan>
      </text>
      <text transform="scale(.96575 1.0355)" x="312.49686" y="85.077118" style="line-height:125%" xml:space="preserve">
        <tspan x="312.49686" y="85.077118" stroke-width=".43334">
          <tspan dx="0" dy="0" fill="#000000" font-family="'Liberation Sans'" font-size="10.373px" font-weight="400" stroke-width=".43334">Sortie</tspan>
        </tspan>
      </text>
    </g>
    <g transform="translate(1.454e-4,7.6627)" fill-rule="evenodd">
      <path d="m61.737 44.199v-0.88053h74.686v0.88053z"/>
      <path d="m136.03 40.576 5.9382 3.1835-5.9382 3.1835z"/>
      <path d="m162.02 44.199v-0.88053h54.629v0.88053z"/>
      <path d="m216.26 40.576 5.9382 3.1835-5.9382 3.1835z"/>
      <path d="m242.25 44.199v-0.88053h54.629v0.88053z"/>
      <path d="m296.49 40.576 5.9382 3.1835-5.9382 3.1835z"/>
      <path d="m322.48 44.199v-0.88053h54.629v0.88053z"/>
      <path d="m376.72 40.576 5.9382 3.1835-5.9382 3.1835z"/>
      <path d="m382.65 193.86v0.88052h-54.629v-0.88052z"/>
      <path d="m328.42 197.48-5.9382-3.1834 5.9382-3.1835z"/>
      <path d="m302.43 193.86v0.88052h-54.629v-0.88052z"/>
      <path d="m248.19 197.48-5.9382-3.1834 5.9382-3.1835z"/>
      <path d="m222.2 193.86v0.88052h-54.629v-0.88052z"/>
      <path d="m167.96 197.48-5.9382-3.1834 5.9382-3.1835z"/>
      <path d="m141.97 193.86v0.88052h-74.686v-0.88052z"/>
      <path d="m67.675 197.48-5.9382-3.1834 5.9382-3.1835z"/>
    </g>
  </g>
</svg>
