<svg xmlns="http://www.w3.org/2000/svg" width="1530" height="850" version="1.1" viewBox="0 0 404.81 224.9"><path fill="#729fcf" fill-rule="evenodd" d="m43.472 137.96h-20.432v-43.788h40.842v43.788z"/><path fill="none" stroke="#3465a4" stroke-linecap="round" stroke-linejoin="round" stroke-width=".022" d="m43.472 137.96h-20.432v-43.788h40.842v43.788h-20.41"/><path fill="#81d41a" fill-rule="evenodd" d="m127.51 24.896c0 3.8387-0.94333 7.6314-2.7442 10.964-1.7795 3.31-4.3736 6.0913-7.4609 7.9991-3.1087 1.9308-6.6462 2.9422-10.227 2.9422-3.5804 0-7.1178-1.0114-10.205-2.9422-3.1087-1.9078-5.7028-4.6892-7.4823-7.9991-1.8009-3.333-2.7442-7.1257-2.7442-10.964 0-3.8387 0.94333-7.6314 2.7442-10.941 1.7795-3.333 4.3736-6.1143 7.4609-8.0221 3.1087-1.9308 6.6462-2.9422 10.227-2.9422 3.5804 0 7.1178 1.0114 10.205 2.9422 3.1087 1.9078 5.7028 4.6892 7.4823 8.0221 1.8009 3.31 2.7442 7.1027 2.7442 10.941z"/><path fill="none" stroke="#3465a4" stroke-linecap="round" stroke-linejoin="round" stroke-width=".022" d="m127.51 24.862c0 3.8387-0.94333 7.6314-2.7442 10.964-1.7795 3.31-4.3736 6.0913-7.4609 7.9991-3.1087 1.9308-6.6462 2.9422-10.227 2.9422-3.5804 0-7.1178-1.0114-10.205-2.9422-3.1087-1.9078-5.7028-4.6892-7.4823-7.9991-1.8009-3.333-2.7442-7.1257-2.7442-10.964 0-3.8387 0.94333-7.6314 2.7442-10.941 1.7795-3.333 4.3736-6.1143 7.4609-8.0221 3.1087-1.9308 6.6462-2.9422 10.227-2.9422 3.5804 0 7.1178 1.0114 10.205 2.9422 3.1087 1.9078 5.7028 4.6892 7.4823 8.0221 1.8009 3.31 2.7442 7.1027 2.7442 10.941v0"/><path fill="purple" fill-rule="evenodd" d="m209.2 24.919c0 3.8387-0.94332 7.6084-2.7442 10.941-1.7795 3.333-4.3736 6.0913-7.4609 7.9991-3.1087 1.9308-6.6462 2.9422-10.227 2.9422-3.5804 0-7.1178-1.0114-10.205-2.9422-3.1087-1.9078-5.7028-4.6662-7.4823-7.9991-1.8009-3.333-2.7442-7.1027-2.7442-10.941 0-3.8617 0.94333-7.6314 2.7442-10.964 1.7794-3.333 4.3736-6.0913 7.4823-7.9991 3.0872-1.9308 6.6247-2.9422 10.205-2.9422 3.5804 0 7.1178 1.0114 10.227 2.9422 3.0873 1.9078 5.6814 4.6662 7.4609 7.9991 1.8009 3.333 2.7442 7.1027 2.7442 10.964z"/><path fill="none" stroke="#3465a4" stroke-linecap="round" stroke-linejoin="round" stroke-width=".022" d="m209.2 24.885c0 3.8387-0.94332 7.6084-2.7442 10.941-1.7795 3.333-4.3736 6.0913-7.4609 7.9991-3.1087 1.9308-6.6462 2.9422-10.227 2.9422-3.5804 0-7.1178-1.0114-10.205-2.9422-3.1087-1.9078-5.7028-4.6662-7.4823-7.9991-1.8009-3.333-2.7442-7.1027-2.7442-10.941 0-3.8617 0.94333-7.6314 2.7442-10.964 1.7794-3.333 4.3736-6.0913 7.4823-7.9991 3.0872-1.9308 6.6247-2.9422 10.205-2.9422 3.5804 0 7.1178 1.0114 10.227 2.9422 3.0873 1.9078 5.6814 4.6662 7.4609 7.9991 1.8009 3.333 2.7442 7.1027 2.7442 10.964"/><path fill="#ff8000" fill-rule="evenodd" d="m290.88 24.908c0 3.8387-0.94331 7.6084-2.7442 10.941-1.7795 3.333-4.3736 6.0913-7.4609 7.9991-3.1087 1.9308-6.6461 2.9422-10.227 2.9422-3.5803 0-7.1178-1.0114-10.205-2.9422-3.1087-1.9078-5.7028-4.6662-7.4823-7.9991-1.8009-3.333-2.7442-7.1027-2.7442-10.941 0-3.8617 0.94333-7.6314 2.7442-10.964 1.7794-3.333 4.3736-6.0913 7.4823-7.9992 3.0872-1.9308 6.6247-2.9422 10.205-2.9422 3.5804 0 7.1178 1.0114 10.227 2.9422 3.0873 1.9078 5.6814 4.6662 7.4609 7.9992 1.8009 3.333 2.7442 7.1027 2.7442 10.964z"/><path fill="none" stroke="#3465a4" stroke-linecap="round" stroke-linejoin="round" stroke-width=".022" d="m290.88 24.908c0 3.8387-0.94331 7.6084-2.7442 10.941-1.7795 3.333-4.3736 6.0913-7.4609 7.9991-3.1087 1.9308-6.6461 2.9422-10.227 2.9422-3.5803 0-7.1178-1.0114-10.205-2.9422-3.1087-1.9078-5.7028-4.6662-7.4823-7.9991-1.8009-3.333-2.7442-7.1027-2.7442-10.941 0-3.8617 0.94333-7.6314 2.7442-10.964 1.7794-3.333 4.3736-6.0913 7.4823-7.9992 3.0872-1.9308 6.6247-2.9422 10.205-2.9422 3.5804 0 7.1178 1.0114 10.227 2.9422 3.0873 1.9078 5.6814 4.6662 7.4609 7.9992 1.8009 3.333 2.7442 7.1027 2.7442 10.964"/><path fill="#81d41a" fill-rule="evenodd" d="m127.51 114.54c0 3.8387-0.94333 7.6084-2.7442 10.941-1.7795 3.333-4.3736 6.0913-7.4609 7.9991-3.1087 1.9308-6.6462 2.9422-10.227 2.9422-3.5804 0-7.1178-1.0114-10.205-2.9422-3.1087-1.9078-5.7028-4.6662-7.4823-7.9991-1.8009-3.333-2.7442-7.1027-2.7442-10.941 0-3.8617 0.94333-7.6314 2.7442-10.964 1.7795-3.333 4.3736-6.0913 7.4609-7.9991 3.1087-1.9308 6.6462-2.9422 10.227-2.9422 3.5804 0 7.1178 1.0114 10.205 2.9422 3.1087 1.9078 5.7028 4.6662 7.4823 7.9991 1.8009 3.333 2.7442 7.1027 2.7442 10.964z"/><path fill="none" stroke="#3465a4" stroke-linecap="round" stroke-linejoin="round" stroke-width=".022" d="m127.51 116.1c0 3.8387-0.94333 7.6084-2.7442 10.941-1.7795 3.333-4.3736 6.0913-7.4609 7.9991-3.1087 1.9308-6.6462 2.9422-10.227 2.9422-3.5804 0-7.1178-1.0114-10.205-2.9422-3.1087-1.9078-5.7028-4.6662-7.4823-7.9991-1.8009-3.333-2.7442-7.1027-2.7442-10.941 0-3.8617 0.94333-7.6314 2.7442-10.964 1.7795-3.333 4.3736-6.0913 7.4609-7.9991 3.1087-1.9308 6.6462-2.9422 10.227-2.9422 3.5804 0 7.1178 1.0114 10.205 2.9422 3.1087 1.9078 5.7028 4.6662 7.4823 7.9991 1.8009 3.333 2.7442 7.1027 2.7442 10.964"/><path fill="purple" fill-rule="evenodd" d="m209.2 114.54c0 3.8387-0.94332 7.6084-2.7442 10.941-1.7795 3.333-4.3736 6.0913-7.4609 7.9991-3.1087 1.9308-6.6462 2.9422-10.227 2.9422-3.5804 0-7.1178-1.0114-10.205-2.9422-3.1087-1.9078-5.7028-4.6662-7.4823-7.9991-1.8009-3.333-2.7442-7.1027-2.7442-10.941 0-3.8617 0.94333-7.6314 2.7442-10.964 1.7794-3.333 4.3736-6.0913 7.4823-7.9991 3.0872-1.9308 6.6247-2.9422 10.205-2.9422 3.5804 0 7.1178 1.0114 10.227 2.9422 3.0873 1.9078 5.6814 4.6662 7.4609 7.9991 1.8009 3.333 2.7442 7.1027 2.7442 10.964z"/><path fill="none" stroke="#3465a4" stroke-linecap="round" stroke-linejoin="round" stroke-width=".022" d="m209.2 116.1c0 3.8387-0.94332 7.6084-2.7442 10.941-1.7795 3.333-4.3736 6.0913-7.4609 7.9991-3.1087 1.9308-6.6462 2.9422-10.227 2.9422-3.5804 0-7.1178-1.0114-10.205-2.9422-3.1087-1.9078-5.7028-4.6662-7.4823-7.9991-1.8009-3.333-2.7442-7.1027-2.7442-10.941 0-3.8617 0.94333-7.6314 2.7442-10.964 1.7794-3.333 4.3736-6.0913 7.4823-7.9991 3.0872-1.9308 6.6247-2.9422 10.205-2.9422 3.5804 0 7.1178 1.0114 10.227 2.9422 3.0873 1.9078 5.6814 4.6662 7.4609 7.9991 1.8009 3.333 2.7442 7.1027 2.7442 10.964"/><path fill="#ff8000" fill-rule="evenodd" d="m290.88 114.54c0 3.8387-0.94331 7.6084-2.7442 10.941-1.7795 3.333-4.3736 6.0913-7.4609 7.9991-3.1087 1.9308-6.6461 2.9422-10.227 2.9422-3.5803 0-7.1178-1.0114-10.205-2.9422-3.1087-1.9078-5.7028-4.6662-7.4823-7.9991-1.8009-3.333-2.7442-7.1027-2.7442-10.941 0-3.8617 0.94333-7.6314 2.7442-10.964 1.7794-3.333 4.3736-6.0913 7.4823-7.9991 3.0872-1.9308 6.6247-2.9422 10.205-2.9422 3.5804 0 7.1178 1.0114 10.227 2.9422 3.0873 1.9078 5.6814 4.6662 7.4609 7.9991 1.8009 3.333 2.7442 7.1027 2.7442 10.964z"/><path fill="none" stroke="#3465a4" stroke-linecap="round" stroke-linejoin="round" stroke-width=".022" d="m290.88 114.54c0 3.8387-0.94331 7.6084-2.7442 10.941-1.7795 3.333-4.3736 6.0913-7.4609 7.9991-3.1087 1.9308-6.6461 2.9422-10.227 2.9422-3.5803 0-7.1178-1.0114-10.205-2.9422-3.1087-1.9078-5.7028-4.6662-7.4823-7.9991-1.8009-3.333-2.7442-7.1027-2.7442-10.941 0-3.8617 0.94333-7.6314 2.7442-10.964 1.7794-3.333 4.3736-6.0913 7.4823-7.9991 3.0872-1.9308 6.6247-2.9422 10.205-2.9422 3.5804 0 7.1178 1.0114 10.227 2.9422 3.0873 1.9078 5.6814 4.6662 7.4609 7.9991 1.8009 3.333 2.7442 7.1027 2.7442 10.964"/><path fill="#81d41a" fill-rule="evenodd" d="m127.51 200.04c0 3.8387-0.94333 7.6084-2.7442 10.941-1.7795 3.333-4.3736 6.0913-7.4609 7.9992-3.1087 1.9308-6.6462 2.9422-10.227 2.9422-3.5804 0-7.1178-1.0114-10.205-2.9422-3.1087-1.9078-5.7028-4.6662-7.4823-7.9992-1.8009-3.333-2.7442-7.1027-2.7442-10.941 0-3.8617 0.94333-7.6314 2.7442-10.964 1.7795-3.333 4.3736-6.0913 7.4609-7.9991 3.1087-1.9308 6.6462-2.9422 10.227-2.9422 3.5804 0 7.1178 1.0114 10.205 2.9422 3.1087 1.9078 5.7028 4.6662 7.4823 7.9991 1.8009 3.333 2.7442 7.1027 2.7442 10.964z"/><path fill="none" stroke="#3465a4" stroke-linecap="round" stroke-linejoin="round" stroke-width=".022" d="m127.51 200.04c0 3.8387-0.94333 7.6084-2.7442 10.941-1.7795 3.333-4.3736 6.0913-7.4609 7.9992-3.1087 1.9308-6.6462 2.9422-10.227 2.9422-3.5804 0-7.1178-1.0114-10.205-2.9422-3.1087-1.9078-5.7028-4.6662-7.4823-7.9992-1.8009-3.333-2.7442-7.1027-2.7442-10.941 0-3.8617 0.94333-7.6314 2.7442-10.964 1.7795-3.333 4.3736-6.0913 7.4609-7.9991 3.1087-1.9308 6.6462-2.9422 10.227-2.9422 3.5804 0 7.1178 1.0114 10.205 2.9422 3.1087 1.9078 5.7028 4.6662 7.4823 7.9991 1.8009 3.333 2.7442 7.1027 2.7442 10.964"/><path fill="purple" fill-rule="evenodd" d="m209.2 200.06c0 3.8387-0.94332 7.6084-2.7442 10.941-1.7795 3.333-4.3736 6.0913-7.4609 7.9992-3.1087 1.9308-6.6462 2.9422-10.227 2.9422-3.5804 0-7.1178-1.0114-10.205-2.9422-3.1087-1.9078-5.7028-4.6662-7.4823-7.9992-1.8009-3.333-2.7442-7.1027-2.7442-10.941 0-3.8617 0.94333-7.6314 2.7442-10.964 1.7794-3.333 4.3736-6.0913 7.4823-7.9992 3.0872-1.9308 6.6247-2.9422 10.205-2.9422 3.5804 0 7.1178 1.0114 10.227 2.9422 3.0873 1.9078 5.6814 4.6662 7.4609 7.9992 1.8009 3.333 2.7442 7.1027 2.7442 10.964z"/><path fill="none" stroke="#3465a4" stroke-linecap="round" stroke-linejoin="round" stroke-width=".022" d="m209.2 200.06c0 3.8387-0.94332 7.6084-2.7442 10.941-1.7795 3.333-4.3736 6.0913-7.4609 7.9992-3.1087 1.9308-6.6462 2.9422-10.227 2.9422-3.5804 0-7.1178-1.0114-10.205-2.9422-3.1087-1.9078-5.7028-4.6662-7.4823-7.9992-1.8009-3.333-2.7442-7.1027-2.7442-10.941 0-3.8617 0.94333-7.6314 2.7442-10.964 1.7794-3.333 4.3736-6.0913 7.4823-7.9992 3.0872-1.9308 6.6247-2.9422 10.205-2.9422 3.5804 0 7.1178 1.0114 10.227 2.9422 3.0873 1.9078 5.6814 4.6662 7.4609 7.9992 1.8009 3.333 2.7442 7.1027 2.7442 10.964"/><path fill="#ff8000" fill-rule="evenodd" d="m290.88 200.06c0 3.8387-0.94331 7.6084-2.7442 10.941-1.7795 3.333-4.3736 6.0913-7.4609 7.9992-3.1087 1.9308-6.6461 2.9422-10.227 2.9422-3.5803 0-7.1178-1.0114-10.205-2.9422-3.1087-1.9078-5.7028-4.6662-7.4823-7.9992-1.8009-3.333-2.7442-7.1027-2.7442-10.941 0-3.8617 0.94333-7.6314 2.7442-10.964 1.7794-3.333 4.3736-6.0913 7.4823-7.9992 3.0872-1.9308 6.6247-2.9422 10.205-2.9422 3.5804 0 7.1178 1.0114 10.227 2.9422 3.0873 1.9078 5.6814 4.6662 7.4609 7.9992 1.8009 3.333 2.7442 7.1027 2.7442 10.964z"/><path fill="none" stroke="#3465a4" stroke-linecap="round" stroke-linejoin="round" stroke-width=".022" d="m290.88 200.06c0 3.8387-0.94331 7.6084-2.7442 10.941-1.7795 3.333-4.3736 6.0913-7.4609 7.9992-3.1087 1.9308-6.6461 2.9422-10.227 2.9422-3.5803 0-7.1178-1.0114-10.205-2.9422-3.1087-1.9078-5.7028-4.6662-7.4823-7.9992-1.8009-3.333-2.7442-7.1027-2.7442-10.941 0-3.8617 0.94333-7.6314 2.7442-10.964 1.7794-3.333 4.3736-6.0913 7.4823-7.9992 3.0872-1.9308 6.6247-2.9422 10.205-2.9422 3.5804 0 7.1178 1.0114 10.227 2.9422 3.0873 1.9078 5.6814 4.6662 7.4609 7.9992 1.8009 3.333 2.7442 7.1027 2.7442 10.964"/><path fill="#729fcf" fill-rule="evenodd" d="m354.66 86.912 24.741 46.225h-49.46z"/><path fill="none" stroke="#3465a4" stroke-linecap="round" stroke-linejoin="round" stroke-width=".022" d="m354.66 86.912 24.741 46.225h-49.46l24.719-46.225"/><g stroke-width=".589" font-family="'Liberation Sans'" font-size="14.105" font-weight="400" letter-spacing="0" word-spacing="0"><text x="23.469" y="145.543" transform="scale(.96579 1.0354)" style="line-height:125%" xml:space="preserve"><tspan x="23.469" y="145.543">Votre</tspan> <tspan x="23.469" y="163.174">Appareil</tspan></text><text x="94.824" y="62.192" transform="scale(.96579 1.0354)" style="line-height:125%" xml:space="preserve"><tspan x="94.824" y="62.192" fill="#000" stroke-width=".589"><tspan fill="#000" stroke-width=".589" dx="0" dy="0" font-family="'Liberation Sans'" font-size="14.105" font-weight="400">Entrée</tspan></tspan></text><text x="174.411" y="148.455" transform="scale(.96579 1.0354)" style="line-height:125%" xml:space="preserve"><tspan x="174.411" y="148.455" fill="#000" stroke-width=".589"><tspan fill="#000" stroke-width=".589" dx="0" dy="0" font-family="'Liberation Sans'" font-size="14.105" font-weight="400">Milieu</tspan></tspan></text><text x="264.444" y="60.727" transform="scale(.96579 1.0354)" style="line-height:125%" xml:space="preserve"><tspan x="264.444" y="60.727" fill="#000" stroke-width=".589"><tspan fill="#000" stroke-width=".589" dx="0" dy="0" font-family="'Liberation Sans'" font-size="14.105" font-weight="400">Sortie</tspan></tspan></text><text x="300.706" y="145.665" transform="scale(.96579 1.0354)" style="line-height:125%" xml:space="preserve"><tspan x="300.706" y="145.665" fill="#000" stroke-width=".589"><tspan fill="#000" stroke-width=".589" dx="0" dy="0" font-family="'Liberation Sans'" font-size="14.105" font-weight="400">PrivacyGuides.org</tspan></tspan></text></g><g><path d="m87.371 43.93-36.295 48.232 1.0273 0.77344 36.295-48.232z" color="#000" style="-inkscape-stroke:none" transform="matrix(1,0,0,-1,78.4,132.26)"/><g fill-rule="evenodd"><path stroke-width=".857" d="m90.114 41.352-0.77515 6.3758-5.1366-3.8653z" color="#000" style="-inkscape-stroke:none" transform="matrix(1,0,0,-1,78.4,132.26)"/><path d="m90.629 40.668-0.68164 0.28906-6.5957 2.8008 6.3242 4.7598zm-1.0293 1.3672-0.5957 4.9023-3.9492-2.9707z" color="#000" style="-inkscape-stroke:none" transform="matrix(1,0,0,-1,78.4,132.26)"/></g></g><g><path d="m87.371 43.93-36.295 48.232 1.0273 0.77344 36.295-48.232z" color="#000" style="-inkscape-stroke:none" transform="translate(158.59,1.3477)"/><g fill-rule="evenodd"><path stroke-width=".857" d="m90.114 41.352-0.77515 6.3758-5.1366-3.8653z" color="#000" style="-inkscape-stroke:none" transform="translate(158.59,1.3477)"/><path d="m90.629 40.668-0.68164 0.28906-6.5957 2.8008 6.3242 4.7598zm-1.0293 1.3672-0.5957 4.9023-3.9492-2.9707z" color="#000" style="-inkscape-stroke:none" transform="translate(158.59,1.3477)"/></g></g><g><path d="m87.371 43.93-36.295 48.232 1.0273 0.77344 36.295-48.232z" color="#000" style="-inkscape-stroke:none" transform="matrix(1,0,0,-1,245.51,139.58)"/><g fill-rule="evenodd"><path stroke-width=".857" d="m90.114 41.352-0.77515 6.3758-5.1366-3.8653z" color="#000" style="-inkscape-stroke:none" transform="matrix(1,0,0,-1,245.51,139.58)"/><path d="m90.629 40.668-0.68164 0.28906-6.5957 2.8008 6.3242 4.7598zm-1.0293 1.3672-0.5957 4.9023-3.9492-2.9707z" color="#000" style="-inkscape-stroke:none" transform="matrix(1,0,0,-1,245.51,139.58)"/></g></g><g><path d="m87.371 43.93-36.295 48.232 1.0273 0.77344 36.295-48.232z" color="#000" style="-inkscape-stroke:none" transform="translate(-3.4347 -1.3434)"/><g fill-rule="evenodd"><path stroke-width=".857" d="m90.114 41.352-0.77515 6.3758-5.1366-3.8653z" color="#000" style="-inkscape-stroke:none" transform="translate(-3.4347 -1.3434)"/><path d="m90.629 40.668-0.68164 0.28906-6.5957 2.8008 6.3242 4.7598zm-1.0293 1.3672-0.5957 4.9023-3.9492-2.9707z" color="#000" style="-inkscape-stroke:none" transform="translate(-3.4347 -1.3434)"/></g></g></svg>