<svg width="128" height="128" version="1.1" viewBox="0 0 33.867 33.867" xmlns="http://www.w3.org/2000/svg"><defs><linearGradient id="SVGID_1_" x1="42.708" x2="130.68" y1="135.75" y2="47.776" gradientTransform="matrix(.25025 0 0 -.25025 -11.762 42.835)" gradientUnits="userSpaceOnUse"><stop stop-color="#3AE7E1" offset="0"/><stop stop-color="#1993D2" offset=".9481"/></linearGradient><linearGradient id="SVGID_00000133497581833190088830000011359831797951217313_" x1="67.759" x2="155.73" y1="160.8" y2="72.827" gradientTransform="matrix(.25025 0 0 -.25025 -11.762 42.835)" gradientUnits="userSpaceOnUse"><stop stop-color="#3AE7E1" offset="0"/><stop stop-color="#1993D2" offset=".9481"/></linearGradient><linearGradient id="SVGID_00000095339857216016244530000015244439318020201364_" x1="42.676" x2="130.65" y1="135.72" y2="47.744" gradientTransform="matrix(.25025 0 0 -.25025 -11.762 42.835)" gradientUnits="userSpaceOnUse"><stop stop-color="#3AE7E1" offset="0"/><stop stop-color="#1993D2" offset=".9481"/></linearGradient></defs><g transform="matrix(1.2083 0 0 1.2083 4.2637 -3.528)" stroke-width=".25025"><path class="st0" d="m17.492 18.685c0 1.3013-0.7007 2.4274-1.7518 3.028v2.2272c0 0.97598-0.77578 1.7518-1.7518 1.7518 1.2262 0 2.3774-0.32532 3.3784-0.87588 0.07507-0.27528 0.12512-0.57558 0.12512-0.87588z" fill="#2d7aae"/><path class="st1" d="m13.989 15.182h-6.982c-0.97598 0-1.7518 0.77578-1.7518 1.7518v7.007c0 0.97598 0.77578 1.7518 1.7518 1.7518h7.007c0.97598 0 1.7518-0.77578 1.7518-1.7518v-7.007c-0.02502-0.97598-0.8008-1.7518-1.7768-1.7518zm-1.7518 7.007h-3.4785v-3.5035h3.5035z" fill="url(#SVGID_1_)"/><path d="m7.4822 8.175c0.6006-1.051 1.7267-1.7518 3.028-1.7518s2.4274 0.7007 3.028 1.7518h0.47548c1.1762 0 2.3273 0.25025 3.4034 0.7007-0.5005-3.3534-3.4034-5.956-6.9069-5.956s-6.4064 2.5776-6.9069 5.956c1.0761-0.45045 2.2272-0.7007 3.4034-0.7007z" fill="url(#SVGID_00000133497581833190088830000011359831797951217313_)"/><path class="st0" d="m3.5032 10.878c1.026-0.6006 2.2272-0.95095 3.5035-0.95095 0-0.62562 0.17518-1.2262 0.47548-1.7518h-0.47548c-1.1762 0-2.3273 0.25025-3.4034 0.7007-0.05005 0.35035-0.075075 0.7007-0.075075 1.051v0.95095z" fill="#2d7aae"/><path class="st0" d="m13.513 8.175c0.3003 0.52552 0.47548 1.1011 0.47548 1.7518 1.2763 0 2.4775 0.35035 3.5035 0.95095v-0.95095c0-0.35035-0.02503-0.7007-0.07508-1.051-1.0761-0.45045-2.2272-0.7007-3.4034-0.7007z" fill="#2d7aae"/><path d="m17.492 23.941c0 0.3003-0.05005 0.6006-0.12512 0.87588 2.1522-1.2012 3.6036-3.4785 3.6036-6.1311v-1.7518c0-2.5776-1.4014-4.8548-3.5035-6.056-1.026-0.6006-2.2272-0.95095-3.5035-0.95095h-6.957c-1.2763 0-2.4775 0.35035-3.5035 0.95095-2.1021 1.2012-3.5035 3.4534-3.5035 6.056v7.007c0 3.8538 3.1281 7.007 7.007 7.007h7.007c0-1.9269-1.5766-3.5035-3.5035-3.5035h-3.5035c-1.9269 0-3.5035-1.5766-3.5035-3.5035v-7.007c0-1.9269 1.5766-3.5035 3.5035-3.5035h7.007c1.9269 0 3.5035 1.5766 3.5035 3.5035v1.7518z" fill="url(#SVGID_00000095339857216016244530000015244439318020201364_)"/></g></svg>
