<?xml version="1.0" encoding="UTF-8"?>
<svg width="128" height="128" version="1.1" viewBox="0 0 33.867 33.867" xmlns="http://www.w3.org/2000/svg"><defs><clipPath id="clippath"><rect class="st1" width="57.21" height="59"/></clipPath><linearGradient id="linear-gradient" x2="52.03" y1="31.47" y2="31.47" gradientTransform="matrix(1,0,0,-1,0,60)" gradientUnits="userSpaceOnUse"><stop stop-color="#9059ff" offset="0"/><stop stop-color="#f770ff" offset="1"/></linearGradient></defs><g class="st3" transform="matrix(.59332 0 0 .59332 1.4948 -5.9467e-8)" clip-path="url(#clippath)"><path class="st2" d="m49.5 12.44-21.04-11.84c-0.74-0.4-1.57-0.6-2.41-0.6s-1.67 0.21-2.41 0.61l-21.12 11.83c-0.76 0.43-1.4 1.05-1.84 1.81-0.44 0.75-0.68 1.61-0.68 2.49v23.61c0 0.88 0.22 1.74 0.67 2.49 0.44 0.76 1.08 1.38 1.85 1.8l21.05 11.77c0.74 0.44 1.58 0.67 2.45 0.67 0.86 0 1.7-0.23 2.45-0.67l21.05-11.77c0.76-0.43 1.4-1.05 1.84-1.81 0.44-0.75 0.68-1.61 0.68-2.49v-23.61c0.02-0.88-0.2-1.75-0.65-2.5-0.45-0.76-1.09-1.38-1.87-1.79z" fill="url(#linear-gradient)"/><path class="st0" d="m11.34 34.72-1.26 0.74c-0.23 0.12-0.42 0.29-0.58 0.5-0.16 0.2-0.28 0.43-0.35 0.68s-0.09 0.51-0.06 0.76c0.03 0.26 0.12 0.5 0.24 0.72 0.17 0.31 0.41 0.57 0.71 0.75s0.64 0.28 0.99 0.29c0.33 0 0.66-0.08 0.96-0.22l1.26-0.74c0.23-0.12 0.42-0.29 0.58-0.5 0.16-0.2 0.28-0.43 0.35-0.68s0.09-0.51 0.06-0.76c-0.03-0.26-0.12-0.5-0.24-0.72-0.11-0.24-0.28-0.44-0.48-0.61s-0.43-0.3-0.68-0.37c-0.25-0.08-0.51-0.1-0.77-0.07s-0.51 0.11-0.74 0.24zm7.71-4.37-2.59 1.48c-0.23 0.12-0.42 0.29-0.58 0.5-0.16 0.2-0.28 0.43-0.35 0.68s-0.09 0.51-0.06 0.76c0.03 0.26 0.12 0.5 0.24 0.72 0.17 0.31 0.41 0.57 0.71 0.75s0.64 0.28 0.99 0.29c0.33 0 0.66-0.08 0.96-0.22l2.59-1.48c0.23-0.12 0.42-0.29 0.58-0.5 0.16-0.2 0.28-0.43 0.35-0.68s0.09-0.51 0.06-0.76-0.12-0.5-0.24-0.72c-0.11-0.24-0.28-0.44-0.48-0.61s-0.43-0.3-0.68-0.37c-0.25-0.08-0.51-0.1-0.77-0.07s-0.51 0.11-0.74 0.24zm10.44-3.61c-0.1-0.21-0.25-0.4-0.43-0.55s-0.39-0.27-0.61-0.34v-14.88c0-0.26-0.05-0.52-0.15-0.77-0.1-0.24-0.25-0.46-0.43-0.65-0.19-0.19-0.41-0.33-0.65-0.43s-0.5-0.15-0.77-0.15c-0.26 0-0.52 0.05-0.75 0.16-0.24 0.1-0.45 0.25-0.63 0.44s-0.32 0.41-0.41 0.65-0.14 0.5-0.13 0.76v14.95c-0.22 0.07-0.43 0.19-0.61 0.34s-0.32 0.34-0.43 0.55c-0.14 0.26-0.22 0.55-0.23 0.84s0.04 0.59 0.16 0.86c-0.12 0.27-0.17 0.56-0.16 0.86 0.01 0.29 0.09 0.58 0.23 0.84 0.1 0.21 0.25 0.4 0.43 0.55s0.39 0.27 0.61 0.34v14.95c0 0.53 0.21 1.04 0.59 1.41s0.88 0.59 1.41 0.59 1.04-0.21 1.41-0.59c0.38-0.37 0.59-0.88 0.59-1.41v-15.02c0.22-0.07 0.43-0.19 0.61-0.34s0.32-0.34 0.43-0.55c0.14-0.26 0.22-0.55 0.23-0.84s-0.04-0.59-0.16-0.86c0.17-0.56 0.12-1.17-0.15-1.69zm5.05-5.12-2.59 1.48c-0.23 0.12-0.42 0.29-0.58 0.5-0.16 0.2-0.28 0.43-0.35 0.68s-0.09 0.51-0.06 0.76c0.03 0.26 0.12 0.5 0.24 0.72 0.17 0.31 0.41 0.57 0.71 0.75s0.64 0.28 0.99 0.29c0.33 0 0.66-0.08 0.96-0.22l2.59-1.48c0.23-0.12 0.42-0.29 0.58-0.5 0.16-0.2 0.28-0.43 0.35-0.68s0.09-0.51 0.06-0.76c-0.03-0.26-0.12-0.5-0.24-0.72-0.11-0.24-0.28-0.44-0.48-0.61s-0.43-0.3-0.68-0.37c-0.25-0.08-0.51-0.1-0.77-0.07s-0.51 0.11-0.74 0.24zm6.14 0.74c0.33 0 0.66-0.08 0.96-0.22l1.26-0.74c0.23-0.13 0.42-0.29 0.58-0.5 0.16-0.2 0.28-0.43 0.35-0.68s0.09-0.51 0.06-0.76c-0.03-0.26-0.11-0.5-0.24-0.73-0.13-0.22-0.3-0.42-0.5-0.58s-0.44-0.28-0.68-0.34c-0.25-0.07-0.51-0.09-0.76-0.05-0.26 0.03-0.5 0.11-0.73 0.24l-1.26 0.74c-0.23 0.12-0.42 0.29-0.58 0.5-0.16 0.2-0.28 0.43-0.35 0.68s-0.09 0.51-0.06 0.76c0.03 0.26 0.12 0.5 0.24 0.72 0.17 0.3 0.42 0.55 0.72 0.72s0.64 0.25 0.99 0.24zm2.23 13.1-1.26-0.74c-0.45-0.25-0.99-0.32-1.48-0.18-0.5 0.14-0.92 0.47-1.18 0.92-0.25 0.45-0.32 0.98-0.18 1.48s0.47 0.92 0.92 1.18l1.26 0.74c0.3 0.14 0.63 0.22 0.96 0.22 0.35 0 0.69-0.1 0.99-0.29 0.3-0.18 0.55-0.44 0.71-0.75 0.13-0.22 0.22-0.46 0.25-0.71s0.02-0.51-0.05-0.75-0.19-0.47-0.35-0.66-0.36-0.35-0.59-0.47zm-6.45-3.63-2.59-1.48c-0.22-0.13-0.47-0.21-0.73-0.24s-0.52-0.01-0.76 0.05c-0.25 0.07-0.48 0.19-0.68 0.34-0.2 0.16-0.37 0.36-0.5 0.58s-0.21 0.47-0.24 0.73-0.01 0.51 0.06 0.76 0.19 0.48 0.35 0.68 0.36 0.37 0.58 0.5l2.59 1.48c0.3 0.14 0.63 0.22 0.96 0.22 0.35 0 0.69-0.1 0.99-0.29 0.3-0.18 0.55-0.44 0.71-0.75 0.13-0.22 0.22-0.46 0.26-0.71s0.02-0.51-0.05-0.75-0.19-0.47-0.35-0.67c-0.16-0.19-0.37-0.35-0.59-0.46zm-20.01-6.8 2.59 1.48c0.3 0.14 0.63 0.22 0.96 0.22 0.35 0 0.69-0.1 0.99-0.29 0.3-0.18 0.55-0.44 0.71-0.75 0.13-0.22 0.21-0.47 0.24-0.72 0.03-0.26 0.01-0.51-0.06-0.76s-0.19-0.48-0.35-0.68-0.36-0.37-0.58-0.5l-2.59-1.48c-0.22-0.13-0.47-0.21-0.73-0.24s-0.52-0.01-0.76 0.06c-0.25 0.07-0.48 0.19-0.68 0.35s-0.37 0.36-0.5 0.58c-0.25 0.47-0.31 1.01-0.17 1.52s0.46 0.95 0.91 1.22zm-3.19-6.29-1.26-0.74c-0.22-0.13-0.47-0.21-0.73-0.24s-0.52-0.01-0.76 0.05c-0.25 0.07-0.48 0.19-0.68 0.34s-0.37 0.36-0.5 0.58-0.21 0.47-0.24 0.73-0.01 0.51 0.06 0.76 0.19 0.48 0.35 0.68 0.36 0.37 0.58 0.5l1.26 0.74c0.3 0.14 0.63 0.22 0.96 0.22 0.35 0 0.69-0.1 0.99-0.29 0.3-0.18 0.55-0.44 0.71-0.75 0.13-0.22 0.21-0.46 0.24-0.71s0.01-0.5-0.06-0.74-0.19-0.47-0.34-0.66c-0.16-0.2-0.35-0.36-0.58-0.48z" fill="#20133a"/></g></svg>
