<svg xmlns="http://www.w3.org/2000/svg" viewBox="0 0 100 59"><defs><linearGradient id="a" x1="0%" x2="99.995%" y1="50%" y2="50%"><stop offset="0%" stop-color="#ED2E7C"/><stop offset="100%" stop-color="#A8288F"/></linearGradient></defs><path fill="url(#a)" fill-rule="nonzero" d="M96.523 0H25.005l-.903.933-.153.169a41.263 41.263 0 0 1-2.126 2.057A45.808 45.808 0 0 1 2.6 13.883c-.207.061-.406.107-.612.168l-.903.222-.206.903c-.077.329-.138.658-.207 1.002A38.1 38.1 0 0 0 0 23.223a37.415 37.415 0 0 0 22.343 34.244c.153.077.329.153.497.222.375.168.75.314 1.124.467l.452.168.06.015.031-.015a.26.26 0 0 0 .108.015h71.893a2.805 2.805 0 0 0 2.807-2.807V2.784A2.767 2.767 0 0 0 96.523 0Zm-4.857 4.483-29.93 26.09a1.628 1.628 0 0 1-2.143-.015l-9.76-8.651a35.554 35.554 0 0 0-.673-6.196 36.48 36.48 0 0 1-.092-.527l-.206-.903-.903-.237c-.222-.046-.436-.107-.658-.153a44.69 44.69 0 0 1-13.898-6.54l-3.235-2.86h61.498v-.008ZM51.378 29.105l-2.455 2.172c.282-1.243.502-2.499.658-3.763l1.797 1.59Zm-26.84 26.06a36.184 36.184 0 0 1-2.715-1.247 34.66 34.66 0 0 1-18.817-30.68c-.003-2.18.207-4.355.627-6.494a48.582 48.582 0 0 0 18.19-9.34A43.137 43.137 0 0 0 25.02 4.56 48.67 48.67 0 0 0 42.68 15.566a40.75 40.75 0 0 0 3.626 1.14c.138.78.268 1.575.344 2.37.144 1.28.218 2.568.222 3.856 0 .704-.015 1.407-.076 2.111a33.775 33.775 0 0 1-2.142 10.013 34.551 34.551 0 0 1-20.117 20.109Zm8.728-1.155A37.48 37.48 0 0 0 45.71 40.02l8.98-7.932 4.873 4.36c.616.543 1.54.543 2.157 0l4.964-4.406 24.92 21.937-58.338.03Zm36.807-24.92L95.008 6.93l.046 44.189-24.981-22.03ZM31.269 46.842a24.6 24.6 0 0 0 3.312-2.922l-3.312 2.922Zm11.114-25.686a31.669 31.669 0 0 0-.283-1.874 34.74 34.74 0 0 1-2.906-.933.015.015 0 0 1-.016-.015c-.252-.077-.482-.184-.734-.283a25.363 25.363 0 0 1-1.637-.72 19.24 19.24 0 0 1-1.14-.542 10.245 10.245 0 0 1-.81-.42 35.255 35.255 0 0 1-2.532-1.485 25.548 25.548 0 0 1-1.5-1.002.275.275 0 0 1-.107-.076c-.527-.36-1.047-.75-1.56-1.14a43.023 43.023 0 0 1-2.952-2.486c-.406-.36-.811-.734-1.201-1.124a54.541 54.541 0 0 1-3.182 2.845 38.333 38.333 0 0 1-14.006 7.42 27.794 27.794 0 0 0-.497 5.232A28.301 28.301 0 0 0 21.83 49.19c.905.496 1.837.94 2.792 1.33a31.993 31.993 0 0 0 1.698-.718c.452-.207.903-.42 1.346-.658.407-.203.803-.428 1.186-.673.13-.065.255-.14.375-.222.206-.122.405-.252.596-.375a.368.368 0 0 0 .123-.091c.35-.217.69-.452 1.017-.704a1.3 1.3 0 0 0 .314-.237l3.312-2.922c.03 0 .03 0 .03-.015a28.385 28.385 0 0 0 6.946-12.239 27.624 27.624 0 0 0 1.002-7.374 30.795 30.795 0 0 0-.184-3.136ZM26.26 37.205l-2.547 2.547h-.015l-10.54-10.54 3.235-3.266 7.32 7.32 2.547-2.547 8.888-8.904 3.251 3.251-12.139 12.139Z"/></svg>