<svg xmlns="http://www.w3.org/2000/svg" xmlns:xlink="http://www.w3.org/1999/xlink" width="100%" height="100%" version="1.1" viewBox="0 0 50 50" xml:space="preserve" style="fill-rule:evenodd;clip-rule:evenodd;stroke-linejoin:round;stroke-miterlimit:2"><g><path d="M18.466,16.31C18.279,16.938 18.384,17.673 18.594,19.141L21.253,37.755C21.713,40.971 21.942,42.578 22.551,44.015C23.09,45.289 23.845,46.46 24.783,47.476C25.842,48.623 27.212,49.494 29.952,51.238L33.848,53.717C35.716,54.906 36.65,55.5 37.654,55.732C38.426,55.91 39.224,55.933 40.003,55.801C39.359,54.33 39.002,52.706 39.002,50.997C39.002,44.37 44.375,38.997 51.002,38.997C52.936,38.997 54.763,39.455 56.381,40.267C56.494,39.55 56.612,38.726 56.751,37.755L59.41,19.141C59.62,17.673 59.725,16.938 59.538,16.31C59.374,15.756 59.053,15.261 58.615,14.885C58.117,14.458 57.403,14.255 55.977,13.847L40.321,9.374C39.83,9.234 39.585,9.164 39.335,9.136C39.114,9.111 38.891,9.111 38.669,9.136C38.42,9.164 38.174,9.234 37.684,9.374L22.027,13.847C20.601,14.255 19.887,14.458 19.39,14.885C18.951,15.261 18.63,15.756 18.466,16.31Z" transform="matrix(0.902851,0,0,0.902851,-9.0245,-8.23146)" style="fill:#fff"/></g><g><path d="M32.836,13.626C32.946,13.614 33.058,13.614 33.169,13.626C33.265,13.637 33.371,13.663 33.909,13.816L49.565,18.289C50.3,18.5 50.771,18.635 51.123,18.765C51.458,18.89 51.578,18.972 51.638,19.024C51.858,19.212 52.018,19.459 52.1,19.736C52.123,19.813 52.149,19.956 52.126,20.313C52.102,20.688 52.034,21.172 51.925,21.929L49.692,37.56C42.851,38.219 37.502,43.983 37.502,50.997C37.502,52.382 37.711,53.718 38.098,54.976L37.351,55.452C35.388,56.701 34.706,57.11 34.014,57.27C33.348,57.424 32.657,57.424 31.991,57.27C31.298,57.11 30.616,56.701 28.654,55.452L24.758,52.973C21.95,51.186 20.781,50.428 19.886,49.458C19.065,48.569 18.404,47.545 17.932,46.43C17.418,45.215 17.209,43.837 16.738,40.543L14.079,21.929C13.971,21.172 13.903,20.688 13.878,20.313C13.855,19.956 13.881,19.813 13.904,19.736C13.986,19.459 14.147,19.212 14.366,19.024C14.427,18.972 14.547,18.89 14.881,18.765C15.234,18.635 15.704,18.5 16.439,18.289L32.096,13.816C32.633,13.663 32.74,13.637 32.836,13.626ZM54.903,22.301L52.716,37.605C59.363,38.447 64.502,44.122 64.502,50.997C64.502,58.453 58.458,64.497 51.002,64.497C46.01,64.497 41.651,61.787 39.315,57.758L38.962,57.983L38.739,58.124C37.088,59.177 35.947,59.903 34.688,60.194C33.579,60.449 32.426,60.449 31.317,60.194C30.058,59.903 28.917,59.177 27.265,58.124L27.043,57.983L22.954,55.381C20.398,53.754 18.873,52.784 17.681,51.493C16.626,50.35 15.776,49.033 15.17,47.6C14.484,45.982 14.229,44.193 13.801,41.194L11.102,22.301C11.003,21.611 10.918,21.012 10.885,20.508C10.85,19.973 10.864,19.435 11.028,18.883C11.274,18.052 11.756,17.31 12.414,16.746C12.851,16.372 13.336,16.139 13.839,15.952C14.312,15.777 14.895,15.611 15.564,15.419L15.615,15.405L31.271,10.932L31.354,10.908C31.764,10.791 32.125,10.687 32.502,10.645C32.835,10.608 33.17,10.608 33.502,10.645C33.88,10.687 34.241,10.791 34.65,10.908L34.733,10.932L50.44,15.419C51.11,15.611 51.692,15.777 52.166,15.952C52.668,16.139 53.154,16.372 53.591,16.746C54.249,17.31 54.73,18.052 54.977,18.883C55.14,19.435 55.155,19.973 55.12,20.508C55.087,21.012 55.001,21.611 54.903,22.3L54.903,22.301ZM51.002,40.497C45.203,40.497 40.502,45.198 40.502,50.997C40.502,56.796 45.203,61.497 51.002,61.497C56.801,61.497 61.502,56.796 61.502,50.997C61.502,45.198 56.801,40.497 51.002,40.497ZM58.154,47.458C58.685,46.821 58.599,45.875 57.962,45.345C57.326,44.815 56.38,44.9 55.85,45.537L49.401,53.275L46.063,49.936C45.477,49.351 44.527,49.351 43.942,49.936C43.356,50.522 43.356,51.472 43.942,52.058L48.442,56.558C48.74,56.856 49.149,57.015 49.57,56.996C49.991,56.977 50.385,56.781 50.654,56.458L58.154,47.458ZM25.502,29.997C25.502,25.855 28.86,22.497 33.002,22.497C37.144,22.497 40.502,25.855 40.502,29.997C40.502,32.451 39.324,34.629 37.502,35.998L37.502,41.997C37.502,44.483 35.488,46.497 33.002,46.497C30.517,46.497 28.502,44.483 28.502,41.997L28.502,35.998C26.681,34.629 25.502,32.451 25.502,29.997ZM34.502,37.497L31.502,37.497L31.502,41.997C31.502,42.826 32.174,43.497 33.002,43.497C33.831,43.497 34.502,42.826 34.502,41.997L34.502,37.497ZM33.002,34.497C35.488,34.497 37.502,32.483 37.502,29.997C37.502,27.512 35.488,25.497 33.002,25.497C30.517,25.497 28.502,27.512 28.502,29.997C28.502,32.483 30.517,34.497 33.002,34.497Z" transform="matrix(0.902851,0,0,0.902851,-9.0245,-8.23146)" style="fill:#28323f"/></g></svg>