<svg id="svg" version="1.1" xmlns="http://www.w3.org/2000/svg" xmlns:xlink="http://www.w3.org/1999/xlink" width="400" height="400" viewBox="0, 0, 400,400"><g id="svgg"><path id="path0" d="M31.599 19.300 C 31.010 20.104,30.913 20.384,31.345 20.033 C 32.001 19.500,32.993 18.000,32.689 18.000 C 32.613 18.000,32.122 18.585,31.599 19.300 M369.904 21.230 C 370.401 21.796,370.721 22.346,370.615 22.451 C 370.510 22.557,371.768 23.979,373.412 25.612 C 375.055 27.244,376.400 28.422,376.400 28.228 C 376.400 28.034,376.805 28.218,377.300 28.635 C 378.130 29.335,378.125 29.310,377.242 28.309 C 376.715 27.713,376.161 27.300,376.011 27.393 C 375.664 27.608,370.706 22.627,370.987 22.346 C 371.102 22.231,370.703 21.701,370.098 21.168 L 369.000 20.200 369.904 21.230 M27.599 22.900 C 27.010 23.704,26.913 23.984,27.345 23.633 C 28.001 23.100,28.993 21.600,28.689 21.600 C 28.613 21.600,28.122 22.185,27.599 22.900 M24.386 24.700 L 22.200 27.000 24.500 24.814 C 26.637 22.782,26.983 22.400,26.686 22.400 C 26.624 22.400,25.589 23.435,24.386 24.700 M18.800 32.060 C 18.030 32.735,17.762 33.105,18.204 32.881 C 18.935 32.511,20.747 30.778,20.362 30.816 C 20.273 30.825,19.570 31.385,18.800 32.060 M193.600 69.788 C 164.028 74.702,146.543 102.657,153.209 134.360 C 159.379 163.705,182.272 192.072,219.600 216.627 C 240.528 230.394,242.958 230.604,259.954 220.119 C 306.196 191.591,332.893 155.350,332.969 121.000 C 333.067 76.716,285.640 53.457,249.796 80.211 C 242.696 85.510,242.200 85.512,235.221 80.254 C 223.005 71.053,208.276 67.348,193.600 69.788 M398.000 72.757 C 398.000 73.027,397.820 73.136,397.600 73.000 C 397.380 72.864,397.200 72.933,397.200 73.153 C 397.200 73.373,397.361 73.652,397.558 73.774 C 397.949 74.015,398.550 72.817,398.209 72.476 C 398.094 72.361,398.000 72.487,398.000 72.757 M398.856 83.600 C 398.856 83.930,399.011 84.560,399.200 85.000 C 399.417 85.504,399.544 85.578,399.544 85.200 C 399.544 84.870,399.389 84.240,399.200 83.800 C 398.983 83.296,398.856 83.222,398.856 83.600 M399.212 88.800 C 399.212 89.130,399.387 89.670,399.600 90.000 C 399.945 90.533,399.988 90.533,399.988 90.000 C 399.988 89.670,399.813 89.130,399.600 88.800 C 399.255 88.267,399.212 88.267,399.212 88.800 M399.701 95.000 C 399.705 95.880,399.787 96.193,399.883 95.695 C 399.979 95.198,399.975 94.478,399.875 94.095 C 399.775 93.713,399.696 94.120,399.701 95.000 M399.701 303.000 C 399.705 303.880,399.787 304.193,399.883 303.695 C 399.979 303.198,399.975 302.478,399.875 302.095 C 399.775 301.713,399.696 302.120,399.701 303.000 M399.473 308.153 C 399.323 308.545,399.211 309.166,399.225 309.533 C 399.242 309.975,399.381 309.874,399.637 309.234 C 399.849 308.703,399.961 308.082,399.885 307.854 C 399.809 307.627,399.624 307.761,399.473 308.153 M399.029 313.429 C 398.881 314.015,398.838 314.572,398.932 314.666 C 399.027 314.760,399.224 314.358,399.371 313.771 C 399.519 313.185,399.562 312.628,399.468 312.534 C 399.373 312.440,399.176 312.842,399.029 313.429 M380.804 364.996 C 380.532 365.323,380.190 365.517,380.043 365.427 C 379.897 365.337,379.333 365.621,378.789 366.058 L 377.800 366.854 378.800 366.342 C 379.350 366.060,379.914 365.861,380.052 365.899 C 380.191 365.937,380.624 365.615,381.014 365.184 C 381.405 364.753,381.628 364.400,381.511 364.400 C 381.394 364.400,381.076 364.668,380.804 364.996 M20.768 369.701 C 21.301 370.304,21.831 370.702,21.946 370.587 C 22.226 370.308,27.208 375.263,26.995 375.608 C 26.903 375.756,27.406 376.400,28.113 377.039 C 29.377 378.182,29.382 378.183,28.429 377.100 C 27.896 376.495,27.623 376.000,27.821 376.000 C 28.019 376.000,26.755 374.565,25.012 372.812 C 23.269 371.059,21.758 369.709,21.654 369.813 C 21.550 369.917,21.090 369.688,20.632 369.304 C 20.024 368.793,20.060 368.900,20.768 369.701 M373.864 371.627 C 372.848 372.522,371.638 373.827,371.176 374.527 C 370.425 375.666,370.484 375.639,371.737 374.269 C 372.508 373.427,373.827 372.130,374.669 371.386 C 375.511 370.642,376.090 370.026,375.956 370.017 C 375.822 370.007,374.881 370.732,373.864 371.627 M83.800 399.200 C 84.240 399.389,84.870 399.544,85.200 399.544 C 85.578 399.544,85.504 399.417,85.000 399.200 C 84.560 399.011,83.930 398.856,83.600 398.856 C 83.222 398.856,83.296 398.983,83.800 399.200 M313.000 399.200 C 312.496 399.417,312.422 399.544,312.800 399.544 C 313.130 399.544,313.760 399.389,314.200 399.200 C 314.704 398.983,314.778 398.856,314.400 398.856 C 314.070 398.856,313.440 399.011,313.000 399.200 M308.000 399.600 C 307.467 399.945,307.467 399.988,308.000 399.988 C 308.330 399.988,308.870 399.813,309.200 399.600 C 309.733 399.255,309.733 399.212,309.200 399.212 C 308.870 399.212,308.330 399.387,308.000 399.600 M94.500 399.876 C 94.885 399.976,95.515 399.976,95.900 399.876 C 96.285 399.775,95.970 399.693,95.200 399.693 C 94.430 399.693,94.115 399.775,94.500 399.876 M302.100 399.876 C 302.485 399.976,303.115 399.976,303.500 399.876 C 303.885 399.775,303.570 399.693,302.800 399.693 C 302.030 399.693,301.715 399.775,302.100 399.876 " stroke="none" fill="#fc4c76" fill-rule="evenodd"></path><path id="path1" d="M68.909 0.605 C 67.539 0.903,64.839 1.619,62.909 2.197 C 60.979 2.775,59.094 3.337,58.720 3.445 C 58.295 3.568,58.122 3.895,58.258 4.320 C 58.436 4.875,58.401 4.894,58.068 4.425 C 57.071 3.020,38.933 11.881,39.457 13.517 C 39.635 14.072,39.599 14.093,39.269 13.626 C 38.761 12.911,35.388 14.933,35.848 15.677 C 36.019 15.954,35.942 16.011,35.645 15.828 C 34.273 14.980,15.963 32.685,16.572 34.270 C 16.693 34.587,16.615 34.733,16.396 34.597 C 15.315 33.930,7.464 48.014,4.615 55.731 C 1.752 63.486,-1.128 75.327,0.366 73.200 C 0.625 72.831,0.790 72.784,0.794 73.076 C 0.797 73.338,0.620 73.664,0.401 73.800 C -0.151 74.141,-0.149 323.861,0.403 324.202 C 0.621 324.337,0.800 324.627,0.800 324.847 C 0.800 325.067,0.620 325.136,0.400 325.000 C -0.895 324.200,2.059 335.968,5.039 343.485 C 7.829 350.522,13.679 361.046,14.513 360.530 C 14.754 360.381,14.802 360.474,14.628 360.755 C 14.245 361.375,16.308 364.104,16.888 363.746 C 17.151 363.583,17.209 363.662,17.033 363.946 C 16.869 364.211,17.348 365.238,18.135 366.308 C 19.686 368.416,21.600 370.333,21.600 369.779 C 21.600 369.581,23.031 370.841,24.780 372.580 C 26.529 374.319,27.886 375.861,27.795 376.007 C 27.608 376.311,29.428 378.069,31.858 379.930 C 33.754 381.383,34.076 381.481,33.724 380.500 C 33.586 380.115,33.605 379.919,33.766 380.063 C 33.928 380.208,34.104 380.658,34.159 381.063 C 34.315 382.234,39.941 385.929,40.439 385.188 C 40.759 384.711,40.811 384.745,40.717 385.370 C 40.491 386.857,54.127 393.329,62.794 395.848 C 71.673 398.428,92.964 401.447,89.000 399.564 C 88.362 399.261,88.403 399.245,89.200 399.486 C 90.564 399.899,307.545 399.873,308.800 399.460 C 309.599 399.197,309.680 399.224,309.200 399.596 C 307.439 400.962,323.255 398.902,332.567 396.553 C 340.877 394.457,352.946 389.340,352.543 388.083 C 352.370 387.541,352.407 387.515,352.723 387.960 C 354.129 389.937,371.049 376.864,378.122 368.336 C 380.284 365.730,380.435 365.322,378.900 366.238 L 377.800 366.895 378.789 366.079 C 379.333 365.630,379.892 365.333,380.031 365.419 C 380.686 365.824,385.418 359.076,384.978 358.364 C 384.790 358.061,384.843 357.979,385.118 358.149 C 385.816 358.581,386.616 356.794,385.941 356.311 C 385.529 356.017,385.567 355.978,386.097 356.149 C 387.060 356.458,388.352 354.092,387.538 353.509 C 387.132 353.219,387.171 353.179,387.697 353.349 C 388.971 353.758,394.675 340.714,393.566 339.927 C 393.114 339.605,393.139 339.569,393.692 339.747 C 394.748 340.086,396.957 332.318,398.765 321.903 C 399.694 316.555,400.257 308.125,399.601 309.400 C 399.269 310.044,399.245 309.966,399.475 309.000 C 399.876 307.314,399.861 90.422,399.459 89.200 C 399.210 88.443,399.235 88.346,399.559 88.800 C 400.513 90.136,399.830 81.597,398.375 74.000 C 396.395 63.664,394.690 57.933,393.692 58.253 C 393.158 58.425,393.125 58.386,393.547 58.085 C 394.379 57.491,393.413 54.760,392.476 55.059 C 391.954 55.226,391.924 55.187,392.343 54.888 C 393.022 54.403,392.847 53.841,390.378 48.554 C 388.783 45.136,388.316 44.450,387.721 44.642 C 387.154 44.826,387.121 44.790,387.567 44.473 C 388.249 43.988,385.130 38.348,384.292 38.550 C 384.021 38.615,383.935 38.593,384.100 38.501 C 384.678 38.178,384.380 37.625,381.742 34.126 C 378.677 30.061,376.788 27.960,376.407 28.196 C 376.260 28.286,374.808 27.019,373.180 25.380 C 371.552 23.741,370.386 22.400,370.588 22.400 C 371.139 22.400,368.462 19.729,366.346 18.168 C 364.241 16.614,363.921 16.511,364.276 17.500 C 364.414 17.885,364.395 18.081,364.234 17.937 C 364.072 17.792,363.895 17.342,363.839 16.937 C 363.719 16.055,358.443 12.298,357.717 12.576 C 357.438 12.684,357.252 12.577,357.305 12.340 C 357.427 11.786,350.622 8.127,345.149 5.805 C 337.096 2.389,324.069 -1.106,325.000 0.400 C 325.136 0.620,325.067 0.800,324.847 0.800 C 324.627 0.800,324.337 0.621,324.202 0.403 C 323.861 -0.149,74.141 -0.151,73.800 0.401 C 73.664 0.620,73.338 0.797,73.076 0.794 C 72.790 0.790,72.839 0.633,73.200 0.400 C 74.073 -0.164,71.989 -0.064,68.909 0.605 M32.436 18.733 C 32.220 19.136,31.729 19.721,31.345 20.033 C 30.913 20.384,31.010 20.104,31.599 19.300 C 32.649 17.865,33.043 17.598,32.436 18.733 M28.436 22.333 C 28.220 22.736,27.729 23.321,27.345 23.633 C 26.913 23.984,27.010 23.704,27.599 22.900 C 28.649 21.465,29.043 21.198,28.436 22.333 M373.400 25.200 C 376.200 28.021,376.400 28.193,376.400 27.765 C 376.400 27.333,371.479 22.400,371.047 22.400 C 370.813 22.400,371.872 23.660,373.400 25.200 M19.766 31.637 C 19.350 32.097,18.647 32.657,18.204 32.881 C 17.762 33.105,18.030 32.735,18.800 32.060 C 20.434 30.628,20.842 30.449,19.766 31.637 M215.238 70.541 C 222.745 72.293,228.120 74.906,235.221 80.254 C 242.200 85.512,242.696 85.510,249.796 80.211 C 279.230 58.242,319.535 69.943,330.539 103.652 C 337.706 125.607,329.695 153.582,308.852 179.388 C 292.578 199.536,251.090 229.255,241.261 227.805 C 231.592 226.377,201.094 205.190,183.997 188.023 C 162.606 166.544,149.669 137.212,151.978 115.428 C 155.382 83.320,183.748 63.193,215.238 70.541 M399.544 85.200 C 399.544 85.578,399.417 85.504,399.200 85.000 C 399.011 84.560,398.856 83.930,398.856 83.600 C 398.856 83.222,398.983 83.296,399.200 83.800 C 399.389 84.240,399.544 84.870,399.544 85.200 M399.371 313.771 C 399.224 314.358,399.027 314.760,398.932 314.666 C 398.838 314.572,398.881 314.015,399.029 313.429 C 399.176 312.842,399.373 312.440,399.468 312.534 C 399.562 312.628,399.519 313.185,399.371 313.771 M21.600 370.230 C 21.600 370.644,26.174 375.266,26.997 375.683 C 27.439 375.907,26.455 374.720,24.810 373.045 C 21.809 369.989,21.600 369.805,21.600 370.230 M374.669 371.386 C 373.827 372.130,372.508 373.427,371.737 374.269 C 370.484 375.639,370.425 375.666,371.176 374.527 C 372.008 373.267,375.486 369.985,375.956 370.017 C 376.090 370.026,375.511 370.642,374.669 371.386 M85.000 399.200 C 85.504 399.417,85.578 399.544,85.200 399.544 C 84.870 399.544,84.240 399.389,83.800 399.200 C 83.296 398.983,83.222 398.856,83.600 398.856 C 83.930 398.856,84.560 399.011,85.000 399.200 M314.200 399.200 C 313.760 399.389,313.130 399.544,312.800 399.544 C 312.422 399.544,312.496 399.417,313.000 399.200 C 313.440 399.011,314.070 398.856,314.400 398.856 C 314.778 398.856,314.704 398.983,314.200 399.200 " stroke="none" fill="#fbfbfb" fill-rule="evenodd"></path></g></svg>