<svg xmlns="http://www.w3.org/2000/svg" xmlns:xlink="http://www.w3.org/1999/xlink" viewBox="0 0 728 728"><defs><style>.a{fill:#fff;}.b{stroke-miterlimit:10;fill:url(#a);stroke:url(#b);}</style><linearGradient id="a" x1="1077.18" y1="290.09" x2="1224.16" y2="544.67" gradientUnits="userSpaceOnUse"><stop offset="0" stop-color="#ff6ad2"/><stop offset="0.1" stop-color="#fe65c9"/><stop offset="0.27" stop-color="#fb58b0"/><stop offset="0.48" stop-color="#f74387"/><stop offset="0.72" stop-color="#f1254e"/><stop offset="1" stop-color="#e90006"/></linearGradient><linearGradient id="b" x1="1137.67" y1="303.64" x2="1137.67" y2="595.34" gradientUnits="userSpaceOnUse"><stop offset="0" stop-color="#fff"/><stop offset="1"/></linearGradient></defs><rect class="a" x="0.5" y="0.5" width="727" height="727" rx="191.55"/><path d="M1175,212a190.89,190.89,0,0,1,191,191.05V747a190.89,190.89,0,0,1-191,191H831.05A190.89,190.89,0,0,1,640,747V403.05a190.89,190.89,0,0,1,191-191H1175m0-1H831.05C725,211,639,297,639,403.05V747c0,106.07,86,192,192,192H1175c106.07,0,192-86,192-192V403.05c0-106.07-86-192-192-192Z" transform="translate(-639 -211)"/><path class="b" d="M1289.84,394.86c0-50.1-41.49-90.72-92.68-90.72a93.48,93.48,0,0,0-59.49,21.17,93.51,93.51,0,0,0-59.5-21.17c-51.19,0-92.68,40.62-92.68,90.72a89.1,89.1,0,0,0,18.3,54.14h0l.06.06a91.67,91.67,0,0,0,11.4,12.4l122.42,133.15L1260,461.54A89.64,89.64,0,0,0,1289.84,394.86Z" transform="translate(-639 -211)"/></svg>