<?xml version="1.0" encoding="UTF-8"?>
<svg xmlns="http://www.w3.org/2000/svg" xmlns:xlink="http://www.w3.org/1999/xlink" width="400px" height="400px" viewBox="0 0 400 400" version="1.1">
<defs>
<linearGradient id="linear0" gradientUnits="userSpaceOnUse" x1="1077.180054" y1="290.089996" x2="1224.160034" y2="544.669983" >
<stop offset="0" style="stop-color:rgb(100%,41.568627%,82.352941%);stop-opacity:1;"/>
<stop offset="0.1" style="stop-color:rgb(99.607843%,39.607843%,78.823529%);stop-opacity:1;"/>
<stop offset="0.27" style="stop-color:rgb(98.431373%,34.509804%,69.019608%);stop-opacity:1;"/>
<stop offset="0.48" style="stop-color:rgb(96.862745%,26.27451%,52.941176%);stop-opacity:1;"/>
<stop offset="0.72" style="stop-color:rgb(94.509804%,14.509804%,30.588235%);stop-opacity:1;"/>
<stop offset="1" style="stop-color:rgb(91.372549%,0%,2.352941%);stop-opacity:1;"/>
</linearGradient>
<linearGradient id="linear1" gradientUnits="userSpaceOnUse" x1="1137.670044" y1="303.640015" x2="1137.670044" y2="595.340027" >
<stop offset="0" style="stop-color:rgb(100%,100%,100%);stop-opacity:1;"/>
<stop offset="1" style="stop-color:rgb(0%,0%,0%);stop-opacity:1;"/>
</linearGradient>
</defs>
<g id="surface1">
<path style=" stroke:none;fill-rule:nonzero;fill:rgb(100%,100%,100%);fill-opacity:1;" d="M 105.523438 0.273438 L 294.476562 0.273438 C 352.605469 0.273438 399.726562 47.394531 399.726562 105.523438 L 399.726562 294.476562 C 399.726562 352.605469 352.605469 399.726562 294.476562 399.726562 L 105.523438 399.726562 C 47.394531 399.726562 0.273438 352.605469 0.273438 294.476562 L 0.273438 105.523438 C 0.273438 47.394531 47.394531 0.273438 105.523438 0.273438 Z M 105.523438 0.273438 "/>
<path style=" stroke:none;fill-rule:nonzero;fill:rgb(0%,0%,0%);fill-opacity:1;" d="M 294.503906 0.550781 C 322.347656 0.535156 349.054688 11.589844 368.742188 31.277344 C 388.425781 50.96875 399.472656 77.679688 399.449219 105.523438 L 399.449219 294.503906 C 399.464844 322.34375 388.414062 349.046875 368.730469 368.730469 C 349.046875 388.414062 322.34375 399.464844 294.503906 399.449219 L 105.523438 399.449219 C 77.679688 399.472656 50.96875 388.425781 31.277344 368.742188 C 11.589844 349.054688 0.535156 322.347656 0.550781 294.503906 L 0.550781 105.523438 C 0.535156 77.683594 11.585938 50.980469 31.269531 31.296875 C 50.953125 11.613281 77.65625 0.5625 105.496094 0.578125 L 294.503906 0.578125 M 294.503906 0.0273438 L 105.523438 0.0273438 C 47.253906 0 0 47.253906 0 105.523438 L 0 294.503906 C 0 352.785156 47.253906 400 105.496094 400 L 294.503906 400 C 352.785156 400 400 352.746094 400 294.503906 L 400 105.523438 C 400 47.242188 352.746094 0.0273438 294.503906 0.0273438 Z M 294.503906 0.0273438 "/>
<path style="fill-rule:nonzero;fill:url(#linear0);stroke-width:1;stroke-linecap:butt;stroke-linejoin:miter;stroke:url(#linear1);stroke-miterlimit:10;" d="M 1289.841953 394.862656 C 1289.841953 344.762891 1248.351641 304.139922 1197.157031 304.139922 C 1175.473437 304.083047 1154.443906 311.569219 1137.672891 325.311641 C 1120.894766 311.569219 1099.858125 304.083047 1078.167422 304.139922 C 1026.979922 304.139922 985.489609 344.762891 985.489609 394.862656 C 985.4825 414.427656 991.909375 433.452344 1003.789141 449.000547 L 1003.853125 449.057422 C 1007.258516 453.536328 1011.07625 457.688203 1015.249453 461.463281 L 1137.672891 594.607656 L 1259.996797 461.541484 C 1278.964609 444.557187 1289.813516 420.314219 1289.841953 394.862656 Z M 1289.841953 394.862656 " transform="matrix(0.549451,0,0,0.549451,-351.098901,-115.934066)"/>
</g>
</svg>
