<?xml version="1.0" encoding="UTF-8"?>
<svg version="1.1" xmlns="http://www.w3.org/2000/svg" width="400" height="400">
<path d="M0 0 C0.90688694 0.00223072 1.81377388 0.00446144 2.74814224 0.00675976 C4.18169241 0.00441978 4.18169241 0.00441978 5.64420319 0.00203252 C8.87254975 -0.00198191 12.10084995 0.00121387 15.32919693 0.00434887 C17.6331116 0.00299503 19.93702605 0.00121519 22.24094009 -0.00096118 C28.51761272 -0.00553752 34.794269 -0.00374514 41.07094193 -0.0005821 C47.62349875 0.00194048 54.17605412 -0.00039575 60.72861099 -0.00196826 C72.440835 -0.0041075 84.1530521 -0.00078928 95.86527491 0.00429107 C106.4951797 0.00875912 117.12507358 0.00798319 127.75497818 0.00337231 C140.08463486 -0.00197332 152.41428458 -0.00397436 164.74394226 -0.00101542 C171.27598457 0.00054782 177.80801935 0.00073982 184.34006119 -0.00255191 C190.4794884 -0.00542939 196.61889489 -0.00345722 202.75831985 0.00234234 C205.01870565 0.00367061 207.27909318 0.00327471 209.5394783 0.00107968 C212.61101005 -0.00162923 215.68247424 0.0017461 218.75400162 0.00675976 C219.66088856 0.00452904 220.5677755 0.00229832 221.50214386 0 C227.63692212 0.01959359 227.63692212 0.01959359 228.75107193 1.13374341 C230.16057881 1.42883402 231.58133298 1.67080304 233.00497818 1.88764966 C233.85898209 2.01977856 234.71298599 2.15190747 235.5928688 2.28804028 C236.49070084 2.42274731 237.38853287 2.55745434 238.31357193 2.69624341 C239.21527115 2.83481762 240.11697037 2.97339184 241.0459938 3.11616528 C243.28048626 3.45902391 245.51549463 3.79804364 247.75107193 4.13374341 C247.75107193 4.79374341 247.75107193 5.45374341 247.75107193 6.13374341 C251.71107193 6.62874341 251.71107193 6.62874341 255.75107193 7.13374341 C255.75107193 7.79374341 255.75107193 8.45374341 255.75107193 9.13374341 C256.63794693 9.23686841 257.52482193 9.33999341 258.43857193 9.44624341 C261.83216206 10.15057343 263.8932616 11.22853652 266.75107193 13.13374341 C267.41107193 13.46374341 268.07107193 13.79374341 268.75107193 14.13374341 C268.75107193 14.79374341 268.75107193 15.45374341 268.75107193 16.13374341 C270.07107193 16.46374341 271.39107193 16.79374341 272.75107193 17.13374341 C272.75107193 17.79374341 272.75107193 18.45374341 272.75107193 19.13374341 C273.61732193 19.25749341 273.61732193 19.25749341 274.50107193 19.38374341 C277.40500553 20.35172127 278.78847797 21.82068624 280.75107193 24.13374341 C280.75107193 24.79374341 280.75107193 25.45374341 280.75107193 26.13374341 C281.74107193 26.46374341 282.73107193 26.79374341 283.75107193 27.13374341 C283.75107193 27.79374341 283.75107193 28.45374341 283.75107193 29.13374341 C284.74107193 29.46374341 285.73107193 29.79374341 286.75107193 30.13374341 C288.11283774 32.11449368 289.44700309 34.11454004 290.75107193 36.13374341 C291.41107193 36.46374341 292.07107193 36.79374341 292.75107193 37.13374341 C293.37607193 39.69624341 293.37607193 39.69624341 293.75107193 42.13374341 C294.41107193 42.13374341 295.07107193 42.13374341 295.75107193 42.13374341 C298.56640012 47.17514505 300.26992283 51.35995415 300.75107193 57.13374341 C301.41107193 57.13374341 302.07107193 57.13374341 302.75107193 57.13374341 C303.08107193 60.43374341 303.41107193 63.73374341 303.75107193 67.13374341 C304.41107193 67.13374341 305.07107193 67.13374341 305.75107193 67.13374341 C307.58339099 80.61859877 308.03868133 93.85680986 308.00986099 107.45405591 C308.01257808 109.63437528 308.01614301 111.81469374 308.02048111 113.9950105 C308.02952204 119.86275794 308.02609543 125.73043427 308.01972294 131.5981828 C308.01461962 137.77165922 308.01936633 143.94513 308.02249527 150.11860669 C308.02612238 160.48108512 308.02136888 170.84353495 308.01181412 181.20600903 C308.00093202 193.14505633 308.00445849 205.0840353 308.01546693 217.02308095 C308.02457569 227.31833806 308.0258076 237.61357473 308.02058959 247.90883458 C308.01748956 254.03819789 308.01700596 260.16752919 308.02366257 266.29689038 C308.02948787 272.06234662 308.02534537 277.82771572 308.01387405 283.59316266 C308.01125497 285.69484068 308.01194473 287.79652618 308.01639938 289.89820111 C308.04054006 302.45626995 307.44266353 314.68456434 305.75107193 327.13374341 C305.09107193 327.13374341 304.43107193 327.13374341 303.75107193 327.13374341 C303.42107193 330.43374341 303.09107193 333.73374341 302.75107193 337.13374341 C302.09107193 337.13374341 301.43107193 337.13374341 300.75107193 337.13374341 C300.66857193 337.93811841 300.58607193 338.74249341 300.50107193 339.57124341 C299.54910518 344.09308546 297.73527014 347.98077042 295.75107193 352.13374341 C295.09107193 352.13374341 294.43107193 352.13374341 293.75107193 352.13374341 C293.42107193 353.45374341 293.09107193 354.77374341 292.75107193 356.13374341 C292.09107193 356.13374341 291.43107193 356.13374341 290.75107193 356.13374341 C290.6041188 356.98452466 290.6041188 356.98452466 290.45419693 357.85249341 C288.54343545 364.05185287 282.91564588 369.4641777 277.75107193 373.13374341 C276.88482193 373.87624341 276.01857193 374.61874341 275.12607193 375.38374341 C272.75107193 377.13374341 272.75107193 377.13374341 269.75107193 377.13374341 C269.75107193 377.79374341 269.75107193 378.45374341 269.75107193 379.13374341 C268.43107193 379.46374341 267.11107193 379.79374341 265.75107193 380.13374341 C265.75107193 380.79374341 265.75107193 381.45374341 265.75107193 382.13374341 C263.81639251 382.97360424 261.87822064 383.80542367 259.93857193 384.63374341 C258.32015396 385.32983716 258.32015396 385.32983716 256.66904068 386.03999341 C253.75107193 387.13374341 253.75107193 387.13374341 250.75107193 387.13374341 C250.75107193 387.79374341 250.75107193 388.45374341 250.75107193 389.13374341 C247.78107193 389.79374341 244.81107193 390.45374341 241.75107193 391.13374341 C241.75107193 391.46374341 241.75107193 391.79374341 241.75107193 392.13374341 C227.89819021 393.8957366 214.28810919 394.42218889 200.33310318 394.39253247 C198.15425882 394.39525012 195.97541538 394.39881535 193.79657364 394.40315259 C187.93708241 394.41218688 182.07766247 394.40876971 176.21817017 394.40239441 C170.05050608 394.39728759 163.88284761 394.40203876 157.71518326 394.40516675 C147.36287733 394.40879285 137.01060006 394.40404302 126.65829849 394.39448559 C114.7345872 394.38360369 102.81094433 394.38713023 90.88723469 394.3981384 C80.60128353 394.40725005 70.31535282 394.40847768 60.02939892 394.40326107 C53.90728447 394.40016261 47.78520206 394.399673 41.66308975 394.40633404 C35.90418334 394.41216361 30.1453641 394.40800927 24.38646698 394.39654553 C22.28843327 394.39392867 20.19039206 394.39461224 18.09236145 394.39907086 C8.04841019 394.41842771 -1.89996995 394.24953423 -11.90005112 393.24256909 C-12.68675847 393.16509764 -13.47346582 393.0876262 -14.28401279 393.00780714 C-18.00409236 392.5856645 -21.0111288 392.03662677 -24.24892807 390.13374341 C-25.90633522 389.75705996 -27.57238078 389.41316795 -29.24892807 389.13374341 C-29.24892807 388.47374341 -29.24892807 387.81374341 -29.24892807 387.13374341 C-30.23892807 387.05124341 -31.22892807 386.96874341 -32.24892807 386.88374341 C-36.72349755 386.27066333 -40.34463492 384.31406296 -44.24892807 382.13374341 C-44.24892807 381.47374341 -44.24892807 380.81374341 -44.24892807 380.13374341 C-45.33174057 380.04093091 -45.33174057 380.04093091 -46.43642807 379.94624341 C-50.11466019 378.88364301 -51.67620733 376.90957367 -54.24892807 374.13374341 C-55.23892807 373.47374341 -56.22892807 372.81374341 -57.24892807 372.13374341 C-57.24892807 371.47374341 -57.24892807 370.81374341 -57.24892807 370.13374341 C-58.23892807 369.80374341 -59.22892807 369.47374341 -60.24892807 369.13374341 C-60.24892807 368.47374341 -60.24892807 367.81374341 -60.24892807 367.13374341 C-61.23892807 366.80374341 -62.22892807 366.47374341 -63.24892807 366.13374341 C-67.24892807 361.67660055 -67.24892807 361.67660055 -67.24892807 359.13374341 C-67.90892807 359.13374341 -68.56892807 359.13374341 -69.24892807 359.13374341 C-69.74392807 357.15374341 -69.74392807 357.15374341 -70.24892807 355.13374341 C-70.90892807 355.13374341 -71.56892807 355.13374341 -72.24892807 355.13374341 C-73.08962222 353.53342204 -73.92124312 351.92833169 -74.74892807 350.32124341 C-75.44502182 348.98126294 -75.44502182 348.98126294 -76.15517807 347.61421216 C-77.24892807 345.13374341 -77.24892807 345.13374341 -77.24892807 342.13374341 C-77.90892807 342.13374341 -78.56892807 342.13374341 -79.24892807 342.13374341 C-79.57892807 339.49374341 -79.90892807 336.85374341 -80.24892807 334.13374341 C-80.90892807 334.13374341 -81.56892807 334.13374341 -82.24892807 334.13374341 C-82.33457016 333.56341382 -82.42021225 332.99308423 -82.50844955 332.40547192 C-82.89685607 329.83506525 -83.29155636 327.26566446 -83.68642807 324.69624341 C-83.88848862 323.34949536 -83.88848862 323.34949536 -84.0946312 321.97554028 C-84.2267601 321.12153637 -84.35888901 320.26753247 -84.49502182 319.38764966 C-84.6154686 318.59689038 -84.73591537 317.8061311 -84.86001205 316.99140942 C-85.07355249 315.12671724 -85.07355249 315.12671724 -86.24892807 314.13374341 C-86.34915812 311.12725221 -86.38330816 308.14365448 -86.37591171 305.13667309 C-86.3774717 304.18097298 -86.37903169 303.22527287 -86.38063896 302.24061215 C-86.38465338 299.01226559 -86.38145761 295.78396538 -86.3783226 292.55561841 C-86.37967645 290.25170374 -86.38145628 287.94778928 -86.38363266 285.64387524 C-86.38820899 279.36720261 -86.38641661 273.09054634 -86.38325357 266.81387341 C-86.380731 260.26131659 -86.38306722 253.70876122 -86.38463974 247.15620434 C-86.38677897 235.44398034 -86.38346075 223.73176324 -86.3783804 212.01954043 C-86.37391236 201.38963563 -86.37468829 190.75974175 -86.37929916 180.12983716 C-86.38464479 167.80018047 -86.38664584 155.47053076 -86.3836869 143.14087307 C-86.38212365 136.60883076 -86.38193166 130.07679598 -86.38522339 123.54475415 C-86.38810086 117.40532693 -86.3861287 111.26592044 -86.38032913 105.12649548 C-86.37900087 102.86610968 -86.37939677 100.60572216 -86.3815918 98.34533703 C-86.3843007 95.27380528 -86.38092537 92.20234109 -86.37591171 89.13081372 C-86.37814243 88.22392678 -86.38037316 87.31703984 -86.38267148 86.38267148 C-86.36307788 80.24789322 -86.36307788 80.24789322 -85.24892807 79.13374341 C-84.95383746 77.72423653 -84.71186844 76.30348236 -84.49502182 74.87983716 C-84.36289291 74.02583325 -84.23076401 73.17182934 -84.0946312 72.29194653 C-83.95992416 71.3941145 -83.82521713 70.49628247 -83.68642807 69.57124341 C-83.47856674 68.21869458 -83.47856674 68.21869458 -83.2665062 66.83882153 C-82.92364757 64.60432908 -82.58462784 62.3693207 -82.24892807 60.13374341 C-81.58892807 60.13374341 -80.92892807 60.13374341 -80.24892807 60.13374341 C-79.91892807 57.49374341 -79.58892807 54.85374341 -79.24892807 52.13374341 C-78.58892807 52.13374341 -77.92892807 52.13374341 -77.24892807 52.13374341 C-77.16642807 51.28811841 -77.08392807 50.44249341 -76.99892807 49.57124341 C-76.09158954 45.4126085 -74.48351534 42.73791642 -72.24892807 39.13374341 C-71.58892807 39.13374341 -70.92892807 39.13374341 -70.24892807 39.13374341 C-70.15611557 38.01999341 -70.15611557 38.01999341 -70.06142807 36.88374341 C-68.98381413 33.23643467 -67.26503456 32.41257942 -64.24892807 30.13374341 C-63.31029228 29.04819071 -62.39511254 27.94209808 -61.49892807 26.82124341 C-57.987962 22.59711235 -53.83460838 19.15112105 -49.24892807 16.13374341 C-48.58892807 16.13374341 -47.92892807 16.13374341 -47.24892807 16.13374341 C-47.24892807 15.47374341 -47.24892807 14.81374341 -47.24892807 14.13374341 C-45.6486067 13.29304925 -44.04351636 12.46142836 -42.43642807 11.63374341 C-41.54310776 11.16968091 -40.64978745 10.70561841 -39.72939682 10.22749341 C-37.24892807 9.13374341 -37.24892807 9.13374341 -34.24892807 9.13374341 C-34.24892807 8.47374341 -34.24892807 7.81374341 -34.24892807 7.13374341 C-31.60892807 6.80374341 -28.96892807 6.47374341 -26.24892807 6.13374341 C-26.24892807 5.47374341 -26.24892807 4.81374341 -26.24892807 4.13374341 C-25.67859848 4.04810132 -25.10826889 3.96245923 -24.52065659 3.87422192 C-21.95024991 3.4858154 -19.38084913 3.09111512 -16.81142807 2.69624341 C-15.91359604 2.56153637 -15.01576401 2.42682934 -14.09072495 2.28804028 C-13.23672104 2.15591137 -12.38271713 2.02378247 -11.50283432 1.88764966 C-10.3166954 1.70697949 -10.3166954 1.70697949 -9.10659409 1.52265942 C-1.86198295 0.0059469 -1.86198295 0.0059469 0 0 Z " fill="#FEFEFE" transform="translate(88.24892807006836,1.866256594657898)"/>
<path d="M0 0 C1.53043945 0.00193359 1.53043945 0.00193359 3.09179688 0.00390625 C9.62180509 0.07891592 15.71501392 0.84766637 22.0625 2.375 C22.0625 3.035 22.0625 3.695 22.0625 4.375 C22.97 4.49875 23.8775 4.6225 24.8125 4.75 C27.65220323 5.29609677 29.58840591 5.94763803 32.0625 7.375 C32.0625 8.035 32.0625 8.695 32.0625 9.375 C32.619375 9.436875 33.17625 9.49875 33.75 9.5625 C36.0625 10.375 36.0625 10.375 38.5625 13 C40.72358038 15.56086973 40.72358038 15.56086973 43 15.5 C45.41502175 14.18271541 47.41073822 12.5212495 49.48046875 10.71875 C55.77180233 5.375 55.77180233 5.375 60.0625 5.375 C60.0625 4.715 60.0625 4.055 60.0625 3.375 C73.12873789 -1.46008363 90.89717571 -1.77267727 103.88671875 3.52734375 C117.310134 10.28585547 126.97489881 21.24277447 132.0625 35.375 C133.32122632 40.71511758 133.24642675 45.91507404 133.25 51.375 C133.26224609 52.35984375 133.27449219 53.3446875 133.28710938 54.359375 C133.28904297 55.31328125 133.29097656 56.2671875 133.29296875 57.25 C133.29707764 58.11367187 133.30118652 58.97734375 133.30541992 59.8671875 C133.0322852 62.68692601 132.20221804 64.79264794 131.0625 67.375 C130.37688913 69.51485581 129.71119453 71.6611654 129.0625 73.8125 C127.789982 78.0227451 126.47038022 82.20792597 125.0625 86.375 C124.4025 86.375 123.7425 86.375 123.0625 86.375 C122.7325 88.025 122.4025 89.675 122.0625 91.375 C121.4025 91.375 120.7425 91.375 120.0625 91.375 C119.98128906 92.08269531 119.90007812 92.79039062 119.81640625 93.51953125 C118.87602547 97.08128437 117.25977501 99.15928991 115 102.0625 C114.39164307 102.84524292 114.39164307 102.84524292 113.77099609 103.64379883 C112.53943031 105.22446041 111.30101728 106.7997793 110.0625 108.375 C109.07830078 109.7053125 109.07830078 109.7053125 108.07421875 111.0625 C103.86624234 116.63828655 99.27064538 120.93059793 93.7734375 125.23046875 C91.32336834 127.16863585 89.03902473 129.18940829 86.75 131.3125 C82.89741018 134.77983084 78.82781461 137.85160391 74.625 140.875 C74.00906982 141.32093506 73.39313965 141.76687012 72.75854492 142.22631836 C68.31178231 145.375 68.31178231 145.375 66.0625 145.375 C65.7325 146.365 65.4025 147.355 65.0625 148.375 C62.65625 149.8046875 62.65625 149.8046875 59.5625 151.25 C55.6463621 153.1035457 51.93060039 155.03040062 48.25 157.3125 C45.2651653 159.02278849 43.42905337 159.66756747 40 159.1875 C39.030625 158.919375 38.06125 158.65125 37.0625 158.375 C37.0625 157.715 37.0625 157.055 37.0625 156.375 C35.4125 156.045 33.7625 155.715 32.0625 155.375 C32.0625 154.715 32.0625 154.055 32.0625 153.375 C30.763125 152.9728125 30.763125 152.9728125 29.4375 152.5625 C26.14458036 151.40388013 23.15122125 149.99290161 20.0625 148.375 C20.0625 147.715 20.0625 147.055 20.0625 146.375 C18.7425 146.045 17.4225 145.715 16.0625 145.375 C16.0625 144.715 16.0625 144.055 16.0625 143.375 C13.0925 142.385 13.0925 142.385 10.0625 141.375 C10.0625 140.715 10.0625 140.055 10.0625 139.375 C9.505625 139.313125 8.94875 139.25125 8.375 139.1875 C5.11594226 138.04242566 3.48040941 135.82449313 1.0625 133.375 C-0.70943509 131.87225269 -2.50155556 130.39300119 -4.3125 128.9375 C-5.27414063 128.15632813 -6.23578125 127.37515625 -7.2265625 126.5703125 C-8.8037483 125.29311017 -10.38155378 124.01667089 -11.9609375 122.7421875 C-16.4563512 119.01974086 -20.22577152 114.87206079 -23.9375 110.375 C-24.52660156 109.67375 -25.11570313 108.9725 -25.72265625 108.25 C-30.8887199 101.89176782 -36.29865266 94.55018032 -37.9375 86.375 C-38.5975 86.375 -39.2575 86.375 -39.9375 86.375 C-40.77669398 84.10617913 -41.60901724 81.83522973 -42.4375 79.5625 C-42.67597656 78.91990234 -42.91445312 78.27730469 -43.16015625 77.61523438 C-44.20818746 74.72566261 -44.9375 72.47423939 -44.9375 69.375 C-45.5975 69.375 -46.2575 69.375 -46.9375 69.375 C-49.7962097 56.60072548 -49.99417038 40.20941514 -43.9375 28.375 C-43.586875 27.67117187 -43.23625 26.96734375 -42.875 26.2421875 C-37.76380434 17.19111184 -30.10872636 9.27198198 -20.9375 4.375 C-20.01408813 3.86090576 -20.01408813 3.86090576 -19.07202148 3.33642578 C-12.6821372 0.0907931 -7.0806887 -0.1693305 0 0 Z " fill="#FF4D76" transform="translate(199.9375,68.625)"/>
<path d="M0 0 C0.90688694 0.00223072 1.81377388 0.00446144 2.74814224 0.00675976 C4.18169241 0.00441978 4.18169241 0.00441978 5.64420319 0.00203252 C8.87254975 -0.00198191 12.10084995 0.00121387 15.32919693 0.00434887 C17.6331116 0.00299503 19.93702605 0.00121519 22.24094009 -0.00096118 C28.51761272 -0.00553752 34.794269 -0.00374514 41.07094193 -0.0005821 C47.62349875 0.00194048 54.17605412 -0.00039575 60.72861099 -0.00196826 C72.440835 -0.0041075 84.1530521 -0.00078928 95.86527491 0.00429107 C106.4951797 0.00875912 117.12507358 0.00798319 127.75497818 0.00337231 C140.08463486 -0.00197332 152.41428458 -0.00397436 164.74394226 -0.00101542 C171.27598457 0.00054782 177.80801935 0.00073982 184.34006119 -0.00255191 C190.4794884 -0.00542939 196.61889489 -0.00345722 202.75831985 0.00234234 C205.01870565 0.00367061 207.27909318 0.00327471 209.5394783 0.00107968 C212.61101005 -0.00162923 215.68247424 0.0017461 218.75400162 0.00675976 C219.66088856 0.00452904 220.5677755 0.00229832 221.50214386 0 C227.63692212 0.01959359 227.63692212 0.01959359 228.75107193 1.13374341 C230.16057881 1.42883402 231.58133298 1.67080304 233.00497818 1.88764966 C233.85898209 2.01977856 234.71298599 2.15190747 235.5928688 2.28804028 C236.49070084 2.42274731 237.38853287 2.55745434 238.31357193 2.69624341 C239.21527115 2.83481762 240.11697037 2.97339184 241.0459938 3.11616528 C243.28048626 3.45902391 245.51549463 3.79804364 247.75107193 4.13374341 C247.75107193 4.79374341 247.75107193 5.45374341 247.75107193 6.13374341 C251.71107193 6.62874341 251.71107193 6.62874341 255.75107193 7.13374341 C255.75107193 7.79374341 255.75107193 8.45374341 255.75107193 9.13374341 C256.63794693 9.23686841 257.52482193 9.33999341 258.43857193 9.44624341 C261.83216206 10.15057343 263.8932616 11.22853652 266.75107193 13.13374341 C267.41107193 13.46374341 268.07107193 13.79374341 268.75107193 14.13374341 C268.75107193 14.79374341 268.75107193 15.45374341 268.75107193 16.13374341 C270.07107193 16.46374341 271.39107193 16.79374341 272.75107193 17.13374341 C272.75107193 17.79374341 272.75107193 18.45374341 272.75107193 19.13374341 C273.61732193 19.25749341 273.61732193 19.25749341 274.50107193 19.38374341 C277.40500553 20.35172127 278.78847797 21.82068624 280.75107193 24.13374341 C280.75107193 24.79374341 280.75107193 25.45374341 280.75107193 26.13374341 C281.74107193 26.46374341 282.73107193 26.79374341 283.75107193 27.13374341 C283.75107193 27.79374341 283.75107193 28.45374341 283.75107193 29.13374341 C284.74107193 29.46374341 285.73107193 29.79374341 286.75107193 30.13374341 C288.11283774 32.11449368 289.44700309 34.11454004 290.75107193 36.13374341 C291.41107193 36.46374341 292.07107193 36.79374341 292.75107193 37.13374341 C293.37607193 39.69624341 293.37607193 39.69624341 293.75107193 42.13374341 C294.41107193 42.13374341 295.07107193 42.13374341 295.75107193 42.13374341 C298.56640012 47.17514505 300.26992283 51.35995415 300.75107193 57.13374341 C301.41107193 57.13374341 302.07107193 57.13374341 302.75107193 57.13374341 C303.08107193 60.43374341 303.41107193 63.73374341 303.75107193 67.13374341 C304.41107193 67.13374341 305.07107193 67.13374341 305.75107193 67.13374341 C307.58339099 80.61859877 308.03868133 93.85680986 308.00986099 107.45405591 C308.01257808 109.63437528 308.01614301 111.81469374 308.02048111 113.9950105 C308.02952204 119.86275794 308.02609543 125.73043427 308.01972294 131.5981828 C308.01461962 137.77165922 308.01936633 143.94513 308.02249527 150.11860669 C308.02612238 160.48108512 308.02136888 170.84353495 308.01181412 181.20600903 C308.00093202 193.14505633 308.00445849 205.0840353 308.01546693 217.02308095 C308.02457569 227.31833806 308.0258076 237.61357473 308.02058959 247.90883458 C308.01748956 254.03819789 308.01700596 260.16752919 308.02366257 266.29689038 C308.02948787 272.06234662 308.02534537 277.82771572 308.01387405 283.59316266 C308.01125497 285.69484068 308.01194473 287.79652618 308.01639938 289.89820111 C308.04054006 302.45626995 307.44266353 314.68456434 305.75107193 327.13374341 C305.09107193 327.13374341 304.43107193 327.13374341 303.75107193 327.13374341 C303.42107193 330.43374341 303.09107193 333.73374341 302.75107193 337.13374341 C302.09107193 337.13374341 301.43107193 337.13374341 300.75107193 337.13374341 C300.66857193 337.93811841 300.58607193 338.74249341 300.50107193 339.57124341 C299.54910518 344.09308546 297.73527014 347.98077042 295.75107193 352.13374341 C295.09107193 352.13374341 294.43107193 352.13374341 293.75107193 352.13374341 C293.42107193 353.45374341 293.09107193 354.77374341 292.75107193 356.13374341 C292.09107193 356.13374341 291.43107193 356.13374341 290.75107193 356.13374341 C290.6041188 356.98452466 290.6041188 356.98452466 290.45419693 357.85249341 C288.54343545 364.05185287 282.91564588 369.4641777 277.75107193 373.13374341 C276.88482193 373.87624341 276.01857193 374.61874341 275.12607193 375.38374341 C272.75107193 377.13374341 272.75107193 377.13374341 269.75107193 377.13374341 C269.75107193 377.79374341 269.75107193 378.45374341 269.75107193 379.13374341 C268.43107193 379.46374341 267.11107193 379.79374341 265.75107193 380.13374341 C265.75107193 380.79374341 265.75107193 381.45374341 265.75107193 382.13374341 C263.81639251 382.97360424 261.87822064 383.80542367 259.93857193 384.63374341 C258.32015396 385.32983716 258.32015396 385.32983716 256.66904068 386.03999341 C253.75107193 387.13374341 253.75107193 387.13374341 250.75107193 387.13374341 C250.75107193 387.79374341 250.75107193 388.45374341 250.75107193 389.13374341 C247.78107193 389.79374341 244.81107193 390.45374341 241.75107193 391.13374341 C241.75107193 391.46374341 241.75107193 391.79374341 241.75107193 392.13374341 C227.89819021 393.8957366 214.28810919 394.42218889 200.33310318 394.39253247 C198.15425882 394.39525012 195.97541538 394.39881535 193.79657364 394.40315259 C187.93708241 394.41218688 182.07766247 394.40876971 176.21817017 394.40239441 C170.05050608 394.39728759 163.88284761 394.40203876 157.71518326 394.40516675 C147.36287733 394.40879285 137.01060006 394.40404302 126.65829849 394.39448559 C114.7345872 394.38360369 102.81094433 394.38713023 90.88723469 394.3981384 C80.60128353 394.40725005 70.31535282 394.40847768 60.02939892 394.40326107 C53.90728447 394.40016261 47.78520206 394.399673 41.66308975 394.40633404 C35.90418334 394.41216361 30.1453641 394.40800927 24.38646698 394.39654553 C22.28843327 394.39392867 20.19039206 394.39461224 18.09236145 394.39907086 C8.04841019 394.41842771 -1.89996995 394.24953423 -11.90005112 393.24256909 C-12.68675847 393.16509764 -13.47346582 393.0876262 -14.28401279 393.00780714 C-18.00409236 392.5856645 -21.0111288 392.03662677 -24.24892807 390.13374341 C-25.90633522 389.75705996 -27.57238078 389.41316795 -29.24892807 389.13374341 C-29.24892807 388.47374341 -29.24892807 387.81374341 -29.24892807 387.13374341 C-30.23892807 387.05124341 -31.22892807 386.96874341 -32.24892807 386.88374341 C-36.72349755 386.27066333 -40.34463492 384.31406296 -44.24892807 382.13374341 C-44.24892807 381.47374341 -44.24892807 380.81374341 -44.24892807 380.13374341 C-45.33174057 380.04093091 -45.33174057 380.04093091 -46.43642807 379.94624341 C-50.11466019 378.88364301 -51.67620733 376.90957367 -54.24892807 374.13374341 C-55.23892807 373.47374341 -56.22892807 372.81374341 -57.24892807 372.13374341 C-57.24892807 371.47374341 -57.24892807 370.81374341 -57.24892807 370.13374341 C-58.23892807 369.80374341 -59.22892807 369.47374341 -60.24892807 369.13374341 C-60.24892807 368.47374341 -60.24892807 367.81374341 -60.24892807 367.13374341 C-61.23892807 366.80374341 -62.22892807 366.47374341 -63.24892807 366.13374341 C-67.24892807 361.67660055 -67.24892807 361.67660055 -67.24892807 359.13374341 C-67.90892807 359.13374341 -68.56892807 359.13374341 -69.24892807 359.13374341 C-69.74392807 357.15374341 -69.74392807 357.15374341 -70.24892807 355.13374341 C-70.90892807 355.13374341 -71.56892807 355.13374341 -72.24892807 355.13374341 C-73.08962222 353.53342204 -73.92124312 351.92833169 -74.74892807 350.32124341 C-75.44502182 348.98126294 -75.44502182 348.98126294 -76.15517807 347.61421216 C-77.24892807 345.13374341 -77.24892807 345.13374341 -77.24892807 342.13374341 C-77.90892807 342.13374341 -78.56892807 342.13374341 -79.24892807 342.13374341 C-79.57892807 339.49374341 -79.90892807 336.85374341 -80.24892807 334.13374341 C-80.90892807 334.13374341 -81.56892807 334.13374341 -82.24892807 334.13374341 C-82.33457016 333.56341382 -82.42021225 332.99308423 -82.50844955 332.40547192 C-82.89685607 329.83506525 -83.29155636 327.26566446 -83.68642807 324.69624341 C-83.88848862 323.34949536 -83.88848862 323.34949536 -84.0946312 321.97554028 C-84.2267601 321.12153637 -84.35888901 320.26753247 -84.49502182 319.38764966 C-84.6154686 318.59689038 -84.73591537 317.8061311 -84.86001205 316.99140942 C-85.07355249 315.12671724 -85.07355249 315.12671724 -86.24892807 314.13374341 C-86.34915812 311.12725221 -86.38330816 308.14365448 -86.37591171 305.13667309 C-86.3774717 304.18097298 -86.37903169 303.22527287 -86.38063896 302.24061215 C-86.38465338 299.01226559 -86.38145761 295.78396538 -86.3783226 292.55561841 C-86.37967645 290.25170374 -86.38145628 287.94778928 -86.38363266 285.64387524 C-86.38820899 279.36720261 -86.38641661 273.09054634 -86.38325357 266.81387341 C-86.380731 260.26131659 -86.38306722 253.70876122 -86.38463974 247.15620434 C-86.38677897 235.44398034 -86.38346075 223.73176324 -86.3783804 212.01954043 C-86.37391236 201.38963563 -86.37468829 190.75974175 -86.37929916 180.12983716 C-86.38464479 167.80018047 -86.38664584 155.47053076 -86.3836869 143.14087307 C-86.38212365 136.60883076 -86.38193166 130.07679598 -86.38522339 123.54475415 C-86.38810086 117.40532693 -86.3861287 111.26592044 -86.38032913 105.12649548 C-86.37900087 102.86610968 -86.37939677 100.60572216 -86.3815918 98.34533703 C-86.3843007 95.27380528 -86.38092537 92.20234109 -86.37591171 89.13081372 C-86.37814243 88.22392678 -86.38037316 87.31703984 -86.38267148 86.38267148 C-86.36307788 80.24789322 -86.36307788 80.24789322 -85.24892807 79.13374341 C-84.95383746 77.72423653 -84.71186844 76.30348236 -84.49502182 74.87983716 C-84.36289291 74.02583325 -84.23076401 73.17182934 -84.0946312 72.29194653 C-83.95992416 71.3941145 -83.82521713 70.49628247 -83.68642807 69.57124341 C-83.47856674 68.21869458 -83.47856674 68.21869458 -83.2665062 66.83882153 C-82.92364757 64.60432908 -82.58462784 62.3693207 -82.24892807 60.13374341 C-81.58892807 60.13374341 -80.92892807 60.13374341 -80.24892807 60.13374341 C-79.91892807 57.49374341 -79.58892807 54.85374341 -79.24892807 52.13374341 C-78.58892807 52.13374341 -77.92892807 52.13374341 -77.24892807 52.13374341 C-77.16642807 51.28811841 -77.08392807 50.44249341 -76.99892807 49.57124341 C-76.09158954 45.4126085 -74.48351534 42.73791642 -72.24892807 39.13374341 C-71.58892807 39.13374341 -70.92892807 39.13374341 -70.24892807 39.13374341 C-70.15611557 38.01999341 -70.15611557 38.01999341 -70.06142807 36.88374341 C-68.98381413 33.23643467 -67.26503456 32.41257942 -64.24892807 30.13374341 C-63.31029228 29.04819071 -62.39511254 27.94209808 -61.49892807 26.82124341 C-57.987962 22.59711235 -53.83460838 19.15112105 -49.24892807 16.13374341 C-48.58892807 16.13374341 -47.92892807 16.13374341 -47.24892807 16.13374341 C-47.24892807 15.47374341 -47.24892807 14.81374341 -47.24892807 14.13374341 C-45.6486067 13.29304925 -44.04351636 12.46142836 -42.43642807 11.63374341 C-41.54310776 11.16968091 -40.64978745 10.70561841 -39.72939682 10.22749341 C-37.24892807 9.13374341 -37.24892807 9.13374341 -34.24892807 9.13374341 C-34.24892807 8.47374341 -34.24892807 7.81374341 -34.24892807 7.13374341 C-31.60892807 6.80374341 -28.96892807 6.47374341 -26.24892807 6.13374341 C-26.24892807 5.47374341 -26.24892807 4.81374341 -26.24892807 4.13374341 C-25.67859848 4.04810132 -25.10826889 3.96245923 -24.52065659 3.87422192 C-21.95024991 3.4858154 -19.38084913 3.09111512 -16.81142807 2.69624341 C-15.91359604 2.56153637 -15.01576401 2.42682934 -14.09072495 2.28804028 C-13.23672104 2.15591137 -12.38271713 2.02378247 -11.50283432 1.88764966 C-10.3166954 1.70697949 -10.3166954 1.70697949 -9.10659409 1.52265942 C-1.86198295 0.0059469 -1.86198295 0.0059469 0 0 Z M-28.09267807 8.17671216 C-30.12242466 9.07759606 -32.13827061 9.76362998 -34.24892807 10.44624341 C-38.60723407 12.0463517 -42.13721709 14.67665099 -45.85439682 17.41499341 C-48.24892807 19.13374341 -48.24892807 19.13374341 -51.04970932 20.72749341 C-51.77545151 21.19155591 -52.5011937 21.65561841 -53.24892807 22.13374341 C-53.24892807 22.79374341 -53.24892807 23.45374341 -53.24892807 24.13374341 C-54.89892807 24.79374341 -56.54892807 25.45374341 -58.24892807 26.13374341 C-58.24892807 26.79374341 -58.24892807 27.45374341 -58.24892807 28.13374341 C-59.23892807 28.46374341 -60.22892807 28.79374341 -61.24892807 29.13374341 C-64.96455661 32.64129674 -67.85443594 36.78139863 -70.25674057 41.27827466 C-70.94535451 42.56603695 -71.6725086 43.83363308 -72.42861557 45.08296216 C-80.66410313 58.9196043 -83.07690145 73.41860025 -83.78374863 89.2331239 C-83.84847002 90.68110642 -83.84847002 90.68110642 -83.91449893 92.15834111 C-84.33838117 102.2870659 -84.41911307 112.4073989 -84.44179916 122.54365551 C-84.44973219 124.57852315 -84.45800289 126.61338949 -84.46657944 128.64825451 C-84.49239787 135.23585246 -84.50805119 141.8234556 -84.52236557 148.41108716 C-84.52773906 150.70195084 -84.53311654 152.99281451 -84.53849792 155.28367817 C-84.56005431 164.81936453 -84.5787876 174.35504945 -84.59012032 183.89075387 C-84.60635828 197.45078704 -84.63961673 211.010534 -84.69652116 224.57045943 C-84.73540524 234.16948437 -84.75477386 243.76843327 -84.76004088 253.36753482 C-84.76366472 259.07290284 -84.77536917 264.77796275 -84.80814362 270.48324406 C-84.83855803 275.85244249 -84.84441912 281.22115141 -84.83275986 286.59041798 C-84.83254199 288.54005157 -84.84060313 290.48971027 -84.8584137 292.43926251 C-85.00948224 309.95296283 -82.90771168 327.20368987 -75.24892807 343.13374341 C-74.68632992 344.40453329 -74.12381534 345.67536018 -73.56142807 346.94624341 C-63.99901948 365.697529 -47.07456622 379.34277107 -27.51064682 386.41499341 C-22.822668 387.90478287 -18.03885399 389.02480298 -13.24892807 390.13374341 C-12.28756869 390.38195233 -12.28756869 390.38195233 -11.30678791 390.63517559 C-5.64353159 392.02785124 -0.35738202 392.4179593 5.45979691 392.38771069 C6.39556456 392.39083067 7.33133222 392.39395065 8.29545647 392.39716518 C11.40890088 392.40509732 14.52214779 392.39884022 17.63559341 392.39253247 C19.87682585 392.39524447 22.1180574 392.39880658 24.35928726 392.40315259 C30.43156845 392.41225444 36.50378152 392.40874125 42.57606387 392.40239441 C48.93885017 392.39732241 55.30163073 392.40202927 61.66441727 392.40516675 C73.03362528 392.40903592 84.40279879 392.40282927 95.7719999 392.39264807 C106.06525082 392.38371548 116.3584566 392.38526378 126.6517067 392.39448559 C138.62370252 392.40520648 150.59567097 392.40916298 162.56767327 392.40326107 C168.89812399 392.40014794 175.22854368 392.39971391 181.55899239 392.40633404 C187.51226128 392.41212506 193.46544524 392.40807842 199.41870499 392.39654553 C201.59952593 392.39390822 203.78035405 392.3946481 205.9611721 392.39907086 C208.94599797 392.40456456 211.93055444 392.3976459 214.91536331 392.38771069 C215.77112298 392.39217213 216.62688265 392.39663358 217.50857443 392.40123022 C223.4611124 392.36299965 228.95435412 391.43838473 234.75107193 390.13374341 C236.16734227 389.86084514 237.58395144 389.58969202 239.00107193 389.32124341 C261.73357591 384.04762209 280.02241131 370.68412974 292.75107193 351.13374341 C294.61000579 347.87245593 296.23982924 344.56838589 297.75107193 341.13374341 C298.04626724 340.48534497 298.34146255 339.83694653 298.64560318 339.16889966 C309.64400092 314.40895991 306.19950203 283.18206049 306.15404844 256.74137747 C306.14634994 250.84781927 306.15352472 244.95427373 306.15820694 239.06071484 C306.16363269 229.17813064 306.15655446 219.29561416 306.14218521 209.41304028 C306.1258377 198.03959923 306.13117542 186.66631941 306.14766443 175.2928822 C306.16133812 165.46196423 306.16317116 155.63109437 306.15534842 145.80016994 C306.15070756 139.95701017 306.14994747 134.11392586 306.15995789 128.27077115 C306.16871264 122.77929816 306.16245265 117.2880306 306.14527512 111.79657948 C306.1413564 109.79894041 306.14236347 107.80128361 306.14906311 105.80365193 C306.22709441 80.14453432 302.76976379 56.58901749 287.75107193 35.13374341 C287.09107193 35.13374341 286.43107193 35.13374341 285.75107193 35.13374341 C285.49841568 34.56011059 285.24575943 33.98647778 284.98544693 33.39546216 C277.21658581 19.1607451 256.54381698 9.56202321 241.75107193 5.13374341 C239.61354743 4.7324658 237.46657774 4.37881566 235.31357193 4.07124341 C234.24236099 3.91526684 233.17115005 3.75929028 232.06747818 3.59858716 C230.42585709 3.3684895 230.42585709 3.3684895 228.75107193 3.13374341 C227.71977126 2.96205262 226.68847059 2.79036183 225.62591839 2.61346829 C221.19720418 2.06517188 216.89363192 1.98874814 212.43712234 1.99330151 C211.51954759 1.99033039 210.60197284 1.98735927 209.65659279 1.98429811 C206.59245474 1.97565047 203.52835596 1.97410618 200.4642067 1.97261059 C198.26256096 1.96797952 196.06091602 1.96295447 193.859272 1.95756543 C187.88359648 1.9444646 181.90793218 1.93800062 175.93224454 1.93355477 C172.19376618 1.93061942 168.45529086 1.92651367 164.71681404 1.9220506 C154.34618568 1.90994486 143.97555947 1.89956258 133.6049242 1.8961755 C132.61056025 1.89584615 132.61056025 1.89584615 131.59610813 1.89551015 C130.93169394 1.89529187 130.26727974 1.8950736 129.58273178 1.8948487 C128.23658279 1.89440525 126.89043381 1.89395869 125.54428482 1.89350903 C124.87656136 1.8932876 124.2088379 1.89306617 123.52088039 1.89283803 C112.72007094 1.88889652 101.91932923 1.87146078 91.1185459 1.84814951 C80.00344452 1.82435558 68.88837123 1.8122272 57.77324337 1.81080759 C51.54314733 1.80976292 45.31314683 1.80392768 39.08307457 1.78598797 C33.21515508 1.76941981 27.34740204 1.76739402 21.47946739 1.77612698 C19.33663866 1.77689278 17.19380065 1.77261572 15.05099487 1.76266873 C0.19346335 1.69779567 -14.27198553 2.02650397 -28.09267807 8.17671216 Z " fill="#D3D3D8" transform="translate(88.24892807006836,1.866256594657898)"/>
<path d="M0 0 C2.64 0 5.28 0 8 0 C5.51078964 2.17805907 3.54525982 3.15680696 0.375 4.25 C-4.21401162 5.85701343 -7.8177961 8.50203055 -11.703125 11.37890625 C-13.753722 12.82618135 -15.76459026 13.88229513 -18 15 C-19.051875 16.051875 -19.051875 16.051875 -20.125 17.125 C-20.74375 17.74375 -21.3625 18.3625 -22 19 C-22.66 19 -23.32 19 -24 19 C-24 19.66 -24 20.32 -24 21 C-26.10962754 23.22366147 -28.26104963 25.34972368 -30.5625 27.375 C-32.35408969 29.4002753 -33.60900107 31.63851527 -34.90234375 34.00390625 C-35.637138 35.34013351 -36.40074272 36.66089702 -37.19140625 37.96484375 C-47.61148029 55.50584613 -48.34363244 74.18356975 -49 94 C-49.33 94 -49.66 94 -50 94 C-50.06058594 92.81921875 -50.12117188 91.6384375 -50.18359375 90.421875 C-50.26802582 88.8645723 -50.35267249 87.30728121 -50.4375 85.75 C-50.47681641 84.97269531 -50.51613281 84.19539063 -50.55664062 83.39453125 C-50.59853516 82.64042969 -50.64042969 81.88632813 -50.68359375 81.109375 C-50.72025146 80.41811523 -50.75690918 79.72685547 -50.79467773 79.01464844 C-50.95179886 76.94979468 -50.95179886 76.94979468 -51.58227539 74.80566406 C-51.72012451 74.20979492 -51.85797363 73.61392578 -52 73 C-51.505 72.505 -51.505 72.505 -51 72 C-50.70490939 70.59049312 -50.46294037 69.16973895 -50.24609375 67.74609375 C-50.11396484 66.89208984 -49.98183594 66.03808594 -49.84570312 65.15820312 C-49.71099609 64.26037109 -49.57628906 63.36253906 -49.4375 62.4375 C-49.29892578 61.53580078 -49.16035156 60.63410156 -49.01757812 59.70507812 C-48.67471949 57.47058567 -48.33569977 55.2355773 -48 53 C-47.34 53 -46.68 53 -46 53 C-45.67 50.36 -45.34 47.72 -45 45 C-44.34 45 -43.68 45 -43 45 C-42.9175 44.154375 -42.835 43.30875 -42.75 42.4375 C-41.84266147 38.27886509 -40.23458727 35.60417301 -38 32 C-37.34 32 -36.68 32 -36 32 C-35.9071875 30.88625 -35.9071875 30.88625 -35.8125 29.75 C-34.73488606 26.10269127 -33.01610649 25.27883602 -30 23 C-29.06136421 21.9144473 -28.14618447 20.80835467 -27.25 19.6875 C-23.73903393 15.46336895 -19.58568031 12.01737764 -15 9 C-14.34 9 -13.68 9 -13 9 C-13 8.34 -13 7.68 -13 7 C-11.39967863 6.15930585 -9.79458829 5.32768495 -8.1875 4.5 C-7.29417969 4.0359375 -6.40085938 3.571875 -5.48046875 3.09375 C-3 2 -3 2 0 2 C0 1.34 0 0.68 0 0 Z " fill="#D7D7DC" transform="translate(54,9)"/>
<path d="M0 0 C1.02931641 -0.00322266 2.05863281 -0.00644531 3.11914062 -0.00976562 C9.69313476 0.03597374 15.79892064 0.76345793 22.1875 2.3125 C22.1875 2.9725 22.1875 3.6325 22.1875 4.3125 C23.095 4.43625 24.0025 4.56 24.9375 4.6875 C27.77720323 5.23359677 29.71340591 5.88513803 32.1875 7.3125 C32.1875 7.9725 32.1875 8.6325 32.1875 9.3125 C32.744375 9.374375 33.30125 9.43625 33.875 9.5 C36.1875 10.3125 36.1875 10.3125 38.6875 12.9375 C40.84858038 15.49836973 40.84858038 15.49836973 43.125 15.4375 C45.54024151 14.12009554 47.53644423 12.45450159 49.61328125 10.66015625 C52.03297512 8.58870616 54.39764552 6.85582376 57.1875 5.3125 C60.0625 5.5625 60.0625 5.5625 62.1875 6.3125 C56.5625 10.0625 56.5625 10.0625 55 11.09375 C53.63323301 12.01278298 52.28150833 12.9542441 50.9375 13.90625 C50.15375 14.4528125 49.37 14.999375 48.5625 15.5625 C47.82773438 16.08328125 47.09296875 16.6040625 46.3359375 17.140625 C44.1875 18.3125 44.1875 18.3125 40.1875 18.3125 C40.1875 17.6525 40.1875 16.9925 40.1875 16.3125 C39.45273438 16.04308594 38.71796875 15.77367188 37.9609375 15.49609375 C35.28405839 14.35370731 33.17908985 13.05382637 30.8125 11.375 C27.02410857 8.78857329 23.46267679 6.95679877 19.1875 5.3125 C18.40044678 4.96219727 17.61339355 4.61189453 16.80249023 4.25097656 C14.05388299 3.26454708 12.00558952 3.05452674 9.09765625 3.046875 C8.14826172 3.04429688 7.19886719 3.04171875 6.22070312 3.0390625 C4.75020508 3.05066406 4.75020508 3.05066406 3.25 3.0625 C2.27353516 3.05476563 1.29707031 3.04703125 0.29101562 3.0390625 C-4.81403722 3.05290671 -9.04148898 3.29201001 -13.8125 5.3125 C-15.545 5.993125 -15.545 5.993125 -17.3125 6.6875 C-24.0268628 9.80488273 -28.77521621 14.00695849 -33.8125 19.3125 C-34.8025 18.6525 -35.7925 17.9925 -36.8125 17.3125 C-31.43771308 11.39723171 -25.94034422 6.95705383 -18.8125 3.3125 C-17.29269531 2.49652344 -17.29269531 2.49652344 -15.7421875 1.6640625 C-10.68162477 -0.45242133 -5.39516818 -0.08351654 0 0 Z " fill="#FF59A4" transform="translate(199.8125,68.6875)"/>
<path d="M0 0 C0.495 0.99 0.495 0.99 1 2 C-5.52927956 12.37003224 -12.62941228 21.33317992 -22.33203125 28.89453125 C-24.73826145 30.79344498 -26.95481996 32.77840713 -29.1875 34.875 C-33.31852093 38.59291884 -37.75227391 41.77526582 -42.3125 44.9375 C-43.00690186 45.4226709 -43.70130371 45.9078418 -44.41674805 46.40771484 C-45.079729 46.85969238 -45.74270996 47.31166992 -46.42578125 47.77734375 C-47.31390503 48.38437134 -47.31390503 48.38437134 -48.2199707 49.00366211 C-50.12938607 50.07242142 -51.86354143 50.56577955 -54 51 C-50.44197159 47.2287564 -46.70339229 44.24083051 -42.375 41.375 C-38.99847868 39.12398579 -35.81487201 36.94617799 -33 34 C-31.74341099 33.04349194 -30.47153349 32.10683759 -29.1875 31.1875 C-26.43513259 29.16504218 -23.99290955 27.0859969 -21.625 24.625 C-20.75875 23.75875 -19.8925 22.8925 -19 22 C-18.34 22 -17.68 22 -17 22 C-16.505 20.515 -16.505 20.515 -16 19 C-15.34 19 -14.68 19 -14 19 C-13.34 17.68 -12.68 16.36 -12 15 C-11.34 15 -10.68 15 -10 15 C-9.731875 14.443125 -9.46375 13.88625 -9.1875 13.3125 C-7.89100504 10.78774666 -6.57523677 8.36285516 -5 6 C-4.34 6 -3.68 6 -3 6 C-2.814375 5.071875 -2.814375 5.071875 -2.625 4.125 C-2 2 -2 2 0 0 Z " fill="#FF1F2E" transform="translate(316,165)"/>
<path d="M0 0 C2.475 0.99 2.475 0.99 5 2 C5 2.66 5 3.32 5 4 C5.58652344 4.26554688 6.17304688 4.53109375 6.77734375 4.8046875 C9.06195151 6.03331663 10.66622359 7.36387936 12.5625 9.125 C17.4325294 13.48001701 22.67240547 17.2287814 28 21 C28.8146875 21.5878125 29.629375 22.175625 30.46875 22.78125 C37.11322346 27.52730247 44.01199263 31.783099 51 36 C48 37 48 37 45.1875 35.75 C44.135625 35.1725 43.08375 34.595 42 34 C40.88625 33.443125 39.7725 32.88625 38.625 32.3125 C37.75875 31.879375 36.8925 31.44625 36 31 C36 30.34 36 29.68 36 29 C34.68 28.67 33.36 28.34 32 28 C32 27.34 32 26.68 32 26 C30.02 25.34 28.04 24.68 26 24 C26 23.34 26 22.68 26 22 C25.443125 21.938125 24.88625 21.87625 24.3125 21.8125 C21.05405805 20.66764202 19.41981923 18.4478345 17 16 C15.18539334 14.47739901 13.35173328 12.97722543 11.5 11.5 C1.93457944 3.86915888 1.93457944 3.86915888 0 0 Z " fill="#FF1D1D" transform="translate(184,186)"/>
<path d="M0 0 C1.11310547 0.01353516 2.22621094 0.02707031 3.37304688 0.04101562 C6.10337212 0.07617003 8.83267744 0.12537894 11.5625 0.1875 C11.5625 0.5175 11.5625 0.8475 11.5625 1.1875 C10.92223877 1.20731934 10.28197754 1.22713867 9.62231445 1.24755859 C6.7061472 1.34313601 3.79066428 1.45268214 0.875 1.5625 C-0.13240234 1.5934375 -1.13980469 1.624375 -2.17773438 1.65625 C-3.64243164 1.71425781 -3.64243164 1.71425781 -5.13671875 1.7734375 C-6.03221436 1.8048584 -6.92770996 1.8362793 -7.8503418 1.86865234 C-10.65663407 2.21450661 -12.83578418 3.11187611 -15.4375 4.1875 C-16.4275 4.1875 -17.4175 4.1875 -18.4375 4.1875 C-18.7675 5.1775 -19.0975 6.1675 -19.4375 7.1875 C-21.0390625 8.328125 -21.0390625 8.328125 -23.0625 9.4375 C-27.54327803 12.08229137 -30.92649681 15.38025592 -34.4375 19.1875 C-35.4275 18.5275 -36.4175 17.8675 -37.4375 17.1875 C-32.06271308 11.27223171 -26.56534422 6.83205383 -19.4375 3.1875 C-18.4371875 2.6409375 -17.436875 2.094375 -16.40625 1.53125 C-11.17442016 -0.66562262 -5.56899193 -0.12889655 0 0 Z " fill="#FF6BAE" transform="translate(200.4375,68.8125)"/>
<path d="M0 0 C0.75539063 0.00064453 1.51078125 0.00128906 2.2890625 0.00195312 C7.26716554 0.04044361 12.0717623 0.48746624 17 1.1875 C17 1.8475 17 2.5075 17 3.1875 C15.91114502 3.17178955 15.91114502 3.17178955 14.80029297 3.15576172 C11.49189759 3.1140304 8.18355776 3.08811936 4.875 3.0625 C3.73289062 3.04574219 2.59078125 3.02898437 1.4140625 3.01171875 C0.30546875 3.00527344 -0.803125 2.99882813 -1.9453125 2.9921875 C-2.96125488 2.98171387 -3.97719727 2.97124023 -5.02392578 2.96044922 C-8.28236665 3.20904233 -10.91853956 4.13839047 -14 5.1875 C-17.375 4.8125 -17.375 4.8125 -20 4.1875 C-13.84654068 0.08519378 -7.16896178 -0.11622037 0 0 Z " fill="#FF57A8" transform="translate(280,68.8125)"/>
<path d="M0 0 C9.34498174 1.05638924 17.6424639 8.29387837 24 15 C24.33 15.99 24.66 16.98 25 18 C24.01 18 23.02 18 22 18 C21.67 17.01 21.34 16.02 21 15 C20.34 15 19.68 15 19 15 C17.375 13.625 17.375 13.625 16 12 C16 11.34 16 10.68 16 10 C15.484375 9.7525 14.96875 9.505 14.4375 9.25 C12.46228213 8.23706776 10.53467618 7.13165996 8.625 6 C5.52627641 4.20635438 2.44620491 3.00864534 -1 2 C-0.67 1.34 -0.34 0.68 0 0 Z " fill="#FF52A0" transform="translate(298,71)"/>
<path d="M0 0 C0.66 0.33 1.32 0.66 2 1 C-4.21560741 7.80757002 -11.41917134 12.84249519 -19 18 C-19.86238281 18.58910156 -20.72476562 19.17820313 -21.61328125 19.78515625 C-23.36144339 20.93248753 -25.17376295 21.98152165 -27 23 C-27.66 22.67 -28.32 22.34 -29 22 C-27.31278686 20.77043961 -25.62521351 19.54137349 -23.9375 18.3125 C-22.93589844 17.58289063 -21.93429687 16.85328125 -20.90234375 16.1015625 C-18.61381161 14.44445578 -16.31342038 12.80938181 -14 11.1875 C-11.16311041 9.24053669 -11.16311041 9.24053669 -9.57421875 7.5625 C-7.77475539 5.77643215 -5.85201787 4.31706236 -3.8125 2.8125 C-3.09707031 2.28269531 -2.38164062 1.75289062 -1.64453125 1.20703125 C-1.10183594 0.80871094 -0.55914062 0.41039062 0 0 Z " fill="#FF1A1C" transform="translate(291,193)"/>
<path d="M0 0 C-1.55603771 3.81936528 -3.95604931 6.26044438 -7 9 C-7.66 9 -8.32 9 -9 9 C-9 9.66 -9 10.32 -9 11 C-11.76275839 13.99298825 -14.58523191 16.76273815 -18 19 C-18.66 19 -19.32 19 -20 19 C-20 18.34 -20 17.68 -20 17 C-19.29875 16.443125 -18.5975 15.88625 -17.875 15.3125 C-15.56279492 13.45268287 -13.97518495 11.8780478 -12.125 9.625 C-4.10070194 0 -4.10070194 0 0 0 Z " fill="#D4D4D8" transform="translate(39,19)"/>
<path d="M0 0 C0.66 0.33 1.32 0.66 2 1 C-5.72566372 11.9380531 -5.72566372 11.9380531 -11.3125 13.75 C-12.1478125 13.87375 -12.1478125 13.87375 -13 14 C-9.66258296 8.19579645 -5.09057916 4.28565853 0 0 Z " fill="#D1D1D7" transform="translate(375,362)"/>
<path d="M0 0 C0.99 0 1.98 0 3 0 C2.84660156 1.0828125 2.69320313 2.165625 2.53515625 3.28125 C1.86114072 8.67337423 1.65470297 14.07348656 1.4375 19.5 C1.39431641 20.51320313 1.35113281 21.52640625 1.30664062 22.5703125 C1.20150808 25.0467679 1.09936163 27.52330749 1 30 C0.67 30 0.34 30 0 30 C-0.06058594 28.81921875 -0.12117187 27.6384375 -0.18359375 26.421875 C-0.26802582 24.8645723 -0.35267249 23.30728121 -0.4375 21.75 C-0.47681641 20.97269531 -0.51613281 20.19539063 -0.55664062 19.39453125 C-0.59853516 18.64042969 -0.64042969 17.88632813 -0.68359375 17.109375 C-0.72025146 16.41811523 -0.75690918 15.72685547 -0.79467773 15.01464844 C-0.95179886 12.94979468 -0.95179886 12.94979468 -1.58227539 10.80566406 C-1.72012451 10.20979492 -1.85797363 9.61392578 -2 9 C-1.67 8.67 -1.34 8.34 -1 8 C-0.76924918 6.65252916 -0.58846937 5.29622435 -0.4375 3.9375 C-0.293125 2.638125 -0.14875 1.33875 0 0 Z " fill="#DEDEE1" transform="translate(4,73)"/>
<path d="M0 0 C1.70929688 0.00773437 1.70929688 0.00773437 3.453125 0.015625 C11.81514831 0.09507415 11.81514831 0.09507415 14.125 1.25 C13.795 1.91 13.465 2.57 13.125 3.25 C12.465 2.92 11.805 2.59 11.125 2.25 C7.54712994 2.00841663 3.96011637 2.06479815 0.375 2.0625 C-0.615 2.05025391 -1.605 2.03800781 -2.625 2.02539062 C-7.87176838 2.01486903 -11.903412 2.44284301 -16.875 4.25 C-19.03417969 3.80786133 -19.03417969 3.80786133 -20.875 3.25 C-13.837726 -0.01914929 -7.68619024 -0.14200813 0 0 Z " fill="#FF459F" transform="translate(202.875,69.75)"/>
<path d="M0 0 C1.9375 0.75 1.9375 0.75 4 2 C4.75 4.125 4.75 4.125 5 6 C5.66 6 6.32 6 7 6 C7.103125 6.639375 7.20625 7.27875 7.3125 7.9375 C7.539375 8.618125 7.76625 9.29875 8 10 C8.99 10.33 9.98 10.66 11 11 C12.1875 13.0625 12.1875 13.0625 13 15 C8.30325054 13.61811925 6.45742486 11.46448756 3.6875 7.5 C2.99011719 6.5203125 2.29273438 5.540625 1.57421875 4.53125 C0 2 0 2 0 0 Z " fill="#FF2B3E" transform="translate(171,170)"/>
<path d="M0 0 C2.10353495 -0.0810206 4.20795952 -0.13919907 6.3125 -0.1875 C7.48425781 -0.22230469 8.65601562 -0.25710938 9.86328125 -0.29296875 C13 0 13 0 14.91796875 1.51171875 C15.45357422 2.24841797 15.45357422 2.24841797 16 3 C10.22240116 3.12036664 4.72040011 2.8320582 -1 2 C-0.67 1.34 -0.34 0.68 0 0 Z " fill="#D2D2D6" transform="translate(69,392)"/>
<path d="M0 0 C0 0.66 0 1.32 0 2 C-6.00317109 6.72483403 -11.43030936 8.75581643 -19 9 C-15.76624482 6.84416321 -12.40510006 5.11056381 -8.9375 3.375 C-7.98133789 2.88773438 -7.98133789 2.88773438 -7.00585938 2.390625 C-2.23967634 0 -2.23967634 0 0 0 Z " fill="#FF120D" transform="translate(260,217)"/>
<path d="M0 0 C0.33 0 0.66 0 1 0 C1.53030068 2.43578787 2.04952312 4.87305975 2.5625 7.3125 C2.71396484 8.00279297 2.86542969 8.69308594 3.02148438 9.40429688 C3.71761569 12.75544066 4.10155309 14.69534072 3 18 C2.34 18.33 1.68 18.66 1 19 C-0.00926479 14.84373632 -0.10239579 10.95634906 -0.0625 6.6875 C-0.05347656 5.43324219 -0.04445313 4.17898438 -0.03515625 2.88671875 C-0.01775391 1.45779297 -0.01775391 1.45779297 0 0 Z " fill="#DBDBDE" transform="translate(5,317)"/>
<path d="M0 0 C2.31 0.33 4.62 0.66 7 1 C7 1.66 7 2.32 7 3 C7.9075 3.103125 8.815 3.20625 9.75 3.3125 C13.01961575 4.00414949 14.53717737 4.82134921 17 7 C15.3125 7.6875 15.3125 7.6875 13 8 C11.29883624 7.05988318 9.63495707 6.05104383 8 5 C6.01548229 4.28856912 4.01797888 3.61008664 2 3 C2 2.34 2 1.68 2 1 C1.34 0.67 0.68 0.34 0 0 Z " fill="#FF64AD" transform="translate(215,70)"/>
<path d="M0 0 C1.11346788 2.80033839 1.03510273 3.90143703 0.00390625 6.796875 C-0.47175781 7.77140625 -0.94742188 8.7459375 -1.4375 9.75 C-1.91058594 10.73484375 -2.38367188 11.7196875 -2.87109375 12.734375 C-3.24363281 13.48203125 -3.61617187 14.2296875 -4 15 C-5.14453125 13.32421875 -5.14453125 13.32421875 -6 11 C-5.13671875 8.45703125 -5.13671875 8.45703125 -3.6875 5.8125 C-3.21699219 4.93207031 -2.74648437 4.05164063 -2.26171875 3.14453125 C-1 1 -1 1 0 0 Z " fill="#FF589C" transform="translate(161,89)"/>
<path d="M0 0 C3.1875 0.875 3.1875 0.875 6 2 C6 2.66 6 3.32 6 4 C9.465 3.505 9.465 3.505 13 3 C12.67 3.66 12.34 4.32 12 5 C8.18015204 5.77811718 5.73159669 6.24386556 2 5 C2 4.34 2 3.68 2 3 C0.35 2.67 -1.3 2.34 -3 2 C-2.01 1.34 -1.02 0.68 0 0 Z " fill="#FF534E" transform="translate(235,222)"/>
<path d="M0 0 C0.33 0 0.66 0 1 0 C1.09688221 5.44693314 1.12862175 10.63904667 0 16 C-0.66 16 -1.32 16 -2 16 C-1.85975781 13.52039864 -1.7130815 11.04147598 -1.5625 8.5625 C-1.52318359 7.85544922 -1.48386719 7.14839844 -1.44335938 6.41992188 C-1.11328125 1.11328125 -1.11328125 1.11328125 0 0 Z " fill="#CECED4" transform="translate(394,312)"/>
<path d="M0 0 C0.66 0.33 1.32 0.66 2 1 C0.46739776 2.30240902 -1.07654827 3.59147512 -2.625 4.875 C-3.48351562 5.59429687 -4.34203125 6.31359375 -5.2265625 7.0546875 C-8.10094813 9.07080587 -10.63437541 10.06236265 -14 11 C-9.85989729 6.45924219 -5.17609824 3.28157862 0 0 Z " fill="#FF100F" transform="translate(276,205)"/>
<path d="M0 0 C0.33 0 0.66 0 1 0 C1.19392201 5.52677733 0.7479503 9.75614911 -1 15 C-1.66 15 -2.32 15 -3 15 C-2.67 11.37 -2.34 7.74 -2 4 C-1.34 4 -0.68 4 0 4 C0 2.68 0 1.36 0 0 Z " fill="#CECED3" transform="translate(8,58)"/>
<path d="M0 0 C0.99 0.495 0.99 0.495 2 1 C3.16948534 4.97625016 3.23321604 8.87984993 3 13 C2.34 13.66 1.68 14.32 1 15 C0.15318867 9.91913204 -0.09038099 5.15171623 0 0 Z " fill="#FF699C" transform="translate(330,103)"/>
<path d="M0 0 C0.66 0 1.32 0 2 0 C0.5666944 5.01656959 -1.90563952 7.01452882 -6 10 C-6.66 10 -7.32 10 -8 10 C-8 9.34 -8 8.68 -8 8 C-6.34211215 6.65576661 -4.67423683 5.32381517 -3 4 C-2.443125 3.2575 -1.88625 2.515 -1.3125 1.75 C-0.879375 1.1725 -0.44625 0.595 0 0 Z " fill="#C8C8CE" transform="translate(27,28)"/>
<path d="M0 0 C2.97246802 2.54782974 4.41535288 5.45340883 6 9 C6 9.66 6 10.32 6 11 C5.01 11 4.02 11 3 11 C2.525625 9.88625 2.05125 8.7725 1.5625 7.625 C0.74693537 5.73289006 -0.07856355 3.84287291 -1 2 C-0.67 1.34 -0.34 0.68 0 0 Z " fill="#FF589B" transform="translate(324,91)"/>
<path d="M0 0 C4.87362847 0.45336079 7.39042389 1.7089159 11 5 C7.35839192 6.21386936 6.66834531 5.6674695 3.3125 4.0625 C2.10013672 3.49208984 2.10013672 3.49208984 0.86328125 2.91015625 C0.24839844 2.60980469 -0.36648438 2.30945313 -1 2 C-0.67 1.34 -0.34 0.68 0 0 Z " fill="#FF5DA9" transform="translate(298,71)"/>
<path d="M0 0 C2.475 0.99 2.475 0.99 5 2 C5 2.66 5 3.32 5 4 C6.32 4.66 7.64 5.32 9 6 C9 6.99 9 7.98 9 9 C1.33257403 3.9977221 1.33257403 3.9977221 0 0 Z " fill="#FF2631" transform="translate(184,186)"/>
<path d="M0 0 C-0.33 0.66 -0.66 1.32 -1 2 C-7.04275534 3.36817102 -7.04275534 3.36817102 -10.4375 2.0625 C-10.953125 1.711875 -11.46875 1.36125 -12 1 C-3.96428571 -1.27678571 -3.96428571 -1.27678571 0 0 Z " fill="#FF68AF" transform="translate(272,71)"/>
<path d="M0 0 C4.99911924 0.47610659 7.97832683 2.03162219 12 5 C9 6 9 6 6 4.75 C3.52886039 3.30850189 1.83744929 2.14369083 0 0 Z " fill="#FF1511" transform="translate(223,217)"/>
<path d="M0 0 C0.33 0.66 0.66 1.32 1 2 C-0.98 4.97 -2.96 7.94 -5 11 C-5.66 10.34 -6.32 9.68 -7 9 C-6.34 8.01 -5.68 7.02 -5 6 C-4.34 6 -3.68 6 -3 6 C-2.814375 5.071875 -2.814375 5.071875 -2.625 4.125 C-2 2 -2 2 0 0 Z " fill="#FF2C44" transform="translate(316,165)"/>
<path d="M0 0 C1.2077558 3.62326739 0.54311128 4.64146369 -1 8 C-1.66 8 -2.32 8 -3 8 C-3.33 9.32 -3.66 10.64 -4 12 C-4.66 12 -5.32 12 -6 12 C-5.690625 11.236875 -5.38125 10.47375 -5.0625 9.6875 C-4.32106407 7.81210323 -3.63771783 5.91315348 -3 4 C-2.34 4 -1.68 4 -1 4 C-0.67 2.68 -0.34 1.36 0 0 Z " fill="#FF2B53" transform="translate(323,152)"/>
<path d="M0 0 C0.33 0.99 0.66 1.98 1 3 C1.66 3 2.32 3 3 3 C3 6.96 3 10.92 3 15 C2.67 15 2.34 15 2 15 C1.77213542 12.94921875 1.54427083 10.8984375 1.31640625 8.84765625 C1.18113386 6.98859771 1.18113386 6.98859771 0 6 C-0.04080783 4.00041636 -0.04254356 1.99954746 0 0 Z " fill="#C6C6CE" transform="translate(2,310)"/>
<path d="M0 0 C0.66 0 1.32 0 2 0 C3.00496852 3.01490557 3.10335303 5.04181692 3.0625 8.1875 C3.05347656 9.08855469 3.04445313 9.98960938 3.03515625 10.91796875 C3.02355469 11.60503906 3.01195312 12.29210937 3 13 C2.67 13 2.34 13 2 13 C1.855625 11.865625 1.71125 10.73125 1.5625 9.5625 C1.38828522 6.19222799 1.38828522 6.19222799 0 5 C-0.04063832 3.33382885 -0.042721 1.66611905 0 0 Z " fill="#D0D0D5" transform="translate(392,73)"/>
<path d="M0 0 C0.66 0.33 1.32 0.66 2 1 C0.8125 3.5 0.8125 3.5 -1 6 C-3.6875 6.3125 -3.6875 6.3125 -6 6 C-4 4 -2 2 0 0 Z " fill="#DDDDE1" transform="translate(362,373)"/>
<path d="M0 0 C3.37503669 1.1858237 5.64722731 2.27573689 8 5 C7.01 5.33 6.02 5.66 5 6 C4.34 5.67 3.68 5.34 3 5 C3 4.34 3 3.68 3 3 C1.68 2.34 0.36 1.68 -1 1 C-0.67 0.67 -0.34 0.34 0 0 Z " fill="#FF2D2C" transform="translate(207,205)"/>
<path d="M0 0 C0.66 0.33 1.32 0.66 2 1 C-0.52788007 3.79872437 -2.20411134 5.45773019 -6 6 C-3.375 1.125 -3.375 1.125 0 0 Z " fill="#C8C8CD" transform="translate(368,370)"/>
<path d="M0 0 C-2.55068845 2.35448165 -3.71017358 2.98327924 -7.25 3.1875 C-8.1575 3.125625 -9.065 3.06375 -10 3 C-10 2.34 -10 1.68 -10 1 C-6.52674819 -0.1577506 -3.63932552 -0.06866652 0 0 Z " fill="#C9C9CC" transform="translate(334,391)"/>
<path d="M0 0 C0.99 0.33 1.98 0.66 3 1 C3.33 3.31 3.66 5.62 4 8 C0 3.375 0 3.375 0 0 Z " fill="#C7C7CC" transform="translate(11,344)"/>
<path d="M0 0 C0.66 0.33 1.32 0.66 2 1 C2 1.66 2 2.32 2 3 C0.03852126 4.38938077 -1.96166576 5.7260411 -4 7 C-4 4 -4 4 -2 1.8125 C-1.34 1.214375 -0.68 0.61625 0 0 Z " fill="#FF2C37" transform="translate(297,187)"/>
<path d="" fill="#FFFFFF" transform="translate(0,0)"/>
<path d="" fill="#FFFFFF" transform="translate(0,0)"/>
<path d="" fill="#FFFFFF" transform="translate(0,0)"/>
<path d="" fill="#000000" transform="translate(0,0)"/>
<path d="" fill="#FFFFFF" transform="translate(0,0)"/>
<path d="" fill="#FFFFFF" transform="translate(0,0)"/>
<path d="" fill="#FFFFFF" transform="translate(0,0)"/>
<path d="" fill="#FFFFFF" transform="translate(0,0)"/>
<path d="" fill="#000000" transform="translate(0,0)"/>
<path d="" fill="#000000" transform="translate(0,0)"/>
<path d="" fill="#000000" transform="translate(0,0)"/>
<path d="" fill="#FFFFFF" transform="translate(0,0)"/>
<path d="" fill="#FFFFFF" transform="translate(0,0)"/>
<path d="" fill="#000000" transform="translate(0,0)"/>
<path d="" fill="#000000" transform="translate(0,0)"/>
<path d="" fill="#FFFFFF" transform="translate(0,0)"/>
<path d="" fill="#FFFFFF" transform="translate(0,0)"/>
<path d="" fill="#FFFFFF" transform="translate(0,0)"/>
<path d="" fill="#FFFFFF" transform="translate(0,0)"/>
<path d="" fill="#000000" transform="translate(0,0)"/>
<path d="" fill="#000000" transform="translate(0,0)"/>
</svg>
