<?xml version="1.0" encoding="UTF-8"?>
<svg version="1.1" xmlns="http://www.w3.org/2000/svg" width="400" height="400">
<path d="M0 0 C1.97875014 0.54318631 3.9579123 1.08487408 5.9375 1.625 C6.79214844 1.86476563 7.64679688 2.10453125 8.52734375 2.3515625 C11.0202827 3.04352453 11.0202827 3.04352453 13.69140625 3.4609375 C16.72471183 4.16922205 17.82744035 5.82744035 20 8 C21.56644748 8.88475275 23.153359 9.73347487 24.75 10.5625 C37.40606258 17.41030439 48.40062316 25.29064717 59 35 C59.845625 35.7734375 60.69125 36.546875 61.5625 37.34375 C84.81656827 59.62889876 101.84232264 94.67023185 103.16113281 126.94311523 C103.18094304 128.31486978 103.19470989 129.68672198 103.203125 131.05859375 C103.20882507 131.80601334 103.21452515 132.55343292 103.22039795 133.32350159 C103.2297838 134.89916601 103.23635616 136.4748495 103.24023438 138.05053711 C103.24984904 140.40060082 103.28089534 142.74975341 103.3125 145.09960938 C103.55205019 179.33888226 90.15384157 211.18810296 68 237 C67.19175781 237.95390625 66.38351562 238.9078125 65.55078125 239.890625 C37.96905061 271.66445071 -1.42321013 285.29878519 -42.29907227 288.49316406 C-59.26267974 289.68281606 -59.26267974 289.68281606 -66.625 288 C-67.46289062 287.814375 -68.30078125 287.62875 -69.1640625 287.4375 C-69.76992187 287.293125 -70.37578125 287.14875 -71 287 C-71 286.34 -71 285.68 -71 285 C-72.07636719 284.76925781 -73.15273437 284.53851563 -74.26171875 284.30078125 C-99.32531319 278.77404089 -120.48201763 267.62753307 -140 251 C-141.22009766 249.98292969 -141.22009766 249.98292969 -142.46484375 248.9453125 C-146.63052385 245.41656416 -146.63052385 245.41656416 -148 244 C-148 243.34 -148 242.68 -148 242 C-148.66 242 -149.32 242 -150 242 C-159.16406678 232.32242948 -167.21854699 220.58198371 -173.74609375 208.98828125 C-174.89338472 206.95866878 -174.89338472 206.95866878 -176.59765625 205.60546875 C-178.63202012 203.27643378 -178.53379616 201.04960407 -179 198 C-179.73186944 195.71863837 -180.55562312 193.47896972 -181.37475586 191.22753906 C-194.37706293 155.14199014 -193.33372849 116.19366318 -177.71582031 81.11572266 C-169.60031768 63.97804036 -159.3192394 49.43152871 -146 36 C-145.07703125 35.06414062 -144.1540625 34.12828125 -143.203125 33.1640625 C-105.31406253 -3.36434303 -49.94088055 -14.31097611 0 0 Z M-176 203 C-175 205 -175 205 -175 205 Z M-66 286 C-66 286.33 -66 286.66 -66 287 C-64.02 287 -62.04 287 -60 287 C-60 286.67 -60 286.34 -60 286 C-61.98 286 -63.96 286 -66 286 Z M-60 287 C-60 287.33 -60 287.66 -60 288 C-57.03 288 -54.06 288 -51 288 C-51 287.67 -51 287.34 -51 287 C-53.97 287 -56.94 287 -60 287 Z " fill="#FDFEFE" transform="translate(243,62)"/>
<path d="M0 0 C1.97875014 0.54318631 3.9579123 1.08487408 5.9375 1.625 C6.79214844 1.86476563 7.64679688 2.10453125 8.52734375 2.3515625 C11.0202827 3.04352453 11.0202827 3.04352453 13.69140625 3.4609375 C16.72471183 4.16922205 17.82744035 5.82744035 20 8 C21.56644748 8.88475275 23.153359 9.73347487 24.75 10.5625 C34.8093851 16.00532245 44.09578314 21.96517262 52.8125 29.375 C53.71995972 30.14287842 53.71995972 30.14287842 54.64575195 30.92626953 C57.28581737 33.23111888 58.87263054 34.61789162 60 38 C59.29037109 38.58394531 59.29037109 38.58394531 58.56640625 39.1796875 C53.65436865 43.33529046 49.40886319 47.82015905 45.1640625 52.6484375 C42.80909844 55.20744177 40.30707442 57.37438373 37.62109375 59.5703125 C35.29869138 61.61850351 33.38630328 63.94757259 31.41015625 66.32421875 C26.10151188 72.63282937 26.10151188 72.63282937 22 74 C22 74.66 22 75.32 22 76 C18.67879385 75.41644751 17.1649207 74.43727149 14.8125 72.0625 C-4.98747033 54.11645947 -28.73063589 50.82750363 -54.48828125 51.76171875 C-67.439979 52.6405325 -79.1001535 57.01179196 -90 64 C-90.9178125 64.58394531 -91.835625 65.16789062 -92.78125 65.76953125 C-112.5706991 79.2752616 -126.3548239 98.9808188 -131.375 122.5 C-134.72811301 147.73476803 -130.85667308 172.88196191 -116 194 C-101.5051535 212.54610396 -81.69917319 225.802752 -58.26953125 229.60546875 C-32.79379698 232.35935214 -9.55486728 228.21748443 11.27734375 212.64453125 C12.90974386 211.3285435 14.52016657 209.9839541 16.08984375 208.59375 C17.97641807 207.01967572 19.7649677 206.00001445 22 205 C22.66531738 205.66894287 23.33063477 206.33788574 24.01611328 207.02709961 C26.86223508 209.87353336 29.74243774 212.68426077 32.62350464 215.49525452 C35.60170342 218.40663955 38.56677655 221.33123989 41.53125 224.2565918 C43.10010992 225.80012117 44.67340009 227.33915985 46.25097656 228.8737793 C48.53062833 231.09305391 50.79398374 233.32785389 53.0546875 235.56640625 C53.76599823 236.25191055 54.47730896 236.93741486 55.21017456 237.64369202 C56.17710739 238.61005836 56.17710739 238.61005836 57.16357422 239.59594727 C57.73695526 240.15822525 58.3103363 240.72050323 58.90109253 241.29981995 C60 243 60 243 59.82815552 245.05992126 C58.49429364 248.18469313 55.94760181 250.02463433 53.375 252.125 C52.79596924 252.60364502 52.21693848 253.08229004 51.62036133 253.57543945 C40.34832997 262.72408214 28.23768033 270.06462702 15 276 C14.38640625 276.27827637 13.7728125 276.55655273 13.140625 276.84326172 C-9.15608224 286.71122216 -42.49361644 293.51574481 -66.625 288 C-67.46289062 287.814375 -68.30078125 287.62875 -69.1640625 287.4375 C-69.76992187 287.293125 -70.37578125 287.14875 -71 287 C-71 286.34 -71 285.68 -71 285 C-72.07636719 284.76925781 -73.15273437 284.53851563 -74.26171875 284.30078125 C-99.32531319 278.77404089 -120.48201763 267.62753307 -140 251 C-141.22009766 249.98292969 -141.22009766 249.98292969 -142.46484375 248.9453125 C-146.63052385 245.41656416 -146.63052385 245.41656416 -148 244 C-148 243.34 -148 242.68 -148 242 C-148.66 242 -149.32 242 -150 242 C-159.16406678 232.32242948 -167.21854699 220.58198371 -173.74609375 208.98828125 C-174.89338472 206.95866878 -174.89338472 206.95866878 -176.59765625 205.60546875 C-178.63202012 203.27643378 -178.53379616 201.04960407 -179 198 C-179.73186944 195.71863837 -180.55562312 193.47896972 -181.37475586 191.22753906 C-194.37706293 155.14199014 -193.33372849 116.19366318 -177.71582031 81.11572266 C-169.60031768 63.97804036 -159.3192394 49.43152871 -146 36 C-145.07703125 35.06414062 -144.1540625 34.12828125 -143.203125 33.1640625 C-105.31406253 -3.36434303 -49.94088055 -14.31097611 0 0 Z M-176 203 C-175 205 -175 205 -175 205 Z M-66 286 C-66 286.33 -66 286.66 -66 287 C-64.02 287 -62.04 287 -60 287 C-60 286.67 -60 286.34 -60 286 C-61.98 286 -63.96 286 -66 286 Z M-60 287 C-60 287.33 -60 287.66 -60 288 C-57.03 288 -54.06 288 -51 288 C-51 287.67 -51 287.34 -51 287 C-53.97 287 -56.94 287 -60 287 Z " fill="#1A63E4" transform="translate(243,62)"/>
<path d="M0 0 C24.08343171 19.0660501 39.19767926 53.96000069 42.79205322 83.85345459 C43.12127044 87.25182272 43.18220056 90.64738986 43.203125 94.05859375 C43.20882507 94.80601334 43.21452515 95.55343292 43.22039795 96.32350159 C43.2297838 97.89916601 43.23635616 99.4748495 43.24023438 101.05053711 C43.24984904 103.40060082 43.28089534 105.74975341 43.3125 108.09960938 C43.58416728 146.92942674 26.35874674 179.62990208 1 208 C-0.0058313 206.99199341 -0.0058313 206.99199341 -1.03198242 205.96362305 C-3.82716738 203.16831552 -6.63602155 200.38695439 -9.44538879 197.60591125 C-12.31687558 194.76114835 -15.18309957 191.9111078 -18.04907227 189.06079102 C-19.56521656 187.55478597 -21.08313886 186.05056892 -22.6027832 184.5480957 C-24.7984519 182.37655263 -26.98771538 180.19873134 -29.17578125 178.01953125 C-29.86005692 177.34557816 -30.54433258 176.67162506 -31.24934387 175.97724915 C-31.87386948 175.3528746 -32.49839508 174.72850006 -33.1418457 174.08520508 C-33.69524124 173.53625076 -34.24863678 172.98729645 -34.81880188 172.42170715 C-36 171 -36 171 -36 169 C-36.99 168.67 -37.98 168.34 -39 168 C-38.64808594 167.53851563 -38.29617188 167.07703125 -37.93359375 166.6015625 C-36.27545344 164.41091238 -34.63517542 162.20784699 -33 160 C-32.43539063 159.24074219 -31.87078125 158.48148438 -31.2890625 157.69921875 C-16.22979195 136.88199181 -10.90269954 113.99432407 -14.35009766 88.40087891 C-15.20679177 83.47314245 -16.48306449 78.76296534 -18 74 C-18.26554687 73.11054688 -18.53109375 72.22109375 -18.8046875 71.3046875 C-22.82562706 59.70140478 -30.66905325 47.92348551 -40 40 C-39.01 39.505 -39.01 39.505 -38 39 C-38 38.34 -38 37.68 -38 37 C-35.32591511 34.08281648 -32.47075767 31.53643098 -29.4375 29 C-26.55667164 26.58260925 -24.34035017 23.94710763 -22 21 C-21.34 21 -20.68 21 -20 21 C-19.67 20.01 -19.34 19.02 -19 18 C-17.37905104 16.28883665 -15.70277162 14.62976205 -14 13 C-12.98261704 11.97699248 -11.96838265 10.95084576 -10.95703125 9.921875 C-9.90887692 8.86456077 -8.86069962 7.80726933 -7.8125 6.75 C-7.01295898 5.93789062 -7.01295898 5.93789062 -6.19726562 5.109375 C-2.22573758 1.11286879 -2.22573758 1.11286879 0 0 Z " fill="#EB7728" transform="translate(303,99)"/>
<path d="M0 0 C0.33 0 0.66 0 1 0 C0.99777939 0.55488098 0.99555878 1.10976196 0.99327087 1.68145752 C0.97114814 7.45641435 0.95606415 13.23135914 0.94506836 19.00634766 C0.94003948 21.16162607 0.93321558 23.31690107 0.92456055 25.47216797 C0.91243179 28.56999554 0.90675722 31.66777801 0.90234375 34.765625 C0.89718246 35.72929993 0.89202118 36.69297485 0.88670349 37.68585205 C0.88662796 38.58648376 0.88655243 39.48711548 0.88647461 40.41503906 C0.884254 41.20557678 0.88203339 41.9961145 0.87974548 42.81060791 C1.00001905 45.00034683 1.43364834 46.88796187 2 49 C2.06548492 50.58211573 2.08578381 52.16670081 2.0625 53.75 C2.05347656 54.54921875 2.04445313 55.3484375 2.03515625 56.171875 C2.02355469 56.77515625 2.01195312 57.3784375 2 58 C1.67 58 1.34 58 1 58 C-2.56323366 39.01729685 -4.23739598 19.03044803 0 0 Z " fill="#9FB9E6" transform="translate(55,177)"/>
<path d="M0 0 C0.66 0 1.32 0 2 0 C1.98952637 0.78012451 1.97905273 1.56024902 1.96826172 2.36401367 C1.92614012 5.97180835 1.90049787 9.579551 1.875 13.1875 C1.85824219 14.41404297 1.84148437 15.64058594 1.82421875 16.90429688 C1.78515832 24.30624918 2.32414943 31.21386457 3.76220703 38.48168945 C3.84067871 39.31273193 3.91915039 40.14377441 4 41 C3.34 41.66 2.68 42.32 2 43 C1.67 41.68 1.34 40.36 1 39 C0.01 39 -0.98 39 -2 39 C-1.84152588 38.33846924 -1.68305176 37.67693848 -1.51977539 36.99536133 C-0.88781041 33.35347388 -0.76939115 29.75973293 -0.68359375 26.07421875 C-0.66281265 25.32662796 -0.64203156 24.57903717 -0.62062073 23.80879211 C-0.55555811 21.43511604 -0.4964429 19.06133513 -0.4375 16.6875 C-0.39427354 15.07225505 -0.35065796 13.45702047 -0.30664062 11.84179688 C-0.19992149 7.89463701 -0.09853381 3.94737233 0 0 Z " fill="#2D6DD7" transform="translate(109,187)"/>
<path d="M0 0 C1.0730756 3.2192268 0.79946725 3.90206442 0 7 C0.33 7.66 0.66 8.32 1 9 C0.01 10.485 0.01 10.485 -1 12 C-1.99 12 -2.98 12 -4 12 C-4.33 12.99 -4.66 13.98 -5 15 C-6.65 13.02 -8.3 11.04 -10 9 C-9.34 9 -8.68 9 -8 9 C-8 8.34 -8 7.68 -8 7 C-5.47107279 4.26602464 -3.10404867 2.06936578 0 0 Z " fill="#E07937" transform="translate(273,129)"/>
<path d="M0 0 C2.31 1.98 4.62 3.96 7 6 C6 10 6 10 3.9375 11.25 C3.298125 11.4975 2.65875 11.745 2 12 C1.67 11.01 1.34 10.02 1 9 C0.34 9 -0.32 9 -1 9 C-0.7215625 8.0409375 -0.7215625 8.0409375 -0.4375 7.0625 C-0.293125 6.381875 -0.14875 5.70125 0 5 C-0.33 4.67 -0.66 4.34 -1 4 C-0.67 2.68 -0.34 1.36 0 0 Z " fill="#366ED6" transform="translate(296,299)"/>
<path d="M0 0 C2.875 0.25 2.875 0.25 6 1 C7.1875 3 7.1875 3 8 5 C8.99 5.33 9.98 5.66 11 6 C11.33 6.66 11.66 7.32 12 8 C14.02463255 8.65213292 14.02463255 8.65213292 16 9 C14.25 12.875 14.25 12.875 12 14 C7.93521893 9.38465781 3.91391705 4.74414188 0 0 Z " fill="#D07849" transform="translate(291,293)"/>
<path d="M0 0 C1.14726562 -0.01224609 2.29453125 -0.02449219 3.4765625 -0.03710938 C11.44955477 -0.05057727 19.03453689 0.75346711 26.875 2.1875 C26.875 2.5175 26.875 2.8475 26.875 3.1875 C25.98868896 3.1160376 25.10237793 3.0445752 24.18920898 2.97094727 C14.42050068 2.2438348 4.72987787 2.0656251 -5.0625 2.125 C-6.53580574 2.130035 -8.00911318 2.1345943 -9.48242188 2.13867188 C-13.0299844 2.14949623 -16.57748052 2.16664545 -20.125 2.1875 C-20.125 1.8575 -20.125 1.5275 -20.125 1.1875 C-13.43054255 -0.03233554 -6.78989496 0.00373893 0 0 Z " fill="#7CA0DF" transform="translate(199.125,53.8125)"/>
<path d="M0 0 C0.61875 0.33 1.2375 0.66 1.875 1 C6.26211512 2.40387684 10.43151427 2.15967523 15 2 C12.18808439 4.81191561 8.83480922 5.53516103 5.125 6.6875 C4.40441406 6.92533203 3.68382812 7.16316406 2.94140625 7.40820312 C-1.01662654 8.65101084 -2.87836127 9.03040968 -7 8 C-4.03 7.01 -1.06 6.02 2 5 C1.01 3.68 0.02 2.36 -1 1 C-0.67 0.67 -0.34 0.34 0 0 Z " fill="#578ADE" transform="translate(241,336)"/>
<path d="M0 0 C2.55493055 2.54572359 5.096945 5.09955338 7.61328125 7.68359375 C12.76186223 12.93648751 17.892702 17.85263717 24 22 C23.01 22.33 22.02 22.66 21 23 C18.8125 21.6875 18.8125 21.6875 17 20 C17 19.34 17 18.68 17 18 C16.45601562 17.77957031 15.91203125 17.55914062 15.3515625 17.33203125 C12.23686597 15.5677264 9.8769877 13.20621222 7.375 10.6875 C6.88515625 10.21376953 6.3953125 9.74003906 5.890625 9.25195312 C3.01118457 6.37644636 1.20647807 3.89621448 0 0 Z " fill="#2162D1" transform="translate(126,256)"/>
<path d="M0 0 C0.66 0.33 1.32 0.66 2 1 C-1.17796503 3.90339819 -4.36278964 6.79895798 -7.5546875 9.68701172 C-8.84464902 10.85887203 -10.12605294 12.04013656 -11.40625 13.22265625 C-12.44265625 14.16431641 -12.44265625 14.16431641 -13.5 15.125 C-14.41265625 15.96417969 -14.41265625 15.96417969 -15.34375 16.8203125 C-17 18 -17 18 -20 18 C-17.80019826 15.74152484 -15.58868431 13.49486296 -13.375 11.25 C-12.75753906 10.61578125 -12.14007813 9.9815625 -11.50390625 9.328125 C-7.89432268 5.68054581 -4.38528867 2.67165279 0 0 Z " fill="#E1F2FD" transform="translate(150,127)"/>
<path d="M0 0 C2 1 2 1 2.875 3.3125 C3 6 3 6 1.0625 8.3125 C0.381875 8.869375 -0.29875 9.42625 -1 10 C-1.66 9.67 -2.32 9.34 -3 9 C-2.67 7.68 -2.34 6.36 -2 5 C-3.98 6.32 -5.96 7.64 -8 9 C-8.66 8.67 -9.32 8.34 -10 8 C-6.7 5.36 -3.4 2.72 0 0 Z " fill="#417EDF" transform="translate(116,82)"/>
<path d="M0 0 C1.0448029 3.13440869 1.15317663 4.02096037 0 7 C-0.99 7.66 -1.98 8.32 -3 9 C-3.73606499 12.56769552 -3.73606499 12.56769552 -4 16 C-4.66 15.67 -5.32 15.34 -6 15 C-6 14.34 -6 13.68 -6 13 C-6.99 12.67 -7.98 12.34 -9 12 C-6 8 -3 4 0 0 Z " fill="#D97A3C" transform="translate(273,255)"/>
<path d="M0 0 C2.99358859 2.58005983 4.45566888 5.54324813 6.1875 9.0625 C6.71730469 10.12597656 7.24710937 11.18945312 7.79296875 12.28515625 C9 15 9 15 9 17 C8.34 17 7.68 17 7 17 C7 16.34 7 15.68 7 15 C6.01 15 5.02 15 4 15 C3.814375 13.576875 3.814375 13.576875 3.625 12.125 C3.28312823 8.91332809 3.28312823 8.91332809 1 7 C0.59952556 4.67724823 0.2602896 2.34260643 0 0 Z " fill="#E79860" transform="translate(326,129)"/>
<path d="M0 0 C0.66 0 1.32 0 2 0 C2.66 0.99 3.32 1.98 4 3 C4.66 3 5.32 3 6 3 C6.33 2.34 6.66 1.68 7 1 C7.99 2.32 8.98 3.64 10 5 C4.555 6.485 4.555 6.485 -1 8 C-0.67 5.36 -0.34 2.72 0 0 Z " fill="#2161D7" transform="translate(286,294)"/>
<path d="M0 0 C1.32 0 2.64 0 4 0 C2.40956621 5.08938811 -0.7446951 8.87456643 -4 13 C-4.33 12.01 -4.66 11.02 -5 10 C-4.34 9.34 -3.68 8.68 -3 8 C-2.60235737 6.01178687 -2.26224651 4.01055661 -2 2 C-1.34 2 -0.68 2 0 2 C0 1.34 0 0.68 0 0 Z " fill="#E69053" transform="translate(320,280)"/>
<path d="M0 0 C2.86697492 1.28519565 4.97607712 2.57129254 7 5 C7 5.66 7 6.32 7 7 C5.03852126 8.38938077 3.03833424 9.7260411 1 11 C0.375 9.125 0.375 9.125 0 7 C0.66 6.34 1.32 5.68 2 5 C2.66 5.33 3.32 5.66 4 6 C3.67 5.34 3.34 4.68 3 4 C2.01 4 1.02 4 0 4 C0 2.68 0 1.36 0 0 Z " fill="#4276D5" transform="translate(296,93)"/>
<path d="M0 0 C0.66 0.99 1.32 1.98 2 3 C2.99 3.66 3.98 4.32 5 5 C3.56988027 5.86646667 2.13059381 6.71781829 0.6875 7.5625 C-0.51326172 8.27599609 -0.51326172 8.27599609 -1.73828125 9.00390625 C-4 10 -4 10 -7 9 C-6.360625 8.773125 -5.72125 8.54625 -5.0625 8.3125 C-2.73647686 7.16470196 -2.73647686 7.16470196 -2.375 4.5 C-2.189375 3.2625 -2.189375 3.2625 -2 2 C-1.34 1.34 -0.68 0.68 0 0 Z " fill="#437CE0" transform="translate(269,325)"/>
<path d="M0 0 C2.31 1.98 4.62 3.96 7 6 C6.01 6.33 5.02 6.66 4 7 C4.66 8.32 5.32 9.64 6 11 C5.01 11 4.02 11 3 11 C1.64560332 8.29120665 1.93498549 5.99066732 2 3 C1.01 2.67 0.02 2.34 -1 2 C-0.67 1.34 -0.34 0.68 0 0 Z " fill="#2560CD" transform="translate(271,274)"/>
<path d="M0 0 C0.33 0 0.66 0 1 0 C1 9.9 1 19.8 1 30 C0.67 30 0.34 30 0 30 C0 20.1 0 10.2 0 0 Z " fill="#F99B6E" transform="translate(347,188)"/>
<path d="M0 0 C1.09651823 3.41139003 0.94215473 6.20655581 0.5625 9.75 C0.40974609 11.22726563 0.40974609 11.22726563 0.25390625 12.734375 C0.12822266 13.85585937 0.12822266 13.85585937 0 15 C-0.99 15 -1.98 15 -3 15 C-2.44854729 9.76119922 -1.57077907 5.02649303 0 0 Z " fill="#86AEEA" transform="translate(59,160)"/>
<path d="M0 0 C-1.11878383 1.17262904 -2.24523051 2.33795138 -3.375 3.5 C-4.00148437 4.1496875 -4.62796875 4.799375 -5.2734375 5.46875 C-7 7 -7 7 -9 7 C-9 5.68 -9 4.36 -9 3 C-8.34 3 -7.68 3 -7 3 C-6.67 2.01 -6.34 1.02 -6 0 C-3.42525708 -0.99667468 -2.51072708 -1.25536354 0 0 Z " fill="#2063D6" transform="translate(145,131)"/>
<path d="M0 0 C0 4.82034999 -1.33364049 7.28604338 -4.625 10.8125 C-5.40875 11.534375 -6.1925 12.25625 -7 13 C-7 9.16235973 -5.73464665 7.88513915 -3.5 4.8125 C-2.8503125 3.91144531 -2.200625 3.01039062 -1.53125 2.08203125 C-1.0259375 1.39496094 -0.520625 0.70789063 0 0 Z " fill="#5F90DB" transform="translate(83,114)"/>
<path d="M0 0 C3.625 0.375 3.625 0.375 7 1 C2.25 4.875 2.25 4.875 0 6 C0 5.01 0 4.02 0 3 C-0.66 2.67 -1.32 2.34 -2 2 C-1.34 1.34 -0.68 0.68 0 0 Z " fill="#3979E0" transform="translate(275,323)"/>
<path d="M0 0 C1.98 0 3.96 0 6 0 C5.67 1.32 5.34 2.64 5 4 C6.32 4 7.64 4 9 4 C8.34 5.32 7.68 6.64 7 8 C5.83035398 6.8572081 4.66435444 5.71068285 3.5 4.5625 C2.8503125 3.92441406 2.200625 3.28632813 1.53125 2.62890625 C0 1 0 1 0 0 Z " fill="#D37846" transform="translate(278,280)"/>
<path d="M0 0 C0 4.50998424 -2.12028768 7.01365589 -5.0625 10.3125 C-7 12 -7 12 -9 12 C-7.55575365 8.76138697 -5.74227753 6.38030837 -3.375 3.75 C-2.74335937 3.04359375 -2.11171875 2.3371875 -1.4609375 1.609375 C-0.97882813 1.07828125 -0.49671875 0.5471875 0 0 Z " fill="#699BE0" transform="translate(93,102)"/>
<path d="M0 0 C0.99 0 1.98 0 3 0 C2.65120368 3.25543229 1.97866739 4.01873107 -0.5625 6.25 C-1.366875 6.8275 -2.17125 7.405 -3 8 C-3 6.35 -3 4.7 -3 3 C-2.01 3 -1.02 3 0 3 C0 2.01 0 1.02 0 0 Z " fill="#2961C3" transform="translate(275,122)"/>
<path d="M0 0 C0.33 0 0.66 0 1 0 C1 7.59 1 15.18 1 23 C0.67 23 0.34 23 0 23 C0 15.41 0 7.82 0 0 Z " fill="#FFFFFF" transform="translate(51,191)"/>
<path d="M0 0 C0.99 0.33 1.98 0.66 3 1 C1.35 3.64 -0.3 6.28 -2 9 C-2.66 8.67 -3.32 8.34 -4 8 C-2.87548273 5.0280615 -1.77706209 2.66559313 0 0 Z " fill="#2163DB" transform="translate(128,143)"/>
<path d="M0 0 C0.66 0.33 1.32 0.66 2 1 C1.67 2.32 1.34 3.64 1 5 C0.34 5 -0.32 5 -1 5 C-0.67 3.35 -0.34 1.7 0 0 Z M2 1 C2.66 1 3.32 1 4 1 C3.25 6.75 3.25 6.75 1 9 C1.33 6.36 1.66 3.72 2 1 Z " fill="#E78845" transform="translate(324,270)"/>
<path d="M0 0 C0.33 0.99 0.66 1.98 1 3 C-0.32 4.32 -1.64 5.64 -3 7 C-3.99 6.67 -4.98 6.34 -6 6 C-2.25 1.125 -2.25 1.125 0 0 Z " fill="#BF7459" transform="translate(273,129)"/>
<path d="M0 0 C0.66 0.33 1.32 0.66 2 1 C1.67 1.99 1.34 2.98 1 4 C1.33 4.99 1.66 5.98 2 7 C-0.97 6.505 -0.97 6.505 -4 6 C-1.125 1.125 -1.125 1.125 0 0 Z " fill="#C27553" transform="translate(281,120)"/>
<path d="M0 0 C0.33 0 0.66 0 1 0 C1.33 2.97 1.66 5.94 2 9 C-2 7 -2 7 -4 4 C-3.01 3.67 -2.02 3.34 -1 3 C-0.67 2.01 -0.34 1.02 0 0 Z " fill="#3472D8" transform="translate(106,307)"/>
<path d="M0 0 C2.9719385 1.12451727 5.33440687 2.22293791 8 4 C7.67 5.32 7.34 6.64 7 8 C5.83035398 6.8572081 4.66435444 5.71068285 3.5 4.5625 C2.8503125 3.92441406 2.200625 3.28632813 1.53125 2.62890625 C0 1 0 1 0 0 Z " fill="#DFF2FB" transform="translate(131,261)"/>
<path d="M0 0 C0.66 0 1.32 0 2 0 C2.33 1.32 2.66 2.64 3 4 C0.525 5.485 0.525 5.485 -2 7 C-2.125 4.625 -2.125 4.625 -2 2 C-1.34 1.34 -0.68 0.68 0 0 Z " fill="#E47631" transform="translate(276,126)"/>
<path d="M0 0 C2 2 2 2 2.125 5.125 C2.08375 6.07375 2.0425 7.0225 2 8 C2.66 8.33 3.32 8.66 4 9 C3.01 9 2.02 9 1 9 C-0.6875 6.5 -0.6875 6.5 -2 4 C-1.34 4 -0.68 4 0 4 C0 2.68 0 1.36 0 0 Z " fill="#427DDE" transform="translate(82,283)"/>
<path d="M0 0 C2.0625 0.4375 2.0625 0.4375 4 1 C2.25 4.875 2.25 4.875 0 6 C-0.38218767 4.34385343 -0.71395102 2.67542976 -1 1 C-0.67 0.67 -0.34 0.34 0 0 Z " fill="#E29D6E" transform="translate(303,301)"/>
<path d="M0 0 C4.455 2.97 4.455 2.97 9 6 C8.01 6.495 8.01 6.495 7 7 C3.9375 5.8125 3.9375 5.8125 1 4 C0.67 2.68 0.34 1.36 0 0 Z " fill="#679ADF" transform="translate(283,82)"/>
<path d="M0 0 C1.32 0.33 2.64 0.66 4 1 C3.67 1.66 3.34 2.32 3 3 C2.01 2.67 1.02 2.34 0 2 C0.33 3.32 0.66 4.64 1 6 C-0.32 5.34 -1.64 4.68 -3 4 C-2.01 2.68 -1.02 1.36 0 0 Z " fill="#3367C7" transform="translate(263,267)"/>
<path d="M0 0 C1.04449911 3.13349732 0.93423645 3.98968256 0 7 C-1.32 7.33 -2.64 7.66 -4 8 C-2.87548273 5.0280615 -1.77706209 2.66559313 0 0 Z " fill="#E78040" transform="translate(273,255)"/>
<path d="M0 0 C0.598125 0.20625 1.19625 0.4125 1.8125 0.625 C0.18910195 2.33384005 -1.48069053 3.99946717 -3.1875 5.625 C-3.8475 5.625 -4.5075 5.625 -5.1875 5.625 C-5.1875 4.305 -5.1875 2.985 -5.1875 1.625 C-2.1875 -0.375 -2.1875 -0.375 0 0 Z " fill="#3160C3" transform="translate(286.1875,114.375)"/>
<path d="M0 0 C2.97 0.495 2.97 0.495 6 1 C6 2.65 6 4.3 6 6 C4 4.625 4 4.625 2 3 C2 2.34 2 1.68 2 1 C1.34 0.67 0.68 0.34 0 0 Z " fill="#7699E2" transform="translate(93,303)"/>
<path d="M0 0 C2.4375 0.6875 2.4375 0.6875 5 2 C5.8125 4.625 5.8125 4.625 6 7 C1.125 3.375 1.125 3.375 0 0 Z " fill="#427AD2" transform="translate(85,293)"/>
<path d="M0 0 C-2.35968744 2.09749995 -3.54616994 2.96905704 -6.75 3.1875 C-7.86375 3.0946875 -7.86375 3.0946875 -9 3 C-9.33 2.34 -9.66 1.68 -10 1 C-6.59437148 0.22157062 -3.49234244 -0.09978121 0 0 Z " fill="#1058D7" transform="translate(219,292)"/>
<path d="M0 0 C5.28 0 10.56 0 16 0 C16 0.33 16 0.66 16 1 C10.72 1 5.44 1 0 1 C0 0.67 0 0.34 0 0 Z " fill="#008FEF" transform="translate(192,351)"/>
<path d="M0 0 C0 0.33 0 0.66 0 1 C-5.05002222 2.03590199 -9.87416389 2.10251672 -15 2 C-15 1.67 -15 1.34 -15 1 C-9.92928099 0.28832014 -5.11791642 -0.10662326 0 0 Z " fill="#4B5EB3" transform="translate(224,349)"/>
<path d="M0 0 C0.33 0 0.66 0 1 0 C0.67 2.97 0.34 5.94 0 9 C-0.95904856 5.16380575 -0.91892116 3.67568464 0 0 Z " fill="#BD7761" transform="translate(345,229)"/>
<path d="M0 0 C2.29013653 3.4352048 2.17842973 4.985331 2 9 C1.67 9 1.34 9 1 9 C0.67 6.03 0.34 3.06 0 0 Z " fill="#D26646" transform="translate(344,168)"/>
<path d="M0 0 C1.42944945 2.35438733 2.08661261 3.48032433 1.625 6.25 C1.41875 6.8275 1.2125 7.405 1 8 C0.67 5.36 0.34 2.72 0 0 Z " fill="#84AEC6" transform="translate(54,231)"/>
<path d="M0 0 C0.33 0.66 0.66 1.32 1 2 C0.01 3.32 -0.98 4.64 -2 6 C-1.125 1.125 -1.125 1.125 0 0 Z " fill="#2F7FA4" transform="translate(66,138)"/>
<path d="M0 0 C0.33 0.66 0.66 1.32 1 2 C0.01 2.99 -0.98 3.98 -2 5 C-1.34 3.35 -0.68 1.7 0 0 Z " fill="#B06158" transform="translate(335,262)"/>
<path d="M0 0 C0.33 0.99 0.66 1.98 1 3 C0.34 3.66 -0.32 4.32 -1 5 C-0.67 3.35 -0.34 1.7 0 0 Z " fill="#B17F31" transform="translate(340,249)"/>
<path d="M0 0 C0.33 0 0.66 0 1 0 C1 1.98 1 3.96 1 6 C0.67 6 0.34 6 0 6 C0 4.02 0 2.04 0 0 Z " fill="#AAD4D4" transform="translate(52,216)"/>
<path d="M0 0 C0.33 0 0.66 0 1 0 C1 1.98 1 3.96 1 6 C0.67 6 0.34 6 0 6 C0 4.02 0 2.04 0 0 Z " fill="#AAAAFF" transform="translate(52,184)"/>
<path d="M0 0 C0.33 0.99 0.66 1.98 1 3 C0.34 3.66 -0.32 4.32 -1 5 C-0.67 3.35 -0.34 1.7 0 0 Z " fill="#7483A5" transform="translate(61,149)"/>
<path d="M0 0 C1.65 0 3.3 0 5 0 C5 0.33 5 0.66 5 1 C3.35 1 1.7 1 0 1 C0 0.67 0 0.34 0 0 Z " fill="#6EA1E5" transform="translate(224,348)"/>
<path d="M0 0 C0.33 0 0.66 0 1 0 C1 1.65 1 3.3 1 5 C0.67 5 0.34 5 0 5 C0 3.35 0 1.7 0 0 Z " fill="#CC3300" transform="translate(346,224)"/>
<path d="M0 0 C0.33 0 0.66 0 1 0 C1 1.65 1 3.3 1 5 C0.67 5 0.34 5 0 5 C0 3.35 0 1.7 0 0 Z " fill="#000033" transform="translate(53,224)"/>
<path d="M0 0 C0.33 0 0.66 0 1 0 C1 1.65 1 3.3 1 5 C0.67 5 0.34 5 0 5 C0 3.35 0 1.7 0 0 Z " fill="#FF6600" transform="translate(346,177)"/>
<path d="M0 0 C1.65 0 3.3 0 5 0 C5 0.33 5 0.66 5 1 C3.35 1 1.7 1 0 1 C0 0.67 0 0.34 0 0 Z " fill="#77AEF2" transform="translate(174,56)"/>
<path d="M0 0 C4 1 4 1 4 1 Z " fill="#5F75E9" transform="translate(229,347)"/>
<path d="M0 0 C4 1 4 1 4 1 Z " fill="#6F7FCF" transform="translate(168,347)"/>
<path d="M0 0 C4 1 4 1 4 1 Z " fill="#5F5FAA" transform="translate(158,345)"/>
<path d="M0 0 C0.66 0.33 1.32 0.66 2 1 C1.01 1 0.02 1 -1 1 C-0.67 0.67 -0.34 0.34 0 0 Z " fill="#6183B2" transform="translate(268,333)"/>
<path d="M0 0 C0.66 0.33 1.32 0.66 2 1 C1.01 1 0.02 1 -1 1 C-0.67 0.67 -0.34 0.34 0 0 Z " fill="#156A7F" transform="translate(283,324)"/>
<path d="M0 0 C0.66 0.33 1.32 0.66 2 1 C1.01 1 0.02 1 -1 1 C-0.67 0.67 -0.34 0.34 0 0 Z " fill="#3F8FC4" transform="translate(291,318)"/>
<path d="M0 0 C0 3 0 3 0 3 Z " fill="#C47F3F" transform="translate(310,300)"/>
<path d="M0 0 C0.99 0.495 0.99 0.495 2 1 C1.67 1.66 1.34 2.32 1 3 C0.67 2.01 0.34 1.02 0 0 Z " fill="#7F7F9F" transform="translate(89,300)"/>
<path d="M0 0 C0 3 0 3 0 3 Z " fill="#AF7F5F" transform="translate(319,289)"/>
<path d="M0 0 C0.99 0.495 0.99 0.495 2 1 C1.67 1.66 1.34 2.32 1 3 C0.67 2.01 0.34 1.02 0 0 Z " fill="#5F5F9F" transform="translate(80,289)"/>
<path d="M0 0 C1 4 1 4 1 4 Z " fill="#9F9FFF" transform="translate(54,170)"/>
<path d="M0 0 C1 4 1 4 1 4 Z " fill="#D97F7F" transform="translate(343,164)"/>
<path d="M0 0 C1 4 1 4 1 4 Z " fill="#8AAAFF" transform="translate(56,163)"/>
<path d="M0 0 C1.485 0.99 1.485 0.99 3 2 C2.01 2 1.02 2 0 2 C0 1.34 0 0.68 0 0 Z " fill="#FFBFBF" transform="translate(341,157)"/>
<path d="M0 0 C0 3 0 3 0 3 Z " fill="#6A6AAA" transform="translate(75,122)"/>
<path d="M0 0 C0 3 0 3 0 3 Z " fill="#4C99C5" transform="translate(86,107)"/>
<path d="M0 0 C0.99 0.33 1.98 0.66 3 1 C2.01 1 1.02 1 0 1 C0 0.67 0 0.34 0 0 Z " fill="#5F5FBF" transform="translate(294,89)"/>
<path d="M0 0 C0.66 0.33 1.32 0.66 2 1 C1.01 1 0.02 1 -1 1 C-0.67 0.67 -0.34 0.34 0 0 Z " fill="#6A6A7F" transform="translate(110,84)"/>
<path d="M0 0 C0.99 0.33 1.98 0.66 3 1 C2.01 1 1.02 1 0 1 C0 0.67 0 0.34 0 0 Z " fill="#6A6A7F" transform="translate(288,84)"/>
<path d="M0 0 C0.66 0.33 1.32 0.66 2 1 C1.01 1 0.02 1 -1 1 C-0.67 0.67 -0.34 0.34 0 0 Z " fill="#7995B2" transform="translate(132,70)"/>
<path d="M0 0 C4 1 4 1 4 1 Z " fill="#007F7F" transform="translate(233,58)"/>
<path d="M0 0 C4 1 4 1 4 1 Z " fill="#007F7F" transform="translate(163,58)"/>
<path d="M0 0 C4 1 4 1 4 1 Z " fill="#7F7FDF" transform="translate(226,57)"/>
<path d="M0 0 C4 1 4 1 4 1 Z " fill="#7F7FFF" transform="translate(170,57)"/>
<path d="M0 0 C3 1 3 1 3 1 Z " fill="#0055AA" transform="translate(235,346)"/>
<path d="M0 0 C3 1 3 1 3 1 Z " fill="#0055AA" transform="translate(162,346)"/>
<path d="M0 0 C3 1 3 1 3 1 Z " fill="#7F7FFF" transform="translate(239,345)"/>
<path d="M0 0 C3 1 3 1 3 1 Z " fill="#6363E2" transform="translate(242,344)"/>
<path d="M0 0 C3 1 3 1 3 1 Z " fill="#8D8DE9" transform="translate(155,344)"/>
<path d="M0 0 C3 1 3 1 3 1 Z " fill="#8DA3E9" transform="translate(245,343)"/>
<path d="M0 0 C3 1 3 1 3 1 Z " fill="#2D5AD1" transform="translate(152,343)"/>
<path d="" fill="#718DAA" transform="translate(0,0)"/>
<path d="" fill="#AA5555" transform="translate(0,0)"/>
<path d="" fill="#2A7FD4" transform="translate(0,0)"/>
<path d="" fill="#FF7F7F" transform="translate(0,0)"/>
<path d="" fill="#AAC6FF" transform="translate(0,0)"/>
<path d="" fill="#FF7F63" transform="translate(0,0)"/>
<path d="" fill="#7F9CE2" transform="translate(0,0)"/>
<path d="" fill="#FF8D71" transform="translate(0,0)"/>
<path d="M0 0 C0.99 0.495 0.99 0.495 2 1 C1.01 1.495 1.01 1.495 0 2 C0 1.34 0 0.68 0 0 Z " fill="#0000B8" transform="translate(94,98)"/>
<path d="M0 0 C3 1 3 1 3 1 Z " fill="#7F7FBF" transform="translate(143,65)"/>
<path d="M0 0 C3 1 3 1 3 1 Z " fill="#1C71B8" transform="translate(245,62)"/>
<path d="M0 0 C3 1 3 1 3 1 Z " fill="#718D8D" transform="translate(152,62)"/>
<path d="M0 0 C3 1 3 1 3 1 Z " fill="#77A4D1" transform="translate(240,60)"/>
<path d="M0 0 C3 1 3 1 3 1 Z " fill="#7788C3" transform="translate(157,60)"/>
<path d="M0 0 C3 1 3 1 3 1 Z " fill="#718DD4" transform="translate(237,59)"/>
<path d="M0 0 C3 1 3 1 3 1 Z " fill="#718DD4" transform="translate(160,59)"/>
<path d="" fill="#FFFFFF" transform="translate(0,0)"/>
<path d="" fill="#FFFFFF" transform="translate(0,0)"/>
<path d="M0 0 C2 1 2 1 2 1 Z " fill="#AAD4D4" transform="translate(248,342)"/>
<path d="M0 0 C2 1 2 1 2 1 Z " fill="#40BFFF" transform="translate(150,342)"/>
<path d="M0 0 C2 1 2 1 2 1 Z " fill="#007FFF" transform="translate(252,341)"/>
<path d="M0 0 C2 1 2 1 2 1 Z " fill="#007FFF" transform="translate(146,341)"/>
<path d="M0 0 C2 1 2 1 2 1 Z " fill="#4060BF" transform="translate(254,340)"/>
<path d="M0 0 C2 1 2 1 2 1 Z " fill="#4060DF" transform="translate(144,340)"/>
<path d="M0 0 C2 1 2 1 2 1 Z " fill="#4040B4" transform="translate(256,339)"/>
<path d="M0 0 C2 1 2 1 2 1 Z " fill="#2A79DA" transform="translate(142,339)"/>
<path d="M0 0 C2 1 2 1 2 1 Z " fill="#5555BF" transform="translate(258,338)"/>
<path d="M0 0 C2 1 2 1 2 1 Z " fill="#2A55DA" transform="translate(140,338)"/>
<path d="M0 0 C2 1 2 1 2 1 Z " fill="#99B2CC" transform="translate(260,337)"/>
<path d="M0 0 C2 1 2 1 2 1 Z " fill="#20BFDF" transform="translate(138,337)"/>
<path d="M0 0 C2 1 2 1 2 1 Z " fill="#007F7F" transform="translate(263,336)"/>
<path d="M0 0 C2 1 2 1 2 1 Z " fill="#0000FF" transform="translate(135,336)"/>
<path d="M0 0 C2 1 2 1 2 1 Z " fill="#7F9FDF" transform="translate(265,335)"/>
<path d="M0 0 C2 1 2 1 2 1 Z " fill="#9FBFDF" transform="translate(133,335)"/>
<path d="M0 0 C2 1 2 1 2 1 Z " fill="#407FCC" transform="translate(130,333)"/>
<path d="M0 0 C2 1 2 1 2 1 Z " fill="#00AAFF" transform="translate(270,332)"/>
<path d="M0 0 C2 1 2 1 2 1 Z " fill="#2040DF" transform="translate(128,332)"/>
<path d="M0 0 C2 1 2 1 2 1 Z " fill="#00007F" transform="translate(126,331)"/>
<path d="M0 0 C2 1 2 1 2 1 Z " fill="#404040" transform="translate(274,330)"/>
<path d="M0 0 C2 1 2 1 2 1 Z " fill="#404080" transform="translate(124,330)"/>
<path d="M0 0 C2 1 2 1 2 1 Z " fill="#FFFFFF" transform="translate(6,329)"/>
<path d="M0 0 C2 1 2 1 2 1 Z " fill="#7F7FDF" transform="translate(277,328)"/>
<path d="M0 0 C2 1 2 1 2 1 Z " fill="#7F9FDF" transform="translate(121,328)"/>
<path d="M0 0 C2 1 2 1 2 1 Z " fill="#00007F" transform="translate(280,326)"/>
<path d="M0 0 C2 1 2 1 2 1 Z " fill="#00FFFF" transform="translate(118,326)"/>
<path d="M0 0 C2 1 2 1 2 1 Z " fill="#2A5555" transform="translate(115,324)"/>
<path d="M0 0 C2 1 2 1 2 1 Z " fill="#00007F" transform="translate(287,321)"/>
<path d="M0 0 C2 1 2 1 2 1 Z " fill="#0000FF" transform="translate(111,321)"/>
<path d="" fill="#FFFFFF" transform="translate(0,0)"/>
<path d="M0 0 C2 1 2 1 2 1 Z " fill="#7F7FD4" transform="translate(107,318)"/>
<path d="M0 0 C2 1 2 1 2 1 Z " fill="#7F7F7F" transform="translate(298,312)"/>
<path d="M0 0 C2 1 2 1 2 1 Z " fill="#7F7F7F" transform="translate(100,312)"/>
<path d="" fill="#BF4040" transform="translate(0,0)"/>
<path d="" fill="#4040BF" transform="translate(0,0)"/>
<path d="" fill="#FF0000" transform="translate(0,0)"/>
<path d="" fill="#00007F" transform="translate(0,0)"/>
<path d="" fill="#E57F7F" transform="translate(0,0)"/>
<path d="" fill="#407F7F" transform="translate(0,0)"/>
<path d="" fill="#00007F" transform="translate(0,0)"/>
<path d="" fill="#BF4040" transform="translate(0,0)"/>
<path d="" fill="#407FBF" transform="translate(0,0)"/>
<path d="" fill="#BF7F7F" transform="translate(0,0)"/>
<path d="" fill="#7F7FFF" transform="translate(0,0)"/>
<path d="" fill="#7F7F00" transform="translate(0,0)"/>
<path d="" fill="#007F7F" transform="translate(0,0)"/>
<path d="" fill="#FF7F7F" transform="translate(0,0)"/>
<path d="M0 0 C2 1 2 1 2 1 Z " fill="#FFFFFF" transform="translate(342,263)"/>
<path d="" fill="#7F7FBF" transform="translate(0,0)"/>
<path d="" fill="#0000FF" transform="translate(0,0)"/>
<path d="" fill="#DF9F7F" transform="translate(0,0)"/>
<path d="" fill="#40407F" transform="translate(0,0)"/>
<path d="" fill="#EABF40" transform="translate(0,0)"/>
<path d="" fill="#5555CC" transform="translate(0,0)"/>
<path d="" fill="#5555CC" transform="translate(0,0)"/>
<path d="" fill="#7F7FFF" transform="translate(0,0)"/>
<path d="M0 0 C2 1 2 1 2 1 Z " fill="#FFFFFF" transform="translate(31,205)"/>
<path d="" fill="#FFFFFF" transform="translate(0,0)"/>
<path d="" fill="#000000" transform="translate(0,0)"/>
<path d="" fill="#0000FF" transform="translate(0,0)"/>
<path d="" fill="#FFBFBF" transform="translate(0,0)"/>
<path d="" fill="#BFFFFF" transform="translate(0,0)"/>
<path d="" fill="#007F7F" transform="translate(0,0)"/>
<path d="" fill="#406AFF" transform="translate(0,0)"/>
<path d="" fill="#DA8B4F" transform="translate(0,0)"/>
<path d="" fill="#CC5F40" transform="translate(0,0)"/>
<path d="" fill="#7F7F40" transform="translate(0,0)"/>
<path d="" fill="#7FAAD4" transform="translate(0,0)"/>
<path d="" fill="#FF0000" transform="translate(0,0)"/>
<path d="" fill="#00007F" transform="translate(0,0)"/>
<path d="" fill="#D4AA7F" transform="translate(0,0)"/>
<path d="" fill="#E57359" transform="translate(0,0)"/>
<path d="" fill="#E5CCB2" transform="translate(0,0)"/>
<path d="" fill="#7F7FFF" transform="translate(0,0)"/>
<path d="" fill="#7F4040" transform="translate(0,0)"/>
<path d="" fill="#DFBF9F" transform="translate(0,0)"/>
<path d="" fill="#407FDF" transform="translate(0,0)"/>
<path d="" fill="#7F7FBF" transform="translate(0,0)"/>
<path d="" fill="#FFFFFF" transform="translate(0,0)"/>
<path d="" fill="#007FFF" transform="translate(0,0)"/>
<path d="" fill="#BF7F7F" transform="translate(0,0)"/>
<path d="" fill="#7F7FD4" transform="translate(0,0)"/>
<path d="" fill="#FF7F7F" transform="translate(0,0)"/>
<path d="" fill="#7F7F7F" transform="translate(0,0)"/>
<path d="M0 0 C2 1 2 1 2 1 Z " fill="#FFFFFF" transform="translate(326,93)"/>
<path d="M0 0 C2 1 2 1 2 1 Z " fill="#7F7FBF" transform="translate(104,89)"/>
<path d="M0 0 C2 1 2 1 2 1 Z " fill="#007FBF" transform="translate(113,82)"/>
<path d="M0 0 C2 1 2 1 2 1 Z " fill="#7F7FBF" transform="translate(281,79)"/>
<path d="M0 0 C2 1 2 1 2 1 Z " fill="#7F7FBF" transform="translate(117,79)"/>
<path d="M0 0 C2 1 2 1 2 1 Z " fill="#00FFFF" transform="translate(279,78)"/>
<path d="M0 0 C2 1 2 1 2 1 Z " fill="#7F7FFF" transform="translate(119,78)"/>
<path d="M0 0 C2 1 2 1 2 1 Z " fill="#7F7FCC" transform="translate(276,76)"/>
<path d="M0 0 C2 1 2 1 2 1 Z " fill="#7F7FCC" transform="translate(122,76)"/>
<path d="M0 0 C2 1 2 1 2 1 Z " fill="#7F7FAA" transform="translate(273,74)"/>
<path d="M0 0 C2 1 2 1 2 1 Z " fill="#4040AA" transform="translate(125,74)"/>
<path d="M0 0 C2 1 2 1 2 1 Z " fill="#20BFDF" transform="translate(269,72)"/>
<path d="M0 0 C2 1 2 1 2 1 Z " fill="#9FBFDF" transform="translate(129,72)"/>
<path d="M0 0 C2 1 2 1 2 1 Z " fill="#5555BF" transform="translate(267,71)"/>
<path d="M0 0 C2 1 2 1 2 1 Z " fill="#7FBFFF" transform="translate(264,69)"/>
<path d="M0 0 C2 1 2 1 2 1 Z " fill="#7FAAD4" transform="translate(134,69)"/>
<path d="M0 0 C2 1 2 1 2 1 Z " fill="#007FFF" transform="translate(262,68)"/>
<path d="M0 0 C2 1 2 1 2 1 Z " fill="#007F7F" transform="translate(136,68)"/>
<path d="M0 0 C2 1 2 1 2 1 Z " fill="#BFBFFF" transform="translate(139,67)"/>
<path d="M0 0 C2 1 2 1 2 1 Z " fill="#9FBFFF" transform="translate(141,66)"/>
<path d="M0 0 C2 1 2 1 2 1 Z " fill="#2A55AA" transform="translate(252,64)"/>
<path d="M0 0 C2 1 2 1 2 1 Z " fill="#2A55BF" transform="translate(146,64)"/>
<path d="M0 0 C2 1 2 1 2 1 Z " fill="#00BFBF" transform="translate(250,63)"/>
<path d="M0 0 C2 1 2 1 2 1 Z " fill="#007FFF" transform="translate(148,63)"/>
<path d="M0 0 C2 1 2 1 2 1 Z " fill="#2A79DA" transform="translate(243,61)"/>
<path d="M0 0 C2 1 2 1 2 1 Z " fill="#4055B4" transform="translate(155,61)"/>
<path d="" fill="#FFFFFF" transform="translate(0,0)"/>
<path d="" fill="#FFFFFF" transform="translate(0,0)"/>
<path d="M0 0 C2 1 2 1 2 1 Z " fill="#FFFFFF" transform="translate(257,43)"/>
<path d="" fill="#FFFFFF" transform="translate(0,0)"/>
<path d="M0 0 C2 1 2 1 2 1 Z " fill="#FFFFFF" transform="translate(246,13)"/>
<path d="" fill="#FFFFFF" transform="translate(0,0)"/>
<path d="" fill="#FFFFFF" transform="translate(0,0)"/>
<path d="" fill="#FFFFFF" transform="translate(0,0)"/>
<path d="" fill="#FFFFFF" transform="translate(0,0)"/>
<path d="" fill="#FFFFFF" transform="translate(0,0)"/>
<path d="" fill="#FFFFFF" transform="translate(0,0)"/>
<path d="" fill="#FFFFFF" transform="translate(0,0)"/>
<path d="" fill="#FFFFFF" transform="translate(0,0)"/>
<path d="" fill="#FFFFFF" transform="translate(0,0)"/>
<path d="" fill="#6699CC" transform="translate(0,0)"/>
<path d="" fill="#0000FF" transform="translate(0,0)"/>
<path d="" fill="#8080FF" transform="translate(0,0)"/>
<path d="" fill="#8080FF" transform="translate(0,0)"/>
<path d="" fill="#55AAFF" transform="translate(0,0)"/>
<path d="" fill="#80FFFF" transform="translate(0,0)"/>
<path d="" fill="#0000AA" transform="translate(0,0)"/>
<path d="" fill="#4080BF" transform="translate(0,0)"/>
<path d="" fill="#8080BF" transform="translate(0,0)"/>
<path d="" fill="#5555AA" transform="translate(0,0)"/>
<path d="" fill="#5555AA" transform="translate(0,0)"/>
<path d="" fill="#0055AA" transform="translate(0,0)"/>
<path d="" fill="#0055AA" transform="translate(0,0)"/>
<path d="" fill="#3366CC" transform="translate(0,0)"/>
<path d="" fill="#FFFFFF" transform="translate(0,0)"/>
<path d="" fill="#FFFFFF" transform="translate(0,0)"/>
<path d="" fill="#55AAAA" transform="translate(0,0)"/>
<path d="" fill="#80FFFF" transform="translate(0,0)"/>
<path d="" fill="#000080" transform="translate(0,0)"/>
<path d="" fill="#0040BF" transform="translate(0,0)"/>
<path d="" fill="#FFFFFF" transform="translate(0,0)"/>
<path d="" fill="#000080" transform="translate(0,0)"/>
<path d="" fill="#000099" transform="translate(0,0)"/>
<path d="" fill="#000000" transform="translate(0,0)"/>
<path d="" fill="#000080" transform="translate(0,0)"/>
<path d="" fill="#8080FF" transform="translate(0,0)"/>
<path d="" fill="#808080" transform="translate(0,0)"/>
<path d="" fill="#80FFFF" transform="translate(0,0)"/>
<path d="" fill="#8080FF" transform="translate(0,0)"/>
<path d="" fill="#AAAAFF" transform="translate(0,0)"/>
<path d="" fill="#80FFFF" transform="translate(0,0)"/>
<path d="" fill="#AAAAFF" transform="translate(0,0)"/>
<path d="" fill="#AAAAFF" transform="translate(0,0)"/>
<path d="" fill="#AAAAFF" transform="translate(0,0)"/>
<path d="" fill="#80FFFF" transform="translate(0,0)"/>
<path d="" fill="#FF80FF" transform="translate(0,0)"/>
<path d="" fill="#8080FF" transform="translate(0,0)"/>
<path d="" fill="#FF8080" transform="translate(0,0)"/>
<path d="" fill="#8080FF" transform="translate(0,0)"/>
<path d="" fill="#FFFF80" transform="translate(0,0)"/>
<path d="" fill="#8080FF" transform="translate(0,0)"/>
<path d="" fill="#FFFF80" transform="translate(0,0)"/>
<path d="" fill="#80FFFF" transform="translate(0,0)"/>
<path d="" fill="#CC6633" transform="translate(0,0)"/>
<path d="" fill="#0066CC" transform="translate(0,0)"/>
<path d="" fill="#FF9966" transform="translate(0,0)"/>
<path d="" fill="#5580D5" transform="translate(0,0)"/>
<path d="" fill="#FFBF80" transform="translate(0,0)"/>
<path d="" fill="#6699CC" transform="translate(0,0)"/>
<path d="" fill="#FFAAAA" transform="translate(0,0)"/>
<path d="" fill="#4080BF" transform="translate(0,0)"/>
<path d="" fill="#FF8080" transform="translate(0,0)"/>
<path d="" fill="#8080FF" transform="translate(0,0)"/>
<path d="" fill="#FF8080" transform="translate(0,0)"/>
<path d="" fill="#8080FF" transform="translate(0,0)"/>
<path d="" fill="#AA5500" transform="translate(0,0)"/>
<path d="" fill="#0000AA" transform="translate(0,0)"/>
<path d="" fill="#FF8080" transform="translate(0,0)"/>
<path d="" fill="#55AAAA" transform="translate(0,0)"/>
<path d="" fill="#CC6633" transform="translate(0,0)"/>
<path d="" fill="#0033CC" transform="translate(0,0)"/>
<path d="" fill="#FF8080" transform="translate(0,0)"/>
<path d="" fill="#5555AA" transform="translate(0,0)"/>
<path d="" fill="#FF0000" transform="translate(0,0)"/>
<path d="" fill="#FFAAAA" transform="translate(0,0)"/>
<path d="" fill="#55AAFF" transform="translate(0,0)"/>
<path d="" fill="#BF8080" transform="translate(0,0)"/>
<path d="" fill="#4080BF" transform="translate(0,0)"/>
<path d="" fill="#FFFF00" transform="translate(0,0)"/>
<path d="" fill="#FFFFFF" transform="translate(0,0)"/>
<path d="" fill="#FFFFFF" transform="translate(0,0)"/>
<path d="" fill="#FFFFFF" transform="translate(0,0)"/>
<path d="" fill="#FFFFFF" transform="translate(0,0)"/>
<path d="" fill="#FFFF80" transform="translate(0,0)"/>
<path d="" fill="#FFFF00" transform="translate(0,0)"/>
<path d="" fill="#0000FF" transform="translate(0,0)"/>
<path d="" fill="#55AAFF" transform="translate(0,0)"/>
<path d="" fill="#BF8080" transform="translate(0,0)"/>
<path d="" fill="#6699CC" transform="translate(0,0)"/>
<path d="" fill="#BF8040" transform="translate(0,0)"/>
<path d="" fill="#FF0000" transform="translate(0,0)"/>
<path d="" fill="#BF4000" transform="translate(0,0)"/>
<path d="" fill="#FFBF80" transform="translate(0,0)"/>
<path d="" fill="#6699FF" transform="translate(0,0)"/>
<path d="" fill="#BF8040" transform="translate(0,0)"/>
<path d="" fill="#FFFF00" transform="translate(0,0)"/>
<path d="" fill="#0000FF" transform="translate(0,0)"/>
<path d="" fill="#8080FF" transform="translate(0,0)"/>
<path d="" fill="#FFAA55" transform="translate(0,0)"/>
<path d="" fill="#55AAFF" transform="translate(0,0)"/>
<path d="" fill="#FFAA55" transform="translate(0,0)"/>
<path d="" fill="#0055FF" transform="translate(0,0)"/>
<path d="" fill="#FFAA55" transform="translate(0,0)"/>
<path d="" fill="#55AAFF" transform="translate(0,0)"/>
<path d="" fill="#FFFF00" transform="translate(0,0)"/>
<path d="" fill="#00FFFF" transform="translate(0,0)"/>
<path d="" fill="#AA5555" transform="translate(0,0)"/>
<path d="" fill="#55AAFF" transform="translate(0,0)"/>
<path d="" fill="#CC6633" transform="translate(0,0)"/>
<path d="" fill="#FFFFFF" transform="translate(0,0)"/>
<path d="" fill="#BF8000" transform="translate(0,0)"/>
<path d="" fill="#FFFFFF" transform="translate(0,0)"/>
<path d="" fill="#FF8080" transform="translate(0,0)"/>
<path d="" fill="#80FFFF" transform="translate(0,0)"/>
<path d="" fill="#AAAA55" transform="translate(0,0)"/>
<path d="" fill="#55AAAA" transform="translate(0,0)"/>
<path d="" fill="#FFAAAA" transform="translate(0,0)"/>
<path d="" fill="#AAAAFF" transform="translate(0,0)"/>
<path d="" fill="#BFBF80" transform="translate(0,0)"/>
<path d="" fill="#80BFFF" transform="translate(0,0)"/>
<path d="" fill="#BF8080" transform="translate(0,0)"/>
<path d="" fill="#80BFFF" transform="translate(0,0)"/>
<path d="" fill="#FF5500" transform="translate(0,0)"/>
<path d="" fill="#0055AA" transform="translate(0,0)"/>
<path d="" fill="#AA0055" transform="translate(0,0)"/>
<path d="" fill="#000055" transform="translate(0,0)"/>
<path d="" fill="#666699" transform="translate(0,0)"/>
<path d="" fill="#0000AA" transform="translate(0,0)"/>
<path d="" fill="#5580D5" transform="translate(0,0)"/>
<path d="" fill="#0000AA" transform="translate(0,0)"/>
<path d="" fill="#8080FF" transform="translate(0,0)"/>
<path d="" fill="#0000FF" transform="translate(0,0)"/>
<path d="" fill="#FFFFFF" transform="translate(0,0)"/>
<path d="" fill="#55AAFF" transform="translate(0,0)"/>
<path d="" fill="#8080BF" transform="translate(0,0)"/>
<path d="" fill="#55AAFF" transform="translate(0,0)"/>
<path d="" fill="#AAAAFF" transform="translate(0,0)"/>
<path d="" fill="#80FFFF" transform="translate(0,0)"/>
<path d="" fill="#AAAAFF" transform="translate(0,0)"/>
<path d="" fill="#80FFFF" transform="translate(0,0)"/>
<path d="" fill="#FFFFFF" transform="translate(0,0)"/>
<path d="" fill="#80FFFF" transform="translate(0,0)"/>
<path d="" fill="#55AAFF" transform="translate(0,0)"/>
<path d="" fill="#55AAFF" transform="translate(0,0)"/>
<path d="" fill="#80FFFF" transform="translate(0,0)"/>
<path d="" fill="#AAAAFF" transform="translate(0,0)"/>
<path d="" fill="#55AAFF" transform="translate(0,0)"/>
<path d="" fill="#AAAAFF" transform="translate(0,0)"/>
<path d="" fill="#000000" transform="translate(0,0)"/>
<path d="" fill="#000000" transform="translate(0,0)"/>
<path d="" fill="#000080" transform="translate(0,0)"/>
<path d="" fill="#4080FF" transform="translate(0,0)"/>
<path d="" fill="#8080FF" transform="translate(0,0)"/>
<path d="" fill="#AAFFFF" transform="translate(0,0)"/>
<path d="" fill="#AAFFFF" transform="translate(0,0)"/>
<path d="" fill="#80FFFF" transform="translate(0,0)"/>
<path d="" fill="#FFFFFF" transform="translate(0,0)"/>
<path d="" fill="#6699CC" transform="translate(0,0)"/>
<path d="" fill="#6666CC" transform="translate(0,0)"/>
<path d="" fill="#FFFFFF" transform="translate(0,0)"/>
<path d="" fill="#0000FF" transform="translate(0,0)"/>
<path d="" fill="#80BFFF" transform="translate(0,0)"/>
<path d="" fill="#FFFFFF" transform="translate(0,0)"/>
<path d="" fill="#FFFFFF" transform="translate(0,0)"/>
<path d="" fill="#FFFFFF" transform="translate(0,0)"/>
</svg>
