<svg id="svg" version="1.1" xmlns="http://www.w3.org/2000/svg" xmlns:xlink="http://www.w3.org/1999/xlink" width="400" height="400" viewBox="0, 0, 400,400"><g id="svgg"><path id="path0" d="M174.000 12.000 C 174.000 12.516,174.203 12.799,174.500 12.700 C 174.775 12.608,175.000 12.293,175.000 12.000 C 175.000 11.707,174.775 11.392,174.500 11.300 C 174.203 11.201,174.000 11.484,174.000 12.000 M246.280 13.053 C 245.718 13.615,246.024 14.000,247.033 14.000 C 247.682 14.000,248.005 13.814,247.900 13.500 C 247.708 12.922,246.692 12.641,246.280 13.053 M159.000 37.600 C 158.708 38.072,159.087 38.800,159.624 38.800 C 159.831 38.800,160.000 38.440,160.000 38.000 C 160.000 37.156,159.418 36.924,159.000 37.600 M257.475 43.058 C 256.953 43.580,257.202 44.000,258.033 44.000 C 258.499 44.000,258.797 43.790,258.708 43.525 C 258.513 42.940,257.846 42.688,257.475 43.058 M166.000 48.000 C 166.000 48.516,166.203 48.799,166.500 48.700 C 166.775 48.608,167.000 48.293,167.000 48.000 C 167.000 47.707,166.775 47.392,166.500 47.300 C 166.203 47.201,166.000 47.484,166.000 48.000 M193.200 48.400 L 189.400 48.647 192.600 48.681 C 194.360 48.700,197.420 48.583,199.400 48.421 L 203.000 48.127 200.000 48.140 C 198.350 48.147,195.290 48.264,193.200 48.400 M204.700 48.693 C 205.635 48.777,207.165 48.777,208.100 48.693 C 209.035 48.609,208.270 48.540,206.400 48.540 C 204.530 48.540,203.765 48.609,204.700 48.693 M185.100 49.089 C 185.815 49.178,186.985 49.178,187.700 49.089 C 188.415 49.001,187.830 48.928,186.400 48.928 C 184.970 48.928,184.385 49.001,185.100 49.089 M212.307 49.090 C 213.026 49.179,214.106 49.177,214.707 49.086 C 215.308 48.995,214.720 48.922,213.400 48.924 C 212.080 48.926,211.588 49.001,212.307 49.090 M181.100 49.482 C 181.595 49.578,182.405 49.578,182.900 49.482 C 183.395 49.387,182.990 49.309,182.000 49.309 C 181.010 49.309,180.605 49.387,181.100 49.482 M217.100 49.482 C 217.595 49.578,218.405 49.578,218.900 49.482 C 219.395 49.387,218.990 49.309,218.000 49.309 C 217.010 49.309,216.605 49.387,217.100 49.482 M176.000 50.000 C 174.001 50.421,176.052 50.438,178.400 50.020 C 180.024 49.732,180.063 49.700,178.800 49.703 C 178.030 49.704,176.770 49.838,176.000 50.000 M220.500 49.876 C 220.885 49.976,221.515 49.976,221.900 49.876 C 222.285 49.775,221.970 49.693,221.200 49.693 C 220.430 49.693,220.115 49.775,220.500 49.876 M223.300 50.276 C 223.685 50.376,224.315 50.376,224.700 50.276 C 225.085 50.175,224.770 50.093,224.000 50.093 C 223.230 50.093,222.915 50.175,223.300 50.276 M231.000 51.600 C 232.692 52.031,234.144 52.031,232.800 51.600 C 232.250 51.424,231.350 51.283,230.800 51.287 C 229.902 51.294,229.922 51.326,231.000 51.600 M122.952 52.581 C 122.829 52.900,122.846 53.350,122.988 53.581 C 123.454 54.335,124.000 54.021,124.000 53.000 C 124.000 51.916,123.313 51.641,122.952 52.581 M138.800 60.600 C 138.250 60.914,137.980 61.172,138.200 61.172 C 138.420 61.172,139.050 60.914,139.600 60.600 C 140.150 60.286,140.420 60.028,140.200 60.028 C 139.980 60.028,139.350 60.286,138.800 60.600 M135.600 62.000 C 134.830 62.422,134.380 62.766,134.600 62.766 C 134.820 62.766,135.630 62.422,136.400 62.000 C 137.170 61.578,137.620 61.234,137.400 61.234 C 137.180 61.234,136.370 61.578,135.600 62.000 M264.000 62.200 C 264.550 62.514,265.180 62.772,265.400 62.772 C 265.620 62.772,265.350 62.514,264.800 62.200 C 264.250 61.886,263.620 61.628,263.400 61.628 C 263.180 61.628,263.450 61.886,264.000 62.200 M129.900 64.625 C 127.975 65.606,126.400 66.498,126.400 66.608 C 126.400 66.787,133.560 63.329,133.967 62.954 C 134.550 62.415,132.921 63.085,129.900 64.625 M266.033 62.954 C 266.440 63.328,272.800 66.388,272.800 66.209 C 272.800 65.986,266.577 62.800,266.142 62.800 C 265.991 62.800,265.942 62.869,266.033 62.954 M111.982 75.374 C 109.242 77.230,106.370 79.314,105.600 80.005 C 104.767 80.753,105.171 80.547,106.600 79.497 C 107.920 78.526,110.710 76.598,112.800 75.213 C 116.582 72.705,117.539 72.000,117.162 72.000 C 117.053 72.000,114.722 73.518,111.982 75.374 M283.000 72.288 C 283.220 72.511,285.110 73.827,287.200 75.213 C 289.290 76.598,292.080 78.526,293.400 79.497 C 294.809 80.532,295.222 80.743,294.400 80.007 C 292.498 78.303,281.763 71.035,283.000 72.288 M100.200 84.267 C 95.960 87.857,85.118 98.686,82.046 102.400 C 80.230 104.596,80.352 104.503,82.834 101.800 C 88.448 95.685,93.823 90.312,97.773 86.866 C 103.651 81.739,104.219 81.224,104.000 81.221 C 103.890 81.220,102.180 82.590,100.200 84.267 M302.383 86.900 C 303.364 87.945,304.219 88.800,304.283 88.800 C 304.584 88.800,304.266 88.441,302.500 86.783 L 300.600 85.000 302.383 86.900 M304.800 88.876 C 304.800 88.955,306.176 90.366,307.858 92.010 C 309.539 93.655,310.643 94.589,310.310 94.086 C 309.747 93.235,304.800 88.558,304.800 88.876 M326.280 93.053 C 325.718 93.615,326.024 94.000,327.033 94.000 C 327.682 94.000,328.005 93.814,327.900 93.500 C 327.708 92.922,326.692 92.641,326.280 93.053 M77.814 107.500 C 76.833 108.765,75.113 111.150,73.993 112.800 C 71.582 116.352,72.391 115.382,76.748 109.500 C 80.117 104.951,80.830 103.614,77.814 107.500 M192.000 113.047 C 120.494 121.399,85.728 199.868,128.131 257.200 C 158.276 297.959,215.956 304.812,257.200 272.535 C 259.730 270.555,262.753 268.252,263.917 267.417 C 265.193 266.503,266.365 265.244,266.866 264.250 C 267.324 263.342,268.627 261.430,269.762 260.000 C 296.535 226.266,297.000 181.750,270.937 147.313 C 268.903 144.625,266.830 141.715,266.330 140.846 C 265.830 139.977,264.917 138.969,264.302 138.606 C 263.688 138.243,261.163 136.324,258.692 134.341 C 244.247 122.751,230.073 116.291,213.600 113.788 C 209.243 113.126,195.390 112.651,192.000 113.047 M64.800 127.200 C 64.351 128.080,64.074 128.800,64.184 128.800 C 64.294 128.800,64.751 128.080,65.200 127.200 C 65.649 126.320,65.926 125.600,65.816 125.600 C 65.706 125.600,65.249 126.320,64.800 127.200 M42.952 126.581 C 42.829 126.900,42.846 127.350,42.988 127.581 C 43.454 128.335,44.000 128.021,44.000 127.000 C 44.000 125.916,43.313 125.641,42.952 126.581 M61.179 134.042 C 60.063 136.265,59.214 138.148,59.292 138.226 C 59.370 138.303,60.370 136.485,61.515 134.184 C 62.659 131.883,63.508 130.000,63.401 130.000 C 63.295 130.000,62.295 131.819,61.179 134.042 M58.465 139.817 C 57.795 141.288,57.923 141.602,58.647 140.265 C 58.986 139.640,59.188 139.054,59.096 138.963 C 59.005 138.871,58.721 139.256,58.465 139.817 M57.265 142.617 C 56.595 144.088,56.723 144.402,57.447 143.065 C 57.786 142.440,57.988 141.854,57.896 141.763 C 57.805 141.671,57.521 142.056,57.265 142.617 M52.041 156.988 C 49.718 164.554,46.750 178.301,46.830 181.127 C 46.847 181.717,47.293 179.710,47.821 176.666 C 48.992 169.924,50.448 163.693,52.265 157.650 C 53.017 155.147,53.565 153.031,53.481 152.947 C 53.397 152.864,52.749 154.682,52.041 156.988 M46.189 185.789 C 46.032 187.685,45.989 189.323,46.095 189.429 C 46.201 189.535,46.414 188.068,46.568 186.168 C 46.723 184.269,46.765 182.632,46.663 182.529 C 46.560 182.427,46.347 183.894,46.189 185.789 M45.744 193.600 C 45.744 195.690,45.812 196.545,45.894 195.500 C 45.976 194.455,45.976 192.745,45.894 191.700 C 45.812 190.655,45.744 191.510,45.744 193.600 M20.000 203.000 C 20.000 203.676,20.183 204.006,20.500 203.900 C 20.775 203.808,21.000 203.403,21.000 203.000 C 21.000 202.597,20.775 202.192,20.500 202.100 C 20.183 201.994,20.000 202.324,20.000 203.000 M31.475 205.058 C 30.953 205.580,31.202 206.000,32.033 206.000 C 32.499 206.000,32.797 205.790,32.708 205.525 C 32.513 204.940,31.846 204.688,31.475 205.058 M45.744 211.600 C 45.744 213.690,45.812 214.545,45.894 213.500 C 45.976 212.455,45.976 210.745,45.894 209.700 C 45.812 208.655,45.744 209.510,45.744 211.600 M46.035 217.633 C 46.054 218.605,46.220 220.300,46.404 221.400 C 46.649 222.873,46.680 222.452,46.520 219.800 C 46.293 216.024,45.975 214.604,46.035 217.633 M46.830 224.462 C 46.750 227.275,50.479 244.467,52.153 249.000 C 53.105 251.579,52.888 250.322,51.618 245.908 C 50.131 240.739,49.005 235.690,47.803 228.800 C 47.285 225.830,46.847 223.878,46.830 224.462 M58.028 264.600 C 58.028 264.820,58.286 265.450,58.600 266.000 C 58.914 266.550,59.172 266.820,59.172 266.600 C 59.172 266.380,58.914 265.750,58.600 265.200 C 58.286 264.650,58.028 264.380,58.028 264.600 M88.400 310.110 C 88.400 310.171,89.795 311.566,91.500 313.210 L 94.600 316.200 91.610 313.100 C 88.833 310.221,88.400 309.817,88.400 310.110 M307.392 314.100 L 303.800 317.800 307.500 314.208 C 310.936 310.872,311.382 310.400,311.092 310.400 C 311.032 310.400,309.367 312.065,307.392 314.100 M371.000 317.600 C 370.708 318.072,371.087 318.800,371.624 318.800 C 371.831 318.800,372.000 318.440,372.000 318.000 C 372.000 317.156,371.418 316.924,371.000 317.600 M6.280 329.053 C 5.718 329.615,6.024 330.000,7.033 330.000 C 7.682 330.000,8.005 329.814,7.900 329.500 C 7.708 328.922,6.692 328.641,6.280 329.053 M280.296 334.950 C 278.375 336.131,277.838 336.689,279.400 335.881 C 280.654 335.233,282.345 334.026,282.000 334.025 C 281.890 334.025,281.123 334.441,280.296 334.950 M276.300 337.227 C 275.475 337.663,274.800 338.108,274.800 338.218 C 274.800 338.327,275.520 338.049,276.400 337.600 C 277.280 337.151,278.000 336.697,278.000 336.592 C 278.000 336.330,277.997 336.331,276.300 337.227 M123.600 337.384 C 123.600 337.494,124.320 337.951,125.200 338.400 C 126.080 338.849,126.800 339.126,126.800 339.016 C 126.800 338.906,126.080 338.449,125.200 338.000 C 124.320 337.551,123.600 337.274,123.600 337.384 M270.800 340.200 C 269.810 340.730,269.142 341.172,269.316 341.182 C 269.741 341.206,272.800 339.634,272.800 339.392 C 272.800 339.127,272.817 339.120,270.800 340.200 M343.000 347.600 C 342.708 348.072,343.087 348.800,343.624 348.800 C 343.831 348.800,344.000 348.440,344.000 348.000 C 344.000 347.156,343.418 346.924,343.000 347.600 M146.400 347.933 C 146.730 348.136,147.450 348.424,148.000 348.571 C 148.695 348.757,148.817 348.725,148.400 348.467 C 148.070 348.264,147.350 347.976,146.800 347.829 C 146.105 347.643,145.983 347.675,146.400 347.933 M250.000 349.000 C 248.570 349.516,247.590 349.952,247.822 349.969 C 248.358 350.008,253.200 348.383,253.200 348.163 C 253.200 347.894,252.720 348.019,250.000 349.000 M244.200 350.800 C 243.696 351.017,243.622 351.144,244.000 351.144 C 244.330 351.144,244.960 350.989,245.400 350.800 C 245.904 350.583,245.978 350.456,245.600 350.456 C 245.270 350.456,244.640 350.611,244.200 350.800 M308.000 352.000 C 308.000 352.516,308.203 352.799,308.500 352.700 C 308.775 352.608,309.000 352.293,309.000 352.000 C 309.000 351.707,308.775 351.392,308.500 351.300 C 308.203 351.201,308.000 351.484,308.000 352.000 M189.900 357.082 C 190.395 357.178,191.205 357.178,191.700 357.082 C 192.195 356.987,191.790 356.909,190.800 356.909 C 189.810 356.909,189.405 356.987,189.900 357.082 M208.700 357.082 C 209.195 357.178,210.005 357.178,210.500 357.082 C 210.995 356.987,210.590 356.909,209.600 356.909 C 208.610 356.909,208.205 356.987,208.700 357.082 M197.318 357.498 C 199.033 357.573,201.733 357.572,203.318 357.497 C 204.903 357.421,203.500 357.359,200.200 357.360 C 196.900 357.361,195.603 357.422,197.318 357.498 " stroke="none" fill="#fafbfb" fill-rule="evenodd"></path><path id="path1" d="M198.900 47.887 C 199.505 47.978,200.495 47.978,201.100 47.887 C 201.705 47.795,201.210 47.720,200.000 47.720 C 198.790 47.720,198.295 47.795,198.900 47.887 M92.581 90.100 L 91.000 91.800 92.700 90.219 C 93.635 89.349,94.400 88.584,94.400 88.519 C 94.400 88.216,94.052 88.519,92.581 90.100 M307.441 90.400 C 310.474 93.739,311.299 95.347,308.775 93.000 C 307.592 91.900,306.924 91.363,307.291 91.807 C 307.657 92.251,307.899 92.971,307.830 93.407 C 307.760 93.843,307.905 94.460,308.151 94.777 C 308.486 95.207,308.483 95.283,308.137 95.076 C 307.534 94.715,304.557 97.496,292.237 109.931 C 270.142 132.232,267.601 134.922,266.506 137.158 L 265.449 139.316 266.344 140.871 C 266.836 141.727,268.903 144.625,270.937 147.313 C 297.088 181.867,296.569 225.953,269.607 260.204 C 266.123 264.631,265.687 265.889,266.812 268.273 C 267.643 270.032,302.100 305.200,302.993 305.200 C 303.144 305.200,304.339 306.325,305.649 307.700 C 306.958 309.075,308.233 310.145,308.482 310.077 C 308.802 309.991,308.813 310.108,308.519 310.477 C 308.290 310.765,308.159 311.354,308.229 311.786 C 308.298 312.219,308.149 312.849,307.897 313.186 C 307.646 313.524,308.315 312.990,309.384 312.000 C 312.258 309.339,310.448 311.978,306.640 316.000 L 303.801 319.000 307.341 315.600 C 370.257 255.179,370.902 150.947,308.729 91.400 C 307.121 89.860,306.541 89.410,307.441 90.400 M87.375 95.300 L 86.200 96.600 87.500 95.425 C 88.712 94.330,88.984 94.000,88.675 94.000 C 88.606 94.000,88.021 94.585,87.375 95.300 M81.600 304.125 C 81.600 304.194,82.185 304.779,82.900 305.425 L 84.200 306.600 83.025 305.300 C 81.930 304.088,81.600 303.816,81.600 304.125 M91.600 314.600 C 93.460 316.470,95.072 318.000,95.182 318.000 C 95.292 318.000,93.860 316.470,92.000 314.600 C 90.140 312.730,88.528 311.200,88.418 311.200 C 88.308 311.200,89.740 312.730,91.600 314.600 M186.500 357.476 C 186.885 357.576,187.515 357.576,187.900 357.476 C 188.285 357.375,187.970 357.293,187.200 357.293 C 186.430 357.293,186.115 357.375,186.500 357.476 M193.700 357.876 C 194.085 357.976,194.715 357.976,195.100 357.876 C 195.485 357.775,195.170 357.693,194.400 357.693 C 193.630 357.693,193.315 357.775,193.700 357.876 M205.300 357.876 C 205.685 357.976,206.315 357.976,206.700 357.876 C 207.085 357.775,206.770 357.693,206.000 357.693 C 205.230 357.693,204.915 357.775,205.300 357.876 " stroke="none" fill="#eb7527" fill-rule="evenodd"></path><path id="path2" d="M193.600 48.451 C 195.516 48.611,194.432 48.666,190.600 48.603 C 187.300 48.550,185.590 48.623,186.800 48.766 L 189.000 49.027 186.661 49.213 C 185.375 49.316,184.239 49.265,184.138 49.100 C 184.036 48.935,183.198 48.826,182.276 48.857 L 180.600 48.914 182.200 49.172 L 183.800 49.430 182.200 49.653 C 181.320 49.775,180.540 49.723,180.467 49.538 C 180.393 49.352,179.673 49.224,178.867 49.253 L 177.400 49.305 178.800 49.600 C 179.609 49.770,179.862 49.927,179.400 49.971 C 178.960 50.013,177.745 50.188,176.700 50.360 C 175.655 50.532,174.800 50.522,174.800 50.337 C 174.800 50.151,175.385 49.986,176.100 49.968 C 176.815 49.951,177.163 49.842,176.873 49.726 C 176.162 49.442,169.864 50.570,162.814 52.245 C 112.739 64.141,72.849 99.611,54.406 148.639 C 52.641 153.330,49.829 162.762,50.111 163.044 C 50.217 163.150,50.424 162.734,50.571 162.119 C 51.193 159.510,53.343 152.810,53.505 152.972 C 53.603 153.069,53.326 154.285,52.890 155.674 C 50.969 161.799,49.624 167.508,48.126 175.892 C 47.290 180.573,46.939 181.873,46.749 180.988 L 46.495 179.800 46.447 181.067 C 46.421 181.763,46.558 182.393,46.752 182.467 C 46.951 182.542,46.959 183.638,46.769 185.000 C 46.585 186.320,46.292 189.650,46.117 192.400 L 45.800 197.400 45.573 194.200 C 45.449 192.440,45.347 196.310,45.348 202.800 C 45.349 209.352,45.461 213.088,45.600 211.200 L 45.851 207.800 45.931 210.800 C 45.975 212.450,46.127 214.233,46.268 214.763 C 46.449 215.437,46.388 215.640,46.063 215.439 C 45.732 215.234,45.617 215.758,45.660 217.276 L 45.720 219.400 45.970 217.600 C 46.204 215.914,46.247 216.029,46.643 219.400 C 46.876 221.380,46.917 223.060,46.733 223.133 C 46.550 223.207,46.421 223.837,46.447 224.533 L 46.495 225.800 46.766 224.600 L 47.038 223.400 47.288 224.600 C 47.426 225.260,47.372 225.971,47.169 226.180 C 46.966 226.389,46.821 227.019,46.847 227.580 C 46.892 228.536,46.912 228.525,47.173 227.400 C 47.411 226.372,47.524 226.630,47.963 229.200 C 48.782 233.999,50.874 243.115,52.645 249.600 C 52.795 250.150,52.808 250.501,52.673 250.380 C 52.538 250.259,51.803 248.009,51.040 245.380 C 50.277 242.751,49.641 240.838,49.627 241.130 C 49.543 242.792,53.363 254.738,56.149 261.527 C 87.648 338.287,172.507 376.120,252.353 349.004 C 272.962 342.005,302.346 323.378,309.641 312.688 C 310.125 311.980,309.020 312.840,307.185 314.600 C 304.111 317.549,304.028 317.603,306.120 315.283 C 307.734 313.493,308.348 312.510,308.245 311.883 C 308.166 311.397,308.288 310.765,308.518 310.477 C 308.813 310.108,308.803 309.991,308.482 310.077 C 308.233 310.145,306.958 309.075,305.649 307.700 C 304.339 306.325,303.144 305.200,302.993 305.200 C 301.997 305.200,267.618 270.018,266.763 268.125 L 265.827 266.049 263.814 267.492 C 262.706 268.286,259.730 270.555,257.200 272.535 C 197.538 319.225,111.997 280.263,110.111 205.538 C 108.144 127.596,197.089 84.455,258.000 133.808 C 261.683 136.792,264.954 139.200,265.325 139.200 C 265.425 139.200,265.969 138.255,266.534 137.100 C 267.595 134.933,270.312 132.061,292.237 109.931 C 304.557 97.496,307.534 94.715,308.137 95.076 C 308.483 95.283,308.486 95.207,308.151 94.777 C 307.905 94.460,307.760 93.840,307.831 93.401 C 307.908 92.919,307.299 91.808,306.298 90.601 L 304.637 88.600 306.701 90.500 C 309.438 93.019,309.890 92.932,307.385 90.368 C 291.299 73.903,264.317 59.039,238.800 52.586 C 231.446 50.726,220.556 48.922,219.677 49.419 C 219.305 49.629,218.370 49.723,217.600 49.627 L 216.200 49.453 217.800 49.164 C 218.807 48.982,217.919 48.916,215.400 48.988 C 212.405 49.073,211.903 49.024,213.400 48.794 C 214.694 48.596,213.283 48.524,209.400 48.591 C 205.881 48.652,204.558 48.592,206.200 48.447 C 207.752 48.310,204.899 48.200,199.800 48.200 C 194.399 48.200,191.839 48.303,193.600 48.451 M221.900 49.876 C 221.515 49.976,220.885 49.976,220.500 49.876 C 220.115 49.775,220.430 49.693,221.200 49.693 C 221.970 49.693,222.285 49.775,221.900 49.876 M224.700 50.276 C 224.315 50.376,223.685 50.376,223.300 50.276 C 222.915 50.175,223.230 50.093,224.000 50.093 C 224.770 50.093,225.085 50.175,224.700 50.276 M232.800 51.600 C 234.144 52.031,232.692 52.031,231.000 51.600 C 229.922 51.326,229.902 51.294,230.800 51.287 C 231.350 51.283,232.250 51.424,232.800 51.600 M139.600 60.600 C 139.050 60.914,138.420 61.172,138.200 61.172 C 137.980 61.172,138.250 60.914,138.800 60.600 C 139.350 60.286,139.980 60.028,140.200 60.028 C 140.420 60.028,140.150 60.286,139.600 60.600 M136.400 62.000 C 135.630 62.422,134.820 62.766,134.600 62.766 C 134.380 62.766,134.830 62.422,135.600 62.000 C 136.370 61.578,137.180 61.234,137.400 61.234 C 137.620 61.234,137.170 61.578,136.400 62.000 M264.800 62.200 C 265.350 62.514,265.620 62.772,265.400 62.772 C 265.180 62.772,264.550 62.514,264.000 62.200 C 263.450 61.886,263.180 61.628,263.400 61.628 C 263.620 61.628,264.250 61.886,264.800 62.200 M133.967 62.954 C 133.560 63.329,126.400 66.787,126.400 66.608 C 126.400 66.368,133.243 62.849,133.767 62.820 C 133.968 62.809,134.058 62.869,133.967 62.954 M269.609 64.404 C 271.364 65.287,272.800 66.099,272.800 66.209 C 272.800 66.388,266.440 63.328,266.033 62.954 C 265.505 62.466,266.800 62.992,269.609 64.404 M116.980 72.347 C 116.771 72.537,114.890 73.827,112.800 75.213 C 110.710 76.598,107.920 78.526,106.600 79.497 C 105.171 80.547,104.767 80.753,105.600 80.005 C 106.370 79.314,109.242 77.230,111.982 75.374 C 116.494 72.318,118.034 71.385,116.980 72.347 M288.400 75.644 C 290.930 77.354,293.630 79.317,294.400 80.007 C 295.222 80.743,294.809 80.532,293.400 79.497 C 292.080 78.526,289.290 76.598,287.200 75.213 C 285.110 73.827,283.220 72.511,283.000 72.288 C 282.326 71.605,283.530 72.353,288.400 75.644 M102.973 82.312 C 102.298 82.910,99.958 84.960,97.773 86.866 C 93.823 90.312,88.448 95.685,82.834 101.800 C 80.352 104.503,80.230 104.596,82.046 102.400 C 86.458 97.066,102.895 81.209,104.000 81.221 C 104.110 81.222,103.648 81.713,102.973 82.312 M304.400 88.683 C 304.400 88.984,304.041 88.666,302.383 86.900 L 300.600 85.000 302.500 86.783 C 303.545 87.764,304.400 88.619,304.400 88.683 M76.748 109.500 C 72.391 115.382,71.582 116.352,73.993 112.800 C 76.218 109.522,79.501 105.200,79.766 105.200 C 79.857 105.200,78.499 107.135,76.748 109.500 M65.200 127.200 C 64.751 128.080,64.294 128.800,64.184 128.800 C 64.074 128.800,64.351 128.080,64.800 127.200 C 65.249 126.320,65.706 125.600,65.816 125.600 C 65.926 125.600,65.649 126.320,65.200 127.200 M61.515 134.184 C 60.370 136.485,59.370 138.303,59.292 138.226 C 59.115 138.048,63.136 130.000,63.401 130.000 C 63.508 130.000,62.659 131.883,61.515 134.184 M58.647 140.265 C 58.309 140.889,58.025 141.273,58.016 141.119 C 57.989 140.643,58.920 138.786,59.096 138.963 C 59.188 139.054,58.986 139.640,58.647 140.265 M57.447 143.065 C 57.109 143.689,56.825 144.073,56.816 143.919 C 56.789 143.443,57.720 141.586,57.896 141.763 C 57.988 141.854,57.786 142.440,57.447 143.065 M49.022 166.622 C 48.872 167.425,48.828 168.162,48.926 168.260 C 49.024 168.357,49.227 167.781,49.378 166.978 C 49.528 166.175,49.572 165.438,49.474 165.340 C 49.376 165.243,49.173 165.819,49.022 166.622 M46.101 184.200 C 46.105 185.080,46.187 185.393,46.283 184.895 C 46.379 184.398,46.375 183.678,46.275 183.295 C 46.175 182.913,46.096 183.320,46.101 184.200 M45.714 188.200 C 45.717 189.300,45.795 189.703,45.887 189.095 C 45.979 188.486,45.977 187.586,45.882 187.095 C 45.787 186.603,45.711 187.100,45.714 188.200 M46.101 221.400 C 46.105 222.280,46.187 222.593,46.283 222.095 C 46.379 221.598,46.375 220.878,46.275 220.495 C 46.175 220.113,46.096 220.520,46.101 221.400 M47.640 231.600 C 47.579 232.502,48.923 239.031,49.075 238.574 C 49.148 238.357,48.864 236.563,48.444 234.589 C 48.024 232.615,47.662 231.270,47.640 231.600 M59.172 266.600 C 59.172 266.820,58.914 266.550,58.600 266.000 C 58.286 265.450,58.028 264.820,58.028 264.600 C 58.028 264.380,58.286 264.650,58.600 265.200 C 58.914 265.750,59.172 266.380,59.172 266.600 M91.610 313.100 L 94.600 316.200 91.500 313.210 C 89.795 311.566,88.400 310.171,88.400 310.110 C 88.400 309.817,88.833 310.221,91.610 313.100 M281.400 334.643 C 280.456 335.372,278.066 336.643,278.496 336.188 C 278.871 335.791,281.732 334.025,282.000 334.025 C 282.110 334.025,281.840 334.303,281.400 334.643 M278.000 336.592 C 278.000 336.697,277.280 337.151,276.400 337.600 C 275.520 338.049,274.800 338.327,274.800 338.218 C 274.800 338.108,275.475 337.663,276.300 337.227 C 277.997 336.331,278.000 336.330,278.000 336.592 M126.800 339.016 C 126.800 339.126,126.080 338.849,125.200 338.400 C 124.320 337.951,123.600 337.494,123.600 337.384 C 123.600 337.274,124.320 337.551,125.200 338.000 C 126.080 338.449,126.800 338.906,126.800 339.016 M272.800 339.392 C 272.800 339.634,269.741 341.206,269.316 341.182 C 269.142 341.172,269.810 340.730,270.800 340.200 C 272.817 339.120,272.800 339.127,272.800 339.392 M148.400 348.467 C 148.817 348.725,148.695 348.757,148.000 348.571 C 147.450 348.424,146.730 348.136,146.400 347.933 C 145.983 347.675,146.105 347.643,146.800 347.829 C 147.350 347.976,148.070 348.264,148.400 348.467 M253.200 348.163 C 253.200 348.383,248.358 350.008,247.822 349.969 C 247.590 349.952,248.570 349.516,250.000 349.000 C 252.720 348.019,253.200 347.894,253.200 348.163 M245.400 350.800 C 244.960 350.989,244.330 351.144,244.000 351.144 C 243.622 351.144,243.696 351.017,244.200 350.800 C 244.640 350.611,245.270 350.456,245.600 350.456 C 245.978 350.456,245.904 350.583,245.400 350.800 M191.700 357.082 C 191.205 357.178,190.395 357.178,189.900 357.082 C 189.405 356.987,189.810 356.909,190.800 356.909 C 191.790 356.909,192.195 356.987,191.700 357.082 M210.500 357.082 C 210.005 357.178,209.195 357.178,208.700 357.082 C 208.205 356.987,208.610 356.909,209.600 356.909 C 210.590 356.909,210.995 356.987,210.500 357.082 M197.916 357.897 C 199.299 357.975,201.459 357.974,202.716 357.895 C 203.972 357.816,202.840 357.752,200.200 357.753 C 197.560 357.753,196.532 357.818,197.916 357.897 " stroke="none" fill="#1a63e3" fill-rule="evenodd"></path></g></svg>