<svg id="svg" version="1.1" xmlns="http://www.w3.org/2000/svg" xmlns:xlink="http://www.w3.org/1999/xlink" width="400" height="400" viewBox="0, 0, 400,400"><g id="svgg"><path id="path0" d="M196.600 96.364 C 188.931 100.799,159.830 134.537,143.359 158.089 C 117.696 194.784,112.192 219.470,123.432 247.467 C 145.864 303.341,217.002 318.031,259.262 275.517 C 272.539 262.160,280.040 245.957,282.834 224.600 C 286.168 199.118,266.362 163.031,222.075 113.895 C 205.572 95.585,202.091 93.189,196.600 96.364 M261.584 199.274 C 265.261 203.222,267.016 222.294,264.639 232.480 C 260.277 251.168,248.033 265.450,227.501 275.800 C 220.270 279.446,216.400 279.817,216.400 276.864 C 216.400 275.209,218.302 273.684,224.200 270.609 C 251.624 256.315,261.953 238.202,258.535 210.400 C 257.689 203.513,257.630 199.931,258.349 199.063 C 259.115 198.138,260.617 198.236,261.584 199.274 " stroke="none" fill="#6ccbc3" fill-rule="evenodd"></path><path id="path1" d="M180.200 6.407 C 129.691 11.099,85.490 34.361,48.346 75.800 C 27.890 98.622,11.044 133.690,4.055 168.000 C -0.691 191.299,-0.465 222.202,4.631 246.800 C 19.576 318.943,74.037 377.226,145.756 397.829 L 153.312 400.000 199.960 400.000 L 246.608 400.000 251.604 398.623 C 330.099 376.985,386.370 313.146,397.768 232.800 C 401.523 206.329,399.714 179.529,392.346 152.457 C 377.425 97.637,337.161 49.276,286.203 24.967 C 268.452 16.500,251.908 11.457,229.751 7.759 L 221.000 6.298 202.400 6.185 C 192.170 6.124,182.180 6.223,180.200 6.407 M203.974 96.066 C 209.294 98.590,238.589 131.588,252.369 150.578 C 279.781 188.357,286.457 207.741,281.164 234.194 C 270.725 286.365,213.572 314.961,165.091 292.270 C 129.782 275.744,109.771 233.251,121.213 199.097 C 129.475 174.436,155.782 137.073,187.985 104.260 C 196.989 95.086,199.353 93.874,203.974 96.066 M258.349 199.063 C 257.630 199.931,257.689 203.513,258.535 210.400 C 261.953 238.202,251.624 256.315,224.200 270.609 C 218.302 273.684,216.400 275.209,216.400 276.864 C 216.400 279.817,220.270 279.446,227.501 275.800 C 254.310 262.285,267.323 241.726,265.586 215.629 C 264.769 203.357,261.324 195.471,258.349 199.063 " stroke="none" fill="#3d2873" fill-rule="evenodd"></path></g></svg>