<svg width="110" height="157" viewBox="0 0 110 157" fill="none" xmlns="http://www.w3.org/2000/svg"><path d="m84.3558 149.905.272 6.517H25.3113l.6575-6.927c.9371.327 1.9458.505 2.9967.505h54.069c.4489.0.8901-.032 1.3213-.095zm-.7769-31.889c1.4753-12.043 7.8724-23.0995 13.8038-33.3512 4.0523-7.0033 7.8863-13.631 9.7863-19.9411-1.525 1.4561-3.508 4.4294-5.83 7.9112-5.974 8.9575-14.1928 21.2809-22.6349 19.796-6.5388-2.1963-8.6025-5.274-11.2529-10.858-8.7844 1.7113-15.7659-3.479-18.301-9.7439l.5045 25.3083-11.448-32.8343c-8.9473-2.8953-17.1538-16.6325-8.9312-15.0591l14.7643 2.8251c10.1081 2.1275 15.7997-11.5427 6.7529-18.6385-1.9246-1.3642-21.2272-10.373-24.8586-11.3972-3.2588-.9191-7.1371.373-9.6249 3.2065L1.27172 53.1659C-.289859 55.32-.298054 57.574.623595 59.5576L28.1401 114.776c.4017.758.531 1.985.5532 3.228.0904-.003.1812-.004.2722-.004h54.069c.1828.0.3643.005.5444.016zm16.0079-76.4423c3.8132-4.5627 13.0522 11.1752 8.0642 16.8316L87.888 84.5886c-.4562.5989-.8139.9323-1.4085 1.4865-.0457.0426-.0929.0866-.1415.132-7.7411 5.5399-18.6377-3.3444-11.4157-12.333l24.6645-32.3004zM83.4473 24.9855c.9927-.3809 8.487 5.1386 12.1551 8.9417 1.0624 1.3104 1.4896 3.323.2287 4.9524L67.1748 75.9118c-.6941.6458-1.0892.8609-2.2031 1.1885-8.0897.8494-16.4271-7.7713-9.0137-15.002l27.4893-37.1128zM65.9571 11.529c.9401-1.2144 13.0427 8.5418 13.3158 10.4438L50.351 60.0165c-2.8419 3.7382-12.0004-1.3584-13.5322-6.274 12.2262 6.9846 32.8219-4.9606 15.1755-24.1749L65.9571 11.529zM44.4531.422462C49.2134-1.39154 59.7643 2.88429 62.4225 8.51027L48.3196 26.8736l-18.9655-7.8415L44.4531.422462z" fill="#fff"/><path fill-rule="evenodd" clip-rule="evenodd" d="M31.8448 122h47.3104C83.4878 122 87 124.964 87 128.621v10.758c0 3.657-3.5122 6.621-7.8448 6.621H31.8448C27.5122 146 24 143.036 24 139.379v-10.758c0-3.657 3.5122-6.621 7.8448-6.621zm11.593 3.064h24.3246c2.8165.0 5.0997 2.284 5.0997 5.1v8.287c0 2.816-2.2832 5.1-5.0997 5.1H43.4378c-2.8165.0-5.0997-2.284-5.0997-5.1v-8.287c0-2.816 2.2832-5.1 5.0997-5.1z" fill="#ff5000"/></svg>