<?xml version="1.0" encoding="UTF-8"?>
<svg version="1.1" xmlns="http://www.w3.org/2000/svg" width="400" height="400">
<path d="M0 0 C1.65812937 1.54944526 3.30253442 3.11363179 4.9375 4.6875 C5.77015381 5.47350586 5.77015381 5.47350586 6.61962891 6.27539062 C27.96423514 26.49122284 43.44259221 50.81715303 52.9375 78.6875 C53.5975 78.6875 54.2575 78.6875 54.9375 78.6875 C55.55374603 81.50462469 55.99941448 84.25504939 56.3125 87.125 C56.76683905 90.95442911 57.54873492 94.67155815 58.375 98.4375 C68.82150342 146.28758154 60.06735335 195.25288631 33.9375 236.6875 C27.69381164 245.95045618 20.68310886 254.64120757 12.9375 262.6875 C12.41349609 263.24260254 11.88949219 263.79770508 11.34960938 264.36962891 C-22.13340977 299.72221057 -67.8327742 318.92243753 -116.265625 320.8125 C-136.63390269 321.1914447 -156.66728215 317.77064029 -176.0625 311.6875 C-176.69849121 311.49349609 -177.33448242 311.29949219 -177.98974609 311.09960938 C-195.19133447 305.7834452 -211.55582085 297.34879014 -226.0625 286.6875 C-227.09503906 285.95015625 -228.12757813 285.2128125 -229.19140625 284.453125 C-267.15457783 256.53459679 -293.28444829 213.54751165 -300.75 167.0625 C-307.87009581 120.16679044 -297.66312511 70.901242 -269.54272461 32.24633789 C-264.40978066 25.39618497 -259.00160772 18.85716314 -253.0625 12.6875 C-252.53849609 12.13239746 -252.01449219 11.57729492 -251.47460938 11.00537109 C-189.18347 -54.763865 -82.74436993 -64.14282827 0 0 Z M53.9375 81.6875 C54.9375 83.6875 54.9375 83.6875 54.9375 83.6875 Z " fill="#0091EA" transform="translate(320.0625,62.3125)"/>
<path d="M0 0 C2.97 1.98 2.97 1.98 6 4 C0.91074325 12.11704242 -5.02282425 19.53199199 -11 27 C-11.77085937 27.96421875 -12.54171875 28.9284375 -13.3359375 29.921875 C-13.88507813 30.60765625 -14.43421875 31.2934375 -15 32 C-13.17032883 35.88915611 -10.79952184 39.26914241 -8.33984375 42.78125 C-5.34483668 47.74091185 -5.39019723 53.35496862 -6 59 C-7.51163737 63.73524958 -10.61175439 67.35624801 -14.75 70.05859375 C-22.17372263 73.16469992 -30.5331728 72.4889424 -38 70 C-37.0919838 71.13199353 -36.17316174 72.25532363 -35.25 73.375 C-34.73953125 74.00148438 -34.2290625 74.62796875 -33.703125 75.2734375 C-30.8112491 78.20510986 -27.76788592 79.35253381 -23.6875 79.640625 C-20.76433365 79.56646939 -19.41424747 79.32840856 -17.10546875 77.49804688 C-15.2452898 75.33343683 -13.61529823 73.10294019 -12 70.75 C-11.39462402 69.92024658 -10.78924805 69.09049316 -10.16552734 68.2355957 C-8.96007561 66.5799092 -7.76620434 64.91571963 -6.58496094 63.24267578 C-4.65575872 60.51290814 -2.64719737 57.84889769 -0.625 55.1875 C0.05820313 54.27097656 0.74140625 53.35445312 1.4453125 52.41015625 C5.01867951 47.62713388 8.63601524 42.87735336 12.25 38.125 C12.93626465 37.22031982 13.6225293 36.31563965 14.32958984 35.38354492 C17.79177132 30.83483227 21.29383364 26.35259073 25 22 C26.65 22.99 28.3 23.98 30 25 C29.61661107 30.36744508 26.5455846 33.5919384 23.3125 37.625 C22.12078562 39.14587508 20.93074015 40.66805903 19.7421875 42.19140625 C19.1244043 42.98047363 18.50662109 43.76954102 17.87011719 44.58251953 C14.82138341 48.52358504 11.879886 52.54175909 8.9375 56.5625 C3.47953354 64.0024819 -2.02807136 71.40290298 -7.57421875 78.77734375 C-7.99687012 79.34356445 -8.41952148 79.90978516 -8.85498047 80.49316406 C-9.80482234 81.74314786 -10.79766839 82.96031661 -11.80078125 84.16796875 C-14.01318717 87.54783317 -13.72379713 91.1330468 -13 95 C-10.94038933 98.86585654 -8.03226473 101.34460059 -4 103 C0.1176252 103.77210811 4.2524227 104.19047309 7.83496094 101.75 C9.52625053 99.92454815 10.95006216 98.04011337 12.375 96 C12.91753418 95.2795752 13.46006836 94.55915039 14.01904297 93.81689453 C15.70775322 91.56413841 17.35310158 89.28342367 19 87 C20.03242572 85.61937107 21.06876842 84.24166087 22.109375 82.8671875 C24.11481666 80.2166094 26.10593343 77.55634663 28.0859375 74.88671875 C30.90742512 71.09988603 33.81657959 67.38793437 36.75 63.6875 C40.09338238 59.45446222 43.40377897 55.20244107 46.625 50.875 C47.25664062 50.02679688 47.88828125 49.17859375 48.5390625 48.3046875 C49.91500365 46.13408515 50.57161666 44.51241039 51 42 C54.99996286 43.33332095 55.83782337 45.4957827 58 49 C57.44054687 49.64582031 56.88109375 50.29164063 56.3046875 50.95703125 C50.36785919 57.93423622 44.86912586 65.15269216 39.47851562 72.55883789 C34.67356502 79.14216802 29.70440032 85.58130949 24.61816406 91.94970703 C18.50702287 99.51257646 18.50702287 99.51257646 15.5 108.5625 C16.09390691 112.64561001 17.42132684 114.81458021 20 118 C22.71655403 119.35827701 24.90789406 119.1323445 27.9375 119.125 C28.99839844 119.12757813 30.05929688 119.13015625 31.15234375 119.1328125 C34.07573057 119.12569346 34.07573057 119.12569346 37 118 C37.71870356 116.69398032 38.37767416 115.3545969 39 114 C40.05912403 112.50286651 41.15390599 111.03064061 42.2734375 109.578125 C42.92812012 108.72460449 43.58280273 107.87108398 44.25732422 106.99169922 C44.95615723 106.08693848 45.65499023 105.18217773 46.375 104.25 C47.82339222 102.36234396 49.27130378 100.47431902 50.71875 98.5859375 C51.43933594 97.64717773 52.15992188 96.70841797 52.90234375 95.74121094 C55.9160781 91.80287187 58.90042498 87.84296205 61.875 83.875 C62.36790527 83.21918945 62.86081055 82.56337891 63.36865234 81.88769531 C68.4586432 75.09500932 69.8120806 71.46211525 69 63 C68.23411319 60.41900574 67.27465452 58.38997723 66 56 C66.66 56 67.32 56 68 56 C69.41894531 57.44018555 69.41894531 57.44018555 71.078125 59.44921875 C75.07577979 64.1471851 79.36666487 68.47621401 83.75 72.8125 C84.56694336 73.62565674 85.38388672 74.43881348 86.22558594 75.27661133 C88.81462671 77.85353297 91.40688737 80.42717625 94 83 C97.41962719 86.39287153 100.83582149 89.78914657 104.25 93.1875 C105.02311523 93.95231689 105.79623047 94.71713379 106.59277344 95.50512695 C109.99219423 98.88932535 113.30443789 102.29215 116.42993164 105.93212891 C120.65783452 110.84088476 125.26269336 115.34974783 129.87109375 119.8984375 C131.27991087 121.29784809 132.68872241 122.69726436 134.09719181 124.09702492 C137.54032995 127.51733438 140.98907257 130.9319775 144.44018555 134.34423828 C146.39080537 136.27331278 148.33877422 138.20499396 150.28395081 140.13955688 C152.11040918 141.95563942 153.94098873 143.76758815 155.77598572 145.57504272 C156.59426346 146.38994171 157.4125412 147.2048407 158.25561523 148.04443359 C158.98062729 148.76198822 159.70563934 149.47954285 160.45262146 150.21884155 C162 152 162 152 162 154 C162.66 154 163.32 154 164 154 C162.71173971 160.47366981 160.92031508 166.38994725 158.4375 172.5 C157.91349609 173.79550781 157.91349609 173.79550781 157.37890625 175.1171875 C151.97175042 188.1940679 145.30272298 200.52631086 137 212 C136.26007813 213.03769531 135.52015625 214.07539063 134.7578125 215.14453125 C106.75939041 253.1660405 63.88410257 279.07597506 17.375 286.75 C-2.42604807 289.75496723 -2.42604807 289.75496723 -7.75 286.125 C-8.86375 284.578125 -8.86375 284.578125 -10 283 C-11.40616787 281.44875132 -12.82419979 279.90822351 -14.25 278.375 C-18.17820549 273.98655921 -21.92745979 269.47873693 -25.62890625 264.8984375 C-27.6972774 262.37004971 -29.80733141 259.88477509 -31.93945312 257.41015625 C-36.60994007 251.97564939 -41.06555282 246.4131472 -45.375 240.6875 C-45.86266846 240.04208252 -46.35033691 239.39666504 -46.8527832 238.73168945 C-56 226.44999074 -56 226.44999074 -56 224 C-26.63 224 2.74 224 33 224 C33 220.04 33 216.08 33 212 C32.34 212.33 31.68 212.66 31 213 C28.40789331 213.11383694 25.84202544 213.16782172 23.24902344 213.17700195 C22.04872246 213.18685875 22.04872246 213.18685875 20.82417297 213.19691467 C18.16923941 213.21666588 15.51436249 213.22831508 12.859375 213.23828125 C11.49980556 213.24439454 11.49980556 213.24439454 10.11277008 213.25063133 C5.31427741 213.27150112 0.51581341 213.28579817 -4.28271484 213.29516602 C-9.23710198 213.30622469 -14.19103927 213.34061566 -19.14526749 213.38033772 C-22.95602243 213.40649762 -26.76667018 213.41485736 -30.57750702 213.41844749 C-32.40353174 213.42331608 -34.22955158 213.43493784 -36.05548859 213.45348549 C-38.61450182 213.47786108 -41.17235127 213.47691492 -43.73144531 213.4699707 C-44.85854164 213.48918579 -44.85854164 213.48918579 -46.00840759 213.50878906 C-52.07969854 213.44888287 -55.62541796 211.38150869 -59.84130859 207.15332031 C-62.45784773 202.29072547 -61.59857151 196.13612546 -61.625 190.75 C-61.67011719 189.45191406 -61.71523437 188.15382813 -61.76171875 186.81640625 C-61.77074219 185.55183594 -61.77976563 184.28726563 -61.7890625 182.984375 C-61.80662598 181.83678711 -61.82418945 180.68919922 -61.84228516 179.50683594 C-60.83389801 175.30843797 -59.72679537 172.71709451 -56.73199463 169.58868408 C-50.22065941 165.80227305 -41.79775655 167.05222798 -34.50390625 167.21875 C-32.5857937 167.2336828 -30.66765051 167.24506491 -28.74949646 167.25305176 C-23.71646939 167.2835044 -18.68530818 167.36200707 -13.65301514 167.45068359 C-8.51177204 167.53272417 -3.37022552 167.56910203 1.77148438 167.609375 C11.84847319 167.69500884 21.92408106 167.83143175 32 168 C31.98324219 166.92419678 31.96648437 165.84839355 31.94921875 164.73999023 C32.20399818 145.9757301 45.0888515 127.62247148 53.98803711 111.95507812 C60.66831378 100.97277996 60.66831378 100.97277996 65 89 C63.87411277 90.54101884 62.74937289 92.08287591 61.625 93.625 C60.8928125 94.62660156 60.160625 95.62820312 59.40625 96.66015625 C57.76807057 98.91668127 56.16949746 101.19557895 54.59375 103.49609375 C39.75849097 125.02819313 39.75849097 125.02819313 28.76171875 127.50390625 C22.17350171 127.69001408 17.81779344 125.43572472 13 121 C8 114.70629371 8 114.70629371 8 111 C7.27554688 111.02320313 6.55109375 111.04640625 5.8046875 111.0703125 C-2.86768535 111.23219679 -9.50137792 110.08950785 -16 104 C-16.99 102.35 -17.98 100.7 -19 99 C-19.33 109.23 -19.66 119.46 -20 130 C-22.22447933 127.77552067 -22.72711957 126.35436993 -23.734375 123.40625 C-24.05857422 122.46612061 -24.38277344 121.52599121 -24.71679688 120.55737305 C-25.05775391 119.54843994 -25.39871094 118.53950684 -25.75 117.5 C-26.10126953 116.47366455 -26.45253906 115.4473291 -26.81445312 114.38989258 C-27.88252415 111.2620049 -28.94180509 108.1312406 -30 105 C-30.61970424 103.1809598 -31.23949019 101.36194743 -31.859375 99.54296875 C-32.40701566 97.92473808 -32.95393543 96.30626319 -33.5 94.6875 C-33.88236816 93.56021484 -33.88236816 93.56021484 -34.27246094 92.41015625 C-36 87.23480781 -36 87.23480781 -36 85 C-36.804375 84.835 -37.60875 84.67 -38.4375 84.5 C-45.93210295 81.34437771 -51.77395289 75.43393465 -55 68 C-55.3125 65.125 -55.3125 65.125 -55 63 C-54.505 62.505 -54.505 62.505 -54 62 C-48.39045621 62.38686509 -43.05933188 63.38739207 -37.5625 64.5625 C-27.73338489 66.93739003 -27.73338489 66.93739003 -18.12890625 65.05078125 C-14.83810712 62.54914259 -12.90791885 59.99484296 -12 56 C-11.41876501 50.30389711 -11.62442061 45.83833046 -15 41 C-20.78994837 36.59122415 -27.42593888 34.07121937 -34.09570312 31.26757812 C-34.96775391 30.88923828 -35.83980469 30.51089844 -36.73828125 30.12109375 C-37.53274658 29.7852124 -38.32721191 29.44933105 -39.14575195 29.10327148 C-41 28 -41 28 -42 25 C-43.63044124 23.34362312 -43.63044124 23.34362312 -45.5625 21.8125 C-46.20316406 21.28269531 -46.84382812 20.75289062 -47.50390625 20.20703125 C-47.99761719 19.80871094 -48.49132812 19.41039063 -49 19 C-48.34 18.67 -47.68 18.34 -47 18 C-44.58611989 18.82054021 -42.2831573 19.70197043 -39.9375 20.6875 C-39.26299805 20.96279541 -38.58849609 21.23809082 -37.89355469 21.52172852 C-33.43934674 23.35239304 -29.05273565 25.29952017 -24.734375 27.43359375 C-22.78747565 28.25977755 -22.78747565 28.25977755 -20 27 C-18.01576713 24.73551357 -18.01576713 24.73551357 -16 21.875 C-15.4287439 21.09431152 -15.4287439 21.09431152 -14.84594727 20.29785156 C-14.01289616 19.15815076 -13.18304895 18.0161031 -12.35595703 16.87207031 C-10.90127972 14.86370415 -9.43437497 12.86470793 -7.96484375 10.8671875 C-5.30363597 7.24934197 -2.65012762 3.625969 0 0 Z " fill="#0081D1" transform="translate(212,94)"/>
<path d="M0 0 C3.50538683 1.46234334 6.94558494 3.02365355 10.3840332 4.63696289 C11.55579102 5.16741211 12.72754883 5.69786133 13.93481445 6.24438477 C36.33083127 16.48723196 36.33083127 16.48723196 39.8840332 24.94946289 C40.66993933 30.5630781 40.12637588 35.19402696 36.8840332 39.94946289 C34.32976901 42.81522271 32.6784717 44.53508452 28.9387207 45.39868164 C22.05240522 45.74659653 15.24071929 43.91039205 8.57275391 42.37353516 C4.60271015 41.46365761 0.99026475 40.68293265 -3.1159668 40.94946289 C-2.84690708 47.40689619 -0.63598913 51.34521654 3.8840332 55.94946289 C6.13559322 57.6525168 8.41613902 59.16829697 10.83325195 60.62524414 C15.69874628 63.76696333 16.89369421 67.27032914 18.5715332 72.69946289 C19.08674743 74.30678377 19.60377127 75.91352538 20.12231445 77.51977539 C20.53924561 78.8177002 20.53924561 78.8177002 20.96459961 80.1418457 C22.65732327 85.31081067 24.46298262 90.4406874 26.2590332 95.57446289 C27.4552832 98.99821289 28.6515332 102.42196289 29.8840332 105.94946289 C30.2140332 96.04946289 30.5440332 86.14946289 30.8840332 75.94946289 C33.08197455 78.14740424 35.27523066 80.35020175 37.4465332 82.57446289 C41.21256628 86.24393101 43.34606989 87.08437099 48.5324707 87.32763672 C57.82059691 87.85051296 57.82059691 87.85051296 60.98950195 91.12524414 C61.91624381 92.87748714 62.79228634 94.65752771 63.61450195 96.46118164 C65.68540526 100.52015212 68.67048462 102.40886012 72.8840332 103.94946289 C77.77595464 104.97753745 81.61130888 104.44370154 85.9465332 101.94946289 C95.62615002 95.02730076 101.86951772 85.65363596 108.50366211 75.96264648 C110.35961682 73.25585439 112.24604907 70.57150016 114.1340332 67.88696289 C115.05107255 66.57472325 115.96791726 65.26234735 116.8840332 63.94946289 C117.8840332 66.94946289 117.8840332 66.94946289 116.7590332 69.79321289 C116.1459506 71.01800115 115.5196702 72.23622665 114.8840332 73.44946289 C114.36510498 74.46508301 114.36510498 74.46508301 113.83569336 75.5012207 C109.53480723 83.80675384 104.93166625 91.95567531 100.34106445 100.10375977 C91.91666515 114.87175471 91.91666515 114.87175471 86.0715332 130.76196289 C85.86850586 131.45999023 85.66547852 132.15801758 85.45629883 132.87719727 C84.20651829 137.29473838 83.54656643 141.31173033 82.8840332 145.94946289 C55.4940332 145.94946289 28.1040332 145.94946289 -0.1159668 145.94946289 C-0.6109668 142.48446289 -0.6109668 142.48446289 -1.1159668 138.94946289 C-1.84821255 136.91490645 -1.84821255 136.91490645 -2.8659668 135.21508789 C-3.22239258 134.56862305 -3.57881836 133.9221582 -3.94604492 133.25610352 C-4.33211914 132.57741211 -4.71819336 131.8987207 -5.1159668 131.19946289 C-8.50320733 125.03936093 -11.65803079 118.82681985 -14.6159668 112.44946289 C-17.74336323 105.7368701 -21.06945246 99.18079839 -24.58935547 92.66674805 C-28.41319542 85.52393127 -31.87007764 78.21171834 -35.31079102 70.87817383 C-35.74794434 69.95037109 -36.18509766 69.02256836 -36.63549805 68.06665039 C-37.0526709 67.17945313 -37.46984375 66.29225586 -37.8996582 65.37817383 C-38.97143413 63.23806405 -40.14693695 61.27922358 -41.44018555 59.26977539 C-43.42421864 55.3387075 -43.96232938 52.22517639 -43.1159668 47.94946289 C-41.97361818 45.00768156 -40.44101584 42.39111192 -38.8034668 39.69946289 C-37.887104 38.125825 -36.97177942 36.55158217 -36.05737305 34.97680664 C-35.33638428 33.7526001 -35.33638428 33.7526001 -34.60083008 32.50366211 C-32.06222392 28.13685882 -29.65881169 23.69639506 -27.2409668 19.26196289 C-25.5391914 16.15413542 -23.82960912 13.05075811 -22.1159668 9.94946289 C-21.74850342 9.27310791 -21.38104004 8.59675293 -21.00244141 7.89990234 C-16.15668013 -0.8702992 -9.42394501 -3.1772495 0 0 Z " fill="#FCFDFD" transform="translate(161.115966796875,116.050537109375)"/>
<path d="M0 0 C1.92857748 0.00223126 3.8571601 0.00164391 5.78573608 -0.00163269 C9.81932584 0.00010726 13.85148802 0.02914165 17.88476562 0.07885742 C23.05132328 0.14130886 28.21593842 0.14611984 33.38279152 0.13187695 C37.36180179 0.12546326 41.3403738 0.14422558 45.31928635 0.17113686 C47.22423087 0.18200455 49.12922479 0.18629547 51.03419876 0.18385887 C53.69641228 0.18528782 56.35624421 0.21931657 59.01806641 0.26245117 C59.80260696 0.25704315 60.58714752 0.25163513 61.39546204 0.24606323 C65.3828433 0.34692346 67.22909822 0.76886277 70.36361694 3.3129425 C75.13348501 9.32630772 74.89742183 13.67679249 74.94140625 21.18896484 C74.96073744 23.18635992 75.02311742 25.18318695 75.0859375 27.1796875 C75.17369864 38.00721763 75.17369864 38.00721763 71.6171875 42.31640625 C67.48850102 46.34483197 63.07124906 46.11455806 57.59643555 46.1340332 C56.39591553 46.14389 56.39591553 46.14389 55.17114258 46.15394592 C52.52164617 46.17366187 49.87220639 46.18533736 47.22265625 46.1953125 C46.3171937 46.19938803 45.41173115 46.20346355 44.47883034 46.20766258 C39.68681695 46.22851549 34.89483214 46.2428209 30.1027832 46.25219727 C25.15627189 46.26326351 20.21021019 46.29766807 15.26385784 46.33736897 C11.4573941 46.36352614 7.65103767 46.37188827 3.84449196 46.37547874 C2.02125828 46.38034658 0.19802946 46.39196621 -1.62511635 46.41051674 C-4.17923159 46.43489069 -6.73218078 46.43394669 -9.28637695 46.42700195 C-10.03620346 46.43981201 -10.78602997 46.45262207 -11.55857849 46.46582031 C-17.62388803 46.40584998 -21.16889777 44.33410975 -25.38037109 40.11035156 C-27.99691023 35.24775672 -27.13763401 29.09315671 -27.1640625 23.70703125 C-27.20917969 22.40894531 -27.25429687 21.11085938 -27.30078125 19.7734375 C-27.30980469 18.50886719 -27.31882813 17.24429687 -27.328125 15.94140625 C-27.34568848 14.79381836 -27.36325195 13.64623047 -27.38134766 12.46386719 C-26.37333761 8.26703928 -25.26721259 5.68341278 -22.27334595 2.55685425 C-15.75364408 -1.25780842 -7.32155223 -0.10734691 0 0 Z " fill="#FD5003" transform="translate(177.5390625,261.04296875)"/>
<path d="M0 0 C1.98 1.32 3.96 2.64 6 4 C0.91074325 12.11704242 -5.02282425 19.53199199 -11 27 C-11.77085937 27.96421875 -12.54171875 28.9284375 -13.3359375 29.921875 C-13.88507813 30.60765625 -14.43421875 31.2934375 -15 32 C-13.17032883 35.88915611 -10.79952184 39.26914241 -8.33984375 42.78125 C-5.34483668 47.74091185 -5.39019723 53.35496862 -6 59 C-7.51163737 63.73524958 -10.61175439 67.35624801 -14.75 70.05859375 C-22.17372263 73.16469992 -30.5331728 72.4889424 -38 70 C-37.0919838 71.13199353 -36.17316174 72.25532363 -35.25 73.375 C-34.73953125 74.00148438 -34.2290625 74.62796875 -33.703125 75.2734375 C-30.8112491 78.20510986 -27.76788592 79.35253381 -23.6875 79.640625 C-20.76433365 79.56646939 -19.41424747 79.32840856 -17.10546875 77.49804688 C-15.2452898 75.33343683 -13.61529823 73.10294019 -12 70.75 C-11.39462402 69.92024658 -10.78924805 69.09049316 -10.16552734 68.2355957 C-8.96007561 66.5799092 -7.76620434 64.91571963 -6.58496094 63.24267578 C-4.65575872 60.51290814 -2.64719737 57.84889769 -0.625 55.1875 C0.05820313 54.27097656 0.74140625 53.35445312 1.4453125 52.41015625 C5.01867951 47.62713388 8.63601524 42.87735336 12.25 38.125 C12.93626465 37.22031982 13.6225293 36.31563965 14.32958984 35.38354492 C17.79177132 30.83483227 21.29383364 26.35259073 25 22 C26.65 22.99 28.3 23.98 30 25 C29.61661107 30.36744508 26.5455846 33.5919384 23.3125 37.625 C22.12078562 39.14587508 20.93074015 40.66805903 19.7421875 42.19140625 C19.1244043 42.98047363 18.50662109 43.76954102 17.87011719 44.58251953 C14.82138341 48.52358504 11.879886 52.54175909 8.9375 56.5625 C3.47953354 64.0024819 -2.02807136 71.40290298 -7.57421875 78.77734375 C-7.99687012 79.34356445 -8.41952148 79.90978516 -8.85498047 80.49316406 C-9.80482234 81.74314786 -10.79766839 82.96031661 -11.80078125 84.16796875 C-14.01318717 87.54783317 -13.72379713 91.1330468 -13 95 C-10.94038933 98.86585654 -8.03226473 101.34460059 -4 103 C0.1176252 103.77210811 4.2524227 104.19047309 7.83496094 101.75 C9.52625053 99.92454815 10.95006216 98.04011337 12.375 96 C12.91753418 95.2795752 13.46006836 94.55915039 14.01904297 93.81689453 C15.70775322 91.56413841 17.35310158 89.28342367 19 87 C20.03242572 85.61937107 21.06876842 84.24166087 22.109375 82.8671875 C24.11481666 80.2166094 26.10593343 77.55634663 28.0859375 74.88671875 C30.90742512 71.09988603 33.81657959 67.38793437 36.75 63.6875 C40.09338238 59.45446222 43.40377897 55.20244107 46.625 50.875 C47.25664062 50.02679688 47.88828125 49.17859375 48.5390625 48.3046875 C49.91500365 46.13408515 50.57161666 44.51241039 51 42 C54.99996286 43.33332095 55.83782337 45.4957827 58 49 C57.44054687 49.64582031 56.88109375 50.29164063 56.3046875 50.95703125 C50.36785919 57.93423622 44.86912586 65.15269216 39.47851562 72.55883789 C34.67356502 79.14216802 29.70440032 85.58130949 24.61816406 91.94970703 C18.50702287 99.51257646 18.50702287 99.51257646 15.5 108.5625 C16.09390691 112.64561001 17.42132684 114.81458021 20 118 C22.71655403 119.35827701 24.90789406 119.1323445 27.9375 119.125 C28.99839844 119.12757813 30.05929688 119.13015625 31.15234375 119.1328125 C34.07573057 119.12569346 34.07573057 119.12569346 37 118 C37.71870356 116.69398032 38.37767416 115.3545969 39 114 C40.05912403 112.50286651 41.15390599 111.03064061 42.2734375 109.578125 C43.25534058 108.29808594 43.25534058 108.29808594 44.25708008 106.9921875 C44.95599365 106.08726562 45.65490723 105.18234375 46.375 104.25 C47.82463697 102.35969565 49.27385134 100.46906715 50.72265625 98.578125 C51.44340332 97.63904297 52.16415039 96.69996094 52.90673828 95.73242188 C55.89274985 91.83465637 58.85900838 87.92244577 61.8125 84 C62.29702637 83.36094727 62.78155273 82.72189453 63.28076172 82.06347656 C65.25104194 79.44349062 67.054108 76.90646158 68.69921875 74.0625 C69.12847656 73.381875 69.55773437 72.70125 70 72 C70.66 72 71.32 72 72 72 C71.25201595 75.92046813 69.51251073 78.16004328 67.05859375 81.21875 C65.65940856 83.22775359 65.65940856 83.22775359 66 87 C64.93359375 89.03955078 64.93359375 89.03955078 63.4375 91.1953125 C62.89182373 91.98897217 62.34614746 92.78263184 61.78393555 93.6003418 C61.19523682 94.433479 60.60653809 95.26661621 60 96.125 C59.40421143 96.97940674 58.80842285 97.83381348 58.19458008 98.71411133 C39.42118102 125.44704457 39.42118102 125.44704457 28.9453125 127.37890625 C23.24759322 127.8422156 19.57402569 126.20944096 15.01953125 122.859375 C11.93407302 120.01860494 9.71461907 116.82558225 8 113 C8 112.34 8 111.68 8 111 C7.27554688 111.02320313 6.55109375 111.04640625 5.8046875 111.0703125 C-2.86768535 111.23219679 -9.50137792 110.08950785 -16 104 C-16.99 102.35 -17.98 100.7 -19 99 C-19.33 109.23 -19.66 119.46 -20 130 C-22.22447933 127.77552067 -22.72711957 126.35436993 -23.734375 123.40625 C-24.05857422 122.46612061 -24.38277344 121.52599121 -24.71679688 120.55737305 C-25.05775391 119.54843994 -25.39871094 118.53950684 -25.75 117.5 C-26.10126953 116.47366455 -26.45253906 115.4473291 -26.81445312 114.38989258 C-27.88252415 111.2620049 -28.94180509 108.1312406 -30 105 C-30.61970424 103.1809598 -31.23949019 101.36194743 -31.859375 99.54296875 C-32.40701566 97.92473808 -32.95393543 96.30626319 -33.5 94.6875 C-33.88236816 93.56021484 -33.88236816 93.56021484 -34.27246094 92.41015625 C-36 87.23480781 -36 87.23480781 -36 85 C-36.804375 84.835 -37.60875 84.67 -38.4375 84.5 C-45.93210295 81.34437771 -51.77395289 75.43393465 -55 68 C-55.3125 65.125 -55.3125 65.125 -55 63 C-54.505 62.505 -54.505 62.505 -54 62 C-48.39045621 62.38686509 -43.05933188 63.38739207 -37.5625 64.5625 C-27.73338489 66.93739003 -27.73338489 66.93739003 -18.12890625 65.05078125 C-14.83810712 62.54914259 -12.90791885 59.99484296 -12 56 C-11.41876501 50.30389711 -11.62442061 45.83833046 -15 41 C-20.78994837 36.59122415 -27.42593888 34.07121937 -34.09570312 31.26757812 C-34.96775391 30.88923828 -35.83980469 30.51089844 -36.73828125 30.12109375 C-37.53274658 29.7852124 -38.32721191 29.44933105 -39.14575195 29.10327148 C-41 28 -41 28 -42 25 C-43.63044124 23.34362312 -43.63044124 23.34362312 -45.5625 21.8125 C-46.20316406 21.28269531 -46.84382812 20.75289062 -47.50390625 20.20703125 C-47.99761719 19.80871094 -48.49132812 19.41039063 -49 19 C-48.34 18.67 -47.68 18.34 -47 18 C-44.58611989 18.82054021 -42.2831573 19.70197043 -39.9375 20.6875 C-38.92574707 21.10044312 -38.92574707 21.10044312 -37.89355469 21.52172852 C-33.43934674 23.35239304 -29.05273565 25.29952017 -24.734375 27.43359375 C-22.78747565 28.25977755 -22.78747565 28.25977755 -20 27 C-18.01576713 24.73551357 -18.01576713 24.73551357 -16 21.875 C-15.4287439 21.09431152 -15.4287439 21.09431152 -14.84594727 20.29785156 C-14.01289616 19.15815076 -13.18304895 18.0161031 -12.35595703 16.87207031 C-10.90127972 14.86370415 -9.43437497 12.86470793 -7.96484375 10.8671875 C-5.30363597 7.24934197 -2.65012762 3.625969 0 0 Z M64 84 C65 86 65 86 65 86 Z " fill="#0B76BC" transform="translate(212,94)"/>
<path d="M0 0 C4.13510287 0.8624041 6.63445432 2.74206448 10 5.3125 C11.03125 6.09238281 12.0625 6.87226562 13.125 7.67578125 C14.07375 8.44277344 15.0225 9.20976562 16 10 C16.78375 10.63292969 17.5675 11.26585937 18.375 11.91796875 C20 14 20 14 20.4765625 16.921875 C19.89650595 20.66846973 18.74512683 22.30242408 16.375 25.25 C15.98111084 25.74959229 15.58722168 26.24918457 15.18139648 26.76391602 C14.29406467 27.88827367 13.40069613 29.00788452 12.50244141 30.12353516 C10.25790336 32.92683698 8.06579588 35.77018896 5.86694336 38.609375 C4.05661192 40.94509691 2.23997511 43.27579052 0.421875 45.60546875 C-2.46460856 49.307663 -5.33175037 53.02407574 -8.1875 56.75 C-11.78661885 61.43722455 -15.41375552 66.10129942 -19.0625 70.75 C-19.54033936 71.3594043 -20.01817871 71.96880859 -20.51049805 72.59667969 C-23.87632397 76.87632397 -23.87632397 76.87632397 -25 78 C-29.94026655 78.56752591 -33.88841308 78.55579346 -38.375 76.3125 C-44.64697509 70.78718861 -44.64697509 70.78718861 -45.3828125 67.06201172 C-45.75965545 60.00405729 -43.11462469 56.51561224 -38.625 51.3125 C-37.32200517 49.72446994 -36.02123718 48.13461022 -34.72265625 46.54296875 C-34.08215332 45.76872559 -33.44165039 44.99448242 -32.78173828 44.19677734 C-30.40313523 41.26410123 -28.2168132 38.22419552 -26.0625 35.125 C-20.1519857 26.70733616 -13.9321122 18.52113106 -7.74023438 10.30957031 C-5.15421159 6.87750304 -2.57665227 3.43910513 0 0 Z " fill="#FBFCFD" transform="translate(243,120)"/>
<path d="M0 0 C3.7318219 0.50586159 4.82910661 2.55319521 7.0378418 5.41088867 C11.41831167 11.57879166 12.52201458 16.83633095 11.3972168 24.32495117 C9.71603968 27.87101726 7.40848429 30.70174203 4.8972168 33.69995117 C3.52440812 35.42748777 2.15202726 37.1553644 0.7800293 38.88354492 C0.06234375 39.76896973 -0.6553418 40.65439453 -1.39477539 41.56665039 C-5.11570497 46.21493238 -8.65521788 50.99986468 -12.2277832 55.76245117 C-22.8863759 69.95747567 -22.8863759 69.95747567 -27.5402832 70.95385742 C-35.7995418 70.77476636 -35.7995418 70.77476636 -39.7277832 68.57495117 C-42.53110216 65.21096842 -43.47876697 63.42042785 -43.9777832 59.01245117 C-43.22106508 51.57138966 -37.87688982 45.88042378 -33.3527832 40.19995117 C-32.10566783 38.61611965 -30.85961878 37.03144806 -29.61450195 35.44604492 C-28.96271973 34.6170166 -28.3109375 33.78798828 -27.6394043 32.93383789 C-23.43909147 27.55328851 -19.32453256 22.10698091 -15.19750977 16.67016602 C-13.94800005 15.02541631 -12.69406447 13.38401766 -11.43530273 11.74633789 C-10.17912122 10.08649133 -8.95211684 8.40427456 -7.75073242 6.7043457 C-7.15405762 5.87918457 -6.55738281 5.05402344 -5.94262695 4.20385742 C-5.41918701 3.45821533 -4.89574707 2.71257324 -4.35644531 1.94433594 C-2.6027832 0.32495117 -2.6027832 0.32495117 0 0 Z " fill="#FAFCFD" transform="translate(270.602783203125,143.675048828125)"/>
<path d="M0 0 C0.89110474 -0.0038269 1.78220947 -0.00765381 2.70031738 -0.01159668 C4.57968275 -0.01431217 6.45908615 -0.0069764 8.33837891 0.00976562 C11.20951873 0.03118114 14.07815644 0.00995239 16.94921875 -0.015625 C18.77865134 -0.01298166 20.60808237 -0.00785655 22.4375 0 C23.29283325 -0.00809692 24.1481665 -0.01619385 25.02941895 -0.02453613 C29.00870094 0.03784256 31.24541501 0.2597522 34.75952148 2.27539062 C36.97364378 4.82473518 37.35070218 5.83144613 37.34765625 9.15625 C37.34958984 10.02765625 37.35152344 10.8990625 37.35351562 11.796875 C37.32966797 12.69921875 37.30582031 13.6015625 37.28125 14.53125 C37.29220703 15.43359375 37.30316406 16.3359375 37.31445312 17.265625 C37.24300691 23.70531073 37.24300691 23.70531073 35.28686523 26.78710938 C31.36748507 29.4489643 27.69917395 29.10387498 23.0625 29.0625 C21.65357483 29.06824036 21.65357483 29.06824036 20.21618652 29.07409668 C18.23249234 29.07681576 16.2487623 29.06945484 14.26513672 29.05273438 C11.22932984 29.03132461 8.19588954 29.05253607 5.16015625 29.078125 C3.23176561 29.07548172 1.30337644 29.07035675 -0.625 29.0625 C-1.98606873 29.07464539 -1.98606873 29.07464539 -3.37463379 29.08703613 C-9.59922347 28.99444969 -9.59922347 28.99444969 -12.84936523 26.78710938 C-15.33707746 22.8678492 -14.89865668 19.05297641 -14.84375 14.53125 C-14.86759766 13.62890625 -14.89144531 12.7265625 -14.91601562 11.796875 C-14.91408203 10.92546875 -14.91214844 10.0540625 -14.91015625 9.15625 C-14.91088135 8.36476563 -14.91160645 7.57328125 -14.91235352 6.7578125 C-12.88895401 -0.38083488 -6.11841393 -0.05791933 0 0 Z " fill="#1858FB" transform="translate(190.28125,269.46875)"/>
<path d="M0 0 C5.15053461 0.44820286 7.73414893 1.96417605 11.625 5.3125 C12.54539063 6.09238281 13.46578125 6.87226562 14.4140625 7.67578125 C15.26742187 8.44277344 16.12078125 9.20976563 17 10 C17.79148438 10.67417969 18.58296875 11.34835938 19.3984375 12.04296875 C19.92695313 12.68878906 20.45546875 13.33460937 21 14 C20.6044247 17.26296851 19.28561027 19.23503398 17.26171875 21.765625 C16.4114209 22.84130737 16.4114209 22.84130737 15.54394531 23.9387207 C14.62500488 25.08280396 14.62500488 25.08280396 13.6875 26.25 C12.40375627 27.87275593 11.12122606 29.49647252 9.83984375 31.12109375 C8.87087158 32.34675049 8.87087158 32.34675049 7.88232422 33.59716797 C5.11627779 37.12809261 2.42816284 40.71471109 -0.25 44.3125 C-4.69932607 50.27603695 -9.17828787 56.21196158 -13.765625 62.0703125 C-15.18985734 63.93775001 -16.56166264 65.84721381 -17.859375 67.8046875 C-21.81806405 73.63376632 -21.81806405 73.63376632 -25.21875 74.6875 C-31.78616229 75.03776199 -35.60855417 72.13971469 -40.375 67.875 C-42 66 -42 66 -42 64 C-40.99839844 64.09539062 -39.99679688 64.19078125 -38.96484375 64.2890625 C-37.62245181 64.40171077 -36.28000043 64.51365218 -34.9375 64.625 C-32.97103516 64.79902344 -32.97103516 64.79902344 -30.96484375 64.9765625 C-24.29409264 65.01599551 -19.16139411 63.22295881 -14 59 C-10.40641167 53.96897633 -10.33495052 48.95773494 -11 43 C-12.34579479 36.75326916 -15.62328858 32.53251669 -20 28 C-18.64699111 25.10207462 -17.09700648 22.66041235 -15.13671875 20.13671875 C-14.57919922 19.41419922 -14.02167969 18.69167969 -13.44726562 17.94726562 C-12.57618164 16.82868164 -12.57618164 16.82868164 -11.6875 15.6875 C-7.68623364 10.5261836 -3.76011572 5.34035198 0 0 Z " fill="#F9FBFD" transform="translate(216,100)"/>
<path d="M0 0 C7.79277101 1.7188516 12.88823924 5.89129984 18.15234375 11.6953125 C16.56919312 15.19968239 14.47514054 18.07584601 12.15234375 21.1328125 C11.35957031 22.17824219 10.56679687 23.22367188 9.75 24.30078125 C8.88479685 25.43281345 8.0188855 26.56430464 7.15234375 27.6953125 C6.69069824 28.29811035 6.22905273 28.9009082 5.75341797 29.52197266 C2.89390775 33.25223968 0.02591434 36.97586831 -2.84765625 40.6953125 C-10.03169485 38.42036694 -16.9219582 35.65935779 -23.84765625 32.6953125 C-24.61335937 32.36917969 -25.3790625 32.04304688 -26.16796875 31.70703125 C-27.72942267 31.04009445 -29.28885692 30.36843039 -30.84765625 29.6953125 C-29.97094283 25.33118866 -27.60775391 22.51714101 -24.84765625 19.1328125 C-23.83404541 17.8898038 -22.82103219 16.64630756 -21.80859375 15.40234375 C-21.30424805 14.78311035 -20.79990234 14.16387695 -20.28027344 13.52587891 C-18.95890455 11.83746311 -17.75603069 10.11966833 -16.57421875 8.33203125 C-11.79819536 1.48758137 -8.48907843 -0.77263491 0 0 Z " fill="#F9FBFD" transform="translate(193.84765625,82.3046875)"/>
<path d="M0 0 C0.99 0.33 1.98 0.66 3 1 C5.72320635 1.09127814 8.42029726 1.12601219 11.14331055 1.11352539 C11.97280212 1.11367142 12.8022937 1.11381744 13.65692139 1.1139679 C16.40021372 1.11327092 19.14343827 1.10548853 21.88671875 1.09765625 C23.78815168 1.09579131 25.68958509 1.09436776 27.59101868 1.09336853 C32.59694748 1.08954936 37.6028473 1.07972416 42.60876465 1.06866455 C47.71638598 1.05843756 52.824012 1.05386815 57.93164062 1.04882812 C67.95443982 1.03810138 77.9772175 1.02103212 88 1 C88 4.96 88 8.92 88 13 C58.63 13 29.26 13 -1 13 C-0.67 8.71 -0.34 4.42 0 0 Z " fill="#F5F7F9" transform="translate(157,305)"/>
<path d="M0 0 C0.66 0 1.32 0 2 0 C1.25201595 3.92046813 -0.48748927 6.16004328 -2.94140625 9.21875 C-4.34059144 11.22775359 -4.34059144 11.22775359 -4 15 C-5.06640625 17.03955078 -5.06640625 17.03955078 -6.5625 19.1953125 C-7.10841797 19.98921387 -7.65433594 20.78311523 -8.21679688 21.60107422 C-8.80525391 22.43396973 -9.39371094 23.26686523 -10 24.125 C-10.59361328 24.97723145 -11.18722656 25.82946289 -11.79882812 26.70751953 C-26.60316383 47.80651702 -26.60316383 47.80651702 -32.3125 49.8125 C-32.869375 49.874375 -33.42625 49.93625 -34 50 C-34.33 48.68 -34.66 47.36 -35 46 C-34.34 46 -33.68 46 -33 46 C-32.73751465 45.43120117 -32.4750293 44.86240234 -32.20458984 44.27636719 C-30.90903493 41.82809924 -29.41730548 39.77174845 -27.7265625 37.578125 C-27.07196045 36.72476563 -26.4173584 35.87140625 -25.74291992 34.9921875 C-25.04400635 34.08726562 -24.34509277 33.18234375 -23.625 32.25 C-22.17536303 30.35969565 -20.72614866 28.46906715 -19.27734375 26.578125 C-18.55659668 25.63904297 -17.83584961 24.69996094 -17.09326172 23.73242188 C-14.10725015 19.83465637 -11.14099162 15.92244577 -8.1875 12 C-7.70297363 11.36094727 -7.21844727 10.72189453 -6.71923828 10.06347656 C-4.74895806 7.44349062 -2.945892 4.90646158 -1.30078125 2.0625 C-0.87152344 1.381875 -0.44226563 0.70125 0 0 Z M-6 12 C-5 14 -5 14 -5 14 Z " fill="#127BC4" transform="translate(282,166)"/>
<path d="M0 0 C0.66 0.99 1.32 1.98 2 3 C-0.09865251 6.03562304 -2.26069782 9.0200406 -4.4375 12 C-5.32598633 13.28777344 -5.32598633 13.28777344 -6.23242188 14.6015625 C-10.73217798 20.66540495 -10.73217798 20.66540495 -14.36450195 21.62402344 C-20.94326545 21.75513047 -24.53440763 19.20605633 -29.375 14.875 C-31 13 -31 13 -31 11 C-29.99839844 11.09539062 -28.99679688 11.19078125 -27.96484375 11.2890625 C-26.62245181 11.40171077 -25.28000043 11.51365218 -23.9375 11.625 C-22.62652344 11.74101562 -21.31554687 11.85703125 -19.96484375 11.9765625 C-13.29409264 12.01599551 -8.16139411 10.22295881 -3 6 C-1.11431306 2.89985071 -1.11431306 2.89985071 0 0 Z " fill="#ECF3F9" transform="translate(205,153)"/>
<path d="M0 0 C2.81117911 -0.28621686 5.40115429 -0.37819403 8.21337891 -0.34057617 C9.0622316 -0.34101425 9.91108429 -0.34145233 10.78565979 -0.34190369 C13.59952568 -0.33980882 16.41280033 -0.31644515 19.2265625 -0.29296875 C21.17426223 -0.28737527 23.12196618 -0.283104 25.06967163 -0.28010559 C30.20230715 -0.26863727 35.334689 -0.23915304 40.46722412 -0.20599365 C45.70207284 -0.17533553 50.93696244 -0.16160937 56.171875 -0.14648438 C66.44802827 -0.11428521 76.72399306 -0.06306492 87 0 C84.0268021 2.9731979 80.77460715 2.30816362 76.78662109 2.31884766 C75.9377684 2.32889328 75.08891571 2.3389389 74.21434021 2.34928894 C71.40071305 2.38024907 68.58718157 2.39719155 65.7734375 2.4140625 C63.825726 2.43276384 61.87802269 2.45233647 59.93032837 2.4727478 C54.79785987 2.52418427 49.66536507 2.56374823 44.53277588 2.60089111 C39.29782545 2.64085875 34.06298551 2.69198402 28.828125 2.7421875 C18.55216082 2.83908305 8.27613442 2.92344405 -2 3 C-1.34 2.01 -0.68 1.02 0 0 Z " fill="#FC4211" transform="translate(158,262)"/>
<path d="M0 0 C0.33 0 0.66 0 1 0 C1.11638036 3.24969769 1.18730581 6.4988583 1.25 9.75 C1.28351563 10.67039062 1.31703125 11.59078125 1.3515625 12.5390625 C1.45078327 19.38529554 1.45078327 19.38529554 -0.890625 22.578125 C-5.22837174 25.50208762 -9.07750664 25.12727057 -14.1640625 25.09765625 C-15.07127045 25.0962413 -15.97847839 25.09482635 -16.91317749 25.09336853 C-19.81715155 25.08776096 -22.72104915 25.07520718 -25.625 25.0625 C-27.59114472 25.05748598 -29.55729065 25.0529229 -31.5234375 25.04882812 C-36.3489879 25.03778906 -41.17448097 25.02051935 -46 25 C-46.33 24.34 -46.66 23.68 -47 23 C-43.59179832 21.29589916 -39.69343564 21.8202962 -35.94140625 21.7890625 C-34.09309002 21.76099958 -32.24478283 21.73233516 -30.39648438 21.703125 C-27.47550657 21.66180781 -24.55469882 21.62492977 -21.63354492 21.59863281 C-18.81914173 21.57108486 -16.0055129 21.52521959 -13.19140625 21.4765625 C-11.87880577 21.4716832 -11.87880577 21.4716832 -10.53968811 21.46670532 C-9.72551926 21.45013885 -8.9113504 21.43357239 -8.07250977 21.41650391 C-6.99901024 21.40437363 -6.99901024 21.40437363 -5.90382385 21.39199829 C-3.44672269 20.88607992 -2.54385611 19.93941902 -1 18 C-0.5005539 15.98207174 -0.5005539 15.98207174 -0.48828125 13.76953125 C-0.45283203 12.96708984 -0.41738281 12.16464844 -0.38085938 11.33789062 C-0.35830078 10.50451172 -0.33574219 9.67113281 -0.3125 8.8125 C-0.27833984 7.96751953 -0.24417969 7.12253906 -0.20898438 6.25195312 C-0.12658529 4.16843351 -0.06161355 2.08423784 0 0 Z " fill="#FE500D" transform="translate(227,276)"/>
<path d="M0 0 C0.33 0 0.66 0 1 0 C1.37636347 4.49963439 0.14950518 7.35551494 -1.8125 11.375 C-2.36035156 12.52355469 -2.90820312 13.67210937 -3.47265625 14.85546875 C-4.31380208 16.58723958 -5.15494792 18.31901042 -5.99609375 20.05078125 C-9.04355097 26.6667635 -10.88534707 33.83568112 -9 41 C-9.99 41 -10.98 41 -12 41 C-13 40 -13 40 -13.1875 36.93359375 C-12.98833805 32.75534201 -12.19652263 29.04206631 -11 25.0625 C-10.78577393 24.33683838 -10.57154785 23.61117676 -10.35083008 22.86352539 C-7.82946652 14.78871262 -4.02187375 7.41501785 0 0 Z " fill="#1B7FC8" transform="translate(257,222)"/>
<path d="M0 0 C0.33 0 0.66 0 1 0 C1.125 6.625 1.125 6.625 0 10 C1.32 10.33 2.64 10.66 4 11 C-1.572 18.164 -1.572 18.164 -6 20 C-9.3125 19.6875 -9.3125 19.6875 -12 19 C-11.67 18.34 -11.34 17.68 -11 17 C-10.34 17 -9.68 17 -9 17 C-9 16.34 -9 15.68 -9 15 C-8.071875 14.34 -7.14375 13.68 -6.1875 13 C-1.91679913 9.65815133 -1.12934387 5.10186049 0 0 Z " fill="#1C7BBE" transform="translate(201,145)"/>
<path d="M0 0 C0.33 0 0.66 0 1 0 C1.11638036 3.24969769 1.18730581 6.4988583 1.25 9.75 C1.28351563 10.67039062 1.31703125 11.59078125 1.3515625 12.5390625 C1.36445313 13.42851562 1.37734375 14.31796875 1.390625 15.234375 C1.41157227 16.05131836 1.43251953 16.86826172 1.45410156 17.70996094 C1 20 1 20 -0.42578125 22.28710938 C-4.3681698 24.91038309 -7.9595933 24.39054233 -12.578125 24.171875 C-13.5046991 24.14401917 -14.43127319 24.11616333 -15.38592529 24.08746338 C-18.34162769 23.99418837 -21.2953773 23.87246892 -24.25 23.75 C-26.25514528 23.68171632 -28.26035466 23.61528782 -30.265625 23.55078125 C-35.17808596 23.38869524 -40.08898746 23.20109477 -45 23 C-45 22.67 -45 22.34 -45 22 C-43.77369873 21.98541748 -42.54739746 21.97083496 -41.28393555 21.95581055 C-36.73822734 21.89787917 -32.19301719 21.82064619 -27.64770508 21.73754883 C-25.67968829 21.70427514 -23.71157551 21.67625085 -21.7434082 21.65356445 C-18.91576188 21.62006322 -16.08899718 21.56775037 -13.26171875 21.51171875 C-12.38037766 21.50532883 -11.49903656 21.4989389 -10.59098816 21.49235535 C-9.3600518 21.46266411 -9.3600518 21.46266411 -8.10424805 21.43237305 C-7.38254929 21.42126999 -6.66085052 21.41016693 -5.9172821 21.39872742 C-3.45388932 20.88642814 -2.54792461 19.94635755 -1 18 C-0.5005539 15.98207174 -0.5005539 15.98207174 -0.48828125 13.76953125 C-0.45283203 12.96708984 -0.41738281 12.16464844 -0.38085938 11.33789062 C-0.35830078 10.50451172 -0.33574219 9.67113281 -0.3125 8.8125 C-0.27833984 7.96751953 -0.24417969 7.12253906 -0.20898438 6.25195312 C-0.12658529 4.16843351 -0.06161355 2.08423784 0 0 Z " fill="#CD5270" transform="translate(227,276)"/>
<path d="M0 0 C0.33 0 0.66 0 1 0 C1.58714628 4.87147926 -0.41442784 7.89483408 -3 11.8125 C-3.57234375 12.7087207 -3.57234375 12.7087207 -4.15625 13.62304688 C-5.09413859 15.0884978 -6.0457295 16.5451635 -7 18 C-7.66 17.34 -8.32 16.68 -9 16 C-6.03 10.72 -3.06 5.44 0 0 Z " fill="#1B7FC7" transform="translate(267,204)"/>
<path d="M0 0 C0.66 0.66 1.32 1.32 2 2 C3.32 2.66 4.64 3.32 6 4 C1.05 4 -3.9 4 -9 4 C-9 3.34 -9 2.68 -9 2 C-3.375 -1.125 -3.375 -1.125 0 0 Z " fill="#1F7ABD" transform="translate(182,161)"/>
<path d="M0 0 C0.33 0 0.66 0 1 0 C1.11638036 3.24969769 1.18730581 6.4988583 1.25 9.75 C1.30027344 11.13058594 1.30027344 11.13058594 1.3515625 12.5390625 C1.45112665 19.40898911 1.45112665 19.40898911 -1.015625 22.640625 C-1.99789062 23.31351562 -1.99789062 23.31351562 -3 24 C-3.99 23.67 -4.98 23.34 -6 23 C-5.19175781 22.36707031 -4.38351563 21.73414063 -3.55078125 21.08203125 C0.04691462 17.48433538 -0.22196571 13.53950567 -0.1875 8.6875 C-0.16236328 7.85154297 -0.13722656 7.01558594 -0.11132812 6.15429688 C-0.0527301 4.10336591 -0.02343507 2.05163407 0 0 Z " fill="#CC525D" transform="translate(227,276)"/>
<path d="M0 0 C0.66 0.66 1.32 1.32 2 2 C-0.97 5.63 -3.94 9.26 -7 13 C-7.33 12.01 -7.66 11.02 -8 10 C-6.34765625 7.51953125 -6.34765625 7.51953125 -4.0625 4.8125 C-3.31097656 3.91144531 -2.55945313 3.01039062 -1.78515625 2.08203125 C-0.90150391 1.05142578 -0.90150391 1.05142578 0 0 Z " fill="#1B79BD" transform="translate(235,118)"/>
<path d="M0 0 C2 2 2 2 2.1953125 4.6015625 C2.17210937 5.59929687 2.14890625 6.59703125 2.125 7.625 C2.10695312 8.62789063 2.08890625 9.63078125 2.0703125 10.6640625 C2.03550781 11.82035156 2.03550781 11.82035156 2 13 C1.01 13 0.02 13 -1 13 C-1.02686553 11.02090602 -1.04633375 9.04171029 -1.0625 7.0625 C-1.07410156 5.96035156 -1.08570313 4.85820312 -1.09765625 3.72265625 C-1 1 -1 1 0 0 Z " fill="#1E88D0" transform="translate(246,305)"/>
<path d="M0 0 C3.13138355 3.13138355 4.89746937 6.4278637 5.1875 10.875 C5.125625 11.57625 5.06375 12.2775 5 13 C2.01906878 10.4449161 0.47640245 7.61718599 -1 4 C-0.6875 1.625 -0.6875 1.625 0 0 Z " fill="#1C97EB" transform="translate(135,205)"/>
<path d="M0 0 C0.66 0.99 1.32 1.98 2 3 C0.35 5.97 -1.3 8.94 -3 12 C-3.66 11.34 -4.32 10.68 -5 10 C-3.35 6.7 -1.7 3.4 0 0 Z " fill="#1E81C7" transform="translate(274,191)"/>
<path d="M0 0 C0.66 0 1.32 0 2 0 C3.5078125 1.75 3.5078125 1.75 5.125 4 C5.66382813 4.7425 6.20265625 5.485 6.7578125 6.25 C7.16773438 6.8275 7.57765625 7.405 8 8 C7.34 8 6.68 8 6 8 C6 8.66 6 9.32 6 10 C5.34 10 4.68 10 4 10 C2.68 6.7 1.36 3.4 0 0 Z " fill="#0A77C3" transform="translate(278,150)"/>
<path d="M0 0 C4.20626034 1.50223584 5.73900021 4.28550034 8 8 C7.01 8 6.02 8 5 8 C3.61328125 6.50390625 3.61328125 6.50390625 2.3125 4.5625 C1.87550781 3.92441406 1.43851563 3.28632813 0.98828125 2.62890625 C0 1 0 1 0 0 Z " fill="#237FC4" transform="translate(221,208)"/>
<path d="M0 0 C1 3 1 3 -0.1875 6.125 C-2 9 -2 9 -4.1875 9.875 C-5.0846875 9.936875 -5.0846875 9.936875 -6 10 C-4.6302836 6.00499382 -2.74277578 3.19990508 0 0 Z " fill="#CFE2F1" transform="translate(278,180)"/>
<path d="M0 0 C0.66 0.33 1.32 0.66 2 1 C0.62845496 3.95409701 -0.98863724 6.44008376 -3 9 C-3.99 8.67 -4.98 8.34 -6 8 C-4.02 5.36 -2.04 2.72 0 0 Z " fill="#1D7ABE" transform="translate(214,145)"/>
<path d="M0 0 C0.33 0.99 0.66 1.98 1 3 C0.00390625 4.82421875 0.00390625 4.82421875 -1.4375 6.6875 C-1.91058594 7.31011719 -2.38367188 7.93273437 -2.87109375 8.57421875 C-3.24363281 9.04472656 -3.61617188 9.51523437 -4 10 C-4.66 9.34 -5.32 8.68 -6 8 C-4.02 5.36 -2.04 2.72 0 0 Z " fill="#008CE1" transform="translate(348,303)"/>
<path d="M0 0 C0.845625 0.144375 1.69125 0.28875 2.5625 0.4375 C6.03593149 1.0058797 9.51445662 1.51202393 13 2 C13 2.33 13 2.66 13 3 C5.76232202 4.34939759 5.76232202 4.34939759 2 2.625 C1.34 2.08875 0.68 1.5525 0 1 C0 0.67 0 0.34 0 0 Z " fill="#177CC4" transform="translate(229,217)"/>
<path d="M0 0 C0.33 0 0.66 0 1 0 C1.39253254 4.44870215 0.15305957 7.14243493 -2 11 C-2.66 10.01 -3.32 9.02 -4 8 C-2.68 5.36 -1.36 2.72 0 0 Z " fill="#177EC7" transform="translate(257,222)"/>
<path d="M0 0 C0.66 0.33 1.32 0.66 2 1 C2 2.66666667 2 4.33333333 2 6 C0.68 6.33 -0.64 6.66 -2 7 C-2.33 5.68 -2.66 4.36 -3 3 C-2.34 3 -1.68 3 -1 3 C-0.67 2.01 -0.34 1.02 0 0 Z " fill="#1D7EC5" transform="translate(250,209)"/>
<path d="M0 0 C5.61 0.33 11.22 0.66 17 1 C17 1.33 17 1.66 17 2 C5.47835991 2.18451025 5.47835991 2.18451025 0 1 C0 0.67 0 0.34 0 0 Z " fill="#008CE9" transform="translate(173,382)"/>
<path d="M0 0 C0.33 0 0.66 0 1 0 C1.18451025 11.52164009 1.18451025 11.52164009 0 17 C-0.33 17 -0.66 17 -1 17 C-0.67 11.39 -0.34 5.78 0 0 Z " fill="#008CE9" transform="translate(383,210)"/>
<path d="M0 0 C0.33 0 0.66 0 1 0 C1.33 5.61 1.66 11.22 2 17 C1.67 17 1.34 17 1 17 C-0.22517308 11.33357449 -0.09228867 5.76291482 0 0 Z " fill="#0093F0" transform="translate(16,210)"/>
<path d="M0 0 C0.33 0 0.66 0 1 0 C0.67 5.61 0.34 11.22 0 17 C-0.33 17 -0.66 17 -1 17 C-1.18451025 5.47835991 -1.18451025 5.47835991 0 0 Z " fill="#0093DB" transform="translate(17,173)"/>
<path d="M0 0 C0.33 0 0.66 0 1 0 C2.22517308 5.66642551 2.09228867 11.23708518 2 17 C1.67 17 1.34 17 1 17 C0.67 11.39 0.34 5.78 0 0 Z " fill="#008CE9" transform="translate(382,173)"/>
<path d="M0 0 C0 0.33 0 0.66 0 1 C-8.415 1.495 -8.415 1.495 -17 2 C-17 1.67 -17 1.34 -17 1 C-11.33357449 -0.22517308 -5.76291482 -0.09228867 0 0 Z " fill="#0093F0" transform="translate(190,16)"/>
<path d="M0 0 C11.52164009 -0.18451025 11.52164009 -0.18451025 17 1 C17 1.33 17 1.66 17 2 C11.39 1.67 5.78 1.34 0 1 C0 0.67 0 0.34 0 0 Z " fill="#0093F0" transform="translate(210,16)"/>
<path d="M0 0 C0 0.33 0 0.66 0 1 C-5.36095333 2.12862175 -10.55306686 2.09688221 -16 2 C-16 1.67 -16 1.34 -16 1 C-10.62915894 0.31798844 -5.41499441 -0.11521265 0 0 Z " fill="#0093E0" transform="translate(227,382)"/>
<path d="M0 0 C2.15377564 2.62198774 3.40072174 4.64404172 4 8 C3.01 8.495 3.01 8.495 2 9 C0.14223235 5.86501708 -0.20140476 3.62528568 0 0 Z " fill="#259AEB" transform="translate(124,183)"/>
<path d="M0 0 C0.66 0.66 1.32 1.32 2 2 C0.68 3.65 -0.64 5.3 -2 7 C-2.99 6.67 -3.98 6.34 -5 6 C-3.35 4.02 -1.7 2.04 0 0 Z " fill="#1E7BBF" transform="translate(200,164)"/>
<path d="M0 0 C-1.8125 1.0625 -1.8125 1.0625 -4 2 C-4.99 1.67 -5.98 1.34 -7 1 C-3.375 -1.125 -3.375 -1.125 0 0 Z " fill="#0055AE" transform="translate(270,371)"/>
<path d="M0 0 C4.75 0.75 4.75 0.75 7 3 C2.25 2.25 2.25 2.25 0 0 Z " fill="#0050C1" transform="translate(263,27)"/>
<path d="M0 0 C2.31 0.33 4.62 0.66 7 1 C5.1875 1.625 5.1875 1.625 3 2 C2.01 1.34 1.02 0.68 0 0 Z " fill="#0085E7" transform="translate(154,378)"/>
<path d="M0 0 C3.875 1.75 3.875 1.75 5 4 C1.125 2.25 1.125 2.25 0 0 Z " fill="#0084FF" transform="translate(73,333)"/>
<path d="M0 0 C1.32 0.99 2.64 1.98 4 3 C3.67 3.66 3.34 4.32 3 5 C1.5 3.625 1.5 3.625 0 2 C0 1.34 0 0.68 0 0 Z " fill="#0084FF" transform="translate(63,322)"/>
<path d="M0 0 C0.66 0.33 1.32 0.66 2 1 C1.01 1.99 0.02 2.98 -1 4 C-1.66 3.67 -2.32 3.34 -3 3 C-2.01 2.01 -1.02 1.02 0 0 Z " fill="#0084D4" transform="translate(76,63)"/>
<path d="M0 0 C2.31 0 4.62 0 7 0 C7 0.33 7 0.66 7 1 C4.69 1 2.38 1 0 1 C0 0.67 0 0.34 0 0 Z " fill="#0091DA" transform="translate(161,380)"/>
<path d="M0 0 C0.33 0 0.66 0 1 0 C1 2.31 1 4.62 1 7 C0.67 7 0.34 7 0 7 C0 4.69 0 2.38 0 0 Z " fill="#0091FF" transform="translate(380,232)"/>
<path d="M0 0 C0.33 0 0.66 0 1 0 C1 2.31 1 4.62 1 7 C0.67 7 0.34 7 0 7 C0 4.69 0 2.38 0 0 Z " fill="#0091DA" transform="translate(380,161)"/>
<path d="M0 0 C2.31 0 4.62 0 7 0 C7 0.33 7 0.66 7 1 C4.69 1 2.38 1 0 1 C0 0.67 0 0.34 0 0 Z " fill="#0091DA" transform="translate(161,19)"/>
<path d="M0 0 C1.98 0 3.96 0 6 0 C6 0.33 6 0.66 6 1 C4.02 1 2.04 1 0 1 C0 0.67 0 0.34 0 0 Z " fill="#007FFF" transform="translate(233,380)"/>
<path d="M0 0 C2.475 0.495 2.475 0.495 5 1 C4.01 1.33 3.02 1.66 2 2 C1.34 1.34 0.68 0.68 0 0 Z " fill="#0098FF" transform="translate(141,374)"/>
<path d="M0 0 C0.66 0.33 1.32 0.66 2 1 C0.02 1.99 0.02 1.99 -2 3 C-1.34 2.01 -0.68 1.02 0 0 Z " fill="#009BF0" transform="translate(324,334)"/>
<path d="M0 0 C0 0.99 0 1.98 0 3 C-0.99 3.495 -0.99 3.495 -2 4 C-1.34 2.68 -0.68 1.36 0 0 Z " fill="#005CDB" transform="translate(336,322)"/>
<path d="M0 0 C0.33 0.99 0.66 1.98 1 3 C0.34 3.66 -0.32 4.32 -1 5 C-0.67 3.35 -0.34 1.7 0 0 Z " fill="#006394" transform="translate(371,265)"/>
<path d="M0 0 C0.66 0.66 1.32 1.32 2 2 C1.67 2.99 1.34 3.98 1 5 C0.67 3.35 0.34 1.7 0 0 Z " fill="#0063AA" transform="translate(28,265)"/>
<path d="M0 0 C0.33 0 0.66 0 1 0 C1 1.98 1 3.96 1 6 C0.67 6 0.34 6 0 6 C0 4.02 0 2.04 0 0 Z " fill="#00AAFF" transform="translate(19,233)"/>
<path d="M0 0 C0.33 0 0.66 0 1 0 C1 1.98 1 3.96 1 6 C0.67 6 0.34 6 0 6 C0 4.02 0 2.04 0 0 Z " fill="#00AAFF" transform="translate(19,161)"/>
<path d="M0 0 C0.33 0.99 0.66 1.98 1 3 C0.34 3.66 -0.32 4.32 -1 5 C-0.67 3.35 -0.34 1.7 0 0 Z " fill="#0063D4" transform="translate(29,130)"/>
<path d="M0 0 C0.66 0.66 1.32 1.32 2 2 C1.67 2.99 1.34 3.98 1 5 C0.67 3.35 0.34 1.7 0 0 Z " fill="#0063AA" transform="translate(370,130)"/>
<path d="M0 0 C0 0.99 0 1.98 0 3 C-0.99 3.495 -0.99 3.495 -2 4 C-1.34 2.68 -0.68 1.36 0 0 Z " fill="#0086F0" transform="translate(65,74)"/>
<path d="M0 0 C1.485 0.99 1.485 0.99 3 2 C2.67 2.66 2.34 3.32 2 4 C1.34 2.68 0.68 1.36 0 0 Z " fill="#0071FF" transform="translate(334,74)"/>
<path d="M0 0 C1.98 0.99 1.98 0.99 4 2 C3.01 2 2.02 2 1 2 C0.67 1.34 0.34 0.68 0 0 Z " fill="#005CFF" transform="translate(322,63)"/>
<path d="M0 0 C0.99 0.33 1.98 0.66 3 1 C1.35 1.33 -0.3 1.66 -2 2 C-1.34 1.34 -0.68 0.68 0 0 Z " fill="#0091F4" transform="translate(143,24)"/>
<path d="M0 0 C1.98 0 3.96 0 6 0 C6 0.33 6 0.66 6 1 C4.02 1 2.04 1 0 1 C0 0.67 0 0.34 0 0 Z " fill="#00AAFF" transform="translate(233,19)"/>
<path d="M0 0 C1.65 0 3.3 0 5 0 C5 0.33 5 0.66 5 1 C3.35 1 1.7 1 0 1 C0 0.67 0 0.34 0 0 Z " fill="#009ED7" transform="translate(227,381)"/>
<path d="M0 0 C1.65 0 3.3 0 5 0 C5 0.33 5 0.66 5 1 C3.35 1 1.7 1 0 1 C0 0.67 0 0.34 0 0 Z " fill="#0073E8" transform="translate(168,381)"/>
<path d="M0 0 C0.33 0 0.66 0 1 0 C1 1.65 1 3.3 1 5 C0.67 5 0.34 5 0 5 C0 3.35 0 1.7 0 0 Z " fill="#00A6E8" transform="translate(381,227)"/>
<path d="M0 0 C0.33 0 0.66 0 1 0 C1 1.65 1 3.3 1 5 C0.67 5 0.34 5 0 5 C0 3.35 0 1.7 0 0 Z " fill="#00AFF4" transform="translate(18,227)"/>
<path d="M0 0 C0.33 0 0.66 0 1 0 C1 1.65 1 3.3 1 5 C0.67 5 0.34 5 0 5 C0 3.35 0 1.7 0 0 Z " fill="#00A6E8" transform="translate(18,168)"/>
<path d="M0 0 C0.33 0 0.66 0 1 0 C1 1.65 1 3.3 1 5 C0.67 5 0.34 5 0 5 C0 3.35 0 1.7 0 0 Z " fill="#00A6E8" transform="translate(381,168)"/>
<path d="M0 0 C1.65 0 3.3 0 5 0 C5 0.33 5 0.66 5 1 C3.35 1 1.7 1 0 1 C0 0.67 0 0.34 0 0 Z " fill="#00A6F2" transform="translate(227,18)"/>
<path d="M0 0 C1.65 0 3.3 0 5 0 C5 0.33 5 0.66 5 1 C3.35 1 1.7 1 0 1 C0 0.67 0 0.34 0 0 Z " fill="#007CF4" transform="translate(168,18)"/>
<path d="M0 0 C4 1 4 1 4 1 Z " fill="#0095D9" transform="translate(239,379)"/>
<path d="M0 0 C4 1 4 1 4 1 Z " fill="#007FFF" transform="translate(259,373)"/>
<path d="M0 0 C4 1 4 1 4 1 Z " fill="#00BFFF" transform="translate(137,373)"/>
<path d="M0 0 C0.99 0.33 1.98 0.66 3 1 C2.01 1 1.02 1 0 1 C0 0.67 0 0.34 0 0 Z " fill="#0060DF" transform="translate(103,356)"/>
<path d="M0 0 C0.66 0.33 1.32 0.66 2 1 C1.01 1 0.02 1 -1 1 C-0.67 0.67 -0.34 0.34 0 0 Z " fill="#004AFF" transform="translate(311,345)"/>
<path d="M0 0 C0.99 0.33 1.98 0.66 3 1 C2.01 1 1.02 1 0 1 C0 0.67 0 0.34 0 0 Z " fill="#004AD9" transform="translate(87,345)"/>
<path d="M0 0 C0 3 0 3 0 3 Z " fill="#0040EF" transform="translate(346,310)"/>
<path d="M0 0 C0.99 0.495 0.99 0.495 2 1 C1.67 1.66 1.34 2.32 1 3 C0.67 2.01 0.34 1.02 0 0 Z " fill="#004AFF" transform="translate(53,310)"/>
<path d="M0 0 C0 3 0 3 0 3 Z " fill="#007FEF" transform="translate(357,294)"/>
<path d="M0 0 C0.99 0.495 0.99 0.495 2 1 C1.67 1.66 1.34 2.32 1 3 C0.67 2.01 0.34 1.02 0 0 Z " fill="#007FEF" transform="translate(42,294)"/>
<path d="M0 0 C1 4 1 4 1 4 Z " fill="#007FFF" transform="translate(373,259)"/>
<path d="M0 0 C1 4 1 4 1 4 Z " fill="#00BFFF" transform="translate(26,259)"/>
<path d="M0 0 C1 4 1 4 1 4 Z " fill="#009FEF" transform="translate(379,239)"/>
<path d="M0 0 C1 4 1 4 1 4 Z " fill="#009FEF" transform="translate(20,239)"/>
<path d="M0 0 C1 4 1 4 1 4 Z " fill="#009FEF" transform="translate(379,157)"/>
<path d="M0 0 C1 4 1 4 1 4 Z " fill="#009FEF" transform="translate(20,157)"/>
<path d="M0 0 C1 4 1 4 1 4 Z " fill="#00BFFF" transform="translate(373,137)"/>
<path d="M0 0 C1 4 1 4 1 4 Z " fill="#00BFFF" transform="translate(26,137)"/>
<path d="M0 0 C0.99 0.495 0.99 0.495 2 1 C1.67 1.66 1.34 2.32 1 3 C0.67 2.01 0.34 1.02 0 0 Z " fill="#007FFF" transform="translate(356,103)"/>
<path d="M0 0 C0 3 0 3 0 3 Z " fill="#0040FF" transform="translate(43,103)"/>
<path d="M0 0 C0.99 0.495 0.99 0.495 2 1 C1.67 1.66 1.34 2.32 1 3 C0.67 2.01 0.34 1.02 0 0 Z " fill="#0040EF" transform="translate(345,87)"/>
<path d="M0 0 C0 3 0 3 0 3 Z " fill="#004AFF" transform="translate(54,87)"/>
<path d="M0 0 C0.66 0.33 1.32 0.66 2 1 C1.01 1 0.02 1 -1 1 C-0.67 0.67 -0.34 0.34 0 0 Z " fill="#0040EF" transform="translate(88,53)"/>
<path d="M0 0 C0.99 0.33 1.98 0.66 3 1 C2.01 1 1.02 1 0 1 C0 0.67 0 0.34 0 0 Z " fill="#004AFF" transform="translate(310,53)"/>
<path d="M0 0 C0.66 0.33 1.32 0.66 2 1 C1.01 1 0.02 1 -1 1 C-0.67 0.67 -0.34 0.34 0 0 Z " fill="#0040EF" transform="translate(104,42)"/>
<path d="M0 0 C0.99 0.33 1.98 0.66 3 1 C2.01 1 1.02 1 0 1 C0 0.67 0 0.34 0 0 Z " fill="#0040FF" transform="translate(294,42)"/>
<path d="M0 0 C4 1 4 1 4 1 Z " fill="#00BFFF" transform="translate(259,26)"/>
<path d="M0 0 C4 1 4 1 4 1 Z " fill="#00BFFF" transform="translate(137,26)"/>
<path d="M0 0 C4 1 4 1 4 1 Z " fill="#009FFF" transform="translate(239,20)"/>
<path d="M0 0 C4 1 4 1 4 1 Z " fill="#00AAD9" transform="translate(157,20)"/>
<path d="M0 0 C3 1 3 1 3 1 Z " fill="#0088EE" transform="translate(243,378)"/>
<path d="M0 0 C3 1 3 1 3 1 Z " fill="#00B8E2" transform="translate(246,377)"/>
<path d="M0 0 C3 1 3 1 3 1 Z " fill="#00B8E2" transform="translate(151,377)"/>
<path d="M0 0 C3 1 3 1 3 1 Z " fill="#00D4FF" transform="translate(251,376)"/>
<path d="M0 0 C3 1 3 1 3 1 Z " fill="#00AAFF" transform="translate(146,376)"/>
<path d="M0 0 C3 1 3 1 3 1 Z " fill="#00B8E9" transform="translate(254,375)"/>
<path d="" fill="#00B8E9" transform="translate(0,0)"/>
<path d="" fill="#00B8E9" transform="translate(0,0)"/>
<path d="" fill="#00D4FF" transform="translate(0,0)"/>
<path d="" fill="#00D4FF" transform="translate(0,0)"/>
<path d="" fill="#00B8FF" transform="translate(0,0)"/>
<path d="" fill="#00B8FF" transform="translate(0,0)"/>
<path d="" fill="#0088FF" transform="translate(0,0)"/>
<path d="" fill="#0088FF" transform="translate(0,0)"/>
<path d="" fill="#0088FF" transform="translate(0,0)"/>
<path d="" fill="#0088FF" transform="translate(0,0)"/>
<path d="" fill="#00B8FF" transform="translate(0,0)"/>
<path d="" fill="#00B8FF" transform="translate(0,0)"/>
<path d="" fill="#00AAD4" transform="translate(0,0)"/>
<path d="" fill="#00D4FF" transform="translate(0,0)"/>
<path d="" fill="#00B8FF" transform="translate(0,0)"/>
<path d="M0 0 C3 1 3 1 3 1 Z " fill="#00638D" transform="translate(130,29)"/>
<path d="M0 0 C3 1 3 1 3 1 Z " fill="#00B8FF" transform="translate(254,24)"/>
<path d="M0 0 C3 1 3 1 3 1 Z " fill="#00D4FF" transform="translate(251,23)"/>
<path d="M0 0 C3 1 3 1 3 1 Z " fill="#00AAFF" transform="translate(146,23)"/>
<path d="M0 0 C3 1 3 1 3 1 Z " fill="#00B8FF" transform="translate(246,22)"/>
<path d="M0 0 C3 1 3 1 3 1 Z " fill="#00B8FF" transform="translate(151,22)"/>
<path d="M0 0 C3 1 3 1 3 1 Z " fill="#0088EE" transform="translate(243,21)"/>
<path d="M0 0 C3 1 3 1 3 1 Z " fill="#0088FF" transform="translate(154,21)"/>
<path d="M0 0 C2 1 2 1 2 1 Z " fill="#008CE5" transform="translate(257,374)"/>
<path d="M0 0 C2 1 2 1 2 1 Z " fill="#0080FF" transform="translate(135,372)"/>
<path d="M0 0 C2 1 2 1 2 1 Z " fill="#0080DF" transform="translate(133,371)"/>
<path d="M0 0 C2 1 2 1 2 1 Z " fill="#0095D4" transform="translate(131,370)"/>
<path d="M0 0 C2 1 2 1 2 1 Z " fill="#00BFBF" transform="translate(271,369)"/>
<path d="M0 0 C2 1 2 1 2 1 Z " fill="#0040BF" transform="translate(127,369)"/>
<path d="M0 0 C2 1 2 1 2 1 Z " fill="#00809F" transform="translate(273,368)"/>
<path d="M0 0 C2 1 2 1 2 1 Z " fill="#00BFFF" transform="translate(125,368)"/>
<path d="M0 0 C2 1 2 1 2 1 Z " fill="#00CCE5" transform="translate(275,367)"/>
<path d="M0 0 C2 1 2 1 2 1 Z " fill="#004CE5" transform="translate(123,367)"/>
<path d="M0 0 C2 1 2 1 2 1 Z " fill="#00407F" transform="translate(277,366)"/>
<path d="M0 0 C2 1 2 1 2 1 Z " fill="#00407F" transform="translate(121,366)"/>
<path d="M0 0 C2 1 2 1 2 1 Z " fill="#002A55" transform="translate(279,365)"/>
<path d="M0 0 C2 1 2 1 2 1 Z " fill="#0040FF" transform="translate(119,365)"/>
<path d="M0 0 C2 1 2 1 2 1 Z " fill="#007FD4" transform="translate(281,364)"/>
<path d="M0 0 C2 1 2 1 2 1 Z " fill="#0080FF" transform="translate(117,364)"/>
<path d="M0 0 C2 1 2 1 2 1 Z " fill="#003366" transform="translate(283,363)"/>
<path d="M0 0 C2 1 2 1 2 1 Z " fill="#00FFFF" transform="translate(285,362)"/>
<path d="M0 0 C2 1 2 1 2 1 Z " fill="#00FFFF" transform="translate(113,362)"/>
<path d="M0 0 C2 1 2 1 2 1 Z " fill="#006A95" transform="translate(287,361)"/>
<path d="M0 0 C2 1 2 1 2 1 Z " fill="#009595" transform="translate(111,361)"/>
<path d="M0 0 C2 1 2 1 2 1 Z " fill="#00AAD4" transform="translate(290,359)"/>
<path d="M0 0 C2 1 2 1 2 1 Z " fill="#0055FF" transform="translate(108,359)"/>
<path d="M0 0 C2 1 2 1 2 1 Z " fill="#00BFFF" transform="translate(292,358)"/>
<path d="M0 0 C2 1 2 1 2 1 Z " fill="#00BFFF" transform="translate(106,358)"/>
<path d="M0 0 C2 1 2 1 2 1 Z " fill="#00BFDF" transform="translate(294,357)"/>
<path d="M0 0 C2 1 2 1 2 1 Z " fill="#002AD4" transform="translate(297,355)"/>
<path d="M0 0 C2 1 2 1 2 1 Z " fill="#0040FF" transform="translate(101,355)"/>
<path d="M0 0 C2 1 2 1 2 1 Z " fill="#00809F" transform="translate(300,353)"/>
<path d="M0 0 C2 1 2 1 2 1 Z " fill="#00BFDF" transform="translate(98,353)"/>
<path d="M0 0 C2 1 2 1 2 1 Z " fill="#00AAD4" transform="translate(303,351)"/>
<path d="M0 0 C2 1 2 1 2 1 Z " fill="#00AAD4" transform="translate(95,351)"/>
<path d="M0 0 C2 1 2 1 2 1 Z " fill="#00BFFF" transform="translate(307,348)"/>
<path d="M0 0 C2 1 2 1 2 1 Z " fill="#00BFFF" transform="translate(91,348)"/>
<path d="M0 0 C2 1 2 1 2 1 Z " fill="#007FFF" transform="translate(316,341)"/>
<path d="M0 0 C2 1 2 1 2 1 Z " fill="#007FFF" transform="translate(82,341)"/>
<path d="" fill="#0000FF" transform="translate(0,0)"/>
<path d="" fill="#007FFF" transform="translate(0,0)"/>
<path d="" fill="#00BFFF" transform="translate(0,0)"/>
<path d="" fill="#00BFFF" transform="translate(0,0)"/>
<path d="" fill="#00AAD4" transform="translate(0,0)"/>
<path d="" fill="#00AAD4" transform="translate(0,0)"/>
<path d="" fill="#00BFDF" transform="translate(0,0)"/>
<path d="" fill="#00BFFF" transform="translate(0,0)"/>
<path d="" fill="#002AD4" transform="translate(0,0)"/>
<path d="" fill="#0040FF" transform="translate(0,0)"/>
<path d="" fill="#00BFFF" transform="translate(0,0)"/>
<path d="" fill="#00BFFF" transform="translate(0,0)"/>
<path d="" fill="#002AD4" transform="translate(0,0)"/>
<path d="" fill="#00D4FF" transform="translate(0,0)"/>
<path d="" fill="#006A95" transform="translate(0,0)"/>
<path d="" fill="#009595" transform="translate(0,0)"/>
<path d="" fill="#00FFFF" transform="translate(0,0)"/>
<path d="" fill="#00FFFF" transform="translate(0,0)"/>
<path d="" fill="#004C66" transform="translate(0,0)"/>
<path d="" fill="#0080DF" transform="translate(0,0)"/>
<path d="" fill="#006AD4" transform="translate(0,0)"/>
<path d="" fill="#00407F" transform="translate(0,0)"/>
<path d="" fill="#0040FF" transform="translate(0,0)"/>
<path d="" fill="#0033E5" transform="translate(0,0)"/>
<path d="" fill="#004CE5" transform="translate(0,0)"/>
<path d="" fill="#00BFDF" transform="translate(0,0)"/>
<path d="" fill="#00BFFF" transform="translate(0,0)"/>
<path d="" fill="#0040BF" transform="translate(0,0)"/>
<path d="" fill="#00BFBF" transform="translate(0,0)"/>
<path d="" fill="#0080FF" transform="translate(0,0)"/>
<path d="" fill="#0080FF" transform="translate(0,0)"/>
<path d="" fill="#0073E5" transform="translate(0,0)"/>
<path d="" fill="#008CE5" transform="translate(0,0)"/>
<path d="" fill="#008CE5" transform="translate(0,0)"/>
<path d="" fill="#0080FF" transform="translate(0,0)"/>
<path d="" fill="#0080FF" transform="translate(0,0)"/>
<path d="" fill="#00BFBF" transform="translate(0,0)"/>
<path d="" fill="#00BFBF" transform="translate(0,0)"/>
<path d="" fill="#00BFFF" transform="translate(0,0)"/>
<path d="" fill="#00BFFF" transform="translate(0,0)"/>
<path d="" fill="#004CE5" transform="translate(0,0)"/>
<path d="" fill="#00CCE5" transform="translate(0,0)"/>
<path d="" fill="#00407F" transform="translate(0,0)"/>
<path d="" fill="#0040FF" transform="translate(0,0)"/>
<path d="" fill="#0040FF" transform="translate(0,0)"/>
<path d="" fill="#0080FF" transform="translate(0,0)"/>
<path d="" fill="#006AB4" transform="translate(0,0)"/>
<path d="" fill="#005F7F" transform="translate(0,0)"/>
<path d="" fill="#004C66" transform="translate(0,0)"/>
<path d="" fill="#00FFFF" transform="translate(0,0)"/>
<path d="" fill="#00FFFF" transform="translate(0,0)"/>
<path d="" fill="#0095FF" transform="translate(0,0)"/>
<path d="" fill="#006AD4" transform="translate(0,0)"/>
<path d="" fill="#00D4D4" transform="translate(0,0)"/>
<path d="" fill="#00AAD4" transform="translate(0,0)"/>
<path d="" fill="#00BFFF" transform="translate(0,0)"/>
<path d="" fill="#00BFFF" transform="translate(0,0)"/>
<path d="" fill="#0040FF" transform="translate(0,0)"/>
<path d="" fill="#002AD4" transform="translate(0,0)"/>
<path d="" fill="#00BFDF" transform="translate(0,0)"/>
<path d="" fill="#00809F" transform="translate(0,0)"/>
<path d="" fill="#00BFFF" transform="translate(0,0)"/>
<path d="" fill="#00AAD4" transform="translate(0,0)"/>
<path d="" fill="#00BFFF" transform="translate(0,0)"/>
<path d="" fill="#00BFFF" transform="translate(0,0)"/>
<path d="" fill="#007FFF" transform="translate(0,0)"/>
<path d="" fill="#007FFF" transform="translate(0,0)"/>
<path d="M0 0 C2 1 2 1 2 1 Z " fill="#007FFF" transform="translate(316,58)"/>
<path d="M0 0 C2 1 2 1 2 1 Z " fill="#007FFF" transform="translate(82,58)"/>
<path d="M0 0 C2 1 2 1 2 1 Z " fill="#00BFFF" transform="translate(307,51)"/>
<path d="M0 0 C2 1 2 1 2 1 Z " fill="#00BFFF" transform="translate(91,51)"/>
<path d="M0 0 C2 1 2 1 2 1 Z " fill="#00AAD4" transform="translate(303,48)"/>
<path d="M0 0 C2 1 2 1 2 1 Z " fill="#00AAD4" transform="translate(95,48)"/>
<path d="M0 0 C2 1 2 1 2 1 Z " fill="#0095BF" transform="translate(300,46)"/>
<path d="M0 0 C2 1 2 1 2 1 Z " fill="#00BFDF" transform="translate(98,46)"/>
<path d="M0 0 C2 1 2 1 2 1 Z " fill="#002AD4" transform="translate(297,44)"/>
<path d="M0 0 C2 1 2 1 2 1 Z " fill="#0040FF" transform="translate(101,44)"/>
<path d="M0 0 C2 1 2 1 2 1 Z " fill="#0040FF" transform="translate(292,41)"/>
<path d="M0 0 C2 1 2 1 2 1 Z " fill="#00BFFF" transform="translate(106,41)"/>
<path d="M0 0 C2 1 2 1 2 1 Z " fill="#00AAD4" transform="translate(290,40)"/>
<path d="M0 0 C2 1 2 1 2 1 Z " fill="#00D4FF" transform="translate(108,40)"/>
<path d="M0 0 C2 1 2 1 2 1 Z " fill="#0095FF" transform="translate(287,38)"/>
<path d="M0 0 C2 1 2 1 2 1 Z " fill="#006A95" transform="translate(111,38)"/>
<path d="M0 0 C2 1 2 1 2 1 Z " fill="#00FFFF" transform="translate(285,37)"/>
<path d="M0 0 C2 1 2 1 2 1 Z " fill="#00FFFF" transform="translate(113,37)"/>
<path d="M0 0 C2 1 2 1 2 1 Z " fill="#004CE5" transform="translate(283,36)"/>
<path d="M0 0 C2 1 2 1 2 1 Z " fill="#0095DF" transform="translate(281,35)"/>
<path d="M0 0 C2 1 2 1 2 1 Z " fill="#0080FF" transform="translate(117,35)"/>
<path d="M0 0 C2 1 2 1 2 1 Z " fill="#00407F" transform="translate(279,34)"/>
<path d="M0 0 C2 1 2 1 2 1 Z " fill="#00407F" transform="translate(277,33)"/>
<path d="M0 0 C2 1 2 1 2 1 Z " fill="#00407F" transform="translate(121,33)"/>
<path d="M0 0 C2 1 2 1 2 1 Z " fill="#00CCFF" transform="translate(275,32)"/>
<path d="M0 0 C2 1 2 1 2 1 Z " fill="#004CE5" transform="translate(123,32)"/>
<path d="M0 0 C2 1 2 1 2 1 Z " fill="#0080BF" transform="translate(273,31)"/>
<path d="M0 0 C2 1 2 1 2 1 Z " fill="#00BFFF" transform="translate(125,31)"/>
<path d="M0 0 C2 1 2 1 2 1 Z " fill="#00BFBF" transform="translate(271,30)"/>
<path d="M0 0 C2 1 2 1 2 1 Z " fill="#00BFBF" transform="translate(127,30)"/>
<path d="M0 0 C2 1 2 1 2 1 Z " fill="#0080DF" transform="translate(133,28)"/>
<path d="M0 0 C2 1 2 1 2 1 Z " fill="#0080FF" transform="translate(135,27)"/>
<path d="M0 0 C2 1 2 1 2 1 Z " fill="#008CE5" transform="translate(257,25)"/>
<path d="" fill="#0080FF" transform="translate(0,0)"/>
<path d="" fill="#0080FF" transform="translate(0,0)"/>
<path d="" fill="#0080FF" transform="translate(0,0)"/>
<path d="" fill="#0080FF" transform="translate(0,0)"/>
<path d="" fill="#00AAAA" transform="translate(0,0)"/>
<path d="" fill="#00AAFF" transform="translate(0,0)"/>
<path d="" fill="#0080FF" transform="translate(0,0)"/>
<path d="" fill="#0080FF" transform="translate(0,0)"/>
<path d="" fill="#00AAFF" transform="translate(0,0)"/>
<path d="" fill="#00AAFF" transform="translate(0,0)"/>
<path d="" fill="#0080FF" transform="translate(0,0)"/>
<path d="" fill="#0080FF" transform="translate(0,0)"/>
<path d="" fill="#0055AA" transform="translate(0,0)"/>
<path d="" fill="#0080FF" transform="translate(0,0)"/>
<path d="" fill="#008080" transform="translate(0,0)"/>
<path d="" fill="#00FFFF" transform="translate(0,0)"/>
<path d="" fill="#0080BF" transform="translate(0,0)"/>
<path d="" fill="#0080BF" transform="translate(0,0)"/>
<path d="" fill="#0080BF" transform="translate(0,0)"/>
<path d="" fill="#0080FF" transform="translate(0,0)"/>
<path d="" fill="#0080FF" transform="translate(0,0)"/>
<path d="" fill="#0080FF" transform="translate(0,0)"/>
<path d="" fill="#0080BF" transform="translate(0,0)"/>
<path d="" fill="#0080BF" transform="translate(0,0)"/>
<path d="" fill="#0080BF" transform="translate(0,0)"/>
<path d="" fill="#0080BF" transform="translate(0,0)"/>
<path d="" fill="#0080BF" transform="translate(0,0)"/>
<path d="" fill="#0080BF" transform="translate(0,0)"/>
<path d="" fill="#008080" transform="translate(0,0)"/>
<path d="" fill="#0080FF" transform="translate(0,0)"/>
<path d="" fill="#0080FF" transform="translate(0,0)"/>
<path d="" fill="#0080FF" transform="translate(0,0)"/>
<path d="" fill="#0080FF" transform="translate(0,0)"/>
<path d="" fill="#0080FF" transform="translate(0,0)"/>
<path d="" fill="#0080FF" transform="translate(0,0)"/>
<path d="" fill="#0080FF" transform="translate(0,0)"/>
<path d="" fill="#0080FF" transform="translate(0,0)"/>
<path d="" fill="#0080FF" transform="translate(0,0)"/>
<path d="" fill="#0080FF" transform="translate(0,0)"/>
<path d="" fill="#0080FF" transform="translate(0,0)"/>
<path d="" fill="#0080FF" transform="translate(0,0)"/>
<path d="" fill="#008080" transform="translate(0,0)"/>
<path d="" fill="#0080BF" transform="translate(0,0)"/>
<path d="" fill="#0080BF" transform="translate(0,0)"/>
<path d="" fill="#0080BF" transform="translate(0,0)"/>
<path d="" fill="#0080BF" transform="translate(0,0)"/>
<path d="" fill="#0080BF" transform="translate(0,0)"/>
<path d="" fill="#0080BF" transform="translate(0,0)"/>
<path d="" fill="#0080FF" transform="translate(0,0)"/>
<path d="" fill="#0080FF" transform="translate(0,0)"/>
<path d="" fill="#0080BF" transform="translate(0,0)"/>
<path d="" fill="#0080FF" transform="translate(0,0)"/>
<path d="" fill="#0080BF" transform="translate(0,0)"/>
<path d="" fill="#0080BF" transform="translate(0,0)"/>
<path d="" fill="#008080" transform="translate(0,0)"/>
<path d="" fill="#008080" transform="translate(0,0)"/>
<path d="" fill="#0080FF" transform="translate(0,0)"/>
<path d="" fill="#0080FF" transform="translate(0,0)"/>
<path d="" fill="#0080FF" transform="translate(0,0)"/>
<path d="" fill="#00BFFF" transform="translate(0,0)"/>
<path d="" fill="#00AAFF" transform="translate(0,0)"/>
<path d="" fill="#00AAFF" transform="translate(0,0)"/>
<path d="" fill="#0080FF" transform="translate(0,0)"/>
<path d="" fill="#0080FF" transform="translate(0,0)"/>
<path d="" fill="#00AAAA" transform="translate(0,0)"/>
<path d="" fill="#00AAFF" transform="translate(0,0)"/>
<path d="" fill="#0080FF" transform="translate(0,0)"/>
<path d="" fill="#0080FF" transform="translate(0,0)"/>
<path d="" fill="#0066CC" transform="translate(0,0)"/>
<path d="" fill="#0080FF" transform="translate(0,0)"/>
<path d="" fill="#0080FF" transform="translate(0,0)"/>
<path d="" fill="#0080FF" transform="translate(0,0)"/>
<path d="" fill="#0080FF" transform="translate(0,0)"/>
<path d="" fill="#0080FF" transform="translate(0,0)"/>
<path d="" fill="#00AAFF" transform="translate(0,0)"/>
<path d="" fill="#00AAFF" transform="translate(0,0)"/>
<path d="" fill="#0080FF" transform="translate(0,0)"/>
<path d="" fill="#0080FF" transform="translate(0,0)"/>
<path d="" fill="#00AAFF" transform="translate(0,0)"/>
<path d="" fill="#00AAFF" transform="translate(0,0)"/>
<path d="" fill="#0080FF" transform="translate(0,0)"/>
<path d="" fill="#0080FF" transform="translate(0,0)"/>
<path d="" fill="#0080FF" transform="translate(0,0)"/>
<path d="" fill="#0080FF" transform="translate(0,0)"/>
<path d="" fill="#008080" transform="translate(0,0)"/>
<path d="" fill="#008080" transform="translate(0,0)"/>
<path d="" fill="#0080BF" transform="translate(0,0)"/>
<path d="" fill="#0080BF" transform="translate(0,0)"/>
<path d="" fill="#0080BF" transform="translate(0,0)"/>
<path d="" fill="#0080FF" transform="translate(0,0)"/>
<path d="" fill="#0080FF" transform="translate(0,0)"/>
<path d="" fill="#0080FF" transform="translate(0,0)"/>
<path d="" fill="#0080BF" transform="translate(0,0)"/>
<path d="" fill="#0080BF" transform="translate(0,0)"/>
<path d="" fill="#0080BF" transform="translate(0,0)"/>
<path d="" fill="#0080BF" transform="translate(0,0)"/>
<path d="" fill="#0080BF" transform="translate(0,0)"/>
<path d="" fill="#0080BF" transform="translate(0,0)"/>
<path d="" fill="#008080" transform="translate(0,0)"/>
<path d="" fill="#008080" transform="translate(0,0)"/>
<path d="" fill="#0080FF" transform="translate(0,0)"/>
<path d="" fill="#0080FF" transform="translate(0,0)"/>
<path d="" fill="#0080FF" transform="translate(0,0)"/>
<path d="" fill="#0080FF" transform="translate(0,0)"/>
<path d="" fill="#0080FF" transform="translate(0,0)"/>
<path d="" fill="#0080FF" transform="translate(0,0)"/>
<path d="" fill="#0080FF" transform="translate(0,0)"/>
<path d="" fill="#0080FF" transform="translate(0,0)"/>
<path d="" fill="#0080FF" transform="translate(0,0)"/>
<path d="" fill="#0080FF" transform="translate(0,0)"/>
<path d="" fill="#0080FF" transform="translate(0,0)"/>
<path d="" fill="#0080FF" transform="translate(0,0)"/>
<path d="" fill="#0080FF" transform="translate(0,0)"/>
<path d="" fill="#0080BF" transform="translate(0,0)"/>
<path d="" fill="#0080BF" transform="translate(0,0)"/>
<path d="" fill="#0080BF" transform="translate(0,0)"/>
<path d="" fill="#0080BF" transform="translate(0,0)"/>
<path d="" fill="#0080BF" transform="translate(0,0)"/>
<path d="" fill="#0080BF" transform="translate(0,0)"/>
<path d="" fill="#0055AA" transform="translate(0,0)"/>
<path d="" fill="#0055AA" transform="translate(0,0)"/>
<path d="" fill="#0080BF" transform="translate(0,0)"/>
<path d="" fill="#0080FF" transform="translate(0,0)"/>
<path d="" fill="#0080BF" transform="translate(0,0)"/>
<path d="" fill="#0080FF" transform="translate(0,0)"/>
<path d="" fill="#008080" transform="translate(0,0)"/>
<path d="" fill="#008080" transform="translate(0,0)"/>
<path d="" fill="#0080FF" transform="translate(0,0)"/>
<path d="" fill="#0080FF" transform="translate(0,0)"/>
<path d="" fill="#0080FF" transform="translate(0,0)"/>
<path d="" fill="#0080FF" transform="translate(0,0)"/>
<path d="" fill="#00AAFF" transform="translate(0,0)"/>
<path d="" fill="#00AAFF" transform="translate(0,0)"/>
<path d="" fill="#0080FF" transform="translate(0,0)"/>
<path d="" fill="#0080FF" transform="translate(0,0)"/>
<path d="" fill="#00AAFF" transform="translate(0,0)"/>
<path d="" fill="#00AAFF" transform="translate(0,0)"/>
<path d="" fill="#00BFFF" transform="translate(0,0)"/>
<path d="" fill="#0080FF" transform="translate(0,0)"/>
<path d="" fill="#00BFFF" transform="translate(0,0)"/>
<path d="" fill="#0080FF" transform="translate(0,0)"/>
</svg>
