<?xml version="1.0" encoding="UTF-8"?>
<svg width="128" height="128" version="1.1" viewBox="0 0 33.867 33.867" xmlns="http://www.w3.org/2000/svg"><g transform="scale(.71111)"><rect x=".06551" y=".06551" width="47.494" height="47.494" style="-inkscape-stroke:none;fill-rule:evenodd;fill:#0277bd;font-variation-settings:normal;stop-color:#000000;stroke-width:.13102;stroke:#0277bd"/><g transform="matrix(.11719 0 0 .11736 26.539 14.264)" style="fill:#fff;stroke:#fff"><circle cx="-22.301" cy="79.286" r="153.93" style="opacity:0;paint-order:markers stroke fill;stroke-width:2.84"/><g style="fill:#fff;stroke:#fff"><path d="m130.21 77.865v1.4199c0 69.032-46.356 129.44-113.04 147.31s-137.03-11.271-171.54-71.055l-0.70898-1.2305-2.459 1.4199 0.70899 1.2305c35.152 60.884 106.83 90.575 174.74 72.379s115.14-79.749 115.14-150.05v-1.4199z" style="color-rendering:auto;color:#000000;dominant-baseline:auto;fill:#fff;font-feature-settings:normal;font-variant-alternates:normal;font-variant-caps:normal;font-variant-ligatures:normal;font-variant-numeric:normal;font-variant-position:normal;image-rendering:auto;isolation:auto;mix-blend-mode:normal;paint-order:markers stroke fill;shape-padding:0;shape-rendering:auto;solid-color:#000000;stroke-linecap:square;stroke-linejoin:round;stroke-width:20.386;stroke:#fff;text-decoration-color:#000000;text-decoration-line:none;text-decoration-style:solid;text-indent:0;text-orientation:mixed;text-transform:none;white-space:normal"/><path d="m131.62 66.176 11.36 19.653h-22.72z" style="fill-rule:evenodd;fill:#fff;stroke-width:20.386;stroke:#fff"/></g><g transform="rotate(180 -22.116 79.492)" style="fill:#fff;stroke:#fff"><path d="m130.21 77.865v1.4199c0 69.032-46.356 129.44-113.04 147.31s-137.03-11.271-171.54-71.055l-0.70898-1.2305-2.459 1.4199 0.70899 1.2305c35.152 60.884 106.83 90.575 174.74 72.379s115.14-79.749 115.14-150.05v-1.4199z" style="color-rendering:auto;color:#000000;dominant-baseline:auto;fill:#fff;font-feature-settings:normal;font-variant-alternates:normal;font-variant-caps:normal;font-variant-ligatures:normal;font-variant-numeric:normal;font-variant-position:normal;image-rendering:auto;isolation:auto;mix-blend-mode:normal;paint-order:markers stroke fill;shape-padding:0;shape-rendering:auto;solid-color:#000000;stroke-linecap:square;stroke-linejoin:round;stroke-width:20.386;stroke:#fff;text-decoration-color:#000000;text-decoration-line:none;text-decoration-style:solid;text-indent:0;text-orientation:mixed;text-transform:none;white-space:normal"/><path d="m131.62 66.176 11.36 19.653h-22.72z" style="fill-rule:evenodd;fill:#fff;stroke-width:20.386;stroke:#fff"/></g></g><g transform="matrix(4.4012 0 0 4.4076 9.7615 10.587)" style="fill:#fff"><path d="m5.0271 0.79375h-0.26458v-0.52917h-0.52917v0.52917h-2.1167v-0.52917h-0.52917v0.52917h-0.26458a0.52917 0.52917 0 0 0-0.52917 0.52917v3.7042a0.52917 0.52917 0 0 0 0.52917 0.52917h3.7042c0.29104 0 0.52917-0.23812 0.52917-0.52917v-3.7042c0-0.29104-0.23812-0.52917-0.52917-0.52917zm-1.8521 0.79375c0.43921 0 0.79375 0.35454 0.79375 0.79375s-0.35454 0.79375-0.79375 0.79375-0.79375-0.35454-0.79375-0.79375 0.35454-0.79375 0.79375-0.79375zm1.5875 3.175h-3.175v-0.26458c0-0.52917 1.0583-0.82021 1.5875-0.82021s1.5875 0.29104 1.5875 0.82021z" style="fill:#fff;stroke-width:.26458"/></g></g></svg>
