<?xml version="1.0" encoding="UTF-8"?>
<svg width="384" height="128" version="1.1" viewBox="0 0 101.6 33.867" xmlns="http://www.w3.org/2000/svg" xmlns:xlink="http://www.w3.org/1999/xlink"><defs><clipPath id="SVGID_00000105420603307973847840000001962748725144359566_"><use xlink:href="#SVGID_1_"/></clipPath><radialGradient id="SVGID_00000039113882568430525240000007636065366738306982_" cx="2743.7" cy="787.58" r="1" gradientTransform="matrix(-472.9 1270.2 1692.6 630.18 -34896 -3981694)" gradientUnits="userSpaceOnUse"><stop stop-color="#54B7FF" stop-opacity="0" offset=".5561"/><stop stop-color="#54B7FF" offset=".9944"/></radialGradient><linearGradient id="SVGID_00000176725197834726512400000003066602754912228770_" x1="796.82" x2="203.77" y1="249.42" y2="1067.3" gradientTransform="matrix(1,0,0,-1,0,786)" gradientUnits="userSpaceOnUse"><stop stop-color="#C8E8FF" offset="0"/><stop stop-color="#BDAEFF" offset=".3075"/><stop stop-color="#6D4AFF" offset="1"/></linearGradient><rect id="SVGID_1_" width="6098" height="785"/></defs><g transform="matrix(.016661 0 0 .016661 -.00039517 10.394)"><clipPath><use xlink:href="#SVGID_1_"/></clipPath><g clip-path="url(#SVGID_00000105420603307973847840000001962748725144359566_)"><g fill="#6d4aff"><path class="st1" d="m3482.8 611c-37.3-21.2-68.2-52.3-89.2-89.8-21.2-39.1-32.3-82.9-32.3-127.4s11.1-88.3 32.3-127.4c21-37.5 51.8-68.5 89.2-89.8 38.7-22 82.6-33.3 127.1-32.7 36.3-0.3 72.3 7 105.5 21.5 30.4 13.1 57.3 33.2 78.5 58.6 21 25.3 35.6 55.3 42.7 87.4h-93.8c-10.6-23.9-27.9-44.1-49.9-58.2-24.5-14.3-52.3-21.9-80.7-22s-56.3 7.2-80.9 21.3c-23.6 14.1-43 34.3-56.1 58.5-13.6 25.6-20.6 54.1-20.6 83.1s7.1 57.5 20.6 83.1c13.1 24.2 32.6 44.4 56.4 58.4s50.9 21.1 78.5 20.8c29.2 1 58-6.6 82.8-21.9 22-14.2 39.3-34.4 49.9-58.3h93.8c-7.1 32.3-21.8 62.5-42.9 88s-47.9 45.6-78.3 58.7c-33.3 14.3-69.3 21.5-105.5 20.9-44.5 0.7-88.4-10.7-127.1-32.8z"/><path class="st1" d="m4124.7 316.2c26.4 13.8 48.2 35 62.8 61 15.6 28.2 23.4 60.1 22.7 92.4v166.3h-79.8l-5.7-49.9c-10.4 18.1-25.6 32.8-44 42.7-19.7 10.2-41.7 15.3-63.9 14.9-28.4 0.3-56.3-7.3-80.7-21.9-24.6-14.9-44.6-36.3-57.8-61.8-14.6-28.1-21.9-59.3-21.3-91-0.4-31.1 7.6-61.8 23.1-88.8 15.1-26.3 37-47.9 63.5-62.5 27.7-15.2 58.9-22.8 90.5-22.2 31.5-0.8 62.6 6.4 90.6 20.8zm-29.3 223.7c17.3-16.6 25.9-40.2 25.9-71 1.1-25.5-7.9-50.3-24.9-69.2-7.9-8.6-17.6-15.5-28.3-20.1-10.8-4.6-22.4-6.8-34.1-6.5-11.8-0.3-23.5 2-34.4 6.7-10.8 4.6-20.6 11.6-28.5 20.3-16.2 19.4-25.1 43.9-25.1 69.1s8.9 49.7 25.1 69.1c8 8.6 17.8 15.4 28.7 20 10.9 4.5 22.6 6.7 34.4 6.3 11.3 0.2 22.6-1.9 33.1-6.2s20.1-10.6 28.1-18.5z"/><path class="st1" d="m4358.7 635.8h-89.7v-484.5h89.8v484.5z"/><path class="st1" d="m4743 499.4h-252.2c4 20.2 14.8 38.4 30.6 51.6 15.8 12.3 35.4 18.7 55.4 18.2 16 0.6 32-2.2 46.9-8.2 11.8-5.4 21.5-14.5 27.7-25.9h83.2c-8.7 33.2-29.4 61.9-58.2 80.6-29 18.7-62.8 28.5-97.3 28-31.6 0.7-62.9-7-90.6-22.3-25.9-14.5-47.1-36-61.1-62.1-14.7-27.6-22.1-58.5-21.6-89.8-0.5-31.3 7-62.2 21.9-89.8 14.2-26 35.4-47.5 61.1-62.1 26.9-15.1 57.2-22.8 88.1-22.2 30.2-0.4 59.9 7.5 86 22.7 25.3 15 46 36.6 59.8 62.5 14.6 27.3 22.1 57.8 21.6 88.8 0.1 9.9-0.3 20-1.3 30zm-222.3-111.5c-15.3 12.5-26.1 29.8-30.6 49.1h169.5c-2.6-19-12.4-36.3-27.4-48.4-15.7-12.9-35.5-19.7-55.8-19.1-20.1-0.7-39.9 5.9-55.7 18.4z"/><path class="st1" d="m4777.1 446.1c-0.8-20.1 2.4-40.2 9.5-59.1s18-36.1 31.9-50.6c27.7-27.5 65.9-41.2 114.6-41.2s86.8 14 114.4 41.9c13.9 14.6 24.7 31.8 31.8 50.7s10.3 38.9 9.4 59.1v189.5h-89.7v-183.2c1.4-20.7-4.2-41.2-16-58.2-6.4-6.6-14.1-11.9-22.5-15.5-8.5-3.6-17.6-5.5-26.8-5.5s-18.3 1.9-26.8 5.5-16.1 8.9-22.5 15.5c-12.1 17-18 37.7-16.8 58.5v182.6h-89.8z"/><path class="st1" d="m5382 151.3h89.8v484.5h-81.8l-6.3-51.4c-9.8 18.3-24.8 33.4-43 43.4-20.4 10.8-43.3 16.1-66.4 15.6-26.1 0.1-51.8-6.8-74.3-19.9-24.2-14.2-43.9-34.9-56.7-59.8-15.1-29.1-22.6-61.6-21.7-94.4-0.9-32.7 6.6-65.1 21.7-94.1 12.9-24.9 32.6-45.6 56.7-59.8 22.6-13.1 48.2-20 74.3-19.9 22.4-0.5 44.5 4.4 64.6 14.3 18 8.7 33 22.7 43 40.1v-198.6zm-24.9 388.3c8.7-9.5 15.4-20.7 19.6-32.8 4.3-12.1 6-25 5.2-37.9 0-30.3-8.4-53.6-25.1-69.8-8.1-8-17.6-14.3-28.1-18.5s-21.7-6.4-33.1-6.3c-11.3 0.1-22.5 2.4-32.9 6.9-10.4 4.4-19.9 10.9-27.8 19-8.5 9.3-15.1 20.3-19.3 32.1-4.3 11.9-6.1 24.5-5.5 37.1-1.3 25.6 7.6 50.7 24.8 69.8 8 8.5 17.7 15.2 28.5 19.6 10.8 4.5 22.4 6.6 34 6.3 11.2 0.1 22.2-2.2 32.5-6.5 10.3-4.5 19.6-10.9 27.2-19z"/><path class="st1" d="m5782.6 316.2c26.4 13.8 48.2 35 62.8 61 15.6 28.2 23.4 60.1 22.7 92.4v166.3h-79.8l-5.7-49.9c-10.5 18-25.7 32.8-44.1 42.7-19.7 10.2-41.7 15.3-63.9 14.9-28.4 0.3-56.3-7.3-80.6-21.9-24.6-14.9-44.7-36.3-57.9-61.8-14.6-28.1-21.9-59.3-21.3-91-0.4-31.1 7.6-61.8 23.1-88.8 15.1-26.2 37-47.8 63.4-62.4 27.8-15.2 59-22.9 90.7-22.3 31.5-0.8 62.6 6.4 90.6 20.8zm-29.1 223.7c17.3-16.6 25.9-40.2 25.9-71 1.1-25.4-7.8-50.3-24.8-69.2-8.1-8.5-17.8-15.2-28.6-19.8s-22.4-7-34.1-7-23.3 2.4-34.1 7-20.5 11.3-28.6 19.8c-16.2 19.4-25 43.9-25 69.1 0 25.3 8.9 49.7 25 69.1 8 8.7 17.7 15.5 28.5 20.1s22.5 6.8 34.3 6.5c11.4 0.2 22.7-1.9 33.2-6.1 10.6-4.3 20.2-10.6 28.3-18.5z"/><path class="st1" d="m5912.9 439c-1.6-38.1 11.5-75.2 36.6-103.9 24.3-26.6 59-39.9 104-39.9 15.1-0.1 30.1 1.6 44.8 5v81c-7.1 0-15.2-0.7-24.1-0.7-24.6 0-42.6 5.7-53.9 17.1-6.2 7.1-10.8 15.3-13.8 24.2-2.9 8.9-4.1 18.3-3.3 27.6v186.8h-89.8z"/></g><g fill="#1b1340"><path class="st2" d="m1521.8 150.1h-223.8v484.8h88.7v-120.3c0-11.7 4.7-23 13-31.3s19.6-13 31.3-13h90.9c42.3 0 82.9-16.8 112.8-46.7s46.7-70.5 46.7-112.8c0.2-21-3.9-41.9-11.8-61.4-8-19.5-19.7-37.2-34.5-52.1s-32.5-26.8-51.9-34.9c-19.5-8.1-40.4-12.3-61.4-12.3zm69.8 159.6c-0.1 20-8.1 39.2-22.3 53.3s-33.5 22-53.5 22h-129.7v-151.5h129.7c9.9 0 19.8 2 29 5.8s17.5 9.4 24.6 16.4c7 7 12.6 15.4 16.4 24.6s5.8 19 5.8 29z"/><path class="st2" d="m1695.3 634.9v-192.3c0-78.5 45.9-141 137.5-141 14.8-0.2 29.5 1.4 43.8 4.9v79.2c-10.5-0.7-20-0.7-23.6-0.7-48.6 0-69.8 22.1-69.8 67.3v182.6z"/><path class="st2" d="m1903 471.7c0-96.5 72.9-170.1 174.3-170.1s174.2 73.4 174.2 170.1-72.9 170.8-174.2 170.8c-101.3 0.1-174.3-74.2-174.3-170.8zm261.8 0c0-54.9-36.8-93.7-87.5-93.7s-87.6 38.9-87.6 93.7c0 54.9 36.8 93.7 87.6 93.7 50.8 0.1 87.5-38.1 87.5-93.7z"/><path class="st2" d="m2507 378.7h-95v121.5c0 42.4 15.3 61.8 58.9 61.8 4.2 0 14.7 0 27.8-0.7v71.5c-16.7 4.9-34 7.5-51.4 7.7-73.6 0-123.7-44.5-123.7-128.5v-133.3h-58.9v-69.8h14.7c11.7 0 23-4.7 31.3-13s13-19.6 13-31.3v-66.4h88.3v110.4h95z"/><path class="st2" d="m2533.5 471.7c0-96.5 72.9-170.1 174.2-170.1s174.3 73.4 174.3 170.1-72.9 170.8-174.3 170.8c-101.4 0.1-174.2-74.2-174.2-170.8zm261.7 0c0-54.9-36.8-93.7-87.6-93.7s-87.5 38.9-87.5 93.7c0 54.9 36.8 93.7 87.5 93.7 50.8 0.1 87.6-38.1 87.6-93.7z"/><path class="st2" d="m2927.8 634.9v-185.4c0-86.1 54.8-147.9 152.8-147.9 97.9 0 152.1 61.8 152.1 147.9v185.4h-87.5v-178.4c0-48-21.5-77.8-64.6-77.8s-64.5 29.9-64.5 77.8v178.4z"/></g><path class="st3" d="m0 98.1c0-54.2 43.9-98.1 98.1-98.1h752.3c54.2 0 98.1 43.9 98.1 98.1v588.8c0 54.2-43.9 98.1-98.1 98.1h-752.3c-54.2 0-98.1-43.9-98.1-98.1z" fill="#6851f6"/><path d="m0 98.1c0-54.2 43.9-98.1 98.1-98.1h752.3c54.2 0 98.1 43.9 98.1 98.1v588.8c0 54.2-43.9 98.1-98.1 98.1h-752.3c-54.2 0-98.1-43.9-98.1-98.1z" fill="url(#SVGID_00000039113882568430525240000007636065366738306982_)"/><path class="st5" d="m430.7 739.3c0-23.3 8.3-45.9 23.4-63.6l172.8-202.8 5.5 312.1h-201.7z" fill="#bfd8ff"/><path d="m98.1 0c-54.2 0-98.1 43.9-98.1 98.1v19.1h670.5c42.2 0 76.3 34.2 76.3 76.3v389.8h201.7v-485.2c0-54.2-43.9-98.1-98.1-98.1z" clip-rule="evenodd" fill="url(#SVGID_00000176725197834726512400000003066602754912228770_)" fill-rule="evenodd"/><path class="st7" d="m599.7 545.1c0-60.2 48.8-109 109-109h239.9v348.9h-348.9z" fill="#fff"/><path class="st1" d="m695.1 660.4h34.5c1.4 6 4.9 11.3 9.9 15 4.9 3.7 11 5.6 17.2 5.3 15.6 0 25.9-8.6 25.9-21.2s-10.7-19.6-31.9-19.6h-13.7v-28.4h11.9c20.5 0 28.9-7.5 28.9-18.9 0-11.3-9.1-19.1-21.7-19.1-5.6-0.3-11.2 1.5-15.4 5.2-4.3 3.7-6.9 8.9-7.4 14.5h-33.3c1.2-19.8 16.8-48.2 55.9-48.2 31.4 0 53.1 17.9 53.1 43.1 0 8.1-2.5 16-7.3 22.5s-11.5 11.4-19.2 13.8v0.5c9 1.6 17.1 6.4 22.8 13.5s8.7 16 8.4 25.2c0 27.3-25 45.3-57.3 45.3-34.3 0.2-58.8-19.3-61.3-48.5z" fill="#6d4aff"/><path class="st1" d="m874 547.7h25.1v158.9h-32.4v-121.9l-31.2 21.2v-32.1z" fill="#6d4aff"/></g></g></svg>
