<?xml version="1.0" encoding="UTF-8"?>
<svg width="128" height="128" version="1.1" viewBox="0 0 5.12 5.12" xmlns="http://www.w3.org/2000/svg"><g transform="scale(.32)"><path d="m2.8 0h10.4c1.5 0 2.8 1.3 2.8 2.8v10.4c0 1.5-1.3 2.8-2.8 2.8h-10.4c-1.5 0-2.8-1.3-2.8-2.8v-10.4c0-1.5 1.3-2.8 2.8-2.8z" fill="#1c223d"/><g fill="#fff"><path d="m4.9016 2.0258c-0.1888 0.04347-0.36956 0.17753-0.45793 0.33694-0.06427 0.11231-0.07231 0.14855-0.08436 0.38042l-0.01205 0.25361-0.48203 0.00363c-0.37357 0-0.5222 0.00724-0.65878 0.03623-0.59852 0.13043-1.0645 0.57606-1.189 1.1376-0.00803 0.03985-0.01606 1.9637-0.01606 4.2716-0.00402 3.2064 0 4.2353 0.0241 4.3512 0.06829 0.3696 0.3334 0.7428 0.67886 0.9529 0.12452 0.0761 0.39767 0.1884 0.55032 0.221 0.10444 0.0218 0.91987 0.029 4.6878 0.029 2.5106 0 4.6235-0.0072 4.6958-0.0145 0.2691-0.0326 0.6186-0.1848 0.8516-0.3732 0.2048-0.1739 0.3856-0.4492 0.4619-0.721 0.0442-0.1594 0.0482-0.2499 0.0482-4.3585 0-4.5687 8e-3 -4.2643-0.1285-4.565-0.2049-0.45288-0.6588-0.80432-1.2011-0.9275-0.1285-0.02898-0.2772-0.03985-0.6347-0.04348-0.2611-0.00362-0.478-0.00362-0.482-0.00724-8e-3 -0.00362-0.012-0.07246-0.012-0.15579 4e-3 -0.27898-0.0724-0.46738-0.2611-0.63404-0.2893-0.26086-0.8034-0.25723-1.1007 0.00725-0.1687 0.15579-0.23297 0.30071-0.24502 0.55795-0.00803 0.11594-0.02008 0.21738-0.02812 0.22101-0.01205 0.00724-0.89979 0.01086-1.9803 0.01086h-1.9562l-0.00402-0.14854c-0.00401-0.3768-0.11247-0.58694-0.37357-0.73548-0.1888-0.10869-0.45793-0.1413-0.69091-0.08695zm7.9374 7.1084-4e-3 3.5108-0.0562 0.0797c-0.0322 0.0435-0.1045 0.1051-0.1607 0.134l-0.1085 0.058h-9.0622l-0.10042-0.0471c-0.11248-0.0543-0.14461-0.0869-0.20085-0.192-0.03615-0.0689-0.04017-0.3804-0.04419-3.5434 0-1.9057 0-3.4745 0.00402-3.489 0.00804-0.01449 1.4662-0.02173 4.8725-0.02173h4.8645z"/><path d="m5.5481 6.7542c-0.28921 0.03261-0.65475 0.14493-0.91184 0.27898-0.17273 0.09057-0.39767 0.24637-0.43784 0.30433-0.02812 0.03986-0.04017 0.02899 0.2852 0.34419 0.12051 0.11594 0.22495 0.21739 0.22896 0.22826 0.00804 0.01087 0.05222-0.01087 0.09641-0.05435 0.42981-0.37317 1.1046-0.44926 1.43-0.15579 0.11247 0.10145 0.16469 0.22825 0.14862 0.39853-0.00803 0.11594-0.08837 0.29347-0.16469 0.36956-0.12051 0.11956-0.32939 0.18115-0.63468 0.18115-0.25306 0-0.22093-0.04348-0.28118 0.33694-0.00402 0.05435-0.01607 0.11956-0.02009 0.14855-0.00803 0.02536-0.01606 0.09057-0.0241 0.14492l-0.01607 0.09058h0.20888c0.4258 0.00362 0.57844 0.02898 0.73912 0.13767 0.2129 0.13768 0.3093 0.45288 0.22093 0.721-0.13658 0.4275-0.60254 0.5942-1.1729 0.413-0.1888-0.0616-0.31734-0.1304-0.48203-0.2717l-0.14461-0.1159-0.30529 0.2717c-0.16469 0.1521-0.30528 0.2826-0.30528 0.2971 0 0.0326 0.26511 0.25 0.42177 0.3442 0.17675 0.1087 0.36956 0.192 0.61459 0.2608 0.16068 0.0471 0.21692 0.0507 0.63468 0.0507 0.51015 0 0.71501-0.0289 1.0364-0.1413 0.36554-0.1268 0.67083-0.3586 0.82749-0.6304 0.12452-0.2174 0.16469-0.3804 0.16469-0.6811 0-0.29709-0.11247-0.54346-0.34545-0.7536-0.16871-0.15216-0.37358-0.24999-0.61459-0.28984l-0.1647-0.03261 0.09239-0.01449c0.23299-0.03623 0.55032-0.25361 0.69091-0.46375 0.22094-0.33332 0.22495-0.7862 0.01206-1.1159-0.17675-0.27173-0.474-0.46013-0.8998-0.56882-0.12452-0.02898-0.74714-0.05072-0.92791-0.03261z"/><path d="m9.754 6.7724c-0.44187 0.0616-0.77929 0.2355-1.0725 0.55433-0.15666 0.17391-0.34546 0.57244-0.41375 0.88765-0.07632 0.3297-0.08033 0.35143-0.08837 0.83692-0.00803 0.63041 0.05624 1.0289 0.24102 1.4383 0.20486 0.4638 0.58647 0.8116 1.0444 0.9565 0.11247 0.0326 0.17273 0.0471 0.36956 0.0761 0.10042 0.0145 0.45395 0.0145 0.56635 0 0.6869-0.0942 1.1408-0.4456 1.4341-1.105 0.1365-0.308 0.2169-0.79348 0.2169-1.3116 0-0.27535-0.0121-0.38404-0.0442-0.61592-0.1607-1.1123-0.7833-1.7101-1.8036-1.7354-0.1446-0.00725-0.34545 0.00362-0.44989 0.01811zm0.64669 0.79345c0.1647 0.06159 0.3174 0.28985 0.3656 0.54346 4e-3 0.03261 0.016 0.07608 0.0201 0.0942 0.0682 0.22101 0.0843 1.5398 0.0241 1.7391-0.0041 0.0145-0.0161 0.07606-0.0241 0.13766-0.0201 0.1486-0.0964 0.3406-0.1728 0.4457-0.1647 0.2101-0.5664 0.2499-0.78327 0.076-0.25708-0.2101-0.33341-0.5688-0.33341-1.5289 0-0.53983 0.01607-0.82605 0.05624-0.95286 0.01205-0.03623 0.0241-0.06884 0.02009-0.07246-0.00402-0.02174 0.06427-0.21014 0.10042-0.27173 0.12854-0.23188 0.43783-0.31883 0.72703-0.21014z"/></g></g></svg>
