<?xml version="1.0" encoding="UTF-8"?>
<svg version="1.1" viewBox="0 0 128 128" xmlns="http://www.w3.org/2000/svg" xmlns:xlink="http://www.w3.org/1999/xlink"><defs><clipPath id="b"><use width="1280" height="800" overflow="visible" xlink:href="#a"/></clipPath><path id="a" d="m155.5 222.8c-12.64 0-22.875 10.246-22.875 22.872v211.23c0 0.801 0.046 1.608 0.123 2.388 8.5-3.167 17.524-6.629 27.054-10.436 66.336-26.48 120.57-48.994 120.62-74.415 0-0.814-0.056-1.636-0.172-2.458-3.43-25.098-63.407-32.879-63.324-44.381 7e-3 -0.611 0.18-1.25 0.548-1.889 7.205-12.619 35.743-12.015 46.253-12.907 10.519-0.913 35.206-0.724 36.399-8.244 0.035-0.232 0.057-0.463 0.057-0.695 0.028-6.987-16.977-9.726-16.977-9.726s20.635 3.083 20.579 11.11c0 0.393-0.048 0.8-0.158 1.214-2.222 8.624-20.379 10.246-32.386 10.835-11.356 0.569-28.648 1.861-28.707 7.408-7e-3 0.323 0.049 0.66 0.165 1.004 2.71 8.11 66.09 12.015 106.64 33.061 23.335 12.099 34.94 32.422 40.263 53.418v-166.52c0-12.626-10.243-22.872-22.869-22.872h-211.23z"/></defs><path transform="matrix(.49811 0 0 .49811 -66.064 -105.88)" d="m132.63 222.8h256.98v236.49h-256.98z" clip-path="url(#b)" style="fill:#a01e20"/></svg>
