<?xml version="1.0" encoding="UTF-8"?>
<svg version="1.1" xmlns="http://www.w3.org/2000/svg" width="300" height="300">
<path d="M0 0 C1.08031494 0.00757324 2.16062988 0.01514648 3.27368164 0.02294922 C14.31832083 0.25139575 22.53588477 2.51700099 31.5 9.0703125 C33.41051707 10.41845963 35.32342577 11.44652771 37.4375 12.4375 C37.87320313 12.03917969 38.30890625 11.64085937 38.7578125 11.23046875 C42.45526168 7.94117955 45.8303602 5.37249872 50.4375 3.4375 C51.34121338 3.05573608 51.34121338 3.05573608 52.26318359 2.66625977 C58.91249546 0.14046109 65.13132439 -0.01230045 72.1875 0.0625 C73.29738281 0.05089844 74.40726562 0.03929687 75.55078125 0.02734375 C76.62199219 0.03121094 77.69320312 0.03507812 78.796875 0.0390625 C80.24271973 0.04413818 80.24271973 0.04413818 81.71777344 0.04931641 C84.906918 0.50449952 86.76425102 1.68625428 89.4375 3.4375 C91.39913834 3.98401297 93.38101083 4.46183107 95.375 4.875 C101.47920168 6.32231072 105.27734305 7.77330643 109.3125 12.75 C111.68365644 18.41442927 110.29169297 22.8749211 108.4375 28.4375 C108.14231378 30.98095384 107.94046636 33.51488998 107.78125 36.0703125 C107.41995979 38.55828825 106.67773859 40.26708246 105.4375 42.4375 C104.7775 42.4375 104.1175 42.4375 103.4375 42.4375 C103.06625 43.736875 103.06625 43.736875 102.6875 45.0625 C100.23969644 51.67156961 96.1887482 56.44279066 90.4375 60.4375 C89.7775 60.4375 89.1175 60.4375 88.4375 60.4375 C89.0253125 61.365625 89.0253125 61.365625 89.625 62.3125 C93.37817373 68.78348919 96.6033727 75.25285584 98.76171875 82.4296875 C99.39815 84.49357587 99.39815 84.49357587 100.51953125 86.5078125 C101.4375 88.4375 101.4375 88.4375 101.4375 91.4375 C102.015 91.664375 102.5925 91.89125 103.1875 92.125 C108.32306048 95.12074361 110.44550021 100.03064343 112.4375 105.4375 C114.67654058 114.3936623 114.11035838 123.95818497 110.4375 132.4375 C109.45585694 133.78440559 108.4566553 135.11875049 107.4375 136.4375 C106.40648053 138.75729381 105.40813483 141.09179915 104.4375 143.4375 C103.695 144.79875 103.695 144.79875 102.9375 146.1875 C101.58508724 149.11772765 100.86660874 151.6317738 100.125 154.75 C97.54559226 164.4988385 92.00356603 171.1873305 83.4375 176.4375 C80.96254811 177.5426672 78.47138433 178.48779322 75.921875 179.40625 C72.43813872 180.85232921 69.53073793 182.90884894 66.453125 185.06640625 C63.90658134 186.79864816 61.19042699 188.06103651 58.4375 189.4375 C56.12834256 190.96883599 53.85021586 192.5359004 51.5859375 194.1328125 C44.89772729 198.19438016 34.95782444 197.09570344 27.4375 196.4375 C21.94015236 195.0924043 17.77763861 192.11412774 13.33203125 188.73046875 C10.30087342 186.66178166 6.99605101 185.18664317 3.671875 183.6484375 C1.4375 182.4375 1.4375 182.4375 -0.1015625 180.8671875 C-1.89797757 179.10919843 -3.26567088 178.79512738 -5.6875 178.1875 C-13.84421512 175.61448742 -19.88480305 170.15940578 -24.36328125 162.95703125 C-26.14283574 159.21822784 -26.9215003 155.37454515 -27.796875 151.34375 C-28.74136724 147.75853457 -30.26294726 144.95696778 -32.16015625 141.796875 C-33.83269611 138.98290822 -35.32870767 136.10526909 -36.8125 133.1875 C-37.31265625 132.21296875 -37.8128125 131.2384375 -38.328125 130.234375 C-42.137372 121.60329635 -41.47846059 111.40784934 -38.48046875 102.625 C-36.8194294 98.66677856 -34.71740198 95.51922007 -31.58984375 92.58984375 C-29.4083289 90.27382317 -28.32964338 88.28172418 -27.0625 85.375 C-26.64097656 84.41207031 -26.21945313 83.44914062 -25.78515625 82.45703125 C-24.59509408 79.51799593 -23.53413297 76.55945792 -22.5 73.5625 C-21.08017102 69.5107929 -19.47448074 66.65072012 -16.5625 63.4375 C-16.2325 62.4475 -15.9025 61.4575 -15.5625 60.4375 C-16.243125 60.2725 -16.92375 60.1075 -17.625 59.9375 C-23.74802272 56.8108501 -28.0164347 50.72777897 -30.5625 44.4375 C-30.5625 43.7775 -30.5625 43.1175 -30.5625 42.4375 C-31.2225 42.4375 -31.8825 42.4375 -32.5625 42.4375 C-34.37989451 38.19691281 -35.77333747 34.82959028 -35.625 30.1875 C-35.56259026 26.44291547 -35.9490176 25.56362215 -37.5625 22.4375 C-38.01698391 18.34714477 -37.82273901 15.99050789 -36.0625 12.25 C-31.33168912 6.92783776 -25.63308911 5.14916806 -18.73828125 4.02734375 C-16.45215102 3.55108969 -16.45215102 3.55108969 -14.515625 1.90625 C-9.83683835 -0.42076558 -5.15298528 -0.04957442 0 0 Z " fill="#050405" transform="translate(113.5625,51.5625)"/>
<path d="M0 0 C4.71403788 0.47939368 8.66579301 0.96834048 13 3 C13 2.01 13 1.02 13 0 C18.62541841 0.45003347 21.61487125 1.68441485 26 5 C26 4.34 26 3.68 26 3 C31.21429989 3.89821273 34.40977159 7.31830081 38 11 C41.26154353 15.68846882 41.97489611 20.417437 41 26 C39 29.0625 39 29.0625 37 31 C33.30365847 30.43822122 31.83459423 29.05991908 29.375 26.3125 C21.04377303 17.68813727 10.24594428 13.55135082 -1 10 C-1 10.66 -1 11.32 -1 12 C-0.27941406 12.11601563 0.44117187 12.23203125 1.18359375 12.3515625 C11.77480437 14.79003818 19.51219168 22.63457785 27 30 C27.77085937 30.69996094 28.54171875 31.39992188 29.3359375 32.12109375 C31 34 31 34 31.1875 37.4375 C29.64067246 42.07798263 27.29729811 43.84690239 23 46 C17.00853592 47.9518584 10.24256188 47.81196206 4.375 45.6875 C2 44 2 44 1 41 C-0.79762104 39.87351903 -0.79762104 39.87351903 -2.9375 39 C-6.20616298 37.57626295 -6.91624972 37.12562542 -9 34 C-9 32.68 -9 31.36 -9 30 C-11.37505218 27.29151077 -11.37505218 27.29151077 -14 25 C-15 24 -15 24 -15.0625 21.4375 C-15.041875 20.633125 -15.02125 19.82875 -15 19 C-14.01 19 -13.02 19 -12 19 C-13.04536788 14.73811557 -13.74287273 11.96102479 -17 9 C-17 8.01 -17 7.02 -17 6 C-11.60539047 3.72858546 -6.73842251 3.79586639 -1 4 C-0.67 2.68 -0.34 1.36 0 0 Z " fill="#44A849" transform="translate(105,63)"/>
<path d="M0 0 C0 0.99 0 1.98 0 3 C1.19625 2.484375 2.3925 1.96875 3.625 1.4375 C7.43712261 -0.01409117 9.99878527 -0.10033405 14 1 C13.67 2.32 13.34 3.64 13 5 C13.66 4.67 14.32 4.34 15 4 C20.67983816 3.47725383 25.35705072 3.28564057 30 7 C28.97648478 9.20449433 27.9690037 11.03843541 26.4375 12.9375 C24.79371058 15.29598047 24.39201607 17.17748429 24 20 C25.32 20 26.64 20 28 20 C27.58682778 24.82034262 25.61980085 26.90992611 22 30 C21.34 30 20.68 30 20 30 C20 30.66 20 31.32 20 32 C20.66 32 21.32 32 22 32 C20.70401211 34.89104992 19.50703864 37.03018393 17 39 C15.989375 39.309375 14.97875 39.61875 13.9375 39.9375 C10.89559614 40.67632078 10.89559614 40.67632078 9.875 43 C9.58625 43.66 9.2975 44.32 9 45 C3.99941367 48.31803611 -2.27019095 47.572283 -8 47 C-11.67713015 45.78885696 -14.17647095 43.77205849 -17 41.125 C-18.44920463 38.04544016 -17.86204154 36.25971988 -17 33 C-9.82614828 23.62326856 0.40212282 16.90642462 11 12 C-1.5509113 12.57049597 -11.44548957 20.96513538 -19.65234375 29.7734375 C-21 31 -21 31 -23 30.9375 C-25.76890402 29.63957624 -26.61647491 28.76705019 -28 26 C-28.88736728 21.10018936 -28.45210915 17.13629989 -25.9375 12.8125 C-23.23539107 8.9710403 -20.00183908 5.50352018 -16 3 C-15.01 3 -14.02 3 -13 3 C-13 3.66 -13 4.32 -13 5 C-12.48050781 4.6390625 -11.96101563 4.278125 -11.42578125 3.90625 C-4.49912127 -0.7029877 -4.49912127 -0.7029877 0 0 Z " fill="#43A849" transform="translate(182,63)"/>
<path d="M0 0 C4.30081086 2.29438506 8.05661062 5.39752077 9.51171875 10.17578125 C10.92671294 17.22454862 10.01645776 22.64427606 6.56640625 28.97265625 C3.3524232 33.5091395 -0.81672245 36.52744915 -6.06640625 38.27734375 C-10.84963914 38.95735101 -15.22079305 39.35741321 -19.49609375 36.85546875 C-23.45201543 33.46467874 -26.66759409 30.3228184 -27.3671875 24.98046875 C-27.40760064 16.52065061 -26.09584884 11.08040721 -20.12890625 4.90234375 C-14.33547473 -0.70132219 -7.90079945 -2.7630395 0 0 Z " fill="#C91C54" transform="translate(134.06640625,139.72265625)"/>
<path d="M0 0 C6.75569733 3.1006392 12.15464852 8.05541333 15 15 C15.65836343 21.61783498 16.12118337 28.45771892 12 34 C6.58982724 38.88235103 3.13707269 39.35888512 -4.0234375 39.2734375 C-10.37442931 38.69001306 -13.76913823 34.43683179 -17.703125 29.87890625 C-21.72893847 24.04632709 -21.7451075 17.85498896 -21 11 C-19.375 7.5625 -19.375 7.5625 -17 5 C-16.154375 4.05125 -15.30875 3.1025 -14.4375 2.125 C-10.12642995 -1.21716794 -5.16070861 -1.01498701 0 0 Z " fill="#C91C54" transform="translate(177,139)"/>
<path d="M0 0 C2.00805909 1.48633906 3.64006014 2.91335085 5.27734375 4.796875 C6.10492188 5.72113281 6.10492188 5.72113281 6.94921875 6.6640625 C9.45106728 10.68173691 8.87272204 15.23892339 8.27734375 19.796875 C5.24691803 25.96996443 0.71726082 29.58433039 -5.72265625 31.796875 C-12.44396209 32.75132052 -17.52911191 32.18087028 -23.06640625 28.1640625 C-27.10574939 24.82969906 -29.30690016 22.7213411 -30.06640625 17.37890625 C-30.37698353 11.87392398 -30.14402213 8.51763519 -26.47265625 4.234375 C-19.90887818 -2.51173024 -8.62292416 -3.81041699 0 0 Z " fill="#C91C54" transform="translate(160.72265625,180.203125)"/>
<path d="M0 0 C5.07316893 2.94638032 7.70788252 6.81151594 9.5625 12.3125 C10.33166707 19.29761021 10.20215923 25.57154421 6.828125 31.82421875 C5.28615554 33.63746061 3.7340255 34.38640824 1.5625 35.3125 C1.5625 35.9725 1.5625 36.6325 1.5625 37.3125 C-6.17562918 40.11915751 -11.51135863 41.05717507 -19.4375 38.25 C-20.0975 37.940625 -20.7575 37.63125 -21.4375 37.3125 C-21.4375 36.6525 -21.4375 35.9925 -21.4375 35.3125 C-22.35789063 34.93738281 -22.35789063 34.93738281 -23.296875 34.5546875 C-27.18983722 32.29563278 -28.2505372 28.49714946 -29.4375 24.3125 C-30.29139987 17.79724397 -30.14769932 11.77105598 -26.78125 6 C-20.34414781 -2.08380275 -9.35555366 -4.36123554 0 0 Z M-17.4375 5.3125 C-17.4375 5.6425 -17.4375 5.9725 -17.4375 6.3125 C-16.61765625 6.36148438 -15.7978125 6.41046875 -14.953125 6.4609375 C-13.87546875 6.53570312 -12.7978125 6.61046875 -11.6875 6.6875 C-10.08648437 6.79191406 -10.08648437 6.79191406 -8.453125 6.8984375 C-5.63543568 7.2853223 -3.8544634 7.86936166 -1.4375 9.3125 C-1.44910156 10.00214844 -1.46070313 10.69179687 -1.47265625 11.40234375 C-1.53092124 17.47022652 -1.22653948 23.29607396 -0.4375 29.3125 C2.99004276 27.02747149 3.44691117 26.17415366 4.5625 22.3125 C5.04015344 17.05831215 4.45354806 13.74544036 1.5625 9.3125 C-1.56020088 6.04455722 -4.05168471 4.0968021 -8.5 3.375 C-12.19805115 3.31630078 -14.21635433 3.60126636 -17.4375 5.3125 Z M-19.4375 7.3125 C-22.78292041 11.5988199 -24.34327031 14.84717812 -24.4375 20.3125 C-23.34515016 24.90704018 -22.44326801 27.64198799 -18.4375 30.3125 C-18.4375 22.7225 -18.4375 15.1325 -18.4375 7.3125 C-18.7675 7.3125 -19.0975 7.3125 -19.4375 7.3125 Z M-12.4375 12.3125 C-12.4375 13.6325 -12.4375 14.9525 -12.4375 16.3125 C-10.7875 15.9825 -9.1375 15.6525 -7.4375 15.3125 C-7.4375 14.3225 -7.4375 13.3325 -7.4375 12.3125 C-9.0875 12.3125 -10.7375 12.3125 -12.4375 12.3125 Z M-12.4375 21.3125 C-12.4375 24.2825 -12.4375 27.2525 -12.4375 30.3125 C-14.4175 30.3125 -16.3975 30.3125 -18.4375 30.3125 C-16.54993599 32.86626307 -15.31338133 33.34591657 -12.1875 34.1875 C-7.62453367 34.33959888 -5.45354339 33.36150173 -1.4375 31.3125 C-1.4375 30.9825 -1.4375 30.6525 -1.4375 30.3125 C-3.0875 30.3125 -4.7375 30.3125 -6.4375 30.3125 C-6.7675 27.6725 -7.0975 25.0325 -7.4375 22.3125 C-9.0875 21.9825 -10.7375 21.6525 -12.4375 21.3125 Z " fill="#030304" transform="translate(254.4375,95.6875)"/>
<path d="M0 0 C8.7307367 1.12654667 14.68421311 8.88920474 19.875 15.5 C22.71665086 19.94007947 23.55816551 23.22986606 22.875 28.5 C21.4375 30.9375 21.4375 30.9375 18.875 32.5 C13.99303829 33.51667572 9.99777902 32.93597268 5.6875 30.4375 C-0.04310535 26.39639583 -4.64754893 21.1065362 -7.125 14.5 C-7.52444263 9.94635404 -7.22321851 6.57986932 -5.125 2.5 C-3.125 0.5 -3.125 0.5 0 0 Z " fill="#C61C53" transform="translate(103.125,187.5)"/>
<path d="M0 0 C1.7109375 1.171875 1.7109375 1.171875 3 3 C4.03370176 9.28602423 3.6652625 15.63462504 0.3984375 21.18359375 C-3.60322767 26.38128733 -8.41898999 30.76606062 -15 32 C-18.52089969 32.36353458 -21.74527006 32.62736497 -25 31 C-26.69202346 27.61595308 -26.75153011 24.61712055 -26 21 C-21.08566215 10.19183429 -12.95214648 -1.48631189 0 0 Z " fill="#C91C54" transform="translate(200,188)"/>
<path d="M0 0 C6.36114134 4.17018383 6.36114134 4.17018383 7.60546875 8.75 C7.76171875 11.64453125 7.76171875 11.64453125 6.32421875 13.83203125 C-1.79163134 19.57251058 -10.66819136 19.5583078 -20.23828125 18.64453125 C-24.2753885 17.419597 -27.22904615 15.65376635 -30.23828125 12.64453125 C-30.80078125 9.89453125 -30.80078125 9.89453125 -30.23828125 6.64453125 C-22.68937584 -2.12460818 -10.62122316 -4.44579546 0 0 Z " fill="#C71C53" transform="translate(161.23828125,116.35546875)"/>
<path d="M0 0 C1.30807617 -0.02320313 1.30807617 -0.02320313 2.64257812 -0.046875 C8.33410655 -0.012407 11.62243181 0.7044023 15.9375 4.5 C16.8125 7.25 16.8125 7.25 16.9375 9.5 C15.86206217 10.48783194 14.77676783 11.46493943 13.6875 12.4375 C13.08421875 12.98277344 12.4809375 13.52804688 11.859375 14.08984375 C6.63387509 17.9240012 -0.91175993 17.04249674 -7.0625 16.5 C-11.49862116 15.13191378 -14.43519459 13.44095812 -17.0625 9.5 C-17.1875 6.8125 -17.1875 6.8125 -17.0625 4.5 C-11.26820909 0.52677194 -6.9498778 -0.12382856 0 0 Z " fill="#C61C53" transform="translate(150.0625,220.5)"/>
<path d="M0 0 C5.96555929 2.31880472 10.51772772 5.77540291 13.71875 11.38671875 C14.57177154 14.74549107 14.93470997 17.92461048 14.71875 21.38671875 C13.71875 22.38671875 13.71875 22.38671875 10.9609375 22.63671875 C2.50963591 21.98505212 -4.9050495 13.44812127 -10.28125 7.38671875 C-12.28125 4.38671875 -12.28125 4.38671875 -12.28125 0.38671875 C-8.38036295 -1.56372478 -4.100277 -1.1023005 0 0 Z " fill="#C51C52" transform="translate(185.28125,116.61328125)"/>
<path d="M0 0 C0.88945313 -0.00257812 1.77890625 -0.00515625 2.6953125 -0.0078125 C4.875 0.125 4.875 0.125 5.875 1.125 C6.30671946 4.36569935 6.09618593 5.7853021 4.29296875 8.5546875 C-8.552056 22.63697383 -8.552056 22.63697383 -16.890625 23.3671875 C-19.125 23.125 -19.125 23.125 -20.125 22.125 C-20.75367686 17.00577415 -20.57128808 14.15550922 -17.5 9.9375 C-12.50850355 3.94298416 -8.10861945 -0.02364029 0 0 Z " fill="#C51C52" transform="translate(120.125,115.875)"/>
<path d="M0 0 C2.4375 0.9375 2.4375 0.9375 3.5703125 2.58203125 C6.56899291 10.72709562 4.7838344 21.12426967 1.4375 28.9375 C0.7775 29.9275 0.1175 30.9175 -0.5625 31.9375 C-1.8825 31.9375 -3.2025 31.9375 -4.5625 31.9375 C-8.3874206 25.39811963 -10.43394053 20.62737386 -9.5625 12.9375 C-5.75051328 -0.14025642 -5.75051328 -0.14025642 0 0 Z " fill="#C51C53" transform="translate(93.5625,150.0625)"/>
<path d="M0 0 C3.29885597 0.2443597 4.22885893 1.22885893 6.625 3.625 C10.61724005 8.77191871 11.66207381 14.59995321 11 21 C9.56143978 25.11889648 8.10885328 28.89114672 5 32 C3.015625 31.87890625 3.015625 31.87890625 1 31 C-2.93586782 25.64284657 -3.38165513 19.10745519 -3.4375 12.6875 C-3.44749023 12.0061499 -3.45748047 11.3247998 -3.46777344 10.62280273 C-3.39271947 6.26163124 -2.56671437 3.5198709 0 0 Z " fill="#C51C53" transform="translate(205,150)"/>
<path d="M0 0 C0.66 0.33 1.32 0.66 2 1 C-1.96 4.96 -5.92 8.92 -10 13 C-10 8.41771462 -7.08388033 6.1816619 -4 3 C-1.625 1.0625 -1.625 1.0625 0 0 Z " fill="#AA1B49" transform="translate(190,189)"/>
<path d="M0 0 C5.94 1.485 5.94 1.485 12 3 C11.67 3.99 11.34 4.98 11 6 C7.27566618 4.7874262 3.62197194 3.49140021 0 2 C0 1.34 0 0.68 0 0 Z " fill="#132D18" transform="translate(104,73)"/>
<path d="M0 0 C-2.85306797 2.32472205 -5.54074837 3.7508258 -9 5 C-9.99 4.01 -10.98 3.02 -12 2 C-7.82262526 0.40861915 -4.46839215 -0.21278058 0 0 Z " fill="#0F2113" transform="translate(195,74)"/>
<path d="M0 0 C1.65 0 3.3 0 5 0 C4.01 0.66 3.02 1.32 2 2 C1.67 2.99 1.34 3.98 1 5 C-2.96 5 -6.92 5 -11 5 C-11 4.67 -11 4.34 -11 4 C-7.7 4 -4.4 4 -1 4 C-0.67 2.68 -0.34 1.36 0 0 Z " fill="#2F7136" transform="translate(105,63)"/>
<path d="M0 0 C1.32 0.33 2.64 0.66 4 1 C1.36 2.98 -1.28 4.96 -4 7 C-2.92598892 4.08482708 -2.22189824 2.22189824 0 0 Z " fill="#9D1A44" transform="translate(91,150)"/>
</svg>
